G04 EAGLE Gerber RS-274X export*
G75*
%MOMM*%
%FSLAX34Y34*%
%LPD*%
%INTop Solder Mask*%
%IPPOS*%
%AMOC8*
5,1,8,0,0,1.08239X$1,22.5*%
G01*
%ADD10R,3.920788X1.596459*%
%ADD11R,3.917600X3.917600*%
%ADD12C,3.917600*%
%ADD13C,2.901600*%
%ADD14R,2.501600X2.501600*%
%ADD15C,2.501600*%
%ADD16C,1.981200*%
%ADD17R,9.753600X10.769600*%
%ADD18R,3.601600X1.701600*%
%ADD19R,0.901600X1.301600*%
%ADD20C,1.551600*%
%ADD21C,1.209600*%
%ADD22R,1.301600X1.301600*%
%ADD23C,1.601600*%
%ADD24C,1.001600*%
%ADD25C,1.226600*%
%ADD26C,2.501900*%
%ADD27R,2.501900X2.501900*%
%ADD28C,1.376600*%

G36*
X295286Y1286D02*
X295286Y1286D01*
X295405Y1293D01*
X295443Y1306D01*
X295483Y1311D01*
X295594Y1354D01*
X295707Y1391D01*
X295742Y1413D01*
X295779Y1428D01*
X295875Y1498D01*
X295976Y1561D01*
X296004Y1591D01*
X296036Y1614D01*
X296112Y1706D01*
X296194Y1793D01*
X296213Y1828D01*
X296239Y1859D01*
X296290Y1967D01*
X296347Y2071D01*
X296358Y2111D01*
X296375Y2147D01*
X296397Y2264D01*
X296427Y2379D01*
X296431Y2440D01*
X296435Y2460D01*
X296433Y2480D01*
X296437Y2540D01*
X296437Y149860D01*
X296422Y149978D01*
X296415Y150097D01*
X296402Y150135D01*
X296397Y150176D01*
X296353Y150286D01*
X296317Y150399D01*
X296295Y150434D01*
X296280Y150471D01*
X296210Y150567D01*
X296147Y150668D01*
X296117Y150696D01*
X296093Y150729D01*
X296002Y150805D01*
X295915Y150886D01*
X295880Y150906D01*
X295848Y150931D01*
X295741Y150982D01*
X295637Y151040D01*
X295597Y151050D01*
X295561Y151067D01*
X295444Y151089D01*
X295329Y151119D01*
X295268Y151123D01*
X295248Y151127D01*
X295228Y151125D01*
X295168Y151129D01*
X122693Y151129D01*
X122575Y151114D01*
X122456Y151107D01*
X122418Y151094D01*
X122378Y151089D01*
X122267Y151046D01*
X122154Y151009D01*
X122119Y150987D01*
X122082Y150972D01*
X121986Y150903D01*
X121885Y150839D01*
X121857Y150809D01*
X121825Y150786D01*
X121749Y150694D01*
X121667Y150607D01*
X121648Y150572D01*
X121622Y150541D01*
X121571Y150433D01*
X121514Y150329D01*
X121503Y150289D01*
X121486Y150253D01*
X121464Y150136D01*
X121434Y150021D01*
X121430Y149961D01*
X121426Y149941D01*
X121428Y149920D01*
X121424Y149860D01*
X121424Y2540D01*
X121439Y2422D01*
X121446Y2303D01*
X121459Y2265D01*
X121464Y2224D01*
X121508Y2114D01*
X121544Y2001D01*
X121566Y1966D01*
X121581Y1929D01*
X121651Y1833D01*
X121714Y1732D01*
X121744Y1704D01*
X121768Y1671D01*
X121859Y1596D01*
X121946Y1514D01*
X121981Y1494D01*
X122013Y1469D01*
X122120Y1418D01*
X122224Y1360D01*
X122264Y1350D01*
X122300Y1333D01*
X122417Y1311D01*
X122532Y1281D01*
X122593Y1277D01*
X122613Y1273D01*
X122633Y1275D01*
X122693Y1271D01*
X295168Y1271D01*
X295286Y1286D01*
G37*
D10*
X22144Y124098D03*
D11*
X869950Y614680D03*
D12*
X869950Y469900D03*
X869950Y401320D03*
X869950Y335280D03*
X869950Y195580D03*
X869950Y121920D03*
D13*
X869950Y542290D03*
X869950Y265430D03*
D14*
X260350Y364744D03*
D15*
X260350Y425196D03*
X260350Y485648D03*
X260350Y546100D03*
X260350Y606552D03*
X196850Y606552D03*
X196850Y546100D03*
X196850Y485648D03*
X196850Y425196D03*
X196850Y364744D03*
D12*
X239776Y656336D03*
X240284Y314960D03*
D16*
X678180Y647700D03*
X652780Y650240D03*
X627380Y647700D03*
X601980Y650240D03*
X576580Y647700D03*
X551180Y650240D03*
D17*
X193360Y58420D03*
D18*
X79810Y58420D03*
X79810Y33020D03*
X79810Y83820D03*
D19*
X514343Y431446D03*
X532343Y431446D03*
X532275Y464982D03*
X514275Y464982D03*
X532308Y395663D03*
X514308Y395663D03*
X514233Y378441D03*
X532233Y378441D03*
D20*
X365360Y59060D03*
X315360Y59060D03*
D21*
X375360Y37600D02*
X375360Y26520D01*
X305360Y26520D02*
X305360Y37600D01*
D19*
X514240Y414020D03*
X532240Y414020D03*
D22*
X106738Y33113D03*
D23*
X779780Y650240D03*
X596900Y304800D03*
X594360Y561340D03*
X481172Y487819D03*
D24*
X375091Y514655D03*
X391160Y506561D03*
X391160Y400558D03*
X387855Y575355D03*
X403401Y643793D03*
X414020Y353060D03*
D25*
X809554Y675153D03*
D22*
X107160Y83828D03*
D26*
X843280Y683260D03*
D23*
X207424Y209622D03*
D24*
X292100Y363220D03*
D22*
X106754Y58398D03*
D27*
X277647Y19271D03*
D22*
X135407Y120871D03*
D26*
X723900Y650240D03*
X596900Y248920D03*
D23*
X647700Y561340D03*
D26*
X429721Y487670D03*
D22*
X127787Y16731D03*
D28*
X744220Y203200D03*
X758017Y203052D03*
X771807Y203172D03*
X785655Y203271D03*
X746760Y347980D03*
X760713Y347980D03*
X774782Y347980D03*
X789940Y347980D03*
X746760Y495300D03*
X760868Y495300D03*
X774189Y495300D03*
X788246Y495300D03*
D24*
X388620Y609600D03*
X236220Y223520D03*
X403860Y307340D03*
X622300Y83820D03*
X604837Y84253D03*
X586740Y83820D03*
X568960Y83820D03*
X551180Y83820D03*
X533400Y83820D03*
X515620Y83820D03*
X497840Y83820D03*
M02*
