G04 EAGLE Gerber RS-274X export*
G75*
%MOMM*%
%FSLAX34Y34*%
%LPD*%
%INInner Layer 2*%
%IPPOS*%
%AMOC8*
5,1,8,0,0,1.08239X$1,22.5*%
G01*
%ADD10C,3.816000*%
%ADD11C,2.400000*%
%ADD12C,1.524000*%
%ADD13C,1.358000*%
%ADD14C,1.108000*%
%ADD15C,1.200000*%
%ADD16C,0.900000*%
%ADD17C,0.553200*%
%ADD18C,1.500000*%
%ADD19C,1.125000*%
%ADD20C,2.400300*%
%ADD21C,1.275000*%

G36*
X271171Y3057D02*
X271171Y3057D01*
X271240Y3056D01*
X271328Y3077D01*
X271417Y3089D01*
X271482Y3114D01*
X271550Y3131D01*
X271629Y3173D01*
X271713Y3206D01*
X271769Y3247D01*
X271831Y3279D01*
X271897Y3340D01*
X271970Y3392D01*
X272014Y3446D01*
X272066Y3493D01*
X272115Y3568D01*
X272173Y3637D01*
X272202Y3701D01*
X272241Y3759D01*
X272270Y3844D01*
X272308Y3925D01*
X272321Y3994D01*
X272344Y4060D01*
X272351Y4149D01*
X272368Y4237D01*
X272364Y4307D01*
X272369Y4377D01*
X272354Y4465D01*
X272348Y4555D01*
X272327Y4621D01*
X272315Y4690D01*
X272278Y4772D01*
X272250Y4857D01*
X272213Y4916D01*
X272184Y4980D01*
X272128Y5050D01*
X272080Y5126D01*
X272029Y5174D01*
X271986Y5228D01*
X271914Y5283D01*
X271848Y5344D01*
X271787Y5378D01*
X271732Y5420D01*
X271587Y5491D01*
X269122Y6512D01*
X264888Y10746D01*
X262597Y16277D01*
X262597Y22265D01*
X264888Y27796D01*
X269122Y32030D01*
X274653Y34321D01*
X280641Y34321D01*
X286172Y32030D01*
X290406Y27796D01*
X292697Y22265D01*
X292697Y16277D01*
X290406Y10746D01*
X286172Y6512D01*
X283707Y5491D01*
X283646Y5456D01*
X283581Y5430D01*
X283509Y5378D01*
X283430Y5333D01*
X283380Y5285D01*
X283324Y5244D01*
X283266Y5174D01*
X283202Y5112D01*
X283166Y5052D01*
X283121Y4999D01*
X283083Y4917D01*
X283036Y4841D01*
X283015Y4774D01*
X282985Y4711D01*
X282969Y4623D01*
X282942Y4537D01*
X282939Y4467D01*
X282926Y4398D01*
X282931Y4309D01*
X282927Y4219D01*
X282941Y4151D01*
X282945Y4081D01*
X282973Y3996D01*
X282991Y3908D01*
X283022Y3845D01*
X283043Y3779D01*
X283091Y3703D01*
X283131Y3622D01*
X283176Y3569D01*
X283214Y3510D01*
X283279Y3448D01*
X283337Y3380D01*
X283394Y3340D01*
X283445Y3292D01*
X283524Y3249D01*
X283597Y3197D01*
X283663Y3172D01*
X283724Y3138D01*
X283811Y3116D01*
X283895Y3084D01*
X283964Y3076D01*
X284032Y3059D01*
X284192Y3049D01*
X500092Y3049D01*
X500142Y3055D01*
X500191Y3053D01*
X500299Y3075D01*
X500408Y3089D01*
X500454Y3107D01*
X500503Y3117D01*
X500601Y3165D01*
X500703Y3206D01*
X500744Y3235D01*
X500788Y3257D01*
X500872Y3328D01*
X500961Y3392D01*
X500993Y3431D01*
X501030Y3463D01*
X501093Y3553D01*
X501164Y3637D01*
X501185Y3682D01*
X501213Y3723D01*
X501252Y3826D01*
X501299Y3925D01*
X501308Y3974D01*
X501326Y4020D01*
X501338Y4130D01*
X501359Y4237D01*
X501356Y4287D01*
X501361Y4336D01*
X501346Y4445D01*
X501339Y4555D01*
X501324Y4602D01*
X501317Y4651D01*
X501265Y4804D01*
X500876Y5744D01*
X500876Y8057D01*
X501761Y10194D01*
X503397Y11830D01*
X505534Y12715D01*
X507847Y12715D01*
X509984Y11830D01*
X511620Y10194D01*
X512505Y8057D01*
X512505Y5744D01*
X512116Y4804D01*
X512103Y4756D01*
X512081Y4711D01*
X512061Y4603D01*
X512032Y4497D01*
X512031Y4447D01*
X512022Y4398D01*
X512028Y4289D01*
X512027Y4179D01*
X512038Y4131D01*
X512041Y4081D01*
X512075Y3977D01*
X512101Y3870D01*
X512124Y3826D01*
X512139Y3779D01*
X512198Y3686D01*
X512250Y3589D01*
X512283Y3552D01*
X512310Y3510D01*
X512390Y3435D01*
X512463Y3353D01*
X512505Y3326D01*
X512541Y3292D01*
X512637Y3239D01*
X512729Y3179D01*
X512776Y3162D01*
X512820Y3138D01*
X512926Y3111D01*
X513030Y3075D01*
X513080Y3071D01*
X513128Y3059D01*
X513288Y3049D01*
X535160Y3049D01*
X535210Y3055D01*
X535259Y3053D01*
X535367Y3075D01*
X535476Y3089D01*
X535522Y3107D01*
X535571Y3117D01*
X535669Y3165D01*
X535771Y3206D01*
X535812Y3235D01*
X535856Y3257D01*
X535940Y3328D01*
X536029Y3392D01*
X536061Y3431D01*
X536098Y3463D01*
X536162Y3553D01*
X536232Y3637D01*
X536253Y3682D01*
X536281Y3723D01*
X536320Y3826D01*
X536367Y3925D01*
X536376Y3974D01*
X536394Y4020D01*
X536406Y4130D01*
X536427Y4237D01*
X536424Y4287D01*
X536429Y4336D01*
X536414Y4445D01*
X536407Y4555D01*
X536392Y4602D01*
X536385Y4651D01*
X536333Y4804D01*
X536280Y4931D01*
X536280Y7244D01*
X537166Y9381D01*
X538801Y11017D01*
X540938Y11902D01*
X543252Y11902D01*
X545389Y11017D01*
X547025Y9381D01*
X547910Y7244D01*
X547910Y4931D01*
X547857Y4804D01*
X547844Y4756D01*
X547823Y4711D01*
X547802Y4603D01*
X547773Y4497D01*
X547773Y4447D01*
X547763Y4398D01*
X547770Y4289D01*
X547768Y4179D01*
X547780Y4131D01*
X547783Y4081D01*
X547817Y3977D01*
X547842Y3870D01*
X547866Y3826D01*
X547881Y3779D01*
X547940Y3686D01*
X547991Y3589D01*
X548025Y3552D01*
X548051Y3510D01*
X548131Y3435D01*
X548205Y3353D01*
X548247Y3326D01*
X548283Y3292D01*
X548379Y3239D01*
X548471Y3179D01*
X548518Y3162D01*
X548561Y3138D01*
X548668Y3111D01*
X548772Y3075D01*
X548821Y3071D01*
X548869Y3059D01*
X549030Y3049D01*
X570720Y3049D01*
X570770Y3055D01*
X570819Y3053D01*
X570927Y3075D01*
X571036Y3089D01*
X571082Y3107D01*
X571131Y3117D01*
X571229Y3165D01*
X571331Y3206D01*
X571372Y3235D01*
X571416Y3257D01*
X571500Y3328D01*
X571589Y3392D01*
X571621Y3431D01*
X571658Y3463D01*
X571722Y3553D01*
X571792Y3637D01*
X571813Y3682D01*
X571841Y3723D01*
X571880Y3826D01*
X571927Y3925D01*
X571936Y3974D01*
X571954Y4020D01*
X571966Y4130D01*
X571987Y4237D01*
X571984Y4287D01*
X571989Y4336D01*
X571974Y4445D01*
X571967Y4555D01*
X571952Y4602D01*
X571945Y4651D01*
X571893Y4804D01*
X571840Y4931D01*
X571840Y7244D01*
X572726Y9381D01*
X574361Y11017D01*
X576498Y11902D01*
X578812Y11902D01*
X580949Y11017D01*
X582585Y9381D01*
X583470Y7244D01*
X583470Y4931D01*
X583417Y4804D01*
X583404Y4756D01*
X583383Y4711D01*
X583362Y4603D01*
X583333Y4497D01*
X583333Y4447D01*
X583323Y4398D01*
X583330Y4289D01*
X583328Y4179D01*
X583340Y4131D01*
X583343Y4081D01*
X583377Y3977D01*
X583402Y3870D01*
X583426Y3826D01*
X583441Y3779D01*
X583500Y3686D01*
X583551Y3589D01*
X583585Y3552D01*
X583611Y3510D01*
X583691Y3435D01*
X583765Y3353D01*
X583807Y3326D01*
X583843Y3292D01*
X583939Y3239D01*
X584031Y3179D01*
X584078Y3162D01*
X584121Y3138D01*
X584228Y3111D01*
X584332Y3075D01*
X584381Y3071D01*
X584429Y3059D01*
X584590Y3049D01*
X606280Y3049D01*
X606330Y3055D01*
X606379Y3053D01*
X606487Y3075D01*
X606596Y3089D01*
X606642Y3107D01*
X606691Y3117D01*
X606789Y3165D01*
X606891Y3206D01*
X606932Y3235D01*
X606976Y3257D01*
X607060Y3328D01*
X607149Y3392D01*
X607181Y3431D01*
X607218Y3463D01*
X607282Y3553D01*
X607352Y3637D01*
X607373Y3682D01*
X607401Y3723D01*
X607440Y3826D01*
X607487Y3925D01*
X607496Y3974D01*
X607514Y4020D01*
X607526Y4130D01*
X607547Y4237D01*
X607544Y4287D01*
X607549Y4336D01*
X607534Y4445D01*
X607527Y4555D01*
X607512Y4602D01*
X607505Y4651D01*
X607453Y4804D01*
X607400Y4931D01*
X607400Y7244D01*
X608286Y9381D01*
X609921Y11017D01*
X612058Y11902D01*
X614372Y11902D01*
X616509Y11017D01*
X618145Y9381D01*
X619030Y7244D01*
X619030Y4931D01*
X618977Y4804D01*
X618964Y4756D01*
X618943Y4711D01*
X618922Y4603D01*
X618893Y4497D01*
X618893Y4447D01*
X618883Y4398D01*
X618890Y4289D01*
X618888Y4179D01*
X618900Y4131D01*
X618903Y4081D01*
X618937Y3977D01*
X618962Y3870D01*
X618986Y3826D01*
X619001Y3779D01*
X619060Y3686D01*
X619111Y3589D01*
X619145Y3552D01*
X619171Y3510D01*
X619251Y3435D01*
X619325Y3353D01*
X619367Y3326D01*
X619403Y3292D01*
X619499Y3239D01*
X619591Y3179D01*
X619638Y3162D01*
X619681Y3138D01*
X619788Y3111D01*
X619892Y3075D01*
X619941Y3071D01*
X619989Y3059D01*
X620150Y3049D01*
X781100Y3049D01*
X781149Y3055D01*
X781199Y3053D01*
X781306Y3075D01*
X781416Y3089D01*
X781462Y3107D01*
X781510Y3117D01*
X781609Y3165D01*
X781711Y3206D01*
X781752Y3235D01*
X781796Y3257D01*
X781880Y3328D01*
X781969Y3392D01*
X782000Y3431D01*
X782038Y3463D01*
X782101Y3553D01*
X782171Y3637D01*
X782193Y3682D01*
X782221Y3723D01*
X782260Y3826D01*
X782307Y3925D01*
X782316Y3974D01*
X782334Y4020D01*
X782346Y4130D01*
X782367Y4237D01*
X782364Y4287D01*
X782369Y4336D01*
X782354Y4445D01*
X782347Y4555D01*
X782332Y4602D01*
X782325Y4651D01*
X782273Y4804D01*
X781585Y6463D01*
X781585Y8777D01*
X782470Y10914D01*
X784106Y12550D01*
X786243Y13435D01*
X788557Y13435D01*
X790694Y12550D01*
X792330Y10914D01*
X793215Y8777D01*
X793215Y6463D01*
X792527Y4804D01*
X792514Y4756D01*
X792493Y4711D01*
X792472Y4603D01*
X792443Y4497D01*
X792443Y4447D01*
X792433Y4398D01*
X792440Y4289D01*
X792438Y4179D01*
X792450Y4131D01*
X792453Y4081D01*
X792487Y3977D01*
X792512Y3870D01*
X792536Y3826D01*
X792551Y3779D01*
X792610Y3686D01*
X792661Y3589D01*
X792695Y3552D01*
X792721Y3510D01*
X792801Y3435D01*
X792875Y3353D01*
X792917Y3326D01*
X792953Y3292D01*
X793049Y3239D01*
X793141Y3179D01*
X793188Y3162D01*
X793231Y3138D01*
X793338Y3111D01*
X793442Y3075D01*
X793491Y3071D01*
X793539Y3059D01*
X793700Y3049D01*
X807720Y3049D01*
X807838Y3064D01*
X807957Y3071D01*
X807995Y3084D01*
X808036Y3089D01*
X808146Y3132D01*
X808259Y3169D01*
X808294Y3191D01*
X808331Y3206D01*
X808427Y3275D01*
X808528Y3339D01*
X808556Y3369D01*
X808589Y3392D01*
X808665Y3484D01*
X808746Y3571D01*
X808766Y3606D01*
X808791Y3637D01*
X808842Y3745D01*
X808900Y3849D01*
X808910Y3889D01*
X808927Y3925D01*
X808949Y4042D01*
X808979Y4157D01*
X808983Y4217D01*
X808987Y4237D01*
X808985Y4258D01*
X808989Y4318D01*
X808989Y42701D01*
X808983Y42750D01*
X808985Y42800D01*
X808963Y42907D01*
X808949Y43016D01*
X808931Y43062D01*
X808921Y43111D01*
X808873Y43210D01*
X808832Y43312D01*
X808803Y43352D01*
X808781Y43397D01*
X808710Y43480D01*
X808646Y43569D01*
X808607Y43601D01*
X808575Y43639D01*
X808485Y43702D01*
X808401Y43772D01*
X808356Y43793D01*
X808315Y43822D01*
X808212Y43861D01*
X808113Y43908D01*
X808064Y43917D01*
X808018Y43935D01*
X807908Y43947D01*
X807801Y43967D01*
X807751Y43964D01*
X807702Y43970D01*
X807593Y43954D01*
X807483Y43948D01*
X807436Y43932D01*
X807387Y43925D01*
X807234Y43873D01*
X806411Y43532D01*
X804097Y43532D01*
X801960Y44417D01*
X800325Y46053D01*
X799439Y48190D01*
X799439Y50504D01*
X800325Y52641D01*
X801960Y54276D01*
X804097Y55162D01*
X806411Y55162D01*
X807234Y54820D01*
X807282Y54807D01*
X807327Y54786D01*
X807435Y54766D01*
X807541Y54736D01*
X807591Y54736D01*
X807640Y54726D01*
X807749Y54733D01*
X807859Y54731D01*
X807907Y54743D01*
X807957Y54746D01*
X808061Y54780D01*
X808168Y54806D01*
X808212Y54829D01*
X808259Y54844D01*
X808352Y54903D01*
X808449Y54954D01*
X808486Y54988D01*
X808528Y55014D01*
X808603Y55094D01*
X808685Y55168D01*
X808712Y55210D01*
X808746Y55246D01*
X808799Y55342D01*
X808859Y55434D01*
X808876Y55481D01*
X808900Y55524D01*
X808927Y55631D01*
X808963Y55735D01*
X808967Y55784D01*
X808979Y55832D01*
X808989Y55993D01*
X808989Y124460D01*
X808974Y124578D01*
X808967Y124697D01*
X808954Y124735D01*
X808949Y124776D01*
X808906Y124886D01*
X808869Y124999D01*
X808847Y125034D01*
X808832Y125071D01*
X808763Y125167D01*
X808699Y125268D01*
X808669Y125296D01*
X808646Y125329D01*
X808554Y125405D01*
X808467Y125486D01*
X808432Y125506D01*
X808401Y125531D01*
X808293Y125582D01*
X808189Y125640D01*
X808149Y125650D01*
X808113Y125667D01*
X807996Y125689D01*
X807881Y125719D01*
X807821Y125723D01*
X807801Y125727D01*
X807780Y125725D01*
X807720Y125729D01*
X712469Y125729D01*
X712469Y282082D01*
X712452Y282219D01*
X712439Y282358D01*
X712432Y282377D01*
X712429Y282397D01*
X712378Y282526D01*
X712331Y282657D01*
X712320Y282674D01*
X712312Y282693D01*
X712231Y282805D01*
X712153Y282920D01*
X712137Y282934D01*
X712126Y282950D01*
X712018Y283039D01*
X711914Y283131D01*
X711896Y283140D01*
X711881Y283153D01*
X711755Y283212D01*
X711631Y283276D01*
X711611Y283280D01*
X711593Y283289D01*
X711457Y283315D01*
X711321Y283345D01*
X711300Y283345D01*
X711281Y283348D01*
X711142Y283340D01*
X711003Y283336D01*
X710983Y283330D01*
X710963Y283329D01*
X710831Y283286D01*
X710697Y283247D01*
X710680Y283237D01*
X710661Y283231D01*
X710543Y283156D01*
X710423Y283086D01*
X710402Y283067D01*
X710392Y283060D01*
X710378Y283046D01*
X710303Y282979D01*
X709414Y282090D01*
X707277Y281205D01*
X704963Y281205D01*
X702826Y282090D01*
X701190Y283726D01*
X700305Y285863D01*
X700305Y288177D01*
X701190Y290314D01*
X702826Y291950D01*
X704963Y292835D01*
X707277Y292835D01*
X709414Y291950D01*
X710303Y291061D01*
X710412Y290976D01*
X710519Y290887D01*
X710538Y290878D01*
X710554Y290866D01*
X710682Y290810D01*
X710807Y290751D01*
X710827Y290748D01*
X710846Y290739D01*
X710984Y290718D01*
X711120Y290692D01*
X711140Y290693D01*
X711160Y290690D01*
X711299Y290703D01*
X711437Y290711D01*
X711456Y290718D01*
X711476Y290719D01*
X711608Y290767D01*
X711739Y290809D01*
X711757Y290820D01*
X711776Y290827D01*
X711891Y290905D01*
X712008Y290980D01*
X712022Y290994D01*
X712039Y291006D01*
X712131Y291110D01*
X712226Y291211D01*
X712236Y291229D01*
X712249Y291244D01*
X712313Y291368D01*
X712380Y291490D01*
X712385Y291509D01*
X712394Y291527D01*
X712424Y291663D01*
X712459Y291798D01*
X712461Y291826D01*
X712464Y291838D01*
X712463Y291858D01*
X712469Y291958D01*
X712469Y577851D01*
X756920Y577851D01*
X757077Y577871D01*
X757233Y577890D01*
X757234Y577890D01*
X757236Y577891D01*
X757383Y577949D01*
X757529Y578006D01*
X757530Y578007D01*
X757531Y578008D01*
X757656Y578098D01*
X757787Y578193D01*
X757787Y578194D01*
X757789Y578194D01*
X757886Y578312D01*
X757990Y578437D01*
X757991Y578439D01*
X757993Y578442D01*
X758068Y578578D01*
X771534Y607094D01*
X771574Y607217D01*
X771620Y607338D01*
X771623Y607368D01*
X771632Y607396D01*
X771641Y607525D01*
X771655Y607654D01*
X771651Y607684D01*
X771653Y607714D01*
X771629Y607841D01*
X771611Y607969D01*
X771597Y608010D01*
X771594Y608026D01*
X771584Y608046D01*
X771559Y608122D01*
X771425Y608443D01*
X771425Y610757D01*
X772310Y612894D01*
X773946Y614530D01*
X774859Y614908D01*
X774919Y614942D01*
X774982Y614967D01*
X775056Y615020D01*
X775135Y615065D01*
X775185Y615113D01*
X775240Y615153D01*
X775298Y615223D01*
X775364Y615286D01*
X775400Y615345D01*
X775443Y615397D01*
X775521Y615538D01*
X801248Y670018D01*
X801273Y670095D01*
X801307Y670167D01*
X801322Y670245D01*
X801346Y670320D01*
X801352Y670401D01*
X801367Y670480D01*
X801362Y670559D01*
X801367Y670638D01*
X801352Y670717D01*
X801347Y670797D01*
X801323Y670872D01*
X801308Y670950D01*
X801274Y671023D01*
X801249Y671099D01*
X801207Y671166D01*
X801173Y671238D01*
X801122Y671300D01*
X801079Y671368D01*
X801021Y671423D01*
X800971Y671484D01*
X800906Y671531D01*
X800847Y671586D01*
X800778Y671624D01*
X800714Y671671D01*
X800639Y671701D01*
X800569Y671740D01*
X800492Y671759D01*
X800418Y671789D01*
X800338Y671799D01*
X800261Y671819D01*
X800106Y671829D01*
X800103Y671829D01*
X800102Y671829D01*
X800100Y671829D01*
X258642Y671829D01*
X258504Y671812D01*
X258365Y671799D01*
X258346Y671792D01*
X258326Y671789D01*
X258197Y671738D01*
X258066Y671691D01*
X258049Y671680D01*
X258031Y671672D01*
X257918Y671591D01*
X257803Y671513D01*
X257790Y671497D01*
X257773Y671486D01*
X257684Y671378D01*
X257592Y671274D01*
X257583Y671256D01*
X257570Y671241D01*
X257511Y671115D01*
X257448Y670991D01*
X257443Y670971D01*
X257435Y670953D01*
X257409Y670817D01*
X257378Y670681D01*
X257379Y670660D01*
X257375Y670641D01*
X257384Y670502D01*
X257388Y670363D01*
X257394Y670343D01*
X257395Y670323D01*
X257438Y670191D01*
X257476Y670057D01*
X257487Y670040D01*
X257493Y670021D01*
X257567Y669903D01*
X257638Y669783D01*
X257656Y669762D01*
X257663Y669752D01*
X257678Y669738D01*
X257744Y669663D01*
X258536Y668871D01*
X261905Y660738D01*
X261905Y651934D01*
X258536Y643801D01*
X252311Y637576D01*
X244178Y634207D01*
X235374Y634207D01*
X227241Y637576D01*
X221016Y643801D01*
X217647Y651934D01*
X217647Y660738D01*
X221016Y668871D01*
X221808Y669663D01*
X221893Y669772D01*
X221982Y669879D01*
X221990Y669898D01*
X222003Y669914D01*
X222058Y670042D01*
X222117Y670167D01*
X222121Y670187D01*
X222129Y670206D01*
X222151Y670344D01*
X222177Y670480D01*
X222176Y670500D01*
X222179Y670520D01*
X222166Y670659D01*
X222157Y670797D01*
X222151Y670816D01*
X222149Y670836D01*
X222102Y670968D01*
X222059Y671099D01*
X222048Y671117D01*
X222041Y671136D01*
X221963Y671251D01*
X221889Y671368D01*
X221874Y671382D01*
X221863Y671399D01*
X221759Y671491D01*
X221657Y671586D01*
X221640Y671596D01*
X221624Y671609D01*
X221501Y671672D01*
X221379Y671740D01*
X221359Y671745D01*
X221341Y671754D01*
X221205Y671784D01*
X221071Y671819D01*
X221043Y671821D01*
X221031Y671824D01*
X221010Y671823D01*
X220910Y671829D01*
X190500Y671829D01*
X190385Y671815D01*
X190269Y671808D01*
X190227Y671795D01*
X190184Y671789D01*
X190076Y671747D01*
X189966Y671711D01*
X189929Y671688D01*
X189889Y671672D01*
X189795Y671604D01*
X189696Y671542D01*
X189666Y671511D01*
X189631Y671486D01*
X189557Y671396D01*
X189477Y671312D01*
X189456Y671274D01*
X189429Y671241D01*
X189379Y671135D01*
X189322Y671034D01*
X189311Y670992D01*
X189293Y670953D01*
X189271Y670839D01*
X189242Y670726D01*
X189237Y670661D01*
X189233Y670641D01*
X189235Y670621D01*
X189231Y670566D01*
X189018Y621502D01*
X189025Y621450D01*
X189022Y621397D01*
X189044Y621292D01*
X189057Y621186D01*
X189076Y621137D01*
X189087Y621086D01*
X189134Y620990D01*
X189173Y620890D01*
X189203Y620847D01*
X189226Y620800D01*
X189296Y620719D01*
X189358Y620632D01*
X189399Y620598D01*
X189433Y620558D01*
X189520Y620496D01*
X189602Y620428D01*
X189650Y620405D01*
X189693Y620375D01*
X189793Y620337D01*
X189890Y620291D01*
X189941Y620281D01*
X189990Y620262D01*
X190096Y620250D01*
X190202Y620230D01*
X190254Y620233D01*
X190306Y620227D01*
X190412Y620242D01*
X190519Y620248D01*
X190569Y620264D01*
X190621Y620272D01*
X190773Y620324D01*
X193857Y621601D01*
X199843Y621601D01*
X205374Y619310D01*
X209608Y615076D01*
X211899Y609545D01*
X211899Y603559D01*
X209608Y598028D01*
X205374Y593794D01*
X199843Y591503D01*
X193857Y591503D01*
X190644Y592834D01*
X190599Y592846D01*
X190557Y592866D01*
X190446Y592888D01*
X190337Y592918D01*
X190291Y592919D01*
X190244Y592928D01*
X190132Y592921D01*
X190019Y592923D01*
X189974Y592912D01*
X189927Y592909D01*
X189820Y592875D01*
X189710Y592849D01*
X189669Y592827D01*
X189624Y592812D01*
X189529Y592753D01*
X189429Y592700D01*
X189394Y592668D01*
X189355Y592643D01*
X189277Y592562D01*
X189194Y592486D01*
X189168Y592447D01*
X189136Y592413D01*
X189081Y592315D01*
X189019Y592220D01*
X189004Y592176D01*
X188981Y592135D01*
X188952Y592026D01*
X188916Y591920D01*
X188912Y591873D01*
X188900Y591827D01*
X188889Y591667D01*
X188756Y560941D01*
X188763Y560889D01*
X188760Y560837D01*
X188782Y560732D01*
X188795Y560625D01*
X188814Y560577D01*
X188824Y560525D01*
X188871Y560429D01*
X188910Y560329D01*
X188941Y560287D01*
X188964Y560240D01*
X189034Y560158D01*
X189096Y560071D01*
X189136Y560037D01*
X189170Y559998D01*
X189258Y559936D01*
X189340Y559867D01*
X189387Y559845D01*
X189430Y559814D01*
X189531Y559776D01*
X189627Y559730D01*
X189679Y559720D01*
X189728Y559702D01*
X189834Y559690D01*
X189939Y559669D01*
X189992Y559672D01*
X190044Y559667D01*
X190150Y559681D01*
X190257Y559688D01*
X190307Y559704D01*
X190359Y559711D01*
X190511Y559763D01*
X193857Y561149D01*
X199843Y561149D01*
X205374Y558858D01*
X209608Y554624D01*
X211899Y549093D01*
X211899Y543107D01*
X209608Y537576D01*
X205374Y533342D01*
X199843Y531051D01*
X193857Y531051D01*
X190383Y532490D01*
X190338Y532502D01*
X190295Y532523D01*
X190185Y532544D01*
X190076Y532574D01*
X190029Y532575D01*
X189983Y532584D01*
X189871Y532577D01*
X189758Y532579D01*
X189713Y532568D01*
X189666Y532565D01*
X189559Y532531D01*
X189449Y532505D01*
X189407Y532483D01*
X189363Y532469D01*
X189268Y532409D01*
X189168Y532356D01*
X189133Y532325D01*
X189093Y532300D01*
X189016Y532218D01*
X188932Y532142D01*
X188907Y532103D01*
X188874Y532069D01*
X188820Y531971D01*
X188758Y531877D01*
X188742Y531832D01*
X188720Y531791D01*
X188691Y531682D01*
X188655Y531576D01*
X188651Y531529D01*
X188639Y531484D01*
X188628Y531323D01*
X188494Y500381D01*
X188500Y500328D01*
X188498Y500276D01*
X188520Y500171D01*
X188533Y500065D01*
X188552Y500016D01*
X188562Y499965D01*
X188609Y499868D01*
X188648Y499769D01*
X188679Y499726D01*
X188702Y499679D01*
X188771Y499597D01*
X188834Y499510D01*
X188874Y499477D01*
X188908Y499437D01*
X188996Y499375D01*
X189078Y499307D01*
X189125Y499284D01*
X189168Y499254D01*
X189268Y499216D01*
X189365Y499170D01*
X189417Y499160D01*
X189466Y499141D01*
X189572Y499129D01*
X189677Y499109D01*
X189730Y499112D01*
X189782Y499106D01*
X189888Y499121D01*
X189995Y499127D01*
X190045Y499143D01*
X190097Y499150D01*
X190249Y499202D01*
X193857Y500697D01*
X199843Y500697D01*
X205374Y498406D01*
X209608Y494172D01*
X211899Y488641D01*
X211899Y482655D01*
X209608Y477124D01*
X205374Y472890D01*
X199843Y470599D01*
X193857Y470599D01*
X190122Y472146D01*
X190077Y472159D01*
X190034Y472179D01*
X189923Y472201D01*
X189815Y472230D01*
X189768Y472231D01*
X189722Y472240D01*
X189609Y472234D01*
X189497Y472235D01*
X189451Y472224D01*
X189404Y472222D01*
X189297Y472187D01*
X189188Y472161D01*
X189146Y472139D01*
X189102Y472125D01*
X189006Y472065D01*
X188907Y472012D01*
X188872Y471981D01*
X188832Y471956D01*
X188755Y471874D01*
X188671Y471798D01*
X188645Y471759D01*
X188613Y471725D01*
X188558Y471627D01*
X188497Y471533D01*
X188481Y471488D01*
X188458Y471447D01*
X188430Y471338D01*
X188393Y471232D01*
X188390Y471185D01*
X188378Y471140D01*
X188367Y470979D01*
X188232Y439820D01*
X188238Y439768D01*
X188236Y439716D01*
X188257Y439611D01*
X188270Y439504D01*
X188289Y439456D01*
X188300Y439404D01*
X188347Y439308D01*
X188386Y439208D01*
X188417Y439165D01*
X188440Y439118D01*
X188509Y439037D01*
X188572Y438950D01*
X188612Y438916D01*
X188646Y438876D01*
X188734Y438815D01*
X188816Y438746D01*
X188863Y438724D01*
X188906Y438693D01*
X189006Y438655D01*
X189103Y438609D01*
X189155Y438599D01*
X189204Y438581D01*
X189310Y438569D01*
X189415Y438548D01*
X189467Y438551D01*
X189520Y438545D01*
X189626Y438560D01*
X189733Y438566D01*
X189783Y438582D01*
X189834Y438590D01*
X189987Y438642D01*
X193857Y440245D01*
X199843Y440245D01*
X205374Y437954D01*
X209608Y433720D01*
X211899Y428189D01*
X211899Y422203D01*
X209608Y416672D01*
X205374Y412438D01*
X199843Y410147D01*
X193857Y410147D01*
X189860Y411803D01*
X189815Y411815D01*
X189773Y411835D01*
X189662Y411857D01*
X189554Y411886D01*
X189507Y411887D01*
X189461Y411896D01*
X189348Y411890D01*
X189236Y411892D01*
X189190Y411881D01*
X189143Y411878D01*
X189036Y411844D01*
X188926Y411817D01*
X188885Y411795D01*
X188840Y411781D01*
X188745Y411721D01*
X188645Y411669D01*
X188611Y411637D01*
X188571Y411612D01*
X188493Y411530D01*
X188410Y411455D01*
X188384Y411415D01*
X188352Y411381D01*
X188297Y411283D01*
X188235Y411189D01*
X188220Y411145D01*
X188197Y411104D01*
X188169Y410995D01*
X188132Y410888D01*
X188128Y410841D01*
X188116Y410796D01*
X188106Y410635D01*
X187970Y379259D01*
X187976Y379207D01*
X187974Y379155D01*
X187995Y379050D01*
X188008Y378944D01*
X188027Y378895D01*
X188038Y378843D01*
X188085Y378747D01*
X188124Y378647D01*
X188155Y378605D01*
X188178Y378558D01*
X188247Y378476D01*
X188310Y378389D01*
X188350Y378356D01*
X188384Y378316D01*
X188472Y378254D01*
X188554Y378185D01*
X188601Y378163D01*
X188644Y378133D01*
X188744Y378095D01*
X188841Y378049D01*
X188892Y378039D01*
X188941Y378020D01*
X189048Y378008D01*
X189153Y377988D01*
X189205Y377991D01*
X189257Y377985D01*
X189363Y378000D01*
X189470Y378006D01*
X189520Y378022D01*
X189572Y378029D01*
X189725Y378081D01*
X193857Y379793D01*
X199843Y379793D01*
X205374Y377502D01*
X209608Y373268D01*
X211899Y367737D01*
X211899Y361751D01*
X209608Y356220D01*
X205374Y351986D01*
X199843Y349695D01*
X193857Y349695D01*
X189599Y351459D01*
X189554Y351471D01*
X189512Y351491D01*
X189401Y351513D01*
X189293Y351543D01*
X189246Y351543D01*
X189200Y351552D01*
X189087Y351546D01*
X188975Y351548D01*
X188929Y351537D01*
X188882Y351534D01*
X188775Y351500D01*
X188665Y351474D01*
X188624Y351452D01*
X188579Y351437D01*
X188484Y351378D01*
X188384Y351325D01*
X188349Y351293D01*
X188310Y351268D01*
X188232Y351187D01*
X188149Y351111D01*
X188123Y351072D01*
X188091Y351038D01*
X188036Y350939D01*
X187974Y350845D01*
X187959Y350801D01*
X187936Y350760D01*
X187907Y350651D01*
X187871Y350544D01*
X187867Y350498D01*
X187855Y350452D01*
X187844Y350292D01*
X187085Y174904D01*
X187100Y174783D01*
X187107Y174662D01*
X187119Y174626D01*
X187124Y174589D01*
X187168Y174475D01*
X187205Y174359D01*
X187225Y174328D01*
X187239Y174292D01*
X187310Y174193D01*
X187376Y174091D01*
X187403Y174065D01*
X187425Y174034D01*
X187518Y173956D01*
X187607Y173873D01*
X187640Y173854D01*
X187669Y173830D01*
X187779Y173778D01*
X187886Y173719D01*
X187922Y173710D01*
X187956Y173694D01*
X188076Y173670D01*
X188194Y173640D01*
X188249Y173636D01*
X188268Y173632D01*
X188289Y173634D01*
X188354Y173629D01*
X190119Y173629D01*
X192256Y172744D01*
X193892Y171109D01*
X194777Y168971D01*
X194777Y166658D01*
X193892Y164521D01*
X192256Y162885D01*
X190119Y162000D01*
X188293Y162000D01*
X188178Y161985D01*
X188061Y161979D01*
X188020Y161966D01*
X187977Y161960D01*
X187869Y161917D01*
X187758Y161882D01*
X187722Y161859D01*
X187682Y161843D01*
X187588Y161775D01*
X187489Y161713D01*
X187459Y161682D01*
X187424Y161656D01*
X187350Y161567D01*
X187270Y161482D01*
X187249Y161445D01*
X187222Y161411D01*
X187172Y161306D01*
X187115Y161204D01*
X187104Y161163D01*
X187086Y161124D01*
X187064Y161010D01*
X187035Y160897D01*
X187030Y160832D01*
X187026Y160811D01*
X187027Y160792D01*
X187024Y160736D01*
X186696Y85089D01*
X117478Y85089D01*
X117360Y85074D01*
X117241Y85067D01*
X117203Y85054D01*
X117162Y85049D01*
X117052Y85006D01*
X116939Y84969D01*
X116904Y84947D01*
X116867Y84932D01*
X116771Y84863D01*
X116670Y84799D01*
X116642Y84769D01*
X116609Y84746D01*
X116534Y84654D01*
X116452Y84567D01*
X116432Y84532D01*
X116407Y84501D01*
X116356Y84393D01*
X116298Y84289D01*
X116288Y84249D01*
X116271Y84213D01*
X116249Y84096D01*
X116219Y83981D01*
X116215Y83921D01*
X116211Y83901D01*
X116213Y83880D01*
X116209Y83820D01*
X116209Y82028D01*
X114831Y78702D01*
X112286Y76156D01*
X108960Y74779D01*
X105360Y74779D01*
X102034Y76156D01*
X99489Y78702D01*
X98111Y82028D01*
X98111Y83820D01*
X98096Y83938D01*
X98089Y84057D01*
X98077Y84095D01*
X98071Y84136D01*
X98028Y84246D01*
X97991Y84359D01*
X97969Y84394D01*
X97954Y84431D01*
X97885Y84527D01*
X97821Y84628D01*
X97791Y84656D01*
X97768Y84689D01*
X97676Y84765D01*
X97589Y84846D01*
X97554Y84866D01*
X97523Y84891D01*
X97415Y84942D01*
X97311Y85000D01*
X97271Y85010D01*
X97235Y85027D01*
X97118Y85049D01*
X97003Y85079D01*
X96943Y85083D01*
X96923Y85087D01*
X96902Y85085D01*
X96842Y85089D01*
X76200Y85089D01*
X76082Y85074D01*
X75963Y85067D01*
X75925Y85054D01*
X75884Y85049D01*
X75774Y85006D01*
X75661Y84969D01*
X75626Y84947D01*
X75589Y84932D01*
X75493Y84863D01*
X75392Y84799D01*
X75364Y84769D01*
X75331Y84746D01*
X75256Y84654D01*
X75174Y84567D01*
X75154Y84532D01*
X75129Y84501D01*
X75078Y84393D01*
X75020Y84289D01*
X75010Y84249D01*
X74993Y84213D01*
X74971Y84096D01*
X74941Y83981D01*
X74937Y83921D01*
X74933Y83901D01*
X74935Y83880D01*
X74931Y83820D01*
X74931Y6107D01*
X74943Y6008D01*
X74946Y5909D01*
X74963Y5851D01*
X74971Y5791D01*
X75007Y5699D01*
X75035Y5604D01*
X75065Y5552D01*
X75088Y5495D01*
X75146Y5415D01*
X75196Y5330D01*
X75262Y5254D01*
X75274Y5238D01*
X75284Y5230D01*
X75303Y5209D01*
X77091Y3420D01*
X77169Y3360D01*
X77241Y3292D01*
X77294Y3263D01*
X77342Y3226D01*
X77433Y3186D01*
X77520Y3138D01*
X77579Y3123D01*
X77634Y3099D01*
X77732Y3084D01*
X77828Y3059D01*
X77928Y3053D01*
X77948Y3049D01*
X77961Y3051D01*
X77989Y3049D01*
X271101Y3049D01*
X271171Y3057D01*
G37*
%LPC*%
G36*
X235882Y292831D02*
X235882Y292831D01*
X227749Y296200D01*
X221524Y302425D01*
X218155Y310558D01*
X218155Y319362D01*
X221524Y327495D01*
X227749Y333720D01*
X235882Y337089D01*
X244686Y337089D01*
X252819Y333720D01*
X259044Y327495D01*
X262413Y319362D01*
X262413Y310558D01*
X259044Y302425D01*
X252819Y296200D01*
X244686Y292831D01*
X235882Y292831D01*
G37*
%LPD*%
%LPC*%
G36*
X428103Y459005D02*
X428103Y459005D01*
X425966Y459890D01*
X424330Y461526D01*
X423445Y463663D01*
X423445Y465977D01*
X424330Y468114D01*
X425966Y469749D01*
X427000Y470178D01*
X427061Y470212D01*
X427126Y470238D01*
X427198Y470291D01*
X427276Y470335D01*
X427327Y470384D01*
X427383Y470425D01*
X427440Y470494D01*
X427505Y470557D01*
X427541Y470616D01*
X427586Y470670D01*
X427624Y470751D01*
X427671Y470828D01*
X427692Y470894D01*
X427721Y470958D01*
X427738Y471046D01*
X427765Y471132D01*
X427768Y471201D01*
X427781Y471270D01*
X427776Y471359D01*
X427780Y471449D01*
X427766Y471518D01*
X427761Y471587D01*
X427734Y471673D01*
X427716Y471761D01*
X427685Y471823D01*
X427663Y471890D01*
X427615Y471966D01*
X427576Y472046D01*
X427531Y472099D01*
X427493Y472159D01*
X427428Y472220D01*
X427369Y472288D01*
X427312Y472329D01*
X427262Y472376D01*
X427183Y472420D01*
X427109Y472472D01*
X427044Y472496D01*
X426983Y472530D01*
X426896Y472552D01*
X426822Y472580D01*
X421196Y474911D01*
X416962Y479145D01*
X414671Y484676D01*
X414671Y490664D01*
X416962Y496195D01*
X421196Y500429D01*
X426728Y502720D01*
X432715Y502720D01*
X438247Y500429D01*
X442480Y496195D01*
X444771Y490664D01*
X444771Y484676D01*
X442480Y479145D01*
X438247Y474911D01*
X432715Y472620D01*
X432006Y472620D01*
X431936Y472611D01*
X431867Y472612D01*
X431779Y472591D01*
X431690Y472580D01*
X431625Y472554D01*
X431557Y472538D01*
X431478Y472496D01*
X431394Y472463D01*
X431338Y472422D01*
X431276Y472389D01*
X431210Y472329D01*
X431137Y472276D01*
X431092Y472222D01*
X431041Y472175D01*
X430992Y472100D01*
X430934Y472031D01*
X430904Y471968D01*
X430866Y471909D01*
X430837Y471824D01*
X430799Y471743D01*
X430786Y471675D01*
X430763Y471609D01*
X430756Y471519D01*
X430739Y471431D01*
X430743Y471361D01*
X430738Y471292D01*
X430753Y471203D01*
X430759Y471113D01*
X430780Y471047D01*
X430792Y470978D01*
X430829Y470896D01*
X430857Y470811D01*
X430894Y470752D01*
X430923Y470688D01*
X430979Y470618D01*
X431027Y470542D01*
X431078Y470494D01*
X431121Y470440D01*
X431193Y470386D01*
X431258Y470324D01*
X431320Y470291D01*
X431375Y470249D01*
X431520Y470178D01*
X432554Y469749D01*
X434190Y468114D01*
X435075Y465977D01*
X435075Y463663D01*
X434190Y461526D01*
X432554Y459890D01*
X430417Y459005D01*
X428103Y459005D01*
G37*
%LPD*%
%LPC*%
G36*
X720906Y635190D02*
X720906Y635190D01*
X715375Y637481D01*
X711141Y641715D01*
X708850Y647246D01*
X708850Y653234D01*
X711141Y658765D01*
X715375Y662999D01*
X720906Y665290D01*
X726894Y665290D01*
X732425Y662999D01*
X736659Y658765D01*
X738950Y653234D01*
X738950Y647246D01*
X736659Y641715D01*
X732425Y637481D01*
X726894Y635190D01*
X720906Y635190D01*
G37*
%LPD*%
%LPC*%
G36*
X593906Y233870D02*
X593906Y233870D01*
X588375Y236161D01*
X584141Y240395D01*
X581850Y245926D01*
X581850Y251914D01*
X584141Y257445D01*
X588375Y261679D01*
X593906Y263970D01*
X599894Y263970D01*
X605425Y261679D01*
X609659Y257445D01*
X611950Y251914D01*
X611950Y245926D01*
X609659Y240395D01*
X605425Y236161D01*
X599894Y233870D01*
X593906Y233870D01*
G37*
%LPD*%
%LPC*%
G36*
X257357Y349695D02*
X257357Y349695D01*
X251826Y351986D01*
X247592Y356220D01*
X245301Y361751D01*
X245301Y367737D01*
X247592Y373268D01*
X251826Y377502D01*
X257357Y379793D01*
X263343Y379793D01*
X268874Y377502D01*
X273108Y373268D01*
X275399Y367737D01*
X275399Y361751D01*
X273108Y356220D01*
X268874Y351986D01*
X263343Y349695D01*
X257357Y349695D01*
G37*
%LPD*%
%LPC*%
G36*
X257357Y531051D02*
X257357Y531051D01*
X251826Y533342D01*
X247592Y537576D01*
X245301Y543107D01*
X245301Y549093D01*
X247592Y554624D01*
X251826Y558858D01*
X257357Y561149D01*
X263343Y561149D01*
X268874Y558858D01*
X273108Y554624D01*
X275399Y549093D01*
X275399Y543107D01*
X273108Y537576D01*
X268874Y533342D01*
X263343Y531051D01*
X257357Y531051D01*
G37*
%LPD*%
%LPC*%
G36*
X257357Y410147D02*
X257357Y410147D01*
X251826Y412438D01*
X247592Y416672D01*
X245301Y422203D01*
X245301Y428189D01*
X247592Y433720D01*
X251826Y437954D01*
X257357Y440245D01*
X263343Y440245D01*
X268874Y437954D01*
X273108Y433720D01*
X275399Y428189D01*
X275399Y422203D01*
X273108Y416672D01*
X268874Y412438D01*
X263343Y410147D01*
X257357Y410147D01*
G37*
%LPD*%
%LPC*%
G36*
X257357Y470599D02*
X257357Y470599D01*
X251826Y472890D01*
X247592Y477124D01*
X245301Y482655D01*
X245301Y488641D01*
X247592Y494172D01*
X251826Y498406D01*
X257357Y500697D01*
X263343Y500697D01*
X268874Y498406D01*
X273108Y494172D01*
X275399Y488641D01*
X275399Y482655D01*
X273108Y477124D01*
X268874Y472890D01*
X263343Y470599D01*
X257357Y470599D01*
G37*
%LPD*%
%LPC*%
G36*
X257357Y591503D02*
X257357Y591503D01*
X251826Y593794D01*
X247592Y598028D01*
X245301Y603559D01*
X245301Y609545D01*
X247592Y615076D01*
X251826Y619310D01*
X257357Y621601D01*
X263343Y621601D01*
X268874Y619310D01*
X273108Y615076D01*
X275399Y609545D01*
X275399Y603559D01*
X273108Y598028D01*
X268874Y593794D01*
X263343Y591503D01*
X257357Y591503D01*
G37*
%LPD*%
%LPC*%
G36*
X626223Y354865D02*
X626223Y354865D01*
X624086Y355750D01*
X622450Y357386D01*
X621565Y359523D01*
X621565Y361837D01*
X622450Y363974D01*
X624086Y365610D01*
X626223Y366495D01*
X628537Y366495D01*
X630674Y365610D01*
X632231Y364052D01*
X632271Y364022D01*
X632304Y363985D01*
X632396Y363924D01*
X632483Y363857D01*
X632528Y363837D01*
X632570Y363810D01*
X632673Y363774D01*
X632774Y363731D01*
X632823Y363723D01*
X632870Y363707D01*
X632980Y363698D01*
X633088Y363681D01*
X633138Y363686D01*
X633187Y363682D01*
X633296Y363700D01*
X633405Y363711D01*
X633452Y363728D01*
X633501Y363736D01*
X633601Y363781D01*
X633704Y363818D01*
X633746Y363846D01*
X633791Y363867D01*
X633877Y363935D01*
X633967Y363997D01*
X634000Y364034D01*
X634039Y364065D01*
X634105Y364153D01*
X634178Y364235D01*
X634201Y364280D01*
X634230Y364319D01*
X634301Y364464D01*
X635150Y366514D01*
X636039Y367403D01*
X636112Y367497D01*
X636191Y367586D01*
X636209Y367622D01*
X636234Y367654D01*
X636282Y367763D01*
X636336Y367869D01*
X636344Y367908D01*
X636361Y367946D01*
X636379Y368063D01*
X636405Y368179D01*
X636404Y368220D01*
X636410Y368260D01*
X636399Y368378D01*
X636396Y368497D01*
X636384Y368536D01*
X636381Y368576D01*
X636340Y368688D01*
X636307Y368803D01*
X636287Y368838D01*
X636273Y368876D01*
X636206Y368974D01*
X636146Y369077D01*
X636106Y369122D01*
X636094Y369139D01*
X636079Y369152D01*
X636039Y369198D01*
X635150Y370086D01*
X634265Y372223D01*
X634265Y374537D01*
X635150Y376674D01*
X636786Y378310D01*
X637385Y378557D01*
X637505Y378626D01*
X637628Y378691D01*
X637643Y378705D01*
X637661Y378715D01*
X637761Y378812D01*
X637864Y378905D01*
X637875Y378922D01*
X637889Y378936D01*
X637962Y379055D01*
X638038Y379171D01*
X638045Y379190D01*
X638056Y379207D01*
X638096Y379340D01*
X638142Y379472D01*
X638143Y379492D01*
X638149Y379511D01*
X638156Y379650D01*
X638167Y379789D01*
X638163Y379809D01*
X638164Y379829D01*
X638136Y379965D01*
X638112Y380102D01*
X638104Y380121D01*
X638100Y380140D01*
X638039Y380265D01*
X637982Y380392D01*
X637969Y380408D01*
X637960Y380426D01*
X637870Y380532D01*
X637783Y380640D01*
X637767Y380653D01*
X637754Y380668D01*
X637640Y380748D01*
X637529Y380832D01*
X637504Y380844D01*
X637494Y380851D01*
X637475Y380858D01*
X637385Y380903D01*
X636786Y381151D01*
X635827Y382109D01*
X635788Y382140D01*
X635755Y382177D01*
X635663Y382237D01*
X635576Y382304D01*
X635530Y382324D01*
X635489Y382351D01*
X635385Y382387D01*
X635284Y382431D01*
X635235Y382439D01*
X635188Y382455D01*
X635079Y382463D01*
X634970Y382481D01*
X634920Y382476D01*
X634871Y382480D01*
X634763Y382461D01*
X634653Y382451D01*
X634607Y382434D01*
X634558Y382425D01*
X634458Y382380D01*
X634354Y382343D01*
X634313Y382315D01*
X634268Y382295D01*
X634182Y382226D01*
X634091Y382165D01*
X634058Y382127D01*
X634019Y382096D01*
X633953Y382008D01*
X633881Y381926D01*
X633858Y381882D01*
X633828Y381842D01*
X633757Y381698D01*
X632916Y379668D01*
X631281Y378032D01*
X629144Y377147D01*
X626830Y377147D01*
X624693Y378032D01*
X623057Y379668D01*
X622172Y381805D01*
X622172Y384118D01*
X623057Y386256D01*
X624693Y387891D01*
X626830Y388777D01*
X629144Y388777D01*
X631281Y387891D01*
X632240Y386932D01*
X632279Y386902D01*
X632312Y386865D01*
X632404Y386805D01*
X632491Y386737D01*
X632537Y386718D01*
X632578Y386690D01*
X632682Y386655D01*
X632783Y386611D01*
X632832Y386603D01*
X632879Y386587D01*
X632988Y386578D01*
X633097Y386561D01*
X633147Y386566D01*
X633196Y386562D01*
X633304Y386581D01*
X633414Y386591D01*
X633460Y386608D01*
X633509Y386616D01*
X633609Y386661D01*
X633713Y386699D01*
X633754Y386727D01*
X633799Y386747D01*
X633885Y386815D01*
X633976Y386877D01*
X634009Y386914D01*
X634048Y386945D01*
X634114Y387033D01*
X634186Y387116D01*
X634209Y387160D01*
X634239Y387200D01*
X634310Y387344D01*
X635150Y389374D01*
X636786Y391010D01*
X638923Y391895D01*
X641237Y391895D01*
X643374Y391010D01*
X645010Y389374D01*
X645895Y387237D01*
X645895Y384923D01*
X645010Y382786D01*
X643374Y381151D01*
X642775Y380903D01*
X642655Y380834D01*
X642532Y380769D01*
X642517Y380755D01*
X642499Y380745D01*
X642399Y380649D01*
X642296Y380555D01*
X642285Y380538D01*
X642271Y380524D01*
X642198Y380405D01*
X642122Y380289D01*
X642115Y380270D01*
X642104Y380253D01*
X642064Y380120D01*
X642018Y379988D01*
X642017Y379968D01*
X642011Y379949D01*
X642004Y379810D01*
X641993Y379671D01*
X641997Y379651D01*
X641996Y379631D01*
X642024Y379495D01*
X642048Y379358D01*
X642056Y379339D01*
X642060Y379320D01*
X642121Y379195D01*
X642178Y379068D01*
X642191Y379052D01*
X642200Y379034D01*
X642290Y378928D01*
X642377Y378820D01*
X642393Y378807D01*
X642406Y378792D01*
X642520Y378712D01*
X642631Y378628D01*
X642656Y378616D01*
X642666Y378609D01*
X642685Y378602D01*
X642775Y378557D01*
X643374Y378310D01*
X645010Y376674D01*
X645895Y374537D01*
X645895Y372223D01*
X645010Y370086D01*
X644121Y369198D01*
X644048Y369104D01*
X643969Y369014D01*
X643951Y368978D01*
X643926Y368946D01*
X643879Y368837D01*
X643824Y368731D01*
X643816Y368692D01*
X643799Y368654D01*
X643781Y368537D01*
X643755Y368421D01*
X643756Y368380D01*
X643750Y368340D01*
X643761Y368222D01*
X643764Y368103D01*
X643776Y368064D01*
X643779Y368024D01*
X643820Y367911D01*
X643853Y367797D01*
X643873Y367763D01*
X643887Y367724D01*
X643954Y367626D01*
X644014Y367523D01*
X644054Y367478D01*
X644066Y367461D01*
X644081Y367448D01*
X644121Y367403D01*
X645010Y366514D01*
X645895Y364377D01*
X645895Y362063D01*
X645010Y359926D01*
X643374Y358290D01*
X641237Y357405D01*
X638923Y357405D01*
X636786Y358290D01*
X635229Y359848D01*
X635189Y359878D01*
X635156Y359915D01*
X635064Y359976D01*
X634977Y360043D01*
X634932Y360063D01*
X634890Y360090D01*
X634787Y360126D01*
X634686Y360169D01*
X634637Y360177D01*
X634590Y360193D01*
X634480Y360202D01*
X634372Y360219D01*
X634322Y360214D01*
X634273Y360218D01*
X634164Y360200D01*
X634055Y360189D01*
X634008Y360172D01*
X633959Y360164D01*
X633859Y360119D01*
X633756Y360082D01*
X633714Y360054D01*
X633669Y360033D01*
X633583Y359965D01*
X633493Y359903D01*
X633460Y359866D01*
X633421Y359835D01*
X633355Y359747D01*
X633282Y359665D01*
X633259Y359620D01*
X633230Y359581D01*
X633159Y359436D01*
X632310Y357386D01*
X630674Y355750D01*
X628537Y354865D01*
X626223Y354865D01*
G37*
%LPD*%
%LPC*%
G36*
X456043Y192305D02*
X456043Y192305D01*
X453906Y193190D01*
X452270Y194826D01*
X451385Y196963D01*
X451385Y199277D01*
X452270Y201414D01*
X453906Y203049D01*
X454222Y203180D01*
X454265Y203205D01*
X454312Y203222D01*
X454403Y203284D01*
X454498Y203338D01*
X454534Y203372D01*
X454575Y203400D01*
X454648Y203483D01*
X454727Y203559D01*
X454753Y203602D01*
X454786Y203639D01*
X454836Y203736D01*
X454893Y203830D01*
X454908Y203878D01*
X454930Y203922D01*
X454954Y204029D01*
X454987Y204134D01*
X454989Y204184D01*
X455000Y204232D01*
X454997Y204342D01*
X455002Y204452D01*
X454992Y204501D01*
X454990Y204550D01*
X454960Y204656D01*
X454938Y204763D01*
X454916Y204808D01*
X454902Y204856D01*
X454846Y204950D01*
X454798Y205049D01*
X454766Y205087D01*
X454740Y205130D01*
X454634Y205251D01*
X453340Y206544D01*
X452191Y209318D01*
X452191Y212322D01*
X453340Y215096D01*
X455464Y217220D01*
X458238Y218369D01*
X461242Y218369D01*
X464030Y217214D01*
X464055Y217186D01*
X464147Y217126D01*
X464234Y217058D01*
X464279Y217038D01*
X464321Y217011D01*
X464425Y216976D01*
X464525Y216932D01*
X464575Y216924D01*
X464622Y216908D01*
X464731Y216899D01*
X464840Y216882D01*
X464889Y216887D01*
X464939Y216883D01*
X465047Y216902D01*
X465156Y216912D01*
X465203Y216929D01*
X465252Y216937D01*
X465352Y216982D01*
X465455Y217019D01*
X465497Y217047D01*
X465542Y217068D01*
X465628Y217136D01*
X465719Y217198D01*
X465752Y217235D01*
X465790Y217266D01*
X465856Y217354D01*
X465929Y217436D01*
X465952Y217481D01*
X465982Y217520D01*
X466036Y217632D01*
X468164Y219760D01*
X470938Y220909D01*
X473942Y220909D01*
X476716Y219760D01*
X478840Y217636D01*
X479989Y214862D01*
X479989Y211858D01*
X478840Y209084D01*
X476716Y206960D01*
X473942Y205811D01*
X470938Y205811D01*
X468150Y206966D01*
X468125Y206994D01*
X468033Y207054D01*
X467946Y207122D01*
X467901Y207142D01*
X467859Y207169D01*
X467755Y207204D01*
X467655Y207248D01*
X467605Y207256D01*
X467558Y207272D01*
X467449Y207281D01*
X467340Y207298D01*
X467291Y207293D01*
X467241Y207297D01*
X467133Y207278D01*
X467024Y207268D01*
X466977Y207251D01*
X466928Y207243D01*
X466828Y207198D01*
X466725Y207161D01*
X466683Y207133D01*
X466638Y207112D01*
X466552Y207044D01*
X466461Y206982D01*
X466428Y206945D01*
X466390Y206914D01*
X466324Y206826D01*
X466251Y206744D01*
X466228Y206699D01*
X466198Y206660D01*
X466144Y206548D01*
X464016Y204420D01*
X462311Y203714D01*
X462268Y203690D01*
X462221Y203673D01*
X462130Y203611D01*
X462035Y203557D01*
X461999Y203522D01*
X461958Y203494D01*
X461885Y203412D01*
X461806Y203335D01*
X461780Y203293D01*
X461747Y203256D01*
X461697Y203158D01*
X461640Y203064D01*
X461625Y203017D01*
X461603Y202973D01*
X461579Y202865D01*
X461546Y202760D01*
X461544Y202711D01*
X461533Y202662D01*
X461536Y202552D01*
X461531Y202443D01*
X461541Y202394D01*
X461543Y202344D01*
X461573Y202239D01*
X461596Y202131D01*
X461617Y202087D01*
X461631Y202039D01*
X461687Y201944D01*
X461735Y201846D01*
X461768Y201808D01*
X461793Y201765D01*
X461899Y201644D01*
X462130Y201414D01*
X463015Y199277D01*
X463015Y196963D01*
X462130Y194826D01*
X460494Y193190D01*
X458357Y192305D01*
X456043Y192305D01*
G37*
%LPD*%
%LPC*%
G36*
X435723Y532665D02*
X435723Y532665D01*
X433586Y533550D01*
X431950Y535186D01*
X431065Y537323D01*
X431065Y539637D01*
X431950Y541774D01*
X433586Y543410D01*
X434185Y543657D01*
X434305Y543726D01*
X434428Y543791D01*
X434443Y543805D01*
X434461Y543815D01*
X434561Y543912D01*
X434664Y544005D01*
X434675Y544022D01*
X434689Y544036D01*
X434762Y544155D01*
X434838Y544271D01*
X434845Y544290D01*
X434856Y544307D01*
X434896Y544440D01*
X434942Y544572D01*
X434943Y544592D01*
X434949Y544611D01*
X434956Y544750D01*
X434967Y544889D01*
X434963Y544909D01*
X434964Y544929D01*
X434936Y545065D01*
X434912Y545202D01*
X434904Y545221D01*
X434900Y545240D01*
X434839Y545365D01*
X434782Y545492D01*
X434769Y545508D01*
X434760Y545526D01*
X434670Y545632D01*
X434583Y545740D01*
X434567Y545753D01*
X434554Y545768D01*
X434440Y545848D01*
X434329Y545932D01*
X434304Y545944D01*
X434294Y545951D01*
X434275Y545958D01*
X434185Y546003D01*
X433586Y546251D01*
X431950Y547886D01*
X431065Y550023D01*
X431065Y552337D01*
X431950Y554474D01*
X433586Y556110D01*
X434185Y556357D01*
X434305Y556426D01*
X434428Y556491D01*
X434443Y556505D01*
X434461Y556515D01*
X434561Y556612D01*
X434664Y556705D01*
X434675Y556722D01*
X434689Y556736D01*
X434762Y556855D01*
X434838Y556971D01*
X434845Y556990D01*
X434856Y557007D01*
X434896Y557140D01*
X434942Y557272D01*
X434943Y557292D01*
X434949Y557311D01*
X434956Y557450D01*
X434967Y557589D01*
X434963Y557609D01*
X434964Y557629D01*
X434936Y557765D01*
X434912Y557902D01*
X434904Y557921D01*
X434900Y557940D01*
X434839Y558065D01*
X434782Y558192D01*
X434769Y558208D01*
X434760Y558226D01*
X434670Y558332D01*
X434583Y558440D01*
X434567Y558453D01*
X434554Y558468D01*
X434440Y558548D01*
X434329Y558632D01*
X434304Y558644D01*
X434294Y558651D01*
X434275Y558658D01*
X434185Y558703D01*
X433586Y558951D01*
X431950Y560586D01*
X431065Y562723D01*
X431065Y563373D01*
X431050Y563492D01*
X431043Y563610D01*
X431030Y563649D01*
X431025Y563689D01*
X430982Y563800D01*
X430945Y563913D01*
X430923Y563947D01*
X430908Y563985D01*
X430839Y564081D01*
X430775Y564182D01*
X430745Y564209D01*
X430722Y564242D01*
X430630Y564318D01*
X430543Y564400D01*
X430508Y564419D01*
X430477Y564445D01*
X430369Y564496D01*
X430265Y564553D01*
X430225Y564563D01*
X430189Y564580D01*
X430072Y564603D01*
X429957Y564633D01*
X429897Y564636D01*
X429877Y564640D01*
X429856Y564639D01*
X429796Y564643D01*
X428451Y564643D01*
X426314Y565528D01*
X424678Y567164D01*
X423793Y569301D01*
X423793Y571614D01*
X424678Y573751D01*
X426314Y575387D01*
X428451Y576272D01*
X430764Y576272D01*
X432901Y575387D01*
X434537Y573751D01*
X435422Y571614D01*
X435422Y570964D01*
X435437Y570846D01*
X435445Y570727D01*
X435457Y570689D01*
X435462Y570648D01*
X435506Y570538D01*
X435543Y570425D01*
X435564Y570390D01*
X435579Y570353D01*
X435649Y570257D01*
X435713Y570156D01*
X435742Y570128D01*
X435766Y570095D01*
X435858Y570019D01*
X435944Y569938D01*
X435980Y569918D01*
X436011Y569893D01*
X436119Y569842D01*
X436223Y569784D01*
X436262Y569774D01*
X436299Y569757D01*
X436415Y569735D01*
X436531Y569705D01*
X436591Y569701D01*
X436611Y569697D01*
X436631Y569699D01*
X436691Y569695D01*
X438037Y569695D01*
X440174Y568810D01*
X441810Y567174D01*
X442695Y565037D01*
X442695Y562723D01*
X441810Y560586D01*
X440174Y558951D01*
X439575Y558703D01*
X439455Y558634D01*
X439332Y558569D01*
X439317Y558555D01*
X439299Y558545D01*
X439199Y558449D01*
X439096Y558355D01*
X439085Y558338D01*
X439071Y558324D01*
X438998Y558205D01*
X438922Y558089D01*
X438915Y558070D01*
X438904Y558053D01*
X438864Y557920D01*
X438818Y557788D01*
X438817Y557768D01*
X438811Y557749D01*
X438804Y557610D01*
X438793Y557471D01*
X438797Y557451D01*
X438796Y557431D01*
X438824Y557295D01*
X438848Y557158D01*
X438856Y557139D01*
X438860Y557120D01*
X438921Y556995D01*
X438978Y556868D01*
X438991Y556852D01*
X439000Y556834D01*
X439090Y556728D01*
X439177Y556620D01*
X439193Y556607D01*
X439206Y556592D01*
X439320Y556512D01*
X439431Y556428D01*
X439456Y556416D01*
X439466Y556409D01*
X439485Y556402D01*
X439575Y556357D01*
X440174Y556110D01*
X441810Y554474D01*
X442695Y552337D01*
X442695Y550023D01*
X441810Y547886D01*
X440174Y546251D01*
X439575Y546003D01*
X439455Y545934D01*
X439332Y545869D01*
X439317Y545855D01*
X439299Y545845D01*
X439199Y545749D01*
X439096Y545655D01*
X439085Y545638D01*
X439071Y545624D01*
X438998Y545505D01*
X438922Y545389D01*
X438915Y545370D01*
X438904Y545353D01*
X438864Y545220D01*
X438818Y545088D01*
X438817Y545068D01*
X438811Y545049D01*
X438804Y544910D01*
X438793Y544771D01*
X438797Y544751D01*
X438796Y544731D01*
X438824Y544595D01*
X438848Y544458D01*
X438856Y544439D01*
X438860Y544420D01*
X438921Y544295D01*
X438978Y544168D01*
X438991Y544152D01*
X439000Y544134D01*
X439090Y544028D01*
X439177Y543920D01*
X439193Y543907D01*
X439206Y543892D01*
X439320Y543812D01*
X439431Y543728D01*
X439456Y543716D01*
X439466Y543709D01*
X439485Y543702D01*
X439575Y543657D01*
X440174Y543410D01*
X441810Y541774D01*
X442695Y539637D01*
X442695Y537323D01*
X441810Y535186D01*
X440174Y533550D01*
X438037Y532665D01*
X435723Y532665D01*
G37*
%LPD*%
%LPC*%
G36*
X534533Y440455D02*
X534533Y440455D01*
X532396Y441340D01*
X532007Y441729D01*
X531913Y441802D01*
X531823Y441881D01*
X531787Y441899D01*
X531756Y441924D01*
X531646Y441971D01*
X531540Y442025D01*
X531501Y442034D01*
X531464Y442050D01*
X531346Y442069D01*
X531230Y442095D01*
X531190Y442094D01*
X531150Y442100D01*
X531031Y442089D01*
X530912Y442085D01*
X530873Y442074D01*
X530833Y442070D01*
X530721Y442030D01*
X530606Y441997D01*
X530572Y441976D01*
X530534Y441963D01*
X530435Y441896D01*
X530333Y441835D01*
X530287Y441795D01*
X530271Y441784D01*
X530257Y441769D01*
X530212Y441729D01*
X530211Y441728D01*
X528073Y440842D01*
X525760Y440842D01*
X523623Y441728D01*
X523298Y442052D01*
X523204Y442125D01*
X523115Y442204D01*
X523079Y442223D01*
X523047Y442247D01*
X522938Y442295D01*
X522832Y442349D01*
X522792Y442358D01*
X522755Y442374D01*
X522637Y442392D01*
X522521Y442418D01*
X522481Y442417D01*
X522441Y442423D01*
X522322Y442412D01*
X522203Y442409D01*
X522165Y442397D01*
X522124Y442394D01*
X522012Y442353D01*
X521898Y442320D01*
X521863Y442300D01*
X521825Y442286D01*
X521727Y442219D01*
X521624Y442159D01*
X521579Y442119D01*
X521562Y442107D01*
X521548Y442092D01*
X521503Y442052D01*
X521389Y441938D01*
X519252Y441053D01*
X516939Y441053D01*
X514802Y441938D01*
X514768Y441972D01*
X514674Y442045D01*
X514585Y442124D01*
X514549Y442142D01*
X514517Y442167D01*
X514408Y442214D01*
X514302Y442268D01*
X514262Y442277D01*
X514225Y442293D01*
X514107Y442312D01*
X513991Y442338D01*
X513951Y442337D01*
X513911Y442343D01*
X513792Y442332D01*
X513673Y442328D01*
X513635Y442317D01*
X513594Y442313D01*
X513482Y442273D01*
X513368Y442240D01*
X513333Y442219D01*
X513295Y442206D01*
X513197Y442139D01*
X513094Y442078D01*
X513049Y442038D01*
X513032Y442027D01*
X513018Y442012D01*
X512973Y441972D01*
X512729Y441728D01*
X510592Y440842D01*
X508278Y440842D01*
X506141Y441728D01*
X504506Y443363D01*
X503620Y445500D01*
X503620Y447814D01*
X504506Y449951D01*
X506141Y451587D01*
X508278Y452472D01*
X510592Y452472D01*
X512729Y451587D01*
X512762Y451553D01*
X512857Y451480D01*
X512946Y451401D01*
X512982Y451383D01*
X513014Y451358D01*
X513123Y451311D01*
X513229Y451257D01*
X513268Y451248D01*
X513306Y451232D01*
X513423Y451213D01*
X513539Y451187D01*
X513580Y451188D01*
X513620Y451182D01*
X513738Y451193D01*
X513857Y451197D01*
X513896Y451208D01*
X513936Y451212D01*
X514048Y451252D01*
X514163Y451285D01*
X514197Y451306D01*
X514236Y451319D01*
X514334Y451386D01*
X514437Y451447D01*
X514482Y451486D01*
X514499Y451498D01*
X514512Y451513D01*
X514557Y451553D01*
X514802Y451797D01*
X516939Y452683D01*
X519252Y452683D01*
X521389Y451797D01*
X521714Y451473D01*
X521808Y451400D01*
X521897Y451321D01*
X521933Y451302D01*
X521965Y451278D01*
X522075Y451230D01*
X522181Y451176D01*
X522220Y451167D01*
X522257Y451151D01*
X522375Y451133D01*
X522491Y451107D01*
X522531Y451108D01*
X522571Y451101D01*
X522690Y451113D01*
X522809Y451116D01*
X522848Y451127D01*
X522888Y451131D01*
X523000Y451172D01*
X523114Y451205D01*
X523149Y451225D01*
X523187Y451239D01*
X523286Y451306D01*
X523388Y451366D01*
X523433Y451406D01*
X523450Y451417D01*
X523464Y451433D01*
X523509Y451473D01*
X523623Y451587D01*
X525760Y452472D01*
X528073Y452472D01*
X530211Y451587D01*
X530600Y451198D01*
X530694Y451125D01*
X530783Y451046D01*
X530819Y451027D01*
X530851Y451003D01*
X530960Y450955D01*
X531066Y450901D01*
X531105Y450892D01*
X531143Y450876D01*
X531261Y450858D01*
X531377Y450832D01*
X531417Y450833D01*
X531457Y450826D01*
X531576Y450838D01*
X531694Y450841D01*
X531733Y450852D01*
X531773Y450856D01*
X531885Y450897D01*
X532000Y450930D01*
X532035Y450950D01*
X532073Y450964D01*
X532171Y451031D01*
X532274Y451091D01*
X532319Y451131D01*
X532336Y451142D01*
X532349Y451158D01*
X532395Y451198D01*
X532396Y451199D01*
X534533Y452084D01*
X536846Y452084D01*
X538983Y451199D01*
X540619Y449563D01*
X541504Y447426D01*
X541504Y445113D01*
X540619Y442976D01*
X538983Y441340D01*
X536846Y440455D01*
X534533Y440455D01*
G37*
%LPD*%
%LPC*%
G36*
X620798Y76271D02*
X620798Y76271D01*
X618024Y77420D01*
X615900Y79544D01*
X614677Y82498D01*
X614669Y82529D01*
X614627Y82608D01*
X614594Y82692D01*
X614553Y82748D01*
X614521Y82810D01*
X614460Y82876D01*
X614408Y82949D01*
X614354Y82994D01*
X614307Y83045D01*
X614232Y83095D01*
X614163Y83152D01*
X614099Y83182D01*
X614041Y83220D01*
X613956Y83249D01*
X613875Y83287D01*
X613806Y83301D01*
X613740Y83323D01*
X613651Y83330D01*
X613563Y83347D01*
X613493Y83343D01*
X613423Y83348D01*
X613335Y83333D01*
X613245Y83327D01*
X613179Y83306D01*
X613110Y83294D01*
X613028Y83257D01*
X612943Y83229D01*
X612884Y83192D01*
X612820Y83163D01*
X612750Y83107D01*
X612674Y83059D01*
X612626Y83008D01*
X612572Y82965D01*
X612517Y82893D01*
X612456Y82828D01*
X612422Y82767D01*
X612380Y82711D01*
X612309Y82566D01*
X611237Y79977D01*
X609113Y77853D01*
X606339Y76704D01*
X603336Y76704D01*
X600561Y77853D01*
X598438Y79977D01*
X597289Y82751D01*
X597289Y85754D01*
X598438Y88529D01*
X600561Y90652D01*
X603336Y91802D01*
X606339Y91802D01*
X609113Y90652D01*
X611237Y88529D01*
X612460Y85575D01*
X612468Y85544D01*
X612510Y85464D01*
X612543Y85381D01*
X612584Y85325D01*
X612617Y85263D01*
X612677Y85196D01*
X612730Y85124D01*
X612784Y85079D01*
X612830Y85028D01*
X612905Y84978D01*
X612975Y84921D01*
X613038Y84891D01*
X613096Y84853D01*
X613181Y84824D01*
X613262Y84785D01*
X613331Y84772D01*
X613397Y84750D01*
X613487Y84742D01*
X613575Y84726D01*
X613644Y84730D01*
X613714Y84724D01*
X613803Y84740D01*
X613892Y84745D01*
X613958Y84767D01*
X614027Y84779D01*
X614109Y84816D01*
X614195Y84843D01*
X614254Y84881D01*
X614317Y84909D01*
X614387Y84965D01*
X614463Y85013D01*
X614511Y85064D01*
X614566Y85108D01*
X614620Y85180D01*
X614681Y85245D01*
X614715Y85306D01*
X614757Y85362D01*
X614828Y85507D01*
X615900Y88096D01*
X618024Y90220D01*
X620798Y91369D01*
X623802Y91369D01*
X626576Y90220D01*
X628700Y88096D01*
X629849Y85322D01*
X629849Y82318D01*
X628700Y79544D01*
X626576Y77420D01*
X623802Y76271D01*
X620798Y76271D01*
G37*
%LPD*%
%LPC*%
G36*
X650658Y639571D02*
X650658Y639571D01*
X646737Y641195D01*
X643735Y644197D01*
X642111Y648118D01*
X642111Y652362D01*
X643735Y656283D01*
X646737Y659285D01*
X650658Y660909D01*
X654902Y660909D01*
X658823Y659285D01*
X661825Y656283D01*
X663449Y652362D01*
X663449Y648118D01*
X661825Y644197D01*
X658823Y641195D01*
X654902Y639571D01*
X650658Y639571D01*
G37*
%LPD*%
%LPC*%
G36*
X599858Y639571D02*
X599858Y639571D01*
X595937Y641195D01*
X592935Y644197D01*
X591311Y648118D01*
X591311Y652362D01*
X592935Y656283D01*
X595937Y659285D01*
X599858Y660909D01*
X604102Y660909D01*
X608023Y659285D01*
X611025Y656283D01*
X612649Y652362D01*
X612649Y648118D01*
X611025Y644197D01*
X608023Y641195D01*
X604102Y639571D01*
X599858Y639571D01*
G37*
%LPD*%
%LPC*%
G36*
X549058Y639571D02*
X549058Y639571D01*
X545137Y641195D01*
X542135Y644197D01*
X540511Y648118D01*
X540511Y652362D01*
X542135Y656283D01*
X545137Y659285D01*
X549058Y660909D01*
X553302Y660909D01*
X557223Y659285D01*
X560225Y656283D01*
X561849Y652362D01*
X561849Y648118D01*
X560225Y644197D01*
X557223Y641195D01*
X553302Y639571D01*
X549058Y639571D01*
G37*
%LPD*%
%LPC*%
G36*
X676058Y637031D02*
X676058Y637031D01*
X672137Y638655D01*
X669135Y641657D01*
X667511Y645578D01*
X667511Y649822D01*
X669135Y653743D01*
X672137Y656745D01*
X676058Y658369D01*
X680302Y658369D01*
X684223Y656745D01*
X687225Y653743D01*
X688849Y649822D01*
X688849Y645578D01*
X687225Y641657D01*
X684223Y638655D01*
X680302Y637031D01*
X676058Y637031D01*
G37*
%LPD*%
%LPC*%
G36*
X625258Y637031D02*
X625258Y637031D01*
X621337Y638655D01*
X618335Y641657D01*
X616711Y645578D01*
X616711Y649822D01*
X618335Y653743D01*
X621337Y656745D01*
X625258Y658369D01*
X629502Y658369D01*
X633423Y656745D01*
X636425Y653743D01*
X638049Y649822D01*
X638049Y645578D01*
X636425Y641657D01*
X633423Y638655D01*
X629502Y637031D01*
X625258Y637031D01*
G37*
%LPD*%
%LPC*%
G36*
X574458Y637031D02*
X574458Y637031D01*
X570537Y638655D01*
X567535Y641657D01*
X565911Y645578D01*
X565911Y649822D01*
X567535Y653743D01*
X570537Y656745D01*
X574458Y658369D01*
X578702Y658369D01*
X582623Y656745D01*
X585625Y653743D01*
X587249Y649822D01*
X587249Y645578D01*
X585625Y641657D01*
X582623Y638655D01*
X578702Y637031D01*
X574458Y637031D01*
G37*
%LPD*%
%LPC*%
G36*
X645602Y550791D02*
X645602Y550791D01*
X641725Y552397D01*
X638757Y555365D01*
X637151Y559242D01*
X637151Y563438D01*
X638757Y567315D01*
X641725Y570283D01*
X645602Y571889D01*
X649798Y571889D01*
X653675Y570283D01*
X656643Y567315D01*
X658249Y563438D01*
X658249Y559242D01*
X656643Y555365D01*
X653675Y552397D01*
X649798Y550791D01*
X645602Y550791D01*
G37*
%LPD*%
%LPC*%
G36*
X205326Y199073D02*
X205326Y199073D01*
X201449Y200679D01*
X198481Y203647D01*
X196875Y207524D01*
X196875Y211720D01*
X198481Y215597D01*
X201449Y218565D01*
X205326Y220171D01*
X209522Y220171D01*
X213399Y218565D01*
X216367Y215597D01*
X217973Y211720D01*
X217973Y207524D01*
X216367Y203647D01*
X213399Y200679D01*
X209522Y199073D01*
X205326Y199073D01*
G37*
%LPD*%
%LPC*%
G36*
X720203Y37365D02*
X720203Y37365D01*
X718066Y38250D01*
X716430Y39886D01*
X715545Y42023D01*
X715545Y44337D01*
X716430Y46474D01*
X718066Y48110D01*
X718665Y48357D01*
X718785Y48426D01*
X718908Y48491D01*
X718923Y48505D01*
X718941Y48515D01*
X719041Y48612D01*
X719144Y48705D01*
X719155Y48722D01*
X719169Y48736D01*
X719242Y48855D01*
X719318Y48971D01*
X719325Y48990D01*
X719336Y49007D01*
X719376Y49140D01*
X719422Y49272D01*
X719423Y49292D01*
X719429Y49311D01*
X719436Y49450D01*
X719447Y49589D01*
X719443Y49609D01*
X719444Y49629D01*
X719416Y49765D01*
X719392Y49902D01*
X719384Y49921D01*
X719380Y49940D01*
X719319Y50065D01*
X719262Y50192D01*
X719249Y50208D01*
X719240Y50226D01*
X719150Y50332D01*
X719063Y50440D01*
X719047Y50453D01*
X719034Y50468D01*
X718920Y50548D01*
X718809Y50632D01*
X718784Y50644D01*
X718774Y50651D01*
X718755Y50658D01*
X718665Y50703D01*
X718066Y50951D01*
X716430Y52586D01*
X715545Y54723D01*
X715545Y57037D01*
X716430Y59174D01*
X718066Y60810D01*
X718665Y61057D01*
X718785Y61126D01*
X718908Y61191D01*
X718923Y61205D01*
X718941Y61215D01*
X719041Y61312D01*
X719144Y61405D01*
X719155Y61422D01*
X719169Y61436D01*
X719242Y61555D01*
X719318Y61671D01*
X719325Y61690D01*
X719336Y61707D01*
X719376Y61840D01*
X719422Y61972D01*
X719423Y61992D01*
X719429Y62011D01*
X719436Y62150D01*
X719447Y62289D01*
X719443Y62309D01*
X719444Y62329D01*
X719416Y62465D01*
X719392Y62602D01*
X719384Y62621D01*
X719380Y62640D01*
X719319Y62765D01*
X719262Y62892D01*
X719249Y62908D01*
X719240Y62926D01*
X719150Y63032D01*
X719063Y63140D01*
X719047Y63153D01*
X719034Y63168D01*
X718920Y63248D01*
X718809Y63332D01*
X718784Y63344D01*
X718774Y63351D01*
X718755Y63358D01*
X718665Y63403D01*
X718066Y63651D01*
X716430Y65286D01*
X715545Y67423D01*
X715545Y69737D01*
X716430Y71874D01*
X718066Y73510D01*
X720203Y74395D01*
X722517Y74395D01*
X724654Y73510D01*
X726290Y71874D01*
X727175Y69737D01*
X727175Y67423D01*
X726290Y65286D01*
X724654Y63651D01*
X724055Y63403D01*
X723935Y63334D01*
X723812Y63269D01*
X723797Y63255D01*
X723779Y63245D01*
X723679Y63149D01*
X723576Y63055D01*
X723565Y63038D01*
X723551Y63024D01*
X723478Y62905D01*
X723402Y62789D01*
X723395Y62770D01*
X723384Y62753D01*
X723344Y62620D01*
X723298Y62488D01*
X723297Y62468D01*
X723291Y62449D01*
X723284Y62310D01*
X723273Y62171D01*
X723277Y62151D01*
X723276Y62131D01*
X723304Y61995D01*
X723328Y61858D01*
X723336Y61839D01*
X723340Y61820D01*
X723401Y61695D01*
X723458Y61568D01*
X723471Y61552D01*
X723480Y61534D01*
X723570Y61428D01*
X723657Y61320D01*
X723673Y61307D01*
X723686Y61292D01*
X723800Y61212D01*
X723911Y61128D01*
X723936Y61116D01*
X723946Y61109D01*
X723965Y61102D01*
X724055Y61057D01*
X724654Y60810D01*
X726290Y59174D01*
X727175Y57037D01*
X727175Y54723D01*
X726290Y52586D01*
X724654Y50951D01*
X724055Y50703D01*
X723935Y50634D01*
X723812Y50569D01*
X723797Y50555D01*
X723779Y50545D01*
X723679Y50449D01*
X723576Y50355D01*
X723565Y50338D01*
X723551Y50324D01*
X723478Y50205D01*
X723402Y50089D01*
X723395Y50070D01*
X723384Y50053D01*
X723344Y49920D01*
X723298Y49788D01*
X723297Y49768D01*
X723291Y49749D01*
X723284Y49610D01*
X723273Y49471D01*
X723277Y49451D01*
X723276Y49431D01*
X723304Y49295D01*
X723328Y49158D01*
X723336Y49139D01*
X723340Y49120D01*
X723401Y48995D01*
X723458Y48868D01*
X723471Y48852D01*
X723480Y48834D01*
X723570Y48728D01*
X723657Y48620D01*
X723673Y48607D01*
X723686Y48592D01*
X723800Y48512D01*
X723911Y48428D01*
X723936Y48416D01*
X723946Y48409D01*
X723965Y48402D01*
X724055Y48357D01*
X724654Y48110D01*
X726290Y46474D01*
X727175Y44337D01*
X727175Y42023D01*
X726290Y39886D01*
X724654Y38250D01*
X722517Y37365D01*
X720203Y37365D01*
G37*
%LPD*%
%LPC*%
G36*
X522083Y268211D02*
X522083Y268211D01*
X519946Y269096D01*
X518310Y270732D01*
X517425Y272869D01*
X517425Y275182D01*
X518310Y277320D01*
X519946Y278955D01*
X522083Y279840D01*
X523776Y279840D01*
X523894Y279855D01*
X524013Y279863D01*
X524051Y279875D01*
X524092Y279880D01*
X524202Y279924D01*
X524315Y279961D01*
X524350Y279982D01*
X524387Y279997D01*
X524483Y280067D01*
X524584Y280131D01*
X524612Y280160D01*
X524645Y280184D01*
X524721Y280276D01*
X524802Y280363D01*
X524822Y280398D01*
X524847Y280429D01*
X524898Y280537D01*
X524956Y280641D01*
X524966Y280680D01*
X524983Y280717D01*
X525005Y280834D01*
X525035Y280949D01*
X525039Y281009D01*
X525043Y281029D01*
X525041Y281050D01*
X525045Y281110D01*
X525045Y283097D01*
X525930Y285234D01*
X527566Y286870D01*
X529703Y287755D01*
X532017Y287755D01*
X534154Y286870D01*
X534693Y286330D01*
X534749Y286287D01*
X534797Y286237D01*
X534874Y286190D01*
X534945Y286135D01*
X535009Y286107D01*
X535068Y286071D01*
X535154Y286044D01*
X535237Y286009D01*
X535306Y285998D01*
X535372Y285977D01*
X535462Y285973D01*
X535551Y285959D01*
X535620Y285965D01*
X535690Y285962D01*
X535778Y285980D01*
X535867Y285988D01*
X535933Y286012D01*
X536001Y286026D01*
X536082Y286066D01*
X536167Y286096D01*
X536224Y286135D01*
X536287Y286166D01*
X536355Y286224D01*
X536430Y286275D01*
X536476Y286327D01*
X536529Y286372D01*
X536581Y286446D01*
X536640Y286513D01*
X536672Y286575D01*
X536712Y286632D01*
X536744Y286716D01*
X536785Y286796D01*
X536800Y286864D01*
X536825Y286930D01*
X536835Y287019D01*
X536854Y287107D01*
X536852Y287176D01*
X536860Y287246D01*
X536848Y287335D01*
X536845Y287425D01*
X536825Y287492D01*
X536816Y287561D01*
X536764Y287713D01*
X536491Y288371D01*
X536491Y290684D01*
X537376Y292821D01*
X539012Y294457D01*
X541149Y295342D01*
X543462Y295342D01*
X545600Y294457D01*
X547235Y292821D01*
X548121Y290684D01*
X548121Y288371D01*
X547235Y286234D01*
X545600Y284598D01*
X543462Y283713D01*
X541149Y283713D01*
X539012Y284598D01*
X538472Y285138D01*
X538417Y285180D01*
X538369Y285231D01*
X538292Y285278D01*
X538221Y285333D01*
X538157Y285360D01*
X538098Y285397D01*
X538012Y285423D01*
X537929Y285459D01*
X537860Y285470D01*
X537794Y285491D01*
X537704Y285495D01*
X537615Y285509D01*
X537545Y285502D01*
X537476Y285506D01*
X537388Y285488D01*
X537299Y285479D01*
X537233Y285456D01*
X537164Y285441D01*
X537084Y285402D01*
X536999Y285372D01*
X536942Y285332D01*
X536879Y285302D01*
X536810Y285243D01*
X536736Y285193D01*
X536690Y285141D01*
X536637Y285095D01*
X536585Y285022D01*
X536526Y284955D01*
X536494Y284892D01*
X536454Y284835D01*
X536422Y284751D01*
X536381Y284671D01*
X536366Y284603D01*
X536341Y284538D01*
X536331Y284449D01*
X536311Y284361D01*
X536313Y284291D01*
X536306Y284222D01*
X536318Y284133D01*
X536321Y284043D01*
X536340Y283976D01*
X536350Y283907D01*
X536402Y283755D01*
X536675Y283097D01*
X536675Y280783D01*
X535790Y278646D01*
X534154Y277010D01*
X532017Y276125D01*
X530324Y276125D01*
X530206Y276110D01*
X530087Y276103D01*
X530049Y276090D01*
X530008Y276085D01*
X529898Y276042D01*
X529785Y276005D01*
X529750Y275983D01*
X529713Y275968D01*
X529617Y275899D01*
X529516Y275835D01*
X529488Y275805D01*
X529455Y275782D01*
X529379Y275690D01*
X529298Y275603D01*
X529278Y275568D01*
X529253Y275537D01*
X529202Y275429D01*
X529144Y275325D01*
X529134Y275285D01*
X529117Y275249D01*
X529095Y275132D01*
X529065Y275017D01*
X529061Y274957D01*
X529057Y274937D01*
X529059Y274916D01*
X529055Y274856D01*
X529055Y272869D01*
X528170Y270732D01*
X526534Y269096D01*
X524397Y268211D01*
X522083Y268211D01*
G37*
%LPD*%
%LPC*%
G36*
X478903Y334545D02*
X478903Y334545D01*
X476766Y335430D01*
X475130Y337066D01*
X474245Y339203D01*
X474245Y341586D01*
X474239Y341636D01*
X474241Y341685D01*
X474219Y341793D01*
X474205Y341902D01*
X474187Y341948D01*
X474177Y341997D01*
X474129Y342096D01*
X474088Y342198D01*
X474059Y342238D01*
X474037Y342283D01*
X473966Y342366D01*
X473902Y342455D01*
X473863Y342487D01*
X473831Y342525D01*
X473741Y342588D01*
X473657Y342658D01*
X473612Y342679D01*
X473571Y342708D01*
X473468Y342747D01*
X473369Y342793D01*
X473320Y342803D01*
X473274Y342820D01*
X473164Y342833D01*
X473057Y342853D01*
X473007Y342850D01*
X472958Y342856D01*
X472849Y342840D01*
X472739Y342833D01*
X472692Y342818D01*
X472643Y342811D01*
X472490Y342759D01*
X471057Y342165D01*
X468743Y342165D01*
X466606Y343050D01*
X464970Y344686D01*
X464085Y346823D01*
X464085Y349137D01*
X464970Y351274D01*
X465859Y352162D01*
X465932Y352256D01*
X466011Y352346D01*
X466029Y352382D01*
X466054Y352414D01*
X466101Y352523D01*
X466156Y352629D01*
X466164Y352668D01*
X466181Y352706D01*
X466199Y352823D01*
X466225Y352939D01*
X466224Y352980D01*
X466230Y353020D01*
X466219Y353138D01*
X466216Y353257D01*
X466204Y353296D01*
X466201Y353336D01*
X466160Y353449D01*
X466127Y353563D01*
X466107Y353597D01*
X466093Y353636D01*
X466026Y353734D01*
X465966Y353837D01*
X465926Y353882D01*
X465914Y353899D01*
X465899Y353912D01*
X465859Y353957D01*
X464970Y354846D01*
X464085Y356983D01*
X464085Y359297D01*
X464970Y361434D01*
X466606Y363070D01*
X468743Y363955D01*
X471057Y363955D01*
X473194Y363070D01*
X474830Y361434D01*
X475715Y359297D01*
X475715Y356983D01*
X474830Y354846D01*
X473941Y353957D01*
X473868Y353863D01*
X473789Y353774D01*
X473771Y353738D01*
X473746Y353706D01*
X473698Y353597D01*
X473644Y353491D01*
X473636Y353452D01*
X473619Y353414D01*
X473601Y353297D01*
X473575Y353181D01*
X473576Y353140D01*
X473570Y353100D01*
X473581Y352982D01*
X473584Y352863D01*
X473596Y352824D01*
X473599Y352784D01*
X473640Y352672D01*
X473673Y352557D01*
X473693Y352522D01*
X473707Y352484D01*
X473774Y352386D01*
X473834Y352283D01*
X473874Y352238D01*
X473886Y352221D01*
X473901Y352208D01*
X473941Y352162D01*
X474830Y351274D01*
X475715Y349137D01*
X475715Y346754D01*
X475721Y346704D01*
X475719Y346655D01*
X475741Y346547D01*
X475755Y346438D01*
X475773Y346392D01*
X475783Y346343D01*
X475831Y346244D01*
X475872Y346142D01*
X475901Y346102D01*
X475923Y346057D01*
X475994Y345974D01*
X476058Y345885D01*
X476097Y345853D01*
X476129Y345815D01*
X476219Y345752D01*
X476303Y345682D01*
X476348Y345661D01*
X476389Y345632D01*
X476492Y345593D01*
X476591Y345547D01*
X476640Y345537D01*
X476686Y345520D01*
X476796Y345507D01*
X476903Y345487D01*
X476953Y345490D01*
X477002Y345484D01*
X477111Y345500D01*
X477221Y345507D01*
X477268Y345522D01*
X477317Y345529D01*
X477470Y345581D01*
X478903Y346175D01*
X481217Y346175D01*
X483354Y345290D01*
X484990Y343654D01*
X485875Y341517D01*
X485875Y339203D01*
X484990Y337066D01*
X483354Y335430D01*
X481217Y334545D01*
X478903Y334545D01*
G37*
%LPD*%
%LPC*%
G36*
X313403Y49221D02*
X313403Y49221D01*
X309787Y50719D01*
X307019Y53487D01*
X305521Y57103D01*
X305521Y61017D01*
X307019Y64633D01*
X309787Y67401D01*
X313403Y68899D01*
X317317Y68899D01*
X320933Y67401D01*
X323701Y64633D01*
X325199Y61017D01*
X325199Y57103D01*
X323701Y53487D01*
X320933Y50719D01*
X317317Y49221D01*
X313403Y49221D01*
G37*
%LPD*%
%LPC*%
G36*
X363403Y49221D02*
X363403Y49221D01*
X359787Y50719D01*
X357019Y53487D01*
X355521Y57103D01*
X355521Y61017D01*
X357019Y64633D01*
X359787Y67401D01*
X363403Y68899D01*
X367317Y68899D01*
X370933Y67401D01*
X373701Y64633D01*
X375199Y61017D01*
X375199Y57103D01*
X373701Y53487D01*
X370933Y50719D01*
X367317Y49221D01*
X363403Y49221D01*
G37*
%LPD*%
%LPC*%
G36*
X402358Y299791D02*
X402358Y299791D01*
X399584Y300940D01*
X397460Y303064D01*
X396311Y305838D01*
X396311Y308842D01*
X397460Y311616D01*
X399584Y313740D01*
X402358Y314889D01*
X405362Y314889D01*
X408136Y313740D01*
X410260Y311616D01*
X411246Y309235D01*
X411315Y309114D01*
X411380Y308991D01*
X411393Y308976D01*
X411403Y308959D01*
X411500Y308858D01*
X411594Y308756D01*
X411610Y308745D01*
X411625Y308730D01*
X411743Y308657D01*
X411859Y308581D01*
X411878Y308575D01*
X411896Y308564D01*
X412028Y308523D01*
X412160Y308478D01*
X412180Y308476D01*
X412200Y308470D01*
X412338Y308464D01*
X412477Y308453D01*
X412497Y308456D01*
X412517Y308455D01*
X412653Y308483D01*
X412790Y308507D01*
X412809Y308515D01*
X412829Y308520D01*
X412954Y308581D01*
X413080Y308638D01*
X413096Y308650D01*
X413114Y308659D01*
X413221Y308750D01*
X413329Y308836D01*
X413341Y308852D01*
X413356Y308866D01*
X413437Y308980D01*
X413520Y309090D01*
X413533Y309116D01*
X413540Y309126D01*
X413547Y309145D01*
X413591Y309235D01*
X414170Y310634D01*
X415806Y312270D01*
X417943Y313155D01*
X420257Y313155D01*
X422394Y312270D01*
X424030Y310634D01*
X424915Y308497D01*
X424915Y306183D01*
X424030Y304046D01*
X422394Y302410D01*
X420257Y301525D01*
X417943Y301525D01*
X415806Y302410D01*
X414170Y304046D01*
X413591Y305445D01*
X413522Y305566D01*
X413457Y305689D01*
X413444Y305704D01*
X413434Y305721D01*
X413336Y305822D01*
X413243Y305924D01*
X413226Y305935D01*
X413212Y305950D01*
X413094Y306023D01*
X412978Y306099D01*
X412958Y306105D01*
X412941Y306116D01*
X412809Y306157D01*
X412677Y306202D01*
X412656Y306204D01*
X412637Y306210D01*
X412499Y306216D01*
X412360Y306227D01*
X412340Y306224D01*
X412320Y306225D01*
X412184Y306197D01*
X412046Y306173D01*
X412028Y306165D01*
X412008Y306160D01*
X411883Y306099D01*
X411756Y306042D01*
X411741Y306030D01*
X411722Y306021D01*
X411617Y305930D01*
X411508Y305844D01*
X411496Y305828D01*
X411480Y305814D01*
X411400Y305701D01*
X411317Y305590D01*
X411304Y305564D01*
X411297Y305554D01*
X411290Y305535D01*
X411246Y305445D01*
X410260Y303064D01*
X408136Y300940D01*
X405362Y299791D01*
X402358Y299791D01*
G37*
%LPD*%
%LPC*%
G36*
X379843Y558065D02*
X379843Y558065D01*
X377706Y558950D01*
X376070Y560586D01*
X375185Y562723D01*
X375185Y565037D01*
X376070Y567174D01*
X377706Y568810D01*
X379843Y569695D01*
X380129Y569695D01*
X380179Y569701D01*
X380228Y569699D01*
X380336Y569721D01*
X380445Y569735D01*
X380491Y569753D01*
X380540Y569763D01*
X380638Y569811D01*
X380740Y569852D01*
X380781Y569881D01*
X380825Y569903D01*
X380909Y569974D01*
X380998Y570038D01*
X381030Y570077D01*
X381067Y570109D01*
X381131Y570199D01*
X381201Y570283D01*
X381222Y570328D01*
X381250Y570369D01*
X381289Y570472D01*
X381336Y570571D01*
X381345Y570620D01*
X381363Y570666D01*
X381375Y570776D01*
X381396Y570883D01*
X381393Y570933D01*
X381398Y570982D01*
X381383Y571091D01*
X381376Y571201D01*
X381361Y571248D01*
X381354Y571297D01*
X381302Y571450D01*
X380306Y573854D01*
X380306Y576857D01*
X381455Y579631D01*
X383579Y581755D01*
X386353Y582904D01*
X389356Y582904D01*
X392131Y581755D01*
X394254Y579631D01*
X395403Y576857D01*
X395403Y573854D01*
X394254Y571079D01*
X392131Y568956D01*
X389356Y567807D01*
X387567Y567807D01*
X387517Y567800D01*
X387468Y567803D01*
X387360Y567781D01*
X387251Y567767D01*
X387205Y567749D01*
X387156Y567739D01*
X387058Y567690D01*
X386956Y567650D01*
X386915Y567621D01*
X386871Y567599D01*
X386787Y567528D01*
X386698Y567463D01*
X386667Y567425D01*
X386629Y567392D01*
X386566Y567303D01*
X386495Y567218D01*
X386474Y567173D01*
X386446Y567132D01*
X386407Y567030D01*
X386360Y566930D01*
X386351Y566882D01*
X386333Y566835D01*
X386321Y566726D01*
X386300Y566618D01*
X386303Y566568D01*
X386298Y566519D01*
X386313Y566410D01*
X386320Y566301D01*
X386335Y566253D01*
X386342Y566204D01*
X386394Y566052D01*
X386815Y565037D01*
X386815Y562723D01*
X385930Y560586D01*
X384294Y558950D01*
X382157Y558065D01*
X379843Y558065D01*
G37*
%LPD*%
%LPC*%
G36*
X125987Y7682D02*
X125987Y7682D01*
X122661Y9060D01*
X120116Y11605D01*
X118738Y14931D01*
X118738Y18531D01*
X120116Y21856D01*
X122661Y24402D01*
X125987Y25780D01*
X129587Y25780D01*
X132913Y24402D01*
X135458Y21856D01*
X136836Y18531D01*
X136836Y14931D01*
X135458Y11605D01*
X132913Y9060D01*
X129587Y7682D01*
X125987Y7682D01*
G37*
%LPD*%
%LPC*%
G36*
X104954Y49349D02*
X104954Y49349D01*
X101628Y50727D01*
X99083Y53272D01*
X97705Y56598D01*
X97705Y60198D01*
X99083Y63524D01*
X101628Y66069D01*
X104954Y67447D01*
X108554Y67447D01*
X111879Y66069D01*
X114425Y63524D01*
X115802Y60198D01*
X115802Y56598D01*
X114425Y53272D01*
X111879Y50727D01*
X108554Y49349D01*
X104954Y49349D01*
G37*
%LPD*%
%LPC*%
G36*
X303652Y23471D02*
X303652Y23471D01*
X300495Y24779D01*
X298079Y27195D01*
X296771Y30352D01*
X296771Y33768D01*
X298079Y36925D01*
X300495Y39341D01*
X303652Y40649D01*
X307068Y40649D01*
X310225Y39341D01*
X312641Y36925D01*
X313949Y33768D01*
X313949Y30352D01*
X312641Y27195D01*
X310225Y24779D01*
X307068Y23471D01*
X303652Y23471D01*
G37*
%LPD*%
%LPC*%
G36*
X373652Y23471D02*
X373652Y23471D01*
X370495Y24779D01*
X368079Y27195D01*
X366771Y30352D01*
X366771Y33768D01*
X368079Y36925D01*
X370495Y39341D01*
X373652Y40649D01*
X377068Y40649D01*
X380225Y39341D01*
X382641Y36925D01*
X383949Y33768D01*
X383949Y30352D01*
X382641Y27195D01*
X380225Y24779D01*
X377068Y23471D01*
X373652Y23471D01*
G37*
%LPD*%
%LPC*%
G36*
X487332Y558041D02*
X487332Y558041D01*
X485195Y558927D01*
X483559Y560562D01*
X482674Y562700D01*
X482674Y565013D01*
X483559Y567150D01*
X485195Y568786D01*
X485418Y568878D01*
X485538Y568947D01*
X485661Y569012D01*
X485676Y569026D01*
X485694Y569036D01*
X485794Y569132D01*
X485897Y569226D01*
X485908Y569243D01*
X485922Y569257D01*
X485995Y569376D01*
X486071Y569492D01*
X486078Y569511D01*
X486088Y569528D01*
X486129Y569661D01*
X486175Y569792D01*
X486176Y569813D01*
X486182Y569832D01*
X486189Y569971D01*
X486200Y570109D01*
X486196Y570129D01*
X486197Y570150D01*
X486169Y570286D01*
X486145Y570423D01*
X486137Y570441D01*
X486133Y570461D01*
X486072Y570586D01*
X486015Y570713D01*
X486002Y570729D01*
X485993Y570747D01*
X485903Y570852D01*
X485816Y570961D01*
X485800Y570973D01*
X485787Y570989D01*
X485673Y571069D01*
X485562Y571152D01*
X485537Y571165D01*
X485527Y571172D01*
X485508Y571179D01*
X485418Y571223D01*
X484386Y571650D01*
X482750Y573286D01*
X481865Y575423D01*
X481865Y577737D01*
X482750Y579874D01*
X484386Y581510D01*
X486523Y582395D01*
X488837Y582395D01*
X490974Y581510D01*
X492610Y579874D01*
X493495Y577737D01*
X493495Y575423D01*
X492610Y573286D01*
X490974Y571651D01*
X490751Y571558D01*
X490695Y571526D01*
X490669Y571516D01*
X490639Y571495D01*
X490630Y571489D01*
X490507Y571424D01*
X490492Y571411D01*
X490475Y571401D01*
X490375Y571304D01*
X490272Y571210D01*
X490261Y571193D01*
X490246Y571179D01*
X490173Y571060D01*
X490097Y570945D01*
X490091Y570926D01*
X490080Y570908D01*
X490039Y570775D01*
X489994Y570644D01*
X489992Y570624D01*
X489986Y570604D01*
X489980Y570466D01*
X489969Y570327D01*
X489972Y570307D01*
X489971Y570287D01*
X489999Y570150D01*
X490023Y570013D01*
X490031Y569995D01*
X490035Y569975D01*
X490097Y569850D01*
X490154Y569723D01*
X490166Y569708D01*
X490175Y569689D01*
X490265Y569584D01*
X490352Y569475D01*
X490368Y569463D01*
X490381Y569447D01*
X490495Y569368D01*
X490606Y569284D01*
X490632Y569271D01*
X490641Y569264D01*
X490661Y569257D01*
X490751Y569213D01*
X491782Y568786D01*
X493418Y567150D01*
X494303Y565013D01*
X494303Y562700D01*
X493418Y560562D01*
X491782Y558927D01*
X489645Y558041D01*
X487332Y558041D01*
G37*
%LPD*%
%LPC*%
G36*
X530009Y571634D02*
X530009Y571634D01*
X527872Y572519D01*
X526236Y574155D01*
X525351Y576292D01*
X525351Y578605D01*
X526236Y580742D01*
X527872Y582378D01*
X528916Y582811D01*
X529037Y582880D01*
X529160Y582945D01*
X529175Y582958D01*
X529193Y582968D01*
X529292Y583065D01*
X529395Y583158D01*
X529406Y583175D01*
X529421Y583189D01*
X529494Y583308D01*
X529570Y583424D01*
X529577Y583443D01*
X529587Y583461D01*
X529628Y583593D01*
X529673Y583725D01*
X529675Y583745D01*
X529681Y583764D01*
X529687Y583903D01*
X529698Y584042D01*
X529695Y584062D01*
X529696Y584082D01*
X529668Y584218D01*
X529644Y584355D01*
X529636Y584374D01*
X529632Y584394D01*
X529570Y584519D01*
X529513Y584645D01*
X529501Y584661D01*
X529492Y584679D01*
X529402Y584785D01*
X529315Y584894D01*
X529299Y584906D01*
X529286Y584921D01*
X529172Y585002D01*
X529061Y585085D01*
X529036Y585097D01*
X529026Y585104D01*
X529006Y585112D01*
X528916Y585156D01*
X528103Y585493D01*
X526467Y587128D01*
X525582Y589265D01*
X525582Y591579D01*
X526467Y593716D01*
X528103Y595352D01*
X530240Y596237D01*
X532554Y596237D01*
X534691Y595352D01*
X536327Y593716D01*
X537212Y591579D01*
X537212Y589265D01*
X536327Y587128D01*
X534691Y585493D01*
X533646Y585060D01*
X533525Y584991D01*
X533402Y584926D01*
X533387Y584912D01*
X533370Y584902D01*
X533270Y584806D01*
X533167Y584712D01*
X533156Y584695D01*
X533141Y584681D01*
X533069Y584563D01*
X532992Y584446D01*
X532986Y584427D01*
X532975Y584410D01*
X532934Y584277D01*
X532889Y584146D01*
X532888Y584125D01*
X532882Y584106D01*
X532875Y583967D01*
X532864Y583829D01*
X532867Y583809D01*
X532866Y583788D01*
X532895Y583652D01*
X532918Y583515D01*
X532927Y583497D01*
X532931Y583477D01*
X532992Y583351D01*
X533049Y583225D01*
X533062Y583209D01*
X533070Y583191D01*
X533161Y583085D01*
X533247Y582977D01*
X533264Y582965D01*
X533277Y582949D01*
X533391Y582869D01*
X533502Y582786D01*
X533527Y582773D01*
X533537Y582766D01*
X533556Y582759D01*
X533646Y582715D01*
X534459Y582378D01*
X536095Y580742D01*
X536980Y578605D01*
X536980Y576292D01*
X536095Y574155D01*
X534459Y572519D01*
X532322Y571634D01*
X530009Y571634D01*
G37*
%LPD*%
%LPC*%
G36*
X524604Y539359D02*
X524604Y539359D01*
X522467Y540244D01*
X520831Y541880D01*
X519946Y544017D01*
X519946Y546330D01*
X520831Y548467D01*
X522467Y550103D01*
X524604Y550988D01*
X527109Y550988D01*
X527247Y551006D01*
X527385Y551019D01*
X527404Y551025D01*
X527425Y551028D01*
X527554Y551079D01*
X527685Y551126D01*
X527702Y551138D01*
X527720Y551145D01*
X527833Y551227D01*
X527948Y551305D01*
X527961Y551320D01*
X527978Y551332D01*
X528066Y551439D01*
X528158Y551543D01*
X528167Y551561D01*
X528180Y551577D01*
X528240Y551703D01*
X528303Y551826D01*
X528307Y551846D01*
X528316Y551865D01*
X528342Y552001D01*
X528373Y552137D01*
X528372Y552157D01*
X528376Y552177D01*
X528367Y552315D01*
X528363Y552455D01*
X528357Y552474D01*
X528356Y552494D01*
X528313Y552626D01*
X528274Y552760D01*
X528264Y552778D01*
X528258Y552797D01*
X528183Y552914D01*
X528113Y553034D01*
X528094Y553055D01*
X528088Y553065D01*
X528073Y553080D01*
X528007Y553155D01*
X526931Y554231D01*
X526046Y556368D01*
X526046Y558681D01*
X526931Y560818D01*
X528567Y562454D01*
X530704Y563339D01*
X533017Y563339D01*
X535154Y562454D01*
X536790Y560818D01*
X537675Y558681D01*
X537675Y556368D01*
X536790Y554231D01*
X535154Y552595D01*
X533017Y551710D01*
X530512Y551710D01*
X530374Y551692D01*
X530235Y551679D01*
X530216Y551672D01*
X530196Y551670D01*
X530067Y551619D01*
X529936Y551572D01*
X529919Y551560D01*
X529900Y551553D01*
X529788Y551471D01*
X529673Y551393D01*
X529659Y551378D01*
X529643Y551366D01*
X529554Y551259D01*
X529462Y551155D01*
X529453Y551137D01*
X529440Y551121D01*
X529381Y550995D01*
X529318Y550871D01*
X529313Y550852D01*
X529305Y550833D01*
X529278Y550697D01*
X529248Y550561D01*
X529249Y550541D01*
X529245Y550521D01*
X529253Y550383D01*
X529258Y550243D01*
X529263Y550224D01*
X529265Y550203D01*
X529307Y550072D01*
X529346Y549938D01*
X529356Y549920D01*
X529363Y549901D01*
X529437Y549783D01*
X529508Y549664D01*
X529526Y549643D01*
X529533Y549632D01*
X529548Y549618D01*
X529614Y549543D01*
X530690Y548467D01*
X531575Y546330D01*
X531575Y544017D01*
X530690Y541880D01*
X529054Y540244D01*
X526917Y539359D01*
X524604Y539359D01*
G37*
%LPD*%
%LPC*%
G36*
X516656Y359933D02*
X516656Y359933D01*
X514519Y360818D01*
X512883Y362454D01*
X511998Y364591D01*
X511998Y366904D01*
X512883Y369041D01*
X514519Y370677D01*
X516656Y371562D01*
X518969Y371562D01*
X521106Y370677D01*
X522162Y369621D01*
X522257Y369548D01*
X522346Y369469D01*
X522382Y369451D01*
X522414Y369426D01*
X522523Y369378D01*
X522629Y369324D01*
X522668Y369315D01*
X522705Y369299D01*
X522823Y369281D01*
X522939Y369255D01*
X522980Y369256D01*
X523020Y369249D01*
X523138Y369261D01*
X523257Y369264D01*
X523296Y369276D01*
X523336Y369279D01*
X523448Y369320D01*
X523563Y369353D01*
X523597Y369373D01*
X523635Y369387D01*
X523734Y369454D01*
X523837Y369514D01*
X523882Y369554D01*
X523899Y369565D01*
X523912Y369581D01*
X523957Y369621D01*
X525026Y370690D01*
X527163Y371575D01*
X529477Y371575D01*
X531614Y370690D01*
X533250Y369054D01*
X534135Y366917D01*
X534135Y364603D01*
X533250Y362466D01*
X531614Y360830D01*
X529477Y359945D01*
X527163Y359945D01*
X525026Y360830D01*
X523970Y361887D01*
X523888Y361951D01*
X523832Y362003D01*
X523818Y362011D01*
X523787Y362038D01*
X523751Y362057D01*
X523719Y362082D01*
X523610Y362129D01*
X523504Y362183D01*
X523464Y362192D01*
X523427Y362208D01*
X523309Y362227D01*
X523193Y362253D01*
X523153Y362251D01*
X523113Y362258D01*
X522994Y362247D01*
X522875Y362243D01*
X522837Y362232D01*
X522796Y362228D01*
X522684Y362188D01*
X522570Y362155D01*
X522535Y362134D01*
X522497Y362120D01*
X522455Y362092D01*
X522449Y362090D01*
X522418Y362067D01*
X522398Y362054D01*
X522296Y361993D01*
X522251Y361953D01*
X522234Y361942D01*
X522220Y361927D01*
X522199Y361908D01*
X522192Y361903D01*
X522189Y361899D01*
X522175Y361887D01*
X521106Y360818D01*
X518969Y359933D01*
X516656Y359933D01*
G37*
%LPD*%
%LPC*%
G36*
X548284Y492951D02*
X548284Y492951D01*
X546147Y493836D01*
X544511Y495472D01*
X543626Y497609D01*
X543626Y499922D01*
X544511Y502059D01*
X546147Y503695D01*
X548284Y504580D01*
X548459Y504580D01*
X548577Y504595D01*
X548696Y504603D01*
X548734Y504615D01*
X548775Y504620D01*
X548885Y504664D01*
X548999Y504701D01*
X549033Y504722D01*
X549070Y504737D01*
X549167Y504807D01*
X549267Y504871D01*
X549295Y504900D01*
X549328Y504924D01*
X549404Y505016D01*
X549485Y505102D01*
X549505Y505138D01*
X549531Y505169D01*
X549581Y505277D01*
X549639Y505381D01*
X549649Y505420D01*
X549666Y505457D01*
X549688Y505573D01*
X549718Y505689D01*
X549722Y505749D01*
X549726Y505769D01*
X549725Y505789D01*
X549728Y505849D01*
X549728Y507717D01*
X550614Y509854D01*
X552249Y511490D01*
X554386Y512375D01*
X556700Y512375D01*
X558837Y511490D01*
X560473Y509854D01*
X561358Y507717D01*
X561358Y505404D01*
X560473Y503267D01*
X558837Y501631D01*
X556700Y500746D01*
X556524Y500746D01*
X556406Y500731D01*
X556287Y500724D01*
X556249Y500711D01*
X556209Y500706D01*
X556098Y500662D01*
X555985Y500626D01*
X555951Y500604D01*
X555913Y500589D01*
X555817Y500519D01*
X555716Y500455D01*
X555689Y500426D01*
X555656Y500402D01*
X555580Y500310D01*
X555498Y500224D01*
X555479Y500188D01*
X555453Y500157D01*
X555402Y500050D01*
X555345Y499945D01*
X555335Y499906D01*
X555317Y499869D01*
X555295Y499753D01*
X555265Y499637D01*
X555262Y499577D01*
X555258Y499557D01*
X555259Y499537D01*
X555255Y499477D01*
X555255Y497609D01*
X554370Y495472D01*
X552734Y493836D01*
X550597Y492951D01*
X548284Y492951D01*
G37*
%LPD*%
%LPC*%
G36*
X644144Y292925D02*
X644144Y292925D01*
X642007Y293810D01*
X640371Y295446D01*
X639486Y297583D01*
X639486Y299896D01*
X640371Y302033D01*
X642064Y303725D01*
X642082Y303749D01*
X642104Y303768D01*
X642179Y303874D01*
X642259Y303977D01*
X642270Y304004D01*
X642287Y304028D01*
X642333Y304149D01*
X642385Y304269D01*
X642390Y304298D01*
X642400Y304325D01*
X642415Y304454D01*
X642435Y304583D01*
X642432Y304612D01*
X642435Y304641D01*
X642417Y304770D01*
X642405Y304899D01*
X642395Y304927D01*
X642391Y304956D01*
X642339Y305109D01*
X641471Y307204D01*
X641471Y309517D01*
X642356Y311654D01*
X643992Y313290D01*
X646129Y314175D01*
X648443Y314175D01*
X650580Y313290D01*
X652215Y311654D01*
X653101Y309517D01*
X653101Y307204D01*
X652215Y305067D01*
X650523Y303374D01*
X650505Y303351D01*
X650482Y303332D01*
X650408Y303226D01*
X650328Y303123D01*
X650316Y303096D01*
X650299Y303072D01*
X650253Y302950D01*
X650202Y302831D01*
X650197Y302802D01*
X650187Y302774D01*
X650172Y302645D01*
X650152Y302517D01*
X650155Y302487D01*
X650151Y302458D01*
X650169Y302330D01*
X650182Y302200D01*
X650192Y302172D01*
X650196Y302143D01*
X650248Y301991D01*
X651116Y299896D01*
X651116Y297583D01*
X650230Y295446D01*
X648595Y293810D01*
X646458Y292925D01*
X644144Y292925D01*
G37*
%LPD*%
%LPC*%
G36*
X610660Y419655D02*
X610660Y419655D01*
X608523Y420540D01*
X606887Y422176D01*
X606002Y424313D01*
X606002Y426626D01*
X606887Y428763D01*
X608523Y430399D01*
X610660Y431284D01*
X610906Y431284D01*
X611024Y431299D01*
X611143Y431307D01*
X611181Y431319D01*
X611221Y431324D01*
X611332Y431368D01*
X611445Y431405D01*
X611480Y431426D01*
X611517Y431441D01*
X611613Y431511D01*
X611714Y431575D01*
X611742Y431604D01*
X611775Y431628D01*
X611850Y431720D01*
X611932Y431806D01*
X611952Y431842D01*
X611977Y431873D01*
X612028Y431981D01*
X612086Y432085D01*
X612096Y432124D01*
X612113Y432161D01*
X612135Y432278D01*
X612165Y432393D01*
X612169Y432453D01*
X612173Y432473D01*
X612171Y432493D01*
X612175Y432554D01*
X612175Y434196D01*
X613060Y436333D01*
X614696Y437969D01*
X616833Y438854D01*
X617947Y438854D01*
X618016Y438863D01*
X618086Y438862D01*
X618173Y438883D01*
X618262Y438894D01*
X618327Y438920D01*
X618395Y438936D01*
X618474Y438978D01*
X618558Y439011D01*
X618614Y439052D01*
X618676Y439085D01*
X618743Y439145D01*
X618800Y439187D01*
X618824Y439148D01*
X618875Y439100D01*
X618919Y439046D01*
X618991Y438991D01*
X619056Y438930D01*
X619117Y438896D01*
X619173Y438854D01*
X619317Y438783D01*
X621284Y437969D01*
X622919Y436333D01*
X623805Y434196D01*
X623805Y431883D01*
X622919Y429746D01*
X621284Y428110D01*
X619147Y427225D01*
X618901Y427225D01*
X618782Y427210D01*
X618664Y427202D01*
X618625Y427190D01*
X618585Y427185D01*
X618474Y427141D01*
X618361Y427104D01*
X618327Y427083D01*
X618289Y427068D01*
X618193Y426998D01*
X618092Y426934D01*
X618065Y426905D01*
X618032Y426881D01*
X617956Y426789D01*
X617874Y426703D01*
X617855Y426667D01*
X617829Y426636D01*
X617778Y426528D01*
X617721Y426424D01*
X617711Y426385D01*
X617694Y426348D01*
X617671Y426232D01*
X617642Y426116D01*
X617638Y426056D01*
X617634Y426036D01*
X617635Y426016D01*
X617631Y425955D01*
X617631Y424313D01*
X616746Y422176D01*
X615110Y420540D01*
X612973Y419655D01*
X610660Y419655D01*
G37*
%LPD*%
%LPC*%
G36*
X373590Y507106D02*
X373590Y507106D01*
X370815Y508255D01*
X368692Y510379D01*
X367543Y513153D01*
X367543Y516156D01*
X368692Y518931D01*
X370815Y521054D01*
X373590Y522204D01*
X376593Y522204D01*
X379367Y521054D01*
X381491Y518931D01*
X382640Y516156D01*
X382640Y513153D01*
X381491Y510379D01*
X379367Y508255D01*
X376593Y507106D01*
X373590Y507106D01*
G37*
%LPD*%
%LPC*%
G36*
X401900Y636244D02*
X401900Y636244D01*
X399125Y637393D01*
X397002Y639517D01*
X395853Y642291D01*
X395853Y645294D01*
X397002Y648069D01*
X399125Y650192D01*
X401900Y651342D01*
X404903Y651342D01*
X407677Y650192D01*
X409801Y648069D01*
X410950Y645294D01*
X410950Y642291D01*
X409801Y639517D01*
X407677Y637393D01*
X404903Y636244D01*
X401900Y636244D01*
G37*
%LPD*%
%LPC*%
G36*
X389658Y499012D02*
X389658Y499012D01*
X386884Y500161D01*
X384760Y502285D01*
X383611Y505059D01*
X383611Y508062D01*
X384760Y510837D01*
X386884Y512960D01*
X389658Y514109D01*
X392662Y514109D01*
X395436Y512960D01*
X397560Y510837D01*
X398709Y508062D01*
X398709Y505059D01*
X397560Y502285D01*
X395436Y500161D01*
X392662Y499012D01*
X389658Y499012D01*
G37*
%LPD*%
%LPC*%
G36*
X549678Y76271D02*
X549678Y76271D01*
X546904Y77420D01*
X544780Y79544D01*
X543631Y82318D01*
X543631Y85322D01*
X544780Y88096D01*
X546904Y90220D01*
X549678Y91369D01*
X552682Y91369D01*
X555456Y90220D01*
X557580Y88096D01*
X558729Y85322D01*
X558729Y82318D01*
X557580Y79544D01*
X555456Y77420D01*
X552682Y76271D01*
X549678Y76271D01*
G37*
%LPD*%
%LPC*%
G36*
X389658Y393009D02*
X389658Y393009D01*
X386884Y394158D01*
X384760Y396282D01*
X383611Y399056D01*
X383611Y402060D01*
X384760Y404834D01*
X386884Y406958D01*
X389658Y408107D01*
X392662Y408107D01*
X395436Y406958D01*
X397560Y404834D01*
X398709Y402060D01*
X398709Y399056D01*
X397560Y396282D01*
X395436Y394158D01*
X392662Y393009D01*
X389658Y393009D01*
G37*
%LPD*%
%LPC*%
G36*
X387118Y602051D02*
X387118Y602051D01*
X384344Y603200D01*
X382220Y605324D01*
X381071Y608098D01*
X381071Y611102D01*
X382220Y613876D01*
X384344Y616000D01*
X387118Y617149D01*
X390122Y617149D01*
X392896Y616000D01*
X395020Y613876D01*
X396169Y611102D01*
X396169Y608098D01*
X395020Y605324D01*
X392896Y603200D01*
X390122Y602051D01*
X387118Y602051D01*
G37*
%LPD*%
%LPC*%
G36*
X290598Y355671D02*
X290598Y355671D01*
X287824Y356820D01*
X285700Y358944D01*
X284551Y361718D01*
X284551Y364722D01*
X285700Y367496D01*
X287824Y369620D01*
X290598Y370769D01*
X293602Y370769D01*
X296376Y369620D01*
X298500Y367496D01*
X299649Y364722D01*
X299649Y361718D01*
X298500Y358944D01*
X296376Y356820D01*
X293602Y355671D01*
X290598Y355671D01*
G37*
%LPD*%
%LPC*%
G36*
X412518Y345511D02*
X412518Y345511D01*
X409744Y346660D01*
X407620Y348784D01*
X406471Y351558D01*
X406471Y354562D01*
X407620Y357336D01*
X409744Y359460D01*
X412518Y360609D01*
X415522Y360609D01*
X418296Y359460D01*
X420420Y357336D01*
X421569Y354562D01*
X421569Y351558D01*
X420420Y348784D01*
X418296Y346660D01*
X415522Y345511D01*
X412518Y345511D01*
G37*
%LPD*%
%LPC*%
G36*
X234718Y215971D02*
X234718Y215971D01*
X231944Y217120D01*
X229820Y219244D01*
X228671Y222018D01*
X228671Y225022D01*
X229820Y227796D01*
X231944Y229920D01*
X234718Y231069D01*
X237722Y231069D01*
X240496Y229920D01*
X242620Y227796D01*
X243769Y225022D01*
X243769Y222018D01*
X242620Y219244D01*
X240496Y217120D01*
X237722Y215971D01*
X234718Y215971D01*
G37*
%LPD*%
%LPC*%
G36*
X765578Y81351D02*
X765578Y81351D01*
X762804Y82500D01*
X760680Y84624D01*
X759531Y87398D01*
X759531Y90402D01*
X760680Y93176D01*
X762804Y95300D01*
X765578Y96449D01*
X768582Y96449D01*
X771356Y95300D01*
X773480Y93176D01*
X774629Y90402D01*
X774629Y87398D01*
X773480Y84624D01*
X771356Y82500D01*
X768582Y81351D01*
X765578Y81351D01*
G37*
%LPD*%
%LPC*%
G36*
X585238Y76271D02*
X585238Y76271D01*
X582464Y77420D01*
X580340Y79544D01*
X579191Y82318D01*
X579191Y85322D01*
X580340Y88096D01*
X582464Y90220D01*
X585238Y91369D01*
X588242Y91369D01*
X591016Y90220D01*
X593140Y88096D01*
X594289Y85322D01*
X594289Y82318D01*
X593140Y79544D01*
X591016Y77420D01*
X588242Y76271D01*
X585238Y76271D01*
G37*
%LPD*%
%LPC*%
G36*
X567458Y76271D02*
X567458Y76271D01*
X564684Y77420D01*
X562560Y79544D01*
X561411Y82318D01*
X561411Y85322D01*
X562560Y88096D01*
X564684Y90220D01*
X567458Y91369D01*
X570462Y91369D01*
X573236Y90220D01*
X575360Y88096D01*
X576509Y85322D01*
X576509Y82318D01*
X575360Y79544D01*
X573236Y77420D01*
X570462Y76271D01*
X567458Y76271D01*
G37*
%LPD*%
%LPC*%
G36*
X531898Y76271D02*
X531898Y76271D01*
X529124Y77420D01*
X527000Y79544D01*
X525851Y82318D01*
X525851Y85322D01*
X527000Y88096D01*
X529124Y90220D01*
X531898Y91369D01*
X534902Y91369D01*
X537676Y90220D01*
X539800Y88096D01*
X540949Y85322D01*
X540949Y82318D01*
X539800Y79544D01*
X537676Y77420D01*
X534902Y76271D01*
X531898Y76271D01*
G37*
%LPD*%
%LPC*%
G36*
X514118Y76271D02*
X514118Y76271D01*
X511344Y77420D01*
X509220Y79544D01*
X508071Y82318D01*
X508071Y85322D01*
X509220Y88096D01*
X511344Y90220D01*
X514118Y91369D01*
X517122Y91369D01*
X519896Y90220D01*
X522020Y88096D01*
X523169Y85322D01*
X523169Y82318D01*
X522020Y79544D01*
X519896Y77420D01*
X517122Y76271D01*
X514118Y76271D01*
G37*
%LPD*%
%LPC*%
G36*
X496338Y76271D02*
X496338Y76271D01*
X493564Y77420D01*
X491440Y79544D01*
X490291Y82318D01*
X490291Y85322D01*
X491440Y88096D01*
X493564Y90220D01*
X496338Y91369D01*
X499342Y91369D01*
X502116Y90220D01*
X504240Y88096D01*
X505389Y85322D01*
X505389Y82318D01*
X504240Y79544D01*
X502116Y77420D01*
X499342Y76271D01*
X496338Y76271D01*
G37*
%LPD*%
%LPC*%
G36*
X618925Y440932D02*
X618925Y440932D01*
X618875Y440979D01*
X618831Y441034D01*
X618759Y441088D01*
X618694Y441150D01*
X618633Y441183D01*
X618577Y441225D01*
X618432Y441296D01*
X616466Y442110D01*
X614830Y443746D01*
X613945Y445883D01*
X613945Y448197D01*
X614830Y450334D01*
X616466Y451970D01*
X618603Y452855D01*
X620917Y452855D01*
X623054Y451970D01*
X624690Y450334D01*
X625575Y448197D01*
X625575Y445883D01*
X624690Y443746D01*
X623054Y442110D01*
X620917Y441225D01*
X619803Y441225D01*
X619734Y441217D01*
X619664Y441218D01*
X619577Y441197D01*
X619488Y441185D01*
X619423Y441160D01*
X619355Y441143D01*
X619275Y441101D01*
X619192Y441068D01*
X619136Y441027D01*
X619074Y440995D01*
X619007Y440934D01*
X618950Y440893D01*
X618925Y440932D01*
G37*
%LPD*%
%LPC*%
G36*
X418233Y640151D02*
X418233Y640151D01*
X416096Y641037D01*
X414460Y642672D01*
X413575Y644809D01*
X413575Y647123D01*
X414460Y649260D01*
X416096Y650896D01*
X418233Y651781D01*
X420546Y651781D01*
X422683Y650896D01*
X424319Y649260D01*
X425204Y647123D01*
X425204Y644809D01*
X424319Y642672D01*
X422683Y641037D01*
X420546Y640151D01*
X418233Y640151D01*
G37*
%LPD*%
%LPC*%
G36*
X343766Y630023D02*
X343766Y630023D01*
X341628Y630908D01*
X339993Y632544D01*
X339107Y634681D01*
X339107Y636995D01*
X339993Y639132D01*
X341628Y640767D01*
X343766Y641653D01*
X346079Y641653D01*
X348216Y640767D01*
X349852Y639132D01*
X350737Y636995D01*
X350737Y634681D01*
X349852Y632544D01*
X348216Y630908D01*
X346079Y630023D01*
X343766Y630023D01*
G37*
%LPD*%
%LPC*%
G36*
X532830Y624705D02*
X532830Y624705D01*
X530693Y625590D01*
X529057Y627226D01*
X528172Y629363D01*
X528172Y631676D01*
X529057Y633813D01*
X530693Y635449D01*
X532830Y636334D01*
X535143Y636334D01*
X537280Y635449D01*
X538916Y633813D01*
X539801Y631676D01*
X539801Y629363D01*
X538916Y627226D01*
X537280Y625590D01*
X535143Y624705D01*
X532830Y624705D01*
G37*
%LPD*%
%LPC*%
G36*
X345839Y608672D02*
X345839Y608672D01*
X343701Y609557D01*
X342066Y611193D01*
X341180Y613330D01*
X341180Y615643D01*
X342066Y617780D01*
X343701Y619416D01*
X345839Y620301D01*
X348152Y620301D01*
X350289Y619416D01*
X351925Y617780D01*
X352810Y615643D01*
X352810Y613330D01*
X351925Y611193D01*
X350289Y609557D01*
X348152Y608672D01*
X345839Y608672D01*
G37*
%LPD*%
%LPC*%
G36*
X743063Y593625D02*
X743063Y593625D01*
X740926Y594510D01*
X739290Y596146D01*
X738405Y598283D01*
X738405Y600597D01*
X739290Y602734D01*
X740926Y604370D01*
X743063Y605255D01*
X745377Y605255D01*
X747514Y604370D01*
X749150Y602734D01*
X750035Y600597D01*
X750035Y598283D01*
X749150Y596146D01*
X747514Y594510D01*
X745377Y593625D01*
X743063Y593625D01*
G37*
%LPD*%
%LPC*%
G36*
X494143Y591085D02*
X494143Y591085D01*
X492006Y591970D01*
X490370Y593606D01*
X489485Y595743D01*
X489485Y598057D01*
X490370Y600194D01*
X492006Y601830D01*
X494143Y602715D01*
X496457Y602715D01*
X498594Y601830D01*
X500230Y600194D01*
X501115Y598057D01*
X501115Y595743D01*
X500230Y593606D01*
X498594Y591970D01*
X496457Y591085D01*
X494143Y591085D01*
G37*
%LPD*%
%LPC*%
G36*
X655600Y582421D02*
X655600Y582421D01*
X653463Y583306D01*
X651827Y584942D01*
X650942Y587079D01*
X650942Y589392D01*
X651827Y591529D01*
X653463Y593165D01*
X655600Y594050D01*
X657913Y594050D01*
X660050Y593165D01*
X661686Y591529D01*
X662571Y589392D01*
X662571Y587079D01*
X661686Y584942D01*
X660050Y583306D01*
X657913Y582421D01*
X655600Y582421D01*
G37*
%LPD*%
%LPC*%
G36*
X419644Y579543D02*
X419644Y579543D01*
X417507Y580428D01*
X415871Y582064D01*
X414986Y584201D01*
X414986Y586514D01*
X415871Y588651D01*
X417507Y590287D01*
X419644Y591172D01*
X421958Y591172D01*
X424095Y590287D01*
X425730Y588651D01*
X426616Y586514D01*
X426616Y584201D01*
X425730Y582064D01*
X424095Y580428D01*
X421958Y579543D01*
X419644Y579543D01*
G37*
%LPD*%
%LPC*%
G36*
X345839Y578192D02*
X345839Y578192D01*
X343701Y579077D01*
X342066Y580713D01*
X341180Y582850D01*
X341180Y585163D01*
X342066Y587300D01*
X343701Y588936D01*
X345839Y589821D01*
X348152Y589821D01*
X350289Y588936D01*
X351925Y587300D01*
X352810Y585163D01*
X352810Y582850D01*
X351925Y580713D01*
X350289Y579077D01*
X348152Y578192D01*
X345839Y578192D01*
G37*
%LPD*%
%LPC*%
G36*
X259210Y569051D02*
X259210Y569051D01*
X257073Y569936D01*
X255437Y571572D01*
X254552Y573709D01*
X254552Y576022D01*
X255437Y578160D01*
X257073Y579795D01*
X259210Y580681D01*
X261523Y580681D01*
X263661Y579795D01*
X265296Y578160D01*
X266181Y576022D01*
X266181Y573709D01*
X265296Y571572D01*
X263661Y569936D01*
X261523Y569051D01*
X259210Y569051D01*
G37*
%LPD*%
%LPC*%
G36*
X283323Y558065D02*
X283323Y558065D01*
X281186Y558950D01*
X279550Y560586D01*
X278665Y562723D01*
X278665Y565037D01*
X279550Y567174D01*
X281186Y568810D01*
X283323Y569695D01*
X285637Y569695D01*
X287774Y568810D01*
X289410Y567174D01*
X290295Y565037D01*
X290295Y562723D01*
X289410Y560586D01*
X287774Y558950D01*
X285637Y558065D01*
X283323Y558065D01*
G37*
%LPD*%
%LPC*%
G36*
X555103Y555525D02*
X555103Y555525D01*
X552966Y556410D01*
X551330Y558046D01*
X550445Y560183D01*
X550445Y562497D01*
X551330Y564634D01*
X552966Y566270D01*
X555103Y567155D01*
X557417Y567155D01*
X559554Y566270D01*
X561190Y564634D01*
X562075Y562497D01*
X562075Y560183D01*
X561190Y558046D01*
X559554Y556410D01*
X557417Y555525D01*
X555103Y555525D01*
G37*
%LPD*%
%LPC*%
G36*
X699883Y552985D02*
X699883Y552985D01*
X697746Y553870D01*
X696110Y555506D01*
X695225Y557643D01*
X695225Y559957D01*
X696110Y562094D01*
X697746Y563730D01*
X699883Y564615D01*
X702197Y564615D01*
X704334Y563730D01*
X705970Y562094D01*
X706855Y559957D01*
X706855Y557643D01*
X705970Y555506D01*
X704334Y553870D01*
X702197Y552985D01*
X699883Y552985D01*
G37*
%LPD*%
%LPC*%
G36*
X406731Y410906D02*
X406731Y410906D01*
X404593Y411791D01*
X402958Y413427D01*
X402072Y415564D01*
X402072Y417878D01*
X402958Y420015D01*
X404593Y421650D01*
X406731Y422536D01*
X409044Y422536D01*
X411181Y421650D01*
X412817Y420015D01*
X413702Y417878D01*
X413702Y415564D01*
X412817Y413427D01*
X411181Y411791D01*
X409044Y410906D01*
X406731Y410906D01*
G37*
%LPD*%
%LPC*%
G36*
X359523Y347245D02*
X359523Y347245D01*
X357386Y348130D01*
X355750Y349766D01*
X354865Y351903D01*
X354865Y354217D01*
X355750Y356354D01*
X357386Y357990D01*
X359523Y358875D01*
X361837Y358875D01*
X363974Y357990D01*
X365610Y356354D01*
X366495Y354217D01*
X366495Y351903D01*
X365610Y349766D01*
X363974Y348130D01*
X361837Y347245D01*
X359523Y347245D01*
G37*
%LPD*%
%LPC*%
G36*
X438263Y342165D02*
X438263Y342165D01*
X436126Y343050D01*
X434490Y344686D01*
X433605Y346823D01*
X433605Y349137D01*
X434490Y351274D01*
X436126Y352910D01*
X438263Y353795D01*
X440577Y353795D01*
X442714Y352910D01*
X444350Y351274D01*
X445235Y349137D01*
X445235Y346823D01*
X444350Y344686D01*
X442714Y343050D01*
X440577Y342165D01*
X438263Y342165D01*
G37*
%LPD*%
%LPC*%
G36*
X702423Y413285D02*
X702423Y413285D01*
X700286Y414170D01*
X698650Y415806D01*
X697765Y417943D01*
X697765Y420257D01*
X698650Y422394D01*
X700286Y424030D01*
X702423Y424915D01*
X704737Y424915D01*
X706874Y424030D01*
X708510Y422394D01*
X709395Y420257D01*
X709395Y417943D01*
X708510Y415806D01*
X706874Y414170D01*
X704737Y413285D01*
X702423Y413285D01*
G37*
%LPD*%
%LPC*%
G36*
X575423Y316765D02*
X575423Y316765D01*
X573286Y317650D01*
X571650Y319286D01*
X570765Y321423D01*
X570765Y323737D01*
X571650Y325874D01*
X573286Y327510D01*
X575423Y328395D01*
X577737Y328395D01*
X579874Y327510D01*
X581510Y325874D01*
X582395Y323737D01*
X582395Y321423D01*
X581510Y319286D01*
X579874Y317650D01*
X577737Y316765D01*
X575423Y316765D01*
G37*
%LPD*%
%LPC*%
G36*
X557643Y441225D02*
X557643Y441225D01*
X555506Y442110D01*
X553870Y443746D01*
X552985Y445883D01*
X552985Y448197D01*
X553870Y450334D01*
X555506Y451970D01*
X557643Y452855D01*
X559957Y452855D01*
X562094Y451970D01*
X563730Y450334D01*
X564615Y448197D01*
X564615Y445883D01*
X563730Y443746D01*
X562094Y442110D01*
X559957Y441225D01*
X557643Y441225D01*
G37*
%LPD*%
%LPC*%
G36*
X478903Y301525D02*
X478903Y301525D01*
X476766Y302410D01*
X475130Y304046D01*
X474245Y306183D01*
X474245Y308497D01*
X475130Y310634D01*
X476766Y312270D01*
X478903Y313155D01*
X481217Y313155D01*
X483354Y312270D01*
X484990Y310634D01*
X485875Y308497D01*
X485875Y306183D01*
X484990Y304046D01*
X483354Y302410D01*
X481217Y301525D01*
X478903Y301525D01*
G37*
%LPD*%
%LPC*%
G36*
X478903Y448845D02*
X478903Y448845D01*
X476766Y449730D01*
X475130Y451366D01*
X474245Y453503D01*
X474245Y455817D01*
X475130Y457954D01*
X476766Y459590D01*
X478903Y460475D01*
X481217Y460475D01*
X483354Y459590D01*
X484990Y457954D01*
X485875Y455817D01*
X485875Y453503D01*
X484990Y451366D01*
X483354Y449730D01*
X481217Y448845D01*
X478903Y448845D01*
G37*
%LPD*%
%LPC*%
G36*
X547483Y268505D02*
X547483Y268505D01*
X545346Y269390D01*
X543710Y271026D01*
X542825Y273163D01*
X542825Y275477D01*
X543710Y277614D01*
X545346Y279250D01*
X547483Y280135D01*
X549797Y280135D01*
X551934Y279250D01*
X553570Y277614D01*
X554455Y275477D01*
X554455Y273163D01*
X553570Y271026D01*
X551934Y269390D01*
X549797Y268505D01*
X547483Y268505D01*
G37*
%LPD*%
%LPC*%
G36*
X370781Y267218D02*
X370781Y267218D01*
X368644Y268103D01*
X367009Y269739D01*
X366123Y271876D01*
X366123Y274189D01*
X367009Y276327D01*
X368644Y277962D01*
X370781Y278848D01*
X373095Y278848D01*
X375232Y277962D01*
X376868Y276327D01*
X377753Y274189D01*
X377753Y271876D01*
X376868Y269739D01*
X375232Y268103D01*
X373095Y267218D01*
X370781Y267218D01*
G37*
%LPD*%
%LPC*%
G36*
X577963Y466625D02*
X577963Y466625D01*
X575826Y467510D01*
X574190Y469146D01*
X573305Y471283D01*
X573305Y473597D01*
X574190Y475734D01*
X575826Y477370D01*
X577963Y478255D01*
X580277Y478255D01*
X582414Y477370D01*
X584050Y475734D01*
X584935Y473597D01*
X584935Y471283D01*
X584050Y469146D01*
X582414Y467510D01*
X580277Y466625D01*
X577963Y466625D01*
G37*
%LPD*%
%LPC*%
G36*
X555103Y420905D02*
X555103Y420905D01*
X552966Y421790D01*
X551330Y423426D01*
X550445Y425563D01*
X550445Y427877D01*
X551330Y430014D01*
X552966Y431650D01*
X555103Y432535D01*
X557417Y432535D01*
X559554Y431650D01*
X561190Y430014D01*
X562075Y427877D01*
X562075Y425563D01*
X561190Y423426D01*
X559554Y421790D01*
X557417Y420905D01*
X555103Y420905D01*
G37*
%LPD*%
%LPC*%
G36*
X578021Y482539D02*
X578021Y482539D01*
X575884Y483424D01*
X574248Y485060D01*
X573363Y487197D01*
X573363Y489510D01*
X574248Y491647D01*
X575884Y493283D01*
X578021Y494168D01*
X580334Y494168D01*
X582471Y493283D01*
X584107Y491647D01*
X584992Y489510D01*
X584992Y487197D01*
X584107Y485060D01*
X582471Y483424D01*
X580334Y482539D01*
X578021Y482539D01*
G37*
%LPD*%
%LPC*%
G36*
X505923Y482785D02*
X505923Y482785D01*
X503786Y483671D01*
X502150Y485306D01*
X501265Y487444D01*
X501265Y489757D01*
X502150Y491894D01*
X503786Y493530D01*
X505923Y494415D01*
X508236Y494415D01*
X510374Y493530D01*
X512009Y491894D01*
X512895Y489757D01*
X512895Y487444D01*
X512009Y485306D01*
X510374Y483671D01*
X508236Y482785D01*
X505923Y482785D01*
G37*
%LPD*%
%LPC*%
G36*
X702423Y179605D02*
X702423Y179605D01*
X700286Y180490D01*
X698650Y182126D01*
X697765Y184263D01*
X697765Y186577D01*
X698650Y188714D01*
X700286Y190350D01*
X702423Y191235D01*
X704737Y191235D01*
X706874Y190350D01*
X708510Y188714D01*
X709395Y186577D01*
X709395Y184263D01*
X708510Y182126D01*
X706874Y180490D01*
X704737Y179605D01*
X702423Y179605D01*
G37*
%LPD*%
%LPC*%
G36*
X202043Y177065D02*
X202043Y177065D01*
X199906Y177950D01*
X198270Y179586D01*
X197385Y181723D01*
X197385Y184037D01*
X198270Y186174D01*
X199906Y187810D01*
X202043Y188695D01*
X204357Y188695D01*
X206494Y187810D01*
X208130Y186174D01*
X209015Y184037D01*
X209015Y181723D01*
X208130Y179586D01*
X206494Y177950D01*
X204357Y177065D01*
X202043Y177065D01*
G37*
%LPD*%
%LPC*%
G36*
X598283Y151665D02*
X598283Y151665D01*
X596146Y152550D01*
X594510Y154186D01*
X593625Y156323D01*
X593625Y158637D01*
X594510Y160774D01*
X596146Y162410D01*
X598283Y163295D01*
X600597Y163295D01*
X602734Y162410D01*
X604370Y160774D01*
X605255Y158637D01*
X605255Y156323D01*
X604370Y154186D01*
X602734Y152550D01*
X600597Y151665D01*
X598283Y151665D01*
G37*
%LPD*%
%LPC*%
G36*
X428254Y150125D02*
X428254Y150125D01*
X426117Y151010D01*
X424482Y152646D01*
X423596Y154783D01*
X423596Y157096D01*
X424482Y159233D01*
X426117Y160869D01*
X428254Y161754D01*
X430568Y161754D01*
X432705Y160869D01*
X434341Y159233D01*
X435226Y157096D01*
X435226Y154783D01*
X434341Y152646D01*
X432705Y151010D01*
X430568Y150125D01*
X428254Y150125D01*
G37*
%LPD*%
%LPC*%
G36*
X592100Y490981D02*
X592100Y490981D01*
X589963Y491866D01*
X588327Y493502D01*
X587442Y495639D01*
X587442Y497952D01*
X588327Y500089D01*
X589963Y501725D01*
X592100Y502610D01*
X594413Y502610D01*
X596550Y501725D01*
X598186Y500089D01*
X599071Y497952D01*
X599071Y495639D01*
X598186Y493502D01*
X596550Y491866D01*
X594413Y490981D01*
X592100Y490981D01*
G37*
%LPD*%
%LPC*%
G36*
X364603Y136425D02*
X364603Y136425D01*
X362466Y137310D01*
X360830Y138946D01*
X359945Y141083D01*
X359945Y143397D01*
X360830Y145534D01*
X362466Y147170D01*
X364603Y148055D01*
X366917Y148055D01*
X369054Y147170D01*
X370690Y145534D01*
X371575Y143397D01*
X371575Y141083D01*
X370690Y138946D01*
X369054Y137310D01*
X366917Y136425D01*
X364603Y136425D01*
G37*
%LPD*%
%LPC*%
G36*
X494143Y131345D02*
X494143Y131345D01*
X492006Y132230D01*
X490370Y133866D01*
X489485Y136003D01*
X489485Y138317D01*
X490370Y140454D01*
X492006Y142090D01*
X494143Y142975D01*
X496457Y142975D01*
X498594Y142090D01*
X500230Y140454D01*
X501115Y138317D01*
X501115Y136003D01*
X500230Y133866D01*
X498594Y132230D01*
X496457Y131345D01*
X494143Y131345D01*
G37*
%LPD*%
%LPC*%
G36*
X626223Y128805D02*
X626223Y128805D01*
X624086Y129690D01*
X622450Y131326D01*
X621565Y133463D01*
X621565Y135777D01*
X622450Y137914D01*
X624086Y139550D01*
X626223Y140435D01*
X628537Y140435D01*
X630674Y139550D01*
X632310Y137914D01*
X633195Y135777D01*
X633195Y133463D01*
X632310Y131326D01*
X630674Y129690D01*
X628537Y128805D01*
X626223Y128805D01*
G37*
%LPD*%
%LPC*%
G36*
X414120Y117246D02*
X414120Y117246D01*
X411983Y118131D01*
X410347Y119767D01*
X409462Y121904D01*
X409462Y124218D01*
X410347Y126355D01*
X411983Y127990D01*
X414120Y128876D01*
X416433Y128876D01*
X418570Y127990D01*
X420206Y126355D01*
X421091Y124218D01*
X421091Y121904D01*
X420206Y119767D01*
X418570Y118131D01*
X416433Y117246D01*
X414120Y117246D01*
G37*
%LPD*%
%LPC*%
G36*
X468743Y103405D02*
X468743Y103405D01*
X466606Y104290D01*
X464970Y105926D01*
X464085Y108063D01*
X464085Y110377D01*
X464970Y112514D01*
X466606Y114150D01*
X468743Y115035D01*
X471057Y115035D01*
X473194Y114150D01*
X474830Y112514D01*
X475715Y110377D01*
X475715Y108063D01*
X474830Y105926D01*
X473194Y104290D01*
X471057Y103405D01*
X468743Y103405D01*
G37*
%LPD*%
%LPC*%
G36*
X633843Y100865D02*
X633843Y100865D01*
X631706Y101750D01*
X630070Y103386D01*
X629185Y105523D01*
X629185Y107837D01*
X630070Y109974D01*
X631706Y111610D01*
X633843Y112495D01*
X636157Y112495D01*
X638294Y111610D01*
X639930Y109974D01*
X640815Y107837D01*
X640815Y105523D01*
X639930Y103386D01*
X638294Y101750D01*
X636157Y100865D01*
X633843Y100865D01*
G37*
%LPD*%
%LPC*%
G36*
X692109Y87176D02*
X692109Y87176D01*
X689972Y88062D01*
X688336Y89697D01*
X687451Y91834D01*
X687451Y94148D01*
X688336Y96285D01*
X689972Y97921D01*
X692109Y98806D01*
X694422Y98806D01*
X696559Y97921D01*
X698195Y96285D01*
X699080Y94148D01*
X699080Y91834D01*
X698195Y89697D01*
X696559Y88062D01*
X694422Y87176D01*
X692109Y87176D01*
G37*
%LPD*%
%LPC*%
G36*
X478903Y85625D02*
X478903Y85625D01*
X476766Y86510D01*
X475130Y88146D01*
X474245Y90283D01*
X474245Y92597D01*
X475130Y94734D01*
X476766Y96370D01*
X478903Y97255D01*
X481217Y97255D01*
X483354Y96370D01*
X484990Y94734D01*
X485875Y92597D01*
X485875Y90283D01*
X484990Y88146D01*
X483354Y86510D01*
X481217Y85625D01*
X478903Y85625D01*
G37*
%LPD*%
%LPC*%
G36*
X354443Y380265D02*
X354443Y380265D01*
X352306Y381150D01*
X350670Y382786D01*
X349785Y384923D01*
X349785Y387237D01*
X350670Y389374D01*
X352306Y391010D01*
X354443Y391895D01*
X356757Y391895D01*
X358894Y391010D01*
X360530Y389374D01*
X361415Y387237D01*
X361415Y384923D01*
X360530Y382786D01*
X358894Y381150D01*
X356757Y380265D01*
X354443Y380265D01*
G37*
%LPD*%
%LPC*%
G36*
X641463Y83085D02*
X641463Y83085D01*
X639326Y83970D01*
X637690Y85606D01*
X636805Y87743D01*
X636805Y90057D01*
X637690Y92194D01*
X639326Y93830D01*
X641463Y94715D01*
X643777Y94715D01*
X645914Y93830D01*
X647550Y92194D01*
X648435Y90057D01*
X648435Y87743D01*
X647550Y85606D01*
X645914Y83970D01*
X643777Y83085D01*
X641463Y83085D01*
G37*
%LPD*%
%LPC*%
G36*
X450963Y509805D02*
X450963Y509805D01*
X448826Y510690D01*
X447190Y512326D01*
X446305Y514463D01*
X446305Y516777D01*
X447190Y518914D01*
X448826Y520550D01*
X450963Y521435D01*
X453277Y521435D01*
X455414Y520550D01*
X457050Y518914D01*
X457935Y516777D01*
X457935Y514463D01*
X457050Y512326D01*
X455414Y510690D01*
X453277Y509805D01*
X450963Y509805D01*
G37*
%LPD*%
%LPC*%
G36*
X384923Y423445D02*
X384923Y423445D01*
X382786Y424330D01*
X381150Y425966D01*
X380265Y428103D01*
X380265Y430417D01*
X381150Y432554D01*
X382786Y434190D01*
X384923Y435075D01*
X387237Y435075D01*
X389374Y434190D01*
X391010Y432554D01*
X391895Y430417D01*
X391895Y428103D01*
X391010Y425966D01*
X389374Y424330D01*
X387237Y423445D01*
X384923Y423445D01*
G37*
%LPD*%
%LPC*%
G36*
X557643Y359945D02*
X557643Y359945D01*
X555506Y360830D01*
X553870Y362466D01*
X552985Y364603D01*
X552985Y366917D01*
X553870Y369054D01*
X555506Y370690D01*
X557643Y371575D01*
X559957Y371575D01*
X562094Y370690D01*
X563730Y369054D01*
X564615Y366917D01*
X564615Y364603D01*
X563730Y362466D01*
X562094Y360830D01*
X559957Y359945D01*
X557643Y359945D01*
G37*
%LPD*%
%LPC*%
G36*
X321627Y483025D02*
X321627Y483025D01*
X319490Y483910D01*
X317855Y485546D01*
X316969Y487683D01*
X316969Y489996D01*
X317855Y492134D01*
X319490Y493769D01*
X321627Y494655D01*
X323941Y494655D01*
X326078Y493769D01*
X327714Y492134D01*
X328599Y489996D01*
X328599Y487683D01*
X327714Y485546D01*
X326078Y483910D01*
X323941Y483025D01*
X321627Y483025D01*
G37*
%LPD*%
%LPC*%
G36*
X402703Y425985D02*
X402703Y425985D01*
X400566Y426870D01*
X398930Y428506D01*
X398045Y430643D01*
X398045Y432957D01*
X398930Y435094D01*
X400566Y436730D01*
X402703Y437615D01*
X405017Y437615D01*
X407154Y436730D01*
X408790Y435094D01*
X409675Y432957D01*
X409675Y430643D01*
X408790Y428506D01*
X407154Y426870D01*
X405017Y425985D01*
X402703Y425985D01*
G37*
%LPD*%
%LPC*%
G36*
X636383Y400585D02*
X636383Y400585D01*
X634246Y401470D01*
X632610Y403106D01*
X631725Y405243D01*
X631725Y407557D01*
X632610Y409694D01*
X634246Y411330D01*
X636383Y412215D01*
X638697Y412215D01*
X640834Y411330D01*
X642470Y409694D01*
X643355Y407557D01*
X643355Y405243D01*
X642470Y403106D01*
X640834Y401470D01*
X638697Y400585D01*
X636383Y400585D01*
G37*
%LPD*%
%LPC*%
G36*
X659199Y440181D02*
X659199Y440181D01*
X657062Y441066D01*
X655426Y442702D01*
X654541Y444839D01*
X654541Y447152D01*
X655426Y449289D01*
X657062Y450925D01*
X659199Y451810D01*
X661512Y451810D01*
X663649Y450925D01*
X665285Y449289D01*
X666170Y447152D01*
X666170Y444839D01*
X665285Y442702D01*
X663649Y441066D01*
X661512Y440181D01*
X659199Y440181D01*
G37*
%LPD*%
%LPC*%
G36*
X331583Y75465D02*
X331583Y75465D01*
X329446Y76350D01*
X327810Y77986D01*
X326925Y80123D01*
X326925Y82437D01*
X327810Y84574D01*
X329446Y86210D01*
X331583Y87095D01*
X333897Y87095D01*
X336034Y86210D01*
X337670Y84574D01*
X338555Y82437D01*
X338555Y80123D01*
X337670Y77986D01*
X336034Y76350D01*
X333897Y75465D01*
X331583Y75465D01*
G37*
%LPD*%
%LPC*%
G36*
X605903Y519965D02*
X605903Y519965D01*
X603766Y520850D01*
X602130Y522486D01*
X601245Y524623D01*
X601245Y526937D01*
X602130Y529074D01*
X603766Y530710D01*
X605903Y531595D01*
X608217Y531595D01*
X610354Y530710D01*
X611990Y529074D01*
X612875Y526937D01*
X612875Y524623D01*
X611990Y522486D01*
X610354Y520850D01*
X608217Y519965D01*
X605903Y519965D01*
G37*
%LPD*%
%LPC*%
G36*
X664323Y62765D02*
X664323Y62765D01*
X662186Y63650D01*
X660550Y65286D01*
X659665Y67423D01*
X659665Y69737D01*
X660550Y71874D01*
X662186Y73510D01*
X664323Y74395D01*
X666637Y74395D01*
X668774Y73510D01*
X670410Y71874D01*
X671295Y69737D01*
X671295Y67423D01*
X670410Y65286D01*
X668774Y63650D01*
X666637Y62765D01*
X664323Y62765D01*
G37*
%LPD*%
%LPC*%
G36*
X290801Y520810D02*
X290801Y520810D01*
X288664Y521695D01*
X287029Y523331D01*
X286143Y525468D01*
X286143Y527781D01*
X287029Y529918D01*
X288664Y531554D01*
X290801Y532439D01*
X293115Y532439D01*
X295252Y531554D01*
X296888Y529918D01*
X297773Y527781D01*
X297773Y525468D01*
X296888Y523331D01*
X295252Y521695D01*
X293115Y520810D01*
X290801Y520810D01*
G37*
%LPD*%
%LPC*%
G36*
X476363Y522505D02*
X476363Y522505D01*
X474226Y523390D01*
X472590Y525026D01*
X471705Y527163D01*
X471705Y529477D01*
X472590Y531614D01*
X474226Y533250D01*
X476363Y534135D01*
X478677Y534135D01*
X480814Y533250D01*
X482450Y531614D01*
X483335Y529477D01*
X483335Y527163D01*
X482450Y525026D01*
X480814Y523390D01*
X478677Y522505D01*
X476363Y522505D01*
G37*
%LPD*%
%LPC*%
G36*
X320457Y524837D02*
X320457Y524837D01*
X318319Y525723D01*
X316684Y527358D01*
X315798Y529495D01*
X315798Y531809D01*
X316684Y533946D01*
X318319Y535582D01*
X320457Y536467D01*
X322770Y536467D01*
X324907Y535582D01*
X326543Y533946D01*
X327428Y531809D01*
X327428Y529495D01*
X326543Y527358D01*
X324907Y525723D01*
X322770Y524837D01*
X320457Y524837D01*
G37*
%LPD*%
%LPC*%
G36*
X440803Y39905D02*
X440803Y39905D01*
X438666Y40790D01*
X437030Y42426D01*
X436145Y44563D01*
X436145Y46877D01*
X437030Y49014D01*
X438666Y50650D01*
X440803Y51535D01*
X443117Y51535D01*
X445254Y50650D01*
X446890Y49014D01*
X447775Y46877D01*
X447775Y44563D01*
X446890Y42426D01*
X445254Y40790D01*
X443117Y39905D01*
X440803Y39905D01*
G37*
%LPD*%
%LPC*%
G36*
X468743Y537745D02*
X468743Y537745D01*
X466606Y538630D01*
X464970Y540266D01*
X464085Y542403D01*
X464085Y544717D01*
X464970Y546854D01*
X466606Y548490D01*
X468743Y549375D01*
X471057Y549375D01*
X473194Y548490D01*
X474830Y546854D01*
X475715Y544717D01*
X475715Y542403D01*
X474830Y540266D01*
X473194Y538630D01*
X471057Y537745D01*
X468743Y537745D01*
G37*
%LPD*%
%LPC*%
G36*
X600506Y539359D02*
X600506Y539359D01*
X598369Y540244D01*
X596733Y541880D01*
X595848Y544017D01*
X595848Y546330D01*
X596733Y548467D01*
X598369Y550103D01*
X600506Y550988D01*
X602819Y550988D01*
X604956Y550103D01*
X606592Y548467D01*
X607477Y546330D01*
X607477Y544017D01*
X606592Y541880D01*
X604956Y540244D01*
X602819Y539359D01*
X600506Y539359D01*
G37*
%LPD*%
%LPC*%
G36*
X641933Y26010D02*
X641933Y26010D01*
X639796Y26895D01*
X638160Y28531D01*
X637275Y30668D01*
X637275Y32982D01*
X638160Y35119D01*
X639796Y36754D01*
X641933Y37640D01*
X644247Y37640D01*
X646384Y36754D01*
X648020Y35119D01*
X648905Y32982D01*
X648905Y30668D01*
X648020Y28531D01*
X646384Y26895D01*
X644247Y26010D01*
X641933Y26010D01*
G37*
%LPD*%
%LPC*%
G36*
X278243Y144045D02*
X278243Y144045D01*
X276106Y144930D01*
X274470Y146566D01*
X273585Y148703D01*
X273585Y151017D01*
X274470Y153154D01*
X276106Y154790D01*
X278243Y155675D01*
X280557Y155675D01*
X282694Y154790D01*
X284330Y153154D01*
X285215Y151017D01*
X285215Y148703D01*
X284330Y146566D01*
X282694Y144930D01*
X280557Y144045D01*
X278243Y144045D01*
G37*
%LPD*%
D10*
X869950Y614680D03*
X869950Y469900D03*
X869950Y401320D03*
X869950Y335280D03*
X869950Y195580D03*
X869950Y121920D03*
D11*
X260350Y364744D03*
X260350Y425196D03*
X260350Y485648D03*
X260350Y546100D03*
X260350Y606552D03*
X196850Y606552D03*
X196850Y546100D03*
X196850Y485648D03*
X196850Y425196D03*
X196850Y364744D03*
D10*
X239776Y656336D03*
X240284Y314960D03*
D12*
X678180Y647700D03*
X652780Y650240D03*
X627380Y647700D03*
X601980Y650240D03*
X576580Y647700D03*
X551180Y650240D03*
D13*
X365360Y59060D03*
X315360Y59060D03*
D14*
X375360Y32060D03*
X305360Y32060D03*
D15*
X106738Y33113D03*
D16*
X109425Y9097D03*
X94640Y7978D03*
D17*
X271780Y591820D03*
X507104Y365335D03*
X508673Y502606D03*
X611144Y495570D03*
X408048Y399423D03*
X525505Y289563D03*
X271780Y627380D03*
X271780Y662940D03*
X371897Y289583D03*
D16*
X431800Y91440D03*
D17*
X393700Y533400D03*
D18*
X779780Y650240D03*
X596900Y304800D03*
X594360Y561340D03*
X481172Y487819D03*
D17*
X203200Y152400D03*
D16*
X109220Y20320D03*
D17*
X805180Y76200D03*
X361813Y368367D03*
X420074Y602020D03*
X421168Y576347D03*
X415418Y140817D03*
X452120Y190500D03*
X472440Y190500D03*
X456058Y110337D03*
X649098Y100177D03*
X659570Y463678D03*
X459465Y259083D03*
X646362Y326531D03*
X656021Y603437D03*
D16*
X82393Y7864D03*
X54056Y34896D03*
D17*
X567394Y558840D03*
D16*
X767080Y88900D03*
X375091Y514655D03*
D17*
X452120Y515620D03*
X555543Y506561D03*
D16*
X391160Y506561D03*
X391160Y400558D03*
X387855Y575355D03*
X403401Y643793D03*
X414020Y353060D03*
D17*
X469900Y358140D03*
X260367Y574866D03*
X922047Y384265D03*
X922412Y305959D03*
D16*
X12700Y195580D03*
X12700Y208280D03*
X12700Y220980D03*
X12700Y233680D03*
X53340Y233680D03*
X53340Y220980D03*
X53340Y208280D03*
X53340Y195580D03*
X63641Y105624D03*
X76200Y105624D03*
X88900Y105483D03*
X101671Y105342D03*
D19*
X809554Y675153D03*
D17*
X188962Y167815D03*
D15*
X107160Y83828D03*
D17*
X922510Y455317D03*
X386080Y429260D03*
X916237Y102861D03*
D16*
X910460Y429490D03*
X895181Y453026D03*
D17*
X703580Y419100D03*
X701040Y558800D03*
X706120Y287020D03*
D16*
X910460Y442190D03*
X910460Y363450D03*
X910460Y376150D03*
X895220Y348210D03*
D17*
X703580Y185420D03*
D16*
X55986Y149970D03*
D20*
X843280Y683260D03*
D18*
X207424Y209622D03*
D17*
X739140Y314960D03*
X782320Y317500D03*
X748819Y454179D03*
X782320Y459740D03*
X744220Y599440D03*
X777240Y609600D03*
D16*
X292100Y363220D03*
X53340Y53340D03*
X22860Y66040D03*
X30480Y58420D03*
D15*
X106754Y58398D03*
D20*
X277647Y19271D03*
D15*
X135407Y120871D03*
D17*
X419390Y645966D03*
X533987Y630520D03*
X420801Y585358D03*
X693265Y92991D03*
X441960Y45720D03*
X365760Y142240D03*
X549440Y498766D03*
X593257Y496796D03*
X407887Y416721D03*
X542306Y289528D03*
X344922Y635838D03*
X346995Y614486D03*
X346995Y584006D03*
X321613Y530652D03*
X322784Y488840D03*
X371938Y273033D03*
X279400Y149860D03*
X355600Y386080D03*
X381000Y563880D03*
D20*
X723900Y650240D03*
X596900Y248920D03*
D18*
X647700Y561340D03*
D20*
X429721Y487670D03*
D16*
X40640Y53340D03*
D15*
X127787Y16731D03*
D17*
X805254Y49347D03*
X787400Y7620D03*
X643090Y31825D03*
X469900Y109220D03*
X429411Y155940D03*
X415277Y123061D03*
X660356Y445996D03*
X599440Y157480D03*
X647286Y308360D03*
X656757Y588236D03*
X360680Y353060D03*
X506690Y6900D03*
X542095Y6087D03*
X577655Y6087D03*
X613215Y6087D03*
D21*
X744220Y203200D03*
X758017Y203052D03*
X771807Y203172D03*
X785655Y203271D03*
X746760Y347980D03*
X760713Y347980D03*
X774782Y347980D03*
X789940Y347980D03*
X746760Y495300D03*
X760868Y495300D03*
X774189Y495300D03*
X788246Y495300D03*
D17*
X579178Y488353D03*
X507080Y488600D03*
X558800Y447040D03*
X721360Y439420D03*
X556260Y426720D03*
X645301Y298739D03*
X203200Y182880D03*
D16*
X472440Y213360D03*
D17*
X457200Y198120D03*
D16*
X459740Y210820D03*
D17*
X284480Y563880D03*
X487680Y576580D03*
X291958Y526624D03*
X488488Y563856D03*
X601662Y545173D03*
X525760Y545173D03*
X495300Y596900D03*
D16*
X388620Y609600D03*
X236220Y223520D03*
D17*
X403860Y431800D03*
D16*
X403860Y307340D03*
D17*
X556260Y561340D03*
X509435Y446657D03*
X518096Y446868D03*
X419100Y307340D03*
X429260Y464820D03*
X480060Y91440D03*
X480060Y307340D03*
X480060Y340360D03*
X480060Y454660D03*
X439420Y347980D03*
X469900Y347980D03*
X469900Y543560D03*
X607060Y525780D03*
X495300Y137160D03*
X627380Y134620D03*
X721360Y68580D03*
X665480Y68580D03*
X642620Y88900D03*
X721360Y55880D03*
X635000Y106680D03*
X721360Y43180D03*
X627987Y382962D03*
X627380Y360680D03*
X477520Y528320D03*
X579120Y472440D03*
X526917Y446657D03*
X535690Y446269D03*
X779780Y261620D03*
X786340Y295453D03*
X782320Y541020D03*
X784860Y581660D03*
X783566Y391579D03*
X788646Y431980D03*
D16*
X622300Y83820D03*
D17*
X558800Y365760D03*
X548640Y274320D03*
D16*
X604837Y84253D03*
X586740Y83820D03*
D17*
X528320Y365760D03*
X530860Y281940D03*
D16*
X568960Y83820D03*
D17*
X517812Y365747D03*
X523240Y274026D03*
D16*
X551180Y83820D03*
X533400Y83820D03*
X515620Y83820D03*
X497840Y83820D03*
D17*
X576580Y322580D03*
X332740Y81280D03*
X619760Y447040D03*
X617990Y433039D03*
X611817Y425470D03*
X637540Y406400D03*
X640080Y386080D03*
X640080Y373380D03*
X640080Y363220D03*
X429607Y570457D03*
X436880Y563880D03*
X436880Y551180D03*
X436880Y538480D03*
X531860Y557524D03*
X531165Y577448D03*
X531397Y590422D03*
M02*
