G04 EAGLE Gerber RS-274X export*
G75*
%MOMM*%
%FSLAX34Y34*%
%LPD*%
%INBottom Copper*%
%IPPOS*%
%AMOC8*
5,1,8,0,0,1.08239X$1,22.5*%
G01*
%ADD10R,0.609600X1.524000*%
%ADD11R,3.816000X3.816000*%
%ADD12C,3.816000*%
%ADD13R,0.500000X1.000000*%
%ADD14R,2.400000X2.400000*%
%ADD15C,2.400000*%
%ADD16R,1.200000X0.800000*%
%ADD17R,1.200000X0.450000*%
%ADD18R,1.524000X0.609600*%
%ADD19R,0.630000X0.830000*%
%ADD20R,1.625600X0.609600*%
%ADD21R,1.981200X0.406400*%
%ADD22C,1.879600*%
%ADD23R,1.766000X0.270000*%
%ADD24R,0.270000X1.766000*%
%ADD25R,0.762000X1.524000*%
%ADD26R,0.800000X1.200000*%
%ADD27R,0.600000X0.550000*%
%ADD28R,0.800000X0.900000*%
%ADD29R,1.000000X0.500000*%
%ADD30C,1.450000*%
%ADD31R,0.400000X1.350000*%
%ADD32R,1.500000X1.900000*%
%ADD33R,1.200000X1.900000*%
%ADD34C,1.108000*%
%ADD35R,2.790009X0.740003*%
%ADD36C,0.150000*%
%ADD37R,1.473200X0.406400*%
%ADD38R,1.600000X1.800000*%
%ADD39R,2.590800X1.651000*%
%ADD40R,1.200000X1.200000*%
%ADD41R,0.900000X0.900000*%
%ADD42C,0.553200*%
%ADD43C,0.254000*%
%ADD44C,0.304800*%
%ADD45C,0.900000*%
%ADD46C,0.203200*%
%ADD47C,1.500000*%
%ADD48C,0.812800*%
%ADD49C,1.016000*%
%ADD50C,1.270000*%
%ADD51C,0.177800*%
%ADD52C,0.406400*%
%ADD53C,1.125000*%
%ADD54C,0.609600*%
%ADD55C,2.400300*%
%ADD56C,0.508000*%
%ADD57R,2.400300X2.400300*%
%ADD58C,1.275000*%

G36*
X156600Y695436D02*
X156600Y695436D01*
X156481Y695429D01*
X156443Y695416D01*
X156402Y695411D01*
X156292Y695368D01*
X156179Y695331D01*
X156144Y695309D01*
X156107Y695294D01*
X156011Y695225D01*
X155910Y695161D01*
X155882Y695131D01*
X155849Y695108D01*
X155773Y695016D01*
X155692Y694929D01*
X155672Y694894D01*
X155647Y694863D01*
X155596Y694755D01*
X155538Y694651D01*
X155528Y694611D01*
X155511Y694575D01*
X155489Y694458D01*
X155459Y694343D01*
X155455Y694283D01*
X155451Y694263D01*
X155453Y694242D01*
X155449Y694182D01*
X155449Y391160D01*
X155464Y391042D01*
X155471Y390923D01*
X155484Y390885D01*
X155489Y390844D01*
X155532Y390734D01*
X155569Y390621D01*
X155591Y390586D01*
X155606Y390549D01*
X155675Y390453D01*
X155739Y390352D01*
X155769Y390324D01*
X155792Y390291D01*
X155884Y390216D01*
X155971Y390134D01*
X156006Y390114D01*
X156037Y390089D01*
X156145Y390038D01*
X156249Y389980D01*
X156289Y389970D01*
X156325Y389953D01*
X156442Y389931D01*
X156557Y389901D01*
X156617Y389897D01*
X156637Y389893D01*
X156658Y389895D01*
X156718Y389891D01*
X202777Y389891D01*
X222251Y375285D01*
X222251Y331286D01*
X222268Y331148D01*
X222281Y331009D01*
X222288Y330990D01*
X222291Y330970D01*
X222342Y330841D01*
X222389Y330710D01*
X222400Y330693D01*
X222408Y330675D01*
X222489Y330562D01*
X222567Y330447D01*
X222583Y330434D01*
X222594Y330417D01*
X222702Y330328D01*
X222806Y330236D01*
X222824Y330227D01*
X222839Y330214D01*
X222965Y330155D01*
X223089Y330092D01*
X223109Y330087D01*
X223127Y330079D01*
X223263Y330053D01*
X223399Y330022D01*
X223420Y330023D01*
X223440Y330019D01*
X223578Y330028D01*
X223717Y330032D01*
X223737Y330038D01*
X223757Y330039D01*
X223889Y330082D01*
X224023Y330120D01*
X224040Y330131D01*
X224059Y330137D01*
X224177Y330211D01*
X224297Y330282D01*
X224318Y330300D01*
X224328Y330307D01*
X224342Y330322D01*
X224418Y330388D01*
X227749Y333720D01*
X235882Y337089D01*
X244686Y337089D01*
X252819Y333720D01*
X259044Y327495D01*
X262413Y319362D01*
X262413Y310558D01*
X259044Y302425D01*
X252819Y296200D01*
X244686Y292831D01*
X235882Y292831D01*
X227749Y296200D01*
X224418Y299532D01*
X224308Y299617D01*
X224201Y299706D01*
X224182Y299714D01*
X224166Y299727D01*
X224038Y299782D01*
X223913Y299841D01*
X223893Y299845D01*
X223874Y299853D01*
X223736Y299875D01*
X223601Y299901D01*
X223580Y299900D01*
X223560Y299903D01*
X223421Y299890D01*
X223283Y299881D01*
X223264Y299875D01*
X223244Y299873D01*
X223112Y299826D01*
X222981Y299783D01*
X222963Y299772D01*
X222944Y299765D01*
X222829Y299687D01*
X222712Y299613D01*
X222698Y299598D01*
X222681Y299587D01*
X222589Y299483D01*
X222494Y299381D01*
X222484Y299364D01*
X222471Y299348D01*
X222407Y299224D01*
X222340Y299103D01*
X222335Y299083D01*
X222326Y299065D01*
X222296Y298929D01*
X222261Y298795D01*
X222259Y298767D01*
X222257Y298755D01*
X222257Y298734D01*
X222251Y298634D01*
X222251Y282420D01*
X222265Y282309D01*
X222271Y282197D01*
X222285Y282151D01*
X222291Y282104D01*
X222332Y282000D01*
X222365Y281893D01*
X222390Y281853D01*
X222408Y281809D01*
X222473Y281718D01*
X222532Y281623D01*
X222567Y281590D01*
X222594Y281551D01*
X222681Y281480D01*
X222762Y281402D01*
X222803Y281379D01*
X222839Y281348D01*
X222941Y281301D01*
X223038Y281246D01*
X223084Y281233D01*
X223127Y281213D01*
X223237Y281192D01*
X223345Y281163D01*
X223418Y281157D01*
X223440Y281153D01*
X223458Y281154D01*
X223506Y281151D01*
X282097Y280500D01*
X282241Y280516D01*
X282388Y280530D01*
X282400Y280534D01*
X282413Y280536D01*
X282549Y280588D01*
X282687Y280638D01*
X282698Y280645D01*
X282710Y280650D01*
X282829Y280734D01*
X282950Y280816D01*
X282959Y280826D01*
X282969Y280834D01*
X283064Y280945D01*
X283161Y281055D01*
X283167Y281066D01*
X283175Y281076D01*
X283239Y281208D01*
X283305Y281338D01*
X283308Y281351D01*
X283314Y281363D01*
X283343Y281505D01*
X283375Y281648D01*
X283374Y281661D01*
X283377Y281674D01*
X283370Y281820D01*
X283365Y281966D01*
X283361Y281979D01*
X283361Y281992D01*
X283317Y282132D01*
X283277Y282271D01*
X283270Y282283D01*
X283266Y282295D01*
X283209Y282387D01*
X283209Y383540D01*
X283194Y383658D01*
X283187Y383777D01*
X283174Y383815D01*
X283169Y383856D01*
X283126Y383966D01*
X283089Y384079D01*
X283067Y384114D01*
X283052Y384151D01*
X282983Y384247D01*
X282919Y384348D01*
X282889Y384376D01*
X282866Y384409D01*
X282774Y384485D01*
X282687Y384566D01*
X282652Y384586D01*
X282621Y384611D01*
X282513Y384662D01*
X282409Y384720D01*
X282369Y384730D01*
X282333Y384747D01*
X282216Y384769D01*
X282101Y384799D01*
X282041Y384803D01*
X282021Y384807D01*
X282000Y384805D01*
X281940Y384809D01*
X257734Y384809D01*
X225056Y409946D01*
X225041Y409955D01*
X225029Y409966D01*
X224905Y410035D01*
X224782Y410107D01*
X224765Y410112D01*
X224751Y410120D01*
X224613Y410155D01*
X224476Y410194D01*
X224459Y410195D01*
X224443Y410199D01*
X224282Y410209D01*
X200245Y410209D01*
X200236Y410208D01*
X200227Y410209D01*
X200078Y410188D01*
X199930Y410169D01*
X199921Y410166D01*
X199912Y410165D01*
X199861Y410147D01*
X193816Y410147D01*
X193778Y410157D01*
X193634Y410197D01*
X193624Y410197D01*
X193615Y410199D01*
X193455Y410209D01*
X186677Y410209D01*
X186644Y413606D01*
X186632Y413698D01*
X186629Y413791D01*
X186611Y413855D01*
X186602Y413921D01*
X186567Y414007D01*
X186541Y414096D01*
X186507Y414154D01*
X186482Y414216D01*
X186426Y414290D01*
X186379Y414370D01*
X186303Y414457D01*
X186292Y414471D01*
X186286Y414477D01*
X186273Y414491D01*
X184092Y416672D01*
X181801Y422203D01*
X181801Y428189D01*
X184092Y433720D01*
X186052Y435680D01*
X186116Y435763D01*
X186187Y435840D01*
X186213Y435888D01*
X186247Y435931D01*
X186288Y436028D01*
X186338Y436120D01*
X186351Y436173D01*
X186373Y436223D01*
X186390Y436327D01*
X186415Y436429D01*
X186419Y436515D01*
X186423Y436537D01*
X186421Y436552D01*
X186423Y436590D01*
X186058Y474645D01*
X186045Y474737D01*
X186042Y474830D01*
X186024Y474894D01*
X186015Y474960D01*
X185980Y475046D01*
X185954Y475135D01*
X185920Y475193D01*
X185895Y475254D01*
X185839Y475329D01*
X185792Y475409D01*
X185716Y475496D01*
X185705Y475510D01*
X185699Y475516D01*
X185686Y475530D01*
X184092Y477124D01*
X181801Y482655D01*
X181801Y488641D01*
X184092Y494172D01*
X185476Y495556D01*
X185541Y495639D01*
X185612Y495716D01*
X185637Y495764D01*
X185671Y495807D01*
X185713Y495904D01*
X185763Y495996D01*
X185776Y496049D01*
X185797Y496099D01*
X185814Y496203D01*
X185839Y496305D01*
X185844Y496392D01*
X185847Y496413D01*
X185846Y496429D01*
X185848Y496466D01*
X185471Y535684D01*
X185458Y535776D01*
X185455Y535869D01*
X185437Y535933D01*
X185428Y535999D01*
X185393Y536085D01*
X185367Y536174D01*
X185333Y536231D01*
X185308Y536293D01*
X185252Y536368D01*
X185205Y536448D01*
X185129Y536535D01*
X185119Y536549D01*
X185112Y536554D01*
X185099Y536569D01*
X184092Y537576D01*
X181801Y543107D01*
X181801Y549093D01*
X184092Y554624D01*
X184900Y555432D01*
X184965Y555515D01*
X185036Y555593D01*
X185062Y555641D01*
X185095Y555684D01*
X185137Y555780D01*
X185187Y555873D01*
X185200Y555926D01*
X185222Y555976D01*
X185238Y556079D01*
X185263Y556181D01*
X185268Y556268D01*
X185271Y556290D01*
X185270Y556305D01*
X185272Y556342D01*
X184884Y596723D01*
X184871Y596815D01*
X184868Y596908D01*
X184850Y596972D01*
X184841Y597038D01*
X184806Y597124D01*
X184780Y597213D01*
X184746Y597270D01*
X184721Y597332D01*
X184666Y597407D01*
X184618Y597487D01*
X184542Y597574D01*
X184532Y597588D01*
X184525Y597593D01*
X184512Y597608D01*
X184092Y598028D01*
X181801Y603559D01*
X181801Y609545D01*
X184092Y615076D01*
X184325Y615309D01*
X184389Y615392D01*
X184460Y615469D01*
X184486Y615517D01*
X184519Y615560D01*
X184561Y615656D01*
X184611Y615749D01*
X184624Y615802D01*
X184646Y615852D01*
X184662Y615956D01*
X184688Y616058D01*
X184692Y616144D01*
X184696Y616166D01*
X184694Y616181D01*
X184696Y616218D01*
X184162Y671831D01*
X223450Y671831D01*
X223548Y671843D01*
X223647Y671846D01*
X223706Y671863D01*
X223766Y671871D01*
X223858Y671907D01*
X223953Y671935D01*
X224005Y671965D01*
X224061Y671988D01*
X224142Y672046D01*
X224227Y672096D01*
X224302Y672162D01*
X224319Y672174D01*
X224327Y672184D01*
X224348Y672203D01*
X227241Y675096D01*
X235374Y678465D01*
X244178Y678465D01*
X252311Y675096D01*
X255204Y672203D01*
X255283Y672142D01*
X255355Y672074D01*
X255408Y672045D01*
X255456Y672008D01*
X255546Y671968D01*
X255633Y671920D01*
X255692Y671905D01*
X255747Y671881D01*
X255845Y671866D01*
X255941Y671841D01*
X256041Y671835D01*
X256061Y671831D01*
X256074Y671833D01*
X256102Y671831D01*
X777749Y671831D01*
X777749Y662820D01*
X777751Y662802D01*
X777749Y662784D01*
X777770Y662602D01*
X777789Y662419D01*
X777794Y662402D01*
X777796Y662385D01*
X777853Y662210D01*
X777907Y662034D01*
X777915Y662019D01*
X777921Y662002D01*
X778011Y661842D01*
X778099Y661680D01*
X778110Y661667D01*
X778119Y661651D01*
X778239Y661512D01*
X778356Y661371D01*
X778370Y661360D01*
X778382Y661346D01*
X778527Y661234D01*
X778670Y661119D01*
X778686Y661111D01*
X778700Y661100D01*
X778865Y661018D01*
X779027Y660933D01*
X779044Y660928D01*
X779061Y660920D01*
X779239Y660873D01*
X779414Y660822D01*
X779432Y660820D01*
X779449Y660816D01*
X779780Y660789D01*
X781878Y660789D01*
X785755Y659183D01*
X788723Y656215D01*
X790329Y652338D01*
X790329Y648142D01*
X788723Y644265D01*
X785755Y641297D01*
X781878Y639691D01*
X779780Y639691D01*
X779762Y639689D01*
X779744Y639691D01*
X779562Y639670D01*
X779379Y639651D01*
X779362Y639646D01*
X779345Y639644D01*
X779170Y639587D01*
X778994Y639533D01*
X778979Y639525D01*
X778962Y639519D01*
X778802Y639429D01*
X778640Y639341D01*
X778627Y639330D01*
X778611Y639321D01*
X778472Y639201D01*
X778331Y639084D01*
X778320Y639070D01*
X778307Y639058D01*
X778194Y638913D01*
X778079Y638770D01*
X778071Y638754D01*
X778060Y638740D01*
X777978Y638575D01*
X777893Y638413D01*
X777888Y638396D01*
X777880Y638380D01*
X777833Y638201D01*
X777782Y638026D01*
X777780Y638008D01*
X777776Y637991D01*
X777749Y637660D01*
X777749Y623172D01*
X777751Y623154D01*
X777749Y623136D01*
X777770Y622954D01*
X777789Y622771D01*
X777794Y622754D01*
X777796Y622737D01*
X777853Y622562D01*
X777907Y622386D01*
X777915Y622371D01*
X777921Y622354D01*
X778011Y622194D01*
X778099Y622032D01*
X778110Y622019D01*
X778119Y622003D01*
X778239Y621864D01*
X778356Y621723D01*
X778370Y621712D01*
X778382Y621698D01*
X778527Y621586D01*
X778670Y621471D01*
X778686Y621463D01*
X778700Y621452D01*
X778865Y621370D01*
X779027Y621285D01*
X779044Y621280D01*
X779061Y621272D01*
X779239Y621224D01*
X779414Y621174D01*
X779432Y621172D01*
X779449Y621168D01*
X779780Y621141D01*
X782161Y621141D01*
X782161Y613599D01*
X779780Y613599D01*
X779762Y613597D01*
X779744Y613599D01*
X779562Y613578D01*
X779379Y613559D01*
X779362Y613554D01*
X779345Y613552D01*
X779170Y613495D01*
X778994Y613441D01*
X778979Y613433D01*
X778962Y613427D01*
X778802Y613337D01*
X778640Y613249D01*
X778627Y613238D01*
X778611Y613229D01*
X778472Y613109D01*
X778331Y612992D01*
X778320Y612978D01*
X778307Y612966D01*
X778194Y612821D01*
X778079Y612678D01*
X778071Y612662D01*
X778060Y612648D01*
X777978Y612483D01*
X777893Y612321D01*
X777888Y612304D01*
X777880Y612288D01*
X777833Y612109D01*
X777782Y611934D01*
X777780Y611916D01*
X777776Y611899D01*
X777749Y611568D01*
X777749Y607632D01*
X777750Y607618D01*
X777749Y607605D01*
X777749Y607601D01*
X777749Y607596D01*
X777770Y607414D01*
X777789Y607231D01*
X777794Y607214D01*
X777796Y607197D01*
X777853Y607022D01*
X777907Y606846D01*
X777915Y606831D01*
X777921Y606814D01*
X778011Y606654D01*
X778099Y606492D01*
X778110Y606479D01*
X778119Y606463D01*
X778239Y606324D01*
X778356Y606183D01*
X778370Y606172D01*
X778382Y606158D01*
X778527Y606046D01*
X778670Y605931D01*
X778686Y605923D01*
X778700Y605912D01*
X778865Y605830D01*
X779027Y605745D01*
X779044Y605740D01*
X779061Y605732D01*
X779239Y605684D01*
X779414Y605634D01*
X779432Y605632D01*
X779449Y605628D01*
X779780Y605601D01*
X782161Y605601D01*
X782161Y598059D01*
X779780Y598059D01*
X779762Y598057D01*
X779744Y598059D01*
X779562Y598038D01*
X779379Y598019D01*
X779362Y598014D01*
X779345Y598012D01*
X779170Y597955D01*
X778995Y597901D01*
X778979Y597893D01*
X778962Y597887D01*
X778802Y597797D01*
X778640Y597710D01*
X778627Y597698D01*
X778611Y597689D01*
X778472Y597569D01*
X778331Y597452D01*
X778320Y597438D01*
X778307Y597426D01*
X778194Y597281D01*
X778079Y597138D01*
X778071Y597122D01*
X778060Y597108D01*
X777978Y596944D01*
X777893Y596781D01*
X777888Y596764D01*
X777880Y596748D01*
X777833Y596570D01*
X777782Y596394D01*
X777780Y596376D01*
X777776Y596359D01*
X777749Y596028D01*
X777749Y593145D01*
X777751Y593123D01*
X777749Y593101D01*
X777771Y592923D01*
X777789Y592744D01*
X777795Y592723D01*
X777798Y592701D01*
X777854Y592531D01*
X777907Y592360D01*
X777917Y592340D01*
X777924Y592319D01*
X778013Y592163D01*
X778099Y592005D01*
X778113Y591988D01*
X778124Y591969D01*
X778242Y591833D01*
X778356Y591696D01*
X778374Y591682D01*
X778388Y591665D01*
X778531Y591556D01*
X778670Y591444D01*
X778681Y591438D01*
X781387Y588732D01*
X781394Y588717D01*
X781402Y588701D01*
X781408Y588683D01*
X781497Y588523D01*
X781584Y588362D01*
X781595Y588348D01*
X781604Y588332D01*
X781723Y588193D01*
X781840Y588051D01*
X781854Y588040D01*
X781866Y588026D01*
X782010Y587913D01*
X782153Y587798D01*
X782169Y587789D01*
X782183Y587778D01*
X782347Y587696D01*
X782509Y587611D01*
X782527Y587605D01*
X782543Y587597D01*
X782719Y587549D01*
X782896Y587497D01*
X782914Y587496D01*
X782931Y587491D01*
X783114Y587479D01*
X783297Y587463D01*
X783315Y587465D01*
X783333Y587464D01*
X783418Y587475D01*
X786017Y587475D01*
X788154Y586590D01*
X789440Y585304D01*
X789460Y585287D01*
X789478Y585267D01*
X789616Y585159D01*
X789751Y585049D01*
X789775Y585036D01*
X789796Y585020D01*
X789953Y584942D01*
X790107Y584860D01*
X790132Y584852D01*
X790156Y584840D01*
X790326Y584795D01*
X790449Y584758D01*
X790449Y583766D01*
X790452Y583735D01*
X790450Y583704D01*
X790472Y583535D01*
X790489Y583366D01*
X790498Y583336D01*
X790502Y583305D01*
X790603Y582989D01*
X790675Y582817D01*
X790675Y580468D01*
X790656Y580400D01*
X790604Y580229D01*
X790602Y580207D01*
X790596Y580185D01*
X790583Y580006D01*
X790566Y579828D01*
X790568Y579806D01*
X790567Y579784D01*
X790589Y579605D01*
X790608Y579428D01*
X790614Y579406D01*
X790617Y579384D01*
X790674Y579214D01*
X790727Y579043D01*
X790738Y579024D01*
X790745Y579002D01*
X790835Y578847D01*
X790921Y578690D01*
X790935Y578673D01*
X790946Y578654D01*
X791161Y578401D01*
X792227Y577335D01*
X792227Y559569D01*
X791044Y558386D01*
X791027Y558365D01*
X791007Y558348D01*
X790899Y558210D01*
X790789Y558075D01*
X790776Y558051D01*
X790760Y558030D01*
X790682Y557873D01*
X790600Y557719D01*
X790592Y557693D01*
X790580Y557669D01*
X790535Y557500D01*
X790485Y557333D01*
X790483Y557306D01*
X790476Y557281D01*
X790449Y556950D01*
X790449Y525090D01*
X790451Y525064D01*
X790449Y525037D01*
X790471Y524863D01*
X790489Y524690D01*
X790497Y524664D01*
X790500Y524637D01*
X790556Y524472D01*
X790607Y524305D01*
X790620Y524281D01*
X790628Y524256D01*
X790715Y524104D01*
X790799Y523951D01*
X790816Y523930D01*
X790829Y523907D01*
X791044Y523654D01*
X792227Y522471D01*
X792227Y505209D01*
X792229Y505186D01*
X792227Y505164D01*
X792249Y504986D01*
X792267Y504808D01*
X792273Y504787D01*
X792276Y504764D01*
X792332Y504594D01*
X792385Y504423D01*
X792395Y504403D01*
X792402Y504382D01*
X792491Y504227D01*
X792577Y504069D01*
X792591Y504052D01*
X792602Y504032D01*
X792719Y503898D01*
X792834Y503760D01*
X792852Y503746D01*
X792866Y503729D01*
X793008Y503620D01*
X793148Y503507D01*
X793168Y503497D01*
X793186Y503483D01*
X793481Y503332D01*
X793584Y503289D01*
X796235Y500638D01*
X797670Y497175D01*
X797670Y493425D01*
X796235Y489962D01*
X793584Y487311D01*
X791703Y486532D01*
X791683Y486521D01*
X791662Y486514D01*
X791506Y486426D01*
X791348Y486341D01*
X791331Y486327D01*
X791311Y486316D01*
X791176Y486199D01*
X791037Y486085D01*
X791023Y486068D01*
X791007Y486053D01*
X790897Y485912D01*
X790784Y485772D01*
X790773Y485753D01*
X790760Y485735D01*
X790680Y485574D01*
X790597Y485416D01*
X790590Y485395D01*
X790580Y485374D01*
X790534Y485201D01*
X790484Y485029D01*
X790482Y485007D01*
X790476Y484986D01*
X790449Y484655D01*
X790449Y461708D01*
X790451Y461690D01*
X790449Y461673D01*
X790470Y461490D01*
X790489Y461308D01*
X790494Y461291D01*
X790496Y461273D01*
X790553Y461098D01*
X790607Y460923D01*
X790615Y460907D01*
X790621Y460890D01*
X790711Y460730D01*
X790799Y460569D01*
X790810Y460555D01*
X790819Y460539D01*
X790939Y460400D01*
X791056Y460259D01*
X791070Y460248D01*
X791082Y460235D01*
X791227Y460122D01*
X791370Y460007D01*
X791386Y459999D01*
X791400Y459988D01*
X791565Y459906D01*
X791727Y459822D01*
X791744Y459817D01*
X791761Y459809D01*
X791939Y459761D01*
X792003Y459742D01*
X791870Y459699D01*
X791694Y459645D01*
X791679Y459637D01*
X791662Y459631D01*
X791502Y459541D01*
X791340Y459453D01*
X791327Y459442D01*
X791311Y459433D01*
X791172Y459313D01*
X791031Y459195D01*
X791020Y459182D01*
X791007Y459170D01*
X790894Y459025D01*
X790779Y458882D01*
X790771Y458866D01*
X790760Y458852D01*
X790678Y458687D01*
X790593Y458524D01*
X790588Y458507D01*
X790580Y458491D01*
X790533Y458313D01*
X790482Y458138D01*
X790480Y458120D01*
X790476Y458103D01*
X790449Y457772D01*
X790449Y438884D01*
X790451Y438862D01*
X790449Y438839D01*
X790471Y438662D01*
X790489Y438483D01*
X790495Y438462D01*
X790498Y438440D01*
X790554Y438270D01*
X790607Y438098D01*
X790617Y438079D01*
X790624Y438058D01*
X790713Y437902D01*
X790799Y437744D01*
X790813Y437727D01*
X790824Y437708D01*
X790942Y437573D01*
X791056Y437435D01*
X791074Y437421D01*
X791088Y437404D01*
X791231Y437295D01*
X791370Y437183D01*
X791390Y437173D01*
X791408Y437159D01*
X791703Y437007D01*
X791939Y436909D01*
X793575Y435274D01*
X794460Y433136D01*
X794460Y430823D01*
X794089Y429926D01*
X794082Y429905D01*
X794072Y429885D01*
X794024Y429712D01*
X793972Y429541D01*
X793970Y429519D01*
X793964Y429497D01*
X793951Y429317D01*
X793934Y429140D01*
X793936Y429118D01*
X793935Y429095D01*
X793957Y428918D01*
X793976Y428739D01*
X793982Y428718D01*
X793985Y428696D01*
X794042Y428527D01*
X794096Y428355D01*
X794106Y428335D01*
X794113Y428314D01*
X794203Y428159D01*
X794289Y428002D01*
X794303Y427985D01*
X794314Y427965D01*
X794529Y427712D01*
X794767Y427475D01*
X794767Y409709D01*
X792981Y407923D01*
X792480Y407923D01*
X792462Y407921D01*
X792444Y407923D01*
X792262Y407902D01*
X792079Y407883D01*
X792062Y407878D01*
X792045Y407876D01*
X791870Y407819D01*
X791694Y407765D01*
X791679Y407757D01*
X791662Y407751D01*
X791502Y407661D01*
X791340Y407573D01*
X791327Y407562D01*
X791311Y407553D01*
X791172Y407433D01*
X791031Y407316D01*
X791020Y407302D01*
X791007Y407290D01*
X790894Y407145D01*
X790779Y407002D01*
X790771Y406986D01*
X790760Y406972D01*
X790678Y406807D01*
X790593Y406645D01*
X790588Y406628D01*
X790580Y406612D01*
X790533Y406433D01*
X790482Y406258D01*
X790480Y406240D01*
X790476Y406223D01*
X790449Y405892D01*
X790449Y376428D01*
X790451Y376410D01*
X790449Y376392D01*
X790471Y376210D01*
X790489Y376027D01*
X790494Y376010D01*
X790496Y375993D01*
X790553Y375818D01*
X790607Y375642D01*
X790615Y375627D01*
X790621Y375610D01*
X790711Y375450D01*
X790799Y375288D01*
X790810Y375275D01*
X790819Y375259D01*
X790939Y375120D01*
X791056Y374979D01*
X791070Y374968D01*
X791082Y374954D01*
X791227Y374842D01*
X791370Y374727D01*
X791386Y374719D01*
X791400Y374708D01*
X791565Y374626D01*
X791727Y374541D01*
X791744Y374536D01*
X791761Y374528D01*
X791939Y374481D01*
X792114Y374430D01*
X792132Y374428D01*
X792149Y374424D01*
X792480Y374397D01*
X792981Y374397D01*
X794767Y372611D01*
X794767Y357322D01*
X794769Y357295D01*
X794767Y357269D01*
X794789Y357095D01*
X794807Y356921D01*
X794814Y356896D01*
X794818Y356869D01*
X794873Y356703D01*
X794925Y356536D01*
X794938Y356513D01*
X794946Y356487D01*
X795033Y356336D01*
X795117Y356182D01*
X795134Y356162D01*
X795147Y356139D01*
X795362Y355886D01*
X797929Y353318D01*
X799364Y349855D01*
X799364Y346105D01*
X797929Y342642D01*
X795278Y339991D01*
X791703Y338510D01*
X791683Y338499D01*
X791662Y338493D01*
X791506Y338404D01*
X791348Y338320D01*
X791331Y338306D01*
X791311Y338295D01*
X791176Y338178D01*
X791037Y338063D01*
X791023Y338046D01*
X791007Y338031D01*
X790897Y337890D01*
X790784Y337751D01*
X790773Y337731D01*
X790760Y337713D01*
X790680Y337553D01*
X790597Y337394D01*
X790590Y337373D01*
X790580Y337353D01*
X790534Y337179D01*
X790484Y337008D01*
X790482Y336986D01*
X790476Y336964D01*
X790449Y336633D01*
X790449Y319468D01*
X790451Y319450D01*
X790449Y319433D01*
X790470Y319250D01*
X790489Y319068D01*
X790494Y319051D01*
X790496Y319033D01*
X790553Y318858D01*
X790607Y318683D01*
X790615Y318667D01*
X790621Y318650D01*
X790711Y318490D01*
X790799Y318329D01*
X790810Y318315D01*
X790819Y318299D01*
X790939Y318160D01*
X791056Y318019D01*
X791070Y318008D01*
X791082Y317995D01*
X791227Y317882D01*
X791370Y317767D01*
X791386Y317759D01*
X791400Y317748D01*
X791565Y317666D01*
X791727Y317582D01*
X791744Y317577D01*
X791761Y317569D01*
X791939Y317521D01*
X792003Y317502D01*
X791870Y317459D01*
X791694Y317405D01*
X791679Y317397D01*
X791662Y317391D01*
X791502Y317301D01*
X791340Y317213D01*
X791327Y317202D01*
X791311Y317193D01*
X791172Y317073D01*
X791031Y316955D01*
X791020Y316942D01*
X791007Y316930D01*
X790894Y316785D01*
X790779Y316642D01*
X790771Y316626D01*
X790760Y316612D01*
X790678Y316447D01*
X790593Y316284D01*
X790588Y316267D01*
X790580Y316251D01*
X790533Y316073D01*
X790482Y315898D01*
X790480Y315880D01*
X790476Y315863D01*
X790449Y315532D01*
X790449Y300408D01*
X790451Y300382D01*
X790449Y300355D01*
X790471Y300181D01*
X790489Y300008D01*
X790497Y299982D01*
X790500Y299956D01*
X790556Y299790D01*
X790607Y299623D01*
X790620Y299599D01*
X790628Y299574D01*
X790715Y299422D01*
X790799Y299269D01*
X790816Y299248D01*
X790829Y299225D01*
X791044Y298972D01*
X791269Y298747D01*
X792154Y296610D01*
X792154Y294296D01*
X791529Y292786D01*
X791522Y292765D01*
X791512Y292745D01*
X791464Y292572D01*
X791412Y292401D01*
X791410Y292379D01*
X791404Y292357D01*
X791391Y292178D01*
X791374Y292000D01*
X791376Y291978D01*
X791375Y291956D01*
X791397Y291777D01*
X791416Y291599D01*
X791422Y291578D01*
X791425Y291556D01*
X791482Y291386D01*
X791536Y291215D01*
X791546Y291196D01*
X791553Y291174D01*
X791643Y291019D01*
X791729Y290862D01*
X791743Y290845D01*
X791754Y290826D01*
X791969Y290573D01*
X792227Y290315D01*
X792227Y272549D01*
X791044Y271366D01*
X791027Y271345D01*
X791007Y271328D01*
X790899Y271190D01*
X790789Y271055D01*
X790776Y271031D01*
X790760Y271010D01*
X790682Y270853D01*
X790600Y270699D01*
X790592Y270673D01*
X790580Y270649D01*
X790535Y270480D01*
X790485Y270313D01*
X790483Y270286D01*
X790476Y270261D01*
X790449Y269930D01*
X790449Y238070D01*
X790451Y238044D01*
X790449Y238017D01*
X790471Y237843D01*
X790489Y237670D01*
X790497Y237644D01*
X790500Y237617D01*
X790556Y237452D01*
X790607Y237285D01*
X790620Y237261D01*
X790628Y237236D01*
X790715Y237084D01*
X790799Y236931D01*
X790816Y236910D01*
X790829Y236887D01*
X791044Y236634D01*
X792227Y235451D01*
X792227Y210867D01*
X792229Y210841D01*
X792227Y210814D01*
X792249Y210640D01*
X792267Y210466D01*
X792274Y210441D01*
X792278Y210414D01*
X792333Y210249D01*
X792385Y210082D01*
X792398Y210058D01*
X792406Y210033D01*
X792493Y209881D01*
X792577Y209728D01*
X792594Y209707D01*
X792607Y209684D01*
X792822Y209431D01*
X793644Y208609D01*
X795078Y205145D01*
X795078Y201396D01*
X793644Y197932D01*
X791044Y195332D01*
X791027Y195312D01*
X791007Y195294D01*
X790899Y195156D01*
X790789Y195021D01*
X790776Y194997D01*
X790760Y194976D01*
X790682Y194819D01*
X790600Y194665D01*
X790592Y194640D01*
X790580Y194615D01*
X790535Y194446D01*
X790485Y194279D01*
X790483Y194253D01*
X790476Y194227D01*
X790449Y193896D01*
X790449Y171014D01*
X790451Y170988D01*
X790449Y170961D01*
X790471Y170787D01*
X790489Y170614D01*
X790497Y170588D01*
X790500Y170561D01*
X790556Y170396D01*
X790607Y170229D01*
X790620Y170205D01*
X790628Y170180D01*
X790715Y170028D01*
X790799Y169875D01*
X790816Y169854D01*
X790829Y169831D01*
X791044Y169578D01*
X792227Y168395D01*
X792227Y150629D01*
X791298Y149700D01*
X791281Y149679D01*
X791260Y149662D01*
X791153Y149524D01*
X791043Y149389D01*
X791030Y149365D01*
X791014Y149344D01*
X790936Y149187D01*
X790854Y149033D01*
X790846Y149007D01*
X790834Y148983D01*
X790789Y148814D01*
X790739Y148647D01*
X790737Y148620D01*
X790730Y148595D01*
X790703Y148264D01*
X790703Y147680D01*
X790603Y147441D01*
X790594Y147411D01*
X790580Y147383D01*
X790536Y147218D01*
X790487Y147055D01*
X790484Y147024D01*
X790476Y146994D01*
X790449Y146663D01*
X790449Y116150D01*
X790451Y116124D01*
X790449Y116097D01*
X790471Y115923D01*
X790489Y115750D01*
X790497Y115724D01*
X790500Y115697D01*
X790556Y115532D01*
X790607Y115365D01*
X790620Y115341D01*
X790628Y115316D01*
X790715Y115164D01*
X790799Y115011D01*
X790816Y114990D01*
X790829Y114967D01*
X791044Y114714D01*
X791116Y114642D01*
X791137Y114625D01*
X791154Y114604D01*
X791292Y114497D01*
X791427Y114387D01*
X791451Y114374D01*
X791472Y114358D01*
X791629Y114280D01*
X791783Y114198D01*
X791809Y114190D01*
X791833Y114178D01*
X792002Y114133D01*
X792169Y114083D01*
X792196Y114081D01*
X792221Y114074D01*
X792552Y114047D01*
X830971Y114047D01*
X830975Y114047D01*
X830980Y114047D01*
X831175Y114067D01*
X831372Y114087D01*
X831376Y114088D01*
X831380Y114088D01*
X831569Y114147D01*
X831757Y114205D01*
X831760Y114207D01*
X831765Y114208D01*
X831936Y114302D01*
X832111Y114397D01*
X832114Y114399D01*
X832118Y114401D01*
X832268Y114528D01*
X832420Y114654D01*
X832423Y114658D01*
X832426Y114661D01*
X832550Y114816D01*
X832672Y114968D01*
X832674Y114972D01*
X832677Y114975D01*
X832769Y115154D01*
X832858Y115325D01*
X832859Y115329D01*
X832861Y115334D01*
X832915Y115526D01*
X832969Y115712D01*
X832969Y115717D01*
X832971Y115721D01*
X833002Y116051D01*
X833372Y144148D01*
X833368Y144188D01*
X833371Y144228D01*
X833351Y144389D01*
X833337Y144550D01*
X833326Y144588D01*
X833321Y144628D01*
X833269Y144781D01*
X833224Y144936D01*
X833205Y144971D01*
X833193Y145010D01*
X833112Y145150D01*
X833037Y145292D01*
X833012Y145324D01*
X832992Y145358D01*
X832804Y145580D01*
X832783Y145605D01*
X832780Y145608D01*
X832777Y145611D01*
X831631Y146757D01*
X831631Y173283D01*
X833200Y174851D01*
X833208Y174861D01*
X833218Y174870D01*
X833336Y175017D01*
X833455Y175163D01*
X833461Y175174D01*
X833469Y175185D01*
X833556Y175353D01*
X833643Y175518D01*
X833647Y175531D01*
X833653Y175543D01*
X833705Y175724D01*
X833758Y175904D01*
X833759Y175918D01*
X833763Y175930D01*
X833794Y176261D01*
X834697Y244891D01*
X834682Y245067D01*
X834671Y245244D01*
X834665Y245268D01*
X834663Y245292D01*
X834613Y245461D01*
X834567Y245633D01*
X834556Y245658D01*
X834550Y245678D01*
X834512Y245750D01*
X834425Y245933D01*
X831605Y250817D01*
X828801Y261283D01*
X828801Y272117D01*
X831605Y282583D01*
X835012Y288483D01*
X835074Y288620D01*
X835143Y288754D01*
X835157Y288803D01*
X835178Y288850D01*
X835211Y288996D01*
X835252Y289142D01*
X835258Y289199D01*
X835268Y289242D01*
X835270Y289328D01*
X835284Y289472D01*
X836098Y351367D01*
X836096Y351398D01*
X836098Y351430D01*
X836078Y351599D01*
X836064Y351768D01*
X836055Y351798D01*
X836051Y351829D01*
X835998Y351992D01*
X835951Y352155D01*
X835936Y352182D01*
X835926Y352212D01*
X835842Y352361D01*
X835764Y352511D01*
X835744Y352536D01*
X835729Y352563D01*
X835617Y352692D01*
X835510Y352824D01*
X835486Y352844D01*
X835465Y352868D01*
X835331Y352972D01*
X835200Y353080D01*
X835172Y353095D01*
X835147Y353114D01*
X834994Y353190D01*
X834845Y353271D01*
X834828Y353276D01*
X832892Y355211D01*
X832892Y381737D01*
X834696Y383541D01*
X834721Y383543D01*
X834917Y383563D01*
X834922Y383564D01*
X834926Y383564D01*
X835114Y383623D01*
X835302Y383681D01*
X835306Y383683D01*
X835310Y383684D01*
X835481Y383778D01*
X835656Y383873D01*
X835660Y383875D01*
X835664Y383878D01*
X835814Y384004D01*
X835966Y384130D01*
X835968Y384134D01*
X835972Y384137D01*
X836095Y384292D01*
X836218Y384444D01*
X836220Y384448D01*
X836223Y384451D01*
X836313Y384628D01*
X836403Y384801D01*
X836405Y384806D01*
X836407Y384810D01*
X836460Y384998D01*
X836515Y385188D01*
X836515Y385193D01*
X836516Y385197D01*
X836548Y385527D01*
X836982Y418532D01*
X836979Y418563D01*
X836982Y418594D01*
X836962Y418764D01*
X836947Y418933D01*
X836939Y418963D01*
X836935Y418994D01*
X836882Y419156D01*
X836834Y419319D01*
X836820Y419347D01*
X836810Y419377D01*
X836726Y419525D01*
X836647Y419676D01*
X836628Y419700D01*
X836612Y419727D01*
X836501Y419856D01*
X836394Y419989D01*
X836370Y420008D01*
X836349Y420032D01*
X836215Y420136D01*
X836083Y420245D01*
X836056Y420260D01*
X836031Y420279D01*
X835878Y420355D01*
X835728Y420435D01*
X835699Y420444D01*
X835671Y420458D01*
X835505Y420503D01*
X835343Y420552D01*
X835312Y420555D01*
X835282Y420563D01*
X834951Y420590D01*
X834598Y420590D01*
X832812Y422376D01*
X832812Y448901D01*
X834598Y450687D01*
X835400Y450687D01*
X835405Y450688D01*
X835409Y450687D01*
X835605Y450708D01*
X835801Y450727D01*
X835805Y450729D01*
X835810Y450729D01*
X835998Y450788D01*
X836186Y450845D01*
X836190Y450847D01*
X836194Y450849D01*
X836365Y450942D01*
X836540Y451037D01*
X836543Y451040D01*
X836547Y451042D01*
X836698Y451169D01*
X836849Y451295D01*
X836852Y451298D01*
X836855Y451301D01*
X836979Y451456D01*
X837102Y451609D01*
X837104Y451613D01*
X837106Y451616D01*
X837198Y451795D01*
X837287Y451966D01*
X837288Y451970D01*
X837290Y451974D01*
X837345Y452166D01*
X837399Y452353D01*
X837399Y452357D01*
X837400Y452362D01*
X837432Y452692D01*
X838217Y512421D01*
X838214Y512461D01*
X838217Y512501D01*
X838197Y512662D01*
X838183Y512822D01*
X838172Y512861D01*
X838167Y512901D01*
X838115Y513054D01*
X838070Y513209D01*
X838051Y513244D01*
X838038Y513282D01*
X837958Y513423D01*
X837883Y513565D01*
X837857Y513596D01*
X837837Y513631D01*
X837649Y513853D01*
X837629Y513878D01*
X837626Y513880D01*
X837623Y513884D01*
X837023Y514484D01*
X831605Y523867D01*
X828801Y534333D01*
X828801Y545167D01*
X831605Y555633D01*
X837023Y565016D01*
X838351Y566344D01*
X838359Y566354D01*
X838369Y566363D01*
X838487Y566511D01*
X838606Y566655D01*
X838612Y566667D01*
X838620Y566678D01*
X838706Y566845D01*
X838794Y567011D01*
X838798Y567024D01*
X838804Y567036D01*
X838856Y567216D01*
X838909Y567397D01*
X838910Y567410D01*
X838914Y567423D01*
X838946Y567753D01*
X838964Y569190D01*
X838962Y569221D01*
X838964Y569252D01*
X838944Y569421D01*
X838930Y569591D01*
X838921Y569621D01*
X838917Y569652D01*
X838864Y569814D01*
X838817Y569977D01*
X838802Y570005D01*
X838793Y570035D01*
X838709Y570183D01*
X838630Y570334D01*
X838610Y570358D01*
X838595Y570385D01*
X838483Y570514D01*
X838376Y570647D01*
X838352Y570666D01*
X838331Y570690D01*
X838197Y570794D01*
X838066Y570903D01*
X838038Y570918D01*
X838013Y570937D01*
X837861Y571013D01*
X837711Y571093D01*
X837681Y571102D01*
X837653Y571116D01*
X837488Y571160D01*
X837325Y571210D01*
X837294Y571213D01*
X837264Y571221D01*
X836933Y571248D01*
X820756Y571248D01*
X818970Y573034D01*
X818970Y599559D01*
X820756Y601345D01*
X837383Y601345D01*
X837387Y601346D01*
X837392Y601345D01*
X837587Y601366D01*
X837783Y601385D01*
X837788Y601386D01*
X837792Y601387D01*
X837980Y601446D01*
X838168Y601503D01*
X838172Y601505D01*
X838176Y601507D01*
X838348Y601600D01*
X838522Y601695D01*
X838526Y601698D01*
X838530Y601700D01*
X838680Y601826D01*
X838832Y601953D01*
X838834Y601956D01*
X838838Y601959D01*
X838961Y602114D01*
X839084Y602267D01*
X839086Y602270D01*
X839089Y602274D01*
X839181Y602453D01*
X839269Y602624D01*
X839271Y602628D01*
X839273Y602632D01*
X839327Y602824D01*
X839381Y603011D01*
X839381Y603015D01*
X839382Y603019D01*
X839414Y603350D01*
X839543Y613190D01*
X839541Y613221D01*
X839543Y613252D01*
X839523Y613421D01*
X839509Y613591D01*
X839500Y613621D01*
X839496Y613652D01*
X839443Y613814D01*
X839396Y613977D01*
X839381Y614005D01*
X839371Y614035D01*
X839288Y614183D01*
X839209Y614334D01*
X839189Y614358D01*
X839174Y614385D01*
X839062Y614514D01*
X838955Y614647D01*
X838931Y614666D01*
X838910Y614690D01*
X838776Y614794D01*
X838645Y614903D01*
X838617Y614918D01*
X838592Y614937D01*
X838440Y615013D01*
X838290Y615093D01*
X838260Y615102D01*
X838232Y615116D01*
X838067Y615161D01*
X837904Y615210D01*
X837873Y615213D01*
X837843Y615221D01*
X837512Y615248D01*
X820756Y615248D01*
X818970Y617034D01*
X818970Y643559D01*
X820756Y645345D01*
X847282Y645345D01*
X849068Y643559D01*
X849068Y642620D01*
X849069Y642602D01*
X849068Y642584D01*
X849089Y642402D01*
X849108Y642219D01*
X849113Y642202D01*
X849115Y642185D01*
X849172Y642010D01*
X849226Y641834D01*
X849234Y641819D01*
X849240Y641802D01*
X849330Y641642D01*
X849417Y641480D01*
X849429Y641467D01*
X849438Y641451D01*
X849558Y641312D01*
X849675Y641171D01*
X849689Y641160D01*
X849701Y641147D01*
X849846Y641034D01*
X849989Y640919D01*
X850005Y640911D01*
X850019Y640900D01*
X850184Y640818D01*
X850346Y640733D01*
X850363Y640728D01*
X850379Y640720D01*
X850557Y640673D01*
X850733Y640622D01*
X850751Y640620D01*
X850768Y640616D01*
X851099Y640589D01*
X901338Y640589D01*
X901363Y640591D01*
X901389Y640589D01*
X901563Y640611D01*
X901738Y640629D01*
X901763Y640636D01*
X901788Y640639D01*
X901955Y640695D01*
X902123Y640747D01*
X902146Y640759D01*
X902170Y640767D01*
X902323Y640855D01*
X902477Y640939D01*
X902497Y640955D01*
X902519Y640968D01*
X902652Y641084D01*
X902787Y641196D01*
X902803Y641216D01*
X902822Y641233D01*
X902929Y641373D01*
X903039Y641510D01*
X903051Y641533D01*
X903066Y641553D01*
X903144Y641712D01*
X903224Y641867D01*
X903231Y641892D01*
X903243Y641915D01*
X903287Y642086D01*
X903336Y642254D01*
X903338Y642280D01*
X903344Y642305D01*
X903354Y642480D01*
X903369Y642656D01*
X903366Y642681D01*
X903367Y642707D01*
X903342Y642881D01*
X903322Y643055D01*
X903314Y643080D01*
X903310Y643105D01*
X903251Y643271D01*
X903197Y643438D01*
X903184Y643461D01*
X903176Y643485D01*
X903085Y643636D01*
X902999Y643789D01*
X902982Y643808D01*
X902969Y643830D01*
X902750Y644080D01*
X851783Y693403D01*
X850035Y695094D01*
X849964Y695147D01*
X849900Y695208D01*
X849838Y695242D01*
X849781Y695285D01*
X849699Y695319D01*
X849621Y695362D01*
X849553Y695379D01*
X849487Y695406D01*
X849399Y695419D01*
X849313Y695441D01*
X849186Y695449D01*
X849172Y695451D01*
X849166Y695450D01*
X849153Y695451D01*
X156718Y695451D01*
X156600Y695436D01*
G37*
G36*
X116840Y75659D02*
X116840Y75659D01*
X116958Y75674D01*
X117077Y75681D01*
X117115Y75694D01*
X117156Y75699D01*
X117266Y75742D01*
X117379Y75779D01*
X117414Y75801D01*
X117451Y75816D01*
X117547Y75885D01*
X117648Y75949D01*
X117676Y75979D01*
X117709Y76002D01*
X117785Y76094D01*
X117866Y76181D01*
X117886Y76216D01*
X117911Y76247D01*
X117962Y76355D01*
X118020Y76459D01*
X118030Y76499D01*
X118047Y76535D01*
X118069Y76652D01*
X118099Y76767D01*
X118103Y76827D01*
X118107Y76847D01*
X118105Y76868D01*
X118109Y76928D01*
X118109Y114300D01*
X118094Y114418D01*
X118087Y114537D01*
X118074Y114575D01*
X118069Y114616D01*
X118026Y114726D01*
X117989Y114839D01*
X117967Y114874D01*
X117952Y114911D01*
X117883Y115007D01*
X117819Y115108D01*
X117789Y115136D01*
X117766Y115169D01*
X117674Y115245D01*
X117587Y115326D01*
X117552Y115346D01*
X117521Y115371D01*
X117413Y115422D01*
X117309Y115480D01*
X117269Y115490D01*
X117233Y115507D01*
X117116Y115529D01*
X117001Y115559D01*
X116941Y115563D01*
X116921Y115567D01*
X116900Y115565D01*
X116840Y115569D01*
X91162Y115569D01*
X91064Y115557D01*
X90965Y115554D01*
X90907Y115537D01*
X90847Y115529D01*
X90755Y115493D01*
X90659Y115465D01*
X90607Y115435D01*
X90551Y115412D01*
X90471Y115354D01*
X90386Y115304D01*
X90310Y115238D01*
X90294Y115226D01*
X90286Y115216D01*
X90265Y115198D01*
X89113Y114045D01*
X54722Y114045D01*
X53570Y115198D01*
X53492Y115258D01*
X53420Y115326D01*
X53367Y115355D01*
X53319Y115392D01*
X53228Y115432D01*
X53141Y115480D01*
X53083Y115495D01*
X53027Y115519D01*
X52929Y115534D01*
X52833Y115559D01*
X52733Y115565D01*
X52713Y115569D01*
X52701Y115567D01*
X52673Y115569D01*
X29209Y115569D01*
X29209Y118594D01*
X29197Y118692D01*
X29194Y118791D01*
X29177Y118849D01*
X29169Y118909D01*
X29133Y119001D01*
X29105Y119097D01*
X29075Y119149D01*
X29052Y119205D01*
X28994Y119285D01*
X28944Y119371D01*
X28878Y119446D01*
X28866Y119463D01*
X28856Y119470D01*
X28837Y119491D01*
X28424Y119905D01*
X28424Y133168D01*
X28837Y133582D01*
X28898Y133660D01*
X28966Y133733D01*
X28995Y133786D01*
X29032Y133833D01*
X29072Y133924D01*
X29120Y134011D01*
X29135Y134070D01*
X29159Y134125D01*
X29174Y134223D01*
X29199Y134319D01*
X29205Y134419D01*
X29209Y134439D01*
X29207Y134452D01*
X29209Y134480D01*
X29209Y139179D01*
X29197Y139277D01*
X29194Y139376D01*
X29177Y139434D01*
X29169Y139494D01*
X29145Y139555D01*
X29145Y165236D01*
X29159Y165267D01*
X29174Y165365D01*
X29199Y165461D01*
X29205Y165561D01*
X29209Y165581D01*
X29207Y165593D01*
X29209Y165621D01*
X29209Y184152D01*
X41722Y184167D01*
X41819Y184179D01*
X41918Y184182D01*
X41977Y184199D01*
X42037Y184207D01*
X42129Y184243D01*
X42223Y184271D01*
X42276Y184302D01*
X42333Y184324D01*
X42412Y184382D01*
X42497Y184432D01*
X42574Y184500D01*
X42590Y184512D01*
X42598Y184521D01*
X42618Y184539D01*
X43405Y185325D01*
X52668Y185325D01*
X53440Y184553D01*
X53518Y184492D01*
X53591Y184424D01*
X53644Y184395D01*
X53691Y184358D01*
X53783Y184319D01*
X53870Y184271D01*
X53928Y184256D01*
X53983Y184232D01*
X54082Y184216D01*
X54178Y184192D01*
X54276Y184186D01*
X54297Y184182D01*
X54310Y184183D01*
X54339Y184182D01*
X58594Y184187D01*
X58698Y184200D01*
X58803Y184204D01*
X58855Y184220D01*
X58909Y184227D01*
X59007Y184266D01*
X59107Y184296D01*
X59154Y184324D01*
X59205Y184344D01*
X59290Y184406D01*
X59380Y184460D01*
X59418Y184499D01*
X59462Y184531D01*
X59529Y184612D01*
X59602Y184687D01*
X59651Y184760D01*
X59665Y184777D01*
X59671Y184790D01*
X59692Y184821D01*
X60003Y185361D01*
X60476Y185834D01*
X61055Y186168D01*
X61289Y186231D01*
X61393Y186273D01*
X61499Y186308D01*
X61539Y186333D01*
X61583Y186351D01*
X61673Y186418D01*
X61768Y186478D01*
X61800Y186512D01*
X61838Y186540D01*
X61909Y186628D01*
X61986Y186710D01*
X62009Y186751D01*
X62039Y186788D01*
X62085Y186890D01*
X62140Y186988D01*
X62151Y187034D01*
X62171Y187077D01*
X62191Y187187D01*
X62219Y187296D01*
X62224Y187368D01*
X62227Y187390D01*
X62226Y187408D01*
X62229Y187457D01*
X62229Y251206D01*
X62214Y251324D01*
X62207Y251443D01*
X62194Y251481D01*
X62189Y251522D01*
X62146Y251632D01*
X62109Y251745D01*
X62087Y251780D01*
X62072Y251817D01*
X62003Y251913D01*
X61939Y252014D01*
X61909Y252042D01*
X61886Y252075D01*
X61794Y252151D01*
X61707Y252232D01*
X61672Y252252D01*
X61641Y252277D01*
X61533Y252328D01*
X61429Y252386D01*
X61389Y252396D01*
X61353Y252413D01*
X61236Y252435D01*
X61121Y252465D01*
X61061Y252469D01*
X61041Y252473D01*
X61020Y252471D01*
X60960Y252475D01*
X2794Y252475D01*
X2676Y252460D01*
X2557Y252453D01*
X2519Y252440D01*
X2478Y252435D01*
X2368Y252392D01*
X2255Y252355D01*
X2220Y252333D01*
X2183Y252318D01*
X2087Y252249D01*
X1986Y252185D01*
X1958Y252155D01*
X1925Y252132D01*
X1849Y252040D01*
X1768Y251953D01*
X1748Y251918D01*
X1723Y251887D01*
X1672Y251779D01*
X1614Y251675D01*
X1604Y251635D01*
X1587Y251599D01*
X1565Y251482D01*
X1535Y251367D01*
X1531Y251307D01*
X1527Y251287D01*
X1529Y251266D01*
X1525Y251206D01*
X1525Y77357D01*
X1537Y77259D01*
X1540Y77160D01*
X1557Y77102D01*
X1565Y77042D01*
X1601Y76950D01*
X1629Y76855D01*
X1659Y76802D01*
X1682Y76746D01*
X1740Y76666D01*
X1790Y76581D01*
X1856Y76505D01*
X1868Y76489D01*
X1878Y76481D01*
X1896Y76460D01*
X2326Y76030D01*
X2404Y75970D01*
X2476Y75902D01*
X2529Y75873D01*
X2577Y75836D01*
X2668Y75796D01*
X2755Y75748D01*
X2813Y75733D01*
X2869Y75709D01*
X2967Y75694D01*
X3063Y75669D01*
X3163Y75663D01*
X3183Y75659D01*
X3195Y75660D01*
X3223Y75659D01*
X116840Y75659D01*
G37*
G36*
X180458Y250206D02*
X180458Y250206D01*
X180577Y250213D01*
X180615Y250226D01*
X180656Y250231D01*
X180766Y250274D01*
X180879Y250311D01*
X180914Y250333D01*
X180951Y250348D01*
X181047Y250418D01*
X181148Y250481D01*
X181176Y250511D01*
X181209Y250534D01*
X181285Y250626D01*
X181366Y250713D01*
X181386Y250748D01*
X181411Y250779D01*
X181462Y250887D01*
X181520Y250991D01*
X181530Y251031D01*
X181547Y251067D01*
X181569Y251184D01*
X181599Y251299D01*
X181603Y251360D01*
X181607Y251380D01*
X181605Y251400D01*
X181609Y251460D01*
X181609Y341631D01*
X203200Y341631D01*
X203298Y341643D01*
X203397Y341646D01*
X203455Y341663D01*
X203516Y341671D01*
X203608Y341707D01*
X203703Y341735D01*
X203755Y341765D01*
X203811Y341788D01*
X203891Y341846D01*
X203977Y341896D01*
X204052Y341962D01*
X204069Y341974D01*
X204076Y341984D01*
X204098Y342003D01*
X216798Y354703D01*
X216858Y354781D01*
X216926Y354853D01*
X216955Y354906D01*
X216992Y354954D01*
X217032Y355045D01*
X217080Y355131D01*
X217095Y355190D01*
X217119Y355246D01*
X217134Y355344D01*
X217159Y355439D01*
X217165Y355539D01*
X217169Y355560D01*
X217167Y355572D01*
X217169Y355600D01*
X217169Y373380D01*
X217161Y373445D01*
X217163Y373510D01*
X217141Y373602D01*
X217129Y373696D01*
X217106Y373756D01*
X217091Y373819D01*
X217047Y373903D01*
X217012Y373991D01*
X216974Y374044D01*
X216944Y374102D01*
X216881Y374172D01*
X216826Y374249D01*
X216776Y374290D01*
X216732Y374338D01*
X216604Y374436D01*
X201364Y384596D01*
X201245Y384656D01*
X201129Y384720D01*
X201103Y384726D01*
X201079Y384738D01*
X200949Y384766D01*
X200821Y384799D01*
X200783Y384801D01*
X200768Y384805D01*
X200747Y384804D01*
X200660Y384809D01*
X155194Y384809D01*
X155076Y384794D01*
X154957Y384787D01*
X154919Y384774D01*
X154878Y384769D01*
X154768Y384726D01*
X154655Y384689D01*
X154620Y384667D01*
X154583Y384652D01*
X154487Y384583D01*
X154386Y384519D01*
X154358Y384489D01*
X154325Y384466D01*
X154249Y384374D01*
X154168Y384287D01*
X154148Y384252D01*
X154123Y384221D01*
X154072Y384113D01*
X154014Y384009D01*
X154004Y383969D01*
X153987Y383933D01*
X153965Y383816D01*
X153935Y383701D01*
X153931Y383641D01*
X153927Y383621D01*
X153929Y383600D01*
X153925Y383540D01*
X153925Y283848D01*
X153032Y282955D01*
X104394Y282955D01*
X104276Y282940D01*
X104157Y282933D01*
X104119Y282920D01*
X104078Y282915D01*
X103968Y282872D01*
X103855Y282835D01*
X103820Y282813D01*
X103783Y282798D01*
X103687Y282729D01*
X103586Y282665D01*
X103558Y282635D01*
X103525Y282612D01*
X103449Y282520D01*
X103368Y282433D01*
X103348Y282398D01*
X103323Y282367D01*
X103272Y282259D01*
X103214Y282155D01*
X103204Y282115D01*
X103187Y282079D01*
X103165Y281962D01*
X103135Y281847D01*
X103131Y281787D01*
X103127Y281767D01*
X103129Y281746D01*
X103125Y281686D01*
X103125Y253368D01*
X102114Y252358D01*
X102029Y252248D01*
X101940Y252141D01*
X101931Y252122D01*
X101919Y252106D01*
X101864Y251979D01*
X101804Y251853D01*
X101801Y251833D01*
X101793Y251814D01*
X101771Y251676D01*
X101745Y251541D01*
X101746Y251520D01*
X101743Y251500D01*
X101756Y251361D01*
X101764Y251223D01*
X101771Y251204D01*
X101772Y251184D01*
X101820Y251052D01*
X101862Y250921D01*
X101873Y250903D01*
X101880Y250884D01*
X101958Y250769D01*
X102033Y250652D01*
X102047Y250638D01*
X102059Y250621D01*
X102163Y250529D01*
X102264Y250434D01*
X102282Y250424D01*
X102297Y250411D01*
X102421Y250347D01*
X102543Y250280D01*
X102562Y250275D01*
X102580Y250266D01*
X102716Y250236D01*
X102851Y250201D01*
X102879Y250199D01*
X102891Y250197D01*
X102911Y250197D01*
X103011Y250191D01*
X180340Y250191D01*
X180458Y250206D01*
G37*
G36*
X77536Y189246D02*
X77536Y189246D01*
X77655Y189253D01*
X77693Y189266D01*
X77733Y189271D01*
X77844Y189314D01*
X77957Y189351D01*
X77991Y189373D01*
X78029Y189388D01*
X78125Y189458D01*
X78226Y189521D01*
X78254Y189551D01*
X78286Y189574D01*
X78362Y189666D01*
X78444Y189753D01*
X78463Y189788D01*
X78489Y189819D01*
X78540Y189927D01*
X78597Y190031D01*
X78608Y190071D01*
X78625Y190107D01*
X78647Y190224D01*
X78677Y190339D01*
X78681Y190400D01*
X78685Y190420D01*
X78683Y190440D01*
X78687Y190500D01*
X78687Y198064D01*
X79580Y198957D01*
X96083Y198957D01*
X96728Y198312D01*
X96806Y198252D01*
X96878Y198184D01*
X96931Y198155D01*
X96979Y198118D01*
X97070Y198078D01*
X97157Y198030D01*
X97215Y198015D01*
X97271Y197991D01*
X97369Y197976D01*
X97464Y197951D01*
X97565Y197945D01*
X97585Y197941D01*
X97597Y197943D01*
X97625Y197941D01*
X113284Y197941D01*
X113402Y197956D01*
X113521Y197963D01*
X113559Y197976D01*
X113600Y197981D01*
X113710Y198024D01*
X113823Y198061D01*
X113858Y198083D01*
X113895Y198098D01*
X113991Y198167D01*
X114092Y198231D01*
X114120Y198261D01*
X114153Y198284D01*
X114229Y198376D01*
X114310Y198463D01*
X114330Y198498D01*
X114355Y198529D01*
X114406Y198637D01*
X114464Y198741D01*
X114474Y198781D01*
X114491Y198817D01*
X114513Y198934D01*
X114543Y199049D01*
X114547Y199109D01*
X114551Y199129D01*
X114549Y199150D01*
X114553Y199210D01*
X114553Y201535D01*
X114541Y201633D01*
X114538Y201732D01*
X114521Y201790D01*
X114513Y201850D01*
X114477Y201942D01*
X114449Y202037D01*
X114419Y202090D01*
X114396Y202146D01*
X114338Y202226D01*
X114288Y202311D01*
X114222Y202387D01*
X114210Y202403D01*
X114200Y202411D01*
X114181Y202432D01*
X113537Y203076D01*
X113537Y219580D01*
X114430Y220473D01*
X121790Y220473D01*
X122683Y219580D01*
X122683Y203076D01*
X122039Y202432D01*
X121978Y202354D01*
X121910Y202282D01*
X121881Y202229D01*
X121844Y202181D01*
X121804Y202090D01*
X121756Y202003D01*
X121741Y201945D01*
X121717Y201889D01*
X121702Y201791D01*
X121677Y201695D01*
X121671Y201595D01*
X121667Y201575D01*
X121669Y201563D01*
X121667Y201535D01*
X121667Y196383D01*
X121679Y196285D01*
X121682Y196186D01*
X121699Y196128D01*
X121707Y196067D01*
X121743Y195975D01*
X121771Y195880D01*
X121801Y195828D01*
X121824Y195772D01*
X121882Y195692D01*
X121932Y195606D01*
X121998Y195531D01*
X122010Y195514D01*
X122020Y195507D01*
X122038Y195485D01*
X127921Y189603D01*
X128000Y189542D01*
X128072Y189474D01*
X128125Y189445D01*
X128173Y189408D01*
X128264Y189368D01*
X128350Y189320D01*
X128409Y189305D01*
X128465Y189281D01*
X128563Y189266D01*
X128658Y189241D01*
X128758Y189235D01*
X128779Y189231D01*
X128791Y189233D01*
X128819Y189231D01*
X170180Y189231D01*
X170298Y189246D01*
X170417Y189253D01*
X170455Y189266D01*
X170496Y189271D01*
X170606Y189314D01*
X170719Y189351D01*
X170754Y189373D01*
X170791Y189388D01*
X170887Y189458D01*
X170988Y189521D01*
X171016Y189551D01*
X171049Y189574D01*
X171125Y189666D01*
X171206Y189753D01*
X171226Y189788D01*
X171251Y189819D01*
X171302Y189927D01*
X171360Y190031D01*
X171370Y190071D01*
X171387Y190107D01*
X171409Y190224D01*
X171439Y190339D01*
X171443Y190400D01*
X171447Y190420D01*
X171445Y190440D01*
X171449Y190500D01*
X171449Y246380D01*
X171434Y246498D01*
X171427Y246617D01*
X171414Y246655D01*
X171409Y246696D01*
X171366Y246806D01*
X171329Y246919D01*
X171307Y246954D01*
X171292Y246991D01*
X171223Y247087D01*
X171159Y247188D01*
X171129Y247216D01*
X171106Y247249D01*
X171014Y247325D01*
X170927Y247406D01*
X170892Y247426D01*
X170861Y247451D01*
X170753Y247502D01*
X170649Y247560D01*
X170609Y247570D01*
X170573Y247587D01*
X170456Y247609D01*
X170341Y247639D01*
X170281Y247643D01*
X170261Y247647D01*
X170240Y247645D01*
X170180Y247649D01*
X68580Y247649D01*
X68462Y247634D01*
X68343Y247627D01*
X68305Y247614D01*
X68264Y247609D01*
X68154Y247566D01*
X68041Y247529D01*
X68006Y247507D01*
X67969Y247492D01*
X67873Y247423D01*
X67772Y247359D01*
X67744Y247329D01*
X67711Y247306D01*
X67636Y247214D01*
X67554Y247127D01*
X67534Y247092D01*
X67509Y247061D01*
X67458Y246953D01*
X67400Y246849D01*
X67390Y246809D01*
X67373Y246773D01*
X67351Y246656D01*
X67321Y246541D01*
X67317Y246481D01*
X67313Y246461D01*
X67315Y246440D01*
X67314Y246431D01*
X67313Y246428D01*
X67314Y246424D01*
X67311Y246380D01*
X67311Y190500D01*
X67326Y190382D01*
X67333Y190263D01*
X67346Y190225D01*
X67351Y190184D01*
X67394Y190074D01*
X67431Y189961D01*
X67453Y189926D01*
X67468Y189889D01*
X67538Y189793D01*
X67601Y189692D01*
X67631Y189664D01*
X67654Y189631D01*
X67746Y189556D01*
X67833Y189474D01*
X67868Y189454D01*
X67899Y189429D01*
X68007Y189378D01*
X68111Y189320D01*
X68151Y189310D01*
X68187Y189293D01*
X68304Y189271D01*
X68419Y189241D01*
X68480Y189237D01*
X68500Y189233D01*
X68520Y189235D01*
X68580Y189231D01*
X77418Y189231D01*
X77536Y189246D01*
G37*
G36*
X58694Y46807D02*
X58694Y46807D01*
X58810Y46822D01*
X58926Y46830D01*
X58967Y46843D01*
X59009Y46848D01*
X59118Y46891D01*
X59229Y46928D01*
X59265Y46950D01*
X59304Y46966D01*
X59399Y47035D01*
X59498Y47098D01*
X59527Y47129D01*
X59561Y47154D01*
X59635Y47244D01*
X59716Y47329D01*
X59736Y47367D01*
X59763Y47399D01*
X59813Y47505D01*
X59869Y47608D01*
X59880Y47649D01*
X59898Y47687D01*
X59919Y47803D01*
X59949Y47916D01*
X59953Y47979D01*
X59957Y48000D01*
X59955Y48020D01*
X59959Y48076D01*
X59959Y49135D01*
X67769Y49135D01*
X67888Y49150D01*
X68006Y49157D01*
X68045Y49170D01*
X68085Y49175D01*
X68196Y49219D01*
X68309Y49255D01*
X68343Y49277D01*
X68381Y49292D01*
X68477Y49362D01*
X68493Y49372D01*
X68518Y49359D01*
X68549Y49333D01*
X68657Y49282D01*
X68761Y49225D01*
X68800Y49215D01*
X68837Y49197D01*
X68954Y49175D01*
X69069Y49145D01*
X69129Y49142D01*
X69149Y49138D01*
X69170Y49139D01*
X69230Y49135D01*
X77040Y49135D01*
X77040Y48138D01*
X77055Y48018D01*
X77063Y47898D01*
X77075Y47861D01*
X77080Y47823D01*
X77125Y47711D01*
X77162Y47595D01*
X77183Y47563D01*
X77197Y47527D01*
X77268Y47429D01*
X77333Y47327D01*
X77361Y47301D01*
X77384Y47270D01*
X77477Y47193D01*
X77566Y47110D01*
X77599Y47092D01*
X77629Y47067D01*
X77738Y47015D01*
X77845Y46957D01*
X77882Y46948D01*
X77917Y46932D01*
X78035Y46909D01*
X78153Y46879D01*
X78210Y46875D01*
X78229Y46872D01*
X78250Y46873D01*
X78314Y46869D01*
X81393Y46879D01*
X81509Y46894D01*
X81626Y46901D01*
X81666Y46914D01*
X81708Y46920D01*
X81817Y46963D01*
X81928Y46999D01*
X81964Y47022D01*
X82003Y47038D01*
X82098Y47107D01*
X82197Y47169D01*
X82226Y47200D01*
X82260Y47225D01*
X82334Y47316D01*
X82415Y47401D01*
X82435Y47438D01*
X82462Y47471D01*
X82512Y47577D01*
X82568Y47679D01*
X82579Y47721D01*
X82597Y47759D01*
X82619Y47874D01*
X82648Y47987D01*
X82652Y48051D01*
X82656Y48072D01*
X82654Y48091D01*
X82658Y48148D01*
X82658Y49135D01*
X90469Y49135D01*
X90587Y49150D01*
X90705Y49157D01*
X90744Y49170D01*
X90784Y49175D01*
X90895Y49219D01*
X91008Y49255D01*
X91042Y49277D01*
X91080Y49292D01*
X91176Y49362D01*
X91193Y49372D01*
X91217Y49359D01*
X91248Y49333D01*
X91356Y49282D01*
X91460Y49225D01*
X91500Y49215D01*
X91536Y49197D01*
X91653Y49175D01*
X91768Y49145D01*
X91828Y49142D01*
X91848Y49138D01*
X91869Y49139D01*
X91929Y49135D01*
X99739Y49135D01*
X99739Y48210D01*
X99755Y48090D01*
X99762Y47969D01*
X99774Y47933D01*
X99779Y47895D01*
X99824Y47782D01*
X99861Y47667D01*
X99882Y47635D01*
X99896Y47599D01*
X99967Y47501D01*
X100032Y47399D01*
X100061Y47373D01*
X100083Y47341D01*
X100176Y47264D01*
X100265Y47182D01*
X100299Y47163D01*
X100328Y47139D01*
X100437Y47087D01*
X100544Y47029D01*
X100581Y47019D01*
X100616Y47003D01*
X100734Y46980D01*
X100852Y46951D01*
X100909Y46947D01*
X100928Y46943D01*
X100949Y46945D01*
X101013Y46941D01*
X154944Y47111D01*
X155060Y47126D01*
X155177Y47133D01*
X155217Y47146D01*
X155259Y47152D01*
X155368Y47195D01*
X155479Y47231D01*
X155515Y47254D01*
X155555Y47270D01*
X155649Y47339D01*
X155748Y47401D01*
X155777Y47432D01*
X155811Y47457D01*
X155886Y47548D01*
X155966Y47633D01*
X155987Y47670D01*
X156014Y47703D01*
X156063Y47809D01*
X156120Y47912D01*
X156130Y47953D01*
X156148Y47991D01*
X156170Y48106D01*
X156199Y48220D01*
X156203Y48283D01*
X156207Y48304D01*
X156206Y48324D01*
X156209Y48380D01*
X156209Y71120D01*
X156194Y71238D01*
X156187Y71357D01*
X156174Y71395D01*
X156169Y71436D01*
X156126Y71546D01*
X156089Y71659D01*
X156067Y71694D01*
X156052Y71731D01*
X155983Y71827D01*
X155919Y71928D01*
X155889Y71956D01*
X155866Y71989D01*
X155774Y72065D01*
X155687Y72146D01*
X155652Y72166D01*
X155621Y72191D01*
X155513Y72242D01*
X155409Y72300D01*
X155369Y72310D01*
X155333Y72327D01*
X155216Y72349D01*
X155101Y72379D01*
X155041Y72383D01*
X155021Y72387D01*
X155000Y72385D01*
X154940Y72389D01*
X101018Y72389D01*
X100900Y72374D01*
X100781Y72367D01*
X100743Y72354D01*
X100703Y72349D01*
X100592Y72306D01*
X100479Y72269D01*
X100445Y72247D01*
X100407Y72232D01*
X100311Y72163D01*
X100210Y72099D01*
X100182Y72069D01*
X100150Y72046D01*
X100074Y71954D01*
X99992Y71867D01*
X99973Y71832D01*
X99947Y71801D01*
X99896Y71693D01*
X99839Y71589D01*
X99829Y71549D01*
X99811Y71513D01*
X99789Y71396D01*
X99759Y71281D01*
X99755Y71221D01*
X99752Y71201D01*
X99753Y71180D01*
X99749Y71120D01*
X99749Y70358D01*
X91939Y70358D01*
X91820Y70343D01*
X91702Y70335D01*
X91663Y70323D01*
X91623Y70318D01*
X91512Y70274D01*
X91399Y70237D01*
X91365Y70216D01*
X91327Y70201D01*
X91231Y70131D01*
X91215Y70120D01*
X91190Y70134D01*
X91159Y70160D01*
X91051Y70210D01*
X90947Y70268D01*
X90908Y70278D01*
X90871Y70295D01*
X90754Y70318D01*
X90639Y70347D01*
X90579Y70351D01*
X90559Y70355D01*
X90538Y70354D01*
X90478Y70358D01*
X82668Y70358D01*
X82668Y71120D01*
X82653Y71238D01*
X82645Y71357D01*
X82633Y71395D01*
X82628Y71436D01*
X82584Y71546D01*
X82547Y71659D01*
X82526Y71694D01*
X82511Y71731D01*
X82441Y71827D01*
X82377Y71928D01*
X82348Y71956D01*
X82324Y71989D01*
X82232Y72065D01*
X82145Y72146D01*
X82110Y72166D01*
X82079Y72191D01*
X81971Y72242D01*
X81867Y72300D01*
X81828Y72310D01*
X81791Y72327D01*
X81674Y72349D01*
X81559Y72379D01*
X81499Y72383D01*
X81479Y72387D01*
X81459Y72385D01*
X81398Y72389D01*
X78274Y72389D01*
X78156Y72374D01*
X78037Y72367D01*
X77999Y72354D01*
X77959Y72349D01*
X77848Y72306D01*
X77735Y72269D01*
X77701Y72247D01*
X77663Y72232D01*
X77567Y72163D01*
X77466Y72099D01*
X77438Y72069D01*
X77406Y72046D01*
X77330Y71954D01*
X77248Y71867D01*
X77229Y71832D01*
X77203Y71801D01*
X77152Y71693D01*
X77095Y71589D01*
X77084Y71549D01*
X77067Y71513D01*
X77045Y71396D01*
X77015Y71281D01*
X77011Y71221D01*
X77007Y71201D01*
X77009Y71180D01*
X77005Y71120D01*
X77005Y70242D01*
X69194Y70242D01*
X69076Y70227D01*
X68957Y70220D01*
X68919Y70207D01*
X68879Y70202D01*
X68768Y70158D01*
X68655Y70121D01*
X68621Y70100D01*
X68583Y70085D01*
X68487Y70015D01*
X68470Y70005D01*
X68446Y70018D01*
X68415Y70044D01*
X68307Y70095D01*
X68203Y70152D01*
X68163Y70162D01*
X68127Y70179D01*
X68010Y70202D01*
X67895Y70232D01*
X67834Y70235D01*
X67814Y70239D01*
X67794Y70238D01*
X67734Y70242D01*
X59923Y70242D01*
X59923Y71120D01*
X59909Y71238D01*
X59901Y71357D01*
X59889Y71395D01*
X59884Y71436D01*
X59840Y71546D01*
X59803Y71659D01*
X59781Y71694D01*
X59767Y71731D01*
X59697Y71827D01*
X59633Y71928D01*
X59603Y71956D01*
X59580Y71989D01*
X59488Y72065D01*
X59401Y72146D01*
X59366Y72166D01*
X59335Y72191D01*
X59227Y72242D01*
X59123Y72300D01*
X59084Y72310D01*
X59047Y72327D01*
X58930Y72349D01*
X58815Y72379D01*
X58755Y72383D01*
X58735Y72387D01*
X58714Y72385D01*
X58654Y72389D01*
X9031Y72389D01*
X8894Y72372D01*
X8755Y72359D01*
X8736Y72352D01*
X8716Y72349D01*
X8587Y72298D01*
X8456Y72251D01*
X8439Y72240D01*
X8420Y72232D01*
X8308Y72151D01*
X8193Y72073D01*
X8179Y72057D01*
X8163Y72046D01*
X8074Y71938D01*
X7982Y71834D01*
X7973Y71816D01*
X7960Y71801D01*
X7901Y71675D01*
X7837Y71551D01*
X7833Y71531D01*
X7824Y71513D01*
X7798Y71377D01*
X7768Y71241D01*
X7768Y71220D01*
X7765Y71201D01*
X7773Y71062D01*
X7777Y70923D01*
X7783Y70903D01*
X7784Y70883D01*
X7827Y70751D01*
X7866Y70617D01*
X7876Y70600D01*
X7882Y70581D01*
X7957Y70463D01*
X8027Y70343D01*
X8046Y70322D01*
X8053Y70312D01*
X8067Y70298D01*
X8134Y70223D01*
X31261Y47095D01*
X31341Y47033D01*
X31415Y46964D01*
X31466Y46936D01*
X31512Y46900D01*
X31605Y46860D01*
X31694Y46812D01*
X31750Y46797D01*
X31804Y46774D01*
X31904Y46758D01*
X32002Y46733D01*
X32097Y46727D01*
X32118Y46724D01*
X32132Y46725D01*
X32163Y46724D01*
X58694Y46807D01*
G37*
G36*
X116958Y1540D02*
X116958Y1540D01*
X117077Y1547D01*
X117115Y1560D01*
X117156Y1565D01*
X117266Y1608D01*
X117379Y1645D01*
X117414Y1667D01*
X117451Y1682D01*
X117547Y1751D01*
X117648Y1815D01*
X117676Y1845D01*
X117709Y1868D01*
X117785Y1960D01*
X117866Y2047D01*
X117886Y2082D01*
X117911Y2113D01*
X117962Y2221D01*
X118020Y2325D01*
X118030Y2365D01*
X118047Y2401D01*
X118069Y2518D01*
X118099Y2633D01*
X118103Y2693D01*
X118107Y2713D01*
X118105Y2734D01*
X118109Y2794D01*
X118109Y41149D01*
X118094Y41267D01*
X118087Y41386D01*
X118074Y41425D01*
X118069Y41465D01*
X118026Y41576D01*
X117989Y41689D01*
X117967Y41723D01*
X117952Y41760D01*
X117883Y41857D01*
X117819Y41957D01*
X117789Y41985D01*
X117766Y42018D01*
X117674Y42094D01*
X117587Y42175D01*
X117552Y42195D01*
X117521Y42221D01*
X117413Y42271D01*
X117309Y42329D01*
X117269Y42339D01*
X117233Y42356D01*
X117116Y42378D01*
X117001Y42408D01*
X116941Y42412D01*
X116921Y42416D01*
X116900Y42415D01*
X116840Y42418D01*
X39002Y42418D01*
X38865Y42401D01*
X38726Y42388D01*
X38707Y42381D01*
X38687Y42379D01*
X38558Y42328D01*
X38426Y42280D01*
X38410Y42269D01*
X38391Y42262D01*
X38279Y42180D01*
X38163Y42102D01*
X38150Y42087D01*
X38134Y42075D01*
X38045Y41967D01*
X37953Y41863D01*
X37944Y41845D01*
X37931Y41830D01*
X37872Y41704D01*
X37808Y41580D01*
X37804Y41560D01*
X37795Y41542D01*
X37769Y41406D01*
X37739Y41270D01*
X37739Y41250D01*
X37735Y41230D01*
X37744Y41091D01*
X37748Y40952D01*
X37754Y40932D01*
X37755Y40912D01*
X37798Y40780D01*
X37837Y40647D01*
X37847Y40629D01*
X37853Y40610D01*
X37928Y40492D01*
X37998Y40373D01*
X38017Y40351D01*
X38023Y40341D01*
X38038Y40327D01*
X38105Y40252D01*
X76460Y1896D01*
X76538Y1836D01*
X76610Y1768D01*
X76663Y1739D01*
X76711Y1702D01*
X76802Y1662D01*
X76889Y1614D01*
X76947Y1599D01*
X77003Y1575D01*
X77101Y1560D01*
X77197Y1535D01*
X77297Y1529D01*
X77317Y1525D01*
X77329Y1527D01*
X77357Y1525D01*
X116840Y1525D01*
X116958Y1540D01*
G37*
%LPC*%
G36*
X807829Y666480D02*
X807829Y666480D01*
X804641Y667800D01*
X802201Y670240D01*
X800880Y673428D01*
X800880Y676879D01*
X802201Y680067D01*
X804641Y682507D01*
X807829Y683827D01*
X811279Y683827D01*
X814467Y682507D01*
X816907Y680067D01*
X818228Y676879D01*
X818228Y673428D01*
X816907Y670240D01*
X814467Y667800D01*
X811279Y666480D01*
X807829Y666480D01*
G37*
%LPD*%
%LPC*%
G36*
X262889Y367283D02*
X262889Y367283D01*
X262889Y379285D01*
X272684Y379285D01*
X273331Y379112D01*
X273910Y378777D01*
X274383Y378304D01*
X274718Y377725D01*
X274891Y377078D01*
X274891Y367283D01*
X262889Y367283D01*
G37*
%LPD*%
%LPC*%
G36*
X245809Y367283D02*
X245809Y367283D01*
X245809Y377078D01*
X245982Y377725D01*
X246317Y378304D01*
X246790Y378777D01*
X247369Y379112D01*
X248016Y379285D01*
X257811Y379285D01*
X257811Y367283D01*
X245809Y367283D01*
G37*
%LPD*%
%LPC*%
G36*
X262889Y350203D02*
X262889Y350203D01*
X262889Y362205D01*
X274891Y362205D01*
X274891Y352410D01*
X274718Y351763D01*
X274383Y351184D01*
X273910Y350711D01*
X273331Y350376D01*
X272684Y350203D01*
X262889Y350203D01*
G37*
%LPD*%
%LPC*%
G36*
X248016Y350203D02*
X248016Y350203D01*
X247369Y350376D01*
X246790Y350711D01*
X246317Y351184D01*
X245982Y351763D01*
X245809Y352410D01*
X245809Y362205D01*
X257811Y362205D01*
X257811Y350203D01*
X248016Y350203D01*
G37*
%LPD*%
%LPC*%
G36*
X199389Y367283D02*
X199389Y367283D01*
X199389Y379064D01*
X200255Y378927D01*
X202432Y378219D01*
X204471Y377180D01*
X206323Y375835D01*
X207941Y374217D01*
X209286Y372365D01*
X210325Y370326D01*
X211033Y368149D01*
X211170Y367283D01*
X199389Y367283D01*
G37*
%LPD*%
%LPC*%
G36*
X199389Y362205D02*
X199389Y362205D01*
X211170Y362205D01*
X211033Y361339D01*
X210325Y359162D01*
X209286Y357123D01*
X207941Y355271D01*
X206323Y353653D01*
X204471Y352308D01*
X202432Y351269D01*
X200255Y350561D01*
X199389Y350424D01*
X199389Y362205D01*
G37*
%LPD*%
%LPC*%
G36*
X182530Y367283D02*
X182530Y367283D01*
X182667Y368149D01*
X183375Y370326D01*
X184414Y372365D01*
X185759Y374217D01*
X187377Y375835D01*
X189229Y377180D01*
X191268Y378219D01*
X193445Y378927D01*
X194311Y379064D01*
X194311Y367283D01*
X182530Y367283D01*
G37*
%LPD*%
%LPC*%
G36*
X193445Y350561D02*
X193445Y350561D01*
X191268Y351269D01*
X189229Y352308D01*
X187377Y353653D01*
X185759Y355271D01*
X184414Y357123D01*
X183375Y359162D01*
X182667Y361339D01*
X182530Y362205D01*
X194311Y362205D01*
X194311Y350424D01*
X193445Y350561D01*
G37*
%LPD*%
%LPC*%
G36*
X89355Y221307D02*
X89355Y221307D01*
X89355Y230961D01*
X97993Y230961D01*
X97993Y229102D01*
X97819Y228455D01*
X97485Y227876D01*
X97012Y227403D01*
X96718Y227233D01*
X96613Y227153D01*
X96504Y227078D01*
X96486Y227057D01*
X96465Y227041D01*
X96382Y226937D01*
X96296Y226837D01*
X96284Y226813D01*
X96267Y226792D01*
X96213Y226671D01*
X96154Y226552D01*
X96149Y226526D01*
X96138Y226501D01*
X96116Y226371D01*
X96088Y226241D01*
X96089Y226214D01*
X96084Y226188D01*
X96095Y226056D01*
X96101Y225924D01*
X96109Y225898D01*
X96111Y225871D01*
X96154Y225746D01*
X96192Y225619D01*
X96206Y225596D01*
X96215Y225570D01*
X96289Y225460D01*
X96357Y225347D01*
X96376Y225328D01*
X96391Y225305D01*
X96489Y225217D01*
X96584Y225124D01*
X96616Y225103D01*
X96627Y225092D01*
X96647Y225082D01*
X96718Y225035D01*
X97012Y224865D01*
X97485Y224392D01*
X97819Y223813D01*
X97993Y223166D01*
X97993Y221307D01*
X89355Y221307D01*
G37*
%LPD*%
%LPC*%
G36*
X34491Y221307D02*
X34491Y221307D01*
X34491Y230961D01*
X43129Y230961D01*
X43129Y229102D01*
X42955Y228455D01*
X42621Y227876D01*
X42148Y227403D01*
X41854Y227233D01*
X41749Y227153D01*
X41640Y227078D01*
X41622Y227057D01*
X41601Y227041D01*
X41518Y226937D01*
X41432Y226837D01*
X41420Y226813D01*
X41403Y226792D01*
X41349Y226671D01*
X41290Y226552D01*
X41285Y226526D01*
X41274Y226501D01*
X41252Y226371D01*
X41224Y226241D01*
X41225Y226214D01*
X41220Y226188D01*
X41231Y226056D01*
X41237Y225924D01*
X41245Y225898D01*
X41247Y225871D01*
X41290Y225746D01*
X41328Y225619D01*
X41342Y225596D01*
X41351Y225570D01*
X41425Y225460D01*
X41493Y225347D01*
X41512Y225328D01*
X41527Y225305D01*
X41625Y225217D01*
X41720Y225124D01*
X41752Y225103D01*
X41763Y225092D01*
X41783Y225082D01*
X41854Y225035D01*
X42148Y224865D01*
X42621Y224392D01*
X42955Y223813D01*
X43129Y223166D01*
X43129Y221307D01*
X34491Y221307D01*
G37*
%LPD*%
%LPC*%
G36*
X89355Y208607D02*
X89355Y208607D01*
X89355Y218261D01*
X97993Y218261D01*
X97993Y216402D01*
X97819Y215755D01*
X97485Y215176D01*
X97012Y214703D01*
X96718Y214533D01*
X96613Y214453D01*
X96504Y214378D01*
X96486Y214357D01*
X96465Y214341D01*
X96382Y214237D01*
X96296Y214137D01*
X96284Y214113D01*
X96267Y214092D01*
X96213Y213971D01*
X96154Y213852D01*
X96149Y213826D01*
X96138Y213801D01*
X96116Y213671D01*
X96088Y213541D01*
X96089Y213514D01*
X96084Y213488D01*
X96095Y213356D01*
X96101Y213224D01*
X96109Y213198D01*
X96111Y213171D01*
X96154Y213046D01*
X96192Y212919D01*
X96206Y212896D01*
X96215Y212870D01*
X96289Y212760D01*
X96357Y212647D01*
X96376Y212628D01*
X96391Y212605D01*
X96489Y212517D01*
X96584Y212424D01*
X96616Y212403D01*
X96627Y212392D01*
X96647Y212382D01*
X96718Y212335D01*
X97012Y212165D01*
X97485Y211692D01*
X97819Y211113D01*
X97993Y210466D01*
X97993Y208607D01*
X89355Y208607D01*
G37*
%LPD*%
%LPC*%
G36*
X145033Y212851D02*
X145033Y212851D01*
X145033Y221489D01*
X146892Y221489D01*
X147539Y221316D01*
X148118Y220981D01*
X148591Y220508D01*
X148761Y220214D01*
X148841Y220109D01*
X148916Y220000D01*
X148937Y219982D01*
X148953Y219961D01*
X149057Y219878D01*
X149157Y219792D01*
X149181Y219780D01*
X149202Y219763D01*
X149323Y219709D01*
X149442Y219650D01*
X149468Y219645D01*
X149493Y219634D01*
X149623Y219612D01*
X149753Y219584D01*
X149780Y219585D01*
X149806Y219581D01*
X149938Y219592D01*
X150070Y219597D01*
X150096Y219605D01*
X150123Y219607D01*
X150248Y219651D01*
X150375Y219689D01*
X150398Y219703D01*
X150424Y219711D01*
X150534Y219785D01*
X150647Y219853D01*
X150666Y219872D01*
X150689Y219887D01*
X150777Y219986D01*
X150870Y220080D01*
X150891Y220112D01*
X150902Y220123D01*
X150912Y220143D01*
X150959Y220214D01*
X151129Y220508D01*
X151602Y220981D01*
X152181Y221316D01*
X152828Y221489D01*
X154687Y221489D01*
X154687Y212851D01*
X145033Y212851D01*
G37*
%LPD*%
%LPC*%
G36*
X119633Y267715D02*
X119633Y267715D01*
X119633Y276353D01*
X121492Y276353D01*
X122139Y276180D01*
X122718Y275845D01*
X123191Y275372D01*
X123361Y275078D01*
X123441Y274973D01*
X123516Y274864D01*
X123537Y274846D01*
X123553Y274825D01*
X123657Y274743D01*
X123757Y274656D01*
X123781Y274644D01*
X123802Y274627D01*
X123923Y274573D01*
X124042Y274514D01*
X124068Y274509D01*
X124093Y274498D01*
X124224Y274476D01*
X124353Y274448D01*
X124380Y274449D01*
X124406Y274445D01*
X124539Y274456D01*
X124671Y274461D01*
X124696Y274469D01*
X124723Y274471D01*
X124849Y274515D01*
X124975Y274553D01*
X124998Y274567D01*
X125024Y274575D01*
X125134Y274649D01*
X125247Y274717D01*
X125266Y274736D01*
X125289Y274751D01*
X125377Y274850D01*
X125470Y274944D01*
X125491Y274976D01*
X125502Y274987D01*
X125512Y275007D01*
X125559Y275078D01*
X125729Y275372D01*
X126202Y275845D01*
X126781Y276180D01*
X127428Y276353D01*
X129287Y276353D01*
X129287Y267715D01*
X119633Y267715D01*
G37*
%LPD*%
%LPC*%
G36*
X132333Y267715D02*
X132333Y267715D01*
X132333Y276353D01*
X134192Y276353D01*
X134839Y276180D01*
X135418Y275845D01*
X135891Y275372D01*
X136061Y275078D01*
X136141Y274973D01*
X136216Y274864D01*
X136237Y274846D01*
X136253Y274825D01*
X136357Y274743D01*
X136457Y274656D01*
X136481Y274644D01*
X136502Y274627D01*
X136623Y274573D01*
X136742Y274514D01*
X136768Y274509D01*
X136793Y274498D01*
X136924Y274476D01*
X137053Y274448D01*
X137080Y274449D01*
X137106Y274445D01*
X137239Y274456D01*
X137371Y274461D01*
X137396Y274469D01*
X137423Y274471D01*
X137549Y274515D01*
X137675Y274553D01*
X137698Y274567D01*
X137724Y274575D01*
X137834Y274649D01*
X137947Y274717D01*
X137966Y274736D01*
X137989Y274751D01*
X138077Y274850D01*
X138170Y274944D01*
X138191Y274976D01*
X138202Y274987D01*
X138212Y275007D01*
X138259Y275078D01*
X138429Y275372D01*
X138902Y275845D01*
X139481Y276180D01*
X140128Y276353D01*
X141987Y276353D01*
X141987Y267715D01*
X132333Y267715D01*
G37*
%LPD*%
%LPC*%
G36*
X34491Y208607D02*
X34491Y208607D01*
X34491Y218261D01*
X43129Y218261D01*
X43129Y216402D01*
X42955Y215755D01*
X42621Y215176D01*
X42148Y214703D01*
X41854Y214533D01*
X41749Y214453D01*
X41640Y214378D01*
X41622Y214357D01*
X41601Y214341D01*
X41519Y214237D01*
X41432Y214137D01*
X41420Y214113D01*
X41403Y214092D01*
X41349Y213971D01*
X41290Y213852D01*
X41285Y213826D01*
X41274Y213801D01*
X41251Y213670D01*
X41224Y213541D01*
X41225Y213514D01*
X41220Y213488D01*
X41231Y213355D01*
X41237Y213223D01*
X41245Y213198D01*
X41247Y213171D01*
X41291Y213045D01*
X41329Y212919D01*
X41342Y212896D01*
X41351Y212870D01*
X41425Y212760D01*
X41493Y212647D01*
X41512Y212628D01*
X41527Y212605D01*
X41625Y212517D01*
X41720Y212424D01*
X41752Y212403D01*
X41763Y212392D01*
X41783Y212382D01*
X41854Y212335D01*
X42148Y212165D01*
X42621Y211692D01*
X42955Y211113D01*
X43129Y210466D01*
X43129Y208607D01*
X34491Y208607D01*
G37*
%LPD*%
%LPC*%
G36*
X34491Y195907D02*
X34491Y195907D01*
X34491Y205561D01*
X43129Y205561D01*
X43129Y203702D01*
X42955Y203055D01*
X42621Y202476D01*
X42148Y202003D01*
X41854Y201833D01*
X41749Y201753D01*
X41640Y201678D01*
X41622Y201657D01*
X41601Y201641D01*
X41518Y201537D01*
X41432Y201437D01*
X41420Y201413D01*
X41403Y201392D01*
X41349Y201271D01*
X41290Y201152D01*
X41285Y201126D01*
X41274Y201101D01*
X41251Y200971D01*
X41224Y200841D01*
X41225Y200814D01*
X41220Y200788D01*
X41231Y200655D01*
X41237Y200524D01*
X41245Y200498D01*
X41247Y200471D01*
X41290Y200346D01*
X41328Y200219D01*
X41342Y200196D01*
X41351Y200170D01*
X41424Y200060D01*
X41493Y199947D01*
X41512Y199928D01*
X41527Y199905D01*
X41625Y199817D01*
X41720Y199724D01*
X41752Y199703D01*
X41763Y199692D01*
X41782Y199682D01*
X41854Y199635D01*
X42148Y199465D01*
X42621Y198992D01*
X42955Y198413D01*
X43129Y197766D01*
X43129Y195907D01*
X34491Y195907D01*
G37*
%LPD*%
%LPC*%
G36*
X145033Y267715D02*
X145033Y267715D01*
X145033Y276353D01*
X146892Y276353D01*
X147539Y276180D01*
X148118Y275845D01*
X148591Y275372D01*
X148761Y275078D01*
X148841Y274973D01*
X148916Y274864D01*
X148937Y274846D01*
X148953Y274825D01*
X149057Y274742D01*
X149157Y274656D01*
X149181Y274644D01*
X149202Y274627D01*
X149323Y274573D01*
X149442Y274514D01*
X149468Y274509D01*
X149493Y274498D01*
X149623Y274476D01*
X149753Y274448D01*
X149780Y274449D01*
X149806Y274445D01*
X149938Y274456D01*
X150071Y274461D01*
X150096Y274469D01*
X150123Y274471D01*
X150248Y274514D01*
X150375Y274553D01*
X150398Y274567D01*
X150424Y274575D01*
X150534Y274648D01*
X150647Y274717D01*
X150666Y274736D01*
X150689Y274751D01*
X150777Y274849D01*
X150870Y274944D01*
X150891Y274976D01*
X150902Y274987D01*
X150912Y275007D01*
X150959Y275078D01*
X151129Y275372D01*
X151602Y275845D01*
X152181Y276180D01*
X152828Y276353D01*
X154687Y276353D01*
X154687Y267715D01*
X145033Y267715D01*
G37*
%LPD*%
%LPC*%
G36*
X132333Y212851D02*
X132333Y212851D01*
X132333Y221489D01*
X134192Y221489D01*
X134839Y221316D01*
X135418Y220981D01*
X135891Y220508D01*
X136061Y220214D01*
X136141Y220109D01*
X136216Y220000D01*
X136237Y219982D01*
X136253Y219961D01*
X136357Y219878D01*
X136457Y219792D01*
X136481Y219780D01*
X136502Y219763D01*
X136623Y219709D01*
X136742Y219650D01*
X136768Y219645D01*
X136793Y219634D01*
X136923Y219612D01*
X137053Y219584D01*
X137080Y219585D01*
X137106Y219581D01*
X137238Y219592D01*
X137371Y219597D01*
X137396Y219605D01*
X137423Y219607D01*
X137548Y219650D01*
X137675Y219689D01*
X137698Y219703D01*
X137724Y219711D01*
X137834Y219784D01*
X137947Y219853D01*
X137966Y219872D01*
X137989Y219887D01*
X138077Y219985D01*
X138170Y220080D01*
X138191Y220112D01*
X138202Y220123D01*
X138212Y220143D01*
X138259Y220214D01*
X138429Y220508D01*
X138902Y220981D01*
X139481Y221316D01*
X140128Y221489D01*
X141987Y221489D01*
X141987Y212851D01*
X132333Y212851D01*
G37*
%LPD*%
%LPC*%
G36*
X119633Y256031D02*
X119633Y256031D01*
X119633Y264669D01*
X129287Y264669D01*
X129287Y256031D01*
X127428Y256031D01*
X126781Y256204D01*
X126202Y256539D01*
X125729Y257012D01*
X125559Y257306D01*
X125479Y257411D01*
X125404Y257520D01*
X125383Y257538D01*
X125367Y257559D01*
X125263Y257642D01*
X125163Y257728D01*
X125139Y257740D01*
X125118Y257757D01*
X124997Y257811D01*
X124878Y257870D01*
X124852Y257875D01*
X124827Y257886D01*
X124697Y257908D01*
X124567Y257936D01*
X124540Y257935D01*
X124514Y257939D01*
X124382Y257928D01*
X124250Y257923D01*
X124224Y257915D01*
X124197Y257913D01*
X124072Y257869D01*
X123945Y257831D01*
X123922Y257817D01*
X123896Y257809D01*
X123786Y257735D01*
X123673Y257667D01*
X123654Y257648D01*
X123631Y257633D01*
X123543Y257534D01*
X123450Y257440D01*
X123429Y257408D01*
X123418Y257397D01*
X123408Y257377D01*
X123361Y257306D01*
X123191Y257012D01*
X122718Y256539D01*
X122139Y256204D01*
X121492Y256031D01*
X119633Y256031D01*
G37*
%LPD*%
%LPC*%
G36*
X132333Y256031D02*
X132333Y256031D01*
X132333Y264669D01*
X141987Y264669D01*
X141987Y256031D01*
X140128Y256031D01*
X139481Y256204D01*
X138902Y256539D01*
X138429Y257012D01*
X138259Y257306D01*
X138179Y257411D01*
X138104Y257520D01*
X138083Y257538D01*
X138067Y257559D01*
X137963Y257642D01*
X137863Y257728D01*
X137839Y257740D01*
X137818Y257757D01*
X137697Y257811D01*
X137578Y257870D01*
X137552Y257875D01*
X137527Y257886D01*
X137397Y257908D01*
X137267Y257936D01*
X137240Y257935D01*
X137214Y257939D01*
X137082Y257928D01*
X136950Y257923D01*
X136924Y257915D01*
X136897Y257913D01*
X136772Y257869D01*
X136645Y257831D01*
X136622Y257817D01*
X136596Y257809D01*
X136486Y257735D01*
X136373Y257667D01*
X136354Y257648D01*
X136331Y257633D01*
X136243Y257534D01*
X136150Y257440D01*
X136129Y257408D01*
X136118Y257397D01*
X136108Y257377D01*
X136061Y257306D01*
X135891Y257012D01*
X135418Y256539D01*
X134839Y256204D01*
X134192Y256031D01*
X132333Y256031D01*
G37*
%LPD*%
%LPC*%
G36*
X22807Y208607D02*
X22807Y208607D01*
X22807Y210466D01*
X22980Y211113D01*
X23315Y211692D01*
X23788Y212165D01*
X24082Y212335D01*
X24187Y212415D01*
X24296Y212490D01*
X24314Y212511D01*
X24335Y212527D01*
X24417Y212631D01*
X24504Y212731D01*
X24516Y212755D01*
X24533Y212776D01*
X24586Y212897D01*
X24645Y213016D01*
X24651Y213042D01*
X24662Y213067D01*
X24684Y213197D01*
X24712Y213327D01*
X24711Y213354D01*
X24715Y213380D01*
X24704Y213512D01*
X24699Y213644D01*
X24691Y213670D01*
X24689Y213697D01*
X24645Y213822D01*
X24607Y213949D01*
X24593Y213972D01*
X24584Y213998D01*
X24511Y214108D01*
X24443Y214221D01*
X24424Y214240D01*
X24409Y214263D01*
X24310Y214351D01*
X24216Y214444D01*
X24184Y214465D01*
X24172Y214476D01*
X24153Y214486D01*
X24082Y214533D01*
X23788Y214703D01*
X23315Y215176D01*
X22980Y215755D01*
X22807Y216402D01*
X22807Y218261D01*
X31445Y218261D01*
X31445Y208607D01*
X22807Y208607D01*
G37*
%LPD*%
%LPC*%
G36*
X22807Y221307D02*
X22807Y221307D01*
X22807Y223166D01*
X22980Y223813D01*
X23315Y224392D01*
X23788Y224865D01*
X24082Y225035D01*
X24187Y225115D01*
X24296Y225190D01*
X24314Y225211D01*
X24335Y225227D01*
X24417Y225331D01*
X24504Y225431D01*
X24516Y225455D01*
X24533Y225476D01*
X24587Y225597D01*
X24645Y225716D01*
X24651Y225742D01*
X24662Y225767D01*
X24684Y225898D01*
X24712Y226027D01*
X24711Y226054D01*
X24715Y226080D01*
X24704Y226213D01*
X24699Y226345D01*
X24691Y226370D01*
X24689Y226397D01*
X24645Y226523D01*
X24607Y226649D01*
X24593Y226672D01*
X24584Y226698D01*
X24511Y226808D01*
X24443Y226921D01*
X24424Y226940D01*
X24409Y226963D01*
X24310Y227051D01*
X24216Y227144D01*
X24184Y227165D01*
X24172Y227176D01*
X24153Y227186D01*
X24082Y227233D01*
X23788Y227403D01*
X23315Y227876D01*
X22980Y228455D01*
X22807Y229102D01*
X22807Y230961D01*
X31445Y230961D01*
X31445Y221307D01*
X22807Y221307D01*
G37*
%LPD*%
%LPC*%
G36*
X145033Y201167D02*
X145033Y201167D01*
X145033Y209805D01*
X154687Y209805D01*
X154687Y201167D01*
X152828Y201167D01*
X152181Y201340D01*
X151602Y201675D01*
X151129Y202148D01*
X150959Y202442D01*
X150879Y202547D01*
X150804Y202656D01*
X150783Y202674D01*
X150767Y202695D01*
X150663Y202777D01*
X150563Y202864D01*
X150539Y202876D01*
X150518Y202893D01*
X150397Y202947D01*
X150278Y203006D01*
X150252Y203011D01*
X150227Y203022D01*
X150096Y203044D01*
X149967Y203072D01*
X149940Y203071D01*
X149914Y203075D01*
X149781Y203064D01*
X149649Y203059D01*
X149624Y203051D01*
X149597Y203049D01*
X149471Y203005D01*
X149345Y202967D01*
X149322Y202953D01*
X149296Y202945D01*
X149186Y202871D01*
X149073Y202803D01*
X149054Y202784D01*
X149031Y202769D01*
X148943Y202670D01*
X148850Y202576D01*
X148829Y202544D01*
X148818Y202533D01*
X148808Y202513D01*
X148761Y202442D01*
X148591Y202148D01*
X148118Y201675D01*
X147539Y201340D01*
X146892Y201167D01*
X145033Y201167D01*
G37*
%LPD*%
%LPC*%
G36*
X77671Y221307D02*
X77671Y221307D01*
X77671Y223166D01*
X77844Y223813D01*
X78179Y224392D01*
X78652Y224865D01*
X78946Y225035D01*
X79051Y225115D01*
X79160Y225190D01*
X79178Y225211D01*
X79199Y225227D01*
X79281Y225331D01*
X79368Y225431D01*
X79380Y225455D01*
X79397Y225476D01*
X79451Y225597D01*
X79509Y225716D01*
X79515Y225742D01*
X79526Y225767D01*
X79548Y225898D01*
X79576Y226027D01*
X79575Y226054D01*
X79579Y226080D01*
X79568Y226213D01*
X79563Y226345D01*
X79555Y226370D01*
X79553Y226397D01*
X79509Y226523D01*
X79471Y226649D01*
X79457Y226672D01*
X79448Y226698D01*
X79375Y226808D01*
X79307Y226921D01*
X79288Y226940D01*
X79273Y226963D01*
X79174Y227051D01*
X79080Y227144D01*
X79048Y227165D01*
X79036Y227176D01*
X79017Y227186D01*
X78946Y227233D01*
X78652Y227403D01*
X78179Y227876D01*
X77844Y228455D01*
X77671Y229102D01*
X77671Y230961D01*
X86309Y230961D01*
X86309Y221307D01*
X77671Y221307D01*
G37*
%LPD*%
%LPC*%
G36*
X77671Y208607D02*
X77671Y208607D01*
X77671Y210466D01*
X77844Y211113D01*
X78179Y211692D01*
X78652Y212165D01*
X78946Y212335D01*
X79051Y212415D01*
X79160Y212490D01*
X79178Y212511D01*
X79199Y212527D01*
X79281Y212631D01*
X79368Y212731D01*
X79380Y212755D01*
X79397Y212776D01*
X79451Y212897D01*
X79509Y213016D01*
X79515Y213042D01*
X79526Y213067D01*
X79548Y213198D01*
X79576Y213327D01*
X79575Y213354D01*
X79579Y213380D01*
X79568Y213513D01*
X79563Y213645D01*
X79555Y213670D01*
X79553Y213697D01*
X79509Y213823D01*
X79471Y213949D01*
X79457Y213972D01*
X79448Y213998D01*
X79375Y214108D01*
X79307Y214221D01*
X79288Y214240D01*
X79273Y214263D01*
X79174Y214351D01*
X79080Y214444D01*
X79048Y214465D01*
X79036Y214476D01*
X79017Y214486D01*
X78946Y214533D01*
X78652Y214703D01*
X78179Y215176D01*
X77844Y215755D01*
X77671Y216402D01*
X77671Y218261D01*
X86309Y218261D01*
X86309Y208607D01*
X77671Y208607D01*
G37*
%LPD*%
%LPC*%
G36*
X145033Y256031D02*
X145033Y256031D01*
X145033Y264669D01*
X154687Y264669D01*
X154687Y256031D01*
X152828Y256031D01*
X152181Y256204D01*
X151602Y256539D01*
X151129Y257012D01*
X150959Y257306D01*
X150879Y257411D01*
X150804Y257520D01*
X150783Y257538D01*
X150767Y257559D01*
X150663Y257641D01*
X150563Y257728D01*
X150539Y257740D01*
X150518Y257757D01*
X150397Y257811D01*
X150278Y257870D01*
X150252Y257875D01*
X150227Y257886D01*
X150097Y257908D01*
X149967Y257936D01*
X149940Y257935D01*
X149914Y257939D01*
X149781Y257928D01*
X149650Y257923D01*
X149624Y257915D01*
X149597Y257913D01*
X149472Y257869D01*
X149345Y257831D01*
X149322Y257817D01*
X149296Y257809D01*
X149186Y257735D01*
X149073Y257667D01*
X149054Y257648D01*
X149031Y257633D01*
X148943Y257534D01*
X148850Y257440D01*
X148829Y257408D01*
X148818Y257397D01*
X148808Y257377D01*
X148761Y257306D01*
X148591Y257012D01*
X148118Y256539D01*
X147539Y256204D01*
X146892Y256031D01*
X145033Y256031D01*
G37*
%LPD*%
%LPC*%
G36*
X132333Y201167D02*
X132333Y201167D01*
X132333Y209805D01*
X141987Y209805D01*
X141987Y201167D01*
X140128Y201167D01*
X139481Y201340D01*
X138902Y201675D01*
X138429Y202148D01*
X138259Y202442D01*
X138179Y202547D01*
X138104Y202656D01*
X138083Y202674D01*
X138067Y202695D01*
X137963Y202777D01*
X137863Y202864D01*
X137839Y202876D01*
X137818Y202893D01*
X137697Y202947D01*
X137578Y203006D01*
X137552Y203011D01*
X137527Y203022D01*
X137397Y203044D01*
X137267Y203072D01*
X137240Y203071D01*
X137214Y203075D01*
X137081Y203064D01*
X136950Y203059D01*
X136924Y203051D01*
X136897Y203049D01*
X136772Y203005D01*
X136645Y202967D01*
X136622Y202953D01*
X136596Y202945D01*
X136486Y202871D01*
X136373Y202803D01*
X136354Y202784D01*
X136331Y202769D01*
X136243Y202670D01*
X136150Y202576D01*
X136129Y202544D01*
X136118Y202533D01*
X136108Y202513D01*
X136061Y202442D01*
X135891Y202148D01*
X135418Y201675D01*
X134839Y201340D01*
X134192Y201167D01*
X132333Y201167D01*
G37*
%LPD*%
%LPC*%
G36*
X22807Y195907D02*
X22807Y195907D01*
X22807Y197766D01*
X22980Y198413D01*
X23315Y198992D01*
X23788Y199465D01*
X24082Y199635D01*
X24187Y199715D01*
X24296Y199790D01*
X24314Y199811D01*
X24335Y199827D01*
X24418Y199931D01*
X24504Y200031D01*
X24516Y200055D01*
X24533Y200076D01*
X24587Y200197D01*
X24646Y200316D01*
X24651Y200342D01*
X24662Y200367D01*
X24684Y200497D01*
X24712Y200627D01*
X24711Y200654D01*
X24715Y200680D01*
X24704Y200812D01*
X24699Y200945D01*
X24691Y200970D01*
X24689Y200997D01*
X24645Y201122D01*
X24607Y201249D01*
X24593Y201272D01*
X24584Y201298D01*
X24511Y201408D01*
X24443Y201521D01*
X24423Y201540D01*
X24409Y201563D01*
X24310Y201651D01*
X24216Y201744D01*
X24184Y201765D01*
X24172Y201776D01*
X24153Y201786D01*
X24082Y201833D01*
X23788Y202003D01*
X23315Y202476D01*
X22980Y203055D01*
X22807Y203702D01*
X22807Y205561D01*
X31445Y205561D01*
X31445Y195907D01*
X22807Y195907D01*
G37*
%LPD*%
%LPC*%
G36*
X790159Y613599D02*
X790159Y613599D01*
X790159Y621141D01*
X794495Y621141D01*
X795141Y620968D01*
X795720Y620633D01*
X796193Y620160D01*
X796528Y619581D01*
X796701Y618935D01*
X796701Y613599D01*
X790159Y613599D01*
G37*
%LPD*%
%LPC*%
G36*
X797779Y463739D02*
X797779Y463739D01*
X797779Y471281D01*
X802115Y471281D01*
X802761Y471108D01*
X803340Y470773D01*
X803813Y470300D01*
X804148Y469721D01*
X804321Y469075D01*
X804321Y463739D01*
X797779Y463739D01*
G37*
%LPD*%
%LPC*%
G36*
X797779Y321499D02*
X797779Y321499D01*
X797779Y329041D01*
X802115Y329041D01*
X802761Y328868D01*
X803340Y328533D01*
X803813Y328060D01*
X804148Y327481D01*
X804321Y326835D01*
X804321Y321499D01*
X797779Y321499D01*
G37*
%LPD*%
%LPC*%
G36*
X790159Y598059D02*
X790159Y598059D01*
X790159Y605601D01*
X796701Y605601D01*
X796701Y600265D01*
X796528Y599619D01*
X796193Y599040D01*
X795720Y598567D01*
X795141Y598232D01*
X794495Y598059D01*
X790159Y598059D01*
G37*
%LPD*%
%LPC*%
G36*
X797779Y448199D02*
X797779Y448199D01*
X797779Y455741D01*
X804321Y455741D01*
X804321Y450405D01*
X804148Y449759D01*
X803813Y449180D01*
X803340Y448707D01*
X802761Y448372D01*
X802115Y448199D01*
X797779Y448199D01*
G37*
%LPD*%
%LPC*%
G36*
X797779Y305959D02*
X797779Y305959D01*
X797779Y313501D01*
X804321Y313501D01*
X804321Y308165D01*
X804148Y307519D01*
X803813Y306940D01*
X803340Y306467D01*
X802761Y306132D01*
X802115Y305959D01*
X797779Y305959D01*
G37*
%LPD*%
%LPC*%
G36*
X157733Y267715D02*
X157733Y267715D01*
X157733Y276353D01*
X159592Y276353D01*
X160239Y276180D01*
X160818Y275845D01*
X161291Y275372D01*
X161626Y274793D01*
X161799Y274146D01*
X161799Y267715D01*
X157733Y267715D01*
G37*
%LPD*%
%LPC*%
G36*
X157733Y212851D02*
X157733Y212851D01*
X157733Y221489D01*
X159592Y221489D01*
X160239Y221316D01*
X160818Y220981D01*
X161291Y220508D01*
X161626Y219929D01*
X161799Y219282D01*
X161799Y212851D01*
X157733Y212851D01*
G37*
%LPD*%
%LPC*%
G36*
X34491Y234007D02*
X34491Y234007D01*
X34491Y238073D01*
X40922Y238073D01*
X41569Y237900D01*
X42148Y237565D01*
X42621Y237092D01*
X42955Y236513D01*
X43129Y235866D01*
X43129Y234007D01*
X34491Y234007D01*
G37*
%LPD*%
%LPC*%
G36*
X89355Y234007D02*
X89355Y234007D01*
X89355Y238073D01*
X95786Y238073D01*
X96433Y237900D01*
X97012Y237565D01*
X97485Y237092D01*
X97819Y236513D01*
X97993Y235866D01*
X97993Y234007D01*
X89355Y234007D01*
G37*
%LPD*%
%LPC*%
G36*
X157733Y201167D02*
X157733Y201167D01*
X157733Y209805D01*
X161799Y209805D01*
X161799Y203374D01*
X161626Y202727D01*
X161291Y202148D01*
X160818Y201675D01*
X160239Y201340D01*
X159592Y201167D01*
X157733Y201167D01*
G37*
%LPD*%
%LPC*%
G36*
X77671Y234007D02*
X77671Y234007D01*
X77671Y235866D01*
X77844Y236513D01*
X78179Y237092D01*
X78652Y237565D01*
X79231Y237900D01*
X79877Y238073D01*
X86309Y238073D01*
X86309Y234007D01*
X77671Y234007D01*
G37*
%LPD*%
%LPC*%
G36*
X22807Y234007D02*
X22807Y234007D01*
X22807Y235866D01*
X22980Y236513D01*
X23315Y237092D01*
X23788Y237565D01*
X24367Y237900D01*
X25013Y238073D01*
X31445Y238073D01*
X31445Y234007D01*
X22807Y234007D01*
G37*
%LPD*%
%LPC*%
G36*
X157733Y256031D02*
X157733Y256031D01*
X157733Y264669D01*
X161799Y264669D01*
X161799Y258238D01*
X161626Y257591D01*
X161291Y257012D01*
X160818Y256539D01*
X160239Y256204D01*
X159592Y256031D01*
X157733Y256031D01*
G37*
%LPD*%
%LPC*%
G36*
X125221Y212851D02*
X125221Y212851D01*
X125221Y219282D01*
X125394Y219929D01*
X125729Y220508D01*
X126202Y220981D01*
X126781Y221316D01*
X127428Y221489D01*
X129287Y221489D01*
X129287Y212851D01*
X125221Y212851D01*
G37*
%LPD*%
%LPC*%
G36*
X112521Y267715D02*
X112521Y267715D01*
X112521Y274146D01*
X112694Y274793D01*
X113029Y275372D01*
X113502Y275845D01*
X114081Y276180D01*
X114728Y276353D01*
X116587Y276353D01*
X116587Y267715D01*
X112521Y267715D01*
G37*
%LPD*%
%LPC*%
G36*
X89355Y201495D02*
X89355Y201495D01*
X89355Y205561D01*
X97993Y205561D01*
X97993Y203702D01*
X97819Y203055D01*
X97485Y202476D01*
X97012Y202003D01*
X96433Y201668D01*
X95786Y201495D01*
X89355Y201495D01*
G37*
%LPD*%
%LPC*%
G36*
X34491Y188795D02*
X34491Y188795D01*
X34491Y192861D01*
X43129Y192861D01*
X43129Y191002D01*
X42955Y190355D01*
X42621Y189776D01*
X42148Y189303D01*
X41569Y188968D01*
X40922Y188795D01*
X34491Y188795D01*
G37*
%LPD*%
%LPC*%
G36*
X79877Y201495D02*
X79877Y201495D01*
X79231Y201668D01*
X78652Y202003D01*
X78179Y202476D01*
X77844Y203055D01*
X77671Y203702D01*
X77671Y205561D01*
X86309Y205561D01*
X86309Y201495D01*
X79877Y201495D01*
G37*
%LPD*%
%LPC*%
G36*
X25013Y188795D02*
X25013Y188795D01*
X24367Y188968D01*
X23788Y189303D01*
X23315Y189776D01*
X22980Y190355D01*
X22807Y191002D01*
X22807Y192861D01*
X31445Y192861D01*
X31445Y188795D01*
X25013Y188795D01*
G37*
%LPD*%
%LPC*%
G36*
X127428Y201167D02*
X127428Y201167D01*
X126781Y201340D01*
X126202Y201675D01*
X125729Y202148D01*
X125394Y202727D01*
X125221Y203374D01*
X125221Y209805D01*
X129287Y209805D01*
X129287Y201167D01*
X127428Y201167D01*
G37*
%LPD*%
%LPC*%
G36*
X114728Y256031D02*
X114728Y256031D01*
X114081Y256204D01*
X113502Y256539D01*
X113029Y257012D01*
X112694Y257591D01*
X112521Y258238D01*
X112521Y264669D01*
X116587Y264669D01*
X116587Y256031D01*
X114728Y256031D01*
G37*
%LPD*%
%LPC*%
G36*
X93208Y88358D02*
X93208Y88358D01*
X93208Y92899D01*
X97543Y92899D01*
X98189Y92726D01*
X98768Y92392D01*
X99241Y91918D01*
X99576Y91339D01*
X99749Y90693D01*
X99749Y88358D01*
X93208Y88358D01*
G37*
%LPD*%
%LPC*%
G36*
X70463Y88242D02*
X70463Y88242D01*
X70463Y92783D01*
X74799Y92783D01*
X75445Y92610D01*
X76024Y92276D01*
X76497Y91803D01*
X76832Y91223D01*
X77005Y90577D01*
X77005Y88242D01*
X70463Y88242D01*
G37*
%LPD*%
%LPC*%
G36*
X70499Y53134D02*
X70499Y53134D01*
X70499Y57675D01*
X74834Y57675D01*
X75480Y57502D01*
X76060Y57168D01*
X76533Y56694D01*
X76867Y56115D01*
X77040Y55469D01*
X77040Y53134D01*
X70499Y53134D01*
G37*
%LPD*%
%LPC*%
G36*
X93198Y53134D02*
X93198Y53134D01*
X93198Y57675D01*
X97533Y57675D01*
X98179Y57502D01*
X98759Y57168D01*
X99232Y56694D01*
X99566Y56115D01*
X99739Y55469D01*
X99739Y53134D01*
X93198Y53134D01*
G37*
%LPD*%
%LPC*%
G36*
X70499Y35134D02*
X70499Y35134D01*
X70499Y39675D01*
X74834Y39675D01*
X75480Y39502D01*
X76060Y39168D01*
X76533Y38694D01*
X76867Y38115D01*
X77040Y37469D01*
X77040Y35134D01*
X70499Y35134D01*
G37*
%LPD*%
%LPC*%
G36*
X93198Y35134D02*
X93198Y35134D01*
X93198Y39675D01*
X97533Y39675D01*
X98179Y39502D01*
X98759Y39168D01*
X99232Y38694D01*
X99566Y38115D01*
X99739Y37469D01*
X99739Y35134D01*
X93198Y35134D01*
G37*
%LPD*%
%LPC*%
G36*
X82658Y53134D02*
X82658Y53134D01*
X82658Y55469D01*
X82831Y56115D01*
X83166Y56694D01*
X83639Y57168D01*
X84218Y57502D01*
X84864Y57675D01*
X89199Y57675D01*
X89199Y53134D01*
X82658Y53134D01*
G37*
%LPD*%
%LPC*%
G36*
X59923Y88242D02*
X59923Y88242D01*
X59923Y90577D01*
X60097Y91223D01*
X60431Y91803D01*
X60904Y92276D01*
X61483Y92610D01*
X62130Y92783D01*
X66465Y92783D01*
X66465Y88242D01*
X59923Y88242D01*
G37*
%LPD*%
%LPC*%
G36*
X59959Y53134D02*
X59959Y53134D01*
X59959Y55469D01*
X60132Y56115D01*
X60466Y56694D01*
X60940Y57168D01*
X61519Y57502D01*
X62165Y57675D01*
X66500Y57675D01*
X66500Y53134D01*
X59959Y53134D01*
G37*
%LPD*%
%LPC*%
G36*
X82668Y88358D02*
X82668Y88358D01*
X82668Y90693D01*
X82841Y91339D01*
X83175Y91918D01*
X83648Y92392D01*
X84228Y92726D01*
X84874Y92899D01*
X89209Y92899D01*
X89209Y88358D01*
X82668Y88358D01*
G37*
%LPD*%
%LPC*%
G36*
X59959Y35134D02*
X59959Y35134D01*
X59959Y37469D01*
X60132Y38115D01*
X60466Y38694D01*
X60940Y39168D01*
X61519Y39502D01*
X62165Y39675D01*
X66500Y39675D01*
X66500Y35134D01*
X59959Y35134D01*
G37*
%LPD*%
%LPC*%
G36*
X82658Y35134D02*
X82658Y35134D01*
X82658Y37469D01*
X82831Y38115D01*
X83166Y38694D01*
X83639Y39168D01*
X84218Y39502D01*
X84864Y39675D01*
X89199Y39675D01*
X89199Y35134D01*
X82658Y35134D01*
G37*
%LPD*%
%LPC*%
G36*
X70463Y79702D02*
X70463Y79702D01*
X70463Y84243D01*
X77005Y84243D01*
X77005Y81908D01*
X76832Y81262D01*
X76497Y80683D01*
X76024Y80209D01*
X75445Y79875D01*
X74799Y79702D01*
X70463Y79702D01*
G37*
%LPD*%
%LPC*%
G36*
X93208Y61818D02*
X93208Y61818D01*
X93208Y66359D01*
X99749Y66359D01*
X99749Y64024D01*
X99576Y63378D01*
X99241Y62798D01*
X98768Y62325D01*
X98189Y61991D01*
X97543Y61818D01*
X93208Y61818D01*
G37*
%LPD*%
%LPC*%
G36*
X70463Y61702D02*
X70463Y61702D01*
X70463Y66243D01*
X77005Y66243D01*
X77005Y63908D01*
X76832Y63262D01*
X76497Y62683D01*
X76024Y62209D01*
X75445Y61875D01*
X74799Y61702D01*
X70463Y61702D01*
G37*
%LPD*%
%LPC*%
G36*
X93208Y79818D02*
X93208Y79818D01*
X93208Y84359D01*
X99749Y84359D01*
X99749Y82024D01*
X99576Y81378D01*
X99241Y80798D01*
X98768Y80325D01*
X98189Y79991D01*
X97543Y79818D01*
X93208Y79818D01*
G37*
%LPD*%
%LPC*%
G36*
X70499Y26594D02*
X70499Y26594D01*
X70499Y31135D01*
X77040Y31135D01*
X77040Y28800D01*
X76867Y28154D01*
X76533Y27574D01*
X76060Y27101D01*
X75480Y26767D01*
X74834Y26594D01*
X70499Y26594D01*
G37*
%LPD*%
%LPC*%
G36*
X93198Y26594D02*
X93198Y26594D01*
X93198Y31135D01*
X99739Y31135D01*
X99739Y28800D01*
X99566Y28154D01*
X99232Y27574D01*
X98759Y27101D01*
X98179Y26767D01*
X97533Y26594D01*
X93198Y26594D01*
G37*
%LPD*%
%LPC*%
G36*
X84874Y79818D02*
X84874Y79818D01*
X84228Y79991D01*
X83648Y80325D01*
X83175Y80798D01*
X82841Y81378D01*
X82668Y82024D01*
X82668Y84359D01*
X89209Y84359D01*
X89209Y79818D01*
X84874Y79818D01*
G37*
%LPD*%
%LPC*%
G36*
X62130Y79702D02*
X62130Y79702D01*
X61483Y79875D01*
X60904Y80209D01*
X60431Y80683D01*
X60097Y81262D01*
X59923Y81908D01*
X59923Y84243D01*
X66465Y84243D01*
X66465Y79702D01*
X62130Y79702D01*
G37*
%LPD*%
%LPC*%
G36*
X84874Y61818D02*
X84874Y61818D01*
X84228Y61991D01*
X83648Y62325D01*
X83175Y62798D01*
X82841Y63378D01*
X82668Y64024D01*
X82668Y66359D01*
X89209Y66359D01*
X89209Y61818D01*
X84874Y61818D01*
G37*
%LPD*%
%LPC*%
G36*
X62130Y61702D02*
X62130Y61702D01*
X61483Y61875D01*
X60904Y62209D01*
X60431Y62683D01*
X60097Y63262D01*
X59923Y63908D01*
X59923Y66243D01*
X66465Y66243D01*
X66465Y61702D01*
X62130Y61702D01*
G37*
%LPD*%
%LPC*%
G36*
X62165Y26594D02*
X62165Y26594D01*
X61519Y26767D01*
X60940Y27101D01*
X60466Y27574D01*
X60132Y28154D01*
X59959Y28800D01*
X59959Y31135D01*
X66500Y31135D01*
X66500Y26594D01*
X62165Y26594D01*
G37*
%LPD*%
%LPC*%
G36*
X84864Y26594D02*
X84864Y26594D01*
X84218Y26767D01*
X83639Y27101D01*
X83166Y27574D01*
X82831Y28154D01*
X82658Y28800D01*
X82658Y31135D01*
X89199Y31135D01*
X89199Y26594D01*
X84864Y26594D01*
G37*
%LPD*%
%LPC*%
G36*
X260349Y364743D02*
X260349Y364743D01*
X260349Y364745D01*
X260351Y364745D01*
X260351Y364743D01*
X260349Y364743D01*
G37*
%LPD*%
%LPC*%
G36*
X196849Y364743D02*
X196849Y364743D01*
X196849Y364745D01*
X196851Y364745D01*
X196851Y364743D01*
X196849Y364743D01*
G37*
%LPD*%
D10*
X305308Y453898D03*
X305308Y399034D03*
X318008Y453898D03*
X330708Y453898D03*
X318008Y399034D03*
X330708Y399034D03*
X343408Y453898D03*
X343408Y399034D03*
D11*
X869950Y614680D03*
D12*
X869950Y469900D03*
X869950Y401320D03*
X869950Y335280D03*
X869950Y195580D03*
X869950Y121920D03*
D13*
X666394Y133666D03*
X675894Y133666D03*
X685394Y133666D03*
X685394Y109666D03*
X666394Y109666D03*
D14*
X260350Y364744D03*
D15*
X260350Y425196D03*
X260350Y485648D03*
X260350Y546100D03*
X260350Y606552D03*
X196850Y606552D03*
X196850Y546100D03*
X196850Y485648D03*
X196850Y425196D03*
X196850Y364744D03*
D12*
X239776Y656336D03*
X240284Y314960D03*
D16*
X918251Y316778D03*
X918251Y334778D03*
X918499Y394564D03*
X918499Y412564D03*
X918494Y465468D03*
X918494Y483468D03*
X918263Y114089D03*
X918263Y132089D03*
D17*
X80170Y162150D03*
X80170Y155650D03*
X80170Y149150D03*
X80170Y142650D03*
X36670Y142650D03*
X36670Y149150D03*
X36670Y155650D03*
X36670Y162150D03*
D10*
X156210Y211328D03*
X156210Y266192D03*
X143510Y211328D03*
X130810Y211328D03*
X143510Y266192D03*
X130810Y266192D03*
X118110Y211328D03*
X118110Y266192D03*
D18*
X87832Y232484D03*
X32968Y232484D03*
X87832Y219784D03*
X87832Y207084D03*
X32968Y219784D03*
X32968Y207084D03*
X87832Y194384D03*
X32968Y194384D03*
D19*
X125660Y172720D03*
X148660Y172720D03*
D20*
X697642Y520718D03*
X697642Y530218D03*
X697642Y539718D03*
X724566Y539718D03*
X724566Y520718D03*
X700606Y379617D03*
X700606Y389117D03*
X700606Y398617D03*
X727530Y398617D03*
X727530Y379617D03*
X703198Y247488D03*
X703198Y256988D03*
X703198Y266488D03*
X730122Y266488D03*
X730122Y247488D03*
X703143Y156180D03*
X703143Y165680D03*
X703143Y175180D03*
X730067Y175180D03*
X730067Y156180D03*
D21*
X511302Y616204D03*
X511302Y609854D03*
X511302Y603250D03*
X511302Y596900D03*
X511302Y590296D03*
X511302Y583692D03*
X511302Y577342D03*
X511302Y570738D03*
X511302Y564388D03*
X511302Y557784D03*
X511302Y551180D03*
X511302Y544830D03*
X511302Y538226D03*
X511302Y531876D03*
X453898Y531876D03*
X453898Y538226D03*
X453898Y544830D03*
X453898Y551180D03*
X453898Y557784D03*
X453898Y564388D03*
X453898Y570738D03*
X453898Y577342D03*
X453898Y583692D03*
X453898Y590296D03*
X453898Y596900D03*
X453898Y603250D03*
X453898Y609854D03*
X453898Y616204D03*
D14*
X890680Y160020D03*
X846680Y160020D03*
X891941Y368474D03*
X847941Y368474D03*
X891861Y435639D03*
X847861Y435639D03*
X834019Y630297D03*
X834019Y586297D03*
D22*
X678180Y647700D03*
X652780Y650240D03*
X627380Y647700D03*
X601980Y650240D03*
X576580Y647700D03*
X551180Y650240D03*
D23*
X477072Y369644D03*
X477072Y374644D03*
X477072Y379644D03*
X477072Y384644D03*
X477072Y389644D03*
X477072Y394644D03*
X477072Y399644D03*
X477072Y404644D03*
X477072Y409644D03*
X477072Y414644D03*
X477072Y419644D03*
X477072Y424644D03*
X477072Y429644D03*
X477072Y434644D03*
X477072Y439644D03*
X477072Y444644D03*
D24*
X497080Y464652D03*
X502080Y464652D03*
X507080Y464652D03*
X512080Y464652D03*
X517080Y464652D03*
X522080Y464652D03*
X527080Y464652D03*
X532080Y464652D03*
X537080Y464652D03*
X542080Y464652D03*
X547080Y464652D03*
X552080Y464652D03*
X557080Y464652D03*
X562080Y464652D03*
X567080Y464652D03*
X572080Y464652D03*
D23*
X592088Y444644D03*
X592088Y439644D03*
X592088Y434644D03*
X592088Y429644D03*
X592088Y424644D03*
X592088Y419644D03*
X592088Y414644D03*
X592088Y409644D03*
X592088Y404644D03*
X592088Y399644D03*
X592088Y394644D03*
X592088Y389644D03*
X592088Y384644D03*
X592088Y379644D03*
X592088Y374644D03*
X592088Y369644D03*
D24*
X572080Y349636D03*
X567080Y349636D03*
X562080Y349636D03*
X557080Y349636D03*
X552080Y349636D03*
X547080Y349636D03*
X542080Y349636D03*
X537080Y349636D03*
X532080Y349636D03*
X527080Y349636D03*
X522080Y349636D03*
X517080Y349636D03*
X512080Y349636D03*
X507080Y349636D03*
X502080Y349636D03*
X497080Y349636D03*
D25*
X471170Y17780D03*
X471170Y73660D03*
X433070Y17780D03*
X433070Y73660D03*
D16*
X425037Y398987D03*
X425037Y416987D03*
X443576Y398962D03*
X443576Y416962D03*
D26*
X519265Y502675D03*
X537265Y502675D03*
X611288Y475873D03*
X593288Y475873D03*
X524962Y304619D03*
X542962Y304619D03*
X519315Y485466D03*
X537315Y485466D03*
X611288Y457222D03*
X593288Y457222D03*
X525053Y321947D03*
X543053Y321947D03*
D16*
X435798Y366776D03*
X435798Y384776D03*
X416943Y366643D03*
X416943Y384643D03*
D26*
X395080Y86360D03*
X377080Y86360D03*
X377080Y106680D03*
X395080Y106680D03*
X395080Y147320D03*
X377080Y147320D03*
D16*
X284480Y593200D03*
X284480Y575200D03*
X304800Y593200D03*
X304800Y575200D03*
D27*
X339240Y574950D03*
X326240Y574950D03*
X332740Y593450D03*
D16*
X360680Y593200D03*
X360680Y575200D03*
D26*
X455820Y632460D03*
X473820Y632460D03*
X514460Y640080D03*
X496460Y640080D03*
D16*
X431800Y603360D03*
X431800Y585360D03*
X431800Y623460D03*
X431800Y641460D03*
X533400Y603140D03*
X533400Y621140D03*
X284480Y626220D03*
X284480Y608220D03*
X304800Y626220D03*
X304800Y608220D03*
X360680Y626220D03*
X360680Y608220D03*
D27*
X339240Y607970D03*
X326240Y607970D03*
X332740Y626470D03*
D16*
X284480Y661780D03*
X284480Y643780D03*
X304800Y661780D03*
X304800Y643780D03*
D27*
X339240Y643530D03*
X326240Y643530D03*
X332740Y662030D03*
D16*
X360680Y643780D03*
X360680Y661780D03*
X381000Y643780D03*
X381000Y661780D03*
X360680Y534560D03*
X360680Y552560D03*
X304800Y555100D03*
X304800Y537100D03*
X284480Y555100D03*
X284480Y537100D03*
X360680Y499000D03*
X360680Y517000D03*
X304800Y517000D03*
X304800Y499000D03*
X284480Y517000D03*
X284480Y499000D03*
D28*
X341906Y498845D03*
X322906Y498845D03*
X332406Y519845D03*
X341438Y539140D03*
X322438Y539140D03*
X331938Y560140D03*
D29*
X315057Y239988D03*
X315057Y252688D03*
X379857Y252688D03*
X379857Y239988D03*
D16*
X299720Y315437D03*
X299720Y333437D03*
X248920Y257920D03*
X248920Y239920D03*
X228600Y239920D03*
X228600Y257920D03*
D27*
X275740Y239670D03*
X262740Y239670D03*
X269240Y258170D03*
D16*
X289482Y240230D03*
X289482Y258230D03*
D26*
X390000Y368300D03*
X372000Y368300D03*
X402700Y289560D03*
X384700Y289560D03*
X390000Y350520D03*
X372000Y350520D03*
X402700Y271780D03*
X384700Y271780D03*
D16*
X459740Y290940D03*
X459740Y272940D03*
X459740Y224680D03*
X459740Y242680D03*
X627385Y477255D03*
X627385Y459255D03*
D26*
X461120Y91440D03*
X443120Y91440D03*
X713533Y418673D03*
X731533Y418673D03*
X716615Y286102D03*
X734615Y286102D03*
X703508Y197821D03*
X721508Y197821D03*
X711174Y558786D03*
X729174Y558786D03*
X670699Y558356D03*
X688699Y558356D03*
X672894Y418685D03*
X690894Y418685D03*
X674238Y286339D03*
X692238Y286339D03*
X668957Y197951D03*
X686957Y197951D03*
X712476Y223512D03*
X730476Y223512D03*
X713772Y123048D03*
X731772Y123048D03*
X712479Y360438D03*
X730479Y360438D03*
X710825Y498125D03*
X728825Y498125D03*
D16*
X900314Y114096D03*
X900314Y132096D03*
X901094Y316892D03*
X901094Y334892D03*
X901163Y394317D03*
X901163Y412317D03*
X901165Y465483D03*
X901165Y483483D03*
D26*
X378492Y418634D03*
X360492Y418634D03*
X378245Y398160D03*
X360245Y398160D03*
X300880Y99060D03*
X318880Y99060D03*
D16*
X622300Y54500D03*
X622300Y72500D03*
X604520Y54500D03*
X604520Y72500D03*
X586740Y54500D03*
X586740Y72500D03*
X568960Y54500D03*
X568960Y72500D03*
X551180Y54500D03*
X551180Y72500D03*
X533400Y54500D03*
X533400Y72500D03*
X515620Y54500D03*
X515620Y72500D03*
X497840Y54500D03*
X497840Y72500D03*
D26*
X646320Y154940D03*
X664320Y154940D03*
X300880Y78740D03*
X318880Y78740D03*
D16*
X604520Y36940D03*
X604520Y18940D03*
X586740Y36940D03*
X586740Y18940D03*
X568960Y36940D03*
X568960Y18940D03*
X551180Y36940D03*
X551180Y18940D03*
X533400Y36940D03*
X533400Y18940D03*
X515620Y36940D03*
X515620Y18940D03*
D26*
X235060Y149860D03*
X217060Y149860D03*
X631300Y154940D03*
X613300Y154940D03*
X250080Y149860D03*
X268080Y149860D03*
X250080Y185420D03*
X268080Y185420D03*
X250080Y167640D03*
X268080Y167640D03*
X235060Y185420D03*
X217060Y185420D03*
X235060Y167640D03*
X217060Y167640D03*
X664220Y93222D03*
X682220Y93222D03*
X610760Y561340D03*
X628760Y561340D03*
X763380Y650240D03*
X745380Y650240D03*
X466200Y487680D03*
X448200Y487680D03*
D16*
X596900Y288400D03*
X596900Y270400D03*
X381000Y534560D03*
X381000Y552560D03*
X91199Y33134D03*
X91199Y51134D03*
X68500Y33134D03*
X68500Y51134D03*
X68464Y86243D03*
X68464Y68243D03*
X91208Y86358D03*
X91208Y68358D03*
D26*
X96968Y177753D03*
X78968Y177753D03*
X51948Y126537D03*
X33948Y126537D03*
X87955Y126464D03*
X69955Y126464D03*
X146160Y149860D03*
X128160Y149860D03*
X395080Y127000D03*
X377080Y127000D03*
D30*
X365360Y59060D03*
X315360Y59060D03*
D31*
X353360Y59060D03*
X346860Y59060D03*
X340360Y59060D03*
X333860Y59060D03*
X327360Y59060D03*
D32*
X350360Y32060D03*
X330360Y32060D03*
D33*
X369360Y32060D03*
X311360Y32060D03*
D34*
X375360Y26520D02*
X375360Y37600D01*
X305360Y37600D02*
X305360Y26520D01*
D26*
X66036Y177801D03*
X48036Y177801D03*
D20*
X389382Y461620D03*
X389382Y452120D03*
X389382Y442620D03*
X362458Y442620D03*
X362458Y461620D03*
D35*
X787400Y68580D03*
X746760Y68580D03*
X787400Y55880D03*
X746760Y55880D03*
X787400Y43180D03*
X746760Y43180D03*
X787400Y30480D03*
X746760Y30480D03*
X787400Y17780D03*
X746760Y17780D03*
D16*
X647700Y115460D03*
X647700Y133460D03*
D26*
X336440Y474980D03*
X354440Y474980D03*
D36*
X469040Y173350D02*
X473640Y173350D01*
X473640Y171850D01*
X469040Y171850D01*
X469040Y173350D01*
X469040Y173275D02*
X473640Y173275D01*
X473640Y168350D02*
X469040Y168350D01*
X473640Y168350D02*
X473640Y166850D01*
X469040Y166850D01*
X469040Y168350D01*
X469040Y168275D02*
X473640Y168275D01*
X473640Y163350D02*
X469040Y163350D01*
X473640Y163350D02*
X473640Y161850D01*
X469040Y161850D01*
X469040Y163350D01*
X469040Y163275D02*
X473640Y163275D01*
X473640Y158350D02*
X469040Y158350D01*
X473640Y158350D02*
X473640Y156850D01*
X469040Y156850D01*
X469040Y158350D01*
X469040Y158275D02*
X473640Y158275D01*
X465490Y158300D02*
X465490Y153700D01*
X463990Y153700D01*
X463990Y158300D01*
X465490Y158300D01*
X465490Y155125D02*
X463990Y155125D01*
X463990Y156550D02*
X465490Y156550D01*
X465490Y157975D02*
X463990Y157975D01*
X460490Y158300D02*
X460490Y153700D01*
X458990Y153700D01*
X458990Y158300D01*
X460490Y158300D01*
X460490Y155125D02*
X458990Y155125D01*
X458990Y156550D02*
X460490Y156550D01*
X460490Y157975D02*
X458990Y157975D01*
X455490Y158300D02*
X455490Y153700D01*
X453990Y153700D01*
X453990Y158300D01*
X455490Y158300D01*
X455490Y155125D02*
X453990Y155125D01*
X453990Y156550D02*
X455490Y156550D01*
X455490Y157975D02*
X453990Y157975D01*
X450440Y156850D02*
X445840Y156850D01*
X445840Y158350D01*
X450440Y158350D01*
X450440Y156850D01*
X450440Y158275D02*
X445840Y158275D01*
X445840Y161850D02*
X450440Y161850D01*
X445840Y161850D02*
X445840Y163350D01*
X450440Y163350D01*
X450440Y161850D01*
X450440Y163275D02*
X445840Y163275D01*
X445840Y166850D02*
X450440Y166850D01*
X445840Y166850D02*
X445840Y168350D01*
X450440Y168350D01*
X450440Y166850D01*
X450440Y168275D02*
X445840Y168275D01*
X445840Y171850D02*
X450440Y171850D01*
X445840Y171850D02*
X445840Y173350D01*
X450440Y173350D01*
X450440Y171850D01*
X450440Y173275D02*
X445840Y173275D01*
X453990Y171900D02*
X453990Y176500D01*
X455490Y176500D01*
X455490Y171900D01*
X453990Y171900D01*
X453990Y173325D02*
X455490Y173325D01*
X455490Y174750D02*
X453990Y174750D01*
X453990Y176175D02*
X455490Y176175D01*
X458990Y176500D02*
X458990Y171900D01*
X458990Y176500D02*
X460490Y176500D01*
X460490Y171900D01*
X458990Y171900D01*
X458990Y173325D02*
X460490Y173325D01*
X460490Y174750D02*
X458990Y174750D01*
X458990Y176175D02*
X460490Y176175D01*
X463990Y176500D02*
X463990Y171900D01*
X463990Y176500D02*
X465490Y176500D01*
X465490Y171900D01*
X463990Y171900D01*
X463990Y173325D02*
X465490Y173325D01*
X465490Y174750D02*
X463990Y174750D01*
X463990Y176175D02*
X465490Y176175D01*
D16*
X429260Y186800D03*
X429260Y168800D03*
X475139Y141137D03*
X475139Y123137D03*
X447040Y141080D03*
X447040Y123080D03*
X426720Y141080D03*
X426720Y123080D03*
D10*
X748030Y281432D03*
X748030Y226568D03*
X760730Y281432D03*
X773430Y281432D03*
X760730Y226568D03*
X773430Y226568D03*
X786130Y281432D03*
X786130Y226568D03*
X750570Y418592D03*
X750570Y363728D03*
X763270Y418592D03*
X775970Y418592D03*
X763270Y363728D03*
X775970Y363728D03*
X788670Y418592D03*
X788670Y363728D03*
X748030Y568452D03*
X748030Y513588D03*
X760730Y568452D03*
X773430Y568452D03*
X760730Y513588D03*
X773430Y513588D03*
X786130Y568452D03*
X786130Y513588D03*
X748030Y159512D03*
X748030Y104648D03*
X760730Y159512D03*
X773430Y159512D03*
X760730Y104648D03*
X773430Y104648D03*
X786130Y159512D03*
X786130Y104648D03*
D37*
X703453Y308460D03*
X703453Y314960D03*
X703453Y321460D03*
X724027Y321460D03*
X724027Y314960D03*
X724027Y308460D03*
D38*
X793780Y317500D03*
X765780Y317500D03*
X793780Y459740D03*
X765780Y459740D03*
X786160Y609600D03*
X758160Y609600D03*
D16*
X693420Y445660D03*
X693420Y463660D03*
X690880Y587900D03*
X690880Y605900D03*
X680720Y308500D03*
X680720Y326500D03*
X670560Y587900D03*
X670560Y605900D03*
X673100Y445660D03*
X673100Y463660D03*
X660400Y308500D03*
X660400Y326500D03*
D39*
X235458Y454660D03*
X267462Y454660D03*
D29*
X315580Y316230D03*
X315580Y328930D03*
X380380Y328930D03*
X380380Y316230D03*
D37*
X713613Y448160D03*
X713613Y454660D03*
X713613Y461160D03*
X734187Y461160D03*
X734187Y454660D03*
X734187Y448160D03*
X711073Y592940D03*
X711073Y599440D03*
X711073Y605940D03*
X731647Y605940D03*
X731647Y599440D03*
X731647Y592940D03*
D25*
X654050Y71120D03*
X654050Y15240D03*
X692150Y71120D03*
X692150Y15240D03*
D26*
X549800Y543560D03*
X567800Y543560D03*
D16*
X622300Y36940D03*
X622300Y18940D03*
X497840Y36940D03*
X497840Y18940D03*
D40*
X106738Y33113D03*
D41*
X109425Y9097D03*
X94640Y7978D03*
D42*
X271780Y591820D03*
D43*
X273160Y593200D01*
X284480Y593200D01*
X284480Y588120D02*
X288400Y584200D01*
X311910Y584200D01*
X284480Y588120D02*
X284480Y593200D01*
X311910Y584200D02*
X321160Y574950D01*
X326240Y574950D01*
D42*
X507104Y365335D03*
D43*
X453898Y603250D02*
X454296Y603360D01*
X431800Y603360D01*
D42*
X508673Y502606D03*
X611144Y495570D03*
D43*
X425062Y398962D02*
X425037Y398987D01*
X425062Y398962D02*
X443576Y398962D01*
D42*
X408048Y399423D03*
D43*
X408484Y398987D01*
X425037Y398987D01*
D42*
X525505Y289563D03*
X271780Y627380D03*
D44*
X283320Y627380D01*
X284480Y626220D01*
D43*
X284480Y617220D01*
X326240Y617220D02*
X326240Y607970D01*
X326240Y617220D02*
X284480Y617220D01*
D42*
X271780Y662940D03*
D44*
X272940Y661780D02*
X284480Y661780D01*
X272940Y661780D02*
X271780Y662940D01*
D43*
X284480Y661780D02*
X284480Y652780D01*
X326240Y652780D02*
X326240Y643530D01*
X326240Y652780D02*
X284480Y652780D01*
D42*
X371897Y289583D03*
D45*
X431800Y91440D03*
D46*
X443120Y91440D01*
D43*
X457984Y404644D02*
X477072Y404644D01*
X452302Y398962D02*
X443576Y398962D01*
X452302Y398962D02*
X457984Y404644D01*
D42*
X393700Y533400D03*
D44*
X382160Y533400D01*
X381000Y534560D01*
D47*
X779780Y650240D03*
X596900Y304800D03*
X594360Y561340D03*
X481172Y487819D03*
D43*
X537080Y333974D02*
X525053Y321947D01*
X537080Y333974D02*
X537080Y349636D01*
D44*
X524962Y290106D02*
X525505Y289563D01*
X524962Y290106D02*
X524962Y304619D01*
X524962Y321856D01*
X525053Y321947D01*
D42*
X203200Y152400D03*
D46*
X205740Y149860D02*
X217060Y149860D01*
X763380Y650240D02*
X779780Y650240D01*
D43*
X466339Y487819D02*
X466200Y487680D01*
X466339Y487819D02*
X481172Y487819D01*
D46*
X519265Y485516D02*
X519265Y502675D01*
X519265Y485516D02*
X519315Y485466D01*
X522937Y485466D02*
X532080Y476323D01*
X532080Y464652D01*
D41*
X109220Y20320D03*
D46*
X205740Y149860D02*
X203200Y152400D01*
X508741Y502675D02*
X519265Y502675D01*
X508741Y502675D02*
X508673Y502606D01*
X519315Y485466D02*
X522937Y485466D01*
D42*
X805180Y76200D03*
D43*
X795020Y76200D01*
X787400Y68580D01*
D42*
X361813Y368367D03*
X420074Y602020D03*
X421168Y576347D03*
D43*
X422164Y577342D02*
X453898Y577342D01*
X422164Y577342D02*
X421168Y576347D01*
X420074Y602020D02*
X431800Y602020D01*
X431800Y603360D01*
D42*
X415418Y140817D03*
D43*
X426457Y140817D02*
X426720Y141080D01*
X426457Y140817D02*
X415418Y140817D01*
X426720Y141080D02*
X447040Y141080D01*
D42*
X452120Y190500D03*
X472440Y190500D03*
X456058Y110337D03*
X649098Y100177D03*
D46*
X656052Y93222D02*
X664220Y93222D01*
X656052Y93222D02*
X649098Y100177D01*
D43*
X664220Y99872D02*
X664220Y93222D01*
X666394Y102046D02*
X666394Y109666D01*
X666394Y102046D02*
X664220Y99872D01*
X611144Y476018D02*
X611144Y495570D01*
X611144Y476018D02*
X611288Y475873D01*
X611288Y457222D01*
X611288Y446188D01*
X604520Y439420D01*
X604296Y439644D01*
X592088Y439644D01*
D42*
X659570Y463678D03*
X459465Y259083D03*
D46*
X459740Y259359D01*
X459740Y272940D01*
X459465Y259083D02*
X459465Y242956D01*
X459740Y242680D01*
D43*
X467519Y141137D02*
X475139Y141137D01*
X467519Y141137D02*
X464979Y138597D01*
X464979Y119257D01*
X456058Y110337D01*
X647700Y101574D02*
X649098Y100177D01*
X647700Y101574D02*
X647700Y115460D01*
D42*
X646362Y326531D03*
D43*
X688340Y326500D02*
X693380Y321460D01*
X688340Y326500D02*
X680720Y326500D01*
X693380Y321460D02*
X703453Y321460D01*
D42*
X656021Y603437D03*
D43*
X616950Y495570D02*
X611144Y495570D01*
X627385Y485135D02*
X627385Y477255D01*
X627385Y485135D02*
X616950Y495570D01*
D44*
X610760Y561340D02*
X594360Y561340D01*
X596900Y304800D02*
X596900Y288400D01*
D46*
X656021Y603437D02*
X658484Y605900D01*
X670560Y605900D01*
X690880Y605900D01*
D43*
X646362Y326531D02*
X646392Y326500D01*
X660400Y326500D01*
X680720Y326500D01*
D44*
X673082Y463678D02*
X659570Y463678D01*
X673082Y463678D02*
X673100Y463660D01*
X693420Y463660D01*
D41*
X82393Y7864D03*
X54056Y34896D03*
D43*
X464740Y143916D02*
X467519Y141137D01*
D46*
X454740Y174200D02*
X454740Y187880D01*
X452120Y190500D01*
D43*
X471340Y172600D02*
X472440Y173700D01*
X472440Y190500D01*
X448140Y157600D02*
X448140Y142180D01*
X447040Y141080D01*
X464740Y143916D02*
X464740Y156000D01*
X372000Y368300D02*
X361880Y368300D01*
X361813Y368367D01*
X371897Y289583D02*
X384677Y289583D01*
X384700Y289560D01*
X693420Y463660D02*
X699660Y463660D01*
X702160Y461160D02*
X713613Y461160D01*
X702160Y461160D02*
X699660Y463660D01*
X690880Y605900D02*
X711033Y605900D01*
X711073Y605940D01*
D42*
X567394Y558840D03*
D43*
X567800Y558434D02*
X567800Y543560D01*
X567800Y558434D02*
X567394Y558840D01*
X672894Y418685D02*
X672894Y409146D01*
X683423Y398617D02*
X700606Y398617D01*
X683423Y398617D02*
X672894Y409146D01*
X641024Y394644D02*
X592088Y394644D01*
X665065Y418685D02*
X672894Y418685D01*
X665065Y418685D02*
X641024Y394644D01*
X668957Y184483D02*
X678260Y175180D01*
X668957Y184483D02*
X668957Y197951D01*
D44*
X678260Y175180D02*
X703143Y175180D01*
D43*
X608256Y369644D02*
X592088Y369644D01*
X622300Y355600D02*
X622300Y215900D01*
X640249Y197951D01*
X668957Y197951D01*
X622300Y355600D02*
X608256Y369644D01*
D48*
X846680Y160020D02*
X847090Y159871D01*
D49*
X847090Y144780D01*
X869950Y121920D01*
D50*
X760730Y104648D02*
X748030Y104648D01*
X760730Y104648D02*
X773430Y104648D01*
X786130Y104648D01*
X852678Y104648D01*
X869950Y121920D01*
D44*
X877774Y114096D02*
X900314Y114096D01*
X877774Y114096D02*
X869950Y121920D01*
D45*
X767080Y88900D03*
D44*
X767080Y98298D01*
X760730Y104648D01*
D45*
X375091Y514655D03*
D42*
X452120Y515620D03*
D43*
X556260Y515620D01*
X562080Y509800D01*
X562080Y464652D01*
X375091Y514655D02*
X373380Y516366D01*
X373380Y523240D01*
X370840Y525780D01*
X363220Y525780D02*
X360680Y528320D01*
X360680Y534560D01*
X363220Y525780D02*
X370840Y525780D01*
D42*
X555543Y506561D03*
D43*
X557080Y505024D01*
X557080Y464652D01*
D45*
X391160Y506561D03*
D43*
X377080Y499000D02*
X360680Y499000D01*
X384641Y506561D02*
X391160Y506561D01*
X384641Y506561D02*
X377080Y499000D01*
D45*
X391160Y400558D03*
D46*
X462324Y414644D02*
X477072Y414644D01*
D51*
X391160Y400558D02*
X388762Y398160D01*
X378245Y398160D01*
D46*
X452788Y424180D02*
X462324Y414644D01*
X393700Y424180D02*
X393700Y403098D01*
X391160Y400558D01*
X393700Y424180D02*
X393700Y438302D01*
X389382Y442620D01*
X393700Y424180D02*
X452788Y424180D01*
D45*
X387855Y575355D03*
D43*
X403860Y568960D02*
X403860Y441960D01*
X411160Y434660D01*
X477056Y434660D01*
X477072Y434644D01*
X387699Y575200D02*
X387855Y575355D01*
X397465Y575355D01*
X403860Y568960D01*
X332490Y593200D02*
X304800Y593200D01*
X332490Y593200D02*
X332740Y593450D01*
X360430Y593450D01*
X360680Y593200D01*
X374540Y593200D01*
X387699Y580041D02*
X387699Y575200D01*
X387699Y580041D02*
X374540Y593200D01*
D46*
X360430Y662030D02*
X332740Y662030D01*
X360430Y662030D02*
X360680Y661780D01*
X332740Y662030D02*
X305050Y662030D01*
X304800Y661780D01*
D45*
X403401Y643793D03*
D43*
X414020Y635000D02*
X414020Y447040D01*
X416385Y444675D01*
X477041Y444675D01*
X477072Y444644D01*
D44*
X403388Y643780D02*
X381000Y643780D01*
X403388Y643780D02*
X403401Y643793D01*
D43*
X405227Y643793D01*
X414020Y635000D01*
X381000Y643780D02*
X360680Y643780D01*
D45*
X414020Y353060D03*
D46*
X477072Y365312D02*
X477072Y369644D01*
X477072Y365312D02*
X469900Y358140D01*
D42*
X469900Y358140D03*
D43*
X414020Y353060D02*
X411480Y353060D01*
X396240Y368300D01*
X477072Y369644D02*
X489024Y369644D01*
X495300Y375920D01*
X495300Y447673D01*
X502080Y454453D02*
X502080Y464652D01*
X502080Y454453D02*
X495300Y447673D01*
X390000Y350520D02*
X390000Y318880D01*
X387350Y316230D01*
X390000Y350520D02*
X390000Y368300D01*
X396240Y368300D01*
X387350Y316230D02*
X380380Y316230D01*
D44*
X304800Y521577D02*
X306798Y523574D01*
X304800Y521577D02*
X304800Y517000D01*
X323933Y519845D02*
X332406Y519845D01*
X323933Y519845D02*
X320204Y523574D01*
X306798Y523574D01*
D43*
X304800Y555100D02*
X304800Y562180D01*
X321573Y560140D02*
X331938Y560140D01*
X321573Y560140D02*
X319534Y562180D01*
X304800Y562180D01*
D44*
X196850Y519320D02*
X196850Y485648D01*
X196850Y519320D02*
X205850Y528320D01*
X278240Y528320D01*
X284480Y534560D02*
X284480Y537100D01*
X284480Y534560D02*
X278240Y528320D01*
X284480Y537100D02*
X304800Y537100D01*
X273702Y499000D02*
X260350Y485648D01*
X273702Y499000D02*
X284480Y499000D01*
X304800Y499000D01*
D43*
X304800Y575200D02*
X284480Y575200D01*
X260350Y568960D02*
X260350Y546100D01*
D42*
X260367Y574866D03*
D43*
X260414Y569024D02*
X260350Y568960D01*
X260414Y574819D02*
X260367Y574866D01*
X260414Y574819D02*
X260414Y569024D01*
X260367Y574866D02*
X260286Y575174D01*
X284480Y575200D01*
D44*
X284480Y608220D02*
X304800Y608220D01*
D43*
X262018Y608220D02*
X260350Y606552D01*
X262018Y608220D02*
X284480Y608220D01*
D42*
X922047Y384265D03*
X922412Y305959D03*
D52*
X32968Y207084D02*
X32968Y194384D01*
X32968Y207084D02*
X32968Y219784D01*
X32968Y232484D01*
D41*
X12700Y195580D03*
X12700Y208280D03*
X12700Y220980D03*
X12700Y233680D03*
X53340Y233680D03*
X53340Y220980D03*
X53340Y208280D03*
X53340Y195580D03*
X63641Y105624D03*
X76200Y105624D03*
X88900Y105483D03*
X101671Y105342D03*
D53*
X809554Y675153D03*
D52*
X189120Y165100D02*
X189120Y134620D01*
X189120Y123080D01*
X171382Y105342D01*
X101671Y105342D01*
D42*
X188962Y167815D03*
D40*
X107160Y83828D03*
D46*
X188962Y165258D02*
X189120Y165100D01*
X188962Y165258D02*
X188962Y167815D01*
D52*
X189137Y167640D02*
X217060Y167640D01*
D46*
X189137Y167640D02*
X188962Y167815D01*
D42*
X922510Y455317D03*
D43*
X918494Y459332D01*
X918494Y465468D01*
D42*
X386080Y429260D03*
X916237Y102861D03*
D44*
X66036Y182884D02*
X53340Y195580D01*
X66036Y182884D02*
X66036Y177801D01*
X78920Y177801D02*
X78968Y177753D01*
X78920Y177801D02*
X66036Y177801D01*
D49*
X890680Y177390D02*
X890680Y160020D01*
X890680Y177390D02*
X872490Y195580D01*
X869950Y195580D01*
D45*
X910460Y429490D03*
X895181Y453026D03*
D43*
X713533Y418673D02*
X713533Y409147D01*
X709157Y389117D02*
X700606Y389117D01*
X713740Y408940D02*
X713533Y409147D01*
X713740Y408940D02*
X713740Y393700D01*
X709157Y389117D01*
X713533Y418673D02*
X704007Y418673D01*
X703580Y419100D01*
D42*
X703580Y419100D03*
D52*
X701054Y558786D02*
X711174Y558786D01*
D43*
X701054Y558786D02*
X701040Y558800D01*
D42*
X701040Y558800D03*
D43*
X711174Y558786D02*
X711200Y558760D01*
D52*
X711200Y533400D01*
X708018Y530218D01*
X697642Y530218D01*
D43*
X703198Y256988D02*
X703647Y256540D01*
D44*
X713740Y256540D01*
X716615Y259415D01*
X716615Y286102D01*
D43*
X707038Y286102D01*
X706120Y287020D01*
D42*
X706120Y287020D03*
D49*
X834019Y630297D02*
X854333Y630297D01*
X869950Y614680D01*
D44*
X916237Y112063D02*
X916237Y102861D01*
X916237Y112063D02*
X918263Y114089D01*
X918499Y386805D02*
X918499Y394564D01*
X919507Y386805D02*
X922047Y384265D01*
X919507Y386805D02*
X918499Y386805D01*
D45*
X910460Y442190D03*
D54*
X895181Y438959D02*
X891861Y435639D01*
X895181Y438959D02*
X895181Y453026D01*
X898413Y442190D02*
X891861Y435639D01*
X898413Y442190D02*
X910460Y442190D01*
X898009Y429490D02*
X891861Y435639D01*
X898009Y429490D02*
X910460Y429490D01*
D45*
X910460Y363450D03*
X910460Y376150D03*
X895220Y348210D03*
D54*
X895220Y365195D02*
X891941Y368474D01*
X895220Y365195D02*
X895220Y348210D01*
X896965Y363450D02*
X891941Y368474D01*
X896965Y363450D02*
X910460Y363450D01*
X899618Y376150D02*
X891941Y368474D01*
X899618Y376150D02*
X910460Y376150D01*
D44*
X918251Y316778D02*
X918251Y310120D01*
X922412Y305959D01*
D42*
X703580Y185420D03*
D44*
X703508Y185492D01*
X703508Y197821D01*
D43*
X716280Y185049D01*
X716280Y167640D01*
X714320Y165680D01*
X703143Y165680D01*
D52*
X386080Y424180D02*
X386080Y429260D01*
X380534Y418634D02*
X378492Y418634D01*
X380534Y418634D02*
X386080Y424180D01*
X389382Y452120D02*
X378460Y452120D01*
X375920Y449580D01*
X378492Y426688D02*
X378492Y418634D01*
X375920Y429260D02*
X375920Y449580D01*
X375920Y429260D02*
X378492Y426688D01*
X262740Y239670D02*
X262740Y217320D01*
X289560Y190500D02*
X289560Y142240D01*
X281940Y134620D01*
X189120Y134620D01*
X262740Y217320D02*
X289560Y190500D01*
X53340Y149150D02*
X36670Y149150D01*
D45*
X55986Y149970D03*
D54*
X305308Y453898D02*
X318008Y453898D01*
D55*
X843280Y683260D03*
D54*
X318008Y453898D02*
X302260Y453898D01*
X318008Y453898D02*
X330708Y453898D01*
D52*
X330708Y441452D01*
X341630Y430530D01*
X353526Y418634D01*
D47*
X207424Y209622D03*
D46*
X268080Y185420D02*
X268080Y167640D01*
D43*
X252658Y209622D02*
X207424Y209622D01*
X268080Y194200D02*
X268080Y185420D01*
X268080Y194200D02*
X252658Y209622D01*
D52*
X55986Y149970D02*
X55166Y149150D01*
X53340Y149150D01*
X55986Y149970D02*
X69955Y136001D01*
X69955Y126464D01*
X353720Y442620D02*
X362458Y442620D01*
X353720Y442620D02*
X341630Y430530D01*
X353526Y418634D02*
X360492Y418634D01*
D43*
X55986Y169851D02*
X48036Y177801D01*
X55986Y169851D02*
X55986Y149970D01*
X791240Y478760D02*
X795020Y474980D01*
X739140Y314960D02*
X724027Y314960D01*
D42*
X739140Y314960D03*
X782320Y317500D03*
D43*
X693420Y213360D02*
X686957Y206897D01*
X686957Y197951D01*
X730122Y266488D02*
X730122Y272922D01*
X734615Y277415D01*
X692238Y286339D02*
X692238Y288378D01*
X701040Y297180D01*
X727530Y398617D02*
X727530Y407490D01*
X731533Y411493D02*
X731533Y418673D01*
X731533Y411493D02*
X727530Y407490D01*
X690894Y418685D02*
X690894Y426734D01*
X693420Y429260D01*
X731533Y424167D02*
X731533Y418673D01*
X726440Y429260D02*
X693420Y429260D01*
X726440Y429260D02*
X731533Y424167D01*
D42*
X748819Y454179D03*
X782320Y459740D03*
D43*
X793780Y459740D01*
X729174Y558786D02*
X729174Y568766D01*
X726440Y571500D01*
X688699Y566779D02*
X688699Y558356D01*
X693420Y571500D02*
X726440Y571500D01*
X693420Y571500D02*
X688699Y566779D01*
D52*
X724566Y544226D02*
X724566Y539718D01*
X729174Y548834D02*
X729174Y558786D01*
X729174Y548834D02*
X724566Y544226D01*
D42*
X744220Y599440D03*
X777240Y609600D03*
D43*
X786160Y609600D01*
D44*
X782320Y317500D02*
X793780Y317500D01*
D43*
X731520Y297180D02*
X701040Y297180D01*
X731520Y297180D02*
X734615Y294085D01*
X734615Y286102D01*
X734615Y277415D01*
X721508Y213360D02*
X721508Y197821D01*
X721508Y213360D02*
X693420Y213360D01*
X721508Y190201D02*
X730067Y181642D01*
X721508Y190201D02*
X721508Y197821D01*
X730067Y181642D02*
X730067Y175180D01*
D52*
X729174Y548834D02*
X799906Y548834D01*
D44*
X731533Y418673D02*
X748886Y401320D01*
X805180Y401320D01*
X734615Y286102D02*
X734615Y278845D01*
X744220Y269240D01*
X800100Y269240D01*
X726739Y197821D02*
X721508Y197821D01*
X726739Y197821D02*
X734060Y190500D01*
X795020Y190500D01*
D54*
X748158Y177448D02*
X748030Y159512D01*
X760789Y172368D02*
X760813Y177448D01*
X760789Y172368D02*
X760730Y159512D01*
X773625Y177448D02*
X773625Y177448D01*
X773625Y174908D01*
X773593Y172368D01*
X773430Y159512D01*
D50*
X760813Y177448D02*
X748158Y177448D01*
X760813Y177448D02*
X773625Y177448D01*
X801175Y177380D01*
D56*
X302260Y453898D02*
X288591Y467567D01*
X236220Y467567D02*
X175260Y467567D01*
X236220Y467567D02*
X288591Y467567D01*
X236220Y467567D02*
X235458Y466805D01*
X235458Y454660D01*
D43*
X228600Y251460D02*
X231140Y248920D01*
X302357Y252688D02*
X315057Y252688D01*
X302357Y252688D02*
X298589Y248920D01*
X311770Y325120D02*
X315580Y328930D01*
X311770Y325120D02*
X271780Y325120D01*
X734187Y454660D02*
X748339Y454660D01*
X748819Y454179D01*
X744220Y599440D02*
X731647Y599440D01*
X274320Y248920D02*
X231140Y248920D01*
X274320Y248920D02*
X298589Y248920D01*
X275740Y247500D02*
X275740Y239670D01*
X275740Y247500D02*
X274320Y248920D01*
X228600Y251460D02*
X228600Y257920D01*
X228600Y287020D01*
D44*
X284480Y643780D02*
X304800Y643780D01*
D43*
X196850Y572770D02*
X196850Y546100D01*
X267860Y643780D02*
X284480Y643780D01*
X267860Y643780D02*
X196850Y572770D01*
X196850Y425196D02*
X227584Y425196D01*
X261620Y391160D01*
X284480Y391160D01*
D45*
X292100Y363220D03*
D43*
X292100Y383540D01*
X284480Y391160D01*
X292100Y363220D02*
X292100Y353060D01*
X299720Y345440D01*
X299720Y333437D01*
D45*
X53340Y53340D03*
X22860Y66040D03*
X30480Y58420D03*
D40*
X106754Y58398D03*
D57*
X277647Y19271D03*
D40*
X135407Y120871D03*
D42*
X419390Y645966D03*
D43*
X423896Y641460D02*
X431800Y641460D01*
X423896Y641460D02*
X419390Y645966D01*
X433468Y583692D02*
X453898Y583692D01*
X433468Y583692D02*
X431800Y585360D01*
D42*
X533987Y630520D03*
D43*
X533987Y621727D01*
X533400Y621140D01*
D42*
X420801Y585358D03*
D43*
X420803Y585360D02*
X431800Y585360D01*
X420803Y585360D02*
X420801Y585358D01*
D42*
X693265Y92991D03*
X441960Y45720D03*
D52*
X433070Y45720D02*
X433070Y73660D01*
X433070Y45720D02*
X433070Y17780D01*
X433070Y45720D02*
X441960Y45720D01*
D42*
X365760Y142240D03*
D46*
X370840Y147320D02*
X377080Y147320D01*
D42*
X549440Y498766D03*
X593257Y496796D03*
D43*
X443551Y416987D02*
X425037Y416987D01*
X443551Y416987D02*
X443576Y416962D01*
X451718Y416962D01*
X459036Y409644D02*
X477072Y409644D01*
X459036Y409644D02*
X451718Y416962D01*
D42*
X407887Y416721D03*
D46*
X408154Y416987D01*
D43*
X425037Y416987D01*
D42*
X542306Y289528D03*
X344922Y635838D03*
X346995Y614486D03*
D43*
X339240Y643530D02*
X339240Y652780D01*
X381000Y652780D02*
X381000Y661780D01*
X381000Y652780D02*
X339240Y652780D01*
D42*
X346995Y584006D03*
X321613Y530652D03*
D43*
X322438Y531477D02*
X322438Y539140D01*
X322438Y531477D02*
X321613Y530652D01*
D42*
X322784Y488840D03*
D44*
X322784Y498723D02*
X322906Y498845D01*
X322784Y498723D02*
X322784Y488840D01*
D42*
X371938Y273033D03*
D46*
X379831Y252713D02*
X379857Y252688D01*
D42*
X279400Y149860D03*
D46*
X268080Y149860D01*
D42*
X355600Y386080D03*
D43*
X360245Y390725D01*
X360245Y398160D01*
D44*
X675894Y133666D02*
X676061Y133499D01*
D42*
X381000Y563880D03*
D44*
X381000Y552560D01*
D55*
X723900Y650240D03*
X596900Y248920D03*
D47*
X647700Y561340D03*
D55*
X429721Y487670D03*
D46*
X370840Y147320D02*
X365760Y142240D01*
D51*
X391160Y127000D02*
X395080Y127000D01*
X391160Y127000D02*
X386080Y132080D01*
X386080Y142240D01*
X381000Y147320D01*
X377080Y147320D01*
D43*
X542081Y322919D02*
X542081Y349635D01*
X542080Y349636D01*
X542081Y322919D02*
X543053Y321947D01*
D44*
X542962Y304619D02*
X542962Y290184D01*
X542306Y289528D01*
X542962Y304619D02*
X542962Y321856D01*
X543053Y321947D01*
X723900Y650240D02*
X745380Y650240D01*
D43*
X429731Y487680D02*
X429721Y487670D01*
X429731Y487680D02*
X448200Y487680D01*
X327360Y59060D02*
X315360Y59060D01*
X311360Y32060D02*
X330360Y32060D01*
X350360Y32060D02*
X369360Y32060D01*
D46*
X375360Y32060D01*
X350360Y32060D02*
X330360Y32060D01*
X537080Y464652D02*
X537080Y485230D01*
X537315Y485466D01*
D43*
X537048Y485198D02*
X537265Y502675D01*
D46*
X545531Y502675D02*
X549440Y498766D01*
D45*
X40640Y53340D03*
D40*
X127787Y16731D03*
D46*
X537265Y502675D02*
X545531Y502675D01*
X537080Y485230D02*
X537048Y485198D01*
D42*
X805254Y49347D03*
X787400Y7620D03*
D43*
X787400Y55880D02*
X798721Y55880D01*
X805254Y49347D01*
X799087Y43180D02*
X787400Y43180D01*
X799087Y43180D02*
X805254Y49347D01*
D46*
X315360Y59060D02*
X315360Y66440D01*
X318880Y69960D01*
D43*
X431800Y585360D02*
X431800Y589280D01*
X436546Y594026D02*
X438957Y594026D01*
X441831Y596900D01*
X453898Y596900D01*
X436546Y594026D02*
X431800Y589280D01*
D42*
X643090Y31825D03*
D44*
X543560Y18940D02*
X533400Y18940D01*
X543560Y18940D02*
X551180Y18940D01*
X568960Y18940D02*
X579120Y18940D01*
X586740Y18940D01*
D46*
X318880Y69960D02*
X318880Y78740D01*
D42*
X469900Y109220D03*
D46*
X475139Y114459D01*
X475139Y123137D01*
D42*
X429411Y155940D03*
D43*
X429260Y155789D01*
X429260Y168800D01*
X426720Y123080D02*
X447040Y123080D01*
D42*
X415277Y123061D03*
D43*
X426701Y123061D02*
X426720Y123080D01*
X426701Y123061D02*
X415277Y123061D01*
X458360Y123080D02*
X459740Y124460D01*
X459740Y156000D01*
X454740Y156000D01*
X458360Y123080D02*
X447040Y123080D01*
X693034Y93222D02*
X693265Y92991D01*
X693034Y93222D02*
X682220Y93222D01*
X675894Y99548D02*
X675894Y133666D01*
X675894Y99548D02*
X682220Y93222D01*
X690880Y587900D02*
X690544Y588236D01*
X593257Y496796D02*
X593257Y475905D01*
X593288Y475873D01*
X593288Y457222D01*
X593288Y445844D01*
X592088Y444644D01*
D42*
X660356Y445996D03*
D43*
X693420Y446113D02*
X693420Y445660D01*
D42*
X599440Y157480D03*
D43*
X610760Y157480D02*
X613300Y154940D01*
X610760Y157480D02*
X599440Y157480D01*
D42*
X647286Y308360D03*
D43*
X680760Y308460D02*
X703453Y308460D01*
X680760Y308460D02*
X680720Y308500D01*
D42*
X656757Y588236D03*
D44*
X647700Y561340D02*
X628760Y561340D01*
X596900Y270400D02*
X596900Y248920D01*
D43*
X703453Y308460D02*
X703453Y314960D01*
X787400Y17780D02*
X787400Y7620D01*
X660260Y308360D02*
X647286Y308360D01*
X660260Y308360D02*
X660400Y308500D01*
X680720Y308500D01*
D44*
X670224Y588236D02*
X656757Y588236D01*
X670224Y588236D02*
X670560Y587900D01*
X690209Y587900D01*
X690544Y588236D01*
X672764Y445996D02*
X660356Y445996D01*
X672764Y445996D02*
X673100Y445660D01*
X693420Y445660D01*
D43*
X360680Y575200D02*
X360430Y574950D01*
X346995Y574950D02*
X339240Y574950D01*
X346995Y574950D02*
X360430Y574950D01*
X346995Y574950D02*
X346995Y584006D01*
X347010Y607970D02*
X339240Y607970D01*
X347010Y607970D02*
X360430Y607970D01*
X360680Y608220D01*
X347010Y607970D02*
X346995Y614486D01*
D42*
X360680Y353060D03*
D43*
X371938Y273033D02*
X383447Y273033D01*
X384700Y271780D01*
X384700Y257531D01*
X379857Y252688D01*
X380380Y328930D02*
X374650Y328930D01*
X372000Y331580D02*
X372000Y350520D01*
X372000Y331580D02*
X374650Y328930D01*
X363220Y350520D02*
X360680Y353060D01*
X363220Y350520D02*
X372000Y350520D01*
X693420Y445660D02*
X702420Y454660D01*
X713613Y454660D01*
X713613Y448160D01*
X697120Y587900D02*
X690880Y587900D01*
X701040Y591820D02*
X701040Y596900D01*
X703580Y599440D01*
X711073Y599440D01*
X701040Y591820D02*
X697120Y587900D01*
X711073Y592940D02*
X711073Y599440D01*
D52*
X654050Y71120D02*
X654050Y40640D01*
X654050Y15240D01*
D46*
X344922Y635838D02*
X342062Y635838D01*
X339240Y638660D02*
X339240Y643530D01*
X339240Y638660D02*
X342062Y635838D01*
D44*
X622485Y19125D02*
X622300Y18940D01*
X614680Y18940D01*
X604520Y18940D01*
X508000Y18940D02*
X497840Y18940D01*
D42*
X506690Y6900D03*
X542095Y6087D03*
X577655Y6087D03*
X613215Y6087D03*
D44*
X515620Y18940D02*
X508000Y18940D01*
D52*
X643090Y31825D02*
X643090Y38570D01*
X645160Y40640D01*
X654050Y40640D01*
D43*
X506690Y17630D02*
X506690Y6900D01*
X506690Y17630D02*
X508000Y18940D01*
X542095Y17475D02*
X542095Y6087D01*
X542095Y17475D02*
X543560Y18940D01*
X577655Y17475D02*
X577655Y6087D01*
X577655Y17475D02*
X579120Y18940D01*
X613215Y17475D02*
X613215Y6087D01*
X613215Y17475D02*
X614680Y18940D01*
D54*
X748030Y207010D02*
X748030Y226568D01*
X748030Y207010D02*
X744220Y203200D01*
D58*
X744220Y203200D03*
D54*
X760730Y205765D02*
X760730Y226568D01*
X760730Y205765D02*
X758017Y203052D01*
D58*
X758017Y203052D03*
D54*
X773430Y204795D02*
X773430Y226568D01*
X773430Y204795D02*
X771807Y203172D01*
D58*
X771807Y203172D03*
D54*
X786130Y203746D02*
X786130Y226568D01*
X786130Y203746D02*
X785655Y203271D01*
D58*
X785655Y203271D03*
D49*
X847941Y352209D02*
X847941Y368474D01*
X864870Y335280D02*
X869950Y335280D01*
X864870Y335280D02*
X847941Y352209D01*
D44*
X888338Y316892D02*
X901094Y316892D01*
X888338Y316892D02*
X869950Y335280D01*
D49*
X847861Y419599D02*
X847861Y435639D01*
X866140Y401320D02*
X869950Y401320D01*
X866140Y401320D02*
X847861Y419599D01*
D54*
X750570Y363728D02*
X750570Y349250D01*
X746760Y347980D01*
D58*
X746760Y347980D03*
D54*
X763270Y350537D02*
X763270Y363728D01*
X763270Y350537D02*
X760713Y347980D01*
D58*
X760713Y347980D03*
D54*
X775970Y349168D02*
X775970Y363728D01*
X775970Y349168D02*
X774782Y347980D01*
D58*
X774782Y347980D03*
D54*
X788670Y347980D02*
X788670Y363728D01*
X788670Y347980D02*
X789940Y347980D01*
D58*
X789940Y347980D03*
D44*
X869950Y401320D02*
X876953Y394317D01*
X901163Y394317D01*
X869950Y469900D02*
X870585Y470535D01*
D56*
X748030Y496570D02*
X748030Y513588D01*
X748030Y496570D02*
X746760Y495300D01*
D58*
X746760Y495300D03*
D56*
X760730Y495438D02*
X760730Y513588D01*
X760730Y495438D02*
X760868Y495300D01*
D58*
X760868Y495300D03*
D56*
X773430Y496059D02*
X773430Y513588D01*
X773430Y496059D02*
X774189Y495300D01*
D58*
X774189Y495300D03*
D56*
X786130Y497416D02*
X786130Y513588D01*
X786130Y497416D02*
X788246Y495300D01*
D58*
X788246Y495300D03*
D48*
X834019Y586297D02*
X834462Y586740D01*
D49*
X891425Y586740D01*
X919284Y558881D01*
X919284Y523118D02*
X870585Y474419D01*
X870585Y470535D01*
X919284Y523118D02*
X919284Y558881D01*
D44*
X901165Y465483D02*
X869950Y465483D01*
X869950Y469900D01*
D43*
X507080Y464652D02*
X507080Y488600D01*
X581526Y568826D02*
X591820Y579120D01*
X721360Y579120D01*
X581526Y568826D02*
X581526Y490702D01*
X579178Y488353D01*
D42*
X579178Y488353D03*
X507080Y488600D03*
D43*
X731647Y589407D02*
X731647Y592940D01*
X731647Y589407D02*
X721360Y579120D01*
X552080Y464652D02*
X552080Y453760D01*
X558800Y447040D01*
D42*
X558800Y447040D03*
X721360Y439420D03*
D43*
X731520Y439420D01*
X734187Y442087D01*
X734187Y448160D01*
X547080Y435900D02*
X547080Y464652D01*
X547080Y435900D02*
X556260Y426720D01*
D42*
X556260Y426720D03*
D43*
X724027Y308460D02*
X724027Y304927D01*
X695960Y302260D02*
X692439Y298739D01*
X645301Y298739D01*
D42*
X645301Y298739D03*
D43*
X721360Y302260D02*
X724027Y304927D01*
X721360Y302260D02*
X695960Y302260D01*
X314787Y315437D02*
X299720Y315437D01*
X314787Y315437D02*
X315580Y316230D01*
D52*
X156210Y266192D02*
X118110Y266192D01*
X178074Y193041D02*
X178281Y137505D01*
X178074Y193041D02*
X177800Y266700D01*
X178281Y137505D02*
X120939Y137505D01*
X109152Y142648D01*
X80512Y142648D02*
X80170Y142650D01*
D46*
X205740Y185420D02*
X217060Y185420D01*
X203200Y182880D02*
X188235Y182880D01*
X178074Y193041D01*
D44*
X87955Y134084D02*
X87955Y126464D01*
X87955Y134084D02*
X80512Y141527D01*
X80512Y142648D01*
D43*
X55880Y116840D02*
X51948Y120772D01*
X55880Y116840D02*
X87955Y116840D01*
X87955Y126464D01*
D42*
X203200Y182880D03*
D43*
X51948Y126537D02*
X51948Y120772D01*
D52*
X80512Y142648D02*
X109152Y142648D01*
D46*
X203200Y182880D02*
X205740Y185420D01*
D52*
X118110Y194384D02*
X87832Y194384D01*
X118110Y194384D02*
X118110Y211328D01*
X117106Y149150D02*
X80170Y149150D01*
X117816Y149860D02*
X128160Y149860D01*
X117816Y149860D02*
X117106Y149150D01*
X125660Y186834D02*
X118110Y194384D01*
X125660Y186834D02*
X125660Y172720D01*
X125660Y162520D01*
X128160Y160020D02*
X128160Y149860D01*
X128160Y160020D02*
X125660Y162520D01*
X146160Y149860D02*
X152400Y149860D01*
X154940Y152400D01*
X154940Y171520D02*
X153740Y172720D01*
X154940Y171520D02*
X154940Y152400D01*
X154940Y172720D02*
X148660Y172720D01*
X154940Y172720D02*
X154940Y195580D01*
X153740Y172720D02*
X148660Y172720D01*
X154940Y172720D02*
X154940Y171520D01*
D46*
X104410Y155650D02*
X80170Y155650D01*
X104410Y155650D02*
X106680Y157920D01*
X106680Y185352D01*
X104072Y187960D01*
X78740Y187960D02*
X73660Y193040D01*
X78740Y187960D02*
X104072Y187960D01*
X96968Y177753D02*
X96968Y166248D01*
X92870Y162150D01*
X80170Y162150D01*
D54*
X330708Y399034D02*
X343408Y399034D01*
X330708Y399034D02*
X318008Y399034D01*
X305308Y399034D01*
X268224Y402082D02*
X260350Y409956D01*
X297568Y399034D02*
X305308Y399034D01*
X294520Y402082D02*
X268224Y402082D01*
X294520Y402082D02*
X297568Y399034D01*
X260350Y409956D02*
X260350Y425196D01*
X267462Y432308D01*
X267462Y454660D01*
D46*
X464075Y379644D02*
X477072Y379644D01*
X464075Y379644D02*
X454660Y370229D01*
X454660Y314960D01*
X472440Y297180D01*
X472440Y292100D01*
D45*
X472440Y213360D03*
D46*
X472440Y292100D01*
D42*
X457200Y198120D03*
D46*
X459740Y290940D02*
X460900Y292100D01*
X472440Y292100D01*
X459740Y195580D02*
X459740Y174200D01*
X459740Y195580D02*
X457200Y198120D01*
X460844Y384644D02*
X477072Y384644D01*
X460844Y384644D02*
X447040Y370840D01*
X447040Y223520D01*
X447040Y215900D01*
X458580Y223520D02*
X459740Y224680D01*
X458580Y223520D02*
X447040Y223520D01*
X447040Y215900D02*
X454660Y215900D01*
X459740Y210820D02*
X464740Y205820D01*
X459740Y210820D02*
X454660Y215900D01*
X464740Y205820D02*
X464740Y174200D01*
D45*
X459740Y210820D03*
D46*
X462872Y371857D02*
X465659Y374644D01*
X477072Y374644D01*
X462872Y371857D02*
X462872Y313436D01*
X482600Y293709D01*
X482600Y162560D01*
X477640Y157600D01*
X471340Y157600D01*
D43*
X685394Y143826D02*
X685394Y133666D01*
X685394Y143826D02*
X674280Y154940D01*
X664320Y154940D01*
X465836Y590296D02*
X469900Y594360D01*
X469900Y628540D01*
D46*
X473820Y632460D01*
D43*
X465836Y590296D02*
X453898Y590296D01*
X453898Y630538D02*
X455820Y632460D01*
X453898Y630538D02*
X453898Y616204D01*
X496460Y612424D02*
X496460Y640080D01*
X499030Y609854D02*
X511302Y609854D01*
X499030Y609854D02*
X496460Y612424D01*
X514460Y619644D02*
X514460Y640080D01*
X511302Y616486D02*
X511302Y616204D01*
X511302Y616486D02*
X514460Y619644D01*
X453898Y609854D02*
X440326Y609854D01*
X431800Y618380D01*
X431800Y623460D01*
X511302Y603250D02*
X533290Y603250D01*
X533400Y603140D01*
D42*
X284480Y563880D03*
D43*
X511302Y570738D02*
X545338Y570738D01*
X594360Y619760D01*
D42*
X487680Y576580D03*
D43*
X493522Y570738D01*
X511302Y570738D01*
X284480Y563880D02*
X284480Y555100D01*
X594360Y619760D02*
X647700Y619760D01*
X652780Y624840D01*
X652780Y650240D01*
D42*
X291958Y526624D03*
D43*
X511302Y564388D02*
X549148Y564388D01*
X596900Y612140D01*
D42*
X488488Y563856D03*
D43*
X489020Y564388D01*
X511302Y564388D01*
D44*
X284480Y519146D02*
X284480Y517000D01*
D43*
X596900Y612140D02*
X650240Y612140D01*
X678180Y640080D01*
X678180Y647700D01*
D46*
X291958Y526624D02*
X284480Y519146D01*
D42*
X601662Y545173D03*
D43*
X511645Y545173D02*
X511302Y544830D01*
X645160Y434340D02*
X620464Y409644D01*
X645160Y434340D02*
X645160Y537236D01*
X637222Y545173D01*
X601662Y545173D01*
X592088Y409644D02*
X620464Y409644D01*
D42*
X525760Y545173D03*
D43*
X511645Y545173D01*
D42*
X495300Y596900D03*
D43*
X511302Y596900D01*
D45*
X388620Y609600D03*
D43*
X408939Y444501D02*
X413773Y439668D01*
X408939Y444501D02*
X408939Y601980D01*
X413773Y439668D02*
X477048Y439668D01*
X477072Y439644D01*
X401319Y609600D02*
X388620Y609600D01*
X401319Y609600D02*
X408939Y601980D01*
D44*
X332740Y626220D02*
X304800Y626220D01*
X332740Y626220D02*
X332740Y626470D01*
D43*
X360613Y626287D02*
X360680Y626220D01*
X360613Y626287D02*
X332740Y626470D01*
X360680Y626220D02*
X377080Y626220D01*
X388620Y614680D02*
X388620Y609600D01*
X388620Y614680D02*
X377080Y626220D01*
X289482Y240230D02*
X289725Y239988D01*
X315057Y239988D01*
X269240Y258170D02*
X268990Y257920D01*
X248920Y257920D01*
X269240Y258170D02*
X289422Y258170D01*
X289482Y258230D01*
X248920Y239920D02*
X228600Y239920D01*
D45*
X236220Y223520D03*
D43*
X232300Y223520D01*
X228600Y227220D01*
X228600Y239920D01*
D46*
X466896Y424644D02*
X477072Y424644D01*
X466896Y424644D02*
X462280Y429260D01*
X406400Y429260D01*
X403860Y431800D01*
D42*
X403860Y431800D03*
D45*
X403860Y307340D03*
D43*
X389848Y239988D02*
X379857Y239988D01*
X402700Y252840D02*
X402700Y271780D01*
X402700Y252840D02*
X389848Y239988D01*
X402700Y271780D02*
X402700Y289560D01*
D52*
X402700Y306180D01*
X403860Y307340D01*
D43*
X622300Y54500D02*
X622300Y36940D01*
X604520Y36940D02*
X604520Y54500D01*
X586740Y54500D02*
X586740Y36940D01*
X568960Y36940D02*
X568960Y54500D01*
X631300Y154940D02*
X646320Y154940D01*
X551180Y556260D02*
X556260Y561340D01*
X551180Y556260D02*
X541782Y556260D01*
X536702Y551180D01*
X511302Y551180D01*
D42*
X556260Y561340D03*
D43*
X551180Y54500D02*
X551180Y36940D01*
X533400Y36940D02*
X533400Y54500D01*
X515620Y54500D02*
X515620Y36940D01*
X497840Y36940D02*
X497840Y54500D01*
X670699Y548501D02*
X670699Y558356D01*
X679482Y539718D02*
X697642Y539718D01*
X679482Y539718D02*
X670699Y548501D01*
X650240Y528320D02*
X650240Y431800D01*
X623084Y404644D01*
X592088Y404644D01*
X650240Y528320D02*
X670699Y548779D01*
X670699Y558356D01*
D42*
X509435Y446657D03*
X518096Y446868D03*
D46*
X517080Y447884D02*
X517080Y464652D01*
D44*
X517080Y447884D02*
X518096Y446868D01*
D46*
X512080Y449302D02*
X509435Y446657D01*
X512080Y449302D02*
X512080Y464652D01*
X443870Y375691D02*
X425895Y375691D01*
X457824Y389644D02*
X477072Y389644D01*
X457824Y389644D02*
X443870Y375691D01*
X425895Y375691D02*
X416943Y384643D01*
X435798Y384776D02*
X445179Y384776D01*
X455048Y394644D02*
X477072Y394644D01*
X455048Y394644D02*
X445179Y384776D01*
X419100Y307340D02*
X420370Y306070D01*
X420370Y224790D01*
X318880Y123300D02*
X318880Y99060D01*
X318880Y123300D02*
X420370Y224790D01*
D42*
X419100Y307340D03*
X429260Y464820D03*
D46*
X429428Y464652D01*
X497080Y464652D01*
D52*
X471170Y73660D02*
X471170Y50800D01*
D42*
X480060Y91440D03*
D52*
X471170Y50800D02*
X471170Y17780D01*
D46*
X480060Y91440D02*
X461120Y91440D01*
D42*
X480060Y307340D03*
X480060Y340360D03*
X480060Y454660D03*
D43*
X487680Y454660D01*
X490220Y452120D01*
X490220Y431800D01*
X488064Y429644D01*
X477072Y429644D01*
X480060Y340360D02*
X480060Y307340D01*
X480060Y91440D02*
X480060Y53340D01*
X477520Y50800D01*
X471170Y50800D01*
D51*
X395080Y86360D02*
X395080Y106680D01*
X404287Y115887D01*
X404287Y138113D02*
X395080Y147320D01*
X404287Y138113D02*
X404287Y115887D01*
D46*
X395080Y172720D02*
X438491Y216131D01*
X395080Y172720D02*
X395080Y147320D01*
X438491Y216131D02*
X438491Y347051D01*
X439420Y347980D01*
D42*
X439420Y347980D03*
X469900Y347980D03*
D46*
X477104Y347980D02*
X502786Y373663D01*
X477104Y347980D02*
X469900Y347980D01*
X542080Y439420D02*
X542080Y464652D01*
D43*
X502786Y431666D02*
X502786Y373663D01*
X502786Y431666D02*
X508000Y436880D01*
X539540Y436880D01*
X542080Y439420D01*
D46*
X592088Y419644D02*
X614873Y419644D01*
X627385Y432155D01*
X627385Y459255D01*
D43*
X459740Y520700D02*
X454660Y525780D01*
X459740Y520700D02*
X561340Y520700D01*
X567108Y514932D01*
X567108Y464681D01*
X567080Y464652D01*
X454660Y525780D02*
X454660Y531114D01*
X453898Y531876D01*
X567944Y531876D02*
X572174Y527646D01*
X572174Y464746D01*
X572080Y464652D01*
X567944Y531876D02*
X511302Y531876D01*
X548132Y583692D02*
X576580Y612140D01*
X576580Y647700D01*
X548132Y583692D02*
X511302Y583692D01*
D42*
X469900Y543560D03*
D43*
X468630Y544830D02*
X453898Y544830D01*
X468630Y544830D02*
X469900Y543560D01*
X592088Y414644D02*
X618096Y414644D01*
X640080Y436628D02*
X640080Y518160D01*
X632460Y525780D01*
X607060Y525780D01*
D42*
X607060Y525780D03*
D43*
X640080Y436628D02*
X618096Y414644D01*
X497080Y138940D02*
X495300Y137160D01*
D42*
X495300Y137160D03*
X627380Y134620D03*
D43*
X628540Y133460D02*
X647700Y133460D01*
X628540Y133460D02*
X627380Y134620D01*
X497080Y138940D02*
X497080Y349636D01*
X647906Y133666D02*
X666394Y133666D01*
X647906Y133666D02*
X647700Y133460D01*
D42*
X721360Y68580D03*
D46*
X746760Y68580D01*
X552080Y334380D02*
X552080Y349636D01*
X552080Y334380D02*
X556260Y330200D01*
X556260Y165100D01*
X640080Y81280D01*
X660400Y81280D01*
X665480Y76200D01*
X665480Y68580D01*
D42*
X665480Y68580D03*
D46*
X557080Y337000D02*
X557080Y349636D01*
X562196Y331884D02*
X562196Y169324D01*
X562196Y331884D02*
X557080Y337000D01*
X562196Y169324D02*
X642620Y88900D01*
D42*
X642620Y88900D03*
X721360Y55880D03*
D46*
X746760Y55880D01*
X567080Y175954D02*
X567080Y349636D01*
X567080Y175954D02*
X635000Y108034D01*
X635000Y106680D01*
D42*
X635000Y106680D03*
X721360Y43180D03*
D46*
X746760Y43180D01*
D43*
X723900Y17780D02*
X720598Y14478D01*
X723900Y17780D02*
X746760Y17780D01*
X690434Y109666D02*
X685394Y109666D01*
X690434Y109666D02*
X701040Y99060D01*
X701040Y48260D01*
D52*
X692150Y43180D02*
X692150Y15240D01*
X692150Y43180D02*
X692150Y71120D01*
D43*
X701040Y48260D02*
X695960Y43180D01*
X692150Y43180D01*
X692912Y14478D02*
X720598Y14478D01*
X692912Y14478D02*
X692150Y15240D01*
X674238Y273182D02*
X674238Y286339D01*
X680932Y266488D02*
X703198Y266488D01*
X680932Y266488D02*
X674238Y273182D01*
X674238Y286339D02*
X638221Y286339D01*
X627380Y297180D01*
X626305Y384644D02*
X592088Y384644D01*
X626305Y384644D02*
X627987Y382962D01*
D42*
X627987Y382962D03*
X627380Y360680D03*
D43*
X627380Y297180D01*
D46*
X300880Y99060D02*
X300880Y78740D01*
D42*
X477520Y528320D03*
X579120Y472440D03*
D43*
X579120Y396240D01*
X546100Y363220D01*
X535940Y363220D01*
X532080Y359360D01*
X532080Y349636D01*
X477520Y551180D02*
X470916Y557784D01*
X477520Y551180D02*
X477520Y528320D01*
X470916Y557784D02*
X453898Y557784D01*
D42*
X526917Y446657D03*
X535690Y446269D03*
D46*
X527080Y454879D01*
X522080Y451494D02*
X522080Y464652D01*
X522080Y451494D02*
X526917Y446657D01*
X527080Y454879D02*
X527080Y464652D01*
D43*
X341906Y498845D02*
X341906Y507006D01*
X351900Y517000D02*
X360680Y517000D01*
X351900Y517000D02*
X341906Y507006D01*
X341438Y539140D02*
X341438Y547178D01*
X346820Y552560D02*
X360680Y552560D01*
X346820Y552560D02*
X341438Y547178D01*
X712476Y232416D02*
X712476Y223512D01*
X712476Y232416D02*
X716280Y236220D01*
X726440Y236220D01*
X730122Y239902D01*
X730122Y247488D01*
D44*
X730476Y223512D02*
X734052Y223512D01*
X739140Y228600D01*
X739140Y236220D01*
X762000Y259080D01*
X777240Y259080D02*
X779780Y261620D01*
D42*
X779780Y261620D03*
X786340Y295453D03*
D44*
X786130Y295243D01*
X786130Y281432D01*
X777240Y259080D02*
X762000Y259080D01*
D43*
X710825Y498125D02*
X710825Y507625D01*
X713740Y510540D02*
X721360Y510540D01*
X724566Y513746D01*
X724566Y520718D01*
X713740Y510540D02*
X710825Y507625D01*
X728825Y498125D02*
X739140Y508440D01*
X739140Y525780D01*
X754380Y541020D01*
X782320Y541020D01*
D42*
X782320Y541020D03*
X784860Y581660D03*
D43*
X786130Y580390D01*
X786130Y568452D01*
D44*
X727530Y379617D02*
X727530Y377010D01*
X712479Y369579D02*
X712479Y360438D01*
X723900Y373380D02*
X727530Y377010D01*
X723900Y373380D02*
X716280Y373380D01*
X712479Y369579D01*
X730479Y362978D02*
X751042Y383540D01*
X730479Y362978D02*
X730479Y360438D01*
X751042Y383540D02*
X775527Y383540D01*
X783566Y391579D01*
D42*
X783566Y391579D03*
X788646Y431980D03*
D44*
X788646Y418616D01*
X788670Y418592D01*
D43*
X730067Y156180D02*
X730067Y153640D01*
X713772Y137345D01*
X713772Y123048D01*
D44*
X731772Y123048D02*
X760588Y123048D01*
X786130Y148590D02*
X786130Y159512D01*
X786130Y148590D02*
X760588Y123048D01*
X918256Y132096D02*
X918263Y132089D01*
X918256Y132096D02*
X900314Y132096D01*
X901208Y334778D02*
X901094Y334892D01*
X901208Y334778D02*
X918251Y334778D01*
D46*
X918499Y412564D02*
X918575Y412748D01*
D44*
X901163Y412317D01*
X901180Y483468D02*
X901165Y483483D01*
X901180Y483468D02*
X918494Y483468D01*
D46*
X250080Y149860D02*
X235060Y149860D01*
X235060Y185420D02*
X250080Y185420D01*
X250080Y167640D02*
X235060Y167640D01*
D44*
X33948Y139928D02*
X33948Y126537D01*
X33948Y139928D02*
X36670Y142650D01*
D51*
X377080Y127000D02*
X377080Y106680D01*
D45*
X622300Y83820D03*
D46*
X622300Y72500D01*
D42*
X558800Y365760D03*
X548640Y274320D03*
D46*
X538480Y167640D02*
X622300Y83820D01*
X538480Y264160D02*
X548640Y274320D01*
X538480Y264160D02*
X538480Y167640D01*
X562080Y362480D02*
X558800Y365760D01*
X562080Y362480D02*
X562080Y349636D01*
X547080Y334300D02*
X551180Y330200D01*
D45*
X604837Y84253D03*
D46*
X547080Y334300D02*
X547080Y349636D01*
X551180Y330200D02*
X551180Y287020D01*
X533694Y269534D01*
X533694Y154646D01*
X604087Y84253D02*
X604837Y84253D01*
X604087Y84253D02*
X533694Y154646D01*
X604520Y83936D02*
X604837Y84253D01*
X604520Y83936D02*
X604520Y72500D01*
D45*
X586740Y83820D03*
D42*
X528320Y365760D03*
D46*
X527080Y364520D01*
D42*
X530860Y281940D03*
D46*
X529203Y280283D01*
X529203Y141357D01*
X586740Y83820D01*
X586740Y72500D01*
X527080Y349636D02*
X527080Y364520D01*
D45*
X568960Y83820D03*
D42*
X517812Y365747D03*
D46*
X522080Y361480D01*
D42*
X523240Y274026D03*
D46*
X523240Y129540D01*
X568960Y83820D01*
X568960Y72500D01*
X522080Y349636D02*
X522080Y361480D01*
X517080Y349636D02*
X517080Y117920D01*
X551180Y83820D01*
D45*
X551180Y83820D03*
D46*
X551180Y72500D01*
X512080Y105140D02*
X512080Y349636D01*
X512080Y105140D02*
X533400Y83820D01*
D45*
X533400Y83820D03*
D46*
X533400Y72500D01*
X507080Y92360D02*
X507080Y349636D01*
X507080Y92360D02*
X515620Y83820D01*
D45*
X515620Y83820D03*
D46*
X515620Y72500D01*
X502080Y88060D02*
X502080Y349636D01*
X502080Y88060D02*
X497840Y83820D01*
D45*
X497840Y83820D03*
D46*
X497840Y72500D01*
D42*
X576580Y322580D03*
D46*
X576580Y345561D01*
X572189Y349952D01*
D43*
X353360Y86360D02*
X353360Y59060D01*
X353360Y86360D02*
X377080Y86360D01*
X346860Y73660D02*
X346860Y59060D01*
X346860Y73660D02*
X346860Y133500D01*
X431800Y218440D01*
X431800Y358140D01*
X435798Y362138D02*
X435798Y366776D01*
X435798Y362138D02*
X431800Y358140D01*
X340360Y134620D02*
X340360Y59060D01*
X340360Y134620D02*
X426720Y220980D01*
X426720Y355600D01*
X416943Y365377D02*
X416943Y366643D01*
X416943Y365377D02*
X426720Y355600D01*
D46*
X362458Y461620D02*
X362458Y472042D01*
X359520Y474980D01*
X354440Y474980D01*
D42*
X332740Y81280D03*
D46*
X333689Y80331D01*
X333689Y58867D01*
X343408Y453898D02*
X343408Y461772D01*
X336440Y468740D02*
X336440Y474980D01*
X336440Y468740D02*
X343408Y461772D01*
D43*
X429260Y186800D02*
X440580Y186800D01*
X448140Y179240D01*
X448140Y172600D01*
X749300Y609600D02*
X758160Y609600D01*
X749300Y609600D02*
X745640Y605940D01*
D54*
X748273Y583408D02*
X748030Y568452D01*
X760730Y568452D02*
X760724Y583164D01*
X773419Y583408D02*
X773430Y568452D01*
D50*
X760480Y583408D02*
X748273Y583408D01*
X760480Y583408D02*
X760724Y583164D01*
X758184Y583164D01*
X760724Y583164D02*
X773175Y583164D01*
X773419Y583408D01*
X758184Y609576D02*
X758160Y609600D01*
X758184Y609576D02*
X758184Y583164D01*
D43*
X745640Y605940D02*
X731647Y605940D01*
X751840Y459740D02*
X765780Y459740D01*
D54*
X750513Y434381D02*
X750570Y418592D01*
X763270Y418592D02*
X763224Y434381D01*
X776076Y434523D02*
X775970Y418592D01*
D50*
X763224Y434381D02*
X750513Y434381D01*
X763224Y434381D02*
X776076Y434523D01*
X765780Y436938D02*
X763224Y434381D01*
X765780Y436938D02*
X765780Y459740D01*
D43*
X750420Y461160D02*
X734187Y461160D01*
X750420Y461160D02*
X751840Y459740D01*
X763890Y319390D02*
X765780Y317500D01*
X763890Y319390D02*
X761350Y319390D01*
X763890Y319390D02*
X765810Y319390D01*
X761350Y319390D02*
X759280Y321460D01*
X724027Y321460D01*
D54*
X748030Y295917D02*
X748030Y281432D01*
X760730Y281432D02*
X760730Y295907D01*
X773430Y296132D02*
X773430Y281432D01*
D50*
X760720Y295917D02*
X748030Y295917D01*
X760720Y295917D02*
X760730Y295907D01*
X765810Y295907D01*
X773205Y295907D01*
X773430Y296132D01*
X765810Y295907D02*
X765810Y319390D01*
D42*
X619760Y447040D03*
D46*
X619681Y447040D01*
X607332Y434691D01*
X592116Y434691D01*
D42*
X617990Y433039D03*
D46*
X616295Y431345D01*
X609378Y431345D01*
X607679Y429646D01*
X592747Y429646D01*
D42*
X611817Y425470D03*
D46*
X611027Y424680D01*
X592234Y424680D01*
D42*
X637540Y406400D03*
D46*
X630876Y399736D01*
X592784Y399736D01*
D42*
X640080Y386080D03*
D46*
X636459Y389701D01*
X593126Y389701D01*
D42*
X640080Y373380D03*
D43*
X627380Y373380D01*
X621081Y379679D02*
X591447Y379679D01*
X621081Y379679D02*
X627380Y373380D01*
D42*
X640080Y363220D03*
D43*
X637540Y363220D01*
X632460Y368300D01*
X622300Y368300D01*
X615992Y374608D02*
X591286Y374608D01*
X615992Y374608D02*
X622300Y368300D01*
D42*
X429607Y570457D03*
D46*
X454415Y570457D01*
D42*
X436880Y563880D03*
D46*
X454660Y563880D01*
D42*
X436880Y551180D03*
D46*
X454660Y551180D01*
D42*
X436880Y538480D03*
D46*
X452120Y538480D01*
D42*
X531860Y557524D03*
D46*
X511707Y557524D01*
D42*
X531165Y577448D03*
D46*
X510549Y577448D01*
D42*
X531397Y590422D03*
D46*
X506602Y590422D01*
D43*
X511302Y538226D02*
X533146Y538226D01*
X538480Y543560D01*
X549800Y543560D01*
M02*
