G04 EAGLE Gerber RS-274X export*
G75*
%MOMM*%
%FSLAX34Y34*%
%LPD*%
%INBottom Silkscreen*%
%IPPOS*%
%AMOC8*
5,1,8,0,0,1.08239X$1,22.5*%
G01*
%ADD10C,0.076200*%
%ADD11C,0.152400*%
%ADD12C,0.203200*%
%ADD13C,0.127000*%
%ADD14C,0.254000*%
%ADD15C,0.101600*%
%ADD16C,0.050800*%
%ADD17C,0.000000*%
%ADD18C,0.200000*%
%ADD19C,0.140000*%

G36*
X563987Y475897D02*
X563987Y475897D01*
X563989Y475896D01*
X564032Y475916D01*
X564075Y475934D01*
X564076Y475936D01*
X564078Y475937D01*
X564111Y476022D01*
X564111Y478562D01*
X564110Y478564D01*
X564111Y478566D01*
X564091Y478609D01*
X564073Y478653D01*
X564071Y478653D01*
X564070Y478655D01*
X563985Y478688D01*
X560175Y478688D01*
X560173Y478687D01*
X560171Y478688D01*
X560128Y478668D01*
X560084Y478650D01*
X560083Y478648D01*
X560081Y478647D01*
X560049Y478562D01*
X560049Y476022D01*
X560049Y476020D01*
X560049Y476018D01*
X560068Y475975D01*
X560087Y475931D01*
X560089Y475930D01*
X560090Y475929D01*
X560175Y475896D01*
X563985Y475896D01*
X563987Y475897D01*
G37*
G36*
X513987Y475897D02*
X513987Y475897D01*
X513989Y475896D01*
X514032Y475916D01*
X514075Y475934D01*
X514076Y475936D01*
X514078Y475937D01*
X514111Y476022D01*
X514111Y478562D01*
X514110Y478564D01*
X514111Y478566D01*
X514091Y478609D01*
X514073Y478653D01*
X514071Y478653D01*
X514070Y478655D01*
X513985Y478688D01*
X510175Y478688D01*
X510173Y478687D01*
X510171Y478688D01*
X510128Y478668D01*
X510084Y478650D01*
X510083Y478648D01*
X510081Y478647D01*
X510049Y478562D01*
X510049Y476022D01*
X510049Y476020D01*
X510049Y476018D01*
X510068Y475975D01*
X510087Y475931D01*
X510089Y475930D01*
X510090Y475929D01*
X510175Y475896D01*
X513985Y475896D01*
X513987Y475897D01*
G37*
G36*
X465704Y412614D02*
X465704Y412614D01*
X465706Y412613D01*
X465749Y412633D01*
X465792Y412651D01*
X465793Y412653D01*
X465795Y412654D01*
X465828Y412739D01*
X465828Y416549D01*
X465827Y416551D01*
X465828Y416553D01*
X465808Y416596D01*
X465790Y416640D01*
X465788Y416640D01*
X465787Y416642D01*
X465702Y416675D01*
X463162Y416675D01*
X463160Y416674D01*
X463158Y416675D01*
X463115Y416655D01*
X463071Y416637D01*
X463070Y416635D01*
X463068Y416634D01*
X463036Y416549D01*
X463036Y412739D01*
X463036Y412737D01*
X463036Y412735D01*
X463055Y412692D01*
X463074Y412648D01*
X463076Y412647D01*
X463077Y412646D01*
X463162Y412613D01*
X465702Y412613D01*
X465704Y412614D01*
G37*
G36*
X606000Y407614D02*
X606000Y407614D01*
X606002Y407613D01*
X606045Y407633D01*
X606088Y407651D01*
X606089Y407653D01*
X606091Y407654D01*
X606124Y407739D01*
X606124Y411549D01*
X606123Y411551D01*
X606124Y411553D01*
X606104Y411596D01*
X606086Y411640D01*
X606084Y411640D01*
X606083Y411642D01*
X605998Y411675D01*
X603458Y411675D01*
X603456Y411674D01*
X603454Y411675D01*
X603411Y411655D01*
X603367Y411637D01*
X603366Y411635D01*
X603364Y411634D01*
X603332Y411549D01*
X603332Y407739D01*
X603332Y407737D01*
X603332Y407735D01*
X603351Y407692D01*
X603370Y407648D01*
X603372Y407647D01*
X603373Y407646D01*
X603458Y407613D01*
X605998Y407613D01*
X606000Y407614D01*
G37*
G36*
X518987Y335601D02*
X518987Y335601D01*
X518989Y335600D01*
X519032Y335620D01*
X519075Y335638D01*
X519076Y335640D01*
X519078Y335641D01*
X519111Y335726D01*
X519111Y338266D01*
X519110Y338268D01*
X519111Y338270D01*
X519091Y338313D01*
X519073Y338357D01*
X519071Y338357D01*
X519070Y338359D01*
X518985Y338392D01*
X515175Y338392D01*
X515173Y338391D01*
X515171Y338392D01*
X515128Y338372D01*
X515084Y338354D01*
X515083Y338352D01*
X515081Y338351D01*
X515049Y338266D01*
X515049Y335726D01*
X515049Y335724D01*
X515049Y335722D01*
X515068Y335679D01*
X515087Y335635D01*
X515089Y335634D01*
X515090Y335633D01*
X515175Y335600D01*
X518985Y335600D01*
X518987Y335601D01*
G37*
G36*
X568987Y335601D02*
X568987Y335601D01*
X568989Y335600D01*
X569032Y335620D01*
X569075Y335638D01*
X569076Y335640D01*
X569078Y335641D01*
X569111Y335726D01*
X569111Y338266D01*
X569110Y338268D01*
X569111Y338270D01*
X569091Y338313D01*
X569073Y338357D01*
X569071Y338357D01*
X569070Y338359D01*
X568985Y338392D01*
X565175Y338392D01*
X565173Y338391D01*
X565171Y338392D01*
X565128Y338372D01*
X565084Y338354D01*
X565083Y338352D01*
X565081Y338351D01*
X565049Y338266D01*
X565049Y335726D01*
X565049Y335724D01*
X565049Y335722D01*
X565068Y335679D01*
X565087Y335635D01*
X565089Y335634D01*
X565090Y335633D01*
X565175Y335600D01*
X568985Y335600D01*
X568987Y335601D01*
G37*
D10*
X684614Y672132D02*
X681479Y675267D01*
X681479Y665861D01*
X684614Y665861D02*
X678344Y665861D01*
X180943Y595829D02*
X179376Y597397D01*
X180943Y595829D02*
X180943Y592694D01*
X179376Y591126D01*
X173105Y591126D01*
X171537Y592694D01*
X171537Y595829D01*
X173105Y597397D01*
X176240Y597397D01*
X176240Y594262D01*
X171537Y600481D02*
X180943Y600481D01*
X180943Y605184D01*
X179376Y606752D01*
X176240Y606752D01*
X174673Y605184D01*
X174673Y600481D01*
X180943Y614540D02*
X179376Y616107D01*
X180943Y614540D02*
X180943Y611404D01*
X179376Y609837D01*
X177808Y609837D01*
X176240Y611404D01*
X176240Y614540D01*
X174673Y616107D01*
X173105Y616107D01*
X171537Y614540D01*
X171537Y611404D01*
X173105Y609837D01*
X236601Y587121D02*
X242872Y587121D01*
X246007Y590256D01*
X242872Y593392D01*
X236601Y593392D01*
X241304Y593392D02*
X241304Y587121D01*
X246007Y601179D02*
X244439Y602747D01*
X246007Y601179D02*
X246007Y598044D01*
X244439Y596476D01*
X238169Y596476D01*
X236601Y598044D01*
X236601Y601179D01*
X238169Y602747D01*
X246007Y610534D02*
X244439Y612102D01*
X246007Y610534D02*
X246007Y607399D01*
X244439Y605831D01*
X238169Y605831D01*
X236601Y607399D01*
X236601Y610534D01*
X238169Y612102D01*
X246007Y615187D02*
X246007Y621457D01*
X246007Y615187D02*
X236601Y615187D01*
X236601Y621457D01*
X241304Y618322D02*
X241304Y615187D01*
X246007Y624542D02*
X236601Y624542D01*
X236601Y630812D01*
X244439Y517192D02*
X246007Y515624D01*
X246007Y512489D01*
X244439Y510921D01*
X242872Y510921D01*
X241304Y512489D01*
X241304Y515624D01*
X239736Y517192D01*
X238169Y517192D01*
X236601Y515624D01*
X236601Y512489D01*
X238169Y510921D01*
X236601Y520276D02*
X246007Y520276D01*
X246007Y524979D01*
X244439Y526547D01*
X241304Y526547D01*
X239736Y524979D01*
X239736Y520276D01*
X246007Y529631D02*
X246007Y535902D01*
X246007Y529631D02*
X236601Y529631D01*
X236601Y535902D01*
X241304Y532767D02*
X241304Y529631D01*
X246007Y538987D02*
X246007Y545257D01*
X246007Y538987D02*
X236601Y538987D01*
X236601Y545257D01*
X241304Y542122D02*
X241304Y538987D01*
X246007Y548342D02*
X236601Y548342D01*
X236601Y553045D01*
X238169Y554612D01*
X244439Y554612D01*
X246007Y553045D01*
X246007Y548342D01*
X181042Y526072D02*
X171636Y526072D01*
X181042Y522937D02*
X181042Y529207D01*
X181042Y532292D02*
X171636Y532292D01*
X181042Y532292D02*
X181042Y536995D01*
X179475Y538563D01*
X176339Y538563D01*
X174772Y536995D01*
X174772Y532292D01*
X174772Y535427D02*
X171636Y538563D01*
X171636Y541647D02*
X177907Y541647D01*
X181042Y544782D01*
X177907Y547918D01*
X171636Y547918D01*
X176339Y547918D02*
X176339Y541647D01*
X171636Y551002D02*
X181042Y551002D01*
X171636Y557273D01*
X181042Y557273D01*
X181042Y565060D02*
X179475Y566628D01*
X181042Y565060D02*
X181042Y561925D01*
X179475Y560357D01*
X177907Y560357D01*
X176339Y561925D01*
X176339Y565060D01*
X174772Y566628D01*
X173204Y566628D01*
X171636Y565060D01*
X171636Y561925D01*
X173204Y560357D01*
X180643Y478075D02*
X180643Y471804D01*
X171237Y471804D01*
X171237Y478075D01*
X175940Y474939D02*
X175940Y471804D01*
X171237Y481159D02*
X180643Y481159D01*
X171237Y487430D01*
X180643Y487430D01*
X177507Y490514D02*
X171237Y490514D01*
X177507Y490514D02*
X180643Y493650D01*
X177507Y496785D01*
X171237Y496785D01*
X175940Y496785D02*
X175940Y490514D01*
X236601Y475361D02*
X242872Y475361D01*
X246007Y478496D01*
X242872Y481632D01*
X236601Y481632D01*
X241304Y481632D02*
X241304Y475361D01*
X236601Y484716D02*
X246007Y484716D01*
X246007Y489419D01*
X244439Y490987D01*
X241304Y490987D01*
X239736Y489419D01*
X239736Y484716D01*
X239736Y487852D02*
X236601Y490987D01*
X236601Y494071D02*
X246007Y494071D01*
X242872Y497207D01*
X246007Y500342D01*
X236601Y500342D01*
X180313Y408906D02*
X170907Y408906D01*
X180313Y405771D02*
X180313Y412041D01*
X177178Y415126D02*
X170907Y415126D01*
X177178Y415126D02*
X180313Y418261D01*
X177178Y421397D01*
X170907Y421397D01*
X175610Y421397D02*
X175610Y415126D01*
X180313Y429184D02*
X178745Y430752D01*
X180313Y429184D02*
X180313Y426049D01*
X178745Y424481D01*
X172475Y424481D01*
X170907Y426049D01*
X170907Y429184D01*
X172475Y430752D01*
X170907Y433836D02*
X180313Y433836D01*
X175610Y433836D02*
X175610Y440107D01*
X180313Y440107D02*
X170907Y440107D01*
X236601Y394081D02*
X246007Y394081D01*
X241304Y394081D02*
X241304Y400352D01*
X246007Y400352D02*
X236601Y400352D01*
X246007Y405004D02*
X246007Y408139D01*
X246007Y405004D02*
X244439Y403436D01*
X238169Y403436D01*
X236601Y405004D01*
X236601Y408139D01*
X238169Y409707D01*
X244439Y409707D01*
X246007Y408139D01*
X246007Y412791D02*
X236601Y412791D01*
X246007Y412791D02*
X246007Y417494D01*
X244439Y419062D01*
X241304Y419062D01*
X239736Y417494D01*
X239736Y412791D01*
X239736Y415927D02*
X236601Y419062D01*
X236601Y422147D02*
X246007Y422147D01*
X236601Y428417D01*
X246007Y428417D01*
X867108Y666079D02*
X868676Y667647D01*
X871811Y667647D01*
X873379Y666079D01*
X873379Y659809D01*
X871811Y658241D01*
X868676Y658241D01*
X867108Y659809D01*
X867108Y662944D01*
X870244Y662944D01*
X864024Y658241D02*
X864024Y667647D01*
X857753Y658241D01*
X857753Y667647D01*
X854669Y667647D02*
X854669Y658241D01*
X849966Y658241D01*
X848398Y659809D01*
X848398Y666079D01*
X849966Y667647D01*
X854669Y667647D01*
X845313Y658241D02*
X842178Y658241D01*
X843746Y658241D02*
X843746Y667647D01*
X845313Y667647D02*
X842178Y667647D01*
X837509Y667647D02*
X834374Y667647D01*
X837509Y667647D02*
X839077Y666079D01*
X839077Y659809D01*
X837509Y658241D01*
X834374Y658241D01*
X832806Y659809D01*
X832806Y666079D01*
X834374Y667647D01*
X817499Y689912D02*
X814364Y693047D01*
X814364Y683641D01*
X817499Y683641D02*
X811228Y683641D01*
X808144Y683641D02*
X801873Y683641D01*
X808144Y683641D02*
X801873Y689912D01*
X801873Y691479D01*
X803441Y693047D01*
X806576Y693047D01*
X808144Y691479D01*
X798789Y693047D02*
X798789Y686776D01*
X795653Y683641D01*
X792518Y686776D01*
X792518Y693047D01*
D11*
X334518Y116085D02*
X334518Y108883D01*
X333077Y107442D01*
X330196Y107442D01*
X328756Y108883D01*
X328756Y116085D01*
X320841Y116085D02*
X319401Y114645D01*
X320841Y116085D02*
X323722Y116085D01*
X325163Y114645D01*
X325163Y113204D01*
X323722Y111764D01*
X320841Y111764D01*
X319401Y110323D01*
X319401Y108883D01*
X320841Y107442D01*
X323722Y107442D01*
X325163Y108883D01*
X315808Y107442D02*
X315808Y116085D01*
X311486Y116085D01*
X310045Y114645D01*
X310045Y113204D01*
X311486Y111764D01*
X310045Y110323D01*
X310045Y108883D01*
X311486Y107442D01*
X315808Y107442D01*
X315808Y111764D02*
X311486Y111764D01*
X297097Y108883D02*
X297097Y116085D01*
X297097Y108883D02*
X295657Y107442D01*
X292776Y107442D01*
X291335Y108883D01*
X291335Y116085D01*
X287742Y116085D02*
X287742Y107442D01*
X287742Y116085D02*
X283420Y116085D01*
X281980Y114645D01*
X281980Y111764D01*
X283420Y110323D01*
X287742Y110323D01*
D12*
X660439Y174202D02*
X660383Y184879D01*
X655044Y184851D01*
X653274Y183062D01*
X653293Y179503D01*
X655082Y177733D01*
X660420Y177761D01*
X656861Y177742D02*
X653321Y174165D01*
X648689Y184818D02*
X641571Y184781D01*
X648689Y184818D02*
X648745Y174141D01*
X641627Y174104D01*
X645158Y179461D02*
X648717Y179479D01*
X631657Y184729D02*
X629887Y182940D01*
X631657Y184729D02*
X635216Y184747D01*
X637005Y182977D01*
X637014Y181198D01*
X635244Y179409D01*
X631685Y179390D01*
X629915Y177601D01*
X629924Y175822D01*
X631713Y174052D01*
X635272Y174070D01*
X637042Y175859D01*
X625302Y184695D02*
X618184Y184658D01*
X625302Y184695D02*
X625357Y174018D01*
X618240Y173981D01*
X621771Y179338D02*
X625330Y179357D01*
X610105Y173938D02*
X610049Y184615D01*
X613608Y184634D02*
X606490Y184597D01*
D13*
X499745Y8895D02*
X499745Y4319D01*
X499745Y8895D02*
X498601Y10039D01*
X496313Y10039D01*
X495169Y8895D01*
X495169Y4319D01*
X496313Y3175D01*
X498601Y3175D01*
X499745Y4319D01*
X495169Y8895D01*
X515237Y10039D02*
X517525Y7751D01*
X515237Y10039D02*
X515237Y3175D01*
X517525Y3175D02*
X512949Y3175D01*
X530729Y3175D02*
X535305Y3175D01*
X530729Y7751D01*
X530729Y8895D01*
X531873Y10039D01*
X534161Y10039D01*
X535305Y8895D01*
X551941Y10039D02*
X553085Y8895D01*
X551941Y10039D02*
X549653Y10039D01*
X548509Y8895D01*
X548509Y7751D01*
X549653Y6607D01*
X550797Y6607D01*
X549653Y6607D02*
X548509Y5463D01*
X548509Y4319D01*
X549653Y3175D01*
X551941Y3175D01*
X553085Y4319D01*
X567433Y3175D02*
X567433Y10039D01*
X570865Y6607D01*
X566289Y6607D01*
X584069Y10039D02*
X588645Y10039D01*
X588645Y6607D01*
X586357Y7751D01*
X585213Y7751D01*
X584069Y6607D01*
X584069Y4319D01*
X585213Y3175D01*
X587501Y3175D01*
X588645Y4319D01*
X619629Y10039D02*
X624205Y10039D01*
X619629Y10039D02*
X619629Y8895D01*
X624205Y4319D01*
X624205Y3175D01*
D11*
X699262Y23622D02*
X707905Y23622D01*
X707905Y27944D01*
X706465Y29384D01*
X703584Y29384D01*
X702143Y27944D01*
X702143Y23622D01*
X702143Y26503D02*
X699262Y29384D01*
X707905Y32977D02*
X707905Y38739D01*
X707905Y32977D02*
X699262Y32977D01*
X699262Y38739D01*
X703584Y35858D02*
X703584Y32977D01*
X707905Y46654D02*
X706465Y48095D01*
X707905Y46654D02*
X707905Y43773D01*
X706465Y42332D01*
X705024Y42332D01*
X703584Y43773D01*
X703584Y46654D01*
X702143Y48095D01*
X700703Y48095D01*
X699262Y46654D01*
X699262Y43773D01*
X700703Y42332D01*
X707905Y51688D02*
X707905Y57450D01*
X707905Y51688D02*
X699262Y51688D01*
X699262Y57450D01*
X703584Y54569D02*
X703584Y51688D01*
X699262Y63924D02*
X707905Y63924D01*
X707905Y61043D02*
X707905Y66805D01*
X414782Y37116D02*
X414782Y34235D01*
X414782Y35675D02*
X423425Y35675D01*
X423425Y34235D02*
X423425Y37116D01*
X423425Y44793D02*
X421985Y46234D01*
X423425Y44793D02*
X423425Y41912D01*
X421985Y40472D01*
X420544Y40472D01*
X419104Y41912D01*
X419104Y44793D01*
X417663Y46234D01*
X416223Y46234D01*
X414782Y44793D01*
X414782Y41912D01*
X416223Y40472D01*
X414782Y49827D02*
X423425Y49827D01*
X423425Y54148D01*
X421985Y55589D01*
X419104Y55589D01*
X417663Y54148D01*
X417663Y49827D01*
D12*
X311404Y185934D02*
X307845Y189493D01*
X307845Y178816D01*
X311404Y178816D02*
X304286Y178816D01*
X299710Y189493D02*
X292592Y189493D01*
X299710Y189493D02*
X299710Y184155D01*
X296151Y185934D01*
X294371Y185934D01*
X292592Y184155D01*
X292592Y180596D01*
X294371Y178816D01*
X297931Y178816D01*
X299710Y180596D01*
X288016Y182375D02*
X288016Y189493D01*
X288016Y182375D02*
X284457Y178816D01*
X280898Y182375D01*
X280898Y189493D01*
X307845Y174253D02*
X311404Y170694D01*
X307845Y174253D02*
X307845Y163576D01*
X311404Y163576D02*
X304286Y163576D01*
X299710Y163576D02*
X292592Y163576D01*
X299710Y163576D02*
X292592Y170694D01*
X292592Y172474D01*
X294371Y174253D01*
X297931Y174253D01*
X299710Y172474D01*
X288016Y174253D02*
X288016Y167135D01*
X284457Y163576D01*
X280898Y167135D01*
X280898Y174253D01*
X315950Y157558D02*
X317730Y155778D01*
X315950Y157558D02*
X312391Y157558D01*
X310612Y155778D01*
X310612Y153999D01*
X312391Y152219D01*
X314171Y152219D01*
X312391Y152219D02*
X310612Y150440D01*
X310612Y148660D01*
X312391Y146881D01*
X315950Y146881D01*
X317730Y148660D01*
X306036Y148660D02*
X306036Y146881D01*
X306036Y148660D02*
X304256Y148660D01*
X304256Y146881D01*
X306036Y146881D01*
X300189Y155778D02*
X298409Y157558D01*
X294850Y157558D01*
X293071Y155778D01*
X293071Y153999D01*
X294850Y152219D01*
X296630Y152219D01*
X294850Y152219D02*
X293071Y150440D01*
X293071Y148660D01*
X294850Y146881D01*
X298409Y146881D01*
X300189Y148660D01*
X288495Y150440D02*
X288495Y157558D01*
X288495Y150440D02*
X284936Y146881D01*
X281377Y150440D01*
X281377Y157558D01*
D14*
X662738Y143048D02*
X662740Y143118D01*
X662746Y143187D01*
X662756Y143256D01*
X662769Y143324D01*
X662787Y143391D01*
X662808Y143458D01*
X662833Y143523D01*
X662862Y143586D01*
X662894Y143648D01*
X662930Y143708D01*
X662969Y143765D01*
X663011Y143821D01*
X663056Y143874D01*
X663104Y143924D01*
X663155Y143971D01*
X663209Y144016D01*
X663265Y144057D01*
X663323Y144095D01*
X663383Y144130D01*
X663446Y144162D01*
X663509Y144189D01*
X663575Y144213D01*
X663641Y144234D01*
X663709Y144250D01*
X663777Y144263D01*
X663846Y144272D01*
X663916Y144277D01*
X663985Y144278D01*
X664055Y144275D01*
X664124Y144268D01*
X664193Y144257D01*
X664261Y144243D01*
X664328Y144224D01*
X664394Y144202D01*
X664459Y144176D01*
X664522Y144146D01*
X664583Y144113D01*
X664642Y144077D01*
X664699Y144037D01*
X664754Y143994D01*
X664806Y143948D01*
X664856Y143899D01*
X664903Y143847D01*
X664946Y143793D01*
X664987Y143737D01*
X665024Y143678D01*
X665058Y143617D01*
X665089Y143555D01*
X665116Y143490D01*
X665139Y143425D01*
X665158Y143358D01*
X665174Y143290D01*
X665186Y143221D01*
X665194Y143152D01*
X665198Y143083D01*
X665198Y143013D01*
X665194Y142944D01*
X665186Y142875D01*
X665174Y142806D01*
X665158Y142738D01*
X665139Y142671D01*
X665116Y142606D01*
X665089Y142541D01*
X665058Y142479D01*
X665024Y142418D01*
X664987Y142359D01*
X664946Y142303D01*
X664903Y142249D01*
X664856Y142197D01*
X664806Y142148D01*
X664754Y142102D01*
X664699Y142059D01*
X664642Y142019D01*
X664583Y141983D01*
X664522Y141950D01*
X664459Y141920D01*
X664394Y141894D01*
X664328Y141872D01*
X664261Y141853D01*
X664193Y141839D01*
X664124Y141828D01*
X664055Y141821D01*
X663985Y141818D01*
X663916Y141819D01*
X663846Y141824D01*
X663777Y141833D01*
X663709Y141846D01*
X663641Y141862D01*
X663575Y141883D01*
X663509Y141907D01*
X663446Y141934D01*
X663383Y141966D01*
X663323Y142001D01*
X663265Y142039D01*
X663209Y142080D01*
X663155Y142125D01*
X663104Y142172D01*
X663056Y142222D01*
X663011Y142275D01*
X662969Y142331D01*
X662930Y142388D01*
X662894Y142448D01*
X662862Y142510D01*
X662833Y142573D01*
X662808Y142638D01*
X662787Y142705D01*
X662769Y142772D01*
X662756Y142840D01*
X662746Y142909D01*
X662740Y142978D01*
X662738Y143048D01*
D13*
X435096Y507682D02*
X436240Y508826D01*
X438528Y508826D01*
X439672Y507682D01*
X439672Y503106D01*
X438528Y501962D01*
X436240Y501962D01*
X435096Y503106D01*
X435096Y505394D01*
X437384Y505394D01*
X432188Y501962D02*
X432188Y508826D01*
X427612Y501962D01*
X427612Y508826D01*
X424703Y508826D02*
X424703Y501962D01*
X421272Y501962D01*
X420128Y503106D01*
X420128Y507682D01*
X421272Y508826D01*
X424703Y508826D01*
X650996Y581342D02*
X652140Y582486D01*
X654428Y582486D01*
X655572Y581342D01*
X655572Y576766D01*
X654428Y575622D01*
X652140Y575622D01*
X650996Y576766D01*
X650996Y579054D01*
X653284Y579054D01*
X648088Y575622D02*
X648088Y582486D01*
X643512Y575622D01*
X643512Y582486D01*
X640603Y582486D02*
X640603Y575622D01*
X637172Y575622D01*
X636028Y576766D01*
X636028Y581342D01*
X637172Y582486D01*
X640603Y582486D01*
X491674Y502602D02*
X490530Y503746D01*
X488242Y503746D01*
X487098Y502602D01*
X487098Y501458D01*
X488242Y500314D01*
X489386Y500314D01*
X488242Y500314D02*
X487098Y499170D01*
X487098Y498026D01*
X488242Y496882D01*
X490530Y496882D01*
X491674Y498026D01*
X484190Y498026D02*
X484190Y496882D01*
X484190Y498026D02*
X483046Y498026D01*
X483046Y496882D01*
X484190Y496882D01*
X480448Y502602D02*
X479304Y503746D01*
X477016Y503746D01*
X475872Y502602D01*
X475872Y501458D01*
X477016Y500314D01*
X478160Y500314D01*
X477016Y500314D02*
X475872Y499170D01*
X475872Y498026D01*
X477016Y496882D01*
X479304Y496882D01*
X480448Y498026D01*
X472963Y499170D02*
X472963Y503746D01*
X472963Y499170D02*
X470675Y496882D01*
X468388Y499170D01*
X468388Y503746D01*
X730095Y672920D02*
X731239Y674064D01*
X733527Y674064D01*
X734671Y672920D01*
X734671Y668344D01*
X733527Y667200D01*
X731239Y667200D01*
X730095Y668344D01*
X730095Y670632D01*
X732383Y670632D01*
X727187Y667200D02*
X727187Y674064D01*
X722611Y667200D01*
X722611Y674064D01*
X719702Y674064D02*
X719702Y667200D01*
X716271Y667200D01*
X715127Y668344D01*
X715127Y672920D01*
X716271Y674064D01*
X719702Y674064D01*
X786867Y668984D02*
X788011Y667840D01*
X786867Y668984D02*
X784579Y668984D01*
X783435Y667840D01*
X783435Y666696D01*
X784579Y665552D01*
X785723Y665552D01*
X784579Y665552D02*
X783435Y664408D01*
X783435Y663264D01*
X784579Y662120D01*
X786867Y662120D01*
X788011Y663264D01*
X780527Y663264D02*
X780527Y662120D01*
X780527Y663264D02*
X779383Y663264D01*
X779383Y662120D01*
X780527Y662120D01*
X776785Y667840D02*
X775641Y668984D01*
X773353Y668984D01*
X772209Y667840D01*
X772209Y666696D01*
X773353Y665552D01*
X774497Y665552D01*
X773353Y665552D02*
X772209Y664408D01*
X772209Y663264D01*
X773353Y662120D01*
X775641Y662120D01*
X776785Y663264D01*
X769300Y664408D02*
X769300Y668984D01*
X769300Y664408D02*
X767012Y662120D01*
X764724Y664408D01*
X764724Y668984D01*
X609319Y232104D02*
X608175Y230960D01*
X609319Y232104D02*
X611607Y232104D01*
X612751Y230960D01*
X612751Y226384D01*
X611607Y225240D01*
X609319Y225240D01*
X608175Y226384D01*
X608175Y228672D01*
X610463Y228672D01*
X605267Y225240D02*
X605267Y232104D01*
X600691Y225240D01*
X600691Y232104D01*
X597782Y232104D02*
X597782Y225240D01*
X594351Y225240D01*
X593207Y226384D01*
X593207Y230960D01*
X594351Y232104D01*
X597782Y232104D01*
X605411Y320961D02*
X604267Y322105D01*
X601979Y322105D01*
X600835Y320961D01*
X600835Y319817D01*
X601979Y318673D01*
X603123Y318673D01*
X601979Y318673D02*
X600835Y317529D01*
X600835Y316385D01*
X601979Y315241D01*
X604267Y315241D01*
X605411Y316385D01*
X597927Y316385D02*
X597927Y315241D01*
X597927Y316385D02*
X596783Y316385D01*
X596783Y315241D01*
X597927Y315241D01*
X594184Y320961D02*
X593041Y322105D01*
X590753Y322105D01*
X589609Y320961D01*
X589609Y319817D01*
X590753Y318673D01*
X591897Y318673D01*
X590753Y318673D02*
X589609Y317529D01*
X589609Y316385D01*
X590753Y315241D01*
X593041Y315241D01*
X594184Y316385D01*
X586700Y317529D02*
X586700Y322105D01*
X586700Y317529D02*
X584412Y315241D01*
X582124Y317529D01*
X582124Y322105D01*
X612751Y576400D02*
X611607Y577544D01*
X609319Y577544D01*
X608175Y576400D01*
X608175Y575256D01*
X609319Y574112D01*
X610463Y574112D01*
X609319Y574112D02*
X608175Y572968D01*
X608175Y571824D01*
X609319Y570680D01*
X611607Y570680D01*
X612751Y571824D01*
X605267Y571824D02*
X605267Y570680D01*
X605267Y571824D02*
X604123Y571824D01*
X604123Y570680D01*
X605267Y570680D01*
X601525Y576400D02*
X600381Y577544D01*
X598093Y577544D01*
X596949Y576400D01*
X596949Y575256D01*
X598093Y574112D01*
X599237Y574112D01*
X598093Y574112D02*
X596949Y572968D01*
X596949Y571824D01*
X598093Y570680D01*
X600381Y570680D01*
X601525Y571824D01*
X594040Y572968D02*
X594040Y577544D01*
X594040Y572968D02*
X591752Y570680D01*
X589464Y572968D01*
X589464Y577544D01*
X154300Y127826D02*
X153156Y126682D01*
X154300Y127826D02*
X156588Y127826D01*
X157732Y126682D01*
X157732Y122106D01*
X156588Y120962D01*
X154300Y120962D01*
X153156Y122106D01*
X153156Y124394D01*
X155444Y124394D01*
X150248Y120962D02*
X150248Y127826D01*
X145672Y120962D01*
X145672Y127826D01*
X142763Y127826D02*
X142763Y120962D01*
X139332Y120962D01*
X138188Y122106D01*
X138188Y126682D01*
X139332Y127826D01*
X142763Y127826D01*
X55240Y66866D02*
X54096Y65722D01*
X55240Y66866D02*
X57528Y66866D01*
X58672Y65722D01*
X58672Y61146D01*
X57528Y60002D01*
X55240Y60002D01*
X54096Y61146D01*
X54096Y63434D01*
X56384Y63434D01*
X51188Y60002D02*
X51188Y66866D01*
X46612Y60002D01*
X46612Y66866D01*
X43703Y66866D02*
X43703Y60002D01*
X40272Y60002D01*
X39128Y61146D01*
X39128Y65722D01*
X40272Y66866D01*
X43703Y66866D01*
X86670Y21146D02*
X87814Y20002D01*
X86670Y21146D02*
X84382Y21146D01*
X83238Y20002D01*
X83238Y18858D01*
X84382Y17714D01*
X85526Y17714D01*
X84382Y17714D02*
X83238Y16570D01*
X83238Y15426D01*
X84382Y14282D01*
X86670Y14282D01*
X87814Y15426D01*
X80330Y15426D02*
X80330Y14282D01*
X80330Y15426D02*
X79186Y15426D01*
X79186Y14282D01*
X80330Y14282D01*
X76588Y20002D02*
X75444Y21146D01*
X73156Y21146D01*
X72012Y20002D01*
X72012Y18858D01*
X73156Y17714D01*
X74300Y17714D01*
X73156Y17714D02*
X72012Y16570D01*
X72012Y15426D01*
X73156Y14282D01*
X75444Y14282D01*
X76588Y15426D01*
X69103Y16570D02*
X69103Y21146D01*
X69103Y16570D02*
X66815Y14282D01*
X64528Y16570D01*
X64528Y21146D01*
X45836Y96454D02*
X41260Y96454D01*
X43548Y98742D02*
X43548Y94166D01*
X38352Y97598D02*
X36064Y99886D01*
X36064Y93022D01*
X38352Y93022D02*
X33776Y93022D01*
X30868Y93022D02*
X26292Y93022D01*
X30868Y93022D02*
X26292Y97598D01*
X26292Y98742D01*
X27436Y99886D01*
X29724Y99886D01*
X30868Y98742D01*
X23383Y99886D02*
X23383Y95310D01*
X21095Y93022D01*
X18808Y95310D01*
X18808Y99886D01*
D15*
X418317Y651187D02*
X418317Y656271D01*
X420012Y656271D02*
X416622Y656271D01*
X414399Y656271D02*
X414399Y651187D01*
X414399Y656271D02*
X411857Y656271D01*
X411009Y655424D01*
X411009Y653729D01*
X411857Y652882D01*
X414399Y652882D01*
X412704Y652882D02*
X411009Y651187D01*
X408786Y651187D02*
X408786Y654577D01*
X407091Y656271D01*
X405396Y654577D01*
X405396Y651187D01*
X405396Y653729D02*
X408786Y653729D01*
X403173Y651187D02*
X403173Y656271D01*
X399783Y651187D01*
X399783Y656271D01*
X395017Y656271D02*
X394170Y655424D01*
X395017Y656271D02*
X396712Y656271D01*
X397559Y655424D01*
X397559Y654577D01*
X396712Y653729D01*
X395017Y653729D01*
X394170Y652882D01*
X394170Y652035D01*
X395017Y651187D01*
X396712Y651187D01*
X397559Y652035D01*
X412392Y619017D02*
X412392Y615627D01*
X412392Y619017D02*
X410697Y620711D01*
X409002Y619017D01*
X409002Y615627D01*
X409002Y618169D02*
X412392Y618169D01*
X404237Y620711D02*
X403389Y619864D01*
X404237Y620711D02*
X405931Y620711D01*
X406779Y619864D01*
X406779Y616475D01*
X405931Y615627D01*
X404237Y615627D01*
X403389Y616475D01*
X398623Y620711D02*
X397776Y619864D01*
X398623Y620711D02*
X400318Y620711D01*
X401166Y619864D01*
X401166Y616475D01*
X400318Y615627D01*
X398623Y615627D01*
X397776Y616475D01*
X395553Y620711D02*
X392163Y620711D01*
X395553Y620711D02*
X395553Y615627D01*
X392163Y615627D01*
X393858Y618169D02*
X395553Y618169D01*
X389939Y620711D02*
X389939Y615627D01*
X386550Y615627D01*
X407310Y587691D02*
X406462Y586844D01*
X407310Y587691D02*
X409004Y587691D01*
X409852Y586844D01*
X409852Y585997D01*
X409004Y585149D01*
X407310Y585149D01*
X406462Y584302D01*
X406462Y583455D01*
X407310Y582607D01*
X409004Y582607D01*
X409852Y583455D01*
X404239Y582607D02*
X404239Y587691D01*
X401697Y587691D01*
X400849Y586844D01*
X400849Y585149D01*
X401697Y584302D01*
X404239Y584302D01*
X398626Y587691D02*
X395236Y587691D01*
X398626Y587691D02*
X398626Y582607D01*
X395236Y582607D01*
X396931Y585149D02*
X398626Y585149D01*
X393013Y587691D02*
X389623Y587691D01*
X393013Y587691D02*
X393013Y582607D01*
X389623Y582607D01*
X391318Y585149D02*
X393013Y585149D01*
X387399Y587691D02*
X387399Y582607D01*
X384857Y582607D01*
X384010Y583455D01*
X384010Y586844D01*
X384857Y587691D01*
X387399Y587691D01*
D13*
X393780Y526049D02*
X398356Y526049D01*
X398356Y519186D01*
X393780Y519186D01*
X396068Y522618D02*
X398356Y522618D01*
X390872Y526049D02*
X390872Y519186D01*
X386296Y519186D02*
X390872Y526049D01*
X386296Y526049D02*
X386296Y519186D01*
X383388Y519186D02*
X383388Y523762D01*
X381100Y526049D01*
X378812Y523762D01*
X378812Y519186D01*
X378812Y522618D02*
X383388Y522618D01*
X401439Y498361D02*
X401439Y493785D01*
X401439Y498361D02*
X399151Y500649D01*
X396863Y498361D01*
X396863Y493785D01*
X396863Y497217D02*
X401439Y497217D01*
X393955Y493785D02*
X393955Y500649D01*
X390523Y500649D01*
X389379Y499505D01*
X389379Y497217D01*
X390523Y496073D01*
X393955Y496073D01*
X391667Y496073D02*
X389379Y493785D01*
X386470Y493785D02*
X386470Y500649D01*
X384183Y498361D01*
X381895Y500649D01*
X381895Y493785D01*
X397960Y390549D02*
X404824Y390549D01*
X401392Y390549D02*
X401392Y395125D01*
X404824Y395125D02*
X397960Y395125D01*
X404824Y399177D02*
X404824Y401465D01*
X404824Y399177D02*
X403680Y398033D01*
X399104Y398033D01*
X397960Y399177D01*
X397960Y401465D01*
X399104Y402609D01*
X403680Y402609D01*
X404824Y401465D01*
X404824Y405518D02*
X397960Y405518D01*
X404824Y405518D02*
X404824Y408949D01*
X403680Y410093D01*
X401392Y410093D01*
X400248Y408949D01*
X400248Y405518D01*
X400248Y407806D02*
X397960Y410093D01*
X397960Y413002D02*
X404824Y413002D01*
X397960Y417578D01*
X404824Y417578D01*
X417386Y296696D02*
X417386Y292120D01*
X410522Y292120D01*
X410522Y296696D01*
X413954Y294408D02*
X413954Y292120D01*
X417386Y299604D02*
X410522Y304180D01*
X410522Y299604D02*
X417386Y304180D01*
X417386Y309376D02*
X410522Y309376D01*
X417386Y307088D02*
X417386Y311664D01*
X417386Y314572D02*
X410522Y314572D01*
X417386Y314572D02*
X417386Y318004D01*
X416242Y319148D01*
X413954Y319148D01*
X412810Y318004D01*
X412810Y314572D01*
X412810Y316860D02*
X410522Y319148D01*
X410522Y322057D02*
X415098Y322057D01*
X417386Y324345D01*
X415098Y326633D01*
X410522Y326633D01*
X413954Y326633D02*
X413954Y322057D01*
X424809Y340379D02*
X424809Y347243D01*
X427097Y347243D02*
X422521Y347243D01*
X419613Y344955D02*
X419613Y340379D01*
X419613Y344955D02*
X417325Y347243D01*
X415037Y344955D01*
X415037Y340379D01*
X415037Y343811D02*
X419613Y343811D01*
X408697Y347243D02*
X407553Y346099D01*
X408697Y347243D02*
X410985Y347243D01*
X412129Y346099D01*
X412129Y341523D01*
X410985Y340379D01*
X408697Y340379D01*
X407553Y341523D01*
X404645Y340379D02*
X404645Y347243D01*
X404645Y343811D02*
X400069Y343811D01*
X400069Y347243D02*
X400069Y340379D01*
D10*
X179967Y356576D02*
X176832Y353441D01*
X179967Y356576D02*
X170561Y356576D01*
X170561Y353441D02*
X170561Y359712D01*
X179967Y362796D02*
X179967Y369067D01*
X179967Y362796D02*
X175264Y362796D01*
X176832Y365932D01*
X176832Y367499D01*
X175264Y369067D01*
X172129Y369067D01*
X170561Y367499D01*
X170561Y364364D01*
X172129Y362796D01*
X173696Y372151D02*
X179967Y372151D01*
X173696Y372151D02*
X170561Y375287D01*
X173696Y378422D01*
X179967Y378422D01*
X241899Y352092D02*
X243467Y350524D01*
X243467Y347389D01*
X241899Y345821D01*
X235629Y345821D01*
X234061Y347389D01*
X234061Y350524D01*
X235629Y352092D01*
X238764Y352092D01*
X238764Y348956D01*
X234061Y355176D02*
X243467Y355176D01*
X234061Y361447D01*
X243467Y361447D01*
X243467Y364531D02*
X234061Y364531D01*
X234061Y369234D01*
X235629Y370802D01*
X241899Y370802D01*
X243467Y369234D01*
X243467Y364531D01*
X234061Y373887D02*
X234061Y377022D01*
X234061Y375454D02*
X243467Y375454D01*
X243467Y373887D02*
X243467Y377022D01*
X243467Y381691D02*
X243467Y384826D01*
X243467Y381691D02*
X241899Y380123D01*
X235629Y380123D01*
X234061Y381691D01*
X234061Y384826D01*
X235629Y386394D01*
X241899Y386394D01*
X243467Y384826D01*
D13*
X154300Y21146D02*
X153156Y20002D01*
X154300Y21146D02*
X156588Y21146D01*
X157732Y20002D01*
X157732Y15426D01*
X156588Y14282D01*
X154300Y14282D01*
X153156Y15426D01*
X153156Y17714D01*
X155444Y17714D01*
X150248Y14282D02*
X150248Y21146D01*
X145672Y14282D01*
X145672Y21146D01*
X142763Y21146D02*
X142763Y14282D01*
X139332Y14282D01*
X138188Y15426D01*
X138188Y20002D01*
X139332Y21146D01*
X142763Y21146D01*
X254756Y17462D02*
X255900Y18606D01*
X258188Y18606D01*
X259332Y17462D01*
X259332Y12886D01*
X258188Y11742D01*
X255900Y11742D01*
X254756Y12886D01*
X254756Y15174D01*
X257044Y15174D01*
X251848Y11742D02*
X251848Y18606D01*
X247272Y11742D01*
X247272Y18606D01*
X244363Y18606D02*
X244363Y11742D01*
X240932Y11742D01*
X239788Y12886D01*
X239788Y17462D01*
X240932Y18606D01*
X244363Y18606D01*
X293215Y227024D02*
X297791Y227024D01*
X297791Y220160D01*
X293215Y220160D01*
X295503Y223592D02*
X297791Y223592D01*
X290307Y227024D02*
X285731Y220160D01*
X290307Y220160D02*
X285731Y227024D01*
X280535Y227024D02*
X280535Y220160D01*
X282822Y227024D02*
X278247Y227024D01*
X275338Y227024D02*
X275338Y220160D01*
X275338Y227024D02*
X271906Y227024D01*
X270762Y225880D01*
X270762Y223592D01*
X271906Y222448D01*
X275338Y222448D01*
X273050Y222448D02*
X270762Y220160D01*
X267854Y220160D02*
X267854Y224736D01*
X265566Y227024D01*
X263278Y224736D01*
X263278Y220160D01*
X263278Y223592D02*
X267854Y223592D01*
X260370Y219016D02*
X255794Y219016D01*
X252886Y220160D02*
X250598Y220160D01*
X251742Y220160D02*
X251742Y227024D01*
X252886Y227024D02*
X250598Y227024D01*
X246752Y227024D02*
X244464Y227024D01*
X246752Y227024D02*
X247896Y225880D01*
X247896Y221304D01*
X246752Y220160D01*
X244464Y220160D01*
X243320Y221304D01*
X243320Y225880D01*
X244464Y227024D01*
X331063Y372560D02*
X331063Y379424D01*
X333351Y379424D02*
X328775Y379424D01*
X325867Y377136D02*
X325867Y372560D01*
X325867Y377136D02*
X323579Y379424D01*
X321291Y377136D01*
X321291Y372560D01*
X321291Y375992D02*
X325867Y375992D01*
X314951Y379424D02*
X313807Y378280D01*
X314951Y379424D02*
X317238Y379424D01*
X318382Y378280D01*
X318382Y373704D01*
X317238Y372560D01*
X314951Y372560D01*
X313807Y373704D01*
X310898Y372560D02*
X310898Y379424D01*
X310898Y375992D02*
X306322Y375992D01*
X306322Y379424D02*
X306322Y372560D01*
X303414Y371416D02*
X298838Y371416D01*
X295930Y372560D02*
X293642Y372560D01*
X294786Y372560D02*
X294786Y379424D01*
X295930Y379424D02*
X293642Y379424D01*
X289797Y379424D02*
X287509Y379424D01*
X289797Y379424D02*
X290941Y378280D01*
X290941Y373704D01*
X289797Y372560D01*
X287509Y372560D01*
X286365Y373704D01*
X286365Y378280D01*
X287509Y379424D01*
D15*
X222465Y582607D02*
X222465Y587691D01*
X220771Y587691D02*
X224160Y587691D01*
X218547Y587691D02*
X218547Y582607D01*
X218547Y587691D02*
X216005Y587691D01*
X215157Y586844D01*
X215157Y585149D01*
X216005Y584302D01*
X218547Y584302D01*
X216852Y584302D02*
X215157Y582607D01*
X212934Y582607D02*
X212934Y585997D01*
X211239Y587691D01*
X209544Y585997D01*
X209544Y582607D01*
X209544Y585149D02*
X212934Y585149D01*
X207321Y582607D02*
X207321Y587691D01*
X203931Y582607D01*
X203931Y587691D01*
X199166Y587691D02*
X198318Y586844D01*
X199166Y587691D02*
X200860Y587691D01*
X201708Y586844D01*
X201708Y585997D01*
X200860Y585149D01*
X199166Y585149D01*
X198318Y584302D01*
X198318Y583455D01*
X199166Y582607D01*
X200860Y582607D01*
X201708Y583455D01*
X196095Y581760D02*
X192705Y581760D01*
X190482Y582607D02*
X188787Y582607D01*
X189634Y582607D02*
X189634Y587691D01*
X188787Y587691D02*
X190482Y587691D01*
X185892Y587691D02*
X184197Y587691D01*
X185892Y587691D02*
X186740Y586844D01*
X186740Y583455D01*
X185892Y582607D01*
X184197Y582607D01*
X183350Y583455D01*
X183350Y586844D01*
X184197Y587691D01*
D11*
X588518Y676402D02*
X588518Y692672D01*
X580383Y692672D01*
X577671Y689960D01*
X577671Y687249D01*
X580383Y684537D01*
X577671Y681825D01*
X577671Y679114D01*
X580383Y676402D01*
X588518Y676402D01*
X588518Y684537D02*
X580383Y684537D01*
X569435Y676402D02*
X564012Y676402D01*
X561300Y679114D01*
X561300Y684537D01*
X564012Y687249D01*
X569435Y687249D01*
X572146Y684537D01*
X572146Y679114D01*
X569435Y676402D01*
X553063Y687249D02*
X547640Y687249D01*
X544928Y684537D01*
X544928Y676402D01*
X553063Y676402D01*
X555775Y679114D01*
X553063Y681825D01*
X544928Y681825D01*
X536692Y679114D02*
X536692Y689960D01*
X536692Y679114D02*
X533980Y676402D01*
X533980Y687249D02*
X539403Y687249D01*
X520354Y692672D02*
X517642Y689960D01*
X520354Y692672D02*
X525777Y692672D01*
X528489Y689960D01*
X528489Y679114D01*
X525777Y676402D01*
X520354Y676402D01*
X517642Y679114D01*
X503982Y692672D02*
X501271Y689960D01*
X503982Y692672D02*
X509406Y692672D01*
X512117Y689960D01*
X512117Y679114D01*
X509406Y676402D01*
X503982Y676402D01*
X501271Y679114D01*
X479374Y676402D02*
X468528Y676402D01*
X479374Y676402D02*
X468528Y687249D01*
X468528Y689960D01*
X471239Y692672D01*
X476663Y692672D01*
X479374Y689960D01*
X463003Y689960D02*
X463003Y679114D01*
X463003Y689960D02*
X460291Y692672D01*
X454868Y692672D01*
X452156Y689960D01*
X452156Y679114D01*
X454868Y676402D01*
X460291Y676402D01*
X463003Y679114D01*
X452156Y689960D01*
X446631Y687249D02*
X441208Y692672D01*
X441208Y676402D01*
X446631Y676402D02*
X435785Y676402D01*
X430260Y689960D02*
X427548Y692672D01*
X422125Y692672D01*
X419413Y689960D01*
X419413Y687249D01*
X422125Y684537D01*
X419413Y681825D01*
X419413Y679114D01*
X422125Y676402D01*
X427548Y676402D01*
X430260Y679114D01*
X430260Y681825D01*
X427548Y684537D01*
X430260Y687249D01*
X430260Y689960D01*
X427548Y684537D02*
X422125Y684537D01*
X413888Y687249D02*
X408465Y692672D01*
X408465Y676402D01*
X413888Y676402D02*
X403041Y676402D01*
X397516Y687249D02*
X392093Y692672D01*
X392093Y676402D01*
X397516Y676402D02*
X386670Y676402D01*
X381145Y679114D02*
X381145Y689960D01*
X378433Y692672D01*
X373010Y692672D01*
X370298Y689960D01*
X370298Y679114D01*
X373010Y676402D01*
X378433Y676402D01*
X381145Y679114D01*
X370298Y689960D01*
X364773Y689960D02*
X362062Y692672D01*
X356638Y692672D01*
X353927Y689960D01*
X353927Y687249D01*
X356638Y684537D01*
X359350Y684537D01*
X356638Y684537D02*
X353927Y681825D01*
X353927Y679114D01*
X356638Y676402D01*
X362062Y676402D01*
X364773Y679114D01*
D16*
X634880Y449331D02*
X635812Y448399D01*
X634880Y449331D02*
X633016Y449331D01*
X632084Y448399D01*
X632084Y447467D01*
X633016Y446534D01*
X633948Y446534D01*
X633016Y446534D02*
X632084Y445602D01*
X632084Y444670D01*
X633016Y443738D01*
X634880Y443738D01*
X635812Y444670D01*
X630199Y449331D02*
X626471Y449331D01*
X630199Y449331D02*
X630199Y446534D01*
X628335Y447467D01*
X627403Y447467D01*
X626471Y446534D01*
X626471Y444670D01*
X627403Y443738D01*
X629267Y443738D01*
X630199Y444670D01*
X632340Y436631D02*
X633272Y435699D01*
X632340Y436631D02*
X630476Y436631D01*
X629544Y435699D01*
X629544Y434767D01*
X630476Y433834D01*
X631408Y433834D01*
X630476Y433834D02*
X629544Y432902D01*
X629544Y431970D01*
X630476Y431038D01*
X632340Y431038D01*
X633272Y431970D01*
X625795Y435699D02*
X623931Y436631D01*
X625795Y435699D02*
X627659Y433834D01*
X627659Y431970D01*
X626727Y431038D01*
X624863Y431038D01*
X623931Y431970D01*
X623931Y432902D01*
X624863Y433834D01*
X627659Y433834D01*
X627260Y426471D02*
X628192Y425539D01*
X627260Y426471D02*
X625396Y426471D01*
X624464Y425539D01*
X624464Y424607D01*
X625396Y423674D01*
X626328Y423674D01*
X625396Y423674D02*
X624464Y422742D01*
X624464Y421810D01*
X625396Y420878D01*
X627260Y420878D01*
X628192Y421810D01*
X622579Y426471D02*
X618851Y426471D01*
X618851Y425539D01*
X622579Y421810D01*
X622579Y420878D01*
X649059Y413771D02*
X649059Y408178D01*
X651855Y410974D02*
X649059Y413771D01*
X648126Y410974D02*
X651855Y410974D01*
X646242Y408178D02*
X642513Y408178D01*
X646242Y408178D02*
X642513Y411907D01*
X642513Y412839D01*
X643445Y413771D01*
X645310Y413771D01*
X646242Y412839D01*
X655876Y388371D02*
X655876Y382778D01*
X658672Y385574D02*
X655876Y388371D01*
X654944Y385574D02*
X658672Y385574D01*
X650263Y382778D02*
X650263Y388371D01*
X653059Y385574D01*
X649331Y385574D01*
X653336Y360431D02*
X653336Y354838D01*
X656132Y357634D02*
X653336Y360431D01*
X652404Y357634D02*
X656132Y357634D01*
X650519Y360431D02*
X646791Y360431D01*
X646791Y359499D01*
X650519Y355770D01*
X650519Y354838D01*
X655876Y367538D02*
X655876Y373131D01*
X658672Y370334D01*
X654944Y370334D01*
X651195Y372199D02*
X649331Y373131D01*
X651195Y372199D02*
X653059Y370334D01*
X653059Y368470D01*
X652127Y367538D01*
X650263Y367538D01*
X649331Y368470D01*
X649331Y369402D01*
X650263Y370334D01*
X653059Y370334D01*
D13*
X601849Y10039D02*
X604137Y8895D01*
X606425Y6607D01*
X606425Y4319D01*
X605281Y3175D01*
X602993Y3175D01*
X601849Y4319D01*
X601849Y5463D01*
X602993Y6607D01*
X606425Y6607D01*
X347980Y444500D02*
X300736Y444500D01*
X347980Y444500D02*
X347980Y408432D01*
X300736Y408432D01*
X300736Y444500D01*
D16*
X302768Y438912D02*
X302770Y439031D01*
X302776Y439150D01*
X302786Y439268D01*
X302800Y439386D01*
X302818Y439503D01*
X302839Y439620D01*
X302865Y439736D01*
X302894Y439851D01*
X302928Y439966D01*
X302965Y440078D01*
X303006Y440190D01*
X303050Y440300D01*
X303098Y440409D01*
X303150Y440516D01*
X303206Y440621D01*
X303264Y440724D01*
X303327Y440825D01*
X303392Y440925D01*
X303461Y441021D01*
X303533Y441116D01*
X303608Y441208D01*
X303687Y441297D01*
X303768Y441384D01*
X303852Y441468D01*
X303939Y441549D01*
X304028Y441628D01*
X304120Y441703D01*
X304215Y441775D01*
X304311Y441844D01*
X304411Y441909D01*
X304512Y441972D01*
X304615Y442030D01*
X304720Y442086D01*
X304827Y442138D01*
X304936Y442186D01*
X305046Y442230D01*
X305158Y442271D01*
X305270Y442308D01*
X305385Y442342D01*
X305500Y442371D01*
X305616Y442397D01*
X305733Y442418D01*
X305850Y442436D01*
X305968Y442450D01*
X306086Y442460D01*
X306205Y442466D01*
X306324Y442468D01*
X306443Y442466D01*
X306562Y442460D01*
X306680Y442450D01*
X306798Y442436D01*
X306915Y442418D01*
X307032Y442397D01*
X307148Y442371D01*
X307263Y442342D01*
X307378Y442308D01*
X307490Y442271D01*
X307602Y442230D01*
X307712Y442186D01*
X307821Y442138D01*
X307928Y442086D01*
X308033Y442030D01*
X308136Y441972D01*
X308237Y441909D01*
X308337Y441844D01*
X308433Y441775D01*
X308528Y441703D01*
X308620Y441628D01*
X308709Y441549D01*
X308796Y441468D01*
X308880Y441384D01*
X308961Y441297D01*
X309040Y441208D01*
X309115Y441116D01*
X309187Y441021D01*
X309256Y440925D01*
X309321Y440825D01*
X309384Y440724D01*
X309442Y440621D01*
X309498Y440516D01*
X309550Y440409D01*
X309598Y440300D01*
X309642Y440190D01*
X309683Y440078D01*
X309720Y439966D01*
X309754Y439851D01*
X309783Y439736D01*
X309809Y439620D01*
X309830Y439503D01*
X309848Y439386D01*
X309862Y439268D01*
X309872Y439150D01*
X309878Y439031D01*
X309880Y438912D01*
X309878Y438793D01*
X309872Y438674D01*
X309862Y438556D01*
X309848Y438438D01*
X309830Y438321D01*
X309809Y438204D01*
X309783Y438088D01*
X309754Y437973D01*
X309720Y437858D01*
X309683Y437746D01*
X309642Y437634D01*
X309598Y437524D01*
X309550Y437415D01*
X309498Y437308D01*
X309442Y437203D01*
X309384Y437100D01*
X309321Y436999D01*
X309256Y436899D01*
X309187Y436803D01*
X309115Y436708D01*
X309040Y436616D01*
X308961Y436527D01*
X308880Y436440D01*
X308796Y436356D01*
X308709Y436275D01*
X308620Y436196D01*
X308528Y436121D01*
X308433Y436049D01*
X308337Y435980D01*
X308237Y435915D01*
X308136Y435852D01*
X308033Y435794D01*
X307928Y435738D01*
X307821Y435686D01*
X307712Y435638D01*
X307602Y435594D01*
X307490Y435553D01*
X307378Y435516D01*
X307263Y435482D01*
X307148Y435453D01*
X307032Y435427D01*
X306915Y435406D01*
X306798Y435388D01*
X306680Y435374D01*
X306562Y435364D01*
X306443Y435358D01*
X306324Y435356D01*
X306205Y435358D01*
X306086Y435364D01*
X305968Y435374D01*
X305850Y435388D01*
X305733Y435406D01*
X305616Y435427D01*
X305500Y435453D01*
X305385Y435482D01*
X305270Y435516D01*
X305158Y435553D01*
X305046Y435594D01*
X304936Y435638D01*
X304827Y435686D01*
X304720Y435738D01*
X304615Y435794D01*
X304512Y435852D01*
X304411Y435915D01*
X304311Y435980D01*
X304215Y436049D01*
X304120Y436121D01*
X304028Y436196D01*
X303939Y436275D01*
X303852Y436356D01*
X303768Y436440D01*
X303687Y436527D01*
X303608Y436616D01*
X303533Y436708D01*
X303461Y436803D01*
X303392Y436899D01*
X303327Y436999D01*
X303264Y437100D01*
X303206Y437203D01*
X303150Y437308D01*
X303098Y437415D01*
X303050Y437524D01*
X303006Y437634D01*
X302965Y437746D01*
X302928Y437858D01*
X302894Y437973D01*
X302865Y438088D01*
X302839Y438204D01*
X302818Y438321D01*
X302800Y438438D01*
X302786Y438556D01*
X302776Y438674D01*
X302770Y438793D01*
X302768Y438912D01*
D15*
X312428Y411524D02*
X310903Y409999D01*
X312428Y411524D02*
X312428Y414575D01*
X310903Y416100D01*
X309377Y416100D01*
X307852Y414575D01*
X306327Y416100D01*
X304801Y416100D01*
X303276Y414575D01*
X303276Y411524D01*
X304801Y409999D01*
X306327Y409999D01*
X307852Y411524D01*
X309377Y409999D01*
X310903Y409999D01*
X307852Y411524D02*
X307852Y414575D01*
D13*
X297061Y411333D02*
X289435Y411333D01*
X297061Y411333D02*
X298968Y413240D01*
X298968Y417053D01*
X297061Y418960D01*
X289435Y418960D01*
X287528Y417053D01*
X287528Y413240D01*
X289435Y411333D01*
X291341Y415146D02*
X287528Y418960D01*
X295155Y423027D02*
X298968Y426840D01*
X287528Y426840D01*
X287528Y423027D02*
X287528Y430654D01*
D12*
X690394Y129666D02*
X690394Y113666D01*
X661394Y113666D02*
X661394Y129666D01*
X696470Y115570D02*
X705367Y115570D01*
X696470Y115570D02*
X694690Y117350D01*
X694690Y120909D01*
X696470Y122688D01*
X705367Y122688D01*
X705367Y127264D02*
X705367Y134382D01*
X703588Y134382D01*
X696470Y127264D01*
X694690Y127264D01*
X911426Y328505D02*
X925076Y328505D01*
X923013Y323555D02*
X918251Y328318D01*
X913488Y323555D01*
X911426Y342475D02*
X925076Y342475D01*
D11*
X925524Y343827D02*
X918914Y343827D01*
X918914Y348233D01*
X925524Y351311D02*
X925524Y355718D01*
X925524Y351311D02*
X918914Y351311D01*
X918914Y355718D01*
X922219Y353514D02*
X922219Y351311D01*
X925524Y358795D02*
X918914Y358795D01*
X918914Y362100D01*
X920016Y363202D01*
X924422Y363202D01*
X925524Y362100D01*
X925524Y358795D01*
X918914Y366280D02*
X918914Y370686D01*
X918914Y366280D02*
X923321Y370686D01*
X924422Y370686D01*
X925524Y369584D01*
X925524Y367381D01*
X924422Y366280D01*
D12*
X925324Y406291D02*
X911674Y406291D01*
X918499Y406104D02*
X923261Y401341D01*
X918499Y406104D02*
X913736Y401341D01*
X911674Y420261D02*
X925324Y420261D01*
D11*
X925256Y421667D02*
X918646Y421667D01*
X918646Y426073D01*
X925256Y429151D02*
X925256Y433558D01*
X925256Y429151D02*
X918646Y429151D01*
X918646Y433558D01*
X921951Y431354D02*
X921951Y429151D01*
X925256Y436635D02*
X918646Y436635D01*
X918646Y439940D01*
X919748Y441042D01*
X924154Y441042D01*
X925256Y439940D01*
X925256Y436635D01*
X924154Y444120D02*
X925256Y445221D01*
X925256Y447424D01*
X924154Y448526D01*
X923053Y448526D01*
X921951Y447424D01*
X921951Y446323D01*
X921951Y447424D02*
X920850Y448526D01*
X919748Y448526D01*
X918646Y447424D01*
X918646Y445221D01*
X919748Y444120D01*
D12*
X925319Y477195D02*
X911669Y477195D01*
X918494Y477008D02*
X923257Y472245D01*
X918494Y477008D02*
X913732Y472245D01*
X911669Y491165D02*
X925319Y491165D01*
D11*
X924596Y493281D02*
X917986Y493281D01*
X917986Y497688D01*
X924596Y500765D02*
X924596Y505172D01*
X924596Y500765D02*
X917986Y500765D01*
X917986Y505172D01*
X921291Y502969D02*
X921291Y500765D01*
X924596Y508250D02*
X917986Y508250D01*
X917986Y511554D01*
X919088Y512656D01*
X923494Y512656D01*
X924596Y511554D01*
X924596Y508250D01*
X924596Y519039D02*
X917986Y519039D01*
X921291Y515734D02*
X924596Y519039D01*
X921291Y520140D02*
X921291Y515734D01*
D12*
X925088Y125816D02*
X911438Y125816D01*
X918263Y125629D02*
X923025Y120866D01*
X918263Y125629D02*
X913500Y120866D01*
X911438Y139786D02*
X925088Y139786D01*
D11*
X921824Y141903D02*
X915215Y141903D01*
X915215Y146309D01*
X921824Y149387D02*
X921824Y153793D01*
X921824Y149387D02*
X915215Y149387D01*
X915215Y153793D01*
X918520Y151590D02*
X918520Y149387D01*
X921824Y156871D02*
X915215Y156871D01*
X915215Y160176D01*
X916316Y161277D01*
X920723Y161277D01*
X921824Y160176D01*
X921824Y156871D01*
X919621Y164355D02*
X921824Y166558D01*
X915215Y166558D01*
X915215Y164355D02*
X915215Y168761D01*
D12*
X44420Y166400D02*
X44420Y138400D01*
X72420Y138400D01*
X72420Y166400D01*
X44420Y166400D01*
X62420Y159400D02*
X62422Y159518D01*
X62428Y159636D01*
X62438Y159754D01*
X62452Y159871D01*
X62470Y159988D01*
X62492Y160105D01*
X62517Y160220D01*
X62547Y160334D01*
X62581Y160448D01*
X62618Y160560D01*
X62659Y160671D01*
X62704Y160780D01*
X62752Y160888D01*
X62804Y160994D01*
X62860Y161099D01*
X62919Y161201D01*
X62981Y161301D01*
X63047Y161399D01*
X63116Y161495D01*
X63189Y161589D01*
X63264Y161680D01*
X63343Y161768D01*
X63424Y161854D01*
X63509Y161937D01*
X63596Y162017D01*
X63685Y162094D01*
X63778Y162168D01*
X63872Y162238D01*
X63969Y162306D01*
X64069Y162370D01*
X64170Y162431D01*
X64273Y162488D01*
X64379Y162542D01*
X64486Y162593D01*
X64594Y162639D01*
X64704Y162682D01*
X64816Y162721D01*
X64929Y162757D01*
X65043Y162788D01*
X65158Y162816D01*
X65273Y162840D01*
X65390Y162860D01*
X65507Y162876D01*
X65625Y162888D01*
X65743Y162896D01*
X65861Y162900D01*
X65979Y162900D01*
X66097Y162896D01*
X66215Y162888D01*
X66333Y162876D01*
X66450Y162860D01*
X66567Y162840D01*
X66682Y162816D01*
X66797Y162788D01*
X66911Y162757D01*
X67024Y162721D01*
X67136Y162682D01*
X67246Y162639D01*
X67354Y162593D01*
X67461Y162542D01*
X67567Y162488D01*
X67670Y162431D01*
X67771Y162370D01*
X67871Y162306D01*
X67968Y162238D01*
X68062Y162168D01*
X68155Y162094D01*
X68244Y162017D01*
X68331Y161937D01*
X68416Y161854D01*
X68497Y161768D01*
X68576Y161680D01*
X68651Y161589D01*
X68724Y161495D01*
X68793Y161399D01*
X68859Y161301D01*
X68921Y161201D01*
X68980Y161099D01*
X69036Y160994D01*
X69088Y160888D01*
X69136Y160780D01*
X69181Y160671D01*
X69222Y160560D01*
X69259Y160448D01*
X69293Y160334D01*
X69323Y160220D01*
X69348Y160105D01*
X69370Y159988D01*
X69388Y159871D01*
X69402Y159754D01*
X69412Y159636D01*
X69418Y159518D01*
X69420Y159400D01*
X62420Y159400D01*
D15*
X26322Y133066D02*
X16577Y133066D01*
X14628Y135015D01*
X14628Y138913D01*
X16577Y140862D01*
X26322Y140862D01*
X22424Y144760D02*
X26322Y148658D01*
X14628Y148658D01*
X14628Y144760D02*
X14628Y152556D01*
X22424Y156454D02*
X26322Y160352D01*
X14628Y160352D01*
X14628Y156454D02*
X14628Y164250D01*
D13*
X113538Y220726D02*
X160782Y220726D01*
X113538Y220726D02*
X113538Y256794D01*
X160782Y256794D01*
X160782Y220726D01*
D16*
X151638Y226314D02*
X151640Y226433D01*
X151646Y226552D01*
X151656Y226670D01*
X151670Y226788D01*
X151688Y226905D01*
X151709Y227022D01*
X151735Y227138D01*
X151764Y227253D01*
X151798Y227368D01*
X151835Y227480D01*
X151876Y227592D01*
X151920Y227702D01*
X151968Y227811D01*
X152020Y227918D01*
X152076Y228023D01*
X152134Y228126D01*
X152197Y228227D01*
X152262Y228327D01*
X152331Y228423D01*
X152403Y228518D01*
X152478Y228610D01*
X152557Y228699D01*
X152638Y228786D01*
X152722Y228870D01*
X152809Y228951D01*
X152898Y229030D01*
X152990Y229105D01*
X153085Y229177D01*
X153181Y229246D01*
X153281Y229311D01*
X153382Y229374D01*
X153485Y229432D01*
X153590Y229488D01*
X153697Y229540D01*
X153806Y229588D01*
X153916Y229632D01*
X154028Y229673D01*
X154140Y229710D01*
X154255Y229744D01*
X154370Y229773D01*
X154486Y229799D01*
X154603Y229820D01*
X154720Y229838D01*
X154838Y229852D01*
X154956Y229862D01*
X155075Y229868D01*
X155194Y229870D01*
X155313Y229868D01*
X155432Y229862D01*
X155550Y229852D01*
X155668Y229838D01*
X155785Y229820D01*
X155902Y229799D01*
X156018Y229773D01*
X156133Y229744D01*
X156248Y229710D01*
X156360Y229673D01*
X156472Y229632D01*
X156582Y229588D01*
X156691Y229540D01*
X156798Y229488D01*
X156903Y229432D01*
X157006Y229374D01*
X157107Y229311D01*
X157207Y229246D01*
X157303Y229177D01*
X157398Y229105D01*
X157490Y229030D01*
X157579Y228951D01*
X157666Y228870D01*
X157750Y228786D01*
X157831Y228699D01*
X157910Y228610D01*
X157985Y228518D01*
X158057Y228423D01*
X158126Y228327D01*
X158191Y228227D01*
X158254Y228126D01*
X158312Y228023D01*
X158368Y227918D01*
X158420Y227811D01*
X158468Y227702D01*
X158512Y227592D01*
X158553Y227480D01*
X158590Y227368D01*
X158624Y227253D01*
X158653Y227138D01*
X158679Y227022D01*
X158700Y226905D01*
X158718Y226788D01*
X158732Y226670D01*
X158742Y226552D01*
X158748Y226433D01*
X158750Y226314D01*
X158748Y226195D01*
X158742Y226076D01*
X158732Y225958D01*
X158718Y225840D01*
X158700Y225723D01*
X158679Y225606D01*
X158653Y225490D01*
X158624Y225375D01*
X158590Y225260D01*
X158553Y225148D01*
X158512Y225036D01*
X158468Y224926D01*
X158420Y224817D01*
X158368Y224710D01*
X158312Y224605D01*
X158254Y224502D01*
X158191Y224401D01*
X158126Y224301D01*
X158057Y224205D01*
X157985Y224110D01*
X157910Y224018D01*
X157831Y223929D01*
X157750Y223842D01*
X157666Y223758D01*
X157579Y223677D01*
X157490Y223598D01*
X157398Y223523D01*
X157303Y223451D01*
X157207Y223382D01*
X157107Y223317D01*
X157006Y223254D01*
X156903Y223196D01*
X156798Y223140D01*
X156691Y223088D01*
X156582Y223040D01*
X156472Y222996D01*
X156360Y222955D01*
X156248Y222918D01*
X156133Y222884D01*
X156018Y222855D01*
X155902Y222829D01*
X155785Y222808D01*
X155668Y222790D01*
X155550Y222776D01*
X155432Y222766D01*
X155313Y222760D01*
X155194Y222758D01*
X155075Y222760D01*
X154956Y222766D01*
X154838Y222776D01*
X154720Y222790D01*
X154603Y222808D01*
X154486Y222829D01*
X154370Y222855D01*
X154255Y222884D01*
X154140Y222918D01*
X154028Y222955D01*
X153916Y222996D01*
X153806Y223040D01*
X153697Y223088D01*
X153590Y223140D01*
X153485Y223196D01*
X153382Y223254D01*
X153281Y223317D01*
X153181Y223382D01*
X153085Y223451D01*
X152990Y223523D01*
X152898Y223598D01*
X152809Y223677D01*
X152722Y223758D01*
X152638Y223842D01*
X152557Y223929D01*
X152478Y224018D01*
X152403Y224110D01*
X152331Y224205D01*
X152262Y224301D01*
X152197Y224401D01*
X152134Y224502D01*
X152076Y224605D01*
X152020Y224710D01*
X151968Y224817D01*
X151920Y224926D01*
X151876Y225036D01*
X151835Y225148D01*
X151798Y225260D01*
X151764Y225375D01*
X151735Y225490D01*
X151709Y225606D01*
X151688Y225723D01*
X151670Y225840D01*
X151656Y225958D01*
X151646Y226076D01*
X151640Y226195D01*
X151638Y226314D01*
D15*
X156725Y246888D02*
X158250Y248413D01*
X158250Y251464D01*
X156725Y252989D01*
X155199Y252989D01*
X153674Y251464D01*
X152149Y252989D01*
X150623Y252989D01*
X149098Y251464D01*
X149098Y248413D01*
X150623Y246888D01*
X152149Y246888D01*
X153674Y248413D01*
X155199Y246888D01*
X156725Y246888D01*
X153674Y248413D02*
X153674Y251464D01*
D13*
X184785Y243213D02*
X184785Y235587D01*
X184785Y243213D02*
X182878Y245120D01*
X179065Y245120D01*
X177159Y243213D01*
X177159Y235587D01*
X179065Y233680D01*
X182878Y233680D01*
X184785Y235587D01*
X180972Y237493D02*
X177159Y233680D01*
X167371Y233680D02*
X167371Y245120D01*
X173091Y239400D01*
X165465Y239400D01*
X78434Y237056D02*
X78434Y189812D01*
X42366Y189812D01*
X42366Y237056D01*
X78434Y237056D01*
D16*
X69290Y231468D02*
X69292Y231587D01*
X69298Y231706D01*
X69308Y231824D01*
X69322Y231942D01*
X69340Y232059D01*
X69361Y232176D01*
X69387Y232292D01*
X69416Y232407D01*
X69450Y232522D01*
X69487Y232634D01*
X69528Y232746D01*
X69572Y232856D01*
X69620Y232965D01*
X69672Y233072D01*
X69728Y233177D01*
X69786Y233280D01*
X69849Y233381D01*
X69914Y233481D01*
X69983Y233577D01*
X70055Y233672D01*
X70130Y233764D01*
X70209Y233853D01*
X70290Y233940D01*
X70374Y234024D01*
X70461Y234105D01*
X70550Y234184D01*
X70642Y234259D01*
X70737Y234331D01*
X70833Y234400D01*
X70933Y234465D01*
X71034Y234528D01*
X71137Y234586D01*
X71242Y234642D01*
X71349Y234694D01*
X71458Y234742D01*
X71568Y234786D01*
X71680Y234827D01*
X71792Y234864D01*
X71907Y234898D01*
X72022Y234927D01*
X72138Y234953D01*
X72255Y234974D01*
X72372Y234992D01*
X72490Y235006D01*
X72608Y235016D01*
X72727Y235022D01*
X72846Y235024D01*
X72965Y235022D01*
X73084Y235016D01*
X73202Y235006D01*
X73320Y234992D01*
X73437Y234974D01*
X73554Y234953D01*
X73670Y234927D01*
X73785Y234898D01*
X73900Y234864D01*
X74012Y234827D01*
X74124Y234786D01*
X74234Y234742D01*
X74343Y234694D01*
X74450Y234642D01*
X74555Y234586D01*
X74658Y234528D01*
X74759Y234465D01*
X74859Y234400D01*
X74955Y234331D01*
X75050Y234259D01*
X75142Y234184D01*
X75231Y234105D01*
X75318Y234024D01*
X75402Y233940D01*
X75483Y233853D01*
X75562Y233764D01*
X75637Y233672D01*
X75709Y233577D01*
X75778Y233481D01*
X75843Y233381D01*
X75906Y233280D01*
X75964Y233177D01*
X76020Y233072D01*
X76072Y232965D01*
X76120Y232856D01*
X76164Y232746D01*
X76205Y232634D01*
X76242Y232522D01*
X76276Y232407D01*
X76305Y232292D01*
X76331Y232176D01*
X76352Y232059D01*
X76370Y231942D01*
X76384Y231824D01*
X76394Y231706D01*
X76400Y231587D01*
X76402Y231468D01*
X76400Y231349D01*
X76394Y231230D01*
X76384Y231112D01*
X76370Y230994D01*
X76352Y230877D01*
X76331Y230760D01*
X76305Y230644D01*
X76276Y230529D01*
X76242Y230414D01*
X76205Y230302D01*
X76164Y230190D01*
X76120Y230080D01*
X76072Y229971D01*
X76020Y229864D01*
X75964Y229759D01*
X75906Y229656D01*
X75843Y229555D01*
X75778Y229455D01*
X75709Y229359D01*
X75637Y229264D01*
X75562Y229172D01*
X75483Y229083D01*
X75402Y228996D01*
X75318Y228912D01*
X75231Y228831D01*
X75142Y228752D01*
X75050Y228677D01*
X74955Y228605D01*
X74859Y228536D01*
X74759Y228471D01*
X74658Y228408D01*
X74555Y228350D01*
X74450Y228294D01*
X74343Y228242D01*
X74234Y228194D01*
X74124Y228150D01*
X74012Y228109D01*
X73900Y228072D01*
X73785Y228038D01*
X73670Y228009D01*
X73554Y227983D01*
X73437Y227962D01*
X73320Y227944D01*
X73202Y227930D01*
X73084Y227920D01*
X72965Y227914D01*
X72846Y227912D01*
X72727Y227914D01*
X72608Y227920D01*
X72490Y227930D01*
X72372Y227944D01*
X72255Y227962D01*
X72138Y227983D01*
X72022Y228009D01*
X71907Y228038D01*
X71792Y228072D01*
X71680Y228109D01*
X71568Y228150D01*
X71458Y228194D01*
X71349Y228242D01*
X71242Y228294D01*
X71137Y228350D01*
X71034Y228408D01*
X70933Y228471D01*
X70833Y228536D01*
X70737Y228605D01*
X70642Y228677D01*
X70550Y228752D01*
X70461Y228831D01*
X70374Y228912D01*
X70290Y228996D01*
X70209Y229083D01*
X70130Y229172D01*
X70055Y229264D01*
X69983Y229359D01*
X69914Y229455D01*
X69849Y229555D01*
X69786Y229656D01*
X69728Y229759D01*
X69672Y229864D01*
X69620Y229971D01*
X69572Y230080D01*
X69528Y230190D01*
X69487Y230302D01*
X69450Y230414D01*
X69416Y230529D01*
X69387Y230644D01*
X69361Y230760D01*
X69340Y230877D01*
X69322Y230994D01*
X69308Y231112D01*
X69298Y231230D01*
X69292Y231349D01*
X69290Y231468D01*
D15*
X52272Y232999D02*
X50747Y234524D01*
X47696Y234524D01*
X46171Y232999D01*
X46171Y231473D01*
X47696Y229948D01*
X46171Y228423D01*
X46171Y226897D01*
X47696Y225372D01*
X50747Y225372D01*
X52272Y226897D01*
X52272Y228423D01*
X50747Y229948D01*
X52272Y231473D01*
X52272Y232999D01*
X50747Y229948D02*
X47696Y229948D01*
D13*
X72700Y241873D02*
X72700Y249500D01*
X70793Y251407D01*
X66980Y251407D01*
X65073Y249500D01*
X65073Y241873D01*
X66980Y239967D01*
X70793Y239967D01*
X72700Y241873D01*
X68887Y243780D02*
X65073Y239967D01*
X61006Y251407D02*
X53379Y251407D01*
X61006Y251407D02*
X61006Y245687D01*
X57193Y247593D01*
X55286Y247593D01*
X53379Y245687D01*
X53379Y241873D01*
X55286Y239967D01*
X59099Y239967D01*
X61006Y241873D01*
D12*
X119460Y178970D02*
X119460Y166470D01*
X128160Y166470D02*
X146160Y166470D01*
X146160Y178970D02*
X128160Y178970D01*
D15*
X140845Y182323D02*
X140845Y187407D01*
X140845Y182323D02*
X138303Y182323D01*
X137455Y183170D01*
X137455Y186560D01*
X138303Y187407D01*
X140845Y187407D01*
X135232Y187407D02*
X131842Y187407D01*
X135232Y187407D02*
X135232Y184865D01*
X133537Y185713D01*
X132690Y185713D01*
X131842Y184865D01*
X131842Y183170D01*
X132690Y182323D01*
X134385Y182323D01*
X135232Y183170D01*
D11*
X700944Y546982D02*
X721264Y546982D01*
X721264Y533266D02*
X721264Y527170D01*
X721264Y513454D02*
X700944Y513454D01*
D10*
X693451Y513277D02*
X701416Y521242D01*
X693451Y521242D02*
X701416Y513277D01*
X701416Y517259D02*
X693451Y517259D01*
X697434Y521242D02*
X697434Y513277D01*
D12*
X684903Y542386D02*
X676005Y542386D01*
X684903Y542386D02*
X686682Y540607D01*
X686682Y537048D01*
X684903Y535268D01*
X676005Y535268D01*
X679564Y530692D02*
X676005Y527133D01*
X686682Y527133D01*
X686682Y530692D02*
X686682Y523574D01*
X686682Y518998D02*
X686682Y511880D01*
X686682Y518998D02*
X679564Y511880D01*
X677785Y511880D01*
X676005Y513660D01*
X676005Y517219D01*
X677785Y518998D01*
D11*
X703908Y405881D02*
X724228Y405881D01*
X724228Y392165D02*
X724228Y386069D01*
X724228Y372353D02*
X703908Y372353D01*
D10*
X696415Y372175D02*
X704380Y380141D01*
X696415Y380141D02*
X704380Y372175D01*
X704380Y376158D02*
X696415Y376158D01*
X700397Y380141D02*
X700397Y372175D01*
D12*
X687055Y394125D02*
X678157Y394125D01*
X687055Y394125D02*
X688834Y392345D01*
X688834Y388786D01*
X687055Y387007D01*
X678157Y387007D01*
X681716Y382431D02*
X678157Y378872D01*
X688834Y378872D01*
X688834Y382431D02*
X688834Y375313D01*
X679937Y370737D02*
X678157Y368957D01*
X678157Y365398D01*
X679937Y363619D01*
X681716Y363619D01*
X683496Y365398D01*
X683496Y367178D01*
X683496Y365398D02*
X685275Y363619D01*
X687055Y363619D01*
X688834Y365398D01*
X688834Y368957D01*
X687055Y370737D01*
D11*
X706500Y273752D02*
X726820Y273752D01*
X726820Y260036D02*
X726820Y253940D01*
X726820Y240224D02*
X706500Y240224D01*
D10*
X699007Y240047D02*
X706973Y248012D01*
X706973Y240047D02*
X699007Y248012D01*
X699007Y244029D02*
X706973Y244029D01*
X702990Y248012D02*
X702990Y240047D01*
D12*
X689490Y266048D02*
X680593Y266048D01*
X689490Y266048D02*
X691270Y264269D01*
X691270Y260710D01*
X689490Y258930D01*
X680593Y258930D01*
X684152Y254354D02*
X680593Y250795D01*
X691270Y250795D01*
X691270Y254354D02*
X691270Y247236D01*
X691270Y237322D02*
X680593Y237322D01*
X685931Y242660D01*
X685931Y235542D01*
D11*
X706445Y182444D02*
X726765Y182444D01*
X726765Y168728D02*
X726765Y162632D01*
X726765Y148916D02*
X706445Y148916D01*
D10*
X698952Y148738D02*
X706917Y156704D01*
X698952Y156704D02*
X706917Y148738D01*
X706917Y152721D02*
X698952Y152721D01*
X702935Y156704D02*
X702935Y148738D01*
D12*
X689629Y178372D02*
X680731Y178372D01*
X689629Y178372D02*
X691409Y176593D01*
X691409Y173034D01*
X689629Y171254D01*
X680731Y171254D01*
X684290Y166678D02*
X680731Y163119D01*
X691409Y163119D01*
X691409Y166678D02*
X691409Y159560D01*
X680731Y154984D02*
X680731Y147866D01*
X680731Y154984D02*
X686070Y154984D01*
X684290Y151425D01*
X684290Y149646D01*
X686070Y147866D01*
X689629Y147866D01*
X691409Y149646D01*
X691409Y153205D01*
X689629Y154984D01*
D17*
X504952Y614680D02*
X504952Y617728D01*
X515620Y617728D01*
X515620Y614680D01*
X504952Y614680D01*
X504952Y611378D02*
X504952Y608330D01*
X504952Y611378D02*
X515620Y611378D01*
X515620Y608330D01*
X504952Y608330D01*
X504952Y604774D02*
X504952Y601726D01*
X504952Y604774D02*
X515620Y604774D01*
X515620Y601726D01*
X504952Y601726D01*
X504952Y598424D02*
X504952Y595376D01*
X504952Y598424D02*
X515620Y598424D01*
X515620Y595376D01*
X504952Y595376D01*
X504952Y591820D02*
X504952Y588772D01*
X504952Y591820D02*
X515620Y591820D01*
X515620Y588772D01*
X504952Y588772D01*
X504952Y585216D02*
X504952Y582168D01*
X504952Y585216D02*
X515620Y585216D01*
X515620Y582168D01*
X504952Y582168D01*
X504952Y578866D02*
X504952Y575818D01*
X504952Y578866D02*
X515620Y578866D01*
X515620Y575818D01*
X504952Y575818D01*
X504952Y572262D02*
X504952Y569214D01*
X504952Y572262D02*
X515620Y572262D01*
X515620Y569214D01*
X504952Y569214D01*
X504952Y565912D02*
X504952Y562864D01*
X504952Y565912D02*
X515620Y565912D01*
X515620Y562864D01*
X504952Y562864D01*
X504952Y559308D02*
X504952Y556260D01*
X504952Y559308D02*
X515620Y559308D01*
X515620Y556260D01*
X504952Y556260D01*
X504952Y552704D02*
X504952Y549656D01*
X504952Y552704D02*
X515620Y552704D01*
X515620Y549656D01*
X504952Y549656D01*
X504952Y546354D02*
X504952Y543306D01*
X504952Y546354D02*
X515620Y546354D01*
X515620Y543306D01*
X504952Y543306D01*
X504952Y539750D02*
X504952Y536702D01*
X504952Y539750D02*
X515620Y539750D01*
X515620Y536702D01*
X504952Y536702D01*
X504952Y533400D02*
X504952Y530352D01*
X504952Y533400D02*
X515620Y533400D01*
X515620Y530352D01*
X504952Y530352D01*
X460248Y530352D02*
X460248Y533400D01*
X460248Y530352D02*
X449580Y530352D01*
X449580Y533400D01*
X460248Y533400D01*
X460248Y536702D02*
X460248Y539750D01*
X460248Y536702D02*
X449580Y536702D01*
X449580Y539750D01*
X460248Y539750D01*
X460248Y543306D02*
X460248Y546354D01*
X460248Y543306D02*
X449580Y543306D01*
X449580Y546354D01*
X460248Y546354D01*
X460248Y549656D02*
X460248Y552704D01*
X460248Y549656D02*
X449580Y549656D01*
X449580Y552704D01*
X460248Y552704D01*
X460248Y556260D02*
X460248Y559308D01*
X460248Y556260D02*
X449580Y556260D01*
X449580Y559308D01*
X460248Y559308D01*
X460248Y562864D02*
X460248Y565912D01*
X460248Y562864D02*
X449580Y562864D01*
X449580Y565912D01*
X460248Y565912D01*
X460248Y569214D02*
X460248Y572262D01*
X460248Y569214D02*
X449580Y569214D01*
X449580Y572262D01*
X460248Y572262D01*
X460248Y575818D02*
X460248Y578866D01*
X460248Y575818D02*
X449580Y575818D01*
X449580Y578866D01*
X460248Y578866D01*
X460248Y582168D02*
X460248Y585216D01*
X460248Y582168D02*
X449580Y582168D01*
X449580Y585216D01*
X460248Y585216D01*
X460248Y588772D02*
X460248Y591820D01*
X460248Y588772D02*
X449580Y588772D01*
X449580Y591820D01*
X460248Y591820D01*
X460248Y595376D02*
X460248Y598424D01*
X460248Y595376D02*
X449580Y595376D01*
X449580Y598424D01*
X460248Y598424D01*
X460248Y601726D02*
X460248Y604774D01*
X460248Y601726D02*
X449580Y601726D01*
X449580Y604774D01*
X460248Y604774D01*
X460248Y608330D02*
X460248Y611378D01*
X460248Y608330D02*
X449580Y608330D01*
X449580Y611378D01*
X460248Y611378D01*
X460248Y614680D02*
X460248Y617728D01*
X460248Y614680D02*
X449580Y614680D01*
X449580Y617728D01*
X460248Y617728D01*
X460248Y525018D02*
X504952Y525018D01*
X460248Y525018D02*
X460248Y623062D01*
X479552Y623062D01*
X485648Y623062D01*
X504952Y623062D01*
X504952Y525018D01*
X485648Y623062D02*
X485646Y622953D01*
X485640Y622845D01*
X485631Y622736D01*
X485617Y622628D01*
X485600Y622521D01*
X485578Y622414D01*
X485553Y622308D01*
X485525Y622203D01*
X485492Y622099D01*
X485456Y621997D01*
X485416Y621896D01*
X485373Y621796D01*
X485326Y621698D01*
X485275Y621601D01*
X485221Y621507D01*
X485164Y621414D01*
X485104Y621324D01*
X485040Y621235D01*
X484973Y621149D01*
X484904Y621066D01*
X484831Y620985D01*
X484755Y620907D01*
X484677Y620831D01*
X484596Y620758D01*
X484513Y620689D01*
X484427Y620622D01*
X484338Y620558D01*
X484248Y620498D01*
X484155Y620441D01*
X484061Y620387D01*
X483964Y620336D01*
X483866Y620289D01*
X483766Y620246D01*
X483665Y620206D01*
X483563Y620170D01*
X483459Y620137D01*
X483354Y620109D01*
X483248Y620084D01*
X483141Y620062D01*
X483034Y620045D01*
X482926Y620031D01*
X482817Y620022D01*
X482709Y620016D01*
X482600Y620014D01*
X482491Y620016D01*
X482383Y620022D01*
X482274Y620031D01*
X482166Y620045D01*
X482059Y620062D01*
X481952Y620084D01*
X481846Y620109D01*
X481741Y620137D01*
X481637Y620170D01*
X481535Y620206D01*
X481434Y620246D01*
X481334Y620289D01*
X481236Y620336D01*
X481139Y620387D01*
X481045Y620441D01*
X480952Y620498D01*
X480862Y620558D01*
X480773Y620622D01*
X480687Y620689D01*
X480604Y620758D01*
X480523Y620831D01*
X480445Y620907D01*
X480369Y620985D01*
X480296Y621066D01*
X480227Y621149D01*
X480160Y621235D01*
X480096Y621324D01*
X480036Y621414D01*
X479979Y621507D01*
X479925Y621601D01*
X479874Y621698D01*
X479827Y621796D01*
X479784Y621896D01*
X479744Y621997D01*
X479708Y622099D01*
X479675Y622203D01*
X479647Y622308D01*
X479622Y622414D01*
X479600Y622521D01*
X479583Y622628D01*
X479569Y622736D01*
X479560Y622845D01*
X479554Y622953D01*
X479552Y623062D01*
D10*
X511338Y621370D02*
X519303Y629336D01*
X511338Y629336D02*
X519303Y621370D01*
X519303Y625353D02*
X511338Y625353D01*
X515320Y621370D02*
X515320Y629336D01*
X499491Y522869D02*
X499491Y512912D01*
X497500Y510921D01*
X493517Y510921D01*
X491526Y512912D01*
X491526Y522869D01*
X481823Y522869D02*
X481823Y510921D01*
X487797Y516895D02*
X481823Y522869D01*
X479832Y516895D02*
X487797Y516895D01*
D15*
X846074Y179070D02*
X891286Y179070D01*
X891286Y140970D02*
X846074Y140970D01*
D12*
X866750Y170020D02*
X876980Y160020D01*
X866750Y150020D01*
X866750Y170020D01*
D15*
X826790Y165872D02*
X826790Y154178D01*
X820943Y154178D01*
X818994Y156127D01*
X818994Y163923D01*
X820943Y165872D01*
X826790Y165872D01*
X811198Y163923D02*
X807300Y165872D01*
X811198Y163923D02*
X815096Y160025D01*
X815096Y156127D01*
X813147Y154178D01*
X809249Y154178D01*
X807300Y156127D01*
X807300Y158076D01*
X809249Y160025D01*
X815096Y160025D01*
X847335Y387524D02*
X892547Y387524D01*
X892547Y349424D02*
X847335Y349424D01*
D12*
X868011Y378474D02*
X878241Y368474D01*
X868011Y358474D01*
X868011Y378474D01*
D15*
X835590Y374890D02*
X835590Y363197D01*
X829743Y363197D01*
X827794Y365145D01*
X827794Y372941D01*
X829743Y374890D01*
X835590Y374890D01*
X823896Y374890D02*
X816100Y374890D01*
X816100Y372941D01*
X823896Y365145D01*
X823896Y363197D01*
X847255Y454689D02*
X892467Y454689D01*
X892467Y416589D02*
X847255Y416589D01*
D12*
X867931Y445639D02*
X878161Y435639D01*
X867931Y425639D01*
X867931Y445639D01*
D15*
X832523Y441491D02*
X832523Y429797D01*
X826676Y429797D01*
X824727Y431746D01*
X824727Y439542D01*
X826676Y441491D01*
X832523Y441491D01*
X820829Y439542D02*
X818880Y441491D01*
X814982Y441491D01*
X813033Y439542D01*
X813033Y437593D01*
X814982Y435644D01*
X813033Y433695D01*
X813033Y431746D01*
X814982Y429797D01*
X818880Y429797D01*
X820829Y431746D01*
X820829Y433695D01*
X818880Y435644D01*
X820829Y437593D01*
X820829Y439542D01*
X818880Y435644D02*
X814982Y435644D01*
X814969Y585691D02*
X814969Y630903D01*
X853069Y630903D02*
X853069Y585691D01*
D12*
X824019Y606367D02*
X834019Y616597D01*
X844019Y606367D01*
X824019Y606367D01*
D15*
X811931Y599387D02*
X800237Y599387D01*
X800237Y605234D01*
X802186Y607183D01*
X809982Y607183D01*
X811931Y605234D01*
X811931Y599387D01*
X802186Y611081D02*
X800237Y613030D01*
X800237Y616928D01*
X802186Y618877D01*
X809982Y618877D01*
X811931Y616928D01*
X811931Y613030D01*
X809982Y611081D01*
X808033Y611081D01*
X806084Y613030D01*
X806084Y618877D01*
D12*
X642132Y668276D02*
X640352Y666496D01*
X638573Y666496D01*
X636793Y668276D01*
X636793Y677173D01*
X635014Y677173D02*
X638573Y677173D01*
X630438Y675394D02*
X628659Y677173D01*
X625099Y677173D01*
X623320Y675394D01*
X623320Y673614D01*
X625099Y671835D01*
X626879Y671835D01*
X625099Y671835D02*
X623320Y670055D01*
X623320Y668276D01*
X625099Y666496D01*
X628659Y666496D01*
X630438Y668276D01*
D11*
X492416Y458452D02*
X483272Y458452D01*
X585888Y458452D02*
X585888Y449308D01*
X585888Y355836D02*
X576744Y355836D01*
X483272Y355836D02*
X483272Y364980D01*
X483272Y449308D02*
X483272Y458452D01*
X576744Y458452D02*
X585888Y458452D01*
X585888Y364980D02*
X585888Y355836D01*
X492416Y355836D02*
X483272Y355836D01*
D10*
X464440Y367434D02*
X456475Y359468D01*
X464440Y359468D02*
X456475Y367434D01*
X456475Y363451D02*
X464440Y363451D01*
X460458Y367434D02*
X460458Y359468D01*
X483325Y353215D02*
X483325Y343258D01*
X481334Y341267D01*
X477351Y341267D01*
X475360Y343258D01*
X475360Y353215D01*
X471631Y353215D02*
X463666Y353215D01*
X471631Y353215D02*
X471631Y347241D01*
X467649Y349233D01*
X465657Y349233D01*
X463666Y347241D01*
X463666Y343258D01*
X465657Y341267D01*
X469640Y341267D01*
X471631Y343258D01*
D12*
X464820Y20320D02*
X439720Y20320D01*
X477520Y30320D02*
X477520Y61120D01*
X464520Y71120D02*
X439720Y71120D01*
X426720Y61120D02*
X426720Y30320D01*
X439420Y45720D02*
X439424Y46032D01*
X439435Y46343D01*
X439454Y46654D01*
X439481Y46965D01*
X439516Y47275D01*
X439557Y47583D01*
X439607Y47891D01*
X439664Y48198D01*
X439729Y48503D01*
X439801Y48806D01*
X439880Y49107D01*
X439967Y49407D01*
X440061Y49704D01*
X440162Y49999D01*
X440271Y50291D01*
X440387Y50580D01*
X440510Y50867D01*
X440639Y51150D01*
X440776Y51430D01*
X440920Y51707D01*
X441070Y51980D01*
X441227Y52249D01*
X441390Y52514D01*
X441560Y52776D01*
X441737Y53033D01*
X441919Y53285D01*
X442108Y53533D01*
X442303Y53777D01*
X442503Y54015D01*
X442710Y54249D01*
X442922Y54477D01*
X443140Y54700D01*
X443363Y54918D01*
X443591Y55130D01*
X443825Y55337D01*
X444063Y55537D01*
X444307Y55732D01*
X444555Y55921D01*
X444807Y56103D01*
X445064Y56280D01*
X445326Y56450D01*
X445591Y56613D01*
X445860Y56770D01*
X446133Y56920D01*
X446410Y57064D01*
X446690Y57201D01*
X446973Y57330D01*
X447260Y57453D01*
X447549Y57569D01*
X447841Y57678D01*
X448136Y57779D01*
X448433Y57873D01*
X448733Y57960D01*
X449034Y58039D01*
X449337Y58111D01*
X449642Y58176D01*
X449949Y58233D01*
X450257Y58283D01*
X450565Y58324D01*
X450875Y58359D01*
X451186Y58386D01*
X451497Y58405D01*
X451808Y58416D01*
X452120Y58420D01*
X452432Y58416D01*
X452743Y58405D01*
X453054Y58386D01*
X453365Y58359D01*
X453675Y58324D01*
X453983Y58283D01*
X454291Y58233D01*
X454598Y58176D01*
X454903Y58111D01*
X455206Y58039D01*
X455507Y57960D01*
X455807Y57873D01*
X456104Y57779D01*
X456399Y57678D01*
X456691Y57569D01*
X456980Y57453D01*
X457267Y57330D01*
X457550Y57201D01*
X457830Y57064D01*
X458107Y56920D01*
X458380Y56770D01*
X458649Y56613D01*
X458914Y56450D01*
X459176Y56280D01*
X459433Y56103D01*
X459685Y55921D01*
X459933Y55732D01*
X460177Y55537D01*
X460415Y55337D01*
X460649Y55130D01*
X460877Y54918D01*
X461100Y54700D01*
X461318Y54477D01*
X461530Y54249D01*
X461737Y54015D01*
X461937Y53777D01*
X462132Y53533D01*
X462321Y53285D01*
X462503Y53033D01*
X462680Y52776D01*
X462850Y52514D01*
X463013Y52249D01*
X463170Y51980D01*
X463320Y51707D01*
X463464Y51430D01*
X463601Y51150D01*
X463730Y50867D01*
X463853Y50580D01*
X463969Y50291D01*
X464078Y49999D01*
X464179Y49704D01*
X464273Y49407D01*
X464360Y49107D01*
X464439Y48806D01*
X464511Y48503D01*
X464576Y48198D01*
X464633Y47891D01*
X464683Y47583D01*
X464724Y47275D01*
X464759Y46965D01*
X464786Y46654D01*
X464805Y46343D01*
X464816Y46032D01*
X464820Y45720D01*
X464816Y45408D01*
X464805Y45097D01*
X464786Y44786D01*
X464759Y44475D01*
X464724Y44165D01*
X464683Y43857D01*
X464633Y43549D01*
X464576Y43242D01*
X464511Y42937D01*
X464439Y42634D01*
X464360Y42333D01*
X464273Y42033D01*
X464179Y41736D01*
X464078Y41441D01*
X463969Y41149D01*
X463853Y40860D01*
X463730Y40573D01*
X463601Y40290D01*
X463464Y40010D01*
X463320Y39733D01*
X463170Y39460D01*
X463013Y39191D01*
X462850Y38926D01*
X462680Y38664D01*
X462503Y38407D01*
X462321Y38155D01*
X462132Y37907D01*
X461937Y37663D01*
X461737Y37425D01*
X461530Y37191D01*
X461318Y36963D01*
X461100Y36740D01*
X460877Y36522D01*
X460649Y36310D01*
X460415Y36103D01*
X460177Y35903D01*
X459933Y35708D01*
X459685Y35519D01*
X459433Y35337D01*
X459176Y35160D01*
X458914Y34990D01*
X458649Y34827D01*
X458380Y34670D01*
X458107Y34520D01*
X457830Y34376D01*
X457550Y34239D01*
X457267Y34110D01*
X456980Y33987D01*
X456691Y33871D01*
X456399Y33762D01*
X456104Y33661D01*
X455807Y33567D01*
X455507Y33480D01*
X455206Y33401D01*
X454903Y33329D01*
X454598Y33264D01*
X454291Y33207D01*
X453983Y33157D01*
X453675Y33116D01*
X453365Y33081D01*
X453054Y33054D01*
X452743Y33035D01*
X452432Y33024D01*
X452120Y33020D01*
X451808Y33024D01*
X451497Y33035D01*
X451186Y33054D01*
X450875Y33081D01*
X450565Y33116D01*
X450257Y33157D01*
X449949Y33207D01*
X449642Y33264D01*
X449337Y33329D01*
X449034Y33401D01*
X448733Y33480D01*
X448433Y33567D01*
X448136Y33661D01*
X447841Y33762D01*
X447549Y33871D01*
X447260Y33987D01*
X446973Y34110D01*
X446690Y34239D01*
X446410Y34376D01*
X446133Y34520D01*
X445860Y34670D01*
X445591Y34827D01*
X445326Y34990D01*
X445064Y35160D01*
X444807Y35337D01*
X444555Y35519D01*
X444307Y35708D01*
X444063Y35903D01*
X443825Y36103D01*
X443591Y36310D01*
X443363Y36522D01*
X443140Y36740D01*
X442922Y36963D01*
X442710Y37191D01*
X442503Y37425D01*
X442303Y37663D01*
X442108Y37907D01*
X441919Y38155D01*
X441737Y38407D01*
X441560Y38664D01*
X441390Y38926D01*
X441227Y39191D01*
X441070Y39460D01*
X440920Y39733D01*
X440776Y40010D01*
X440639Y40290D01*
X440510Y40573D01*
X440387Y40860D01*
X440271Y41149D01*
X440162Y41441D01*
X440061Y41736D01*
X439967Y42033D01*
X439880Y42333D01*
X439801Y42634D01*
X439729Y42937D01*
X439664Y43242D01*
X439607Y43549D01*
X439557Y43857D01*
X439516Y44165D01*
X439481Y44475D01*
X439454Y44786D01*
X439435Y45097D01*
X439424Y45408D01*
X439420Y45720D01*
D15*
X457960Y15752D02*
X457112Y14905D01*
X457960Y15752D02*
X459655Y15752D01*
X460502Y14905D01*
X460502Y14058D01*
X459655Y13210D01*
X457960Y13210D01*
X457112Y12363D01*
X457112Y11515D01*
X457960Y10668D01*
X459655Y10668D01*
X460502Y11515D01*
X454889Y10668D02*
X454889Y15752D01*
X453194Y12363D02*
X454889Y10668D01*
X453194Y12363D02*
X451499Y10668D01*
X451499Y15752D01*
X449276Y14058D02*
X447581Y15752D01*
X447581Y10668D01*
X449276Y10668D02*
X445886Y10668D01*
D11*
X428489Y429039D02*
X429591Y430140D01*
X431794Y430140D01*
X432895Y429039D01*
X432895Y424632D01*
X431794Y423531D01*
X429591Y423531D01*
X428489Y424632D01*
X425411Y427937D02*
X423208Y430140D01*
X423208Y423531D01*
X425411Y423531D02*
X421005Y423531D01*
X417927Y430140D02*
X413521Y430140D01*
X413521Y429039D01*
X417927Y424632D01*
X417927Y423531D01*
X452177Y429102D02*
X453279Y430204D01*
X455482Y430204D01*
X456584Y429102D01*
X456584Y424696D01*
X455482Y423594D01*
X453279Y423594D01*
X452177Y424696D01*
X449099Y428001D02*
X446896Y430204D01*
X446896Y423594D01*
X449099Y423594D02*
X444693Y423594D01*
X441615Y429102D02*
X440514Y430204D01*
X438310Y430204D01*
X437209Y429102D01*
X437209Y428001D01*
X438310Y426899D01*
X437209Y425797D01*
X437209Y424696D01*
X438310Y423594D01*
X440514Y423594D01*
X441615Y424696D01*
X441615Y425797D01*
X440514Y426899D01*
X441615Y428001D01*
X441615Y429102D01*
X440514Y426899D02*
X438310Y426899D01*
X534323Y517327D02*
X535425Y518428D01*
X537628Y518428D01*
X538729Y517327D01*
X538729Y512920D01*
X537628Y511819D01*
X535425Y511819D01*
X534323Y512920D01*
X531245Y516225D02*
X529042Y518428D01*
X529042Y511819D01*
X531245Y511819D02*
X526839Y511819D01*
X523761Y512920D02*
X522659Y511819D01*
X520456Y511819D01*
X519355Y512920D01*
X519355Y517327D01*
X520456Y518428D01*
X522659Y518428D01*
X523761Y517327D01*
X523761Y516225D01*
X522659Y515123D01*
X519355Y515123D01*
X607730Y488739D02*
X608831Y489840D01*
X611034Y489840D01*
X612136Y488739D01*
X612136Y484332D01*
X611034Y483231D01*
X608831Y483231D01*
X607730Y484332D01*
X604652Y483231D02*
X600246Y483231D01*
X604652Y483231D02*
X600246Y487637D01*
X600246Y488739D01*
X601347Y489840D01*
X603550Y489840D01*
X604652Y488739D01*
X597168Y487637D02*
X594965Y489840D01*
X594965Y483231D01*
X597168Y483231D02*
X592761Y483231D01*
X515721Y307673D02*
X514620Y306572D01*
X515721Y307673D02*
X517925Y307673D01*
X519026Y306572D01*
X519026Y302165D01*
X517925Y301063D01*
X515721Y301063D01*
X514620Y302165D01*
X511542Y301063D02*
X507136Y301063D01*
X511542Y301063D02*
X507136Y305470D01*
X507136Y306572D01*
X508237Y307673D01*
X510440Y307673D01*
X511542Y306572D01*
X504058Y307673D02*
X499651Y307673D01*
X504058Y307673D02*
X504058Y304368D01*
X501855Y305470D01*
X500753Y305470D01*
X499651Y304368D01*
X499651Y302165D01*
X500753Y301063D01*
X502956Y301063D01*
X504058Y302165D01*
X508973Y487418D02*
X510075Y488519D01*
X512278Y488519D01*
X513379Y487418D01*
X513379Y483011D01*
X512278Y481910D01*
X510075Y481910D01*
X508973Y483011D01*
X505895Y481910D02*
X501489Y481910D01*
X505895Y481910D02*
X501489Y486316D01*
X501489Y487418D01*
X502590Y488519D01*
X504794Y488519D01*
X505895Y487418D01*
X498411Y487418D02*
X498411Y483011D01*
X498411Y487418D02*
X497310Y488519D01*
X495106Y488519D01*
X494005Y487418D01*
X494005Y483011D01*
X495106Y481910D01*
X497310Y481910D01*
X498411Y483011D01*
X494005Y487418D01*
X618506Y447470D02*
X619608Y448572D01*
X621811Y448572D01*
X622912Y447470D01*
X622912Y443064D01*
X621811Y441962D01*
X619608Y441962D01*
X618506Y443064D01*
X615428Y441962D02*
X611022Y441962D01*
X615428Y441962D02*
X611022Y446369D01*
X611022Y447470D01*
X612123Y448572D01*
X614327Y448572D01*
X615428Y447470D01*
X607944Y447470D02*
X606843Y448572D01*
X604639Y448572D01*
X603538Y447470D01*
X603538Y446369D01*
X604639Y445267D01*
X605741Y445267D01*
X604639Y445267D02*
X603538Y444165D01*
X603538Y443064D01*
X604639Y441962D01*
X606843Y441962D01*
X607944Y443064D01*
X515812Y325001D02*
X514711Y323899D01*
X515812Y325001D02*
X518015Y325001D01*
X519117Y323899D01*
X519117Y319493D01*
X518015Y318391D01*
X515812Y318391D01*
X514711Y319493D01*
X511633Y318391D02*
X507226Y318391D01*
X511633Y318391D02*
X507226Y322798D01*
X507226Y323899D01*
X508328Y325001D01*
X510531Y325001D01*
X511633Y323899D01*
X504149Y325001D02*
X499742Y325001D01*
X499742Y323899D01*
X504149Y319493D01*
X504149Y318391D01*
X451176Y365600D02*
X444566Y365600D01*
X451176Y365600D02*
X451176Y368905D01*
X450074Y370006D01*
X447871Y370006D01*
X446769Y368905D01*
X446769Y365600D01*
X446769Y367803D02*
X444566Y370006D01*
X444566Y373084D02*
X444566Y377491D01*
X444566Y373084D02*
X448973Y377491D01*
X450074Y377491D01*
X451176Y376389D01*
X451176Y374186D01*
X450074Y373084D01*
X451176Y380568D02*
X451176Y384975D01*
X450074Y384975D01*
X445668Y380568D01*
X444566Y380568D01*
X409071Y365733D02*
X402461Y365733D01*
X409071Y365733D02*
X409071Y369038D01*
X407969Y370139D01*
X405766Y370139D01*
X404664Y369038D01*
X404664Y365733D01*
X404664Y367936D02*
X402461Y370139D01*
X402461Y373217D02*
X402461Y377623D01*
X402461Y373217D02*
X406868Y377623D01*
X407969Y377623D01*
X409071Y376522D01*
X409071Y374319D01*
X407969Y373217D01*
X407969Y380701D02*
X409071Y381803D01*
X409071Y384006D01*
X407969Y385108D01*
X406868Y385108D01*
X405766Y384006D01*
X404664Y385108D01*
X403563Y385108D01*
X402461Y384006D01*
X402461Y381803D01*
X403563Y380701D01*
X404664Y380701D01*
X405766Y381803D01*
X406868Y380701D01*
X407969Y380701D01*
X405766Y381803D02*
X405766Y384006D01*
X371564Y88981D02*
X371564Y82371D01*
X371564Y88981D02*
X368260Y88981D01*
X367158Y87879D01*
X367158Y85676D01*
X368260Y84574D01*
X371564Y84574D01*
X369361Y84574D02*
X367158Y82371D01*
X364080Y82371D02*
X359674Y82371D01*
X364080Y82371D02*
X359674Y86778D01*
X359674Y87879D01*
X360775Y88981D01*
X362979Y88981D01*
X364080Y87879D01*
X354393Y87879D02*
X352190Y88981D01*
X354393Y87879D02*
X356596Y85676D01*
X356596Y83473D01*
X355494Y82371D01*
X353291Y82371D01*
X352190Y83473D01*
X352190Y84574D01*
X353291Y85676D01*
X356596Y85676D01*
X371144Y103124D02*
X371144Y109734D01*
X367839Y109734D01*
X366738Y108632D01*
X366738Y106429D01*
X367839Y105327D01*
X371144Y105327D01*
X368941Y105327D02*
X366738Y103124D01*
X363660Y103124D02*
X359254Y103124D01*
X363660Y103124D02*
X359254Y107530D01*
X359254Y108632D01*
X360355Y109734D01*
X362559Y109734D01*
X363660Y108632D01*
X352871Y109734D02*
X352871Y103124D01*
X356176Y106429D02*
X352871Y109734D01*
X351770Y106429D02*
X356176Y106429D01*
X388631Y161034D02*
X389733Y162135D01*
X391936Y162135D01*
X393037Y161034D01*
X393037Y156627D01*
X391936Y155526D01*
X389733Y155526D01*
X388631Y156627D01*
X385553Y162135D02*
X381147Y162135D01*
X381147Y161034D01*
X385553Y156627D01*
X385553Y155526D01*
X275994Y573866D02*
X269384Y573866D01*
X275994Y573866D02*
X275994Y577171D01*
X274892Y578272D01*
X272689Y578272D01*
X271587Y577171D01*
X271587Y573866D01*
X271587Y576069D02*
X269384Y578272D01*
X274892Y581350D02*
X275994Y582451D01*
X275994Y584655D01*
X274892Y585756D01*
X273791Y585756D01*
X272689Y584655D01*
X272689Y583553D01*
X272689Y584655D02*
X271587Y585756D01*
X270486Y585756D01*
X269384Y584655D01*
X269384Y582451D01*
X270486Y581350D01*
X315560Y588419D02*
X322170Y588419D01*
X322170Y591724D01*
X321068Y592825D01*
X318865Y592825D01*
X317764Y591724D01*
X317764Y588419D01*
X317764Y590622D02*
X315560Y592825D01*
X316662Y595903D02*
X315560Y597005D01*
X315560Y599208D01*
X316662Y600309D01*
X321068Y600309D01*
X322170Y599208D01*
X322170Y597005D01*
X321068Y595903D01*
X319967Y595903D01*
X318865Y597005D01*
X318865Y600309D01*
X323516Y588804D02*
X323516Y579596D01*
X341964Y579596D01*
X341964Y588804D01*
X323516Y588804D01*
D13*
X351414Y594710D02*
X351414Y601573D01*
X351414Y594710D02*
X347982Y594710D01*
X346838Y595854D01*
X346838Y600429D01*
X347982Y601573D01*
X351414Y601573D01*
X340498Y601573D02*
X340498Y594710D01*
X343930Y598141D02*
X340498Y601573D01*
X339354Y598141D02*
X343930Y598141D01*
D11*
X376181Y580909D02*
X377283Y579808D01*
X377283Y577604D01*
X376181Y576503D01*
X371775Y576503D01*
X370673Y577604D01*
X370673Y579808D01*
X371775Y580909D01*
X370673Y587292D02*
X377283Y587292D01*
X373978Y583987D01*
X373978Y588393D01*
X467136Y647112D02*
X468237Y648214D01*
X470441Y648214D01*
X471542Y647112D01*
X471542Y642706D01*
X470441Y641604D01*
X468237Y641604D01*
X467136Y642706D01*
X464058Y647112D02*
X462956Y648214D01*
X460753Y648214D01*
X459652Y647112D01*
X459652Y646010D01*
X460753Y644909D01*
X459652Y643807D01*
X459652Y642706D01*
X460753Y641604D01*
X462956Y641604D01*
X464058Y642706D01*
X464058Y643807D01*
X462956Y644909D01*
X464058Y646010D01*
X464058Y647112D01*
X462956Y644909D02*
X460753Y644909D01*
X507776Y655240D02*
X508877Y656342D01*
X511081Y656342D01*
X512182Y655240D01*
X512182Y650834D01*
X511081Y649732D01*
X508877Y649732D01*
X507776Y650834D01*
X504698Y650834D02*
X503596Y649732D01*
X501393Y649732D01*
X500292Y650834D01*
X500292Y655240D01*
X501393Y656342D01*
X503596Y656342D01*
X504698Y655240D01*
X504698Y654138D01*
X503596Y653037D01*
X500292Y653037D01*
X419614Y587201D02*
X418512Y588302D01*
X419614Y587201D02*
X419614Y584997D01*
X418512Y583896D01*
X414106Y583896D01*
X413004Y584997D01*
X413004Y587201D01*
X414106Y588302D01*
X417410Y591380D02*
X419614Y593583D01*
X413004Y593583D01*
X413004Y591380D02*
X413004Y595786D01*
X413004Y598864D02*
X413004Y603270D01*
X413004Y598864D02*
X417410Y603270D01*
X418512Y603270D01*
X419614Y602169D01*
X419614Y599966D01*
X418512Y598864D01*
X422154Y625301D02*
X421052Y626402D01*
X422154Y625301D02*
X422154Y623097D01*
X421052Y621996D01*
X416646Y621996D01*
X415544Y623097D01*
X415544Y625301D01*
X416646Y626402D01*
X419950Y629480D02*
X422154Y631683D01*
X415544Y631683D01*
X415544Y629480D02*
X415544Y633886D01*
X421052Y636964D02*
X422154Y638066D01*
X422154Y640269D01*
X421052Y641370D01*
X419950Y641370D01*
X418849Y640269D01*
X418849Y639167D01*
X418849Y640269D02*
X417747Y641370D01*
X416646Y641370D01*
X415544Y640269D01*
X415544Y638066D01*
X416646Y636964D01*
X548052Y606082D02*
X549154Y604981D01*
X549154Y602777D01*
X548052Y601676D01*
X543646Y601676D01*
X542544Y602777D01*
X542544Y604981D01*
X543646Y606082D01*
X546950Y609160D02*
X549154Y611363D01*
X542544Y611363D01*
X542544Y609160D02*
X542544Y613566D01*
X542544Y619949D02*
X549154Y619949D01*
X545849Y616644D01*
X545849Y621050D01*
D13*
X289902Y632143D02*
X289902Y636973D01*
X287487Y636973D01*
X286682Y636168D01*
X286682Y634558D01*
X287487Y633753D01*
X289902Y633753D01*
X288292Y633753D02*
X286682Y632143D01*
X284289Y632143D02*
X281069Y632143D01*
X284289Y632143D02*
X281069Y635363D01*
X281069Y636168D01*
X281874Y636973D01*
X283484Y636973D01*
X284289Y636168D01*
X316546Y623291D02*
X321376Y623291D01*
X321376Y625706D01*
X320571Y626511D01*
X318961Y626511D01*
X318156Y625706D01*
X318156Y623291D01*
X318156Y624901D02*
X316546Y626511D01*
X320571Y628904D02*
X321376Y629709D01*
X321376Y631319D01*
X320571Y632124D01*
X319766Y632124D01*
X318961Y631319D01*
X318156Y632124D01*
X317351Y632124D01*
X316546Y631319D01*
X316546Y629709D01*
X317351Y628904D01*
X318156Y628904D01*
X318961Y629709D01*
X319766Y628904D01*
X320571Y628904D01*
X318961Y629709D02*
X318961Y631319D01*
D11*
X375625Y613067D02*
X376727Y611965D01*
X376727Y609762D01*
X375625Y608660D01*
X371219Y608660D01*
X370117Y609762D01*
X370117Y611965D01*
X371219Y613067D01*
X375625Y616145D02*
X376727Y617246D01*
X376727Y619449D01*
X375625Y620551D01*
X374524Y620551D01*
X373422Y619449D01*
X373422Y618348D01*
X373422Y619449D02*
X372320Y620551D01*
X371219Y620551D01*
X370117Y619449D01*
X370117Y617246D01*
X371219Y616145D01*
X323516Y612616D02*
X323516Y621824D01*
X323516Y612616D02*
X341964Y612616D01*
X341964Y621824D01*
X323516Y621824D01*
D13*
X352916Y624325D02*
X352916Y631188D01*
X352916Y624325D02*
X349484Y624325D01*
X348340Y625469D01*
X348340Y630044D01*
X349484Y631188D01*
X352916Y631188D01*
X345432Y630044D02*
X344288Y631188D01*
X342000Y631188D01*
X340856Y630044D01*
X340856Y628900D01*
X342000Y627756D01*
X343144Y627756D01*
X342000Y627756D02*
X340856Y626612D01*
X340856Y625469D01*
X342000Y624325D01*
X344288Y624325D01*
X345432Y625469D01*
D11*
X288592Y669725D02*
X288592Y676334D01*
X285287Y676334D01*
X284186Y675233D01*
X284186Y673030D01*
X285287Y671928D01*
X288592Y671928D01*
X286389Y671928D02*
X284186Y669725D01*
X281108Y674131D02*
X278905Y676334D01*
X278905Y669725D01*
X281108Y669725D02*
X276701Y669725D01*
X311666Y669738D02*
X311666Y676348D01*
X308361Y676348D01*
X307259Y675246D01*
X307259Y673043D01*
X308361Y671942D01*
X311666Y671942D01*
X309463Y671942D02*
X307259Y669738D01*
X304182Y676348D02*
X299775Y676348D01*
X299775Y675246D01*
X304182Y670840D01*
X304182Y669738D01*
X323516Y657384D02*
X323516Y648176D01*
X341964Y648176D01*
X341964Y657384D01*
X323516Y657384D01*
D13*
X341130Y667903D02*
X341130Y674767D01*
X341130Y667903D02*
X337698Y667903D01*
X336554Y669047D01*
X336554Y673623D01*
X337698Y674767D01*
X341130Y674767D01*
X333646Y667903D02*
X329070Y667903D01*
X333646Y667903D02*
X329070Y672479D01*
X329070Y673623D01*
X330214Y674767D01*
X332502Y674767D01*
X333646Y673623D01*
D11*
X371931Y676524D02*
X371931Y669914D01*
X371931Y676524D02*
X368626Y676524D01*
X367524Y675422D01*
X367524Y673219D01*
X368626Y672117D01*
X371931Y672117D01*
X369727Y672117D02*
X367524Y669914D01*
X364446Y674320D02*
X362243Y676524D01*
X362243Y669914D01*
X364446Y669914D02*
X360040Y669914D01*
X356962Y675422D02*
X355861Y676524D01*
X353658Y676524D01*
X352556Y675422D01*
X352556Y674320D01*
X353658Y673219D01*
X352556Y672117D01*
X352556Y671015D01*
X353658Y669914D01*
X355861Y669914D01*
X356962Y671015D01*
X356962Y672117D01*
X355861Y673219D01*
X356962Y674320D01*
X356962Y675422D01*
X355861Y673219D02*
X353658Y673219D01*
X384626Y674757D02*
X385728Y675858D01*
X387931Y675858D01*
X389033Y674757D01*
X389033Y670350D01*
X387931Y669249D01*
X385728Y669249D01*
X384626Y670350D01*
X381549Y669249D02*
X377142Y669249D01*
X377142Y673655D02*
X381549Y669249D01*
X377142Y673655D02*
X377142Y674757D01*
X378244Y675858D01*
X380447Y675858D01*
X381549Y674757D01*
X369868Y565929D02*
X369868Y559319D01*
X369868Y565929D02*
X366563Y565929D01*
X365462Y564827D01*
X365462Y562624D01*
X366563Y561522D01*
X369868Y561522D01*
X367665Y561522D02*
X365462Y559319D01*
X362384Y563726D02*
X360181Y565929D01*
X360181Y559319D01*
X362384Y559319D02*
X357977Y559319D01*
X354900Y560421D02*
X353798Y559319D01*
X351595Y559319D01*
X350493Y560421D01*
X350493Y564827D01*
X351595Y565929D01*
X353798Y565929D01*
X354900Y564827D01*
X354900Y563726D01*
X353798Y562624D01*
X350493Y562624D01*
X317504Y530814D02*
X317504Y524204D01*
X317504Y530814D02*
X314199Y530814D01*
X313097Y529712D01*
X313097Y527509D01*
X314199Y526407D01*
X317504Y526407D01*
X315301Y526407D02*
X313097Y524204D01*
X310020Y528610D02*
X307816Y530814D01*
X307816Y524204D01*
X305613Y524204D02*
X310020Y524204D01*
X302535Y524204D02*
X298129Y524204D01*
X302535Y524204D02*
X298129Y528610D01*
X298129Y529712D01*
X299231Y530814D01*
X301434Y530814D01*
X302535Y529712D01*
X292831Y530875D02*
X292831Y524265D01*
X292831Y530875D02*
X289526Y530875D01*
X288424Y529773D01*
X288424Y527570D01*
X289526Y526468D01*
X292831Y526468D01*
X290628Y526468D02*
X288424Y524265D01*
X285347Y528671D02*
X283143Y530875D01*
X283143Y524265D01*
X280940Y524265D02*
X285347Y524265D01*
X277863Y529773D02*
X276761Y530875D01*
X274558Y530875D01*
X273456Y529773D01*
X273456Y528671D01*
X274558Y527570D01*
X275659Y527570D01*
X274558Y527570D02*
X273456Y526468D01*
X273456Y525367D01*
X274558Y524265D01*
X276761Y524265D01*
X277863Y525367D01*
X371203Y491719D02*
X371203Y485109D01*
X371203Y491719D02*
X367898Y491719D01*
X366796Y490617D01*
X366796Y488414D01*
X367898Y487312D01*
X371203Y487312D01*
X368999Y487312D02*
X366796Y485109D01*
X363718Y485109D02*
X359312Y485109D01*
X363718Y485109D02*
X359312Y489516D01*
X359312Y490617D01*
X360414Y491719D01*
X362617Y491719D01*
X363718Y490617D01*
X356234Y490617D02*
X356234Y486211D01*
X356234Y490617D02*
X355133Y491719D01*
X352930Y491719D01*
X351828Y490617D01*
X351828Y486211D01*
X352930Y485109D01*
X355133Y485109D01*
X356234Y486211D01*
X351828Y490617D01*
X319204Y491593D02*
X319204Y484984D01*
X319204Y491593D02*
X315899Y491593D01*
X314798Y490492D01*
X314798Y488288D01*
X315899Y487187D01*
X319204Y487187D01*
X317001Y487187D02*
X314798Y484984D01*
X311720Y489390D02*
X309517Y491593D01*
X309517Y484984D01*
X311720Y484984D02*
X307313Y484984D01*
X300931Y484984D02*
X300931Y491593D01*
X304236Y488288D01*
X299829Y488288D01*
X293670Y485408D02*
X293670Y492018D01*
X290365Y492018D01*
X289264Y490916D01*
X289264Y488713D01*
X290365Y487611D01*
X293670Y487611D01*
X291467Y487611D02*
X289264Y485408D01*
X286186Y489814D02*
X283983Y492018D01*
X283983Y485408D01*
X286186Y485408D02*
X281780Y485408D01*
X278702Y492018D02*
X274295Y492018D01*
X278702Y492018D02*
X278702Y488713D01*
X276499Y489814D01*
X275397Y489814D01*
X274295Y488713D01*
X274295Y486510D01*
X275397Y485408D01*
X277600Y485408D01*
X278702Y486510D01*
D12*
X340406Y515845D02*
X346406Y515845D01*
X346406Y507845D01*
X324406Y515845D02*
X318406Y515845D01*
X318406Y507845D01*
D11*
X339815Y490933D02*
X339815Y486526D01*
X339815Y490933D02*
X338714Y492035D01*
X336511Y492035D01*
X335409Y490933D01*
X335409Y486526D01*
X336511Y485425D01*
X338714Y485425D01*
X339815Y486526D01*
X337612Y487628D02*
X335409Y485425D01*
X332331Y490933D02*
X331230Y492035D01*
X329026Y492035D01*
X327925Y490933D01*
X327925Y489831D01*
X329026Y488730D01*
X330128Y488730D01*
X329026Y488730D02*
X327925Y487628D01*
X327925Y486526D01*
X329026Y485425D01*
X331230Y485425D01*
X332331Y486526D01*
D12*
X339938Y556140D02*
X345938Y556140D01*
X345938Y548140D01*
X323938Y556140D02*
X317938Y556140D01*
X317938Y548140D01*
D11*
X339780Y533260D02*
X339780Y528854D01*
X339780Y533260D02*
X338678Y534362D01*
X336475Y534362D01*
X335374Y533260D01*
X335374Y528854D01*
X336475Y527752D01*
X338678Y527752D01*
X339780Y528854D01*
X337577Y529956D02*
X335374Y527752D01*
X332296Y527752D02*
X327889Y527752D01*
X332296Y527752D02*
X327889Y532159D01*
X327889Y533260D01*
X328991Y534362D01*
X331194Y534362D01*
X332296Y533260D01*
D15*
X331258Y242798D02*
X331260Y242914D01*
X331266Y243029D01*
X331276Y243144D01*
X331290Y243259D01*
X331308Y243373D01*
X331330Y243487D01*
X331355Y243599D01*
X331385Y243711D01*
X331418Y243822D01*
X331456Y243931D01*
X331497Y244039D01*
X331541Y244146D01*
X331590Y244251D01*
X331642Y244354D01*
X331697Y244456D01*
X331756Y244555D01*
X331818Y244653D01*
X331884Y244748D01*
X331953Y244841D01*
X332025Y244931D01*
X332100Y245019D01*
X332178Y245104D01*
X332259Y245186D01*
X332343Y245266D01*
X332430Y245343D01*
X332519Y245416D01*
X332611Y245487D01*
X332705Y245554D01*
X332801Y245618D01*
X332899Y245679D01*
X333000Y245736D01*
X333102Y245790D01*
X333206Y245840D01*
X333312Y245887D01*
X333419Y245929D01*
X333528Y245968D01*
X333638Y246004D01*
X333750Y246035D01*
X333862Y246063D01*
X333975Y246087D01*
X334089Y246107D01*
X334203Y246123D01*
X334318Y246135D01*
X334434Y246143D01*
X334549Y246147D01*
X334665Y246147D01*
X334780Y246143D01*
X334896Y246135D01*
X335011Y246123D01*
X335125Y246107D01*
X335239Y246087D01*
X335352Y246063D01*
X335464Y246035D01*
X335576Y246004D01*
X335686Y245968D01*
X335795Y245929D01*
X335902Y245887D01*
X336008Y245840D01*
X336112Y245790D01*
X336214Y245736D01*
X336315Y245679D01*
X336413Y245618D01*
X336509Y245554D01*
X336603Y245487D01*
X336695Y245416D01*
X336784Y245343D01*
X336871Y245266D01*
X336955Y245186D01*
X337036Y245104D01*
X337114Y245019D01*
X337189Y244931D01*
X337261Y244841D01*
X337330Y244748D01*
X337396Y244653D01*
X337458Y244555D01*
X337517Y244456D01*
X337572Y244354D01*
X337624Y244251D01*
X337673Y244146D01*
X337717Y244039D01*
X337758Y243931D01*
X337796Y243822D01*
X337829Y243711D01*
X337859Y243599D01*
X337884Y243487D01*
X337906Y243373D01*
X337924Y243259D01*
X337938Y243144D01*
X337948Y243029D01*
X337954Y242914D01*
X337956Y242798D01*
X337954Y242682D01*
X337948Y242567D01*
X337938Y242452D01*
X337924Y242337D01*
X337906Y242223D01*
X337884Y242109D01*
X337859Y241997D01*
X337829Y241885D01*
X337796Y241774D01*
X337758Y241665D01*
X337717Y241557D01*
X337673Y241450D01*
X337624Y241345D01*
X337572Y241242D01*
X337517Y241140D01*
X337458Y241041D01*
X337396Y240943D01*
X337330Y240848D01*
X337261Y240755D01*
X337189Y240665D01*
X337114Y240577D01*
X337036Y240492D01*
X336955Y240410D01*
X336871Y240330D01*
X336784Y240253D01*
X336695Y240180D01*
X336603Y240109D01*
X336509Y240042D01*
X336413Y239978D01*
X336315Y239917D01*
X336214Y239860D01*
X336112Y239806D01*
X336008Y239756D01*
X335902Y239709D01*
X335795Y239667D01*
X335686Y239628D01*
X335576Y239592D01*
X335464Y239561D01*
X335352Y239533D01*
X335239Y239509D01*
X335125Y239489D01*
X335011Y239473D01*
X334896Y239461D01*
X334780Y239453D01*
X334665Y239449D01*
X334549Y239449D01*
X334434Y239453D01*
X334318Y239461D01*
X334203Y239473D01*
X334089Y239489D01*
X333975Y239509D01*
X333862Y239533D01*
X333750Y239561D01*
X333638Y239592D01*
X333528Y239628D01*
X333419Y239667D01*
X333312Y239709D01*
X333206Y239756D01*
X333102Y239806D01*
X333000Y239860D01*
X332899Y239917D01*
X332801Y239978D01*
X332705Y240042D01*
X332611Y240109D01*
X332519Y240180D01*
X332430Y240253D01*
X332343Y240330D01*
X332259Y240410D01*
X332178Y240492D01*
X332100Y240577D01*
X332025Y240665D01*
X331953Y240755D01*
X331884Y240848D01*
X331818Y240943D01*
X331756Y241041D01*
X331697Y241140D01*
X331642Y241242D01*
X331590Y241345D01*
X331541Y241450D01*
X331497Y241557D01*
X331456Y241665D01*
X331418Y241774D01*
X331385Y241885D01*
X331355Y241997D01*
X331330Y242109D01*
X331308Y242223D01*
X331290Y242337D01*
X331276Y242452D01*
X331266Y242567D01*
X331260Y242682D01*
X331258Y242798D01*
D12*
X326608Y258022D02*
X368306Y258022D01*
X368306Y234654D01*
X326608Y234654D01*
X326608Y258022D01*
D13*
X349731Y264146D02*
X349731Y269866D01*
X349731Y264146D02*
X348587Y263002D01*
X346299Y263002D01*
X345155Y264146D01*
X345155Y269866D01*
X342247Y263002D02*
X337671Y263002D01*
X342247Y263002D02*
X337671Y267578D01*
X337671Y268722D01*
X338815Y269866D01*
X341103Y269866D01*
X342247Y268722D01*
D11*
X287432Y315578D02*
X280823Y315578D01*
X287432Y315578D02*
X287432Y318883D01*
X286331Y319985D01*
X284128Y319985D01*
X283026Y318883D01*
X283026Y315578D01*
X283026Y317781D02*
X280823Y319985D01*
X285229Y323062D02*
X287432Y325266D01*
X280823Y325266D01*
X280823Y327469D02*
X280823Y323062D01*
X286331Y332750D02*
X287432Y334953D01*
X286331Y332750D02*
X284128Y330546D01*
X281924Y330546D01*
X280823Y331648D01*
X280823Y333851D01*
X281924Y334953D01*
X283026Y334953D01*
X284128Y333851D01*
X284128Y330546D01*
X234774Y273355D02*
X234774Y266745D01*
X234774Y273355D02*
X231469Y273355D01*
X230368Y272253D01*
X230368Y270050D01*
X231469Y268948D01*
X234774Y268948D01*
X232571Y268948D02*
X230368Y266745D01*
X225087Y272253D02*
X222884Y273355D01*
X225087Y272253D02*
X227290Y270050D01*
X227290Y267847D01*
X226189Y266745D01*
X223985Y266745D01*
X222884Y267847D01*
X222884Y268948D01*
X223985Y270050D01*
X227290Y270050D01*
X254889Y267234D02*
X254889Y273844D01*
X251584Y273844D01*
X250483Y272742D01*
X250483Y270539D01*
X251584Y269437D01*
X254889Y269437D01*
X252686Y269437D02*
X250483Y267234D01*
X244100Y267234D02*
X244100Y273844D01*
X247405Y270539D01*
X242998Y270539D01*
X260016Y253524D02*
X260016Y244316D01*
X278464Y244316D01*
X278464Y253524D01*
X260016Y253524D01*
D13*
X275340Y264171D02*
X275340Y271035D01*
X275340Y264171D02*
X271908Y264171D01*
X270764Y265315D01*
X270764Y269891D01*
X271908Y271035D01*
X275340Y271035D01*
X267856Y268747D02*
X265568Y271035D01*
X265568Y264171D01*
X267856Y264171D02*
X263280Y264171D01*
D11*
X299947Y266502D02*
X299947Y273112D01*
X296642Y273112D01*
X295540Y272010D01*
X295540Y269807D01*
X296642Y268705D01*
X299947Y268705D01*
X297743Y268705D02*
X295540Y266502D01*
X292463Y270909D02*
X290259Y273112D01*
X290259Y266502D01*
X288056Y266502D02*
X292463Y266502D01*
X284978Y273112D02*
X280572Y273112D01*
X280572Y272010D01*
X284978Y267604D01*
X284978Y266502D01*
X365264Y364499D02*
X365264Y371108D01*
X361959Y371108D01*
X360857Y370007D01*
X360857Y367803D01*
X361959Y366702D01*
X365264Y366702D01*
X363061Y366702D02*
X360857Y364499D01*
X357780Y364499D02*
X353373Y364499D01*
X353373Y368905D02*
X357780Y364499D01*
X353373Y368905D02*
X353373Y370007D01*
X354475Y371108D01*
X356678Y371108D01*
X357780Y370007D01*
X350296Y370007D02*
X349194Y371108D01*
X346991Y371108D01*
X345889Y370007D01*
X345889Y368905D01*
X346991Y367803D01*
X348092Y367803D01*
X346991Y367803D02*
X345889Y366702D01*
X345889Y365600D01*
X346991Y364499D01*
X349194Y364499D01*
X350296Y365600D01*
X396421Y306331D02*
X396421Y299722D01*
X396421Y306331D02*
X393116Y306331D01*
X392014Y305230D01*
X392014Y303027D01*
X393116Y301925D01*
X396421Y301925D01*
X394217Y301925D02*
X392014Y299722D01*
X388937Y299722D02*
X384530Y299722D01*
X384530Y304128D02*
X388937Y299722D01*
X384530Y304128D02*
X384530Y305230D01*
X385632Y306331D01*
X387835Y306331D01*
X388937Y305230D01*
X381452Y299722D02*
X377046Y299722D01*
X381452Y299722D02*
X377046Y304128D01*
X377046Y305230D01*
X378148Y306331D01*
X380351Y306331D01*
X381452Y305230D01*
X383057Y339896D02*
X384159Y340997D01*
X386362Y340997D01*
X387463Y339896D01*
X387463Y335489D01*
X386362Y334388D01*
X384159Y334388D01*
X383057Y335489D01*
X377776Y339896D02*
X375573Y340997D01*
X377776Y339896D02*
X379979Y337693D01*
X379979Y335489D01*
X378878Y334388D01*
X376675Y334388D01*
X375573Y335489D01*
X375573Y336591D01*
X376675Y337693D01*
X379979Y337693D01*
X418353Y276561D02*
X417251Y275460D01*
X418353Y276561D02*
X420556Y276561D01*
X421658Y275460D01*
X421658Y271053D01*
X420556Y269952D01*
X418353Y269952D01*
X417251Y271053D01*
X414174Y276561D02*
X409767Y276561D01*
X414174Y276561D02*
X414174Y273256D01*
X411970Y274358D01*
X410869Y274358D01*
X409767Y273256D01*
X409767Y271053D01*
X410869Y269952D01*
X413072Y269952D01*
X414174Y271053D01*
X468540Y272777D02*
X475150Y272777D01*
X475150Y276082D01*
X474048Y277184D01*
X471845Y277184D01*
X470743Y276082D01*
X470743Y272777D01*
X470743Y274981D02*
X468540Y277184D01*
X474048Y280262D02*
X475150Y281363D01*
X475150Y283566D01*
X474048Y284668D01*
X472947Y284668D01*
X471845Y283566D01*
X471845Y282465D01*
X471845Y283566D02*
X470743Y284668D01*
X469642Y284668D01*
X468540Y283566D01*
X468540Y281363D01*
X469642Y280262D01*
X469642Y287746D02*
X474048Y287746D01*
X475150Y288847D01*
X475150Y291050D01*
X474048Y292152D01*
X469642Y292152D01*
X468540Y291050D01*
X468540Y288847D01*
X469642Y287746D01*
X474048Y292152D01*
X470764Y223641D02*
X477374Y223641D01*
X477374Y226945D01*
X476272Y228047D01*
X474069Y228047D01*
X472968Y226945D01*
X472968Y223641D01*
X472968Y225844D02*
X470764Y228047D01*
X476272Y231125D02*
X477374Y232226D01*
X477374Y234429D01*
X476272Y235531D01*
X475171Y235531D01*
X474069Y234429D01*
X474069Y233328D01*
X474069Y234429D02*
X472968Y235531D01*
X471866Y235531D01*
X470764Y234429D01*
X470764Y232226D01*
X471866Y231125D01*
X475171Y238609D02*
X477374Y240812D01*
X470764Y240812D01*
X470764Y238609D02*
X470764Y243015D01*
X636020Y463395D02*
X642630Y463395D01*
X642630Y466699D01*
X641528Y467801D01*
X639325Y467801D01*
X638224Y466699D01*
X638224Y463395D01*
X638224Y465598D02*
X636020Y467801D01*
X642630Y470879D02*
X642630Y475285D01*
X642630Y470879D02*
X639325Y470879D01*
X640427Y473082D01*
X640427Y474184D01*
X639325Y475285D01*
X637122Y475285D01*
X636020Y474184D01*
X636020Y471980D01*
X637122Y470879D01*
X462584Y105162D02*
X462584Y98552D01*
X462584Y105162D02*
X459279Y105162D01*
X458178Y104060D01*
X458178Y101857D01*
X459279Y100755D01*
X462584Y100755D01*
X460381Y100755D02*
X458178Y98552D01*
X455100Y102958D02*
X452897Y105162D01*
X452897Y98552D01*
X455100Y98552D02*
X450694Y98552D01*
X447616Y102958D02*
X445413Y105162D01*
X445413Y98552D01*
X447616Y98552D02*
X443210Y98552D01*
X730006Y432997D02*
X731108Y434098D01*
X733311Y434098D01*
X734412Y432997D01*
X734412Y428590D01*
X733311Y427489D01*
X731108Y427489D01*
X730006Y428590D01*
X726928Y432997D02*
X725827Y434098D01*
X723623Y434098D01*
X722522Y432997D01*
X722522Y431895D01*
X723623Y430793D01*
X724725Y430793D01*
X723623Y430793D02*
X722522Y429692D01*
X722522Y428590D01*
X723623Y427489D01*
X725827Y427489D01*
X726928Y428590D01*
X719444Y428590D02*
X718342Y427489D01*
X716139Y427489D01*
X715038Y428590D01*
X715038Y432997D01*
X716139Y434098D01*
X718342Y434098D01*
X719444Y432997D01*
X719444Y431895D01*
X718342Y430793D01*
X715038Y430793D01*
X732774Y301855D02*
X731673Y300754D01*
X732774Y301855D02*
X734977Y301855D01*
X736079Y300754D01*
X736079Y296347D01*
X734977Y295246D01*
X732774Y295246D01*
X731673Y296347D01*
X725290Y295246D02*
X725290Y301855D01*
X728595Y298551D01*
X724188Y298551D01*
X721111Y296347D02*
X721111Y300754D01*
X720009Y301855D01*
X717806Y301855D01*
X716704Y300754D01*
X716704Y296347D01*
X717806Y295246D01*
X720009Y295246D01*
X721111Y296347D01*
X716704Y300754D01*
X719667Y213575D02*
X718565Y212473D01*
X719667Y213575D02*
X721870Y213575D01*
X722972Y212473D01*
X722972Y208067D01*
X721870Y206965D01*
X719667Y206965D01*
X718565Y208067D01*
X712183Y206965D02*
X712183Y213575D01*
X715488Y210270D01*
X711081Y210270D01*
X708004Y211372D02*
X705800Y213575D01*
X705800Y206965D01*
X703597Y206965D02*
X708004Y206965D01*
X724610Y572294D02*
X725711Y573396D01*
X727914Y573396D01*
X729016Y572294D01*
X729016Y567888D01*
X727914Y566786D01*
X725711Y566786D01*
X724610Y567888D01*
X721532Y572294D02*
X720430Y573396D01*
X718227Y573396D01*
X717125Y572294D01*
X717125Y571193D01*
X718227Y570091D01*
X719329Y570091D01*
X718227Y570091D02*
X717125Y568989D01*
X717125Y567888D01*
X718227Y566786D01*
X720430Y566786D01*
X721532Y567888D01*
X714048Y572294D02*
X712946Y573396D01*
X710743Y573396D01*
X709641Y572294D01*
X709641Y571193D01*
X710743Y570091D01*
X709641Y568989D01*
X709641Y567888D01*
X710743Y566786D01*
X712946Y566786D01*
X714048Y567888D01*
X714048Y568989D01*
X712946Y570091D01*
X714048Y571193D01*
X714048Y572294D01*
X712946Y570091D02*
X710743Y570091D01*
X690422Y566920D02*
X690422Y573530D01*
X687118Y573530D01*
X686016Y572428D01*
X686016Y570225D01*
X687118Y569123D01*
X690422Y569123D01*
X688219Y569123D02*
X686016Y566920D01*
X682938Y572428D02*
X681837Y573530D01*
X679633Y573530D01*
X678532Y572428D01*
X678532Y571327D01*
X679633Y570225D01*
X680735Y570225D01*
X679633Y570225D02*
X678532Y569123D01*
X678532Y568022D01*
X679633Y566920D01*
X681837Y566920D01*
X682938Y568022D01*
X672149Y566920D02*
X672149Y573530D01*
X675454Y570225D01*
X671048Y570225D01*
X691589Y434059D02*
X691589Y427449D01*
X691589Y434059D02*
X688284Y434059D01*
X687182Y432957D01*
X687182Y430754D01*
X688284Y429653D01*
X691589Y429653D01*
X689386Y429653D02*
X687182Y427449D01*
X684105Y432957D02*
X683003Y434059D01*
X680800Y434059D01*
X679698Y432957D01*
X679698Y431856D01*
X680800Y430754D01*
X681902Y430754D01*
X680800Y430754D02*
X679698Y429653D01*
X679698Y428551D01*
X680800Y427449D01*
X683003Y427449D01*
X684105Y428551D01*
X676621Y434059D02*
X672214Y434059D01*
X676621Y434059D02*
X676621Y430754D01*
X674417Y431856D01*
X673316Y431856D01*
X672214Y430754D01*
X672214Y428551D01*
X673316Y427449D01*
X675519Y427449D01*
X676621Y428551D01*
X693746Y278563D02*
X693746Y271953D01*
X693746Y278563D02*
X690442Y278563D01*
X689340Y277461D01*
X689340Y275258D01*
X690442Y274156D01*
X693746Y274156D01*
X691543Y274156D02*
X689340Y271953D01*
X686262Y277461D02*
X685161Y278563D01*
X682958Y278563D01*
X681856Y277461D01*
X681856Y276360D01*
X682958Y275258D01*
X684059Y275258D01*
X682958Y275258D02*
X681856Y274156D01*
X681856Y273055D01*
X682958Y271953D01*
X685161Y271953D01*
X686262Y273055D01*
X676575Y277461D02*
X674372Y278563D01*
X676575Y277461D02*
X678778Y275258D01*
X678778Y273055D01*
X677677Y271953D01*
X675473Y271953D01*
X674372Y273055D01*
X674372Y274156D01*
X675473Y275258D01*
X678778Y275258D01*
X688421Y213704D02*
X688421Y207095D01*
X688421Y213704D02*
X685116Y213704D01*
X684015Y212603D01*
X684015Y210400D01*
X685116Y209298D01*
X688421Y209298D01*
X686218Y209298D02*
X684015Y207095D01*
X680937Y212603D02*
X679835Y213704D01*
X677632Y213704D01*
X676530Y212603D01*
X676530Y211501D01*
X677632Y210400D01*
X678734Y210400D01*
X677632Y210400D02*
X676530Y209298D01*
X676530Y208196D01*
X677632Y207095D01*
X679835Y207095D01*
X680937Y208196D01*
X673453Y213704D02*
X669046Y213704D01*
X669046Y212603D01*
X673453Y208196D01*
X673453Y207095D01*
X731708Y230640D02*
X731708Y237250D01*
X728404Y237250D01*
X727302Y236148D01*
X727302Y233945D01*
X728404Y232844D01*
X731708Y232844D01*
X729505Y232844D02*
X727302Y230640D01*
X720919Y230640D02*
X720919Y237250D01*
X724224Y233945D01*
X719818Y233945D01*
X716740Y235047D02*
X714537Y237250D01*
X714537Y230640D01*
X716740Y230640D02*
X712334Y230640D01*
X732697Y113681D02*
X732697Y107072D01*
X732697Y113681D02*
X729392Y113681D01*
X728291Y112580D01*
X728291Y110376D01*
X729392Y109275D01*
X732697Y109275D01*
X730494Y109275D02*
X728291Y107072D01*
X721908Y107072D02*
X721908Y113681D01*
X725213Y110376D01*
X720807Y110376D01*
X717729Y107072D02*
X713323Y107072D01*
X717729Y107072D02*
X713323Y111478D01*
X713323Y112580D01*
X714424Y113681D01*
X716627Y113681D01*
X717729Y112580D01*
X732805Y345121D02*
X732805Y351731D01*
X729500Y351731D01*
X728398Y350629D01*
X728398Y348426D01*
X729500Y347324D01*
X732805Y347324D01*
X730601Y347324D02*
X728398Y345121D01*
X722016Y345121D02*
X722016Y351731D01*
X725320Y348426D01*
X720914Y348426D01*
X717836Y346222D02*
X717836Y350629D01*
X716735Y351731D01*
X714531Y351731D01*
X713430Y350629D01*
X713430Y346222D01*
X714531Y345121D01*
X716735Y345121D01*
X717836Y346222D01*
X713430Y350629D01*
X730093Y505298D02*
X730093Y511908D01*
X726788Y511908D01*
X725686Y510806D01*
X725686Y508603D01*
X726788Y507501D01*
X730093Y507501D01*
X727889Y507501D02*
X725686Y505298D01*
X722608Y510806D02*
X721507Y511908D01*
X719304Y511908D01*
X718202Y510806D01*
X718202Y509704D01*
X719304Y508603D01*
X720405Y508603D01*
X719304Y508603D02*
X718202Y507501D01*
X718202Y506400D01*
X719304Y505298D01*
X721507Y505298D01*
X722608Y506400D01*
X715124Y506400D02*
X714023Y505298D01*
X711819Y505298D01*
X710718Y506400D01*
X710718Y510806D01*
X711819Y511908D01*
X714023Y511908D01*
X715124Y510806D01*
X715124Y509704D01*
X714023Y508603D01*
X710718Y508603D01*
X907469Y105568D02*
X907469Y98959D01*
X907469Y105568D02*
X904164Y105568D01*
X903063Y104467D01*
X903063Y102264D01*
X904164Y101162D01*
X907469Y101162D01*
X905266Y101162D02*
X903063Y98959D01*
X896680Y98959D02*
X896680Y105568D01*
X899985Y102264D01*
X895579Y102264D01*
X892501Y104467D02*
X891399Y105568D01*
X889196Y105568D01*
X888094Y104467D01*
X888094Y103365D01*
X889196Y102264D01*
X890298Y102264D01*
X889196Y102264D02*
X888094Y101162D01*
X888094Y100060D01*
X889196Y98959D01*
X891399Y98959D01*
X892501Y100060D01*
X910572Y302797D02*
X910572Y309407D01*
X907267Y309407D01*
X906165Y308305D01*
X906165Y306102D01*
X907267Y305001D01*
X910572Y305001D01*
X908369Y305001D02*
X906165Y302797D01*
X899783Y302797D02*
X899783Y309407D01*
X903088Y306102D01*
X898681Y306102D01*
X892299Y302797D02*
X892299Y309407D01*
X895603Y306102D01*
X891197Y306102D01*
D13*
X909104Y382649D02*
X909104Y387480D01*
X906688Y387480D01*
X905883Y386675D01*
X905883Y385065D01*
X906688Y384260D01*
X909104Y384260D01*
X907493Y384260D02*
X905883Y382649D01*
X901075Y382649D02*
X901075Y387480D01*
X903490Y385065D01*
X900270Y385065D01*
X897877Y387480D02*
X894657Y387480D01*
X897877Y387480D02*
X897877Y385065D01*
X896267Y385870D01*
X895462Y385870D01*
X894657Y385065D01*
X894657Y383454D01*
X895462Y382649D01*
X897072Y382649D01*
X897877Y383454D01*
D11*
X907581Y491717D02*
X907581Y498326D01*
X904276Y498326D01*
X903175Y497225D01*
X903175Y495021D01*
X904276Y493920D01*
X907581Y493920D01*
X905378Y493920D02*
X903175Y491717D01*
X896792Y491717D02*
X896792Y498326D01*
X900097Y495021D01*
X895691Y495021D01*
X892613Y497225D02*
X891511Y498326D01*
X889308Y498326D01*
X888206Y497225D01*
X888206Y496123D01*
X889308Y495021D01*
X888206Y493920D01*
X888206Y492818D01*
X889308Y491717D01*
X891511Y491717D01*
X892613Y492818D01*
X892613Y493920D01*
X891511Y495021D01*
X892613Y496123D01*
X892613Y497225D01*
X891511Y495021D02*
X889308Y495021D01*
X372587Y433392D02*
X371485Y432290D01*
X372587Y433392D02*
X374790Y433392D01*
X375891Y432290D01*
X375891Y427884D01*
X374790Y426782D01*
X372587Y426782D01*
X371485Y427884D01*
X368407Y431189D02*
X366204Y433392D01*
X366204Y426782D01*
X368407Y426782D02*
X364001Y426782D01*
X387345Y387974D02*
X387345Y381364D01*
X387345Y387974D02*
X384040Y387974D01*
X382938Y386872D01*
X382938Y384669D01*
X384040Y383567D01*
X387345Y383567D01*
X385141Y383567D02*
X382938Y381364D01*
X379860Y381364D02*
X375454Y381364D01*
X379860Y381364D02*
X375454Y385771D01*
X375454Y386872D01*
X376556Y387974D01*
X378759Y387974D01*
X379860Y386872D01*
X372376Y385771D02*
X370173Y387974D01*
X370173Y381364D01*
X372376Y381364D02*
X367970Y381364D01*
X294944Y102114D02*
X294944Y95504D01*
X294944Y102114D02*
X291639Y102114D01*
X290538Y101012D01*
X290538Y98809D01*
X291639Y97707D01*
X294944Y97707D01*
X292741Y97707D02*
X290538Y95504D01*
X287460Y102114D02*
X283054Y102114D01*
X287460Y102114D02*
X287460Y98809D01*
X285257Y99910D01*
X284155Y99910D01*
X283054Y98809D01*
X283054Y96606D01*
X284155Y95504D01*
X286359Y95504D01*
X287460Y96606D01*
X276671Y95504D02*
X276671Y102114D01*
X279976Y98809D01*
X275570Y98809D01*
D13*
X624205Y98895D02*
X629035Y98895D01*
X629035Y101310D01*
X628230Y102115D01*
X626620Y102115D01*
X625815Y101310D01*
X625815Y98895D01*
X625815Y100505D02*
X624205Y102115D01*
X628230Y106118D02*
X629035Y107729D01*
X628230Y106118D02*
X626620Y104508D01*
X625010Y104508D01*
X624205Y105313D01*
X624205Y106924D01*
X625010Y107729D01*
X625815Y107729D01*
X626620Y106924D01*
X626620Y104508D01*
X624205Y110122D02*
X624205Y113342D01*
X624205Y110122D02*
X627425Y113342D01*
X628230Y113342D01*
X629035Y112537D01*
X629035Y110927D01*
X628230Y110122D01*
X611255Y98895D02*
X606425Y98895D01*
X611255Y98895D02*
X611255Y101310D01*
X610450Y102115D01*
X608840Y102115D01*
X608035Y101310D01*
X608035Y98895D01*
X608035Y100505D02*
X606425Y102115D01*
X610450Y106118D02*
X611255Y107729D01*
X610450Y106118D02*
X608840Y104508D01*
X607230Y104508D01*
X606425Y105313D01*
X606425Y106924D01*
X607230Y107729D01*
X608035Y107729D01*
X608840Y106924D01*
X608840Y104508D01*
X609645Y110122D02*
X611255Y111732D01*
X606425Y111732D01*
X606425Y110122D02*
X606425Y113342D01*
X593475Y98895D02*
X588645Y98895D01*
X593475Y98895D02*
X593475Y101310D01*
X592670Y102115D01*
X591060Y102115D01*
X590255Y101310D01*
X590255Y98895D01*
X590255Y100505D02*
X588645Y102115D01*
X592670Y106118D02*
X593475Y107729D01*
X592670Y106118D02*
X591060Y104508D01*
X589450Y104508D01*
X588645Y105313D01*
X588645Y106924D01*
X589450Y107729D01*
X590255Y107729D01*
X591060Y106924D01*
X591060Y104508D01*
X589450Y110122D02*
X592670Y110122D01*
X593475Y110927D01*
X593475Y112537D01*
X592670Y113342D01*
X589450Y113342D01*
X588645Y112537D01*
X588645Y110927D01*
X589450Y110122D01*
X592670Y113342D01*
X575695Y98895D02*
X570865Y98895D01*
X575695Y98895D02*
X575695Y101310D01*
X574890Y102115D01*
X573280Y102115D01*
X572475Y101310D01*
X572475Y98895D01*
X572475Y100505D02*
X570865Y102115D01*
X575695Y104508D02*
X575695Y107729D01*
X575695Y104508D02*
X573280Y104508D01*
X574085Y106118D01*
X574085Y106924D01*
X573280Y107729D01*
X571670Y107729D01*
X570865Y106924D01*
X570865Y105313D01*
X571670Y104508D01*
X571670Y110122D02*
X570865Y110927D01*
X570865Y112537D01*
X571670Y113342D01*
X574890Y113342D01*
X575695Y112537D01*
X575695Y110927D01*
X574890Y110122D01*
X574085Y110122D01*
X573280Y110927D01*
X573280Y113342D01*
X557915Y98895D02*
X553085Y98895D01*
X557915Y98895D02*
X557915Y101310D01*
X557110Y102115D01*
X555500Y102115D01*
X554695Y101310D01*
X554695Y98895D01*
X554695Y100505D02*
X553085Y102115D01*
X557915Y104508D02*
X557915Y107729D01*
X557915Y104508D02*
X555500Y104508D01*
X556305Y106118D01*
X556305Y106924D01*
X555500Y107729D01*
X553890Y107729D01*
X553085Y106924D01*
X553085Y105313D01*
X553890Y104508D01*
X557110Y110122D02*
X557915Y110927D01*
X557915Y112537D01*
X557110Y113342D01*
X556305Y113342D01*
X555500Y112537D01*
X554695Y113342D01*
X553890Y113342D01*
X553085Y112537D01*
X553085Y110927D01*
X553890Y110122D01*
X554695Y110122D01*
X555500Y110927D01*
X556305Y110122D01*
X557110Y110122D01*
X555500Y110927D02*
X555500Y112537D01*
X540135Y98895D02*
X535305Y98895D01*
X540135Y98895D02*
X540135Y101310D01*
X539330Y102115D01*
X537720Y102115D01*
X536915Y101310D01*
X536915Y98895D01*
X536915Y100505D02*
X535305Y102115D01*
X540135Y104508D02*
X540135Y107729D01*
X540135Y104508D02*
X537720Y104508D01*
X538525Y106118D01*
X538525Y106924D01*
X537720Y107729D01*
X536110Y107729D01*
X535305Y106924D01*
X535305Y105313D01*
X536110Y104508D01*
X540135Y110122D02*
X540135Y113342D01*
X539330Y113342D01*
X536110Y110122D01*
X535305Y110122D01*
X522327Y98885D02*
X517497Y98885D01*
X522327Y98885D02*
X522327Y101300D01*
X521522Y102105D01*
X519912Y102105D01*
X519107Y101300D01*
X519107Y98885D01*
X519107Y100495D02*
X517497Y102105D01*
X522327Y104498D02*
X522327Y107718D01*
X522327Y104498D02*
X519912Y104498D01*
X520717Y106108D01*
X520717Y106913D01*
X519912Y107718D01*
X518302Y107718D01*
X517497Y106913D01*
X517497Y105303D01*
X518302Y104498D01*
X521522Y111721D02*
X522327Y113331D01*
X521522Y111721D02*
X519912Y110111D01*
X518302Y110111D01*
X517497Y110916D01*
X517497Y112526D01*
X518302Y113331D01*
X519107Y113331D01*
X519912Y112526D01*
X519912Y110111D01*
X504520Y99017D02*
X499690Y99017D01*
X504520Y99017D02*
X504520Y101432D01*
X503715Y102237D01*
X502105Y102237D01*
X501300Y101432D01*
X501300Y99017D01*
X501300Y100627D02*
X499690Y102237D01*
X504520Y104630D02*
X504520Y107850D01*
X504520Y104630D02*
X502105Y104630D01*
X502910Y106240D01*
X502910Y107045D01*
X502105Y107850D01*
X500495Y107850D01*
X499690Y107045D01*
X499690Y105435D01*
X500495Y104630D01*
X504520Y110243D02*
X504520Y113463D01*
X504520Y110243D02*
X502105Y110243D01*
X502910Y111853D01*
X502910Y112658D01*
X502105Y113463D01*
X500495Y113463D01*
X499690Y112658D01*
X499690Y111048D01*
X500495Y110243D01*
D11*
X665009Y162765D02*
X665009Y169374D01*
X661705Y169374D01*
X660603Y168273D01*
X660603Y166070D01*
X661705Y164968D01*
X665009Y164968D01*
X662806Y164968D02*
X660603Y162765D01*
X657525Y169374D02*
X653119Y169374D01*
X657525Y169374D02*
X657525Y166070D01*
X655322Y167171D01*
X654220Y167171D01*
X653119Y166070D01*
X653119Y163866D01*
X654220Y162765D01*
X656424Y162765D01*
X657525Y163866D01*
X650041Y168273D02*
X648940Y169374D01*
X646736Y169374D01*
X645635Y168273D01*
X645635Y167171D01*
X646736Y166070D01*
X647838Y166070D01*
X646736Y166070D02*
X645635Y164968D01*
X645635Y163866D01*
X646736Y162765D01*
X648940Y162765D01*
X650041Y163866D01*
D12*
X312608Y85565D02*
X312608Y71915D01*
X307658Y73978D02*
X312420Y78740D01*
X307658Y83503D01*
X326578Y85565D02*
X326578Y71915D01*
D11*
X296146Y75184D02*
X296146Y81794D01*
X296146Y75184D02*
X291740Y75184D01*
X288662Y81794D02*
X284256Y81794D01*
X288662Y81794D02*
X288662Y75184D01*
X284256Y75184D01*
X286459Y78489D02*
X288662Y78489D01*
X281178Y81794D02*
X281178Y75184D01*
X277873Y75184D01*
X276772Y76286D01*
X276772Y80692D01*
X277873Y81794D01*
X281178Y81794D01*
X273694Y76286D02*
X272592Y75184D01*
X270389Y75184D01*
X269287Y76286D01*
X269287Y80692D01*
X270389Y81794D01*
X272592Y81794D01*
X273694Y80692D01*
X273694Y79590D01*
X272592Y78489D01*
X269287Y78489D01*
D12*
X597695Y25213D02*
X611345Y25213D01*
X604520Y25400D02*
X599758Y30163D01*
X604520Y25400D02*
X609283Y30163D01*
X611345Y11243D02*
X597695Y11243D01*
D13*
X596773Y77174D02*
X601603Y77174D01*
X596773Y77174D02*
X596773Y80394D01*
X601603Y82787D02*
X601603Y86007D01*
X601603Y82787D02*
X596773Y82787D01*
X596773Y86007D01*
X599188Y84397D02*
X599188Y82787D01*
X601603Y88400D02*
X596773Y88400D01*
X596773Y90815D01*
X597578Y91620D01*
X600798Y91620D01*
X601603Y90815D01*
X601603Y88400D01*
X599993Y94013D02*
X601603Y95623D01*
X596773Y95623D01*
X596773Y94013D02*
X596773Y97233D01*
X600798Y101236D02*
X601603Y102846D01*
X600798Y101236D02*
X599188Y99626D01*
X597578Y99626D01*
X596773Y100431D01*
X596773Y102041D01*
X597578Y102846D01*
X598383Y102846D01*
X599188Y102041D01*
X599188Y99626D01*
D12*
X593565Y25213D02*
X579915Y25213D01*
X581978Y30163D02*
X586740Y25400D01*
X591503Y30163D01*
X593565Y11243D02*
X579915Y11243D01*
D13*
X579244Y77174D02*
X584074Y77174D01*
X579244Y77174D02*
X579244Y80394D01*
X584074Y82787D02*
X584074Y86007D01*
X584074Y82787D02*
X579244Y82787D01*
X579244Y86007D01*
X581659Y84397D02*
X581659Y82787D01*
X584074Y88400D02*
X579244Y88400D01*
X579244Y90815D01*
X580049Y91620D01*
X583269Y91620D01*
X584074Y90815D01*
X584074Y88400D01*
X582464Y94013D02*
X584074Y95623D01*
X579244Y95623D01*
X579244Y94013D02*
X579244Y97233D01*
X584074Y99626D02*
X584074Y102846D01*
X584074Y99626D02*
X581659Y99626D01*
X582464Y101236D01*
X582464Y102041D01*
X581659Y102846D01*
X580049Y102846D01*
X579244Y102041D01*
X579244Y100431D01*
X580049Y99626D01*
D12*
X575785Y25213D02*
X562135Y25213D01*
X564198Y30163D02*
X568960Y25400D01*
X573723Y30163D01*
X575785Y11243D02*
X562135Y11243D01*
D13*
X561363Y77327D02*
X566193Y77327D01*
X561363Y77327D02*
X561363Y80547D01*
X566193Y82940D02*
X566193Y86160D01*
X566193Y82940D02*
X561363Y82940D01*
X561363Y86160D01*
X563778Y84550D02*
X563778Y82940D01*
X566193Y88553D02*
X561363Y88553D01*
X561363Y90968D01*
X562168Y91773D01*
X565388Y91773D01*
X566193Y90968D01*
X566193Y88553D01*
X564583Y94166D02*
X566193Y95776D01*
X561363Y95776D01*
X561363Y94166D02*
X561363Y97386D01*
X561363Y102194D02*
X566193Y102194D01*
X563778Y99779D01*
X563778Y102999D01*
D12*
X558005Y25213D02*
X544355Y25213D01*
X546418Y30163D02*
X551180Y25400D01*
X555943Y30163D01*
X558005Y11243D02*
X544355Y11243D01*
D13*
X544050Y77336D02*
X548880Y77336D01*
X544050Y77336D02*
X544050Y80556D01*
X548880Y82949D02*
X548880Y86169D01*
X548880Y82949D02*
X544050Y82949D01*
X544050Y86169D01*
X546465Y84559D02*
X546465Y82949D01*
X548880Y88562D02*
X544050Y88562D01*
X544050Y90977D01*
X544855Y91782D01*
X548075Y91782D01*
X548880Y90977D01*
X548880Y88562D01*
X547270Y94175D02*
X548880Y95785D01*
X544050Y95785D01*
X544050Y94175D02*
X544050Y97395D01*
X548075Y99788D02*
X548880Y100593D01*
X548880Y102203D01*
X548075Y103008D01*
X547270Y103008D01*
X546465Y102203D01*
X546465Y101398D01*
X546465Y102203D02*
X545660Y103008D01*
X544855Y103008D01*
X544050Y102203D01*
X544050Y100593D01*
X544855Y99788D01*
D12*
X540225Y25213D02*
X526575Y25213D01*
X528638Y30163D02*
X533400Y25400D01*
X538163Y30163D01*
X540225Y11243D02*
X526575Y11243D01*
D13*
X526160Y77281D02*
X530990Y77281D01*
X526160Y77281D02*
X526160Y80501D01*
X530990Y82894D02*
X530990Y86114D01*
X530990Y82894D02*
X526160Y82894D01*
X526160Y86114D01*
X528575Y84504D02*
X528575Y82894D01*
X530990Y88507D02*
X526160Y88507D01*
X526160Y90922D01*
X526965Y91727D01*
X530185Y91727D01*
X530990Y90922D01*
X530990Y88507D01*
X529380Y94120D02*
X530990Y95730D01*
X526160Y95730D01*
X526160Y94120D02*
X526160Y97340D01*
X526160Y99733D02*
X526160Y102953D01*
X526160Y99733D02*
X529380Y102953D01*
X530185Y102953D01*
X530990Y102148D01*
X530990Y100538D01*
X530185Y99733D01*
D12*
X522445Y25213D02*
X508795Y25213D01*
X510858Y30163D02*
X515620Y25400D01*
X520383Y30163D01*
X522445Y11243D02*
X508795Y11243D01*
D13*
X508296Y77226D02*
X513127Y77226D01*
X508296Y77226D02*
X508296Y80446D01*
X513127Y82839D02*
X513127Y86059D01*
X513127Y82839D02*
X508296Y82839D01*
X508296Y86059D01*
X510711Y84449D02*
X510711Y82839D01*
X513127Y88452D02*
X508296Y88452D01*
X508296Y90867D01*
X509101Y91672D01*
X512321Y91672D01*
X513127Y90867D01*
X513127Y88452D01*
X511516Y94065D02*
X513127Y95675D01*
X508296Y95675D01*
X508296Y94065D02*
X508296Y97285D01*
X511516Y99678D02*
X513127Y101289D01*
X508296Y101289D01*
X508296Y102899D02*
X508296Y99678D01*
D11*
X233984Y134112D02*
X233984Y140722D01*
X230679Y140722D01*
X229578Y139620D01*
X229578Y137417D01*
X230679Y136315D01*
X233984Y136315D01*
X231781Y136315D02*
X229578Y134112D01*
X226500Y140722D02*
X222094Y140722D01*
X226500Y140722D02*
X226500Y137417D01*
X224297Y138518D01*
X223195Y138518D01*
X222094Y137417D01*
X222094Y135214D01*
X223195Y134112D01*
X225398Y134112D01*
X226500Y135214D01*
X219016Y134112D02*
X214610Y134112D01*
X219016Y134112D02*
X214610Y138518D01*
X214610Y139620D01*
X215711Y140722D01*
X217914Y140722D01*
X219016Y139620D01*
D12*
X619573Y148115D02*
X619573Y161765D01*
X624523Y159703D02*
X619760Y154940D01*
X624523Y150178D01*
X605603Y148115D02*
X605603Y161765D01*
D11*
X634781Y163919D02*
X634781Y170528D01*
X634781Y163919D02*
X630374Y163919D01*
X627297Y170528D02*
X622890Y170528D01*
X627297Y170528D02*
X627297Y163919D01*
X622890Y163919D01*
X625093Y167223D02*
X627297Y167223D01*
X619812Y163919D02*
X619812Y170528D01*
X619812Y163919D02*
X616508Y163919D01*
X615406Y165020D01*
X615406Y169427D01*
X616508Y170528D01*
X619812Y170528D01*
X612328Y169427D02*
X611227Y170528D01*
X609023Y170528D01*
X607922Y169427D01*
X607922Y168325D01*
X609023Y167223D01*
X607922Y166122D01*
X607922Y165020D01*
X609023Y163919D01*
X611227Y163919D01*
X612328Y165020D01*
X612328Y166122D01*
X611227Y167223D01*
X612328Y168325D01*
X612328Y169427D01*
X611227Y167223D02*
X609023Y167223D01*
D12*
X261808Y156685D02*
X261808Y143035D01*
X256858Y145098D02*
X261620Y149860D01*
X256858Y154623D01*
X275778Y156685D02*
X275778Y143035D01*
D11*
X273286Y130054D02*
X273286Y123444D01*
X268880Y123444D01*
X265802Y130054D02*
X261396Y130054D01*
X265802Y130054D02*
X265802Y123444D01*
X261396Y123444D01*
X263599Y126749D02*
X265802Y126749D01*
X258318Y130054D02*
X258318Y123444D01*
X255013Y123444D01*
X253912Y124546D01*
X253912Y128952D01*
X255013Y130054D01*
X258318Y130054D01*
X250834Y130054D02*
X246427Y130054D01*
X246427Y128952D01*
X250834Y124546D01*
X250834Y123444D01*
D12*
X261808Y178595D02*
X261808Y192245D01*
X261620Y185420D02*
X256858Y180658D01*
X261620Y185420D02*
X256858Y190183D01*
X275778Y192245D02*
X275778Y178595D01*
D11*
X271236Y195443D02*
X271236Y202053D01*
X271236Y195443D02*
X266829Y195443D01*
X263751Y202053D02*
X259345Y202053D01*
X263751Y202053D02*
X263751Y195443D01*
X259345Y195443D01*
X261548Y198748D02*
X263751Y198748D01*
X256267Y202053D02*
X256267Y195443D01*
X252962Y195443D01*
X251861Y196545D01*
X251861Y200951D01*
X252962Y202053D01*
X256267Y202053D01*
X248783Y202053D02*
X244377Y202053D01*
X248783Y202053D02*
X248783Y198748D01*
X246580Y199850D01*
X245478Y199850D01*
X244377Y198748D01*
X244377Y196545D01*
X245478Y195443D01*
X247682Y195443D01*
X248783Y196545D01*
D12*
X261808Y174465D02*
X261808Y160815D01*
X256858Y162878D02*
X261620Y167640D01*
X256858Y172403D01*
X275778Y174465D02*
X275778Y160815D01*
D11*
X273286Y140214D02*
X273286Y133604D01*
X268880Y133604D01*
X265802Y140214D02*
X261396Y140214D01*
X265802Y140214D02*
X265802Y133604D01*
X261396Y133604D01*
X263599Y136909D02*
X265802Y136909D01*
X258318Y140214D02*
X258318Y133604D01*
X255013Y133604D01*
X253912Y134706D01*
X253912Y139112D01*
X255013Y140214D01*
X258318Y140214D01*
X248631Y139112D02*
X246427Y140214D01*
X248631Y139112D02*
X250834Y136909D01*
X250834Y134706D01*
X249732Y133604D01*
X247529Y133604D01*
X246427Y134706D01*
X246427Y135807D01*
X247529Y136909D01*
X250834Y136909D01*
X234818Y195756D02*
X234818Y202366D01*
X231513Y202366D01*
X230412Y201264D01*
X230412Y199061D01*
X231513Y197959D01*
X234818Y197959D01*
X232615Y197959D02*
X230412Y195756D01*
X227334Y202366D02*
X222927Y202366D01*
X227334Y202366D02*
X227334Y199061D01*
X225131Y200163D01*
X224029Y200163D01*
X222927Y199061D01*
X222927Y196858D01*
X224029Y195756D01*
X226232Y195756D01*
X227334Y196858D01*
X219850Y196858D02*
X219850Y201264D01*
X218748Y202366D01*
X216545Y202366D01*
X215443Y201264D01*
X215443Y196858D01*
X216545Y195756D01*
X218748Y195756D01*
X219850Y196858D01*
X215443Y201264D01*
X210580Y174604D02*
X210580Y167995D01*
X210580Y174604D02*
X207275Y174604D01*
X206173Y173503D01*
X206173Y171299D01*
X207275Y170198D01*
X210580Y170198D01*
X208377Y170198D02*
X206173Y167995D01*
X203096Y174604D02*
X198689Y174604D01*
X203096Y174604D02*
X203096Y171299D01*
X200892Y172401D01*
X199791Y172401D01*
X198689Y171299D01*
X198689Y169096D01*
X199791Y167995D01*
X201994Y167995D01*
X203096Y169096D01*
X195611Y172401D02*
X193408Y174604D01*
X193408Y167995D01*
X195611Y167995D02*
X191205Y167995D01*
X679341Y82575D02*
X680443Y83677D01*
X682646Y83677D01*
X683748Y82575D01*
X683748Y78169D01*
X682646Y77067D01*
X680443Y77067D01*
X679341Y78169D01*
X676264Y77067D02*
X671857Y77067D01*
X676264Y77067D02*
X671857Y81474D01*
X671857Y82575D01*
X672959Y83677D01*
X675162Y83677D01*
X676264Y82575D01*
X668780Y82575D02*
X667678Y83677D01*
X665475Y83677D01*
X664373Y82575D01*
X664373Y81474D01*
X665475Y80372D01*
X664373Y79271D01*
X664373Y78169D01*
X665475Y77067D01*
X667678Y77067D01*
X668780Y78169D01*
X668780Y79271D01*
X667678Y80372D01*
X668780Y81474D01*
X668780Y82575D01*
X667678Y80372D02*
X665475Y80372D01*
X628651Y551462D02*
X629753Y552564D01*
X631956Y552564D01*
X633057Y551462D01*
X633057Y547056D01*
X631956Y545954D01*
X629753Y545954D01*
X628651Y547056D01*
X622268Y545954D02*
X622268Y552564D01*
X625573Y549259D01*
X621167Y549259D01*
X618089Y552564D02*
X613683Y552564D01*
X613683Y551462D01*
X618089Y547056D01*
X618089Y545954D01*
X762978Y640000D02*
X764079Y641102D01*
X766283Y641102D01*
X767384Y640000D01*
X767384Y635594D01*
X766283Y634492D01*
X764079Y634492D01*
X762978Y635594D01*
X756595Y634492D02*
X756595Y641102D01*
X759900Y637797D01*
X755494Y637797D01*
X752416Y640000D02*
X751314Y641102D01*
X749111Y641102D01*
X748010Y640000D01*
X748010Y638898D01*
X749111Y637797D01*
X748010Y636695D01*
X748010Y635594D01*
X749111Y634492D01*
X751314Y634492D01*
X752416Y635594D01*
X752416Y636695D01*
X751314Y637797D01*
X752416Y638898D01*
X752416Y640000D01*
X751314Y637797D02*
X749111Y637797D01*
D13*
X462570Y479175D02*
X461765Y478370D01*
X462570Y479175D02*
X464180Y479175D01*
X464985Y478370D01*
X464985Y475150D01*
X464180Y474345D01*
X462570Y474345D01*
X461765Y475150D01*
X456957Y474345D02*
X456957Y479175D01*
X459372Y476760D01*
X456152Y476760D01*
X453758Y475150D02*
X452953Y474345D01*
X451343Y474345D01*
X450538Y475150D01*
X450538Y478370D01*
X451343Y479175D01*
X452953Y479175D01*
X453758Y478370D01*
X453758Y477565D01*
X452953Y476760D01*
X450538Y476760D01*
D11*
X611552Y273342D02*
X612654Y272241D01*
X612654Y270037D01*
X611552Y268936D01*
X607146Y268936D01*
X606044Y270037D01*
X606044Y272241D01*
X607146Y273342D01*
X612654Y276420D02*
X612654Y280826D01*
X612654Y276420D02*
X609349Y276420D01*
X610450Y278623D01*
X610450Y279725D01*
X609349Y280826D01*
X607146Y280826D01*
X606044Y279725D01*
X606044Y277522D01*
X607146Y276420D01*
X607146Y283904D02*
X611552Y283904D01*
X612654Y285006D01*
X612654Y287209D01*
X611552Y288310D01*
X607146Y288310D01*
X606044Y287209D01*
X606044Y285006D01*
X607146Y283904D01*
X611552Y288310D01*
X397456Y540268D02*
X396354Y541370D01*
X397456Y540268D02*
X397456Y538065D01*
X396354Y536963D01*
X391948Y536963D01*
X390846Y538065D01*
X390846Y540268D01*
X391948Y541370D01*
X397456Y544447D02*
X397456Y548854D01*
X397456Y544447D02*
X394151Y544447D01*
X395252Y546651D01*
X395252Y547752D01*
X394151Y548854D01*
X391948Y548854D01*
X390846Y547752D01*
X390846Y545549D01*
X391948Y544447D01*
X395252Y551932D02*
X397456Y554135D01*
X390846Y554135D01*
X390846Y551932D02*
X390846Y556338D01*
D13*
X112291Y47405D02*
X111486Y46600D01*
X112291Y47405D02*
X113901Y47405D01*
X114706Y46600D01*
X114706Y43380D01*
X113901Y42575D01*
X112291Y42575D01*
X111486Y43380D01*
X106678Y42575D02*
X106678Y47405D01*
X109093Y44990D01*
X105873Y44990D01*
X103480Y47405D02*
X100260Y47405D01*
X103480Y47405D02*
X103480Y44990D01*
X101870Y45795D01*
X101065Y45795D01*
X100260Y44990D01*
X100260Y43380D01*
X101065Y42575D01*
X102675Y42575D01*
X103480Y43380D01*
X58790Y47405D02*
X57985Y46600D01*
X58790Y47405D02*
X60400Y47405D01*
X61205Y46600D01*
X61205Y43380D01*
X60400Y42575D01*
X58790Y42575D01*
X57985Y43380D01*
X53177Y42575D02*
X53177Y47405D01*
X55592Y44990D01*
X52372Y44990D01*
X48369Y46600D02*
X46759Y47405D01*
X48369Y46600D02*
X49979Y44990D01*
X49979Y43380D01*
X49174Y42575D01*
X47564Y42575D01*
X46759Y43380D01*
X46759Y44185D01*
X47564Y44990D01*
X49979Y44990D01*
X73181Y97668D02*
X73986Y98473D01*
X75596Y98473D01*
X76401Y97668D01*
X76401Y94448D01*
X75596Y93643D01*
X73986Y93643D01*
X73181Y94448D01*
X68373Y93643D02*
X68373Y98473D01*
X70788Y96058D01*
X67568Y96058D01*
X65175Y97668D02*
X64370Y98473D01*
X62760Y98473D01*
X61955Y97668D01*
X61955Y96863D01*
X62760Y96058D01*
X63565Y96058D01*
X62760Y96058D02*
X61955Y95253D01*
X61955Y94448D01*
X62760Y93643D01*
X64370Y93643D01*
X65175Y94448D01*
X95773Y97512D02*
X96578Y98318D01*
X98188Y98318D01*
X98993Y97512D01*
X98993Y94292D01*
X98188Y93487D01*
X96578Y93487D01*
X95773Y94292D01*
X90965Y93487D02*
X90965Y98318D01*
X93380Y95902D01*
X90160Y95902D01*
X85352Y93487D02*
X85352Y98318D01*
X87767Y95902D01*
X84547Y95902D01*
X105251Y171384D02*
X110081Y171384D01*
X110081Y173799D01*
X109276Y174604D01*
X107666Y174604D01*
X106861Y173799D01*
X106861Y171384D01*
X106861Y172994D02*
X105251Y174604D01*
X109276Y176997D02*
X110081Y177802D01*
X110081Y179412D01*
X109276Y180217D01*
X108471Y180217D01*
X107666Y179412D01*
X107666Y178607D01*
X107666Y179412D02*
X106861Y180217D01*
X106056Y180217D01*
X105251Y179412D01*
X105251Y177802D01*
X106056Y176997D01*
X109276Y182610D02*
X110081Y183415D01*
X110081Y185025D01*
X109276Y185830D01*
X108471Y185830D01*
X107666Y185025D01*
X106861Y185830D01*
X106056Y185830D01*
X105251Y185025D01*
X105251Y183415D01*
X106056Y182610D01*
X106861Y182610D01*
X107666Y183415D01*
X108471Y182610D01*
X109276Y182610D01*
X107666Y183415D02*
X107666Y185025D01*
X50733Y118032D02*
X50733Y113202D01*
X50733Y118032D02*
X48318Y118032D01*
X47513Y117227D01*
X47513Y115617D01*
X48318Y114812D01*
X50733Y114812D01*
X49123Y114812D02*
X47513Y113202D01*
X45120Y117227D02*
X44315Y118032D01*
X42705Y118032D01*
X41900Y117227D01*
X41900Y116422D01*
X42705Y115617D01*
X43510Y115617D01*
X42705Y115617D02*
X41900Y114812D01*
X41900Y114007D01*
X42705Y113202D01*
X44315Y113202D01*
X45120Y114007D01*
X39507Y117227D02*
X38702Y118032D01*
X37092Y118032D01*
X36287Y117227D01*
X36287Y116422D01*
X37092Y115617D01*
X37897Y115617D01*
X37092Y115617D02*
X36287Y114812D01*
X36287Y114007D01*
X37092Y113202D01*
X38702Y113202D01*
X39507Y114007D01*
X83520Y117154D02*
X84325Y117959D01*
X85935Y117959D01*
X86740Y117154D01*
X86740Y113934D01*
X85935Y113129D01*
X84325Y113129D01*
X83520Y113934D01*
X81126Y117154D02*
X80321Y117959D01*
X78711Y117959D01*
X77906Y117154D01*
X77906Y116349D01*
X78711Y115544D01*
X79516Y115544D01*
X78711Y115544D02*
X77906Y114739D01*
X77906Y113934D01*
X78711Y113129D01*
X80321Y113129D01*
X81126Y113934D01*
X73903Y117154D02*
X72293Y117959D01*
X73903Y117154D02*
X75513Y115544D01*
X75513Y113934D01*
X74708Y113129D01*
X73098Y113129D01*
X72293Y113934D01*
X72293Y114739D01*
X73098Y115544D01*
X75513Y115544D01*
X140659Y139476D02*
X141464Y140281D01*
X143074Y140281D01*
X143879Y139476D01*
X143879Y136256D01*
X143074Y135451D01*
X141464Y135451D01*
X140659Y136256D01*
X138266Y139476D02*
X137461Y140281D01*
X135851Y140281D01*
X135046Y139476D01*
X135046Y138671D01*
X135851Y137866D01*
X136656Y137866D01*
X135851Y137866D02*
X135046Y137061D01*
X135046Y136256D01*
X135851Y135451D01*
X137461Y135451D01*
X138266Y136256D01*
X132653Y140281D02*
X129433Y140281D01*
X129433Y139476D01*
X132653Y136256D01*
X132653Y135451D01*
D11*
X371144Y130562D02*
X371144Y123952D01*
X371144Y130562D02*
X367839Y130562D01*
X366738Y129460D01*
X366738Y127257D01*
X367839Y126155D01*
X371144Y126155D01*
X368941Y126155D02*
X366738Y123952D01*
X363660Y123952D02*
X359254Y123952D01*
X363660Y123952D02*
X359254Y128358D01*
X359254Y129460D01*
X360355Y130562D01*
X362558Y130562D01*
X363660Y129460D01*
X356176Y130562D02*
X351770Y130562D01*
X356176Y130562D02*
X356176Y127257D01*
X353973Y128358D01*
X352871Y128358D01*
X351770Y127257D01*
X351770Y125054D01*
X352871Y123952D01*
X355074Y123952D01*
X356176Y125054D01*
D13*
X377860Y60560D02*
X377860Y42060D01*
X302860Y42060D02*
X302860Y60560D01*
D18*
X352360Y71560D02*
X352362Y71623D01*
X352368Y71685D01*
X352378Y71747D01*
X352391Y71809D01*
X352409Y71869D01*
X352430Y71928D01*
X352455Y71986D01*
X352484Y72042D01*
X352516Y72096D01*
X352551Y72148D01*
X352589Y72197D01*
X352631Y72245D01*
X352675Y72289D01*
X352723Y72331D01*
X352772Y72369D01*
X352824Y72404D01*
X352878Y72436D01*
X352934Y72465D01*
X352992Y72490D01*
X353051Y72511D01*
X353111Y72529D01*
X353173Y72542D01*
X353235Y72552D01*
X353297Y72558D01*
X353360Y72560D01*
X353423Y72558D01*
X353485Y72552D01*
X353547Y72542D01*
X353609Y72529D01*
X353669Y72511D01*
X353728Y72490D01*
X353786Y72465D01*
X353842Y72436D01*
X353896Y72404D01*
X353948Y72369D01*
X353997Y72331D01*
X354045Y72289D01*
X354089Y72245D01*
X354131Y72197D01*
X354169Y72148D01*
X354204Y72096D01*
X354236Y72042D01*
X354265Y71986D01*
X354290Y71928D01*
X354311Y71869D01*
X354329Y71809D01*
X354342Y71747D01*
X354352Y71685D01*
X354358Y71623D01*
X354360Y71560D01*
X354358Y71497D01*
X354352Y71435D01*
X354342Y71373D01*
X354329Y71311D01*
X354311Y71251D01*
X354290Y71192D01*
X354265Y71134D01*
X354236Y71078D01*
X354204Y71024D01*
X354169Y70972D01*
X354131Y70923D01*
X354089Y70875D01*
X354045Y70831D01*
X353997Y70789D01*
X353948Y70751D01*
X353896Y70716D01*
X353842Y70684D01*
X353786Y70655D01*
X353728Y70630D01*
X353669Y70609D01*
X353609Y70591D01*
X353547Y70578D01*
X353485Y70568D01*
X353423Y70562D01*
X353360Y70560D01*
X353297Y70562D01*
X353235Y70568D01*
X353173Y70578D01*
X353111Y70591D01*
X353051Y70609D01*
X352992Y70630D01*
X352934Y70655D01*
X352878Y70684D01*
X352824Y70716D01*
X352772Y70751D01*
X352723Y70789D01*
X352675Y70831D01*
X352631Y70875D01*
X352589Y70923D01*
X352551Y70972D01*
X352516Y71024D01*
X352484Y71078D01*
X352455Y71134D01*
X352430Y71192D01*
X352409Y71251D01*
X352391Y71311D01*
X352378Y71373D01*
X352368Y71435D01*
X352362Y71497D01*
X352360Y71560D01*
D13*
X302860Y21060D02*
X302860Y10560D01*
X377860Y10560D01*
X377860Y21060D01*
D15*
X388626Y64850D02*
X390575Y66799D01*
X388626Y64850D02*
X386676Y64850D01*
X384727Y66799D01*
X384727Y76545D01*
X386676Y76545D02*
X382778Y76545D01*
X378880Y64850D02*
X371083Y64850D01*
X378880Y64850D02*
X371083Y72647D01*
X371083Y74596D01*
X373033Y76545D01*
X376931Y76545D01*
X378880Y74596D01*
D13*
X37136Y180562D02*
X36331Y179757D01*
X37136Y180562D02*
X38746Y180562D01*
X39551Y179757D01*
X39551Y176537D01*
X38746Y175732D01*
X37136Y175732D01*
X36331Y176537D01*
X31523Y175732D02*
X31523Y180562D01*
X33938Y178147D01*
X30718Y178147D01*
X28325Y175732D02*
X25104Y175732D01*
X25104Y178952D02*
X28325Y175732D01*
X25104Y178952D02*
X25104Y179757D01*
X25909Y180562D01*
X27520Y180562D01*
X28325Y179757D01*
D11*
X365760Y435356D02*
X386080Y435356D01*
X365760Y449072D02*
X365760Y455168D01*
X365760Y468884D02*
X386080Y468884D01*
D10*
X393573Y469062D02*
X385608Y461096D01*
X393573Y461096D02*
X385608Y469062D01*
X385608Y465079D02*
X393573Y465079D01*
X389590Y461096D02*
X389590Y469062D01*
D12*
X394970Y475236D02*
X394970Y484133D01*
X394970Y475236D02*
X393191Y473456D01*
X389631Y473456D01*
X387852Y475236D01*
X387852Y484133D01*
X383276Y480574D02*
X379717Y484133D01*
X379717Y473456D01*
X383276Y473456D02*
X376158Y473456D01*
D18*
X728300Y79430D02*
X805860Y79430D01*
X805860Y6930D01*
X728300Y6930D01*
X728300Y79430D01*
D15*
X791177Y82373D02*
X795083Y86278D01*
X783366Y86278D01*
X783366Y82373D02*
X783366Y90184D01*
X739118Y90134D02*
X739118Y82332D01*
X746920Y90134D01*
X748870Y90134D01*
X750821Y88183D01*
X750821Y84282D01*
X748870Y82332D01*
D11*
X736701Y85882D02*
X733777Y82958D01*
X730853Y82958D01*
X727929Y85882D01*
X727929Y100502D01*
X730853Y100502D02*
X725005Y100502D01*
X710385Y100502D02*
X710385Y82958D01*
X719157Y91730D02*
X710385Y100502D01*
X707461Y91730D02*
X719157Y91730D01*
X640162Y114743D02*
X633553Y114743D01*
X640162Y114743D02*
X640162Y118048D01*
X639061Y119150D01*
X636858Y119150D01*
X635756Y118048D01*
X635756Y114743D01*
X635756Y116946D02*
X633553Y119150D01*
X639061Y122227D02*
X640162Y123329D01*
X640162Y125532D01*
X639061Y126634D01*
X637959Y126634D01*
X636858Y125532D01*
X636858Y124431D01*
X636858Y125532D02*
X635756Y126634D01*
X634654Y126634D01*
X633553Y125532D01*
X633553Y123329D01*
X634654Y122227D01*
X633553Y129712D02*
X633553Y134118D01*
X633553Y129712D02*
X637959Y134118D01*
X639061Y134118D01*
X640162Y133016D01*
X640162Y130813D01*
X639061Y129712D01*
X330504Y471932D02*
X330504Y478542D01*
X327199Y478542D01*
X326098Y477440D01*
X326098Y475237D01*
X327199Y474135D01*
X330504Y474135D01*
X328301Y474135D02*
X326098Y471932D01*
X323020Y476338D02*
X320817Y478542D01*
X320817Y471932D01*
X323020Y471932D02*
X318614Y471932D01*
X315536Y473034D02*
X315536Y477440D01*
X314434Y478542D01*
X312231Y478542D01*
X311130Y477440D01*
X311130Y473034D01*
X312231Y471932D01*
X314434Y471932D01*
X315536Y473034D01*
X311130Y477440D01*
D13*
X475240Y178100D02*
X475240Y176100D01*
X475240Y178100D02*
X468740Y178100D01*
X450740Y178100D02*
X444240Y178100D01*
X444240Y176100D01*
X444240Y152100D02*
X451240Y152100D01*
X444240Y152100D02*
X444240Y154100D01*
X475240Y154100D02*
X475240Y152100D01*
X468740Y152100D01*
D19*
X478040Y173600D02*
X478042Y173652D01*
X478048Y173704D01*
X478058Y173756D01*
X478071Y173806D01*
X478088Y173856D01*
X478109Y173904D01*
X478134Y173950D01*
X478162Y173994D01*
X478193Y174036D01*
X478227Y174076D01*
X478264Y174113D01*
X478304Y174147D01*
X478346Y174178D01*
X478390Y174206D01*
X478436Y174231D01*
X478484Y174252D01*
X478534Y174269D01*
X478584Y174282D01*
X478636Y174292D01*
X478688Y174298D01*
X478740Y174300D01*
X478792Y174298D01*
X478844Y174292D01*
X478896Y174282D01*
X478946Y174269D01*
X478996Y174252D01*
X479044Y174231D01*
X479090Y174206D01*
X479134Y174178D01*
X479176Y174147D01*
X479216Y174113D01*
X479253Y174076D01*
X479287Y174036D01*
X479318Y173994D01*
X479346Y173950D01*
X479371Y173904D01*
X479392Y173856D01*
X479409Y173806D01*
X479422Y173756D01*
X479432Y173704D01*
X479438Y173652D01*
X479440Y173600D01*
X479438Y173548D01*
X479432Y173496D01*
X479422Y173444D01*
X479409Y173394D01*
X479392Y173344D01*
X479371Y173296D01*
X479346Y173250D01*
X479318Y173206D01*
X479287Y173164D01*
X479253Y173124D01*
X479216Y173087D01*
X479176Y173053D01*
X479134Y173022D01*
X479090Y172994D01*
X479044Y172969D01*
X478996Y172948D01*
X478946Y172931D01*
X478896Y172918D01*
X478844Y172908D01*
X478792Y172902D01*
X478740Y172900D01*
X478688Y172902D01*
X478636Y172908D01*
X478584Y172918D01*
X478534Y172931D01*
X478484Y172948D01*
X478436Y172969D01*
X478390Y172994D01*
X478346Y173022D01*
X478304Y173053D01*
X478264Y173087D01*
X478227Y173124D01*
X478193Y173164D01*
X478162Y173206D01*
X478134Y173250D01*
X478109Y173296D01*
X478088Y173344D01*
X478071Y173394D01*
X478058Y173444D01*
X478048Y173496D01*
X478042Y173548D01*
X478040Y173600D01*
D15*
X501195Y171005D02*
X501195Y161260D01*
X499246Y159311D01*
X495348Y159311D01*
X493399Y161260D01*
X493399Y171005D01*
X485603Y169056D02*
X481705Y171005D01*
X485603Y169056D02*
X489501Y165158D01*
X489501Y161260D01*
X487552Y159311D01*
X483654Y159311D01*
X481705Y161260D01*
X481705Y163209D01*
X483654Y165158D01*
X489501Y165158D01*
D11*
X419614Y170641D02*
X418512Y171742D01*
X419614Y170641D02*
X419614Y168437D01*
X418512Y167336D01*
X414106Y167336D01*
X413004Y168437D01*
X413004Y170641D01*
X414106Y171742D01*
X413004Y174820D02*
X413004Y179226D01*
X413004Y174820D02*
X417410Y179226D01*
X418512Y179226D01*
X419614Y178125D01*
X419614Y175922D01*
X418512Y174820D01*
X413004Y182304D02*
X413004Y186710D01*
X413004Y182304D02*
X417410Y186710D01*
X418512Y186710D01*
X419614Y185609D01*
X419614Y183406D01*
X418512Y182304D01*
X489445Y126056D02*
X490546Y124954D01*
X490546Y122751D01*
X489445Y121649D01*
X485038Y121649D01*
X483937Y122751D01*
X483937Y124954D01*
X485038Y126056D01*
X483937Y129134D02*
X483937Y133540D01*
X483937Y129134D02*
X488343Y133540D01*
X489445Y133540D01*
X490546Y132438D01*
X490546Y130235D01*
X489445Y129134D01*
X485038Y136618D02*
X483937Y137719D01*
X483937Y139923D01*
X485038Y141024D01*
X489445Y141024D01*
X490546Y139923D01*
X490546Y137719D01*
X489445Y136618D01*
X488343Y136618D01*
X487242Y137719D01*
X487242Y141024D01*
X463302Y124921D02*
X462200Y126022D01*
X463302Y124921D02*
X463302Y122717D01*
X462200Y121616D01*
X457794Y121616D01*
X456692Y122717D01*
X456692Y124921D01*
X457794Y126022D01*
X456692Y129100D02*
X456692Y133506D01*
X456692Y129100D02*
X461098Y133506D01*
X462200Y133506D01*
X463302Y132405D01*
X463302Y130202D01*
X462200Y129100D01*
X463302Y139889D02*
X456692Y139889D01*
X459997Y136584D02*
X463302Y139889D01*
X459997Y140991D02*
X459997Y136584D01*
X431339Y114814D02*
X430238Y113712D01*
X431339Y114814D02*
X433543Y114814D01*
X434644Y113712D01*
X434644Y109306D01*
X433543Y108204D01*
X431339Y108204D01*
X430238Y109306D01*
X427160Y108204D02*
X422754Y108204D01*
X427160Y108204D02*
X422754Y112610D01*
X422754Y113712D01*
X423855Y114814D01*
X426059Y114814D01*
X427160Y113712D01*
X417473Y113712D02*
X415270Y114814D01*
X417473Y113712D02*
X419676Y111509D01*
X419676Y109306D01*
X418574Y108204D01*
X416371Y108204D01*
X415270Y109306D01*
X415270Y110407D01*
X416371Y111509D01*
X419676Y111509D01*
D13*
X743458Y272034D02*
X790702Y272034D01*
X790702Y235966D01*
X743458Y235966D01*
X743458Y272034D01*
D16*
X745490Y266446D02*
X745492Y266565D01*
X745498Y266684D01*
X745508Y266802D01*
X745522Y266920D01*
X745540Y267037D01*
X745561Y267154D01*
X745587Y267270D01*
X745616Y267385D01*
X745650Y267500D01*
X745687Y267612D01*
X745728Y267724D01*
X745772Y267834D01*
X745820Y267943D01*
X745872Y268050D01*
X745928Y268155D01*
X745986Y268258D01*
X746049Y268359D01*
X746114Y268459D01*
X746183Y268555D01*
X746255Y268650D01*
X746330Y268742D01*
X746409Y268831D01*
X746490Y268918D01*
X746574Y269002D01*
X746661Y269083D01*
X746750Y269162D01*
X746842Y269237D01*
X746937Y269309D01*
X747033Y269378D01*
X747133Y269443D01*
X747234Y269506D01*
X747337Y269564D01*
X747442Y269620D01*
X747549Y269672D01*
X747658Y269720D01*
X747768Y269764D01*
X747880Y269805D01*
X747992Y269842D01*
X748107Y269876D01*
X748222Y269905D01*
X748338Y269931D01*
X748455Y269952D01*
X748572Y269970D01*
X748690Y269984D01*
X748808Y269994D01*
X748927Y270000D01*
X749046Y270002D01*
X749165Y270000D01*
X749284Y269994D01*
X749402Y269984D01*
X749520Y269970D01*
X749637Y269952D01*
X749754Y269931D01*
X749870Y269905D01*
X749985Y269876D01*
X750100Y269842D01*
X750212Y269805D01*
X750324Y269764D01*
X750434Y269720D01*
X750543Y269672D01*
X750650Y269620D01*
X750755Y269564D01*
X750858Y269506D01*
X750959Y269443D01*
X751059Y269378D01*
X751155Y269309D01*
X751250Y269237D01*
X751342Y269162D01*
X751431Y269083D01*
X751518Y269002D01*
X751602Y268918D01*
X751683Y268831D01*
X751762Y268742D01*
X751837Y268650D01*
X751909Y268555D01*
X751978Y268459D01*
X752043Y268359D01*
X752106Y268258D01*
X752164Y268155D01*
X752220Y268050D01*
X752272Y267943D01*
X752320Y267834D01*
X752364Y267724D01*
X752405Y267612D01*
X752442Y267500D01*
X752476Y267385D01*
X752505Y267270D01*
X752531Y267154D01*
X752552Y267037D01*
X752570Y266920D01*
X752584Y266802D01*
X752594Y266684D01*
X752600Y266565D01*
X752602Y266446D01*
X752600Y266327D01*
X752594Y266208D01*
X752584Y266090D01*
X752570Y265972D01*
X752552Y265855D01*
X752531Y265738D01*
X752505Y265622D01*
X752476Y265507D01*
X752442Y265392D01*
X752405Y265280D01*
X752364Y265168D01*
X752320Y265058D01*
X752272Y264949D01*
X752220Y264842D01*
X752164Y264737D01*
X752106Y264634D01*
X752043Y264533D01*
X751978Y264433D01*
X751909Y264337D01*
X751837Y264242D01*
X751762Y264150D01*
X751683Y264061D01*
X751602Y263974D01*
X751518Y263890D01*
X751431Y263809D01*
X751342Y263730D01*
X751250Y263655D01*
X751155Y263583D01*
X751059Y263514D01*
X750959Y263449D01*
X750858Y263386D01*
X750755Y263328D01*
X750650Y263272D01*
X750543Y263220D01*
X750434Y263172D01*
X750324Y263128D01*
X750212Y263087D01*
X750100Y263050D01*
X749985Y263016D01*
X749870Y262987D01*
X749754Y262961D01*
X749637Y262940D01*
X749520Y262922D01*
X749402Y262908D01*
X749284Y262898D01*
X749165Y262892D01*
X749046Y262890D01*
X748927Y262892D01*
X748808Y262898D01*
X748690Y262908D01*
X748572Y262922D01*
X748455Y262940D01*
X748338Y262961D01*
X748222Y262987D01*
X748107Y263016D01*
X747992Y263050D01*
X747880Y263087D01*
X747768Y263128D01*
X747658Y263172D01*
X747549Y263220D01*
X747442Y263272D01*
X747337Y263328D01*
X747234Y263386D01*
X747133Y263449D01*
X747033Y263514D01*
X746937Y263583D01*
X746842Y263655D01*
X746750Y263730D01*
X746661Y263809D01*
X746574Y263890D01*
X746490Y263974D01*
X746409Y264061D01*
X746330Y264150D01*
X746255Y264242D01*
X746183Y264337D01*
X746114Y264433D01*
X746049Y264533D01*
X745986Y264634D01*
X745928Y264737D01*
X745872Y264842D01*
X745820Y264949D01*
X745772Y265058D01*
X745728Y265168D01*
X745687Y265280D01*
X745650Y265392D01*
X745616Y265507D01*
X745587Y265622D01*
X745561Y265738D01*
X745540Y265855D01*
X745522Y265972D01*
X745508Y266090D01*
X745498Y266208D01*
X745492Y266327D01*
X745490Y266446D01*
D15*
X755150Y239058D02*
X753625Y237533D01*
X755150Y239058D02*
X755150Y242109D01*
X753625Y243634D01*
X752099Y243634D01*
X750574Y242109D01*
X749049Y243634D01*
X747523Y243634D01*
X745998Y242109D01*
X745998Y239058D01*
X747523Y237533D01*
X749049Y237533D01*
X750574Y239058D01*
X752099Y237533D01*
X753625Y237533D01*
X750574Y239058D02*
X750574Y242109D01*
D13*
X802134Y241407D02*
X809760Y241407D01*
X811667Y243314D01*
X811667Y247127D01*
X809760Y249034D01*
X802134Y249034D01*
X800227Y247127D01*
X800227Y243314D01*
X802134Y241407D01*
X804040Y245220D02*
X800227Y249034D01*
X811667Y253101D02*
X811667Y260728D01*
X809760Y260728D01*
X802134Y253101D01*
X800227Y253101D01*
X793242Y409194D02*
X745998Y409194D01*
X793242Y409194D02*
X793242Y373126D01*
X745998Y373126D01*
X745998Y409194D01*
D16*
X748030Y403606D02*
X748032Y403725D01*
X748038Y403844D01*
X748048Y403962D01*
X748062Y404080D01*
X748080Y404197D01*
X748101Y404314D01*
X748127Y404430D01*
X748156Y404545D01*
X748190Y404660D01*
X748227Y404772D01*
X748268Y404884D01*
X748312Y404994D01*
X748360Y405103D01*
X748412Y405210D01*
X748468Y405315D01*
X748526Y405418D01*
X748589Y405519D01*
X748654Y405619D01*
X748723Y405715D01*
X748795Y405810D01*
X748870Y405902D01*
X748949Y405991D01*
X749030Y406078D01*
X749114Y406162D01*
X749201Y406243D01*
X749290Y406322D01*
X749382Y406397D01*
X749477Y406469D01*
X749573Y406538D01*
X749673Y406603D01*
X749774Y406666D01*
X749877Y406724D01*
X749982Y406780D01*
X750089Y406832D01*
X750198Y406880D01*
X750308Y406924D01*
X750420Y406965D01*
X750532Y407002D01*
X750647Y407036D01*
X750762Y407065D01*
X750878Y407091D01*
X750995Y407112D01*
X751112Y407130D01*
X751230Y407144D01*
X751348Y407154D01*
X751467Y407160D01*
X751586Y407162D01*
X751705Y407160D01*
X751824Y407154D01*
X751942Y407144D01*
X752060Y407130D01*
X752177Y407112D01*
X752294Y407091D01*
X752410Y407065D01*
X752525Y407036D01*
X752640Y407002D01*
X752752Y406965D01*
X752864Y406924D01*
X752974Y406880D01*
X753083Y406832D01*
X753190Y406780D01*
X753295Y406724D01*
X753398Y406666D01*
X753499Y406603D01*
X753599Y406538D01*
X753695Y406469D01*
X753790Y406397D01*
X753882Y406322D01*
X753971Y406243D01*
X754058Y406162D01*
X754142Y406078D01*
X754223Y405991D01*
X754302Y405902D01*
X754377Y405810D01*
X754449Y405715D01*
X754518Y405619D01*
X754583Y405519D01*
X754646Y405418D01*
X754704Y405315D01*
X754760Y405210D01*
X754812Y405103D01*
X754860Y404994D01*
X754904Y404884D01*
X754945Y404772D01*
X754982Y404660D01*
X755016Y404545D01*
X755045Y404430D01*
X755071Y404314D01*
X755092Y404197D01*
X755110Y404080D01*
X755124Y403962D01*
X755134Y403844D01*
X755140Y403725D01*
X755142Y403606D01*
X755140Y403487D01*
X755134Y403368D01*
X755124Y403250D01*
X755110Y403132D01*
X755092Y403015D01*
X755071Y402898D01*
X755045Y402782D01*
X755016Y402667D01*
X754982Y402552D01*
X754945Y402440D01*
X754904Y402328D01*
X754860Y402218D01*
X754812Y402109D01*
X754760Y402002D01*
X754704Y401897D01*
X754646Y401794D01*
X754583Y401693D01*
X754518Y401593D01*
X754449Y401497D01*
X754377Y401402D01*
X754302Y401310D01*
X754223Y401221D01*
X754142Y401134D01*
X754058Y401050D01*
X753971Y400969D01*
X753882Y400890D01*
X753790Y400815D01*
X753695Y400743D01*
X753599Y400674D01*
X753499Y400609D01*
X753398Y400546D01*
X753295Y400488D01*
X753190Y400432D01*
X753083Y400380D01*
X752974Y400332D01*
X752864Y400288D01*
X752752Y400247D01*
X752640Y400210D01*
X752525Y400176D01*
X752410Y400147D01*
X752294Y400121D01*
X752177Y400100D01*
X752060Y400082D01*
X751942Y400068D01*
X751824Y400058D01*
X751705Y400052D01*
X751586Y400050D01*
X751467Y400052D01*
X751348Y400058D01*
X751230Y400068D01*
X751112Y400082D01*
X750995Y400100D01*
X750878Y400121D01*
X750762Y400147D01*
X750647Y400176D01*
X750532Y400210D01*
X750420Y400247D01*
X750308Y400288D01*
X750198Y400332D01*
X750089Y400380D01*
X749982Y400432D01*
X749877Y400488D01*
X749774Y400546D01*
X749673Y400609D01*
X749573Y400674D01*
X749477Y400743D01*
X749382Y400815D01*
X749290Y400890D01*
X749201Y400969D01*
X749114Y401050D01*
X749030Y401134D01*
X748949Y401221D01*
X748870Y401310D01*
X748795Y401402D01*
X748723Y401497D01*
X748654Y401593D01*
X748589Y401693D01*
X748526Y401794D01*
X748468Y401897D01*
X748412Y402002D01*
X748360Y402109D01*
X748312Y402218D01*
X748268Y402328D01*
X748227Y402440D01*
X748190Y402552D01*
X748156Y402667D01*
X748127Y402782D01*
X748101Y402898D01*
X748080Y403015D01*
X748062Y403132D01*
X748048Y403250D01*
X748038Y403368D01*
X748032Y403487D01*
X748030Y403606D01*
D15*
X757690Y376218D02*
X756165Y374693D01*
X757690Y376218D02*
X757690Y379269D01*
X756165Y380794D01*
X754639Y380794D01*
X753114Y379269D01*
X751589Y380794D01*
X750063Y380794D01*
X748538Y379269D01*
X748538Y376218D01*
X750063Y374693D01*
X751589Y374693D01*
X753114Y376218D01*
X754639Y374693D01*
X756165Y374693D01*
X753114Y376218D02*
X753114Y379269D01*
D13*
X804674Y376027D02*
X812300Y376027D01*
X814207Y377934D01*
X814207Y381747D01*
X812300Y383654D01*
X804674Y383654D01*
X802767Y381747D01*
X802767Y377934D01*
X804674Y376027D01*
X806580Y379840D02*
X802767Y383654D01*
X812300Y387721D02*
X814207Y389628D01*
X814207Y393441D01*
X812300Y395348D01*
X810394Y395348D01*
X808487Y393441D01*
X806580Y395348D01*
X804674Y395348D01*
X802767Y393441D01*
X802767Y389628D01*
X804674Y387721D01*
X806580Y387721D01*
X808487Y389628D01*
X810394Y387721D01*
X812300Y387721D01*
X808487Y389628D02*
X808487Y393441D01*
X790702Y559054D02*
X743458Y559054D01*
X790702Y559054D02*
X790702Y522986D01*
X743458Y522986D01*
X743458Y559054D01*
D16*
X745490Y553466D02*
X745492Y553585D01*
X745498Y553704D01*
X745508Y553822D01*
X745522Y553940D01*
X745540Y554057D01*
X745561Y554174D01*
X745587Y554290D01*
X745616Y554405D01*
X745650Y554520D01*
X745687Y554632D01*
X745728Y554744D01*
X745772Y554854D01*
X745820Y554963D01*
X745872Y555070D01*
X745928Y555175D01*
X745986Y555278D01*
X746049Y555379D01*
X746114Y555479D01*
X746183Y555575D01*
X746255Y555670D01*
X746330Y555762D01*
X746409Y555851D01*
X746490Y555938D01*
X746574Y556022D01*
X746661Y556103D01*
X746750Y556182D01*
X746842Y556257D01*
X746937Y556329D01*
X747033Y556398D01*
X747133Y556463D01*
X747234Y556526D01*
X747337Y556584D01*
X747442Y556640D01*
X747549Y556692D01*
X747658Y556740D01*
X747768Y556784D01*
X747880Y556825D01*
X747992Y556862D01*
X748107Y556896D01*
X748222Y556925D01*
X748338Y556951D01*
X748455Y556972D01*
X748572Y556990D01*
X748690Y557004D01*
X748808Y557014D01*
X748927Y557020D01*
X749046Y557022D01*
X749165Y557020D01*
X749284Y557014D01*
X749402Y557004D01*
X749520Y556990D01*
X749637Y556972D01*
X749754Y556951D01*
X749870Y556925D01*
X749985Y556896D01*
X750100Y556862D01*
X750212Y556825D01*
X750324Y556784D01*
X750434Y556740D01*
X750543Y556692D01*
X750650Y556640D01*
X750755Y556584D01*
X750858Y556526D01*
X750959Y556463D01*
X751059Y556398D01*
X751155Y556329D01*
X751250Y556257D01*
X751342Y556182D01*
X751431Y556103D01*
X751518Y556022D01*
X751602Y555938D01*
X751683Y555851D01*
X751762Y555762D01*
X751837Y555670D01*
X751909Y555575D01*
X751978Y555479D01*
X752043Y555379D01*
X752106Y555278D01*
X752164Y555175D01*
X752220Y555070D01*
X752272Y554963D01*
X752320Y554854D01*
X752364Y554744D01*
X752405Y554632D01*
X752442Y554520D01*
X752476Y554405D01*
X752505Y554290D01*
X752531Y554174D01*
X752552Y554057D01*
X752570Y553940D01*
X752584Y553822D01*
X752594Y553704D01*
X752600Y553585D01*
X752602Y553466D01*
X752600Y553347D01*
X752594Y553228D01*
X752584Y553110D01*
X752570Y552992D01*
X752552Y552875D01*
X752531Y552758D01*
X752505Y552642D01*
X752476Y552527D01*
X752442Y552412D01*
X752405Y552300D01*
X752364Y552188D01*
X752320Y552078D01*
X752272Y551969D01*
X752220Y551862D01*
X752164Y551757D01*
X752106Y551654D01*
X752043Y551553D01*
X751978Y551453D01*
X751909Y551357D01*
X751837Y551262D01*
X751762Y551170D01*
X751683Y551081D01*
X751602Y550994D01*
X751518Y550910D01*
X751431Y550829D01*
X751342Y550750D01*
X751250Y550675D01*
X751155Y550603D01*
X751059Y550534D01*
X750959Y550469D01*
X750858Y550406D01*
X750755Y550348D01*
X750650Y550292D01*
X750543Y550240D01*
X750434Y550192D01*
X750324Y550148D01*
X750212Y550107D01*
X750100Y550070D01*
X749985Y550036D01*
X749870Y550007D01*
X749754Y549981D01*
X749637Y549960D01*
X749520Y549942D01*
X749402Y549928D01*
X749284Y549918D01*
X749165Y549912D01*
X749046Y549910D01*
X748927Y549912D01*
X748808Y549918D01*
X748690Y549928D01*
X748572Y549942D01*
X748455Y549960D01*
X748338Y549981D01*
X748222Y550007D01*
X748107Y550036D01*
X747992Y550070D01*
X747880Y550107D01*
X747768Y550148D01*
X747658Y550192D01*
X747549Y550240D01*
X747442Y550292D01*
X747337Y550348D01*
X747234Y550406D01*
X747133Y550469D01*
X747033Y550534D01*
X746937Y550603D01*
X746842Y550675D01*
X746750Y550750D01*
X746661Y550829D01*
X746574Y550910D01*
X746490Y550994D01*
X746409Y551081D01*
X746330Y551170D01*
X746255Y551262D01*
X746183Y551357D01*
X746114Y551453D01*
X746049Y551553D01*
X745986Y551654D01*
X745928Y551757D01*
X745872Y551862D01*
X745820Y551969D01*
X745772Y552078D01*
X745728Y552188D01*
X745687Y552300D01*
X745650Y552412D01*
X745616Y552527D01*
X745587Y552642D01*
X745561Y552758D01*
X745540Y552875D01*
X745522Y552992D01*
X745508Y553110D01*
X745498Y553228D01*
X745492Y553347D01*
X745490Y553466D01*
D15*
X755150Y526078D02*
X753625Y524553D01*
X755150Y526078D02*
X755150Y529129D01*
X753625Y530654D01*
X752099Y530654D01*
X750574Y529129D01*
X749049Y530654D01*
X747523Y530654D01*
X745998Y529129D01*
X745998Y526078D01*
X747523Y524553D01*
X749049Y524553D01*
X750574Y526078D01*
X752099Y524553D01*
X753625Y524553D01*
X750574Y526078D02*
X750574Y529129D01*
D13*
X802134Y530967D02*
X809760Y530967D01*
X811667Y532874D01*
X811667Y536687D01*
X809760Y538594D01*
X802134Y538594D01*
X800227Y536687D01*
X800227Y532874D01*
X802134Y530967D01*
X804040Y534780D02*
X800227Y538594D01*
X802134Y542661D02*
X800227Y544568D01*
X800227Y548381D01*
X802134Y550288D01*
X809760Y550288D01*
X811667Y548381D01*
X811667Y544568D01*
X809760Y542661D01*
X807854Y542661D01*
X805947Y544568D01*
X805947Y550288D01*
X790702Y150114D02*
X743458Y150114D01*
X790702Y150114D02*
X790702Y114046D01*
X743458Y114046D01*
X743458Y150114D01*
D16*
X745490Y144526D02*
X745492Y144645D01*
X745498Y144764D01*
X745508Y144882D01*
X745522Y145000D01*
X745540Y145117D01*
X745561Y145234D01*
X745587Y145350D01*
X745616Y145465D01*
X745650Y145580D01*
X745687Y145692D01*
X745728Y145804D01*
X745772Y145914D01*
X745820Y146023D01*
X745872Y146130D01*
X745928Y146235D01*
X745986Y146338D01*
X746049Y146439D01*
X746114Y146539D01*
X746183Y146635D01*
X746255Y146730D01*
X746330Y146822D01*
X746409Y146911D01*
X746490Y146998D01*
X746574Y147082D01*
X746661Y147163D01*
X746750Y147242D01*
X746842Y147317D01*
X746937Y147389D01*
X747033Y147458D01*
X747133Y147523D01*
X747234Y147586D01*
X747337Y147644D01*
X747442Y147700D01*
X747549Y147752D01*
X747658Y147800D01*
X747768Y147844D01*
X747880Y147885D01*
X747992Y147922D01*
X748107Y147956D01*
X748222Y147985D01*
X748338Y148011D01*
X748455Y148032D01*
X748572Y148050D01*
X748690Y148064D01*
X748808Y148074D01*
X748927Y148080D01*
X749046Y148082D01*
X749165Y148080D01*
X749284Y148074D01*
X749402Y148064D01*
X749520Y148050D01*
X749637Y148032D01*
X749754Y148011D01*
X749870Y147985D01*
X749985Y147956D01*
X750100Y147922D01*
X750212Y147885D01*
X750324Y147844D01*
X750434Y147800D01*
X750543Y147752D01*
X750650Y147700D01*
X750755Y147644D01*
X750858Y147586D01*
X750959Y147523D01*
X751059Y147458D01*
X751155Y147389D01*
X751250Y147317D01*
X751342Y147242D01*
X751431Y147163D01*
X751518Y147082D01*
X751602Y146998D01*
X751683Y146911D01*
X751762Y146822D01*
X751837Y146730D01*
X751909Y146635D01*
X751978Y146539D01*
X752043Y146439D01*
X752106Y146338D01*
X752164Y146235D01*
X752220Y146130D01*
X752272Y146023D01*
X752320Y145914D01*
X752364Y145804D01*
X752405Y145692D01*
X752442Y145580D01*
X752476Y145465D01*
X752505Y145350D01*
X752531Y145234D01*
X752552Y145117D01*
X752570Y145000D01*
X752584Y144882D01*
X752594Y144764D01*
X752600Y144645D01*
X752602Y144526D01*
X752600Y144407D01*
X752594Y144288D01*
X752584Y144170D01*
X752570Y144052D01*
X752552Y143935D01*
X752531Y143818D01*
X752505Y143702D01*
X752476Y143587D01*
X752442Y143472D01*
X752405Y143360D01*
X752364Y143248D01*
X752320Y143138D01*
X752272Y143029D01*
X752220Y142922D01*
X752164Y142817D01*
X752106Y142714D01*
X752043Y142613D01*
X751978Y142513D01*
X751909Y142417D01*
X751837Y142322D01*
X751762Y142230D01*
X751683Y142141D01*
X751602Y142054D01*
X751518Y141970D01*
X751431Y141889D01*
X751342Y141810D01*
X751250Y141735D01*
X751155Y141663D01*
X751059Y141594D01*
X750959Y141529D01*
X750858Y141466D01*
X750755Y141408D01*
X750650Y141352D01*
X750543Y141300D01*
X750434Y141252D01*
X750324Y141208D01*
X750212Y141167D01*
X750100Y141130D01*
X749985Y141096D01*
X749870Y141067D01*
X749754Y141041D01*
X749637Y141020D01*
X749520Y141002D01*
X749402Y140988D01*
X749284Y140978D01*
X749165Y140972D01*
X749046Y140970D01*
X748927Y140972D01*
X748808Y140978D01*
X748690Y140988D01*
X748572Y141002D01*
X748455Y141020D01*
X748338Y141041D01*
X748222Y141067D01*
X748107Y141096D01*
X747992Y141130D01*
X747880Y141167D01*
X747768Y141208D01*
X747658Y141252D01*
X747549Y141300D01*
X747442Y141352D01*
X747337Y141408D01*
X747234Y141466D01*
X747133Y141529D01*
X747033Y141594D01*
X746937Y141663D01*
X746842Y141735D01*
X746750Y141810D01*
X746661Y141889D01*
X746574Y141970D01*
X746490Y142054D01*
X746409Y142141D01*
X746330Y142230D01*
X746255Y142322D01*
X746183Y142417D01*
X746114Y142513D01*
X746049Y142613D01*
X745986Y142714D01*
X745928Y142817D01*
X745872Y142922D01*
X745820Y143029D01*
X745772Y143138D01*
X745728Y143248D01*
X745687Y143360D01*
X745650Y143472D01*
X745616Y143587D01*
X745587Y143702D01*
X745561Y143818D01*
X745540Y143935D01*
X745522Y144052D01*
X745508Y144170D01*
X745498Y144288D01*
X745492Y144407D01*
X745490Y144526D01*
D15*
X755150Y117138D02*
X753625Y115613D01*
X755150Y117138D02*
X755150Y120189D01*
X753625Y121714D01*
X752099Y121714D01*
X750574Y120189D01*
X749049Y121714D01*
X747523Y121714D01*
X745998Y120189D01*
X745998Y117138D01*
X747523Y115613D01*
X749049Y115613D01*
X750574Y117138D01*
X752099Y115613D01*
X753625Y115613D01*
X750574Y117138D02*
X750574Y120189D01*
D13*
X802134Y116947D02*
X809760Y116947D01*
X811667Y118854D01*
X811667Y122667D01*
X809760Y124574D01*
X802134Y124574D01*
X800227Y122667D01*
X800227Y118854D01*
X802134Y116947D01*
X804040Y120760D02*
X800227Y124574D01*
X809760Y132454D02*
X811667Y136268D01*
X809760Y132454D02*
X805947Y128641D01*
X802134Y128641D01*
X800227Y130548D01*
X800227Y134361D01*
X802134Y136268D01*
X804040Y136268D01*
X805947Y134361D01*
X805947Y128641D01*
D11*
X722122Y327152D02*
X705358Y327152D01*
X705358Y302768D02*
X722122Y302768D01*
D10*
X703544Y303190D02*
X695579Y295224D01*
X703544Y295224D02*
X695579Y303190D01*
X695579Y299207D02*
X703544Y299207D01*
X699562Y303190D02*
X699562Y295224D01*
X723265Y333842D02*
X723265Y343799D01*
X723265Y333842D02*
X721274Y331851D01*
X717291Y331851D01*
X715300Y333842D01*
X715300Y343799D01*
X711571Y341808D02*
X709580Y343799D01*
X705597Y343799D01*
X703606Y341808D01*
X703606Y339816D01*
X705597Y337825D01*
X703606Y335834D01*
X703606Y333842D01*
X705597Y331851D01*
X709580Y331851D01*
X711571Y333842D01*
X711571Y335834D01*
X709580Y337825D01*
X711571Y339816D01*
X711571Y341808D01*
X709580Y337825D02*
X705597Y337825D01*
D11*
X777544Y336302D02*
X777544Y329692D01*
X777544Y336302D02*
X774239Y336302D01*
X773138Y335200D01*
X773138Y332997D01*
X774239Y331895D01*
X777544Y331895D01*
X775341Y331895D02*
X773138Y329692D01*
X766755Y329692D02*
X766755Y336302D01*
X770060Y332997D01*
X765654Y332997D01*
X760373Y335200D02*
X758170Y336302D01*
X760373Y335200D02*
X762576Y332997D01*
X762576Y330794D01*
X761474Y329692D01*
X759271Y329692D01*
X758170Y330794D01*
X758170Y331895D01*
X759271Y332997D01*
X762576Y332997D01*
X777544Y471932D02*
X777544Y478542D01*
X774239Y478542D01*
X773138Y477440D01*
X773138Y475237D01*
X774239Y474135D01*
X777544Y474135D01*
X775341Y474135D02*
X773138Y471932D01*
X766755Y471932D02*
X766755Y478542D01*
X770060Y475237D01*
X765654Y475237D01*
X762576Y478542D02*
X758170Y478542D01*
X758170Y477440D01*
X762576Y473034D01*
X762576Y471932D01*
X785164Y588772D02*
X785164Y595382D01*
X781859Y595382D01*
X780758Y594280D01*
X780758Y592077D01*
X781859Y590975D01*
X785164Y590975D01*
X782961Y590975D02*
X780758Y588772D01*
X774375Y588772D02*
X774375Y595382D01*
X777680Y592077D01*
X773274Y592077D01*
X770196Y589874D02*
X769094Y588772D01*
X766891Y588772D01*
X765790Y589874D01*
X765790Y594280D01*
X766891Y595382D01*
X769094Y595382D01*
X770196Y594280D01*
X770196Y593178D01*
X769094Y592077D01*
X765790Y592077D01*
X703708Y477727D02*
X702607Y476626D01*
X703708Y477727D02*
X705911Y477727D01*
X707013Y476626D01*
X707013Y472219D01*
X705911Y471117D01*
X703708Y471117D01*
X702607Y472219D01*
X699529Y476626D02*
X698427Y477727D01*
X696224Y477727D01*
X695122Y476626D01*
X695122Y475524D01*
X696224Y474422D01*
X697326Y474422D01*
X696224Y474422D02*
X695122Y473321D01*
X695122Y472219D01*
X696224Y471117D01*
X698427Y471117D01*
X699529Y472219D01*
X692045Y477727D02*
X687638Y477727D01*
X692045Y477727D02*
X692045Y474422D01*
X689841Y475524D01*
X688740Y475524D01*
X687638Y474422D01*
X687638Y472219D01*
X688740Y471117D01*
X690943Y471117D01*
X692045Y472219D01*
X700287Y617471D02*
X701388Y618573D01*
X703592Y618573D01*
X704693Y617471D01*
X704693Y613064D01*
X703592Y611963D01*
X701388Y611963D01*
X700287Y613064D01*
X697209Y617471D02*
X696107Y618573D01*
X693904Y618573D01*
X692803Y617471D01*
X692803Y616369D01*
X693904Y615268D01*
X695006Y615268D01*
X693904Y615268D02*
X692803Y614166D01*
X692803Y613064D01*
X693904Y611963D01*
X696107Y611963D01*
X697209Y613064D01*
X686420Y611963D02*
X686420Y618573D01*
X689725Y615268D01*
X685318Y615268D01*
X691070Y341076D02*
X689968Y339974D01*
X691070Y341076D02*
X693273Y341076D01*
X694375Y339974D01*
X694375Y335568D01*
X693273Y334466D01*
X691070Y334466D01*
X689968Y335568D01*
X686890Y339974D02*
X685789Y341076D01*
X683586Y341076D01*
X682484Y339974D01*
X682484Y338873D01*
X683586Y337771D01*
X684687Y337771D01*
X683586Y337771D02*
X682484Y336670D01*
X682484Y335568D01*
X683586Y334466D01*
X685789Y334466D01*
X686890Y335568D01*
X679406Y339974D02*
X678305Y341076D01*
X676102Y341076D01*
X675000Y339974D01*
X675000Y338873D01*
X676102Y337771D01*
X677203Y337771D01*
X676102Y337771D02*
X675000Y336670D01*
X675000Y335568D01*
X676102Y334466D01*
X678305Y334466D01*
X679406Y335568D01*
D13*
X675212Y618284D02*
X676356Y619428D01*
X678644Y619428D01*
X679788Y618284D01*
X679788Y613708D01*
X678644Y612564D01*
X676356Y612564D01*
X675212Y613708D01*
X672304Y618284D02*
X671160Y619428D01*
X668872Y619428D01*
X667728Y618284D01*
X667728Y617140D01*
X668872Y615996D01*
X670016Y615996D01*
X668872Y615996D02*
X667728Y614852D01*
X667728Y613708D01*
X668872Y612564D01*
X671160Y612564D01*
X672304Y613708D01*
X664820Y612564D02*
X660244Y612564D01*
X664820Y612564D02*
X660244Y617140D01*
X660244Y618284D01*
X661388Y619428D01*
X663676Y619428D01*
X664820Y618284D01*
X675685Y478262D02*
X674541Y477118D01*
X675685Y478262D02*
X677973Y478262D01*
X679117Y477118D01*
X679117Y472542D01*
X677973Y471398D01*
X675685Y471398D01*
X674541Y472542D01*
X671633Y477118D02*
X670489Y478262D01*
X668201Y478262D01*
X667057Y477118D01*
X667057Y475974D01*
X668201Y474830D01*
X669345Y474830D01*
X668201Y474830D02*
X667057Y473686D01*
X667057Y472542D01*
X668201Y471398D01*
X670489Y471398D01*
X671633Y472542D01*
X664149Y475974D02*
X661861Y478262D01*
X661861Y471398D01*
X664149Y471398D02*
X659573Y471398D01*
D11*
X662479Y341382D02*
X661378Y340280D01*
X662479Y341382D02*
X664683Y341382D01*
X665784Y340280D01*
X665784Y335874D01*
X664683Y334772D01*
X662479Y334772D01*
X661378Y335874D01*
X658300Y340280D02*
X657198Y341382D01*
X654995Y341382D01*
X653894Y340280D01*
X653894Y339178D01*
X654995Y338077D01*
X656097Y338077D01*
X654995Y338077D02*
X653894Y336975D01*
X653894Y335874D01*
X654995Y334772D01*
X657198Y334772D01*
X658300Y335874D01*
X650816Y335874D02*
X650816Y340280D01*
X649714Y341382D01*
X647511Y341382D01*
X646410Y340280D01*
X646410Y335874D01*
X647511Y334772D01*
X649714Y334772D01*
X650816Y335874D01*
X646410Y340280D01*
X219202Y454660D02*
X209804Y454660D01*
X207264Y454660D01*
X209804Y454660D02*
X209804Y448310D01*
X209804Y454660D02*
X209804Y461010D01*
X209804Y454660D02*
X217424Y448310D01*
X217424Y449580D02*
X209804Y454660D01*
X217424Y450850D01*
X217424Y452120D02*
X209804Y454660D01*
X217424Y453390D01*
X217424Y461010D02*
X209804Y454660D01*
X217424Y459740D01*
X217424Y458470D02*
X209804Y454660D01*
X217424Y457200D01*
X217424Y455930D02*
X209804Y454660D01*
X217424Y448310D02*
X217424Y461010D01*
X223774Y469900D02*
X279146Y469900D01*
X279146Y466344D01*
X279146Y439420D02*
X223774Y439420D01*
X223774Y442976D01*
X223774Y466344D02*
X223774Y469900D01*
X279146Y442976D02*
X279146Y439420D01*
D10*
X194132Y463840D02*
X192141Y465831D01*
X192141Y469814D01*
X194132Y471805D01*
X202098Y471805D01*
X204089Y469814D01*
X204089Y465831D01*
X202098Y463840D01*
X204089Y460111D02*
X192141Y460111D01*
X192141Y454137D01*
X194132Y452146D01*
X198115Y452146D01*
X200106Y454137D01*
X200106Y460111D01*
X200106Y456128D02*
X204089Y452146D01*
X196124Y448417D02*
X192141Y444434D01*
X204089Y444434D01*
X204089Y440452D02*
X204089Y448417D01*
D15*
X331781Y319040D02*
X331783Y319156D01*
X331789Y319271D01*
X331799Y319386D01*
X331813Y319501D01*
X331831Y319615D01*
X331853Y319729D01*
X331878Y319841D01*
X331908Y319953D01*
X331941Y320064D01*
X331979Y320173D01*
X332020Y320281D01*
X332064Y320388D01*
X332113Y320493D01*
X332165Y320596D01*
X332220Y320698D01*
X332279Y320797D01*
X332341Y320895D01*
X332407Y320990D01*
X332476Y321083D01*
X332548Y321173D01*
X332623Y321261D01*
X332701Y321346D01*
X332782Y321428D01*
X332866Y321508D01*
X332953Y321585D01*
X333042Y321658D01*
X333134Y321729D01*
X333228Y321796D01*
X333324Y321860D01*
X333422Y321921D01*
X333523Y321978D01*
X333625Y322032D01*
X333729Y322082D01*
X333835Y322129D01*
X333942Y322171D01*
X334051Y322210D01*
X334161Y322246D01*
X334273Y322277D01*
X334385Y322305D01*
X334498Y322329D01*
X334612Y322349D01*
X334726Y322365D01*
X334841Y322377D01*
X334957Y322385D01*
X335072Y322389D01*
X335188Y322389D01*
X335303Y322385D01*
X335419Y322377D01*
X335534Y322365D01*
X335648Y322349D01*
X335762Y322329D01*
X335875Y322305D01*
X335987Y322277D01*
X336099Y322246D01*
X336209Y322210D01*
X336318Y322171D01*
X336425Y322129D01*
X336531Y322082D01*
X336635Y322032D01*
X336737Y321978D01*
X336838Y321921D01*
X336936Y321860D01*
X337032Y321796D01*
X337126Y321729D01*
X337218Y321658D01*
X337307Y321585D01*
X337394Y321508D01*
X337478Y321428D01*
X337559Y321346D01*
X337637Y321261D01*
X337712Y321173D01*
X337784Y321083D01*
X337853Y320990D01*
X337919Y320895D01*
X337981Y320797D01*
X338040Y320698D01*
X338095Y320596D01*
X338147Y320493D01*
X338196Y320388D01*
X338240Y320281D01*
X338281Y320173D01*
X338319Y320064D01*
X338352Y319953D01*
X338382Y319841D01*
X338407Y319729D01*
X338429Y319615D01*
X338447Y319501D01*
X338461Y319386D01*
X338471Y319271D01*
X338477Y319156D01*
X338479Y319040D01*
X338477Y318924D01*
X338471Y318809D01*
X338461Y318694D01*
X338447Y318579D01*
X338429Y318465D01*
X338407Y318351D01*
X338382Y318239D01*
X338352Y318127D01*
X338319Y318016D01*
X338281Y317907D01*
X338240Y317799D01*
X338196Y317692D01*
X338147Y317587D01*
X338095Y317484D01*
X338040Y317382D01*
X337981Y317283D01*
X337919Y317185D01*
X337853Y317090D01*
X337784Y316997D01*
X337712Y316907D01*
X337637Y316819D01*
X337559Y316734D01*
X337478Y316652D01*
X337394Y316572D01*
X337307Y316495D01*
X337218Y316422D01*
X337126Y316351D01*
X337032Y316284D01*
X336936Y316220D01*
X336838Y316159D01*
X336737Y316102D01*
X336635Y316048D01*
X336531Y315998D01*
X336425Y315951D01*
X336318Y315909D01*
X336209Y315870D01*
X336099Y315834D01*
X335987Y315803D01*
X335875Y315775D01*
X335762Y315751D01*
X335648Y315731D01*
X335534Y315715D01*
X335419Y315703D01*
X335303Y315695D01*
X335188Y315691D01*
X335072Y315691D01*
X334957Y315695D01*
X334841Y315703D01*
X334726Y315715D01*
X334612Y315731D01*
X334498Y315751D01*
X334385Y315775D01*
X334273Y315803D01*
X334161Y315834D01*
X334051Y315870D01*
X333942Y315909D01*
X333835Y315951D01*
X333729Y315998D01*
X333625Y316048D01*
X333523Y316102D01*
X333422Y316159D01*
X333324Y316220D01*
X333228Y316284D01*
X333134Y316351D01*
X333042Y316422D01*
X332953Y316495D01*
X332866Y316572D01*
X332782Y316652D01*
X332701Y316734D01*
X332623Y316819D01*
X332548Y316907D01*
X332476Y316997D01*
X332407Y317090D01*
X332341Y317185D01*
X332279Y317283D01*
X332220Y317382D01*
X332165Y317484D01*
X332113Y317587D01*
X332064Y317692D01*
X332020Y317799D01*
X331979Y317907D01*
X331941Y318016D01*
X331908Y318127D01*
X331878Y318239D01*
X331853Y318351D01*
X331831Y318465D01*
X331813Y318579D01*
X331799Y318694D01*
X331789Y318809D01*
X331783Y318924D01*
X331781Y319040D01*
D12*
X327131Y334264D02*
X368829Y334264D01*
X368829Y310896D01*
X327131Y310896D01*
X327131Y334264D01*
D10*
X346057Y340192D02*
X346057Y346335D01*
X346057Y340192D02*
X344829Y338963D01*
X342371Y338963D01*
X341142Y340192D01*
X341142Y346335D01*
X338573Y345107D02*
X337344Y346335D01*
X334887Y346335D01*
X333658Y345107D01*
X333658Y343878D01*
X334887Y342649D01*
X336116Y342649D01*
X334887Y342649D02*
X333658Y341420D01*
X333658Y340192D01*
X334887Y338963D01*
X337344Y338963D01*
X338573Y340192D01*
D11*
X715518Y466852D02*
X732282Y466852D01*
X732282Y442468D02*
X715518Y442468D01*
D10*
X713704Y442890D02*
X705739Y434924D01*
X713704Y434924D02*
X705739Y442890D01*
X705739Y438907D02*
X713704Y438907D01*
X709722Y442890D02*
X709722Y434924D01*
X733425Y471002D02*
X733425Y480959D01*
X733425Y471002D02*
X731434Y469011D01*
X727451Y469011D01*
X725460Y471002D01*
X725460Y480959D01*
X721731Y471002D02*
X719740Y469011D01*
X715757Y469011D01*
X713766Y471002D01*
X713766Y478968D01*
X715757Y480959D01*
X719740Y480959D01*
X721731Y478968D01*
X721731Y476976D01*
X719740Y474985D01*
X713766Y474985D01*
D11*
X712978Y611632D02*
X729742Y611632D01*
X729742Y587248D02*
X712978Y587248D01*
D10*
X711164Y587670D02*
X703199Y579704D01*
X711164Y579704D02*
X703199Y587670D01*
X703199Y583687D02*
X711164Y583687D01*
X707182Y587670D02*
X707182Y579704D01*
X738505Y615782D02*
X738505Y625739D01*
X738505Y615782D02*
X736514Y613791D01*
X732531Y613791D01*
X730540Y615782D01*
X730540Y625739D01*
X726811Y621756D02*
X722828Y625739D01*
X722828Y613791D01*
X718846Y613791D02*
X726811Y613791D01*
X715117Y615782D02*
X715117Y623748D01*
X713126Y625739D01*
X709143Y625739D01*
X707152Y623748D01*
X707152Y615782D01*
X709143Y613791D01*
X713126Y613791D01*
X715117Y615782D01*
X707152Y623748D01*
D12*
X685500Y68580D02*
X660400Y68580D01*
X647700Y58580D02*
X647700Y27780D01*
X660700Y17780D02*
X685500Y17780D01*
X698500Y27780D02*
X698500Y58580D01*
X660400Y43180D02*
X660404Y43492D01*
X660415Y43803D01*
X660434Y44114D01*
X660461Y44425D01*
X660496Y44735D01*
X660537Y45043D01*
X660587Y45351D01*
X660644Y45658D01*
X660709Y45963D01*
X660781Y46266D01*
X660860Y46567D01*
X660947Y46867D01*
X661041Y47164D01*
X661142Y47459D01*
X661251Y47751D01*
X661367Y48040D01*
X661490Y48327D01*
X661619Y48610D01*
X661756Y48890D01*
X661900Y49167D01*
X662050Y49440D01*
X662207Y49709D01*
X662370Y49974D01*
X662540Y50236D01*
X662717Y50493D01*
X662899Y50745D01*
X663088Y50993D01*
X663283Y51237D01*
X663483Y51475D01*
X663690Y51709D01*
X663902Y51937D01*
X664120Y52160D01*
X664343Y52378D01*
X664571Y52590D01*
X664805Y52797D01*
X665043Y52997D01*
X665287Y53192D01*
X665535Y53381D01*
X665787Y53563D01*
X666044Y53740D01*
X666306Y53910D01*
X666571Y54073D01*
X666840Y54230D01*
X667113Y54380D01*
X667390Y54524D01*
X667670Y54661D01*
X667953Y54790D01*
X668240Y54913D01*
X668529Y55029D01*
X668821Y55138D01*
X669116Y55239D01*
X669413Y55333D01*
X669713Y55420D01*
X670014Y55499D01*
X670317Y55571D01*
X670622Y55636D01*
X670929Y55693D01*
X671237Y55743D01*
X671545Y55784D01*
X671855Y55819D01*
X672166Y55846D01*
X672477Y55865D01*
X672788Y55876D01*
X673100Y55880D01*
X673412Y55876D01*
X673723Y55865D01*
X674034Y55846D01*
X674345Y55819D01*
X674655Y55784D01*
X674963Y55743D01*
X675271Y55693D01*
X675578Y55636D01*
X675883Y55571D01*
X676186Y55499D01*
X676487Y55420D01*
X676787Y55333D01*
X677084Y55239D01*
X677379Y55138D01*
X677671Y55029D01*
X677960Y54913D01*
X678247Y54790D01*
X678530Y54661D01*
X678810Y54524D01*
X679087Y54380D01*
X679360Y54230D01*
X679629Y54073D01*
X679894Y53910D01*
X680156Y53740D01*
X680413Y53563D01*
X680665Y53381D01*
X680913Y53192D01*
X681157Y52997D01*
X681395Y52797D01*
X681629Y52590D01*
X681857Y52378D01*
X682080Y52160D01*
X682298Y51937D01*
X682510Y51709D01*
X682717Y51475D01*
X682917Y51237D01*
X683112Y50993D01*
X683301Y50745D01*
X683483Y50493D01*
X683660Y50236D01*
X683830Y49974D01*
X683993Y49709D01*
X684150Y49440D01*
X684300Y49167D01*
X684444Y48890D01*
X684581Y48610D01*
X684710Y48327D01*
X684833Y48040D01*
X684949Y47751D01*
X685058Y47459D01*
X685159Y47164D01*
X685253Y46867D01*
X685340Y46567D01*
X685419Y46266D01*
X685491Y45963D01*
X685556Y45658D01*
X685613Y45351D01*
X685663Y45043D01*
X685704Y44735D01*
X685739Y44425D01*
X685766Y44114D01*
X685785Y43803D01*
X685796Y43492D01*
X685800Y43180D01*
X685796Y42868D01*
X685785Y42557D01*
X685766Y42246D01*
X685739Y41935D01*
X685704Y41625D01*
X685663Y41317D01*
X685613Y41009D01*
X685556Y40702D01*
X685491Y40397D01*
X685419Y40094D01*
X685340Y39793D01*
X685253Y39493D01*
X685159Y39196D01*
X685058Y38901D01*
X684949Y38609D01*
X684833Y38320D01*
X684710Y38033D01*
X684581Y37750D01*
X684444Y37470D01*
X684300Y37193D01*
X684150Y36920D01*
X683993Y36651D01*
X683830Y36386D01*
X683660Y36124D01*
X683483Y35867D01*
X683301Y35615D01*
X683112Y35367D01*
X682917Y35123D01*
X682717Y34885D01*
X682510Y34651D01*
X682298Y34423D01*
X682080Y34200D01*
X681857Y33982D01*
X681629Y33770D01*
X681395Y33563D01*
X681157Y33363D01*
X680913Y33168D01*
X680665Y32979D01*
X680413Y32797D01*
X680156Y32620D01*
X679894Y32450D01*
X679629Y32287D01*
X679360Y32130D01*
X679087Y31980D01*
X678810Y31836D01*
X678530Y31699D01*
X678247Y31570D01*
X677960Y31447D01*
X677671Y31331D01*
X677379Y31222D01*
X677084Y31121D01*
X676787Y31027D01*
X676487Y30940D01*
X676186Y30861D01*
X675883Y30789D01*
X675578Y30724D01*
X675271Y30667D01*
X674963Y30617D01*
X674655Y30576D01*
X674345Y30541D01*
X674034Y30514D01*
X673723Y30495D01*
X673412Y30484D01*
X673100Y30480D01*
X672788Y30484D01*
X672477Y30495D01*
X672166Y30514D01*
X671855Y30541D01*
X671545Y30576D01*
X671237Y30617D01*
X670929Y30667D01*
X670622Y30724D01*
X670317Y30789D01*
X670014Y30861D01*
X669713Y30940D01*
X669413Y31027D01*
X669116Y31121D01*
X668821Y31222D01*
X668529Y31331D01*
X668240Y31447D01*
X667953Y31570D01*
X667670Y31699D01*
X667390Y31836D01*
X667113Y31980D01*
X666840Y32130D01*
X666571Y32287D01*
X666306Y32450D01*
X666044Y32620D01*
X665787Y32797D01*
X665535Y32979D01*
X665287Y33168D01*
X665043Y33363D01*
X664805Y33563D01*
X664571Y33770D01*
X664343Y33982D01*
X664120Y34200D01*
X663902Y34423D01*
X663690Y34651D01*
X663483Y34885D01*
X663283Y35123D01*
X663088Y35367D01*
X662899Y35615D01*
X662717Y35867D01*
X662540Y36124D01*
X662370Y36386D01*
X662207Y36651D01*
X662050Y36920D01*
X661900Y37193D01*
X661756Y37470D01*
X661619Y37750D01*
X661490Y38033D01*
X661367Y38320D01*
X661251Y38609D01*
X661142Y38901D01*
X661041Y39196D01*
X660947Y39493D01*
X660860Y39793D01*
X660781Y40094D01*
X660709Y40397D01*
X660644Y40702D01*
X660587Y41009D01*
X660537Y41317D01*
X660496Y41625D01*
X660461Y41935D01*
X660434Y42246D01*
X660415Y42557D01*
X660404Y42868D01*
X660400Y43180D01*
D13*
X645799Y37810D02*
X644994Y38615D01*
X645799Y37810D02*
X645799Y36200D01*
X644994Y35395D01*
X644189Y35395D01*
X643384Y36200D01*
X643384Y37810D01*
X642579Y38615D01*
X641774Y38615D01*
X640969Y37810D01*
X640969Y36200D01*
X641774Y35395D01*
X640969Y41008D02*
X645799Y41008D01*
X642579Y42618D02*
X640969Y41008D01*
X642579Y42618D02*
X640969Y44228D01*
X645799Y44228D01*
X640969Y46622D02*
X640969Y49842D01*
X640969Y46622D02*
X644189Y49842D01*
X644994Y49842D01*
X645799Y49037D01*
X645799Y47427D01*
X644994Y46622D01*
D11*
X569264Y527304D02*
X569264Y533914D01*
X565959Y533914D01*
X564858Y532812D01*
X564858Y530609D01*
X565959Y529507D01*
X569264Y529507D01*
X567061Y529507D02*
X564858Y527304D01*
X559577Y532812D02*
X557374Y533914D01*
X559577Y532812D02*
X561780Y530609D01*
X561780Y528406D01*
X560679Y527304D01*
X558475Y527304D01*
X557374Y528406D01*
X557374Y529507D01*
X558475Y530609D01*
X561780Y530609D01*
X554296Y532812D02*
X553194Y533914D01*
X550991Y533914D01*
X549890Y532812D01*
X549890Y531710D01*
X550991Y530609D01*
X552093Y530609D01*
X550991Y530609D02*
X549890Y529507D01*
X549890Y528406D01*
X550991Y527304D01*
X553194Y527304D01*
X554296Y528406D01*
D12*
X615475Y25213D02*
X629125Y25213D01*
X622300Y25400D02*
X617538Y30163D01*
X622300Y25400D02*
X627063Y30163D01*
X629125Y11243D02*
X615475Y11243D01*
D13*
X612779Y14542D02*
X607949Y14542D01*
X607949Y17762D01*
X612779Y20155D02*
X612779Y23375D01*
X612779Y20155D02*
X607949Y20155D01*
X607949Y23375D01*
X610364Y21765D02*
X610364Y20155D01*
X612779Y25768D02*
X607949Y25768D01*
X607949Y28183D01*
X608754Y28988D01*
X611974Y28988D01*
X612779Y28183D01*
X612779Y25768D01*
X611169Y31382D02*
X612779Y32992D01*
X607949Y32992D01*
X607949Y31382D02*
X607949Y34602D01*
X612779Y36995D02*
X612779Y40215D01*
X611974Y40215D01*
X608754Y36995D01*
X607949Y36995D01*
D12*
X504665Y25213D02*
X491015Y25213D01*
X493078Y30163D02*
X497840Y25400D01*
X502603Y30163D01*
X504665Y11243D02*
X491015Y11243D01*
D13*
X488319Y14542D02*
X483489Y14542D01*
X483489Y17762D01*
X488319Y20155D02*
X488319Y23375D01*
X488319Y20155D02*
X483489Y20155D01*
X483489Y23375D01*
X485904Y21765D02*
X485904Y20155D01*
X488319Y25768D02*
X483489Y25768D01*
X483489Y28183D01*
X484294Y28988D01*
X487514Y28988D01*
X488319Y28183D01*
X488319Y25768D01*
X486709Y31382D02*
X488319Y32992D01*
X483489Y32992D01*
X483489Y31382D02*
X483489Y34602D01*
X484294Y36995D02*
X487514Y36995D01*
X488319Y37800D01*
X488319Y39410D01*
X487514Y40215D01*
X484294Y40215D01*
X483489Y39410D01*
X483489Y37800D01*
X484294Y36995D01*
X487514Y40215D01*
M02*
