G04 EAGLE Gerber RS-274X export*
G75*
%MOMM*%
%FSLAX34Y34*%
%LPD*%
%INPlane 15*%
%IPPOS*%
%AMOC8*
5,1,8,0,0,1.08239X$1,22.5*%
G01*
%ADD10C,0.000000*%
%ADD11C,7.620000*%
%ADD12C,3.816000*%
%ADD13C,2.400000*%
%ADD14C,1.524000*%
%ADD15C,1.358000*%
%ADD16C,1.108000*%
%ADD17C,1.200000*%
%ADD18C,0.900000*%
%ADD19C,0.553200*%
%ADD20C,1.500000*%
%ADD21C,1.125000*%
%ADD22C,2.400300*%
%ADD23C,1.275000*%

G36*
X807838Y3064D02*
X807838Y3064D01*
X807957Y3071D01*
X807995Y3084D01*
X808036Y3089D01*
X808146Y3132D01*
X808259Y3169D01*
X808294Y3191D01*
X808331Y3206D01*
X808427Y3275D01*
X808528Y3339D01*
X808556Y3369D01*
X808589Y3392D01*
X808665Y3484D01*
X808746Y3571D01*
X808766Y3606D01*
X808791Y3637D01*
X808842Y3745D01*
X808900Y3849D01*
X808910Y3889D01*
X808927Y3925D01*
X808949Y4042D01*
X808979Y4157D01*
X808983Y4217D01*
X808987Y4237D01*
X808985Y4258D01*
X808989Y4318D01*
X808989Y69584D01*
X808983Y69634D01*
X808985Y69683D01*
X808963Y69791D01*
X808949Y69900D01*
X808931Y69946D01*
X808921Y69995D01*
X808873Y70094D01*
X808832Y70196D01*
X808803Y70236D01*
X808781Y70281D01*
X808710Y70364D01*
X808646Y70453D01*
X808607Y70485D01*
X808575Y70523D01*
X808485Y70586D01*
X808401Y70656D01*
X808356Y70677D01*
X808315Y70706D01*
X808212Y70745D01*
X808113Y70791D01*
X808064Y70801D01*
X808018Y70818D01*
X807908Y70831D01*
X807801Y70851D01*
X807751Y70848D01*
X807702Y70854D01*
X807593Y70838D01*
X807483Y70831D01*
X807436Y70816D01*
X807387Y70809D01*
X807234Y70757D01*
X806337Y70385D01*
X804023Y70385D01*
X801886Y71270D01*
X800250Y72906D01*
X799365Y75043D01*
X799365Y77357D01*
X800250Y79494D01*
X801886Y81130D01*
X804023Y82015D01*
X806337Y82015D01*
X807234Y81643D01*
X807282Y81630D01*
X807327Y81609D01*
X807435Y81588D01*
X807541Y81559D01*
X807591Y81558D01*
X807640Y81549D01*
X807749Y81556D01*
X807859Y81554D01*
X807907Y81566D01*
X807957Y81569D01*
X808061Y81602D01*
X808168Y81628D01*
X808212Y81651D01*
X808259Y81667D01*
X808352Y81725D01*
X808449Y81777D01*
X808486Y81810D01*
X808528Y81837D01*
X808603Y81917D01*
X808685Y81991D01*
X808712Y82032D01*
X808746Y82068D01*
X808799Y82165D01*
X808859Y82256D01*
X808876Y82303D01*
X808900Y82347D01*
X808927Y82453D01*
X808963Y82557D01*
X808967Y82607D01*
X808979Y82655D01*
X808989Y82816D01*
X808989Y124460D01*
X808974Y124578D01*
X808967Y124697D01*
X808954Y124735D01*
X808949Y124776D01*
X808906Y124886D01*
X808869Y124999D01*
X808847Y125034D01*
X808832Y125071D01*
X808763Y125167D01*
X808699Y125268D01*
X808669Y125296D01*
X808646Y125329D01*
X808554Y125405D01*
X808467Y125486D01*
X808432Y125506D01*
X808401Y125531D01*
X808293Y125582D01*
X808189Y125640D01*
X808149Y125650D01*
X808113Y125667D01*
X807996Y125689D01*
X807881Y125719D01*
X807821Y125723D01*
X807801Y125727D01*
X807780Y125725D01*
X807720Y125729D01*
X712462Y125729D01*
X711589Y281208D01*
X711571Y281342D01*
X711558Y281478D01*
X711550Y281500D01*
X711547Y281524D01*
X711497Y281649D01*
X711451Y281777D01*
X711437Y281797D01*
X711428Y281819D01*
X711348Y281928D01*
X711272Y282040D01*
X711254Y282056D01*
X711240Y282075D01*
X711135Y282161D01*
X711034Y282250D01*
X711012Y282261D01*
X710994Y282276D01*
X710871Y282333D01*
X710750Y282395D01*
X710727Y282400D01*
X710705Y282410D01*
X710572Y282435D01*
X710440Y282465D01*
X710416Y282464D01*
X710393Y282468D01*
X710257Y282459D01*
X710122Y282455D01*
X710099Y282448D01*
X710076Y282447D01*
X709947Y282404D01*
X709817Y282367D01*
X709796Y282355D01*
X709774Y282347D01*
X709659Y282274D01*
X709543Y282205D01*
X709518Y282183D01*
X709506Y282175D01*
X709491Y282160D01*
X709422Y282099D01*
X709414Y282090D01*
X707277Y281205D01*
X704963Y281205D01*
X702826Y282090D01*
X701190Y283726D01*
X700305Y285863D01*
X700305Y288177D01*
X701190Y290314D01*
X702826Y291950D01*
X704963Y292835D01*
X707277Y292835D01*
X709449Y291935D01*
X709469Y291920D01*
X709579Y291829D01*
X709594Y291822D01*
X709607Y291812D01*
X709738Y291756D01*
X709868Y291695D01*
X709884Y291692D01*
X709899Y291686D01*
X710040Y291664D01*
X710180Y291637D01*
X710197Y291639D01*
X710213Y291636D01*
X710355Y291649D01*
X710498Y291659D01*
X710513Y291664D01*
X710530Y291666D01*
X710664Y291714D01*
X710800Y291759D01*
X710814Y291768D01*
X710829Y291773D01*
X710947Y291853D01*
X711067Y291930D01*
X711079Y291943D01*
X711092Y291952D01*
X711187Y292059D01*
X711284Y292163D01*
X711292Y292178D01*
X711303Y292190D01*
X711368Y292317D01*
X711436Y292443D01*
X711440Y292459D01*
X711447Y292473D01*
X711479Y292613D01*
X711514Y292751D01*
X711515Y292774D01*
X711517Y292784D01*
X711517Y292803D01*
X711523Y292912D01*
X710837Y415076D01*
X710819Y415210D01*
X710806Y415345D01*
X710798Y415368D01*
X710795Y415392D01*
X710744Y415517D01*
X710699Y415645D01*
X710685Y415664D01*
X710676Y415687D01*
X710596Y415796D01*
X710520Y415908D01*
X710502Y415924D01*
X710488Y415943D01*
X710383Y416029D01*
X710282Y416118D01*
X710260Y416129D01*
X710242Y416144D01*
X710119Y416201D01*
X709998Y416263D01*
X709975Y416268D01*
X709953Y416278D01*
X709820Y416303D01*
X709688Y416333D01*
X709664Y416332D01*
X709641Y416336D01*
X709506Y416327D01*
X709370Y416323D01*
X709347Y416316D01*
X709323Y416315D01*
X709195Y416272D01*
X709065Y416235D01*
X709044Y416223D01*
X709021Y416215D01*
X708907Y416142D01*
X708791Y416073D01*
X708766Y416051D01*
X708754Y416043D01*
X708739Y416028D01*
X708670Y415967D01*
X706874Y414170D01*
X704737Y413285D01*
X702423Y413285D01*
X700286Y414170D01*
X698650Y415806D01*
X697765Y417943D01*
X697765Y420257D01*
X698650Y422394D01*
X700286Y424030D01*
X702423Y424915D01*
X704737Y424915D01*
X706874Y424030D01*
X708624Y422279D01*
X708737Y422191D01*
X708847Y422101D01*
X708862Y422094D01*
X708876Y422084D01*
X709007Y422027D01*
X709136Y421967D01*
X709152Y421964D01*
X709167Y421958D01*
X709309Y421935D01*
X709448Y421909D01*
X709465Y421910D01*
X709482Y421908D01*
X709624Y421921D01*
X709766Y421931D01*
X709782Y421936D01*
X709798Y421938D01*
X709932Y421986D01*
X710068Y422031D01*
X710082Y422040D01*
X710097Y422045D01*
X710215Y422125D01*
X710335Y422202D01*
X710347Y422214D01*
X710361Y422224D01*
X710455Y422331D01*
X710552Y422435D01*
X710560Y422450D01*
X710571Y422462D01*
X710636Y422589D01*
X710704Y422714D01*
X710708Y422731D01*
X710716Y422745D01*
X710747Y422885D01*
X710782Y423023D01*
X710783Y423046D01*
X710785Y423056D01*
X710785Y423075D01*
X710791Y423184D01*
X709929Y576580D01*
X709929Y577851D01*
X778244Y577851D01*
X778294Y577857D01*
X778343Y577855D01*
X778451Y577877D01*
X778560Y577891D01*
X778606Y577909D01*
X778655Y577919D01*
X778753Y577967D01*
X778856Y578008D01*
X778896Y578037D01*
X778941Y578059D01*
X779024Y578130D01*
X779113Y578194D01*
X779145Y578233D01*
X779183Y578265D01*
X779246Y578355D01*
X779316Y578439D01*
X779337Y578484D01*
X779366Y578525D01*
X779405Y578628D01*
X779451Y578727D01*
X779461Y578776D01*
X779478Y578822D01*
X779491Y578932D01*
X779511Y579040D01*
X779508Y579089D01*
X779514Y579138D01*
X779498Y579247D01*
X779491Y579357D01*
X779476Y579404D01*
X779469Y579453D01*
X779417Y579606D01*
X779045Y580503D01*
X779045Y582817D01*
X779930Y584954D01*
X781566Y586590D01*
X783703Y587475D01*
X786017Y587475D01*
X788154Y586590D01*
X789790Y584954D01*
X790675Y582817D01*
X790675Y580503D01*
X790303Y579606D01*
X790290Y579558D01*
X790269Y579513D01*
X790248Y579405D01*
X790219Y579299D01*
X790218Y579249D01*
X790209Y579201D01*
X790216Y579091D01*
X790214Y578981D01*
X790226Y578933D01*
X790229Y578883D01*
X790262Y578779D01*
X790288Y578672D01*
X790311Y578628D01*
X790327Y578581D01*
X790385Y578488D01*
X790437Y578391D01*
X790470Y578354D01*
X790497Y578312D01*
X790577Y578237D01*
X790651Y578155D01*
X790692Y578128D01*
X790728Y578094D01*
X790825Y578041D01*
X790916Y577981D01*
X790963Y577964D01*
X791007Y577940D01*
X791113Y577913D01*
X791217Y577877D01*
X791267Y577873D01*
X791315Y577861D01*
X791476Y577851D01*
X800100Y577851D01*
X800180Y577861D01*
X800260Y577861D01*
X800337Y577881D01*
X800416Y577891D01*
X800490Y577920D01*
X800568Y577940D01*
X800638Y577978D01*
X800711Y578008D01*
X800776Y578055D01*
X800847Y578094D01*
X800904Y578148D01*
X800969Y578194D01*
X801020Y578256D01*
X801078Y578311D01*
X801121Y578378D01*
X801171Y578439D01*
X801206Y578512D01*
X801249Y578580D01*
X801273Y578656D01*
X801307Y578727D01*
X801322Y578806D01*
X801347Y578883D01*
X801352Y578962D01*
X801367Y579040D01*
X801362Y579120D01*
X801367Y579200D01*
X801352Y579278D01*
X801347Y579357D01*
X801322Y579433D01*
X801307Y579512D01*
X801250Y579657D01*
X801249Y579659D01*
X801248Y579660D01*
X801248Y579662D01*
X758068Y671102D01*
X757982Y671236D01*
X757899Y671368D01*
X757898Y671369D01*
X757897Y671370D01*
X757782Y671478D01*
X757667Y671586D01*
X757666Y671587D01*
X757665Y671588D01*
X757528Y671663D01*
X757389Y671740D01*
X757387Y671740D01*
X757386Y671741D01*
X757235Y671779D01*
X757081Y671819D01*
X757079Y671819D01*
X757078Y671819D01*
X757075Y671819D01*
X756920Y671829D01*
X258642Y671829D01*
X258504Y671812D01*
X258365Y671799D01*
X258346Y671792D01*
X258326Y671789D01*
X258197Y671738D01*
X258066Y671691D01*
X258049Y671680D01*
X258031Y671672D01*
X257918Y671591D01*
X257803Y671513D01*
X257790Y671497D01*
X257773Y671486D01*
X257684Y671378D01*
X257592Y671274D01*
X257583Y671256D01*
X257570Y671241D01*
X257511Y671115D01*
X257448Y670991D01*
X257443Y670971D01*
X257435Y670953D01*
X257409Y670817D01*
X257378Y670681D01*
X257379Y670660D01*
X257375Y670641D01*
X257384Y670502D01*
X257388Y670363D01*
X257394Y670343D01*
X257395Y670323D01*
X257438Y670191D01*
X257476Y670057D01*
X257487Y670040D01*
X257493Y670021D01*
X257567Y669903D01*
X257638Y669783D01*
X257656Y669762D01*
X257663Y669752D01*
X257678Y669738D01*
X257744Y669663D01*
X258536Y668871D01*
X261905Y660738D01*
X261905Y651934D01*
X258536Y643801D01*
X252311Y637576D01*
X244178Y634207D01*
X235374Y634207D01*
X227241Y637576D01*
X221016Y643801D01*
X217647Y651934D01*
X217647Y660738D01*
X221016Y668871D01*
X221808Y669663D01*
X221893Y669772D01*
X221982Y669879D01*
X221990Y669898D01*
X222003Y669914D01*
X222058Y670042D01*
X222117Y670167D01*
X222121Y670187D01*
X222129Y670206D01*
X222151Y670344D01*
X222177Y670480D01*
X222176Y670500D01*
X222179Y670520D01*
X222166Y670659D01*
X222157Y670797D01*
X222151Y670816D01*
X222149Y670836D01*
X222102Y670968D01*
X222059Y671099D01*
X222048Y671117D01*
X222041Y671136D01*
X221963Y671251D01*
X221889Y671368D01*
X221874Y671382D01*
X221863Y671399D01*
X221759Y671491D01*
X221657Y671586D01*
X221640Y671596D01*
X221624Y671609D01*
X221501Y671672D01*
X221379Y671740D01*
X221359Y671745D01*
X221341Y671754D01*
X221205Y671784D01*
X221071Y671819D01*
X221043Y671821D01*
X221031Y671824D01*
X221010Y671823D01*
X220910Y671829D01*
X190500Y671829D01*
X190382Y671814D01*
X190263Y671807D01*
X190225Y671794D01*
X190184Y671789D01*
X190074Y671746D01*
X189961Y671709D01*
X189926Y671687D01*
X189889Y671672D01*
X189793Y671603D01*
X189692Y671539D01*
X189664Y671509D01*
X189631Y671486D01*
X189556Y671394D01*
X189474Y671307D01*
X189454Y671272D01*
X189429Y671241D01*
X189378Y671133D01*
X189320Y671029D01*
X189310Y670989D01*
X189293Y670953D01*
X189271Y670836D01*
X189241Y670721D01*
X189237Y670661D01*
X189233Y670641D01*
X189235Y670620D01*
X189231Y670560D01*
X189231Y621584D01*
X189237Y621535D01*
X189235Y621485D01*
X189257Y621378D01*
X189271Y621269D01*
X189289Y621223D01*
X189299Y621174D01*
X189347Y621075D01*
X189388Y620973D01*
X189417Y620933D01*
X189439Y620888D01*
X189510Y620805D01*
X189574Y620716D01*
X189613Y620684D01*
X189645Y620646D01*
X189735Y620583D01*
X189819Y620513D01*
X189864Y620492D01*
X189905Y620463D01*
X190008Y620424D01*
X190107Y620377D01*
X190156Y620368D01*
X190202Y620350D01*
X190312Y620338D01*
X190420Y620318D01*
X190469Y620321D01*
X190518Y620315D01*
X190627Y620330D01*
X190737Y620337D01*
X190784Y620353D01*
X190833Y620360D01*
X190986Y620412D01*
X193857Y621601D01*
X199843Y621601D01*
X205374Y619310D01*
X209608Y615076D01*
X211899Y609545D01*
X211899Y603559D01*
X209608Y598028D01*
X205374Y593794D01*
X199843Y591503D01*
X193857Y591503D01*
X190986Y592692D01*
X190938Y592706D01*
X190893Y592727D01*
X190785Y592747D01*
X190679Y592776D01*
X190629Y592777D01*
X190581Y592786D01*
X190471Y592780D01*
X190361Y592781D01*
X190313Y592770D01*
X190263Y592767D01*
X190159Y592733D01*
X190052Y592707D01*
X190008Y592684D01*
X189961Y592669D01*
X189868Y592610D01*
X189771Y592559D01*
X189734Y592525D01*
X189692Y592499D01*
X189617Y592418D01*
X189535Y592345D01*
X189508Y592303D01*
X189474Y592267D01*
X189421Y592171D01*
X189361Y592079D01*
X189344Y592032D01*
X189320Y591988D01*
X189293Y591882D01*
X189257Y591778D01*
X189253Y591729D01*
X189241Y591680D01*
X189231Y591520D01*
X189231Y561132D01*
X189237Y561083D01*
X189235Y561033D01*
X189257Y560926D01*
X189271Y560817D01*
X189289Y560771D01*
X189299Y560722D01*
X189347Y560623D01*
X189388Y560521D01*
X189417Y560481D01*
X189439Y560436D01*
X189510Y560353D01*
X189574Y560264D01*
X189613Y560232D01*
X189645Y560194D01*
X189735Y560131D01*
X189819Y560061D01*
X189864Y560040D01*
X189905Y560011D01*
X190008Y559972D01*
X190107Y559925D01*
X190156Y559916D01*
X190202Y559898D01*
X190312Y559886D01*
X190420Y559866D01*
X190469Y559869D01*
X190518Y559863D01*
X190627Y559878D01*
X190737Y559885D01*
X190784Y559901D01*
X190833Y559908D01*
X190986Y559960D01*
X193857Y561149D01*
X199843Y561149D01*
X205374Y558858D01*
X209608Y554624D01*
X211899Y549093D01*
X211899Y543107D01*
X209608Y537576D01*
X205374Y533342D01*
X199843Y531051D01*
X193857Y531051D01*
X190986Y532240D01*
X190938Y532254D01*
X190893Y532275D01*
X190785Y532295D01*
X190679Y532324D01*
X190629Y532325D01*
X190581Y532334D01*
X190471Y532328D01*
X190361Y532329D01*
X190313Y532318D01*
X190263Y532315D01*
X190159Y532281D01*
X190052Y532255D01*
X190008Y532232D01*
X189961Y532217D01*
X189868Y532158D01*
X189771Y532107D01*
X189734Y532073D01*
X189692Y532047D01*
X189617Y531966D01*
X189535Y531893D01*
X189508Y531851D01*
X189474Y531815D01*
X189436Y531746D01*
X189429Y531737D01*
X189417Y531713D01*
X189361Y531627D01*
X189344Y531580D01*
X189320Y531536D01*
X189304Y531473D01*
X189293Y531450D01*
X189285Y531406D01*
X189257Y531326D01*
X189253Y531277D01*
X189241Y531228D01*
X189236Y531152D01*
X189233Y531137D01*
X189234Y531123D01*
X189231Y531068D01*
X189231Y500680D01*
X189237Y500631D01*
X189235Y500581D01*
X189257Y500474D01*
X189271Y500365D01*
X189289Y500319D01*
X189299Y500270D01*
X189347Y500171D01*
X189388Y500069D01*
X189417Y500029D01*
X189439Y499984D01*
X189510Y499901D01*
X189574Y499812D01*
X189613Y499780D01*
X189645Y499742D01*
X189735Y499679D01*
X189819Y499609D01*
X189864Y499588D01*
X189905Y499559D01*
X190008Y499520D01*
X190107Y499473D01*
X190156Y499464D01*
X190202Y499446D01*
X190312Y499434D01*
X190420Y499414D01*
X190469Y499417D01*
X190518Y499411D01*
X190627Y499426D01*
X190737Y499433D01*
X190784Y499449D01*
X190833Y499456D01*
X190986Y499508D01*
X193857Y500697D01*
X199843Y500697D01*
X205374Y498406D01*
X209608Y494172D01*
X211899Y488641D01*
X211899Y482655D01*
X209608Y477124D01*
X205374Y472890D01*
X199843Y470599D01*
X193857Y470599D01*
X190986Y471788D01*
X190938Y471802D01*
X190893Y471823D01*
X190785Y471843D01*
X190679Y471872D01*
X190629Y471873D01*
X190581Y471882D01*
X190471Y471876D01*
X190361Y471877D01*
X190313Y471866D01*
X190263Y471863D01*
X190159Y471829D01*
X190052Y471803D01*
X190008Y471780D01*
X189961Y471765D01*
X189868Y471706D01*
X189771Y471655D01*
X189734Y471621D01*
X189692Y471595D01*
X189617Y471514D01*
X189535Y471441D01*
X189508Y471399D01*
X189474Y471363D01*
X189421Y471267D01*
X189361Y471175D01*
X189344Y471128D01*
X189320Y471084D01*
X189293Y470978D01*
X189257Y470874D01*
X189253Y470825D01*
X189241Y470776D01*
X189231Y470616D01*
X189231Y440228D01*
X189237Y440179D01*
X189235Y440129D01*
X189257Y440022D01*
X189271Y439913D01*
X189289Y439867D01*
X189299Y439818D01*
X189347Y439719D01*
X189388Y439617D01*
X189417Y439577D01*
X189439Y439532D01*
X189510Y439449D01*
X189574Y439360D01*
X189613Y439328D01*
X189645Y439290D01*
X189735Y439227D01*
X189819Y439157D01*
X189864Y439136D01*
X189905Y439107D01*
X190008Y439068D01*
X190107Y439021D01*
X190156Y439012D01*
X190202Y438994D01*
X190312Y438982D01*
X190420Y438962D01*
X190469Y438965D01*
X190518Y438959D01*
X190627Y438974D01*
X190737Y438981D01*
X190784Y438997D01*
X190833Y439004D01*
X190986Y439056D01*
X193857Y440245D01*
X199843Y440245D01*
X205374Y437954D01*
X209608Y433720D01*
X211899Y428189D01*
X211899Y422203D01*
X209608Y416672D01*
X205374Y412438D01*
X199843Y410147D01*
X193857Y410147D01*
X190986Y411336D01*
X190938Y411350D01*
X190893Y411371D01*
X190785Y411391D01*
X190679Y411420D01*
X190629Y411421D01*
X190581Y411430D01*
X190471Y411424D01*
X190361Y411425D01*
X190313Y411414D01*
X190263Y411411D01*
X190159Y411377D01*
X190052Y411351D01*
X190008Y411328D01*
X189961Y411313D01*
X189868Y411254D01*
X189771Y411203D01*
X189734Y411169D01*
X189692Y411143D01*
X189617Y411062D01*
X189535Y410989D01*
X189508Y410947D01*
X189474Y410911D01*
X189421Y410815D01*
X189361Y410723D01*
X189344Y410676D01*
X189320Y410632D01*
X189293Y410526D01*
X189257Y410422D01*
X189253Y410373D01*
X189241Y410324D01*
X189231Y410164D01*
X189231Y379776D01*
X189237Y379727D01*
X189235Y379677D01*
X189257Y379570D01*
X189271Y379461D01*
X189289Y379415D01*
X189299Y379366D01*
X189347Y379267D01*
X189388Y379165D01*
X189417Y379125D01*
X189439Y379080D01*
X189510Y378997D01*
X189574Y378908D01*
X189613Y378876D01*
X189645Y378838D01*
X189735Y378775D01*
X189819Y378705D01*
X189864Y378684D01*
X189905Y378655D01*
X190008Y378616D01*
X190107Y378569D01*
X190156Y378560D01*
X190202Y378542D01*
X190312Y378530D01*
X190420Y378510D01*
X190469Y378513D01*
X190518Y378507D01*
X190627Y378522D01*
X190737Y378529D01*
X190784Y378545D01*
X190833Y378552D01*
X190986Y378604D01*
X193857Y379793D01*
X199843Y379793D01*
X205374Y377502D01*
X209608Y373268D01*
X211899Y367737D01*
X211899Y361751D01*
X209608Y356220D01*
X205374Y351986D01*
X199843Y349695D01*
X193857Y349695D01*
X190986Y350884D01*
X190938Y350898D01*
X190893Y350919D01*
X190785Y350939D01*
X190679Y350968D01*
X190629Y350969D01*
X190581Y350978D01*
X190471Y350972D01*
X190361Y350973D01*
X190313Y350962D01*
X190263Y350959D01*
X190159Y350925D01*
X190052Y350899D01*
X190008Y350876D01*
X189961Y350861D01*
X189868Y350802D01*
X189771Y350751D01*
X189734Y350717D01*
X189692Y350691D01*
X189617Y350610D01*
X189535Y350537D01*
X189508Y350495D01*
X189474Y350459D01*
X189421Y350363D01*
X189361Y350271D01*
X189344Y350224D01*
X189320Y350180D01*
X189293Y350074D01*
X189257Y349970D01*
X189253Y349921D01*
X189241Y349872D01*
X189231Y349712D01*
X189231Y174845D01*
X189234Y174816D01*
X189232Y174787D01*
X189254Y174658D01*
X189271Y174530D01*
X189281Y174502D01*
X189287Y174473D01*
X189340Y174355D01*
X189388Y174234D01*
X189405Y174210D01*
X189417Y174183D01*
X189498Y174082D01*
X189574Y173977D01*
X189597Y173958D01*
X189616Y173935D01*
X189719Y173857D01*
X189819Y173774D01*
X189846Y173761D01*
X189870Y173744D01*
X190014Y173673D01*
X192256Y172744D01*
X193892Y171109D01*
X194777Y168971D01*
X194777Y166658D01*
X193892Y164521D01*
X192256Y162885D01*
X190014Y161957D01*
X189989Y161942D01*
X189961Y161933D01*
X189851Y161864D01*
X189738Y161799D01*
X189717Y161779D01*
X189692Y161763D01*
X189603Y161668D01*
X189510Y161578D01*
X189494Y161553D01*
X189474Y161531D01*
X189411Y161417D01*
X189343Y161307D01*
X189335Y161279D01*
X189320Y161253D01*
X189288Y161127D01*
X189250Y161003D01*
X189248Y160973D01*
X189241Y160945D01*
X189231Y160784D01*
X189231Y82549D01*
X117273Y82549D01*
X117244Y82546D01*
X117214Y82548D01*
X117086Y82526D01*
X116957Y82509D01*
X116930Y82499D01*
X116901Y82494D01*
X116782Y82440D01*
X116662Y82392D01*
X116638Y82375D01*
X116611Y82363D01*
X116509Y82282D01*
X116404Y82206D01*
X116385Y82183D01*
X116362Y82164D01*
X116284Y82061D01*
X116201Y81961D01*
X116189Y81934D01*
X116171Y81910D01*
X116100Y81766D01*
X114831Y78702D01*
X112286Y76156D01*
X108960Y74779D01*
X105360Y74779D01*
X102034Y76156D01*
X99489Y78702D01*
X98220Y81766D01*
X98205Y81791D01*
X98196Y81819D01*
X98127Y81929D01*
X98062Y82042D01*
X98042Y82063D01*
X98026Y82088D01*
X97931Y82177D01*
X97841Y82270D01*
X97816Y82286D01*
X97794Y82306D01*
X97681Y82369D01*
X97570Y82437D01*
X97542Y82445D01*
X97516Y82460D01*
X97390Y82492D01*
X97266Y82530D01*
X97236Y82532D01*
X97208Y82539D01*
X97047Y82549D01*
X78740Y82549D01*
X78642Y82537D01*
X78542Y82534D01*
X78484Y82517D01*
X78424Y82509D01*
X78332Y82473D01*
X78237Y82445D01*
X78185Y82415D01*
X78129Y82392D01*
X78048Y82334D01*
X77963Y82284D01*
X77920Y82241D01*
X77871Y82206D01*
X77808Y82129D01*
X77738Y82059D01*
X77707Y82007D01*
X77669Y81961D01*
X77626Y81871D01*
X77576Y81785D01*
X77559Y81727D01*
X77533Y81673D01*
X77514Y81576D01*
X77487Y81480D01*
X77477Y81381D01*
X77473Y81361D01*
X77474Y81348D01*
X77471Y81320D01*
X75388Y14638D01*
X75388Y14637D01*
X75401Y14495D01*
X75417Y14321D01*
X75418Y14320D01*
X75487Y14128D01*
X75525Y14022D01*
X75525Y14021D01*
X75625Y13875D01*
X75704Y13758D01*
X75831Y13646D01*
X75942Y13548D01*
X76102Y13466D01*
X76225Y13403D01*
X76226Y13403D01*
X76402Y13364D01*
X76536Y13334D01*
X76700Y13339D01*
X76853Y13343D01*
X76854Y13343D01*
X76998Y13385D01*
X77159Y13432D01*
X77284Y13505D01*
X77433Y13593D01*
X77433Y13594D01*
X77434Y13594D01*
X77554Y13700D01*
X78117Y14264D01*
X80892Y15413D01*
X83895Y15413D01*
X86669Y14264D01*
X87562Y13371D01*
X87656Y13298D01*
X87746Y13219D01*
X87782Y13201D01*
X87814Y13176D01*
X87923Y13129D01*
X88029Y13074D01*
X88068Y13066D01*
X88105Y13050D01*
X88223Y13031D01*
X88339Y13005D01*
X88379Y13006D01*
X88419Y13000D01*
X88538Y13011D01*
X88657Y13014D01*
X88696Y13026D01*
X88736Y13029D01*
X88848Y13070D01*
X88962Y13103D01*
X88997Y13123D01*
X89035Y13137D01*
X89134Y13204D01*
X89236Y13264D01*
X89282Y13304D01*
X89298Y13316D01*
X89312Y13331D01*
X89357Y13371D01*
X90364Y14377D01*
X93138Y15526D01*
X96141Y15526D01*
X98915Y14377D01*
X100773Y12520D01*
X100812Y12489D01*
X100846Y12452D01*
X100937Y12392D01*
X101024Y12325D01*
X101070Y12305D01*
X101111Y12278D01*
X101215Y12242D01*
X101316Y12198D01*
X101365Y12191D01*
X101412Y12174D01*
X101521Y12166D01*
X101630Y12149D01*
X101680Y12153D01*
X101729Y12149D01*
X101837Y12168D01*
X101947Y12178D01*
X101993Y12195D01*
X102042Y12204D01*
X102143Y12249D01*
X102246Y12286D01*
X102287Y12314D01*
X102332Y12334D01*
X102418Y12403D01*
X102509Y12465D01*
X102542Y12502D01*
X102581Y12533D01*
X102647Y12621D01*
X102720Y12703D01*
X102742Y12747D01*
X102772Y12787D01*
X102843Y12931D01*
X103026Y13373D01*
X103361Y13708D01*
X103434Y13802D01*
X103513Y13892D01*
X103531Y13928D01*
X103556Y13960D01*
X103604Y14069D01*
X103658Y14175D01*
X103666Y14214D01*
X103683Y14251D01*
X103701Y14369D01*
X103727Y14485D01*
X103726Y14525D01*
X103732Y14565D01*
X103721Y14684D01*
X103718Y14803D01*
X103706Y14842D01*
X103703Y14882D01*
X103662Y14994D01*
X103629Y15109D01*
X103609Y15143D01*
X103595Y15181D01*
X103528Y15280D01*
X103468Y15382D01*
X103428Y15428D01*
X103416Y15445D01*
X103401Y15458D01*
X103361Y15503D01*
X102820Y16044D01*
X101671Y18818D01*
X101671Y21822D01*
X102457Y23718D01*
X102488Y23833D01*
X102527Y23946D01*
X102530Y23986D01*
X102541Y24025D01*
X102543Y24144D01*
X102552Y24263D01*
X102545Y24303D01*
X102546Y24343D01*
X102518Y24459D01*
X102498Y24576D01*
X102481Y24613D01*
X102472Y24652D01*
X102416Y24758D01*
X102367Y24866D01*
X102342Y24898D01*
X102323Y24934D01*
X102243Y25022D01*
X102169Y25115D01*
X102136Y25139D01*
X102109Y25169D01*
X102010Y25234D01*
X101915Y25306D01*
X101861Y25332D01*
X101844Y25344D01*
X101824Y25350D01*
X101770Y25377D01*
X101612Y25442D01*
X99067Y27988D01*
X97689Y31313D01*
X97689Y34913D01*
X99067Y38239D01*
X101612Y40785D01*
X104938Y42162D01*
X108538Y42162D01*
X111864Y40785D01*
X114409Y38239D01*
X115787Y34913D01*
X115787Y31313D01*
X114409Y27988D01*
X114216Y27795D01*
X114143Y27700D01*
X114064Y27611D01*
X114046Y27575D01*
X114021Y27543D01*
X113974Y27434D01*
X113920Y27328D01*
X113911Y27289D01*
X113895Y27251D01*
X113876Y27134D01*
X113850Y27018D01*
X113851Y26977D01*
X113845Y26937D01*
X113856Y26819D01*
X113860Y26700D01*
X113871Y26661D01*
X113875Y26621D01*
X113915Y26509D01*
X113948Y26394D01*
X113968Y26360D01*
X113982Y26321D01*
X114049Y26223D01*
X114110Y26120D01*
X114149Y26075D01*
X114161Y26058D01*
X114176Y26045D01*
X114216Y26000D01*
X115620Y24596D01*
X116769Y21822D01*
X116769Y18818D01*
X115620Y16044D01*
X115284Y15709D01*
X115211Y15615D01*
X115132Y15525D01*
X115114Y15489D01*
X115089Y15457D01*
X115042Y15348D01*
X114988Y15242D01*
X114979Y15203D01*
X114963Y15166D01*
X114944Y15048D01*
X114918Y14932D01*
X114919Y14891D01*
X114913Y14851D01*
X114924Y14733D01*
X114928Y14614D01*
X114939Y14575D01*
X114943Y14535D01*
X114983Y14423D01*
X115016Y14308D01*
X115037Y14274D01*
X115050Y14236D01*
X115117Y14137D01*
X115178Y14034D01*
X115218Y13989D01*
X115229Y13972D01*
X115244Y13959D01*
X115284Y13914D01*
X115825Y13373D01*
X116974Y10599D01*
X116974Y7595D01*
X115818Y4804D01*
X115805Y4756D01*
X115783Y4711D01*
X115763Y4603D01*
X115734Y4497D01*
X115733Y4447D01*
X115724Y4398D01*
X115730Y4289D01*
X115729Y4179D01*
X115740Y4131D01*
X115743Y4081D01*
X115777Y3977D01*
X115803Y3870D01*
X115826Y3826D01*
X115841Y3779D01*
X115900Y3686D01*
X115952Y3589D01*
X115985Y3552D01*
X116012Y3510D01*
X116092Y3435D01*
X116166Y3353D01*
X116207Y3326D01*
X116243Y3292D01*
X116339Y3239D01*
X116431Y3179D01*
X116478Y3162D01*
X116522Y3138D01*
X116628Y3111D01*
X116732Y3075D01*
X116782Y3071D01*
X116830Y3059D01*
X116990Y3049D01*
X807720Y3049D01*
X807838Y3064D01*
G37*
%LPC*%
G36*
X235882Y292831D02*
X235882Y292831D01*
X227749Y296200D01*
X221524Y302425D01*
X218155Y310558D01*
X218155Y319362D01*
X221524Y327495D01*
X227749Y333720D01*
X235882Y337089D01*
X244686Y337089D01*
X252819Y333720D01*
X259044Y327495D01*
X262413Y319362D01*
X262413Y310558D01*
X259044Y302425D01*
X252819Y296200D01*
X244686Y292831D01*
X235882Y292831D01*
G37*
%LPD*%
%LPC*%
G36*
X270623Y586005D02*
X270623Y586005D01*
X268486Y586890D01*
X266850Y588526D01*
X265965Y590663D01*
X265965Y590690D01*
X265959Y590739D01*
X265961Y590789D01*
X265939Y590896D01*
X265925Y591005D01*
X265907Y591052D01*
X265897Y591100D01*
X265849Y591199D01*
X265808Y591301D01*
X265779Y591341D01*
X265757Y591386D01*
X265686Y591469D01*
X265622Y591558D01*
X265583Y591590D01*
X265551Y591628D01*
X265461Y591691D01*
X265377Y591761D01*
X265332Y591782D01*
X265291Y591811D01*
X265188Y591850D01*
X265089Y591897D01*
X265040Y591906D01*
X264994Y591924D01*
X264884Y591936D01*
X264777Y591956D01*
X264727Y591953D01*
X264678Y591959D01*
X264569Y591943D01*
X264459Y591937D01*
X264412Y591921D01*
X264363Y591914D01*
X264210Y591862D01*
X263343Y591503D01*
X257357Y591503D01*
X251826Y593794D01*
X247592Y598028D01*
X245301Y603559D01*
X245301Y609545D01*
X247592Y615076D01*
X251826Y619310D01*
X257357Y621601D01*
X263343Y621601D01*
X268874Y619310D01*
X273108Y615076D01*
X275399Y609545D01*
X275399Y603559D01*
X273429Y598804D01*
X273417Y598759D01*
X273399Y598720D01*
X273386Y598655D01*
X273359Y598577D01*
X273356Y598537D01*
X273346Y598498D01*
X273345Y598438D01*
X273339Y598407D01*
X273342Y598357D01*
X273334Y598260D01*
X273341Y598220D01*
X273340Y598180D01*
X273357Y598109D01*
X273359Y598090D01*
X273370Y598056D01*
X273389Y597947D01*
X273405Y597910D01*
X273415Y597870D01*
X273454Y597797D01*
X273457Y597788D01*
X273468Y597770D01*
X273470Y597765D01*
X273519Y597657D01*
X273544Y597625D01*
X273563Y597589D01*
X273625Y597521D01*
X273627Y597519D01*
X273631Y597515D01*
X273644Y597501D01*
X273718Y597408D01*
X273750Y597384D01*
X273777Y597354D01*
X273877Y597288D01*
X273972Y597217D01*
X274026Y597190D01*
X274043Y597179D01*
X274062Y597173D01*
X274116Y597146D01*
X275074Y596750D01*
X276710Y595114D01*
X277595Y592977D01*
X277595Y590663D01*
X276710Y588526D01*
X275074Y586890D01*
X272937Y586005D01*
X270623Y586005D01*
G37*
%LPD*%
%LPC*%
G36*
X257357Y531051D02*
X257357Y531051D01*
X251826Y533342D01*
X247592Y537576D01*
X245301Y543107D01*
X245301Y549093D01*
X247592Y554624D01*
X251826Y558858D01*
X257357Y561149D01*
X263343Y561149D01*
X268874Y558858D01*
X273108Y554624D01*
X275399Y549093D01*
X275399Y543107D01*
X273108Y537576D01*
X268874Y533342D01*
X263343Y531051D01*
X257357Y531051D01*
G37*
%LPD*%
%LPC*%
G36*
X257357Y410147D02*
X257357Y410147D01*
X251826Y412438D01*
X247592Y416672D01*
X245301Y422203D01*
X245301Y428189D01*
X247592Y433720D01*
X251826Y437954D01*
X257357Y440245D01*
X263343Y440245D01*
X268874Y437954D01*
X273108Y433720D01*
X275399Y428189D01*
X275399Y422203D01*
X273108Y416672D01*
X268874Y412438D01*
X263343Y410147D01*
X257357Y410147D01*
G37*
%LPD*%
%LPC*%
G36*
X257357Y349695D02*
X257357Y349695D01*
X251826Y351986D01*
X247592Y356220D01*
X245301Y361751D01*
X245301Y367737D01*
X247592Y373268D01*
X251826Y377502D01*
X257357Y379793D01*
X263343Y379793D01*
X268874Y377502D01*
X273108Y373268D01*
X275399Y367737D01*
X275399Y361751D01*
X273108Y356220D01*
X268874Y351986D01*
X263343Y349695D01*
X257357Y349695D01*
G37*
%LPD*%
%LPC*%
G36*
X257357Y470599D02*
X257357Y470599D01*
X251826Y472890D01*
X247592Y477124D01*
X245301Y482655D01*
X245301Y488641D01*
X247592Y494172D01*
X251826Y498406D01*
X257357Y500697D01*
X263343Y500697D01*
X268874Y498406D01*
X273108Y494172D01*
X275399Y488641D01*
X275399Y482655D01*
X273108Y477124D01*
X268874Y472890D01*
X263343Y470599D01*
X257357Y470599D01*
G37*
%LPD*%
%LPC*%
G36*
X450963Y184685D02*
X450963Y184685D01*
X448826Y185570D01*
X447190Y187206D01*
X446305Y189343D01*
X446305Y191657D01*
X447190Y193794D01*
X448826Y195430D01*
X450602Y196165D01*
X450627Y196180D01*
X450655Y196189D01*
X450765Y196258D01*
X450878Y196322D01*
X450899Y196343D01*
X450924Y196359D01*
X451013Y196453D01*
X451106Y196544D01*
X451122Y196569D01*
X451142Y196590D01*
X451205Y196704D01*
X451273Y196815D01*
X451281Y196843D01*
X451296Y196869D01*
X451328Y196995D01*
X451366Y197119D01*
X451368Y197148D01*
X451375Y197177D01*
X451385Y197338D01*
X451385Y199277D01*
X452270Y201414D01*
X453906Y203050D01*
X454222Y203180D01*
X454265Y203205D01*
X454312Y203222D01*
X454403Y203283D01*
X454498Y203338D01*
X454534Y203373D01*
X454575Y203400D01*
X454648Y203483D01*
X454727Y203559D01*
X454753Y203602D01*
X454786Y203639D01*
X454836Y203737D01*
X454893Y203830D01*
X454908Y203878D01*
X454930Y203922D01*
X454954Y204029D01*
X454987Y204134D01*
X454989Y204184D01*
X455000Y204232D01*
X454997Y204342D01*
X455002Y204452D01*
X454992Y204501D01*
X454990Y204550D01*
X454960Y204656D01*
X454938Y204763D01*
X454916Y204808D01*
X454902Y204856D01*
X454846Y204950D01*
X454798Y205049D01*
X454766Y205087D01*
X454740Y205130D01*
X454634Y205251D01*
X453340Y206544D01*
X452191Y209318D01*
X452191Y212322D01*
X453340Y215096D01*
X455464Y217220D01*
X458238Y218369D01*
X461242Y218369D01*
X464030Y217214D01*
X464055Y217186D01*
X464147Y217126D01*
X464234Y217058D01*
X464279Y217038D01*
X464321Y217011D01*
X464425Y216976D01*
X464525Y216932D01*
X464575Y216924D01*
X464622Y216908D01*
X464731Y216899D01*
X464840Y216882D01*
X464889Y216887D01*
X464939Y216883D01*
X465047Y216902D01*
X465156Y216912D01*
X465203Y216929D01*
X465252Y216937D01*
X465352Y216982D01*
X465455Y217019D01*
X465497Y217047D01*
X465542Y217068D01*
X465628Y217136D01*
X465719Y217198D01*
X465752Y217235D01*
X465790Y217266D01*
X465856Y217354D01*
X465929Y217436D01*
X465952Y217481D01*
X465982Y217520D01*
X466036Y217632D01*
X468164Y219760D01*
X470938Y220909D01*
X473942Y220909D01*
X476716Y219760D01*
X478840Y217636D01*
X479989Y214862D01*
X479989Y211858D01*
X478840Y209084D01*
X476716Y206960D01*
X473942Y205811D01*
X470938Y205811D01*
X468150Y206966D01*
X468125Y206994D01*
X468033Y207054D01*
X467946Y207122D01*
X467901Y207142D01*
X467859Y207169D01*
X467755Y207204D01*
X467655Y207248D01*
X467605Y207256D01*
X467558Y207272D01*
X467449Y207281D01*
X467340Y207298D01*
X467291Y207293D01*
X467241Y207297D01*
X467133Y207278D01*
X467024Y207268D01*
X466977Y207251D01*
X466928Y207243D01*
X466828Y207198D01*
X466725Y207161D01*
X466683Y207133D01*
X466638Y207112D01*
X466552Y207044D01*
X466461Y206982D01*
X466428Y206945D01*
X466390Y206914D01*
X466324Y206826D01*
X466251Y206744D01*
X466228Y206699D01*
X466198Y206660D01*
X466144Y206548D01*
X464016Y204420D01*
X462311Y203714D01*
X462268Y203690D01*
X462221Y203673D01*
X462130Y203611D01*
X462035Y203557D01*
X461999Y203522D01*
X461958Y203494D01*
X461885Y203412D01*
X461806Y203335D01*
X461780Y203293D01*
X461747Y203256D01*
X461697Y203158D01*
X461640Y203064D01*
X461625Y203017D01*
X461603Y202973D01*
X461579Y202865D01*
X461546Y202760D01*
X461544Y202711D01*
X461533Y202662D01*
X461537Y202552D01*
X461531Y202443D01*
X461541Y202394D01*
X461543Y202344D01*
X461573Y202239D01*
X461596Y202131D01*
X461617Y202086D01*
X461631Y202039D01*
X461687Y201944D01*
X461735Y201846D01*
X461768Y201808D01*
X461793Y201765D01*
X461899Y201644D01*
X462130Y201414D01*
X463015Y199277D01*
X463015Y196963D01*
X462130Y194826D01*
X460494Y193190D01*
X458718Y192455D01*
X458693Y192440D01*
X458665Y192431D01*
X458555Y192362D01*
X458442Y192298D01*
X458421Y192277D01*
X458396Y192261D01*
X458307Y192167D01*
X458214Y192076D01*
X458198Y192051D01*
X458178Y192030D01*
X458115Y191916D01*
X458047Y191805D01*
X458039Y191777D01*
X458024Y191751D01*
X457992Y191625D01*
X457954Y191501D01*
X457952Y191472D01*
X457945Y191443D01*
X457935Y191282D01*
X457935Y189343D01*
X457050Y187206D01*
X455414Y185570D01*
X453277Y184685D01*
X450963Y184685D01*
G37*
%LPD*%
%LPC*%
G36*
X626223Y354865D02*
X626223Y354865D01*
X624086Y355750D01*
X622450Y357386D01*
X621565Y359523D01*
X621565Y361837D01*
X622450Y363974D01*
X624086Y365610D01*
X626223Y366495D01*
X628537Y366495D01*
X630674Y365610D01*
X632231Y364052D01*
X632271Y364022D01*
X632304Y363985D01*
X632396Y363924D01*
X632483Y363857D01*
X632528Y363837D01*
X632570Y363810D01*
X632673Y363774D01*
X632774Y363731D01*
X632823Y363723D01*
X632870Y363707D01*
X632980Y363698D01*
X633088Y363681D01*
X633138Y363686D01*
X633187Y363682D01*
X633296Y363700D01*
X633405Y363711D01*
X633452Y363728D01*
X633501Y363736D01*
X633601Y363781D01*
X633704Y363818D01*
X633746Y363846D01*
X633791Y363867D01*
X633877Y363935D01*
X633967Y363997D01*
X634000Y364034D01*
X634039Y364065D01*
X634105Y364153D01*
X634178Y364235D01*
X634201Y364280D01*
X634230Y364319D01*
X634301Y364464D01*
X635150Y366514D01*
X636039Y367403D01*
X636112Y367497D01*
X636191Y367586D01*
X636209Y367622D01*
X636234Y367654D01*
X636282Y367763D01*
X636336Y367869D01*
X636344Y367908D01*
X636361Y367946D01*
X636379Y368063D01*
X636405Y368179D01*
X636404Y368220D01*
X636410Y368260D01*
X636399Y368378D01*
X636396Y368497D01*
X636384Y368536D01*
X636381Y368576D01*
X636340Y368688D01*
X636307Y368803D01*
X636287Y368838D01*
X636273Y368876D01*
X636206Y368974D01*
X636146Y369077D01*
X636106Y369122D01*
X636094Y369139D01*
X636079Y369152D01*
X636039Y369198D01*
X635150Y370086D01*
X634265Y372223D01*
X634265Y374537D01*
X635150Y376674D01*
X636786Y378310D01*
X637385Y378557D01*
X637505Y378626D01*
X637628Y378691D01*
X637643Y378705D01*
X637661Y378715D01*
X637761Y378812D01*
X637864Y378905D01*
X637875Y378922D01*
X637889Y378936D01*
X637962Y379055D01*
X638038Y379171D01*
X638045Y379190D01*
X638056Y379207D01*
X638096Y379340D01*
X638142Y379472D01*
X638143Y379492D01*
X638149Y379511D01*
X638156Y379650D01*
X638167Y379789D01*
X638163Y379809D01*
X638164Y379829D01*
X638136Y379965D01*
X638112Y380102D01*
X638104Y380121D01*
X638100Y380140D01*
X638039Y380265D01*
X637982Y380392D01*
X637969Y380408D01*
X637960Y380426D01*
X637870Y380532D01*
X637783Y380640D01*
X637767Y380653D01*
X637754Y380668D01*
X637640Y380748D01*
X637529Y380832D01*
X637504Y380844D01*
X637494Y380851D01*
X637475Y380858D01*
X637385Y380903D01*
X636786Y381151D01*
X635827Y382109D01*
X635788Y382140D01*
X635755Y382177D01*
X635663Y382237D01*
X635576Y382304D01*
X635530Y382324D01*
X635489Y382351D01*
X635385Y382387D01*
X635284Y382431D01*
X635235Y382439D01*
X635188Y382455D01*
X635079Y382463D01*
X634970Y382481D01*
X634921Y382476D01*
X634871Y382480D01*
X634763Y382461D01*
X634653Y382451D01*
X634607Y382434D01*
X634558Y382425D01*
X634458Y382380D01*
X634354Y382343D01*
X634313Y382315D01*
X634268Y382295D01*
X634182Y382226D01*
X634091Y382165D01*
X634058Y382127D01*
X634019Y382096D01*
X633953Y382008D01*
X633881Y381926D01*
X633858Y381882D01*
X633828Y381842D01*
X633757Y381698D01*
X632916Y379668D01*
X631281Y378032D01*
X629144Y377147D01*
X626830Y377147D01*
X624693Y378032D01*
X623057Y379668D01*
X622172Y381805D01*
X622172Y384118D01*
X623057Y386256D01*
X624693Y387891D01*
X626830Y388777D01*
X629144Y388777D01*
X631281Y387891D01*
X632240Y386932D01*
X632279Y386902D01*
X632312Y386865D01*
X632404Y386805D01*
X632491Y386737D01*
X632537Y386718D01*
X632578Y386690D01*
X632682Y386655D01*
X632783Y386611D01*
X632832Y386603D01*
X632879Y386587D01*
X632988Y386578D01*
X633097Y386561D01*
X633146Y386566D01*
X633196Y386562D01*
X633304Y386581D01*
X633414Y386591D01*
X633460Y386608D01*
X633509Y386616D01*
X633609Y386661D01*
X633713Y386699D01*
X633754Y386727D01*
X633799Y386747D01*
X633885Y386815D01*
X633976Y386877D01*
X634009Y386914D01*
X634048Y386946D01*
X634114Y387033D01*
X634186Y387116D01*
X634209Y387160D01*
X634239Y387200D01*
X634310Y387344D01*
X635150Y389374D01*
X636786Y391010D01*
X638923Y391895D01*
X641237Y391895D01*
X643374Y391010D01*
X645010Y389374D01*
X645895Y387237D01*
X645895Y384923D01*
X645010Y382786D01*
X643374Y381151D01*
X642775Y380903D01*
X642655Y380834D01*
X642532Y380769D01*
X642517Y380755D01*
X642499Y380745D01*
X642399Y380649D01*
X642296Y380555D01*
X642285Y380538D01*
X642271Y380524D01*
X642198Y380405D01*
X642122Y380289D01*
X642115Y380270D01*
X642104Y380253D01*
X642064Y380120D01*
X642018Y379988D01*
X642017Y379968D01*
X642011Y379949D01*
X642004Y379810D01*
X641993Y379671D01*
X641997Y379651D01*
X641996Y379631D01*
X642024Y379495D01*
X642048Y379358D01*
X642056Y379339D01*
X642060Y379320D01*
X642121Y379195D01*
X642178Y379068D01*
X642191Y379052D01*
X642200Y379034D01*
X642290Y378928D01*
X642377Y378820D01*
X642393Y378807D01*
X642406Y378792D01*
X642520Y378712D01*
X642631Y378628D01*
X642656Y378616D01*
X642666Y378609D01*
X642685Y378602D01*
X642775Y378557D01*
X643374Y378310D01*
X645010Y376674D01*
X645895Y374537D01*
X645895Y372223D01*
X645010Y370086D01*
X644121Y369198D01*
X644048Y369104D01*
X643969Y369014D01*
X643951Y368978D01*
X643926Y368946D01*
X643879Y368837D01*
X643824Y368731D01*
X643816Y368692D01*
X643799Y368654D01*
X643781Y368537D01*
X643755Y368421D01*
X643756Y368380D01*
X643750Y368340D01*
X643761Y368222D01*
X643764Y368103D01*
X643776Y368064D01*
X643779Y368024D01*
X643820Y367911D01*
X643853Y367797D01*
X643873Y367763D01*
X643887Y367724D01*
X643954Y367626D01*
X644014Y367523D01*
X644054Y367478D01*
X644066Y367461D01*
X644081Y367448D01*
X644121Y367403D01*
X645010Y366514D01*
X645895Y364377D01*
X645895Y362063D01*
X645010Y359926D01*
X643374Y358290D01*
X641237Y357405D01*
X638923Y357405D01*
X636786Y358290D01*
X635229Y359848D01*
X635189Y359878D01*
X635156Y359915D01*
X635064Y359976D01*
X634977Y360043D01*
X634932Y360063D01*
X634890Y360090D01*
X634787Y360126D01*
X634686Y360169D01*
X634637Y360177D01*
X634590Y360193D01*
X634480Y360202D01*
X634372Y360219D01*
X634322Y360214D01*
X634273Y360218D01*
X634164Y360200D01*
X634055Y360189D01*
X634008Y360172D01*
X633959Y360164D01*
X633859Y360119D01*
X633756Y360082D01*
X633714Y360054D01*
X633669Y360033D01*
X633583Y359965D01*
X633493Y359903D01*
X633460Y359866D01*
X633421Y359835D01*
X633355Y359747D01*
X633282Y359665D01*
X633259Y359620D01*
X633230Y359581D01*
X633159Y359436D01*
X632310Y357386D01*
X630674Y355750D01*
X628537Y354865D01*
X626223Y354865D01*
G37*
%LPD*%
%LPC*%
G36*
X435723Y532665D02*
X435723Y532665D01*
X433586Y533550D01*
X431950Y535186D01*
X431065Y537323D01*
X431065Y539637D01*
X431950Y541774D01*
X433586Y543410D01*
X434185Y543657D01*
X434305Y543726D01*
X434428Y543791D01*
X434443Y543805D01*
X434461Y543815D01*
X434561Y543912D01*
X434664Y544005D01*
X434675Y544022D01*
X434689Y544036D01*
X434762Y544155D01*
X434838Y544271D01*
X434845Y544290D01*
X434856Y544307D01*
X434896Y544440D01*
X434942Y544572D01*
X434943Y544592D01*
X434949Y544611D01*
X434956Y544750D01*
X434967Y544889D01*
X434963Y544909D01*
X434964Y544929D01*
X434936Y545065D01*
X434912Y545202D01*
X434904Y545221D01*
X434900Y545240D01*
X434839Y545365D01*
X434782Y545492D01*
X434769Y545508D01*
X434760Y545526D01*
X434670Y545632D01*
X434583Y545740D01*
X434567Y545753D01*
X434554Y545768D01*
X434440Y545848D01*
X434329Y545932D01*
X434304Y545944D01*
X434294Y545951D01*
X434275Y545958D01*
X434185Y546003D01*
X433586Y546251D01*
X431950Y547886D01*
X431065Y550023D01*
X431065Y552337D01*
X431950Y554474D01*
X433586Y556110D01*
X434185Y556357D01*
X434305Y556426D01*
X434428Y556491D01*
X434443Y556505D01*
X434461Y556515D01*
X434561Y556612D01*
X434664Y556705D01*
X434675Y556722D01*
X434689Y556736D01*
X434762Y556855D01*
X434838Y556971D01*
X434845Y556990D01*
X434856Y557007D01*
X434896Y557140D01*
X434942Y557272D01*
X434943Y557292D01*
X434949Y557311D01*
X434956Y557450D01*
X434967Y557589D01*
X434963Y557609D01*
X434964Y557629D01*
X434936Y557765D01*
X434912Y557902D01*
X434904Y557921D01*
X434900Y557940D01*
X434839Y558065D01*
X434782Y558192D01*
X434769Y558208D01*
X434760Y558226D01*
X434670Y558332D01*
X434583Y558440D01*
X434567Y558453D01*
X434554Y558468D01*
X434440Y558548D01*
X434329Y558632D01*
X434304Y558644D01*
X434294Y558651D01*
X434275Y558658D01*
X434185Y558703D01*
X433586Y558951D01*
X431950Y560586D01*
X431065Y562723D01*
X431065Y563373D01*
X431050Y563492D01*
X431043Y563610D01*
X431030Y563649D01*
X431025Y563689D01*
X430982Y563800D01*
X430945Y563913D01*
X430923Y563947D01*
X430908Y563985D01*
X430839Y564081D01*
X430775Y564182D01*
X430745Y564209D01*
X430722Y564242D01*
X430630Y564318D01*
X430543Y564400D01*
X430508Y564419D01*
X430477Y564445D01*
X430369Y564496D01*
X430265Y564553D01*
X430225Y564563D01*
X430189Y564580D01*
X430072Y564603D01*
X429957Y564633D01*
X429897Y564636D01*
X429877Y564640D01*
X429856Y564639D01*
X429796Y564643D01*
X428451Y564643D01*
X426314Y565528D01*
X424678Y567164D01*
X423786Y569318D01*
X423778Y569381D01*
X423770Y569499D01*
X423758Y569538D01*
X423753Y569578D01*
X423709Y569689D01*
X423672Y569802D01*
X423651Y569836D01*
X423636Y569874D01*
X423566Y569970D01*
X423502Y570071D01*
X423473Y570098D01*
X423449Y570131D01*
X423357Y570207D01*
X423271Y570289D01*
X423235Y570308D01*
X423204Y570334D01*
X423096Y570385D01*
X422992Y570442D01*
X422953Y570452D01*
X422916Y570469D01*
X422800Y570492D01*
X422684Y570522D01*
X422624Y570525D01*
X422604Y570529D01*
X422584Y570528D01*
X422523Y570532D01*
X420012Y570532D01*
X417874Y571417D01*
X416239Y573053D01*
X415354Y575190D01*
X415354Y577503D01*
X416239Y579640D01*
X417874Y581276D01*
X420012Y582161D01*
X422325Y582161D01*
X424462Y581276D01*
X426098Y579640D01*
X426990Y577486D01*
X426998Y577423D01*
X427005Y577305D01*
X427018Y577266D01*
X427023Y577226D01*
X427067Y577115D01*
X427103Y577002D01*
X427125Y576968D01*
X427140Y576930D01*
X427210Y576834D01*
X427273Y576733D01*
X427303Y576706D01*
X427327Y576673D01*
X427418Y576597D01*
X427505Y576515D01*
X427541Y576496D01*
X427572Y576470D01*
X427679Y576419D01*
X427784Y576362D01*
X427823Y576352D01*
X427859Y576335D01*
X427976Y576312D01*
X428092Y576282D01*
X428152Y576279D01*
X428172Y576275D01*
X428192Y576276D01*
X428252Y576272D01*
X430764Y576272D01*
X432901Y575387D01*
X434537Y573751D01*
X435422Y571614D01*
X435422Y570964D01*
X435437Y570846D01*
X435445Y570727D01*
X435457Y570689D01*
X435462Y570648D01*
X435506Y570538D01*
X435543Y570425D01*
X435564Y570390D01*
X435579Y570353D01*
X435649Y570257D01*
X435713Y570156D01*
X435742Y570128D01*
X435766Y570095D01*
X435858Y570019D01*
X435944Y569938D01*
X435980Y569918D01*
X436011Y569893D01*
X436119Y569842D01*
X436223Y569784D01*
X436262Y569774D01*
X436299Y569757D01*
X436415Y569735D01*
X436531Y569705D01*
X436591Y569701D01*
X436611Y569697D01*
X436631Y569699D01*
X436691Y569695D01*
X438037Y569695D01*
X440174Y568810D01*
X441810Y567174D01*
X442695Y565037D01*
X442695Y562723D01*
X441810Y560586D01*
X440174Y558951D01*
X439575Y558703D01*
X439455Y558634D01*
X439332Y558569D01*
X439317Y558555D01*
X439299Y558545D01*
X439199Y558449D01*
X439096Y558355D01*
X439085Y558338D01*
X439071Y558324D01*
X438998Y558205D01*
X438922Y558089D01*
X438915Y558070D01*
X438904Y558053D01*
X438864Y557920D01*
X438818Y557788D01*
X438817Y557768D01*
X438811Y557749D01*
X438804Y557610D01*
X438793Y557471D01*
X438797Y557451D01*
X438796Y557431D01*
X438824Y557295D01*
X438848Y557158D01*
X438856Y557139D01*
X438860Y557120D01*
X438921Y556995D01*
X438978Y556868D01*
X438991Y556852D01*
X439000Y556834D01*
X439090Y556728D01*
X439177Y556620D01*
X439193Y556607D01*
X439206Y556592D01*
X439320Y556512D01*
X439431Y556428D01*
X439456Y556416D01*
X439466Y556409D01*
X439485Y556402D01*
X439575Y556357D01*
X440174Y556110D01*
X441810Y554474D01*
X442695Y552337D01*
X442695Y550023D01*
X441810Y547886D01*
X440174Y546251D01*
X439575Y546003D01*
X439455Y545934D01*
X439332Y545869D01*
X439317Y545855D01*
X439299Y545845D01*
X439199Y545749D01*
X439096Y545655D01*
X439085Y545638D01*
X439071Y545624D01*
X438998Y545505D01*
X438922Y545389D01*
X438915Y545370D01*
X438904Y545353D01*
X438864Y545220D01*
X438818Y545088D01*
X438817Y545068D01*
X438811Y545049D01*
X438804Y544910D01*
X438793Y544771D01*
X438797Y544751D01*
X438796Y544731D01*
X438824Y544595D01*
X438848Y544458D01*
X438856Y544439D01*
X438860Y544420D01*
X438921Y544295D01*
X438978Y544168D01*
X438991Y544152D01*
X439000Y544134D01*
X439090Y544028D01*
X439177Y543920D01*
X439193Y543907D01*
X439206Y543892D01*
X439320Y543812D01*
X439431Y543728D01*
X439456Y543716D01*
X439466Y543709D01*
X439485Y543702D01*
X439575Y543657D01*
X440174Y543410D01*
X441810Y541774D01*
X442695Y539637D01*
X442695Y537323D01*
X441810Y535186D01*
X440174Y533550D01*
X438037Y532665D01*
X435723Y532665D01*
G37*
%LPD*%
%LPC*%
G36*
X600506Y539359D02*
X600506Y539359D01*
X598369Y540244D01*
X596733Y541880D01*
X595848Y544017D01*
X595848Y546330D01*
X596733Y548467D01*
X596890Y548624D01*
X596976Y548734D01*
X597064Y548841D01*
X597073Y548860D01*
X597085Y548876D01*
X597141Y549004D01*
X597200Y549129D01*
X597203Y549149D01*
X597211Y549168D01*
X597233Y549305D01*
X597259Y549442D01*
X597258Y549462D01*
X597261Y549482D01*
X597248Y549620D01*
X597240Y549759D01*
X597233Y549778D01*
X597232Y549798D01*
X597184Y549929D01*
X597142Y550061D01*
X597131Y550079D01*
X597124Y550098D01*
X597046Y550213D01*
X596971Y550330D01*
X596957Y550344D01*
X596945Y550361D01*
X596841Y550453D01*
X596740Y550548D01*
X596722Y550558D01*
X596707Y550571D01*
X596583Y550635D01*
X596461Y550702D01*
X596442Y550707D01*
X596424Y550716D01*
X596288Y550746D01*
X596153Y550781D01*
X596125Y550783D01*
X596113Y550786D01*
X596093Y550785D01*
X595993Y550791D01*
X592262Y550791D01*
X588385Y552397D01*
X585417Y555365D01*
X583811Y559242D01*
X583811Y563438D01*
X585417Y567315D01*
X588385Y570283D01*
X592262Y571889D01*
X596458Y571889D01*
X600335Y570283D01*
X603303Y567315D01*
X604909Y563438D01*
X604909Y559242D01*
X603303Y555365D01*
X601093Y553155D01*
X601008Y553045D01*
X600919Y552938D01*
X600910Y552920D01*
X600898Y552904D01*
X600843Y552776D01*
X600784Y552650D01*
X600780Y552630D01*
X600772Y552612D01*
X600750Y552474D01*
X600724Y552338D01*
X600725Y552318D01*
X600722Y552298D01*
X600735Y552159D01*
X600744Y552020D01*
X600750Y552001D01*
X600752Y551981D01*
X600799Y551850D01*
X600842Y551718D01*
X600852Y551701D01*
X600859Y551682D01*
X600938Y551566D01*
X601012Y551449D01*
X601027Y551435D01*
X601038Y551419D01*
X601142Y551327D01*
X601243Y551231D01*
X601261Y551222D01*
X601276Y551208D01*
X601400Y551145D01*
X601522Y551078D01*
X601541Y551073D01*
X601560Y551064D01*
X601695Y551033D01*
X601830Y550998D01*
X601858Y550997D01*
X601870Y550994D01*
X601890Y550994D01*
X601990Y550988D01*
X602819Y550988D01*
X604956Y550103D01*
X606592Y548467D01*
X607477Y546330D01*
X607477Y544017D01*
X606592Y541880D01*
X604956Y540244D01*
X602819Y539359D01*
X600506Y539359D01*
G37*
%LPD*%
%LPC*%
G36*
X534533Y440455D02*
X534533Y440455D01*
X532396Y441340D01*
X532007Y441729D01*
X531913Y441802D01*
X531823Y441881D01*
X531788Y441899D01*
X531756Y441924D01*
X531646Y441971D01*
X531540Y442025D01*
X531501Y442034D01*
X531464Y442050D01*
X531346Y442069D01*
X531230Y442095D01*
X531190Y442094D01*
X531150Y442100D01*
X531031Y442089D01*
X530912Y442085D01*
X530873Y442074D01*
X530833Y442070D01*
X530721Y442030D01*
X530607Y441997D01*
X530572Y441976D01*
X530534Y441963D01*
X530435Y441896D01*
X530333Y441835D01*
X530287Y441795D01*
X530271Y441784D01*
X530257Y441769D01*
X530212Y441729D01*
X530211Y441728D01*
X528073Y440842D01*
X525760Y440842D01*
X523623Y441728D01*
X523298Y442052D01*
X523204Y442125D01*
X523115Y442204D01*
X523079Y442223D01*
X523047Y442247D01*
X522938Y442295D01*
X522832Y442349D01*
X522792Y442358D01*
X522755Y442374D01*
X522637Y442392D01*
X522521Y442418D01*
X522481Y442417D01*
X522441Y442423D01*
X522322Y442412D01*
X522203Y442409D01*
X522165Y442397D01*
X522124Y442394D01*
X522012Y442353D01*
X521898Y442320D01*
X521863Y442300D01*
X521825Y442286D01*
X521727Y442219D01*
X521624Y442159D01*
X521579Y442119D01*
X521562Y442107D01*
X521548Y442092D01*
X521503Y442052D01*
X521389Y441938D01*
X519252Y441053D01*
X516939Y441053D01*
X514802Y441938D01*
X514768Y441972D01*
X514674Y442045D01*
X514585Y442124D01*
X514549Y442142D01*
X514517Y442167D01*
X514408Y442214D01*
X514302Y442268D01*
X514262Y442277D01*
X514225Y442293D01*
X514108Y442312D01*
X513991Y442338D01*
X513951Y442337D01*
X513911Y442343D01*
X513792Y442332D01*
X513673Y442328D01*
X513635Y442317D01*
X513594Y442313D01*
X513483Y442273D01*
X513368Y442240D01*
X513333Y442219D01*
X513295Y442206D01*
X513197Y442139D01*
X513094Y442078D01*
X513049Y442039D01*
X513032Y442027D01*
X513018Y442012D01*
X512973Y441972D01*
X512729Y441728D01*
X510592Y440842D01*
X508278Y440842D01*
X506141Y441728D01*
X504506Y443363D01*
X503620Y445500D01*
X503620Y447814D01*
X504506Y449951D01*
X506141Y451587D01*
X508278Y452472D01*
X510592Y452472D01*
X512729Y451587D01*
X512762Y451553D01*
X512856Y451480D01*
X512946Y451401D01*
X512982Y451383D01*
X513014Y451358D01*
X513123Y451311D01*
X513229Y451257D01*
X513268Y451248D01*
X513305Y451232D01*
X513423Y451213D01*
X513539Y451187D01*
X513580Y451188D01*
X513620Y451182D01*
X513738Y451193D01*
X513857Y451197D01*
X513896Y451208D01*
X513936Y451212D01*
X514048Y451252D01*
X514163Y451285D01*
X514198Y451306D01*
X514235Y451319D01*
X514334Y451386D01*
X514437Y451447D01*
X514482Y451486D01*
X514499Y451498D01*
X514512Y451513D01*
X514557Y451553D01*
X514802Y451797D01*
X516939Y452683D01*
X519252Y452683D01*
X521389Y451797D01*
X521714Y451473D01*
X521808Y451400D01*
X521897Y451321D01*
X521933Y451302D01*
X521965Y451278D01*
X522075Y451230D01*
X522181Y451176D01*
X522220Y451167D01*
X522257Y451151D01*
X522375Y451133D01*
X522491Y451107D01*
X522531Y451108D01*
X522571Y451101D01*
X522690Y451113D01*
X522809Y451116D01*
X522848Y451127D01*
X522888Y451131D01*
X523000Y451172D01*
X523114Y451205D01*
X523149Y451225D01*
X523187Y451239D01*
X523286Y451306D01*
X523388Y451366D01*
X523433Y451406D01*
X523450Y451417D01*
X523464Y451433D01*
X523509Y451473D01*
X523623Y451587D01*
X525760Y452472D01*
X528073Y452472D01*
X530211Y451587D01*
X530600Y451198D01*
X530694Y451125D01*
X530783Y451046D01*
X530819Y451027D01*
X530851Y451003D01*
X530960Y450955D01*
X531066Y450901D01*
X531106Y450892D01*
X531143Y450876D01*
X531260Y450858D01*
X531376Y450832D01*
X531417Y450833D01*
X531457Y450826D01*
X531575Y450838D01*
X531694Y450841D01*
X531733Y450853D01*
X531773Y450856D01*
X531886Y450897D01*
X532000Y450930D01*
X532035Y450950D01*
X532073Y450964D01*
X532171Y451031D01*
X532274Y451091D01*
X532319Y451131D01*
X532336Y451142D01*
X532349Y451158D01*
X532395Y451198D01*
X532396Y451199D01*
X534533Y452084D01*
X536846Y452084D01*
X538983Y451199D01*
X540619Y449563D01*
X541504Y447426D01*
X541504Y445113D01*
X540619Y442976D01*
X538983Y441340D01*
X536846Y440455D01*
X534533Y440455D01*
G37*
%LPD*%
%LPC*%
G36*
X620798Y76271D02*
X620798Y76271D01*
X618024Y77420D01*
X615900Y79544D01*
X614677Y82498D01*
X614669Y82529D01*
X614627Y82608D01*
X614594Y82692D01*
X614553Y82748D01*
X614521Y82810D01*
X614460Y82877D01*
X614408Y82949D01*
X614354Y82994D01*
X614307Y83045D01*
X614232Y83095D01*
X614163Y83152D01*
X614099Y83182D01*
X614041Y83220D01*
X613956Y83249D01*
X613875Y83287D01*
X613806Y83301D01*
X613740Y83323D01*
X613651Y83330D01*
X613563Y83347D01*
X613493Y83343D01*
X613423Y83348D01*
X613335Y83333D01*
X613245Y83328D01*
X613179Y83306D01*
X613110Y83294D01*
X613028Y83257D01*
X612943Y83229D01*
X612884Y83192D01*
X612820Y83163D01*
X612750Y83107D01*
X612674Y83059D01*
X612626Y83008D01*
X612572Y82965D01*
X612517Y82893D01*
X612456Y82828D01*
X612422Y82767D01*
X612380Y82711D01*
X612309Y82566D01*
X611237Y79977D01*
X609113Y77853D01*
X606339Y76704D01*
X603336Y76704D01*
X600561Y77853D01*
X598438Y79977D01*
X597289Y82751D01*
X597289Y85754D01*
X598438Y88529D01*
X600561Y90652D01*
X603336Y91802D01*
X606339Y91802D01*
X609113Y90652D01*
X611237Y88529D01*
X612460Y85575D01*
X612468Y85544D01*
X612510Y85464D01*
X612543Y85381D01*
X612584Y85325D01*
X612617Y85263D01*
X612677Y85196D01*
X612730Y85124D01*
X612784Y85079D01*
X612830Y85027D01*
X612905Y84978D01*
X612975Y84921D01*
X613038Y84891D01*
X613096Y84853D01*
X613181Y84824D01*
X613262Y84785D01*
X613331Y84772D01*
X613397Y84750D01*
X613487Y84742D01*
X613575Y84726D01*
X613644Y84730D01*
X613714Y84724D01*
X613803Y84740D01*
X613892Y84745D01*
X613958Y84767D01*
X614027Y84779D01*
X614109Y84816D01*
X614195Y84843D01*
X614254Y84881D01*
X614317Y84909D01*
X614387Y84965D01*
X614463Y85013D01*
X614511Y85064D01*
X614566Y85108D01*
X614620Y85180D01*
X614681Y85245D01*
X614715Y85306D01*
X614757Y85362D01*
X614828Y85506D01*
X615900Y88096D01*
X618024Y90220D01*
X620798Y91369D01*
X623802Y91369D01*
X626576Y90220D01*
X628700Y88096D01*
X629849Y85322D01*
X629849Y82318D01*
X628700Y79544D01*
X626576Y77420D01*
X623802Y76271D01*
X620798Y76271D01*
G37*
%LPD*%
%LPC*%
G36*
X549058Y639571D02*
X549058Y639571D01*
X545137Y641195D01*
X542135Y644197D01*
X540511Y648118D01*
X540511Y652362D01*
X542135Y656283D01*
X545137Y659285D01*
X549058Y660909D01*
X553302Y660909D01*
X557223Y659285D01*
X560225Y656283D01*
X561849Y652362D01*
X561849Y648118D01*
X560225Y644197D01*
X557223Y641195D01*
X553302Y639571D01*
X549058Y639571D01*
G37*
%LPD*%
%LPC*%
G36*
X650658Y639571D02*
X650658Y639571D01*
X646737Y641195D01*
X643735Y644197D01*
X642111Y648118D01*
X642111Y652362D01*
X643735Y656283D01*
X646737Y659285D01*
X650658Y660909D01*
X654902Y660909D01*
X658823Y659285D01*
X661825Y656283D01*
X663449Y652362D01*
X663449Y648118D01*
X661825Y644197D01*
X658823Y641195D01*
X654902Y639571D01*
X650658Y639571D01*
G37*
%LPD*%
%LPC*%
G36*
X574458Y637031D02*
X574458Y637031D01*
X570537Y638655D01*
X567535Y641657D01*
X565911Y645578D01*
X565911Y649822D01*
X567535Y653743D01*
X570537Y656745D01*
X574458Y658369D01*
X578702Y658369D01*
X582623Y656745D01*
X585625Y653743D01*
X587249Y649822D01*
X587249Y645578D01*
X585625Y641657D01*
X582623Y638655D01*
X578702Y637031D01*
X574458Y637031D01*
G37*
%LPD*%
%LPC*%
G36*
X676058Y637031D02*
X676058Y637031D01*
X672137Y638655D01*
X669135Y641657D01*
X667511Y645578D01*
X667511Y649822D01*
X669135Y653743D01*
X672137Y656745D01*
X676058Y658369D01*
X680302Y658369D01*
X684223Y656745D01*
X687225Y653743D01*
X688849Y649822D01*
X688849Y645578D01*
X687225Y641657D01*
X684223Y638655D01*
X680302Y637031D01*
X676058Y637031D01*
G37*
%LPD*%
%LPC*%
G36*
X205326Y199073D02*
X205326Y199073D01*
X201449Y200679D01*
X198481Y203647D01*
X196875Y207524D01*
X196875Y211720D01*
X198481Y215597D01*
X201449Y218565D01*
X205326Y220171D01*
X209522Y220171D01*
X213399Y218565D01*
X216367Y215597D01*
X217973Y211720D01*
X217973Y207524D01*
X216367Y203647D01*
X213399Y200679D01*
X209522Y199073D01*
X205326Y199073D01*
G37*
%LPD*%
%LPC*%
G36*
X594802Y294251D02*
X594802Y294251D01*
X590925Y295857D01*
X587957Y298825D01*
X586351Y302702D01*
X586351Y306898D01*
X587957Y310775D01*
X590925Y313743D01*
X594802Y315349D01*
X598998Y315349D01*
X602875Y313743D01*
X605843Y310775D01*
X607449Y306898D01*
X607449Y302702D01*
X605843Y298825D01*
X602875Y295857D01*
X598998Y294251D01*
X594802Y294251D01*
G37*
%LPD*%
%LPC*%
G36*
X479073Y477270D02*
X479073Y477270D01*
X475196Y478876D01*
X472229Y481844D01*
X470623Y485721D01*
X470623Y489917D01*
X472229Y493794D01*
X475196Y496762D01*
X479073Y498368D01*
X483270Y498368D01*
X487147Y496762D01*
X490114Y493794D01*
X491720Y489917D01*
X491720Y485721D01*
X490114Y481844D01*
X487147Y478876D01*
X483270Y477270D01*
X479073Y477270D01*
G37*
%LPD*%
%LPC*%
G36*
X720203Y37365D02*
X720203Y37365D01*
X718066Y38250D01*
X716430Y39886D01*
X715545Y42023D01*
X715545Y44337D01*
X716430Y46474D01*
X718066Y48110D01*
X718665Y48357D01*
X718785Y48426D01*
X718908Y48491D01*
X718923Y48505D01*
X718941Y48515D01*
X719041Y48612D01*
X719144Y48705D01*
X719155Y48722D01*
X719169Y48736D01*
X719242Y48855D01*
X719318Y48971D01*
X719325Y48990D01*
X719336Y49007D01*
X719376Y49140D01*
X719422Y49272D01*
X719423Y49292D01*
X719429Y49311D01*
X719436Y49450D01*
X719447Y49589D01*
X719443Y49609D01*
X719444Y49629D01*
X719416Y49765D01*
X719392Y49902D01*
X719384Y49921D01*
X719380Y49940D01*
X719319Y50065D01*
X719262Y50192D01*
X719249Y50208D01*
X719240Y50226D01*
X719150Y50332D01*
X719063Y50440D01*
X719047Y50453D01*
X719034Y50468D01*
X718920Y50548D01*
X718809Y50632D01*
X718784Y50644D01*
X718774Y50651D01*
X718755Y50658D01*
X718665Y50703D01*
X718066Y50951D01*
X716430Y52586D01*
X715545Y54723D01*
X715545Y57037D01*
X716430Y59174D01*
X718066Y60810D01*
X718665Y61057D01*
X718785Y61126D01*
X718908Y61191D01*
X718923Y61205D01*
X718941Y61215D01*
X719041Y61312D01*
X719144Y61405D01*
X719155Y61422D01*
X719169Y61436D01*
X719242Y61555D01*
X719318Y61671D01*
X719325Y61690D01*
X719336Y61707D01*
X719376Y61840D01*
X719422Y61972D01*
X719423Y61992D01*
X719429Y62011D01*
X719436Y62150D01*
X719447Y62289D01*
X719443Y62309D01*
X719444Y62329D01*
X719416Y62465D01*
X719392Y62602D01*
X719384Y62621D01*
X719380Y62640D01*
X719319Y62765D01*
X719262Y62892D01*
X719249Y62908D01*
X719240Y62926D01*
X719150Y63032D01*
X719063Y63140D01*
X719047Y63153D01*
X719034Y63168D01*
X718920Y63248D01*
X718809Y63332D01*
X718784Y63344D01*
X718774Y63351D01*
X718755Y63358D01*
X718665Y63403D01*
X718066Y63651D01*
X716430Y65286D01*
X715545Y67423D01*
X715545Y69737D01*
X716430Y71874D01*
X718066Y73510D01*
X720203Y74395D01*
X722517Y74395D01*
X724654Y73510D01*
X726290Y71874D01*
X727175Y69737D01*
X727175Y67423D01*
X726290Y65286D01*
X724654Y63651D01*
X724055Y63403D01*
X723935Y63334D01*
X723812Y63269D01*
X723797Y63255D01*
X723779Y63245D01*
X723679Y63149D01*
X723576Y63055D01*
X723565Y63038D01*
X723551Y63024D01*
X723478Y62905D01*
X723402Y62789D01*
X723395Y62770D01*
X723384Y62753D01*
X723344Y62620D01*
X723298Y62488D01*
X723297Y62468D01*
X723291Y62449D01*
X723284Y62310D01*
X723273Y62171D01*
X723277Y62151D01*
X723276Y62131D01*
X723304Y61995D01*
X723328Y61858D01*
X723336Y61839D01*
X723340Y61820D01*
X723401Y61695D01*
X723458Y61568D01*
X723471Y61552D01*
X723480Y61534D01*
X723570Y61428D01*
X723657Y61320D01*
X723673Y61307D01*
X723686Y61292D01*
X723800Y61212D01*
X723911Y61128D01*
X723936Y61116D01*
X723946Y61109D01*
X723965Y61102D01*
X724055Y61057D01*
X724654Y60810D01*
X726290Y59174D01*
X727175Y57037D01*
X727175Y54723D01*
X726290Y52586D01*
X724654Y50951D01*
X724055Y50703D01*
X723935Y50634D01*
X723812Y50569D01*
X723797Y50555D01*
X723779Y50545D01*
X723679Y50449D01*
X723576Y50355D01*
X723565Y50338D01*
X723551Y50324D01*
X723478Y50205D01*
X723402Y50089D01*
X723395Y50070D01*
X723384Y50053D01*
X723344Y49920D01*
X723298Y49788D01*
X723297Y49768D01*
X723291Y49749D01*
X723284Y49610D01*
X723273Y49471D01*
X723277Y49451D01*
X723276Y49431D01*
X723304Y49295D01*
X723328Y49158D01*
X723336Y49139D01*
X723340Y49120D01*
X723401Y48995D01*
X723458Y48868D01*
X723471Y48852D01*
X723480Y48834D01*
X723570Y48728D01*
X723657Y48620D01*
X723673Y48607D01*
X723686Y48592D01*
X723800Y48512D01*
X723911Y48428D01*
X723936Y48416D01*
X723946Y48409D01*
X723965Y48402D01*
X724055Y48357D01*
X724654Y48110D01*
X726290Y46474D01*
X727175Y44337D01*
X727175Y42023D01*
X726290Y39886D01*
X724654Y38250D01*
X722517Y37365D01*
X720203Y37365D01*
G37*
%LPD*%
%LPC*%
G36*
X478903Y334545D02*
X478903Y334545D01*
X476766Y335430D01*
X475130Y337066D01*
X474245Y339203D01*
X474245Y341586D01*
X474239Y341636D01*
X474241Y341685D01*
X474219Y341793D01*
X474205Y341902D01*
X474187Y341948D01*
X474177Y341997D01*
X474129Y342096D01*
X474088Y342198D01*
X474059Y342238D01*
X474037Y342283D01*
X473966Y342366D01*
X473902Y342455D01*
X473863Y342487D01*
X473831Y342525D01*
X473741Y342588D01*
X473657Y342658D01*
X473612Y342679D01*
X473571Y342708D01*
X473468Y342747D01*
X473369Y342793D01*
X473320Y342803D01*
X473274Y342820D01*
X473164Y342833D01*
X473057Y342853D01*
X473007Y342850D01*
X472958Y342856D01*
X472849Y342840D01*
X472739Y342833D01*
X472692Y342818D01*
X472643Y342811D01*
X472490Y342759D01*
X471057Y342165D01*
X468743Y342165D01*
X466606Y343050D01*
X464970Y344686D01*
X464085Y346823D01*
X464085Y349137D01*
X464970Y351274D01*
X465859Y352163D01*
X465932Y352257D01*
X466011Y352346D01*
X466029Y352382D01*
X466054Y352414D01*
X466102Y352523D01*
X466156Y352629D01*
X466164Y352668D01*
X466181Y352706D01*
X466199Y352823D01*
X466225Y352939D01*
X466224Y352980D01*
X466230Y353020D01*
X466219Y353138D01*
X466216Y353257D01*
X466204Y353296D01*
X466201Y353336D01*
X466160Y353448D01*
X466127Y353563D01*
X466107Y353598D01*
X466093Y353636D01*
X466026Y353734D01*
X465966Y353837D01*
X465926Y353882D01*
X465914Y353899D01*
X465899Y353912D01*
X465859Y353958D01*
X464970Y354846D01*
X464085Y356983D01*
X464085Y359297D01*
X464970Y361434D01*
X466606Y363070D01*
X468743Y363955D01*
X471057Y363955D01*
X473194Y363070D01*
X474830Y361434D01*
X475715Y359297D01*
X475715Y356983D01*
X474830Y354846D01*
X473941Y353958D01*
X473868Y353864D01*
X473789Y353774D01*
X473771Y353738D01*
X473746Y353706D01*
X473699Y353597D01*
X473644Y353491D01*
X473636Y353452D01*
X473619Y353414D01*
X473601Y353297D01*
X473575Y353181D01*
X473576Y353140D01*
X473570Y353100D01*
X473581Y352982D01*
X473584Y352863D01*
X473596Y352824D01*
X473599Y352784D01*
X473640Y352671D01*
X473673Y352557D01*
X473693Y352523D01*
X473707Y352484D01*
X473774Y352386D01*
X473834Y352283D01*
X473874Y352238D01*
X473886Y352221D01*
X473901Y352208D01*
X473941Y352163D01*
X474830Y351274D01*
X475715Y349137D01*
X475715Y346754D01*
X475721Y346704D01*
X475719Y346655D01*
X475741Y346547D01*
X475755Y346438D01*
X475773Y346392D01*
X475783Y346343D01*
X475831Y346244D01*
X475872Y346142D01*
X475901Y346102D01*
X475923Y346057D01*
X475994Y345974D01*
X476058Y345885D01*
X476097Y345853D01*
X476129Y345815D01*
X476219Y345752D01*
X476303Y345682D01*
X476348Y345661D01*
X476389Y345632D01*
X476492Y345593D01*
X476591Y345547D01*
X476640Y345537D01*
X476686Y345520D01*
X476796Y345507D01*
X476903Y345487D01*
X476953Y345490D01*
X477002Y345484D01*
X477111Y345500D01*
X477221Y345507D01*
X477268Y345522D01*
X477317Y345529D01*
X477470Y345581D01*
X478903Y346175D01*
X481217Y346175D01*
X483354Y345290D01*
X484990Y343654D01*
X485875Y341517D01*
X485875Y339203D01*
X484990Y337066D01*
X483354Y335430D01*
X481217Y334545D01*
X478903Y334545D01*
G37*
%LPD*%
%LPC*%
G36*
X505947Y359520D02*
X505947Y359520D01*
X503810Y360405D01*
X502174Y362041D01*
X501289Y364178D01*
X501289Y366492D01*
X502174Y368629D01*
X503810Y370264D01*
X505947Y371150D01*
X508260Y371150D01*
X510397Y370264D01*
X511354Y369308D01*
X511448Y369235D01*
X511538Y369156D01*
X511574Y369137D01*
X511606Y369113D01*
X511715Y369065D01*
X511821Y369011D01*
X511860Y369002D01*
X511898Y368986D01*
X512015Y368968D01*
X512131Y368942D01*
X512172Y368943D01*
X512212Y368936D01*
X512330Y368948D01*
X512449Y368951D01*
X512488Y368962D01*
X512528Y368966D01*
X512640Y369006D01*
X512755Y369040D01*
X512789Y369060D01*
X512828Y369074D01*
X512926Y369141D01*
X513029Y369201D01*
X513074Y369241D01*
X513091Y369252D01*
X513104Y369268D01*
X513149Y369308D01*
X514519Y370677D01*
X516656Y371562D01*
X518969Y371562D01*
X521106Y370677D01*
X522162Y369621D01*
X522257Y369548D01*
X522346Y369469D01*
X522382Y369451D01*
X522414Y369426D01*
X522523Y369378D01*
X522629Y369324D01*
X522668Y369315D01*
X522705Y369299D01*
X522823Y369281D01*
X522939Y369255D01*
X522980Y369256D01*
X523020Y369249D01*
X523138Y369261D01*
X523257Y369264D01*
X523296Y369276D01*
X523336Y369279D01*
X523448Y369320D01*
X523563Y369353D01*
X523597Y369373D01*
X523635Y369387D01*
X523734Y369454D01*
X523837Y369514D01*
X523882Y369554D01*
X523899Y369565D01*
X523912Y369581D01*
X523957Y369621D01*
X525026Y370690D01*
X527163Y371575D01*
X529477Y371575D01*
X531614Y370690D01*
X533250Y369054D01*
X534135Y366917D01*
X534135Y364603D01*
X533250Y362466D01*
X531614Y360830D01*
X529477Y359945D01*
X527163Y359945D01*
X525026Y360830D01*
X523970Y361887D01*
X523888Y361951D01*
X523832Y362003D01*
X523818Y362011D01*
X523787Y362038D01*
X523751Y362057D01*
X523719Y362082D01*
X523610Y362129D01*
X523504Y362183D01*
X523464Y362192D01*
X523427Y362208D01*
X523309Y362227D01*
X523193Y362253D01*
X523153Y362251D01*
X523113Y362258D01*
X522994Y362247D01*
X522875Y362243D01*
X522837Y362232D01*
X522796Y362228D01*
X522684Y362188D01*
X522570Y362155D01*
X522535Y362134D01*
X522497Y362120D01*
X522455Y362092D01*
X522449Y362090D01*
X522418Y362067D01*
X522398Y362054D01*
X522296Y361993D01*
X522251Y361953D01*
X522234Y361942D01*
X522220Y361926D01*
X522199Y361908D01*
X522192Y361903D01*
X522189Y361899D01*
X522175Y361887D01*
X521106Y360818D01*
X518969Y359933D01*
X516656Y359933D01*
X514519Y360818D01*
X513562Y361775D01*
X513468Y361848D01*
X513378Y361926D01*
X513342Y361945D01*
X513310Y361970D01*
X513201Y362017D01*
X513095Y362071D01*
X513056Y362080D01*
X513019Y362096D01*
X512901Y362115D01*
X512785Y362141D01*
X512744Y362140D01*
X512704Y362146D01*
X512586Y362135D01*
X512467Y362131D01*
X512428Y362120D01*
X512388Y362116D01*
X512276Y362076D01*
X512161Y362043D01*
X512127Y362022D01*
X512089Y362008D01*
X511990Y361942D01*
X511888Y361881D01*
X511842Y361841D01*
X511825Y361830D01*
X511812Y361815D01*
X511767Y361775D01*
X510397Y360405D01*
X508260Y359520D01*
X505947Y359520D01*
G37*
%LPD*%
%LPC*%
G36*
X522083Y268211D02*
X522083Y268211D01*
X519946Y269096D01*
X518310Y270732D01*
X517425Y272869D01*
X517425Y275182D01*
X518310Y277320D01*
X519946Y278955D01*
X522083Y279840D01*
X523776Y279840D01*
X523894Y279855D01*
X524013Y279863D01*
X524051Y279875D01*
X524092Y279880D01*
X524202Y279924D01*
X524315Y279961D01*
X524350Y279982D01*
X524387Y279997D01*
X524483Y280067D01*
X524584Y280131D01*
X524612Y280160D01*
X524645Y280184D01*
X524721Y280276D01*
X524802Y280363D01*
X524822Y280398D01*
X524847Y280429D01*
X524898Y280537D01*
X524956Y280641D01*
X524966Y280680D01*
X524983Y280717D01*
X525005Y280834D01*
X525035Y280949D01*
X525039Y281009D01*
X525043Y281029D01*
X525041Y281050D01*
X525045Y281110D01*
X525045Y282611D01*
X525042Y282641D01*
X525044Y282670D01*
X525022Y282798D01*
X525005Y282927D01*
X524995Y282954D01*
X524990Y282984D01*
X524936Y283102D01*
X524888Y283223D01*
X524871Y283247D01*
X524859Y283274D01*
X524778Y283375D01*
X524702Y283480D01*
X524679Y283499D01*
X524660Y283522D01*
X524557Y283600D01*
X524457Y283683D01*
X524430Y283695D01*
X524406Y283713D01*
X524262Y283784D01*
X522211Y284634D01*
X520575Y286269D01*
X519690Y288406D01*
X519690Y290720D01*
X520575Y292857D01*
X522211Y294493D01*
X524348Y295378D01*
X526661Y295378D01*
X528798Y294493D01*
X530434Y292857D01*
X531319Y290720D01*
X531319Y288892D01*
X531323Y288862D01*
X531321Y288833D01*
X531343Y288705D01*
X531359Y288576D01*
X531370Y288549D01*
X531375Y288520D01*
X531428Y288401D01*
X531476Y288280D01*
X531493Y288257D01*
X531506Y288230D01*
X531587Y288128D01*
X531663Y288023D01*
X531686Y288004D01*
X531704Y287981D01*
X531808Y287903D01*
X531908Y287820D01*
X531935Y287808D01*
X531958Y287790D01*
X532103Y287719D01*
X534154Y286870D01*
X535790Y285234D01*
X536675Y283097D01*
X536675Y280783D01*
X535790Y278646D01*
X534154Y277010D01*
X532017Y276125D01*
X530324Y276125D01*
X530206Y276110D01*
X530087Y276103D01*
X530049Y276090D01*
X530008Y276085D01*
X529898Y276042D01*
X529785Y276005D01*
X529750Y275983D01*
X529713Y275968D01*
X529617Y275899D01*
X529516Y275835D01*
X529488Y275805D01*
X529455Y275782D01*
X529379Y275690D01*
X529298Y275603D01*
X529278Y275568D01*
X529253Y275537D01*
X529202Y275429D01*
X529144Y275325D01*
X529134Y275285D01*
X529117Y275249D01*
X529095Y275132D01*
X529065Y275017D01*
X529061Y274957D01*
X529057Y274937D01*
X529059Y274916D01*
X529055Y274856D01*
X529055Y272869D01*
X528170Y270732D01*
X526534Y269096D01*
X524397Y268211D01*
X522083Y268211D01*
G37*
%LPD*%
%LPC*%
G36*
X402358Y299791D02*
X402358Y299791D01*
X399584Y300940D01*
X397460Y303064D01*
X396311Y305838D01*
X396311Y308842D01*
X397460Y311616D01*
X399584Y313740D01*
X402358Y314889D01*
X405362Y314889D01*
X408136Y313740D01*
X410260Y311616D01*
X411246Y309235D01*
X411315Y309114D01*
X411380Y308991D01*
X411393Y308976D01*
X411403Y308959D01*
X411500Y308859D01*
X411594Y308756D01*
X411611Y308745D01*
X411625Y308730D01*
X411743Y308658D01*
X411859Y308581D01*
X411879Y308575D01*
X411896Y308564D01*
X412028Y308523D01*
X412160Y308478D01*
X412180Y308476D01*
X412200Y308470D01*
X412338Y308464D01*
X412477Y308453D01*
X412497Y308456D01*
X412517Y308455D01*
X412653Y308483D01*
X412790Y308507D01*
X412809Y308515D01*
X412829Y308519D01*
X412954Y308581D01*
X413080Y308638D01*
X413096Y308650D01*
X413114Y308659D01*
X413221Y308750D01*
X413329Y308836D01*
X413341Y308852D01*
X413356Y308866D01*
X413437Y308979D01*
X413520Y309090D01*
X413533Y309116D01*
X413540Y309126D01*
X413547Y309145D01*
X413591Y309235D01*
X414170Y310634D01*
X415806Y312270D01*
X417943Y313155D01*
X420257Y313155D01*
X422394Y312270D01*
X424030Y310634D01*
X424915Y308497D01*
X424915Y306183D01*
X424030Y304046D01*
X422394Y302410D01*
X420257Y301525D01*
X417943Y301525D01*
X415806Y302410D01*
X414170Y304046D01*
X413591Y305445D01*
X413522Y305566D01*
X413457Y305689D01*
X413444Y305704D01*
X413434Y305721D01*
X413337Y305821D01*
X413243Y305924D01*
X413226Y305935D01*
X413212Y305950D01*
X413094Y306022D01*
X412978Y306099D01*
X412958Y306105D01*
X412941Y306116D01*
X412809Y306157D01*
X412677Y306202D01*
X412656Y306204D01*
X412637Y306210D01*
X412499Y306216D01*
X412360Y306227D01*
X412340Y306224D01*
X412320Y306225D01*
X412184Y306197D01*
X412046Y306173D01*
X412028Y306165D01*
X412008Y306161D01*
X411883Y306099D01*
X411756Y306042D01*
X411741Y306030D01*
X411722Y306021D01*
X411616Y305930D01*
X411508Y305844D01*
X411496Y305828D01*
X411480Y305814D01*
X411400Y305701D01*
X411317Y305590D01*
X411304Y305564D01*
X411297Y305554D01*
X411290Y305535D01*
X411246Y305445D01*
X410260Y303064D01*
X408136Y300940D01*
X405362Y299791D01*
X402358Y299791D01*
G37*
%LPD*%
%LPC*%
G36*
X641463Y83085D02*
X641463Y83085D01*
X639326Y83970D01*
X637690Y85606D01*
X636805Y87743D01*
X636805Y90057D01*
X637690Y92194D01*
X639326Y93830D01*
X641463Y94715D01*
X643272Y94715D01*
X643410Y94732D01*
X643549Y94745D01*
X643568Y94752D01*
X643588Y94755D01*
X643717Y94806D01*
X643848Y94853D01*
X643865Y94864D01*
X643883Y94872D01*
X643996Y94953D01*
X644111Y95031D01*
X644124Y95047D01*
X644141Y95058D01*
X644229Y95166D01*
X644321Y95270D01*
X644331Y95288D01*
X644343Y95303D01*
X644403Y95429D01*
X644466Y95553D01*
X644470Y95573D01*
X644479Y95591D01*
X644505Y95728D01*
X644536Y95863D01*
X644535Y95884D01*
X644539Y95903D01*
X644530Y96042D01*
X644526Y96181D01*
X644520Y96201D01*
X644519Y96221D01*
X644476Y96353D01*
X644437Y96487D01*
X644427Y96504D01*
X644421Y96523D01*
X644346Y96641D01*
X644276Y96761D01*
X644257Y96782D01*
X644251Y96792D01*
X644236Y96806D01*
X644169Y96882D01*
X644168Y96883D01*
X643283Y99020D01*
X643283Y101333D01*
X644168Y103470D01*
X645804Y105106D01*
X647941Y105991D01*
X650254Y105991D01*
X652392Y105106D01*
X654027Y103470D01*
X654913Y101333D01*
X654913Y99020D01*
X654027Y96883D01*
X652392Y95247D01*
X650254Y94362D01*
X648446Y94362D01*
X648308Y94344D01*
X648169Y94331D01*
X648150Y94324D01*
X648130Y94322D01*
X648001Y94271D01*
X647870Y94224D01*
X647853Y94212D01*
X647835Y94205D01*
X647722Y94123D01*
X647607Y94045D01*
X647594Y94030D01*
X647577Y94018D01*
X647488Y93911D01*
X647396Y93807D01*
X647387Y93789D01*
X647374Y93773D01*
X647315Y93647D01*
X647252Y93523D01*
X647247Y93504D01*
X647239Y93485D01*
X647213Y93349D01*
X647182Y93213D01*
X647183Y93193D01*
X647179Y93173D01*
X647188Y93034D01*
X647192Y92895D01*
X647198Y92876D01*
X647199Y92856D01*
X647242Y92723D01*
X647280Y92590D01*
X647291Y92572D01*
X647297Y92553D01*
X647371Y92435D01*
X647442Y92316D01*
X647460Y92295D01*
X647467Y92284D01*
X647482Y92270D01*
X647548Y92195D01*
X647550Y92194D01*
X648435Y90057D01*
X648435Y87743D01*
X647550Y85606D01*
X645914Y83970D01*
X643777Y83085D01*
X641463Y83085D01*
G37*
%LPD*%
%LPC*%
G36*
X487332Y558041D02*
X487332Y558041D01*
X485195Y558927D01*
X483559Y560562D01*
X482674Y562700D01*
X482674Y565013D01*
X483559Y567150D01*
X485195Y568786D01*
X485418Y568878D01*
X485538Y568947D01*
X485661Y569012D01*
X485676Y569026D01*
X485694Y569036D01*
X485794Y569132D01*
X485897Y569226D01*
X485908Y569243D01*
X485922Y569257D01*
X485995Y569376D01*
X486071Y569492D01*
X486078Y569511D01*
X486088Y569528D01*
X486129Y569661D01*
X486175Y569792D01*
X486176Y569813D01*
X486182Y569832D01*
X486189Y569971D01*
X486200Y570109D01*
X486196Y570129D01*
X486197Y570150D01*
X486169Y570286D01*
X486145Y570423D01*
X486137Y570441D01*
X486133Y570461D01*
X486072Y570586D01*
X486015Y570713D01*
X486002Y570729D01*
X485993Y570747D01*
X485903Y570852D01*
X485816Y570961D01*
X485800Y570973D01*
X485787Y570989D01*
X485674Y571068D01*
X485562Y571152D01*
X485537Y571165D01*
X485527Y571172D01*
X485508Y571179D01*
X485418Y571223D01*
X484386Y571650D01*
X482750Y573286D01*
X481865Y575423D01*
X481865Y577737D01*
X482750Y579874D01*
X484386Y581510D01*
X486523Y582395D01*
X488837Y582395D01*
X490974Y581510D01*
X492610Y579874D01*
X493495Y577737D01*
X493495Y575423D01*
X492610Y573286D01*
X490974Y571651D01*
X490751Y571558D01*
X490695Y571526D01*
X490669Y571516D01*
X490639Y571495D01*
X490630Y571489D01*
X490507Y571424D01*
X490492Y571411D01*
X490475Y571401D01*
X490375Y571304D01*
X490272Y571210D01*
X490261Y571193D01*
X490246Y571179D01*
X490173Y571060D01*
X490097Y570945D01*
X490091Y570926D01*
X490080Y570908D01*
X490039Y570775D01*
X489994Y570644D01*
X489992Y570624D01*
X489986Y570604D01*
X489980Y570466D01*
X489969Y570327D01*
X489972Y570307D01*
X489971Y570287D01*
X489999Y570150D01*
X490023Y570013D01*
X490031Y569995D01*
X490035Y569975D01*
X490097Y569850D01*
X490154Y569723D01*
X490166Y569708D01*
X490175Y569689D01*
X490265Y569584D01*
X490352Y569475D01*
X490368Y569463D01*
X490381Y569447D01*
X490495Y569368D01*
X490606Y569284D01*
X490632Y569271D01*
X490641Y569264D01*
X490661Y569257D01*
X490751Y569213D01*
X491782Y568786D01*
X493418Y567150D01*
X494303Y565013D01*
X494303Y562700D01*
X493418Y560562D01*
X491782Y558927D01*
X489645Y558041D01*
X487332Y558041D01*
G37*
%LPD*%
%LPC*%
G36*
X530009Y571634D02*
X530009Y571634D01*
X527872Y572519D01*
X526236Y574155D01*
X525351Y576292D01*
X525351Y578605D01*
X526236Y580742D01*
X527872Y582378D01*
X528916Y582811D01*
X529037Y582880D01*
X529160Y582945D01*
X529175Y582958D01*
X529193Y582968D01*
X529292Y583065D01*
X529395Y583158D01*
X529406Y583175D01*
X529421Y583189D01*
X529494Y583308D01*
X529570Y583424D01*
X529577Y583443D01*
X529587Y583461D01*
X529628Y583593D01*
X529673Y583725D01*
X529675Y583745D01*
X529681Y583764D01*
X529687Y583903D01*
X529698Y584042D01*
X529695Y584062D01*
X529696Y584082D01*
X529668Y584218D01*
X529644Y584355D01*
X529636Y584374D01*
X529632Y584394D01*
X529570Y584519D01*
X529513Y584645D01*
X529501Y584661D01*
X529492Y584679D01*
X529402Y584785D01*
X529315Y584894D01*
X529299Y584906D01*
X529286Y584921D01*
X529172Y585002D01*
X529061Y585085D01*
X529036Y585097D01*
X529026Y585104D01*
X529006Y585112D01*
X528916Y585156D01*
X528103Y585493D01*
X526467Y587128D01*
X525582Y589265D01*
X525582Y591579D01*
X526467Y593716D01*
X528103Y595352D01*
X530240Y596237D01*
X532554Y596237D01*
X534691Y595352D01*
X536327Y593716D01*
X537212Y591579D01*
X537212Y589265D01*
X536327Y587128D01*
X534691Y585493D01*
X533646Y585060D01*
X533525Y584991D01*
X533402Y584926D01*
X533387Y584912D01*
X533370Y584902D01*
X533270Y584806D01*
X533167Y584712D01*
X533156Y584695D01*
X533141Y584681D01*
X533069Y584563D01*
X532992Y584446D01*
X532986Y584427D01*
X532975Y584410D01*
X532934Y584277D01*
X532889Y584146D01*
X532888Y584125D01*
X532882Y584106D01*
X532875Y583967D01*
X532864Y583829D01*
X532867Y583809D01*
X532866Y583788D01*
X532895Y583652D01*
X532918Y583515D01*
X532927Y583497D01*
X532931Y583477D01*
X532992Y583352D01*
X533049Y583225D01*
X533062Y583209D01*
X533070Y583191D01*
X533161Y583085D01*
X533247Y582977D01*
X533264Y582965D01*
X533277Y582949D01*
X533391Y582869D01*
X533502Y582786D01*
X533527Y582773D01*
X533537Y582766D01*
X533556Y582759D01*
X533646Y582715D01*
X534459Y582378D01*
X536095Y580742D01*
X536980Y578605D01*
X536980Y576292D01*
X536095Y574155D01*
X534459Y572519D01*
X532322Y571634D01*
X530009Y571634D01*
G37*
%LPD*%
%LPC*%
G36*
X524604Y539359D02*
X524604Y539359D01*
X522467Y540244D01*
X520831Y541880D01*
X519946Y544017D01*
X519946Y546330D01*
X520831Y548467D01*
X522467Y550103D01*
X524604Y550988D01*
X527109Y550988D01*
X527247Y551006D01*
X527385Y551019D01*
X527404Y551025D01*
X527425Y551028D01*
X527554Y551079D01*
X527685Y551126D01*
X527702Y551138D01*
X527720Y551145D01*
X527833Y551227D01*
X527948Y551305D01*
X527961Y551320D01*
X527978Y551332D01*
X528066Y551439D01*
X528158Y551543D01*
X528167Y551561D01*
X528180Y551577D01*
X528240Y551703D01*
X528303Y551826D01*
X528307Y551846D01*
X528316Y551865D01*
X528342Y552001D01*
X528373Y552137D01*
X528372Y552157D01*
X528376Y552177D01*
X528367Y552315D01*
X528363Y552455D01*
X528357Y552474D01*
X528356Y552494D01*
X528313Y552626D01*
X528274Y552760D01*
X528264Y552778D01*
X528258Y552797D01*
X528183Y552914D01*
X528113Y553034D01*
X528094Y553055D01*
X528088Y553065D01*
X528073Y553080D01*
X528007Y553155D01*
X526931Y554231D01*
X526046Y556368D01*
X526046Y558681D01*
X526931Y560818D01*
X528567Y562454D01*
X530704Y563339D01*
X533017Y563339D01*
X535154Y562454D01*
X536790Y560818D01*
X537675Y558681D01*
X537675Y556368D01*
X536790Y554231D01*
X535154Y552595D01*
X533017Y551710D01*
X530512Y551710D01*
X530374Y551692D01*
X530235Y551679D01*
X530216Y551672D01*
X530196Y551670D01*
X530067Y551619D01*
X529936Y551572D01*
X529919Y551560D01*
X529900Y551553D01*
X529788Y551471D01*
X529673Y551393D01*
X529659Y551378D01*
X529643Y551366D01*
X529554Y551259D01*
X529462Y551155D01*
X529453Y551137D01*
X529440Y551121D01*
X529381Y550995D01*
X529318Y550871D01*
X529313Y550852D01*
X529305Y550833D01*
X529278Y550697D01*
X529248Y550561D01*
X529249Y550541D01*
X529245Y550521D01*
X529253Y550383D01*
X529258Y550243D01*
X529263Y550224D01*
X529265Y550203D01*
X529307Y550072D01*
X529346Y549938D01*
X529356Y549920D01*
X529363Y549901D01*
X529437Y549783D01*
X529508Y549664D01*
X529526Y549643D01*
X529533Y549632D01*
X529548Y549618D01*
X529614Y549543D01*
X530690Y548467D01*
X531575Y546330D01*
X531575Y544017D01*
X530690Y541880D01*
X529054Y540244D01*
X526917Y539359D01*
X524604Y539359D01*
G37*
%LPD*%
%LPC*%
G36*
X566237Y553026D02*
X566237Y553026D01*
X564100Y553911D01*
X562464Y555547D01*
X562086Y556460D01*
X562061Y556504D01*
X562044Y556550D01*
X561982Y556641D01*
X561928Y556737D01*
X561893Y556772D01*
X561866Y556813D01*
X561783Y556886D01*
X561707Y556965D01*
X561664Y556991D01*
X561627Y557024D01*
X561529Y557074D01*
X561436Y557131D01*
X561388Y557146D01*
X561344Y557169D01*
X561237Y557193D01*
X561132Y557225D01*
X561082Y557227D01*
X561034Y557238D01*
X560924Y557235D01*
X560814Y557240D01*
X560765Y557230D01*
X560716Y557229D01*
X560610Y557198D01*
X560503Y557176D01*
X560458Y557154D01*
X560410Y557140D01*
X560316Y557084D01*
X560217Y557036D01*
X560179Y557004D01*
X560136Y556979D01*
X560015Y556872D01*
X559554Y556410D01*
X557417Y555525D01*
X555103Y555525D01*
X552966Y556410D01*
X551330Y558046D01*
X550445Y560183D01*
X550445Y562497D01*
X551330Y564634D01*
X552966Y566270D01*
X555103Y567155D01*
X557417Y567155D01*
X559554Y566270D01*
X561189Y564634D01*
X561568Y563720D01*
X561593Y563677D01*
X561609Y563630D01*
X561671Y563539D01*
X561726Y563444D01*
X561760Y563408D01*
X561788Y563367D01*
X561870Y563294D01*
X561947Y563215D01*
X561989Y563189D01*
X562026Y563156D01*
X562124Y563106D01*
X562218Y563049D01*
X562265Y563034D01*
X562310Y563012D01*
X562417Y562988D01*
X562522Y562955D01*
X562571Y562953D01*
X562620Y562942D01*
X562730Y562946D01*
X562840Y562940D01*
X562888Y562950D01*
X562938Y562952D01*
X563043Y562982D01*
X563151Y563005D01*
X563196Y563026D01*
X563243Y563040D01*
X563338Y563096D01*
X563437Y563144D01*
X563474Y563177D01*
X563517Y563202D01*
X563638Y563308D01*
X564100Y563770D01*
X566237Y564655D01*
X568550Y564655D01*
X570687Y563770D01*
X572323Y562134D01*
X573208Y559997D01*
X573208Y557684D01*
X572323Y555547D01*
X570687Y553911D01*
X568550Y553026D01*
X566237Y553026D01*
G37*
%LPD*%
%LPC*%
G36*
X610660Y419655D02*
X610660Y419655D01*
X608523Y420540D01*
X606887Y422176D01*
X606002Y424313D01*
X606002Y426626D01*
X606887Y428763D01*
X608523Y430399D01*
X610660Y431284D01*
X610906Y431284D01*
X611024Y431299D01*
X611143Y431307D01*
X611181Y431319D01*
X611221Y431324D01*
X611332Y431368D01*
X611445Y431405D01*
X611480Y431426D01*
X611517Y431441D01*
X611613Y431511D01*
X611714Y431575D01*
X611742Y431604D01*
X611775Y431628D01*
X611850Y431720D01*
X611932Y431806D01*
X611952Y431842D01*
X611977Y431873D01*
X612028Y431981D01*
X612086Y432085D01*
X612096Y432124D01*
X612113Y432161D01*
X612135Y432278D01*
X612165Y432393D01*
X612169Y432453D01*
X612173Y432473D01*
X612171Y432493D01*
X612175Y432554D01*
X612175Y434196D01*
X613060Y436333D01*
X614696Y437969D01*
X616833Y438854D01*
X617947Y438854D01*
X618016Y438863D01*
X618086Y438862D01*
X618173Y438883D01*
X618262Y438894D01*
X618327Y438920D01*
X618395Y438936D01*
X618474Y438978D01*
X618558Y439011D01*
X618614Y439052D01*
X618676Y439085D01*
X618743Y439145D01*
X618800Y439187D01*
X618824Y439148D01*
X618875Y439100D01*
X618919Y439046D01*
X618991Y438991D01*
X619056Y438930D01*
X619117Y438896D01*
X619173Y438854D01*
X619318Y438783D01*
X621284Y437969D01*
X622919Y436333D01*
X623805Y434196D01*
X623805Y431883D01*
X622919Y429746D01*
X621284Y428110D01*
X619147Y427225D01*
X618901Y427225D01*
X618782Y427210D01*
X618664Y427202D01*
X618625Y427190D01*
X618585Y427185D01*
X618474Y427141D01*
X618361Y427104D01*
X618327Y427083D01*
X618289Y427068D01*
X618193Y426998D01*
X618092Y426934D01*
X618065Y426905D01*
X618032Y426881D01*
X617956Y426789D01*
X617874Y426703D01*
X617855Y426667D01*
X617829Y426636D01*
X617778Y426528D01*
X617721Y426424D01*
X617711Y426385D01*
X617694Y426348D01*
X617671Y426232D01*
X617642Y426116D01*
X617638Y426056D01*
X617634Y426036D01*
X617635Y426016D01*
X617631Y425955D01*
X617631Y424313D01*
X616746Y422176D01*
X615110Y420540D01*
X612973Y419655D01*
X610660Y419655D01*
G37*
%LPD*%
%LPC*%
G36*
X496338Y76271D02*
X496338Y76271D01*
X493564Y77420D01*
X491440Y79544D01*
X490291Y82318D01*
X490291Y85322D01*
X491440Y88096D01*
X493564Y90220D01*
X496338Y91369D01*
X499342Y91369D01*
X502116Y90220D01*
X504240Y88096D01*
X505389Y85322D01*
X505389Y82318D01*
X504240Y79544D01*
X502116Y77420D01*
X499342Y76271D01*
X496338Y76271D01*
G37*
%LPD*%
%LPC*%
G36*
X386353Y567807D02*
X386353Y567807D01*
X383579Y568956D01*
X381455Y571079D01*
X380306Y573854D01*
X380306Y576857D01*
X381455Y579631D01*
X383579Y581755D01*
X386353Y582904D01*
X389356Y582904D01*
X392131Y581755D01*
X394254Y579631D01*
X395403Y576857D01*
X395403Y573854D01*
X394254Y571079D01*
X392131Y568956D01*
X389356Y567807D01*
X386353Y567807D01*
G37*
%LPD*%
%LPC*%
G36*
X389658Y393009D02*
X389658Y393009D01*
X386884Y394158D01*
X384760Y396282D01*
X383611Y399056D01*
X383611Y402060D01*
X384760Y404834D01*
X386884Y406958D01*
X389658Y408107D01*
X392662Y408107D01*
X395436Y406958D01*
X397560Y404834D01*
X398709Y402060D01*
X398709Y399056D01*
X397560Y396282D01*
X395436Y394158D01*
X392662Y393009D01*
X389658Y393009D01*
G37*
%LPD*%
%LPC*%
G36*
X290598Y355671D02*
X290598Y355671D01*
X287824Y356820D01*
X285700Y358944D01*
X284551Y361718D01*
X284551Y364722D01*
X285700Y367496D01*
X287824Y369620D01*
X290598Y370769D01*
X293602Y370769D01*
X296376Y369620D01*
X298500Y367496D01*
X299649Y364722D01*
X299649Y361718D01*
X298500Y358944D01*
X296376Y356820D01*
X293602Y355671D01*
X290598Y355671D01*
G37*
%LPD*%
%LPC*%
G36*
X412518Y345511D02*
X412518Y345511D01*
X409744Y346660D01*
X407620Y348784D01*
X406471Y351558D01*
X406471Y354562D01*
X407620Y357336D01*
X409744Y359460D01*
X412518Y360609D01*
X415522Y360609D01*
X418296Y359460D01*
X420420Y357336D01*
X421569Y354562D01*
X421569Y351558D01*
X420420Y348784D01*
X418296Y346660D01*
X415522Y345511D01*
X412518Y345511D01*
G37*
%LPD*%
%LPC*%
G36*
X401900Y636244D02*
X401900Y636244D01*
X399125Y637393D01*
X397002Y639517D01*
X395853Y642291D01*
X395853Y645294D01*
X397002Y648069D01*
X399125Y650192D01*
X401900Y651342D01*
X404903Y651342D01*
X407677Y650192D01*
X409801Y648069D01*
X410950Y645294D01*
X410950Y642291D01*
X409801Y639517D01*
X407677Y637393D01*
X404903Y636244D01*
X401900Y636244D01*
G37*
%LPD*%
%LPC*%
G36*
X234718Y215971D02*
X234718Y215971D01*
X231944Y217120D01*
X229820Y219244D01*
X228671Y222018D01*
X228671Y225022D01*
X229820Y227796D01*
X231944Y229920D01*
X234718Y231069D01*
X237722Y231069D01*
X240496Y229920D01*
X242620Y227796D01*
X243769Y225022D01*
X243769Y222018D01*
X242620Y219244D01*
X240496Y217120D01*
X237722Y215971D01*
X234718Y215971D01*
G37*
%LPD*%
%LPC*%
G36*
X430298Y83891D02*
X430298Y83891D01*
X427524Y85040D01*
X425400Y87164D01*
X424251Y89938D01*
X424251Y92942D01*
X425400Y95716D01*
X427524Y97840D01*
X430298Y98989D01*
X433302Y98989D01*
X436076Y97840D01*
X438200Y95716D01*
X439349Y92942D01*
X439349Y89938D01*
X438200Y87164D01*
X436076Y85040D01*
X433302Y83891D01*
X430298Y83891D01*
G37*
%LPD*%
%LPC*%
G36*
X765578Y81351D02*
X765578Y81351D01*
X762804Y82500D01*
X760680Y84624D01*
X759531Y87398D01*
X759531Y90402D01*
X760680Y93176D01*
X762804Y95300D01*
X765578Y96449D01*
X768582Y96449D01*
X771356Y95300D01*
X773480Y93176D01*
X774629Y90402D01*
X774629Y87398D01*
X773480Y84624D01*
X771356Y82500D01*
X768582Y81351D01*
X765578Y81351D01*
G37*
%LPD*%
%LPC*%
G36*
X567458Y76271D02*
X567458Y76271D01*
X564684Y77420D01*
X562560Y79544D01*
X561411Y82318D01*
X561411Y85322D01*
X562560Y88096D01*
X564684Y90220D01*
X567458Y91369D01*
X570462Y91369D01*
X573236Y90220D01*
X575360Y88096D01*
X576509Y85322D01*
X576509Y82318D01*
X575360Y79544D01*
X573236Y77420D01*
X570462Y76271D01*
X567458Y76271D01*
G37*
%LPD*%
%LPC*%
G36*
X585238Y76271D02*
X585238Y76271D01*
X582464Y77420D01*
X580340Y79544D01*
X579191Y82318D01*
X579191Y85322D01*
X580340Y88096D01*
X582464Y90220D01*
X585238Y91369D01*
X588242Y91369D01*
X591016Y90220D01*
X593140Y88096D01*
X594289Y85322D01*
X594289Y82318D01*
X593140Y79544D01*
X591016Y77420D01*
X588242Y76271D01*
X585238Y76271D01*
G37*
%LPD*%
%LPC*%
G36*
X549678Y76271D02*
X549678Y76271D01*
X546904Y77420D01*
X544780Y79544D01*
X543631Y82318D01*
X543631Y85322D01*
X544780Y88096D01*
X546904Y90220D01*
X549678Y91369D01*
X552682Y91369D01*
X555456Y90220D01*
X557580Y88096D01*
X558729Y85322D01*
X558729Y82318D01*
X557580Y79544D01*
X555456Y77420D01*
X552682Y76271D01*
X549678Y76271D01*
G37*
%LPD*%
%LPC*%
G36*
X387118Y602051D02*
X387118Y602051D01*
X384344Y603200D01*
X382220Y605324D01*
X381071Y608098D01*
X381071Y611102D01*
X382220Y613876D01*
X384344Y616000D01*
X387118Y617149D01*
X390122Y617149D01*
X392896Y616000D01*
X395020Y613876D01*
X396169Y611102D01*
X396169Y608098D01*
X395020Y605324D01*
X392896Y603200D01*
X390122Y602051D01*
X387118Y602051D01*
G37*
%LPD*%
%LPC*%
G36*
X373590Y507106D02*
X373590Y507106D01*
X370815Y508255D01*
X368692Y510379D01*
X367543Y513153D01*
X367543Y516156D01*
X368692Y518931D01*
X370815Y521054D01*
X373590Y522204D01*
X376593Y522204D01*
X379367Y521054D01*
X381491Y518931D01*
X382640Y516156D01*
X382640Y513153D01*
X381491Y510379D01*
X379367Y508255D01*
X376593Y507106D01*
X373590Y507106D01*
G37*
%LPD*%
%LPC*%
G36*
X531898Y76271D02*
X531898Y76271D01*
X529124Y77420D01*
X527000Y79544D01*
X525851Y82318D01*
X525851Y85322D01*
X527000Y88096D01*
X529124Y90220D01*
X531898Y91369D01*
X534902Y91369D01*
X537676Y90220D01*
X539800Y88096D01*
X540949Y85322D01*
X540949Y82318D01*
X539800Y79544D01*
X537676Y77420D01*
X534902Y76271D01*
X531898Y76271D01*
G37*
%LPD*%
%LPC*%
G36*
X389658Y499012D02*
X389658Y499012D01*
X386884Y500161D01*
X384760Y502285D01*
X383611Y505059D01*
X383611Y508062D01*
X384760Y510837D01*
X386884Y512960D01*
X389658Y514109D01*
X392662Y514109D01*
X395436Y512960D01*
X397560Y510837D01*
X398709Y508062D01*
X398709Y505059D01*
X397560Y502285D01*
X395436Y500161D01*
X392662Y499012D01*
X389658Y499012D01*
G37*
%LPD*%
%LPC*%
G36*
X514118Y76271D02*
X514118Y76271D01*
X511344Y77420D01*
X509220Y79544D01*
X508071Y82318D01*
X508071Y85322D01*
X509220Y88096D01*
X511344Y90220D01*
X514118Y91369D01*
X517122Y91369D01*
X519896Y90220D01*
X522020Y88096D01*
X523169Y85322D01*
X523169Y82318D01*
X522020Y79544D01*
X519896Y77420D01*
X517122Y76271D01*
X514118Y76271D01*
G37*
%LPD*%
%LPC*%
G36*
X505923Y482785D02*
X505923Y482785D01*
X503786Y483671D01*
X502150Y485306D01*
X501265Y487444D01*
X501265Y489757D01*
X502150Y491894D01*
X503786Y493530D01*
X505923Y494415D01*
X506873Y494415D01*
X506942Y494424D01*
X507012Y494423D01*
X507099Y494444D01*
X507188Y494455D01*
X507253Y494480D01*
X507321Y494497D01*
X507400Y494539D01*
X507484Y494572D01*
X507540Y494613D01*
X507602Y494645D01*
X507669Y494706D01*
X507741Y494759D01*
X507786Y494812D01*
X507814Y494838D01*
X507853Y494790D01*
X507901Y494714D01*
X507952Y494666D01*
X507996Y494612D01*
X508067Y494558D01*
X508133Y494496D01*
X508194Y494462D01*
X508250Y494420D01*
X508394Y494350D01*
X510374Y493530D01*
X512009Y491894D01*
X512895Y489757D01*
X512895Y487444D01*
X512009Y485306D01*
X510374Y483671D01*
X508236Y482785D01*
X505923Y482785D01*
G37*
%LPD*%
%LPC*%
G36*
X507899Y496416D02*
X507899Y496416D01*
X507851Y496492D01*
X507801Y496540D01*
X507757Y496595D01*
X507685Y496649D01*
X507620Y496710D01*
X507559Y496744D01*
X507503Y496786D01*
X507358Y496857D01*
X505379Y497677D01*
X503743Y499312D01*
X502858Y501450D01*
X502858Y503763D01*
X503743Y505900D01*
X505379Y507536D01*
X507516Y508421D01*
X509829Y508421D01*
X511967Y507536D01*
X513602Y505900D01*
X514487Y503763D01*
X514487Y501450D01*
X513602Y499312D01*
X511967Y497677D01*
X509829Y496791D01*
X508880Y496791D01*
X508811Y496783D01*
X508741Y496784D01*
X508653Y496763D01*
X508564Y496752D01*
X508499Y496726D01*
X508432Y496710D01*
X508352Y496668D01*
X508269Y496635D01*
X508212Y496594D01*
X508151Y496561D01*
X508084Y496500D01*
X508011Y496448D01*
X507967Y496394D01*
X507938Y496368D01*
X507899Y496416D01*
G37*
%LPD*%
%LPC*%
G36*
X618925Y440932D02*
X618925Y440932D01*
X618875Y440979D01*
X618831Y441034D01*
X618759Y441088D01*
X618694Y441150D01*
X618633Y441183D01*
X618577Y441225D01*
X618432Y441296D01*
X616466Y442110D01*
X614830Y443746D01*
X613945Y445883D01*
X613945Y448197D01*
X614830Y450334D01*
X616466Y451970D01*
X618603Y452855D01*
X620917Y452855D01*
X623054Y451970D01*
X624690Y450334D01*
X625575Y448197D01*
X625575Y445883D01*
X624690Y443746D01*
X623054Y442110D01*
X620917Y441225D01*
X619803Y441225D01*
X619734Y441217D01*
X619664Y441218D01*
X619577Y441197D01*
X619488Y441185D01*
X619423Y441160D01*
X619355Y441143D01*
X619276Y441101D01*
X619192Y441068D01*
X619136Y441027D01*
X619074Y440995D01*
X619007Y440934D01*
X618950Y440893D01*
X618925Y440932D01*
G37*
%LPD*%
%LPC*%
G36*
X270623Y657125D02*
X270623Y657125D01*
X268486Y658010D01*
X266850Y659646D01*
X265965Y661783D01*
X265965Y664097D01*
X266850Y666234D01*
X268486Y667870D01*
X270623Y668755D01*
X272937Y668755D01*
X275074Y667870D01*
X276710Y666234D01*
X277595Y664097D01*
X277595Y661783D01*
X276710Y659646D01*
X275074Y658010D01*
X272937Y657125D01*
X270623Y657125D01*
G37*
%LPD*%
%LPC*%
G36*
X557643Y359945D02*
X557643Y359945D01*
X555506Y360830D01*
X553870Y362466D01*
X552985Y364603D01*
X552985Y366917D01*
X553870Y369054D01*
X555506Y370690D01*
X557643Y371575D01*
X559957Y371575D01*
X562094Y370690D01*
X563730Y369054D01*
X564615Y366917D01*
X564615Y364603D01*
X563730Y362466D01*
X562094Y360830D01*
X559957Y359945D01*
X557643Y359945D01*
G37*
%LPD*%
%LPC*%
G36*
X384923Y423445D02*
X384923Y423445D01*
X382786Y424330D01*
X381150Y425966D01*
X380265Y428103D01*
X380265Y430417D01*
X381150Y432554D01*
X382786Y434190D01*
X384923Y435075D01*
X387237Y435075D01*
X389374Y434190D01*
X391010Y432554D01*
X391895Y430417D01*
X391895Y428103D01*
X391010Y425966D01*
X389374Y424330D01*
X387237Y423445D01*
X384923Y423445D01*
G37*
%LPD*%
%LPC*%
G36*
X406891Y393609D02*
X406891Y393609D01*
X404754Y394494D01*
X403119Y396130D01*
X402233Y398267D01*
X402233Y400580D01*
X403119Y402717D01*
X404754Y404353D01*
X406891Y405238D01*
X409205Y405238D01*
X411342Y404353D01*
X412978Y402717D01*
X413863Y400580D01*
X413863Y398267D01*
X412978Y396130D01*
X411342Y394494D01*
X409205Y393609D01*
X406891Y393609D01*
G37*
%LPD*%
%LPC*%
G36*
X402703Y425985D02*
X402703Y425985D01*
X400566Y426870D01*
X398930Y428506D01*
X398045Y430643D01*
X398045Y432957D01*
X398930Y435094D01*
X400566Y436730D01*
X402703Y437615D01*
X405017Y437615D01*
X407154Y436730D01*
X408790Y435094D01*
X409675Y432957D01*
X409675Y430643D01*
X408790Y428506D01*
X407154Y426870D01*
X405017Y425985D01*
X402703Y425985D01*
G37*
%LPD*%
%LPC*%
G36*
X636383Y400585D02*
X636383Y400585D01*
X634246Y401470D01*
X632610Y403106D01*
X631725Y405243D01*
X631725Y407557D01*
X632610Y409694D01*
X634246Y411330D01*
X636383Y412215D01*
X638697Y412215D01*
X640834Y411330D01*
X642470Y409694D01*
X643355Y407557D01*
X643355Y405243D01*
X642470Y403106D01*
X640834Y401470D01*
X638697Y400585D01*
X636383Y400585D01*
G37*
%LPD*%
%LPC*%
G36*
X438263Y342165D02*
X438263Y342165D01*
X436126Y343050D01*
X434490Y344686D01*
X433605Y346823D01*
X433605Y349137D01*
X434490Y351274D01*
X436126Y352910D01*
X438263Y353795D01*
X440577Y353795D01*
X442714Y352910D01*
X444350Y351274D01*
X445235Y349137D01*
X445235Y346823D01*
X444350Y344686D01*
X442714Y343050D01*
X440577Y342165D01*
X438263Y342165D01*
G37*
%LPD*%
%LPC*%
G36*
X609987Y489756D02*
X609987Y489756D01*
X607850Y490641D01*
X606214Y492277D01*
X605329Y494414D01*
X605329Y496727D01*
X606214Y498864D01*
X607850Y500500D01*
X609987Y501385D01*
X612300Y501385D01*
X614438Y500500D01*
X616073Y498864D01*
X616959Y496727D01*
X616959Y494414D01*
X616073Y492277D01*
X614438Y490641D01*
X612300Y489756D01*
X609987Y489756D01*
G37*
%LPD*%
%LPC*%
G36*
X664323Y62765D02*
X664323Y62765D01*
X662186Y63650D01*
X660550Y65286D01*
X659665Y67423D01*
X659665Y69737D01*
X660550Y71874D01*
X662186Y73510D01*
X664323Y74395D01*
X666637Y74395D01*
X668774Y73510D01*
X670410Y71874D01*
X671295Y69737D01*
X671295Y67423D01*
X670410Y65286D01*
X668774Y63650D01*
X666637Y62765D01*
X664323Y62765D01*
G37*
%LPD*%
%LPC*%
G36*
X270623Y621565D02*
X270623Y621565D01*
X268486Y622450D01*
X266850Y624086D01*
X265965Y626223D01*
X265965Y628537D01*
X266850Y630674D01*
X268486Y632310D01*
X270623Y633195D01*
X272937Y633195D01*
X275074Y632310D01*
X276710Y630674D01*
X277595Y628537D01*
X277595Y626223D01*
X276710Y624086D01*
X275074Y622450D01*
X272937Y621565D01*
X270623Y621565D01*
G37*
%LPD*%
%LPC*%
G36*
X776083Y603785D02*
X776083Y603785D01*
X773946Y604670D01*
X772310Y606306D01*
X771425Y608443D01*
X771425Y610757D01*
X772310Y612894D01*
X773946Y614530D01*
X776083Y615415D01*
X778397Y615415D01*
X780534Y614530D01*
X782170Y612894D01*
X783055Y610757D01*
X783055Y608443D01*
X782170Y606306D01*
X780534Y604670D01*
X778397Y603785D01*
X776083Y603785D01*
G37*
%LPD*%
%LPC*%
G36*
X654865Y597622D02*
X654865Y597622D01*
X652728Y598507D01*
X651092Y600143D01*
X650207Y602280D01*
X650207Y604594D01*
X651092Y606731D01*
X652728Y608367D01*
X654865Y609252D01*
X657178Y609252D01*
X659315Y608367D01*
X660951Y606731D01*
X661836Y604594D01*
X661836Y602280D01*
X660951Y600143D01*
X659315Y598507D01*
X657178Y597622D01*
X654865Y597622D01*
G37*
%LPD*%
%LPC*%
G36*
X418917Y596206D02*
X418917Y596206D01*
X416780Y597091D01*
X415144Y598727D01*
X414259Y600864D01*
X414259Y603177D01*
X415144Y605314D01*
X416780Y606950D01*
X418917Y607835D01*
X421230Y607835D01*
X423367Y606950D01*
X425003Y605314D01*
X425888Y603177D01*
X425888Y600864D01*
X425003Y598727D01*
X423367Y597091D01*
X421230Y596206D01*
X418917Y596206D01*
G37*
%LPD*%
%LPC*%
G36*
X743063Y593625D02*
X743063Y593625D01*
X740926Y594510D01*
X739290Y596146D01*
X738405Y598283D01*
X738405Y600597D01*
X739290Y602734D01*
X740926Y604370D01*
X743063Y605255D01*
X745377Y605255D01*
X747514Y604370D01*
X749150Y602734D01*
X750035Y600597D01*
X750035Y598283D01*
X749150Y596146D01*
X747514Y594510D01*
X745377Y593625D01*
X743063Y593625D01*
G37*
%LPD*%
%LPC*%
G36*
X494143Y591085D02*
X494143Y591085D01*
X492006Y591970D01*
X490370Y593606D01*
X489485Y595743D01*
X489485Y598057D01*
X490370Y600194D01*
X492006Y601830D01*
X494143Y602715D01*
X496457Y602715D01*
X498594Y601830D01*
X500230Y600194D01*
X501115Y598057D01*
X501115Y595743D01*
X500230Y593606D01*
X498594Y591970D01*
X496457Y591085D01*
X494143Y591085D01*
G37*
%LPD*%
%LPC*%
G36*
X259210Y569051D02*
X259210Y569051D01*
X257073Y569936D01*
X255437Y571572D01*
X254552Y573709D01*
X254552Y576022D01*
X255437Y578160D01*
X257073Y579795D01*
X259210Y580681D01*
X261523Y580681D01*
X263661Y579795D01*
X265296Y578160D01*
X266181Y576022D01*
X266181Y573709D01*
X265296Y571572D01*
X263661Y569936D01*
X261523Y569051D01*
X259210Y569051D01*
G37*
%LPD*%
%LPC*%
G36*
X283323Y558065D02*
X283323Y558065D01*
X281186Y558950D01*
X279550Y560586D01*
X278665Y562723D01*
X278665Y565037D01*
X279550Y567174D01*
X281186Y568810D01*
X283323Y569695D01*
X285637Y569695D01*
X287774Y568810D01*
X289410Y567174D01*
X290295Y565037D01*
X290295Y562723D01*
X289410Y560586D01*
X287774Y558950D01*
X285637Y558065D01*
X283323Y558065D01*
G37*
%LPD*%
%LPC*%
G36*
X699883Y552985D02*
X699883Y552985D01*
X697746Y553870D01*
X696110Y555506D01*
X695225Y557643D01*
X695225Y559957D01*
X696110Y562094D01*
X697746Y563730D01*
X699883Y564615D01*
X702197Y564615D01*
X704334Y563730D01*
X705970Y562094D01*
X706855Y559957D01*
X706855Y557643D01*
X705970Y555506D01*
X704334Y553870D01*
X702197Y552985D01*
X699883Y552985D01*
G37*
%LPD*%
%LPC*%
G36*
X468743Y537745D02*
X468743Y537745D01*
X466606Y538630D01*
X464970Y540266D01*
X464085Y542403D01*
X464085Y544717D01*
X464970Y546854D01*
X466606Y548490D01*
X468743Y549375D01*
X471057Y549375D01*
X473194Y548490D01*
X474830Y546854D01*
X475715Y544717D01*
X475715Y542403D01*
X474830Y540266D01*
X473194Y538630D01*
X471057Y537745D01*
X468743Y537745D01*
G37*
%LPD*%
%LPC*%
G36*
X392543Y527585D02*
X392543Y527585D01*
X390406Y528470D01*
X388770Y530106D01*
X387885Y532243D01*
X387885Y534557D01*
X388770Y536694D01*
X390406Y538330D01*
X392543Y539215D01*
X394857Y539215D01*
X396994Y538330D01*
X398630Y536694D01*
X399515Y534557D01*
X399515Y532243D01*
X398630Y530106D01*
X396994Y528470D01*
X394857Y527585D01*
X392543Y527585D01*
G37*
%LPD*%
%LPC*%
G36*
X476363Y522505D02*
X476363Y522505D01*
X474226Y523390D01*
X472590Y525026D01*
X471705Y527163D01*
X471705Y529477D01*
X472590Y531614D01*
X474226Y533250D01*
X476363Y534135D01*
X478677Y534135D01*
X480814Y533250D01*
X482450Y531614D01*
X483335Y529477D01*
X483335Y527163D01*
X482450Y525026D01*
X480814Y523390D01*
X478677Y522505D01*
X476363Y522505D01*
G37*
%LPD*%
%LPC*%
G36*
X290801Y520810D02*
X290801Y520810D01*
X288664Y521695D01*
X287029Y523331D01*
X286143Y525468D01*
X286143Y527781D01*
X287029Y529918D01*
X288664Y531554D01*
X290801Y532439D01*
X293115Y532439D01*
X295252Y531554D01*
X296888Y529918D01*
X297773Y527781D01*
X297773Y525468D01*
X296888Y523331D01*
X295252Y521695D01*
X293115Y520810D01*
X290801Y520810D01*
G37*
%LPD*%
%LPC*%
G36*
X605903Y519965D02*
X605903Y519965D01*
X603766Y520850D01*
X602130Y522486D01*
X601245Y524623D01*
X601245Y526937D01*
X602130Y529074D01*
X603766Y530710D01*
X605903Y531595D01*
X608217Y531595D01*
X610354Y530710D01*
X611990Y529074D01*
X612875Y526937D01*
X612875Y524623D01*
X611990Y522486D01*
X610354Y520850D01*
X608217Y519965D01*
X605903Y519965D01*
G37*
%LPD*%
%LPC*%
G36*
X450963Y509805D02*
X450963Y509805D01*
X448826Y510690D01*
X447190Y512326D01*
X446305Y514463D01*
X446305Y516777D01*
X447190Y518914D01*
X448826Y520550D01*
X450963Y521435D01*
X453277Y521435D01*
X455414Y520550D01*
X457050Y518914D01*
X457935Y516777D01*
X457935Y514463D01*
X457050Y512326D01*
X455414Y510690D01*
X453277Y509805D01*
X450963Y509805D01*
G37*
%LPD*%
%LPC*%
G36*
X554386Y500746D02*
X554386Y500746D01*
X552249Y501631D01*
X550614Y503267D01*
X549728Y505404D01*
X549728Y507717D01*
X550614Y509854D01*
X552249Y511490D01*
X554386Y512375D01*
X556700Y512375D01*
X558837Y511490D01*
X560473Y509854D01*
X561358Y507717D01*
X561358Y505404D01*
X560473Y503267D01*
X558837Y501631D01*
X556700Y500746D01*
X554386Y500746D01*
G37*
%LPD*%
%LPC*%
G36*
X645205Y320716D02*
X645205Y320716D01*
X643068Y321601D01*
X641432Y323237D01*
X640547Y325374D01*
X640547Y327687D01*
X641432Y329825D01*
X643068Y331460D01*
X645205Y332345D01*
X647518Y332345D01*
X649655Y331460D01*
X651291Y329825D01*
X652176Y327687D01*
X652176Y325374D01*
X651291Y323237D01*
X649655Y321601D01*
X647518Y320716D01*
X645205Y320716D01*
G37*
%LPD*%
%LPC*%
G36*
X575423Y316765D02*
X575423Y316765D01*
X573286Y317650D01*
X571650Y319286D01*
X570765Y321423D01*
X570765Y323737D01*
X571650Y325874D01*
X573286Y327510D01*
X575423Y328395D01*
X577737Y328395D01*
X579874Y327510D01*
X581510Y325874D01*
X582395Y323737D01*
X582395Y321423D01*
X581510Y319286D01*
X579874Y317650D01*
X577737Y316765D01*
X575423Y316765D01*
G37*
%LPD*%
%LPC*%
G36*
X557643Y441225D02*
X557643Y441225D01*
X555506Y442110D01*
X553870Y443746D01*
X552985Y445883D01*
X552985Y448197D01*
X553870Y450334D01*
X555506Y451970D01*
X557643Y452855D01*
X559957Y452855D01*
X562094Y451970D01*
X563730Y450334D01*
X564615Y448197D01*
X564615Y445883D01*
X563730Y443746D01*
X562094Y442110D01*
X559957Y441225D01*
X557643Y441225D01*
G37*
%LPD*%
%LPC*%
G36*
X478903Y448845D02*
X478903Y448845D01*
X476766Y449730D01*
X475130Y451366D01*
X474245Y453503D01*
X474245Y455817D01*
X475130Y457954D01*
X476766Y459590D01*
X478903Y460475D01*
X481217Y460475D01*
X483354Y459590D01*
X484990Y457954D01*
X485875Y455817D01*
X485875Y453503D01*
X484990Y451366D01*
X483354Y449730D01*
X481217Y448845D01*
X478903Y448845D01*
G37*
%LPD*%
%LPC*%
G36*
X478903Y301525D02*
X478903Y301525D01*
X476766Y302410D01*
X475130Y304046D01*
X474245Y306183D01*
X474245Y308497D01*
X475130Y310634D01*
X476766Y312270D01*
X478903Y313155D01*
X481217Y313155D01*
X483354Y312270D01*
X484990Y310634D01*
X485875Y308497D01*
X485875Y306183D01*
X484990Y304046D01*
X483354Y302410D01*
X481217Y301525D01*
X478903Y301525D01*
G37*
%LPD*%
%LPC*%
G36*
X644144Y292925D02*
X644144Y292925D01*
X642007Y293810D01*
X640371Y295446D01*
X639486Y297583D01*
X639486Y299896D01*
X640371Y302033D01*
X642007Y303669D01*
X644144Y304554D01*
X646458Y304554D01*
X648595Y303669D01*
X650230Y302033D01*
X651116Y299896D01*
X651116Y297583D01*
X650230Y295446D01*
X648595Y293810D01*
X646458Y292925D01*
X644144Y292925D01*
G37*
%LPD*%
%LPC*%
G36*
X370741Y283769D02*
X370741Y283769D01*
X368604Y284654D01*
X366968Y286290D01*
X366083Y288427D01*
X366083Y290740D01*
X366968Y292877D01*
X368604Y294513D01*
X370741Y295398D01*
X373054Y295398D01*
X375191Y294513D01*
X376827Y292877D01*
X377712Y290740D01*
X377712Y288427D01*
X376827Y286290D01*
X375191Y284654D01*
X373054Y283769D01*
X370741Y283769D01*
G37*
%LPD*%
%LPC*%
G36*
X658414Y457863D02*
X658414Y457863D01*
X656277Y458748D01*
X654641Y460384D01*
X653756Y462521D01*
X653756Y464835D01*
X654641Y466972D01*
X656277Y468607D01*
X658414Y469493D01*
X660727Y469493D01*
X662864Y468607D01*
X664500Y466972D01*
X665385Y464835D01*
X665385Y462521D01*
X664500Y460384D01*
X662864Y458748D01*
X660727Y457863D01*
X658414Y457863D01*
G37*
%LPD*%
%LPC*%
G36*
X547483Y268505D02*
X547483Y268505D01*
X545346Y269390D01*
X543710Y271026D01*
X542825Y273163D01*
X542825Y275477D01*
X543710Y277614D01*
X545346Y279250D01*
X547483Y280135D01*
X549797Y280135D01*
X551934Y279250D01*
X553570Y277614D01*
X554455Y275477D01*
X554455Y273163D01*
X553570Y271026D01*
X551934Y269390D01*
X549797Y268505D01*
X547483Y268505D01*
G37*
%LPD*%
%LPC*%
G36*
X458308Y253268D02*
X458308Y253268D01*
X456171Y254154D01*
X454535Y255789D01*
X453650Y257926D01*
X453650Y260240D01*
X454535Y262377D01*
X456171Y264013D01*
X458308Y264898D01*
X460621Y264898D01*
X462758Y264013D01*
X464394Y262377D01*
X465279Y260240D01*
X465279Y257926D01*
X464394Y255789D01*
X462758Y254154D01*
X460621Y253268D01*
X458308Y253268D01*
G37*
%LPD*%
%LPC*%
G36*
X555103Y420905D02*
X555103Y420905D01*
X552966Y421790D01*
X551330Y423426D01*
X550445Y425563D01*
X550445Y427877D01*
X551330Y430014D01*
X552966Y431650D01*
X555103Y432535D01*
X557417Y432535D01*
X559554Y431650D01*
X561190Y430014D01*
X562075Y427877D01*
X562075Y425563D01*
X561190Y423426D01*
X559554Y421790D01*
X557417Y420905D01*
X555103Y420905D01*
G37*
%LPD*%
%LPC*%
G36*
X428103Y459005D02*
X428103Y459005D01*
X425966Y459890D01*
X424330Y461526D01*
X423445Y463663D01*
X423445Y465977D01*
X424330Y468114D01*
X425966Y469750D01*
X428103Y470635D01*
X430417Y470635D01*
X432554Y469750D01*
X434190Y468114D01*
X435075Y465977D01*
X435075Y463663D01*
X434190Y461526D01*
X432554Y459890D01*
X430417Y459005D01*
X428103Y459005D01*
G37*
%LPD*%
%LPC*%
G36*
X577963Y466625D02*
X577963Y466625D01*
X575826Y467510D01*
X574190Y469146D01*
X573305Y471283D01*
X573305Y473597D01*
X574190Y475734D01*
X575826Y477370D01*
X577963Y478255D01*
X580277Y478255D01*
X582414Y477370D01*
X584050Y475734D01*
X584935Y473597D01*
X584935Y471283D01*
X584050Y469146D01*
X582414Y467510D01*
X580277Y466625D01*
X577963Y466625D01*
G37*
%LPD*%
%LPC*%
G36*
X471283Y184685D02*
X471283Y184685D01*
X469146Y185570D01*
X467510Y187206D01*
X466625Y189343D01*
X466625Y191657D01*
X467510Y193794D01*
X469146Y195430D01*
X471283Y196315D01*
X473597Y196315D01*
X475734Y195430D01*
X477370Y193794D01*
X478255Y191657D01*
X478255Y189343D01*
X477370Y187206D01*
X475734Y185570D01*
X473597Y184685D01*
X471283Y184685D01*
G37*
%LPD*%
%LPC*%
G36*
X702423Y179605D02*
X702423Y179605D01*
X700286Y180490D01*
X698650Y182126D01*
X697765Y184263D01*
X697765Y186577D01*
X698650Y188714D01*
X700286Y190350D01*
X702423Y191235D01*
X704737Y191235D01*
X706874Y190350D01*
X708510Y188714D01*
X709395Y186577D01*
X709395Y184263D01*
X708510Y182126D01*
X706874Y180490D01*
X704737Y179605D01*
X702423Y179605D01*
G37*
%LPD*%
%LPC*%
G36*
X202043Y177065D02*
X202043Y177065D01*
X199906Y177950D01*
X198270Y179586D01*
X197385Y181723D01*
X197385Y184037D01*
X198270Y186174D01*
X199906Y187810D01*
X202043Y188695D01*
X204357Y188695D01*
X206494Y187810D01*
X208130Y186174D01*
X209015Y184037D01*
X209015Y181723D01*
X208130Y179586D01*
X206494Y177950D01*
X204357Y177065D01*
X202043Y177065D01*
G37*
%LPD*%
%LPC*%
G36*
X202043Y146585D02*
X202043Y146585D01*
X199906Y147470D01*
X198270Y149106D01*
X197385Y151243D01*
X197385Y153557D01*
X198270Y155694D01*
X199906Y157330D01*
X202043Y158215D01*
X204357Y158215D01*
X206494Y157330D01*
X208130Y155694D01*
X209015Y153557D01*
X209015Y151243D01*
X208130Y149106D01*
X206494Y147470D01*
X204357Y146585D01*
X202043Y146585D01*
G37*
%LPD*%
%LPC*%
G36*
X414261Y135002D02*
X414261Y135002D01*
X412124Y135887D01*
X410488Y137523D01*
X409603Y139660D01*
X409603Y141973D01*
X410488Y144110D01*
X412124Y145746D01*
X414261Y146631D01*
X416574Y146631D01*
X418712Y145746D01*
X420347Y144110D01*
X421233Y141973D01*
X421233Y139660D01*
X420347Y137523D01*
X418712Y135887D01*
X416574Y135002D01*
X414261Y135002D01*
G37*
%LPD*%
%LPC*%
G36*
X494143Y131345D02*
X494143Y131345D01*
X492006Y132230D01*
X490370Y133866D01*
X489485Y136003D01*
X489485Y138317D01*
X490370Y140454D01*
X492006Y142090D01*
X494143Y142975D01*
X496457Y142975D01*
X498594Y142090D01*
X500230Y140454D01*
X501115Y138317D01*
X501115Y136003D01*
X500230Y133866D01*
X498594Y132230D01*
X496457Y131345D01*
X494143Y131345D01*
G37*
%LPD*%
%LPC*%
G36*
X626223Y128805D02*
X626223Y128805D01*
X624086Y129690D01*
X622450Y131326D01*
X621565Y133463D01*
X621565Y135777D01*
X622450Y137914D01*
X624086Y139550D01*
X626223Y140435D01*
X628537Y140435D01*
X630674Y139550D01*
X632310Y137914D01*
X633195Y135777D01*
X633195Y133463D01*
X632310Y131326D01*
X630674Y129690D01*
X628537Y128805D01*
X626223Y128805D01*
G37*
%LPD*%
%LPC*%
G36*
X454901Y104522D02*
X454901Y104522D01*
X452764Y105407D01*
X451128Y107043D01*
X450243Y109180D01*
X450243Y111493D01*
X451128Y113630D01*
X452764Y115266D01*
X454901Y116151D01*
X457214Y116151D01*
X459352Y115266D01*
X460987Y113630D01*
X461873Y111493D01*
X461873Y109180D01*
X460987Y107043D01*
X459352Y105407D01*
X457214Y104522D01*
X454901Y104522D01*
G37*
%LPD*%
%LPC*%
G36*
X633843Y100865D02*
X633843Y100865D01*
X631706Y101750D01*
X630070Y103386D01*
X629185Y105523D01*
X629185Y107837D01*
X630070Y109974D01*
X631706Y111610D01*
X633843Y112495D01*
X636157Y112495D01*
X638294Y111610D01*
X639930Y109974D01*
X640815Y107837D01*
X640815Y105523D01*
X639930Y103386D01*
X638294Y101750D01*
X636157Y100865D01*
X633843Y100865D01*
G37*
%LPD*%
%LPC*%
G36*
X578021Y482539D02*
X578021Y482539D01*
X575884Y483424D01*
X574248Y485060D01*
X573363Y487197D01*
X573363Y489510D01*
X574248Y491647D01*
X575884Y493283D01*
X578021Y494168D01*
X580334Y494168D01*
X582471Y493283D01*
X584107Y491647D01*
X584992Y489510D01*
X584992Y487197D01*
X584107Y485060D01*
X582471Y483424D01*
X580334Y482539D01*
X578021Y482539D01*
G37*
%LPD*%
%LPC*%
G36*
X360656Y362552D02*
X360656Y362552D01*
X358519Y363438D01*
X356883Y365073D01*
X355998Y367210D01*
X355998Y369524D01*
X356883Y371661D01*
X358519Y373297D01*
X360656Y374182D01*
X362969Y374182D01*
X365106Y373297D01*
X366742Y371661D01*
X367627Y369524D01*
X367627Y367210D01*
X366742Y365073D01*
X365106Y363438D01*
X362969Y362552D01*
X360656Y362552D01*
G37*
%LPD*%
%LPC*%
G36*
X478903Y85625D02*
X478903Y85625D01*
X476766Y86510D01*
X475130Y88146D01*
X474245Y90283D01*
X474245Y92597D01*
X475130Y94734D01*
X476766Y96370D01*
X478903Y97255D01*
X481217Y97255D01*
X483354Y96370D01*
X484990Y94734D01*
X485875Y92597D01*
X485875Y90283D01*
X484990Y88146D01*
X483354Y86510D01*
X481217Y85625D01*
X478903Y85625D01*
G37*
%LPD*%
%LPC*%
G36*
X331583Y75465D02*
X331583Y75465D01*
X329446Y76350D01*
X327810Y77986D01*
X326925Y80123D01*
X326925Y82437D01*
X327810Y84574D01*
X329446Y86210D01*
X331583Y87095D01*
X333897Y87095D01*
X336034Y86210D01*
X337670Y84574D01*
X338555Y82437D01*
X338555Y80123D01*
X337670Y77986D01*
X336034Y76350D01*
X333897Y75465D01*
X331583Y75465D01*
G37*
%LPD*%
%LPC*%
G36*
X604519Y652779D02*
X604519Y652779D01*
X604519Y660099D01*
X605880Y659656D01*
X607305Y658930D01*
X608599Y657990D01*
X609730Y656859D01*
X610670Y655565D01*
X611396Y654140D01*
X611839Y652779D01*
X604519Y652779D01*
G37*
%LPD*%
%LPC*%
G36*
X629919Y650239D02*
X629919Y650239D01*
X629919Y657559D01*
X631280Y657116D01*
X632705Y656390D01*
X633999Y655450D01*
X635130Y654319D01*
X636070Y653025D01*
X636796Y651600D01*
X637239Y650239D01*
X629919Y650239D01*
G37*
%LPD*%
%LPC*%
G36*
X592121Y652779D02*
X592121Y652779D01*
X592564Y654140D01*
X593290Y655565D01*
X594230Y656859D01*
X595361Y657990D01*
X596655Y658930D01*
X598080Y659656D01*
X599441Y660099D01*
X599441Y652779D01*
X592121Y652779D01*
G37*
%LPD*%
%LPC*%
G36*
X617521Y650239D02*
X617521Y650239D01*
X617964Y651600D01*
X618690Y653025D01*
X619630Y654319D01*
X620761Y655450D01*
X622055Y656390D01*
X623480Y657116D01*
X624841Y657559D01*
X624841Y650239D01*
X617521Y650239D01*
G37*
%LPD*%
%LPC*%
G36*
X604519Y647701D02*
X604519Y647701D01*
X611839Y647701D01*
X611396Y646340D01*
X610670Y644915D01*
X609730Y643621D01*
X608599Y642490D01*
X607305Y641550D01*
X605880Y640824D01*
X604519Y640381D01*
X604519Y647701D01*
G37*
%LPD*%
%LPC*%
G36*
X629919Y645161D02*
X629919Y645161D01*
X637239Y645161D01*
X636796Y643800D01*
X636070Y642375D01*
X635130Y641081D01*
X633999Y639950D01*
X632705Y639010D01*
X631280Y638284D01*
X629919Y637841D01*
X629919Y645161D01*
G37*
%LPD*%
%LPC*%
G36*
X598080Y640824D02*
X598080Y640824D01*
X596655Y641550D01*
X595361Y642490D01*
X594230Y643621D01*
X593290Y644915D01*
X592564Y646340D01*
X592121Y647701D01*
X599441Y647701D01*
X599441Y640381D01*
X598080Y640824D01*
G37*
%LPD*%
%LPC*%
G36*
X623480Y638284D02*
X623480Y638284D01*
X622055Y639010D01*
X620761Y639950D01*
X619630Y641081D01*
X618690Y642375D01*
X617964Y643800D01*
X617521Y645161D01*
X624841Y645161D01*
X624841Y637841D01*
X623480Y638284D01*
G37*
%LPD*%
%LPC*%
G36*
X317484Y61184D02*
X317484Y61184D01*
X317484Y68171D01*
X317545Y68161D01*
X318942Y67707D01*
X320250Y67040D01*
X321438Y66177D01*
X322477Y65138D01*
X323340Y63950D01*
X324007Y62642D01*
X324461Y61245D01*
X324471Y61184D01*
X317484Y61184D01*
G37*
%LPD*%
%LPC*%
G36*
X367484Y61184D02*
X367484Y61184D01*
X367484Y68171D01*
X367545Y68161D01*
X368942Y67707D01*
X370250Y67040D01*
X371438Y66177D01*
X372477Y65138D01*
X373340Y63950D01*
X374007Y62642D01*
X374461Y61245D01*
X374471Y61184D01*
X367484Y61184D01*
G37*
%LPD*%
%LPC*%
G36*
X306249Y61184D02*
X306249Y61184D01*
X306259Y61245D01*
X306713Y62642D01*
X307380Y63950D01*
X308243Y65138D01*
X309282Y66177D01*
X310470Y67040D01*
X311778Y67707D01*
X313175Y68161D01*
X313236Y68171D01*
X313236Y61184D01*
X306249Y61184D01*
G37*
%LPD*%
%LPC*%
G36*
X356249Y61184D02*
X356249Y61184D01*
X356259Y61245D01*
X356713Y62642D01*
X357380Y63950D01*
X358243Y65138D01*
X359282Y66177D01*
X360470Y67040D01*
X361778Y67707D01*
X363175Y68161D01*
X363236Y68171D01*
X363236Y61184D01*
X356249Y61184D01*
G37*
%LPD*%
%LPC*%
G36*
X367484Y56936D02*
X367484Y56936D01*
X374471Y56936D01*
X374461Y56875D01*
X374007Y55478D01*
X373340Y54170D01*
X372477Y52982D01*
X371438Y51943D01*
X370250Y51080D01*
X368942Y50413D01*
X367545Y49959D01*
X367484Y49949D01*
X367484Y56936D01*
G37*
%LPD*%
%LPC*%
G36*
X317484Y56936D02*
X317484Y56936D01*
X324471Y56936D01*
X324461Y56875D01*
X324007Y55478D01*
X323340Y54170D01*
X322477Y52982D01*
X321438Y51943D01*
X320250Y51080D01*
X318942Y50413D01*
X317545Y49959D01*
X317484Y49949D01*
X317484Y56936D01*
G37*
%LPD*%
%LPC*%
G36*
X363175Y49959D02*
X363175Y49959D01*
X361778Y50413D01*
X360470Y51080D01*
X359282Y51943D01*
X358243Y52982D01*
X357380Y54170D01*
X356713Y55478D01*
X356259Y56875D01*
X356249Y56936D01*
X363236Y56936D01*
X363236Y49949D01*
X363175Y49959D01*
G37*
%LPD*%
%LPC*%
G36*
X313175Y49959D02*
X313175Y49959D01*
X311778Y50413D01*
X310470Y51080D01*
X309282Y51943D01*
X308243Y52982D01*
X307380Y54170D01*
X306713Y55478D01*
X306259Y56875D01*
X306249Y56936D01*
X313236Y56936D01*
X313236Y49949D01*
X313175Y49959D01*
G37*
%LPD*%
%LPC*%
G36*
X306859Y33559D02*
X306859Y33559D01*
X306859Y40001D01*
X307717Y39830D01*
X309188Y39221D01*
X310511Y38337D01*
X311637Y37211D01*
X312521Y35888D01*
X313130Y34417D01*
X313301Y33559D01*
X306859Y33559D01*
G37*
%LPD*%
%LPC*%
G36*
X376859Y33559D02*
X376859Y33559D01*
X376859Y40001D01*
X377717Y39830D01*
X379188Y39221D01*
X380511Y38337D01*
X381637Y37211D01*
X382521Y35888D01*
X383130Y34417D01*
X383301Y33559D01*
X376859Y33559D01*
G37*
%LPD*%
%LPC*%
G36*
X297419Y33559D02*
X297419Y33559D01*
X297590Y34417D01*
X298199Y35888D01*
X299083Y37211D01*
X300209Y38337D01*
X301532Y39221D01*
X303003Y39830D01*
X303861Y40001D01*
X303861Y33559D01*
X297419Y33559D01*
G37*
%LPD*%
%LPC*%
G36*
X367419Y33559D02*
X367419Y33559D01*
X367590Y34417D01*
X368199Y35888D01*
X369083Y37211D01*
X370209Y38337D01*
X371532Y39221D01*
X373003Y39830D01*
X373861Y40001D01*
X373861Y33559D01*
X367419Y33559D01*
G37*
%LPD*%
%LPC*%
G36*
X376859Y30561D02*
X376859Y30561D01*
X383301Y30561D01*
X383130Y29703D01*
X382521Y28232D01*
X381637Y26909D01*
X380511Y25783D01*
X379188Y24899D01*
X377717Y24290D01*
X376859Y24119D01*
X376859Y30561D01*
G37*
%LPD*%
%LPC*%
G36*
X306859Y30561D02*
X306859Y30561D01*
X313301Y30561D01*
X313130Y29703D01*
X312521Y28232D01*
X311637Y26909D01*
X310511Y25783D01*
X309188Y24899D01*
X307717Y24290D01*
X306859Y24119D01*
X306859Y30561D01*
G37*
%LPD*%
%LPC*%
G36*
X373003Y24290D02*
X373003Y24290D01*
X371532Y24899D01*
X370209Y25783D01*
X369083Y26909D01*
X368199Y28232D01*
X367590Y29703D01*
X367419Y30561D01*
X373861Y30561D01*
X373861Y24119D01*
X373003Y24290D01*
G37*
%LPD*%
%LPC*%
G36*
X303003Y24290D02*
X303003Y24290D01*
X301532Y24899D01*
X300209Y25783D01*
X299083Y26909D01*
X298199Y28232D01*
X297590Y29703D01*
X297419Y30561D01*
X303861Y30561D01*
X303861Y24119D01*
X303003Y24290D01*
G37*
%LPD*%
%LPC*%
G36*
X601979Y650239D02*
X601979Y650239D01*
X601979Y650241D01*
X601981Y650241D01*
X601981Y650239D01*
X601979Y650239D01*
G37*
%LPD*%
%LPC*%
G36*
X627379Y647699D02*
X627379Y647699D01*
X627379Y647701D01*
X627381Y647701D01*
X627381Y647699D01*
X627379Y647699D01*
G37*
%LPD*%
D10*
X819150Y0D02*
X819150Y88900D01*
X929640Y88900D01*
X930150Y88900D01*
X929640Y622300D02*
X850900Y698500D01*
X152400Y698500D01*
X152400Y284480D01*
X101600Y284480D01*
X101600Y254000D01*
X0Y254000D01*
X0Y76200D01*
X76200Y0D01*
X929640Y88900D02*
X929640Y622300D01*
X819150Y0D02*
X76200Y0D01*
D11*
X869950Y266700D03*
X869950Y539750D03*
D12*
X869950Y614680D03*
X869950Y469900D03*
X869950Y401320D03*
X869950Y335280D03*
X869950Y195580D03*
X869950Y121920D03*
D10*
X855950Y542290D02*
X855954Y542634D01*
X855967Y542977D01*
X855988Y543320D01*
X856017Y543662D01*
X856055Y544004D01*
X856102Y544344D01*
X856156Y544683D01*
X856219Y545021D01*
X856290Y545357D01*
X856370Y545692D01*
X856457Y546024D01*
X856553Y546354D01*
X856657Y546682D01*
X856768Y547006D01*
X856888Y547329D01*
X857016Y547648D01*
X857151Y547963D01*
X857294Y548276D01*
X857445Y548585D01*
X857603Y548890D01*
X857769Y549191D01*
X857942Y549487D01*
X858122Y549780D01*
X858309Y550068D01*
X858504Y550351D01*
X858705Y550630D01*
X858913Y550903D01*
X859128Y551172D01*
X859349Y551434D01*
X859577Y551692D01*
X859811Y551944D01*
X860051Y552189D01*
X860296Y552429D01*
X860548Y552663D01*
X860806Y552891D01*
X861068Y553112D01*
X861337Y553327D01*
X861610Y553535D01*
X861889Y553736D01*
X862172Y553931D01*
X862460Y554118D01*
X862753Y554298D01*
X863049Y554471D01*
X863350Y554637D01*
X863655Y554795D01*
X863964Y554946D01*
X864277Y555089D01*
X864592Y555224D01*
X864911Y555352D01*
X865234Y555472D01*
X865558Y555583D01*
X865886Y555687D01*
X866216Y555783D01*
X866548Y555870D01*
X866883Y555950D01*
X867219Y556021D01*
X867557Y556084D01*
X867896Y556138D01*
X868236Y556185D01*
X868578Y556223D01*
X868920Y556252D01*
X869263Y556273D01*
X869606Y556286D01*
X869950Y556290D01*
X870294Y556286D01*
X870637Y556273D01*
X870980Y556252D01*
X871322Y556223D01*
X871664Y556185D01*
X872004Y556138D01*
X872343Y556084D01*
X872681Y556021D01*
X873017Y555950D01*
X873352Y555870D01*
X873684Y555783D01*
X874014Y555687D01*
X874342Y555583D01*
X874666Y555472D01*
X874989Y555352D01*
X875308Y555224D01*
X875623Y555089D01*
X875936Y554946D01*
X876245Y554795D01*
X876550Y554637D01*
X876851Y554471D01*
X877147Y554298D01*
X877440Y554118D01*
X877728Y553931D01*
X878011Y553736D01*
X878290Y553535D01*
X878563Y553327D01*
X878832Y553112D01*
X879094Y552891D01*
X879352Y552663D01*
X879604Y552429D01*
X879849Y552189D01*
X880089Y551944D01*
X880323Y551692D01*
X880551Y551434D01*
X880772Y551172D01*
X880987Y550903D01*
X881195Y550630D01*
X881396Y550351D01*
X881591Y550068D01*
X881778Y549780D01*
X881958Y549487D01*
X882131Y549191D01*
X882297Y548890D01*
X882455Y548585D01*
X882606Y548276D01*
X882749Y547963D01*
X882884Y547648D01*
X883012Y547329D01*
X883132Y547006D01*
X883243Y546682D01*
X883347Y546354D01*
X883443Y546024D01*
X883530Y545692D01*
X883610Y545357D01*
X883681Y545021D01*
X883744Y544683D01*
X883798Y544344D01*
X883845Y544004D01*
X883883Y543662D01*
X883912Y543320D01*
X883933Y542977D01*
X883946Y542634D01*
X883950Y542290D01*
X883946Y541946D01*
X883933Y541603D01*
X883912Y541260D01*
X883883Y540918D01*
X883845Y540576D01*
X883798Y540236D01*
X883744Y539897D01*
X883681Y539559D01*
X883610Y539223D01*
X883530Y538888D01*
X883443Y538556D01*
X883347Y538226D01*
X883243Y537898D01*
X883132Y537574D01*
X883012Y537251D01*
X882884Y536932D01*
X882749Y536617D01*
X882606Y536304D01*
X882455Y535995D01*
X882297Y535690D01*
X882131Y535389D01*
X881958Y535093D01*
X881778Y534800D01*
X881591Y534512D01*
X881396Y534229D01*
X881195Y533950D01*
X880987Y533677D01*
X880772Y533408D01*
X880551Y533146D01*
X880323Y532888D01*
X880089Y532636D01*
X879849Y532391D01*
X879604Y532151D01*
X879352Y531917D01*
X879094Y531689D01*
X878832Y531468D01*
X878563Y531253D01*
X878290Y531045D01*
X878011Y530844D01*
X877728Y530649D01*
X877440Y530462D01*
X877147Y530282D01*
X876851Y530109D01*
X876550Y529943D01*
X876245Y529785D01*
X875936Y529634D01*
X875623Y529491D01*
X875308Y529356D01*
X874989Y529228D01*
X874666Y529108D01*
X874342Y528997D01*
X874014Y528893D01*
X873684Y528797D01*
X873352Y528710D01*
X873017Y528630D01*
X872681Y528559D01*
X872343Y528496D01*
X872004Y528442D01*
X871664Y528395D01*
X871322Y528357D01*
X870980Y528328D01*
X870637Y528307D01*
X870294Y528294D01*
X869950Y528290D01*
X869606Y528294D01*
X869263Y528307D01*
X868920Y528328D01*
X868578Y528357D01*
X868236Y528395D01*
X867896Y528442D01*
X867557Y528496D01*
X867219Y528559D01*
X866883Y528630D01*
X866548Y528710D01*
X866216Y528797D01*
X865886Y528893D01*
X865558Y528997D01*
X865234Y529108D01*
X864911Y529228D01*
X864592Y529356D01*
X864277Y529491D01*
X863964Y529634D01*
X863655Y529785D01*
X863350Y529943D01*
X863049Y530109D01*
X862753Y530282D01*
X862460Y530462D01*
X862172Y530649D01*
X861889Y530844D01*
X861610Y531045D01*
X861337Y531253D01*
X861068Y531468D01*
X860806Y531689D01*
X860548Y531917D01*
X860296Y532151D01*
X860051Y532391D01*
X859811Y532636D01*
X859577Y532888D01*
X859349Y533146D01*
X859128Y533408D01*
X858913Y533677D01*
X858705Y533950D01*
X858504Y534229D01*
X858309Y534512D01*
X858122Y534800D01*
X857942Y535093D01*
X857769Y535389D01*
X857603Y535690D01*
X857445Y535995D01*
X857294Y536304D01*
X857151Y536617D01*
X857016Y536932D01*
X856888Y537251D01*
X856768Y537574D01*
X856657Y537898D01*
X856553Y538226D01*
X856457Y538556D01*
X856370Y538888D01*
X856290Y539223D01*
X856219Y539559D01*
X856156Y539897D01*
X856102Y540236D01*
X856055Y540576D01*
X856017Y540918D01*
X855988Y541260D01*
X855967Y541603D01*
X855954Y541946D01*
X855950Y542290D01*
X855950Y265430D02*
X855954Y265774D01*
X855967Y266117D01*
X855988Y266460D01*
X856017Y266802D01*
X856055Y267144D01*
X856102Y267484D01*
X856156Y267823D01*
X856219Y268161D01*
X856290Y268497D01*
X856370Y268832D01*
X856457Y269164D01*
X856553Y269494D01*
X856657Y269822D01*
X856768Y270146D01*
X856888Y270469D01*
X857016Y270788D01*
X857151Y271103D01*
X857294Y271416D01*
X857445Y271725D01*
X857603Y272030D01*
X857769Y272331D01*
X857942Y272627D01*
X858122Y272920D01*
X858309Y273208D01*
X858504Y273491D01*
X858705Y273770D01*
X858913Y274043D01*
X859128Y274312D01*
X859349Y274574D01*
X859577Y274832D01*
X859811Y275084D01*
X860051Y275329D01*
X860296Y275569D01*
X860548Y275803D01*
X860806Y276031D01*
X861068Y276252D01*
X861337Y276467D01*
X861610Y276675D01*
X861889Y276876D01*
X862172Y277071D01*
X862460Y277258D01*
X862753Y277438D01*
X863049Y277611D01*
X863350Y277777D01*
X863655Y277935D01*
X863964Y278086D01*
X864277Y278229D01*
X864592Y278364D01*
X864911Y278492D01*
X865234Y278612D01*
X865558Y278723D01*
X865886Y278827D01*
X866216Y278923D01*
X866548Y279010D01*
X866883Y279090D01*
X867219Y279161D01*
X867557Y279224D01*
X867896Y279278D01*
X868236Y279325D01*
X868578Y279363D01*
X868920Y279392D01*
X869263Y279413D01*
X869606Y279426D01*
X869950Y279430D01*
X870294Y279426D01*
X870637Y279413D01*
X870980Y279392D01*
X871322Y279363D01*
X871664Y279325D01*
X872004Y279278D01*
X872343Y279224D01*
X872681Y279161D01*
X873017Y279090D01*
X873352Y279010D01*
X873684Y278923D01*
X874014Y278827D01*
X874342Y278723D01*
X874666Y278612D01*
X874989Y278492D01*
X875308Y278364D01*
X875623Y278229D01*
X875936Y278086D01*
X876245Y277935D01*
X876550Y277777D01*
X876851Y277611D01*
X877147Y277438D01*
X877440Y277258D01*
X877728Y277071D01*
X878011Y276876D01*
X878290Y276675D01*
X878563Y276467D01*
X878832Y276252D01*
X879094Y276031D01*
X879352Y275803D01*
X879604Y275569D01*
X879849Y275329D01*
X880089Y275084D01*
X880323Y274832D01*
X880551Y274574D01*
X880772Y274312D01*
X880987Y274043D01*
X881195Y273770D01*
X881396Y273491D01*
X881591Y273208D01*
X881778Y272920D01*
X881958Y272627D01*
X882131Y272331D01*
X882297Y272030D01*
X882455Y271725D01*
X882606Y271416D01*
X882749Y271103D01*
X882884Y270788D01*
X883012Y270469D01*
X883132Y270146D01*
X883243Y269822D01*
X883347Y269494D01*
X883443Y269164D01*
X883530Y268832D01*
X883610Y268497D01*
X883681Y268161D01*
X883744Y267823D01*
X883798Y267484D01*
X883845Y267144D01*
X883883Y266802D01*
X883912Y266460D01*
X883933Y266117D01*
X883946Y265774D01*
X883950Y265430D01*
X883946Y265086D01*
X883933Y264743D01*
X883912Y264400D01*
X883883Y264058D01*
X883845Y263716D01*
X883798Y263376D01*
X883744Y263037D01*
X883681Y262699D01*
X883610Y262363D01*
X883530Y262028D01*
X883443Y261696D01*
X883347Y261366D01*
X883243Y261038D01*
X883132Y260714D01*
X883012Y260391D01*
X882884Y260072D01*
X882749Y259757D01*
X882606Y259444D01*
X882455Y259135D01*
X882297Y258830D01*
X882131Y258529D01*
X881958Y258233D01*
X881778Y257940D01*
X881591Y257652D01*
X881396Y257369D01*
X881195Y257090D01*
X880987Y256817D01*
X880772Y256548D01*
X880551Y256286D01*
X880323Y256028D01*
X880089Y255776D01*
X879849Y255531D01*
X879604Y255291D01*
X879352Y255057D01*
X879094Y254829D01*
X878832Y254608D01*
X878563Y254393D01*
X878290Y254185D01*
X878011Y253984D01*
X877728Y253789D01*
X877440Y253602D01*
X877147Y253422D01*
X876851Y253249D01*
X876550Y253083D01*
X876245Y252925D01*
X875936Y252774D01*
X875623Y252631D01*
X875308Y252496D01*
X874989Y252368D01*
X874666Y252248D01*
X874342Y252137D01*
X874014Y252033D01*
X873684Y251937D01*
X873352Y251850D01*
X873017Y251770D01*
X872681Y251699D01*
X872343Y251636D01*
X872004Y251582D01*
X871664Y251535D01*
X871322Y251497D01*
X870980Y251468D01*
X870637Y251447D01*
X870294Y251434D01*
X869950Y251430D01*
X869606Y251434D01*
X869263Y251447D01*
X868920Y251468D01*
X868578Y251497D01*
X868236Y251535D01*
X867896Y251582D01*
X867557Y251636D01*
X867219Y251699D01*
X866883Y251770D01*
X866548Y251850D01*
X866216Y251937D01*
X865886Y252033D01*
X865558Y252137D01*
X865234Y252248D01*
X864911Y252368D01*
X864592Y252496D01*
X864277Y252631D01*
X863964Y252774D01*
X863655Y252925D01*
X863350Y253083D01*
X863049Y253249D01*
X862753Y253422D01*
X862460Y253602D01*
X862172Y253789D01*
X861889Y253984D01*
X861610Y254185D01*
X861337Y254393D01*
X861068Y254608D01*
X860806Y254829D01*
X860548Y255057D01*
X860296Y255291D01*
X860051Y255531D01*
X859811Y255776D01*
X859577Y256028D01*
X859349Y256286D01*
X859128Y256548D01*
X858913Y256817D01*
X858705Y257090D01*
X858504Y257369D01*
X858309Y257652D01*
X858122Y257940D01*
X857942Y258233D01*
X857769Y258529D01*
X857603Y258830D01*
X857445Y259135D01*
X857294Y259444D01*
X857151Y259757D01*
X857016Y260072D01*
X856888Y260391D01*
X856768Y260714D01*
X856657Y261038D01*
X856553Y261366D01*
X856457Y261696D01*
X856370Y262028D01*
X856290Y262363D01*
X856219Y262699D01*
X856156Y263037D01*
X856102Y263376D01*
X856055Y263716D01*
X856017Y264058D01*
X855988Y264400D01*
X855967Y264743D01*
X855954Y265086D01*
X855950Y265430D01*
D13*
X260350Y364744D03*
X260350Y425196D03*
X260350Y485648D03*
X260350Y546100D03*
X260350Y606552D03*
X196850Y606552D03*
X196850Y546100D03*
X196850Y485648D03*
X196850Y425196D03*
X196850Y364744D03*
D12*
X239776Y656336D03*
X240284Y314960D03*
D14*
X678180Y647700D03*
X652780Y650240D03*
X627380Y647700D03*
X601980Y650240D03*
X576580Y647700D03*
X551180Y650240D03*
D15*
X365360Y59060D03*
X315360Y59060D03*
D16*
X375360Y32060D03*
X305360Y32060D03*
D17*
X106738Y33113D03*
D18*
X109425Y9097D03*
X94640Y7978D03*
D19*
X271780Y591820D03*
X507104Y365335D03*
X508673Y502606D03*
X611144Y495570D03*
X408048Y399423D03*
X525505Y289563D03*
X271780Y627380D03*
X271780Y662940D03*
X371897Y289583D03*
D18*
X431800Y91440D03*
D19*
X393700Y533400D03*
D20*
X779780Y650240D03*
X596900Y304800D03*
X594360Y561340D03*
X481172Y487819D03*
D19*
X203200Y152400D03*
D18*
X109220Y20320D03*
D19*
X805180Y76200D03*
X361813Y368367D03*
X420074Y602020D03*
X421168Y576347D03*
X415418Y140817D03*
X452120Y190500D03*
X472440Y190500D03*
X456058Y110337D03*
X649098Y100177D03*
X659570Y463678D03*
X459465Y259083D03*
X646362Y326531D03*
X656021Y603437D03*
D18*
X82393Y7864D03*
X54056Y34896D03*
D19*
X567394Y558840D03*
D18*
X767080Y88900D03*
X375091Y514655D03*
D19*
X452120Y515620D03*
X555543Y506561D03*
D18*
X391160Y506561D03*
X391160Y400558D03*
X387855Y575355D03*
X403401Y643793D03*
X414020Y353060D03*
D19*
X469900Y358140D03*
X260367Y574866D03*
X922047Y384265D03*
X922412Y305959D03*
D18*
X12700Y195580D03*
X12700Y208280D03*
X12700Y220980D03*
X12700Y233680D03*
X53340Y233680D03*
X53340Y220980D03*
X53340Y208280D03*
X53340Y195580D03*
X63641Y105624D03*
X76200Y105624D03*
X88900Y105483D03*
X101671Y105342D03*
D21*
X809554Y675153D03*
D19*
X188962Y167815D03*
D17*
X107160Y83828D03*
D19*
X922510Y455317D03*
X386080Y429260D03*
X916237Y102861D03*
D18*
X910460Y429490D03*
X895181Y453026D03*
D19*
X703580Y419100D03*
X701040Y558800D03*
X706120Y287020D03*
D18*
X910460Y442190D03*
X910460Y363450D03*
X910460Y376150D03*
X895220Y348210D03*
D19*
X703580Y185420D03*
D18*
X55986Y149970D03*
D22*
X843280Y683260D03*
D20*
X207424Y209622D03*
D19*
X739140Y314960D03*
X782320Y317500D03*
X748819Y454179D03*
X782320Y459740D03*
X744220Y599440D03*
X777240Y609600D03*
D18*
X292100Y363220D03*
X53340Y53340D03*
X22860Y66040D03*
X30480Y58420D03*
D17*
X106754Y58398D03*
D22*
X277647Y19271D03*
D17*
X135407Y120871D03*
D19*
X419390Y645966D03*
X533987Y630520D03*
X420801Y585358D03*
X693265Y92991D03*
X441960Y45720D03*
X365760Y142240D03*
X549440Y498766D03*
X593257Y496796D03*
X407887Y416721D03*
X542306Y289528D03*
X344922Y635838D03*
X346995Y614486D03*
X346995Y584006D03*
X321613Y530652D03*
X322784Y488840D03*
X371938Y273033D03*
X279400Y149860D03*
X355600Y386080D03*
X381000Y563880D03*
D22*
X723900Y650240D03*
X596900Y248920D03*
D20*
X647700Y561340D03*
D22*
X429721Y487670D03*
D18*
X40640Y53340D03*
D17*
X127787Y16731D03*
D19*
X805254Y49347D03*
X787400Y7620D03*
X643090Y31825D03*
X469900Y109220D03*
X429411Y155940D03*
X415277Y123061D03*
X660356Y445996D03*
X599440Y157480D03*
X647286Y308360D03*
X656757Y588236D03*
X360680Y353060D03*
X506690Y6900D03*
X542095Y6087D03*
X577655Y6087D03*
X613215Y6087D03*
D23*
X744220Y203200D03*
X758017Y203052D03*
X771807Y203172D03*
X785655Y203271D03*
X746760Y347980D03*
X760713Y347980D03*
X774782Y347980D03*
X789940Y347980D03*
X746760Y495300D03*
X760868Y495300D03*
X774189Y495300D03*
X788246Y495300D03*
D19*
X579178Y488353D03*
X507080Y488600D03*
X558800Y447040D03*
X721360Y439420D03*
X556260Y426720D03*
X645301Y298739D03*
X203200Y182880D03*
D18*
X472440Y213360D03*
D19*
X457200Y198120D03*
D18*
X459740Y210820D03*
D19*
X284480Y563880D03*
X487680Y576580D03*
X291958Y526624D03*
X488488Y563856D03*
X601662Y545173D03*
X525760Y545173D03*
X495300Y596900D03*
D18*
X388620Y609600D03*
X236220Y223520D03*
D19*
X403860Y431800D03*
D18*
X403860Y307340D03*
D19*
X556260Y561340D03*
X509435Y446657D03*
X518096Y446868D03*
X419100Y307340D03*
X429260Y464820D03*
X480060Y91440D03*
X480060Y307340D03*
X480060Y340360D03*
X480060Y454660D03*
X439420Y347980D03*
X469900Y347980D03*
X469900Y543560D03*
X607060Y525780D03*
X495300Y137160D03*
X627380Y134620D03*
X721360Y68580D03*
X665480Y68580D03*
X642620Y88900D03*
X721360Y55880D03*
X635000Y106680D03*
X721360Y43180D03*
X627987Y382962D03*
X627380Y360680D03*
X477520Y528320D03*
X579120Y472440D03*
X526917Y446657D03*
X535690Y446269D03*
X779780Y261620D03*
X786340Y295453D03*
X782320Y541020D03*
X784860Y581660D03*
X783566Y391579D03*
X788646Y431980D03*
D18*
X622300Y83820D03*
D19*
X558800Y365760D03*
X548640Y274320D03*
D18*
X604837Y84253D03*
X586740Y83820D03*
D19*
X528320Y365760D03*
X530860Y281940D03*
D18*
X568960Y83820D03*
D19*
X517812Y365747D03*
X523240Y274026D03*
D18*
X551180Y83820D03*
X533400Y83820D03*
X515620Y83820D03*
X497840Y83820D03*
D19*
X576580Y322580D03*
X332740Y81280D03*
X619760Y447040D03*
X617990Y433039D03*
X611817Y425470D03*
X637540Y406400D03*
X640080Y386080D03*
X640080Y373380D03*
X640080Y363220D03*
X429607Y570457D03*
X436880Y563880D03*
X436880Y551180D03*
X436880Y538480D03*
X531860Y557524D03*
X531165Y577448D03*
X531397Y590422D03*
M02*
