G04 EAGLE Gerber RS-274X export*
G75*
%MOMM*%
%FSLAX34Y34*%
%LPD*%
%INSlot drill/holes/outline*%
%IPPOS*%
%AMOC8*
5,1,8,0,0,1.08239X$1,22.5*%
G01*
%ADD10C,0.000000*%
%ADD11C,7.620000*%
%ADD12C,0.000100*%


D10*
X819150Y0D02*
X819150Y88900D01*
X929640Y88900D01*
X930150Y88900D01*
X929640Y622300D02*
X850900Y698500D01*
X152400Y698500D01*
X152400Y284480D01*
X101600Y284480D01*
X101600Y254000D01*
X0Y254000D01*
X0Y76200D01*
X76200Y0D01*
X929640Y88900D02*
X929640Y622300D01*
X819150Y0D02*
X76200Y0D01*
D11*
X869950Y266700D03*
X869950Y539750D03*
D10*
X855950Y542290D02*
X855954Y542634D01*
X855967Y542977D01*
X855988Y543320D01*
X856017Y543662D01*
X856055Y544004D01*
X856102Y544344D01*
X856156Y544683D01*
X856219Y545021D01*
X856290Y545357D01*
X856370Y545692D01*
X856457Y546024D01*
X856553Y546354D01*
X856657Y546682D01*
X856768Y547006D01*
X856888Y547329D01*
X857016Y547648D01*
X857151Y547963D01*
X857294Y548276D01*
X857445Y548585D01*
X857603Y548890D01*
X857769Y549191D01*
X857942Y549487D01*
X858122Y549780D01*
X858309Y550068D01*
X858504Y550351D01*
X858705Y550630D01*
X858913Y550903D01*
X859128Y551172D01*
X859349Y551434D01*
X859577Y551692D01*
X859811Y551944D01*
X860051Y552189D01*
X860296Y552429D01*
X860548Y552663D01*
X860806Y552891D01*
X861068Y553112D01*
X861337Y553327D01*
X861610Y553535D01*
X861889Y553736D01*
X862172Y553931D01*
X862460Y554118D01*
X862753Y554298D01*
X863049Y554471D01*
X863350Y554637D01*
X863655Y554795D01*
X863964Y554946D01*
X864277Y555089D01*
X864592Y555224D01*
X864911Y555352D01*
X865234Y555472D01*
X865558Y555583D01*
X865886Y555687D01*
X866216Y555783D01*
X866548Y555870D01*
X866883Y555950D01*
X867219Y556021D01*
X867557Y556084D01*
X867896Y556138D01*
X868236Y556185D01*
X868578Y556223D01*
X868920Y556252D01*
X869263Y556273D01*
X869606Y556286D01*
X869950Y556290D01*
X870294Y556286D01*
X870637Y556273D01*
X870980Y556252D01*
X871322Y556223D01*
X871664Y556185D01*
X872004Y556138D01*
X872343Y556084D01*
X872681Y556021D01*
X873017Y555950D01*
X873352Y555870D01*
X873684Y555783D01*
X874014Y555687D01*
X874342Y555583D01*
X874666Y555472D01*
X874989Y555352D01*
X875308Y555224D01*
X875623Y555089D01*
X875936Y554946D01*
X876245Y554795D01*
X876550Y554637D01*
X876851Y554471D01*
X877147Y554298D01*
X877440Y554118D01*
X877728Y553931D01*
X878011Y553736D01*
X878290Y553535D01*
X878563Y553327D01*
X878832Y553112D01*
X879094Y552891D01*
X879352Y552663D01*
X879604Y552429D01*
X879849Y552189D01*
X880089Y551944D01*
X880323Y551692D01*
X880551Y551434D01*
X880772Y551172D01*
X880987Y550903D01*
X881195Y550630D01*
X881396Y550351D01*
X881591Y550068D01*
X881778Y549780D01*
X881958Y549487D01*
X882131Y549191D01*
X882297Y548890D01*
X882455Y548585D01*
X882606Y548276D01*
X882749Y547963D01*
X882884Y547648D01*
X883012Y547329D01*
X883132Y547006D01*
X883243Y546682D01*
X883347Y546354D01*
X883443Y546024D01*
X883530Y545692D01*
X883610Y545357D01*
X883681Y545021D01*
X883744Y544683D01*
X883798Y544344D01*
X883845Y544004D01*
X883883Y543662D01*
X883912Y543320D01*
X883933Y542977D01*
X883946Y542634D01*
X883950Y542290D01*
X883946Y541946D01*
X883933Y541603D01*
X883912Y541260D01*
X883883Y540918D01*
X883845Y540576D01*
X883798Y540236D01*
X883744Y539897D01*
X883681Y539559D01*
X883610Y539223D01*
X883530Y538888D01*
X883443Y538556D01*
X883347Y538226D01*
X883243Y537898D01*
X883132Y537574D01*
X883012Y537251D01*
X882884Y536932D01*
X882749Y536617D01*
X882606Y536304D01*
X882455Y535995D01*
X882297Y535690D01*
X882131Y535389D01*
X881958Y535093D01*
X881778Y534800D01*
X881591Y534512D01*
X881396Y534229D01*
X881195Y533950D01*
X880987Y533677D01*
X880772Y533408D01*
X880551Y533146D01*
X880323Y532888D01*
X880089Y532636D01*
X879849Y532391D01*
X879604Y532151D01*
X879352Y531917D01*
X879094Y531689D01*
X878832Y531468D01*
X878563Y531253D01*
X878290Y531045D01*
X878011Y530844D01*
X877728Y530649D01*
X877440Y530462D01*
X877147Y530282D01*
X876851Y530109D01*
X876550Y529943D01*
X876245Y529785D01*
X875936Y529634D01*
X875623Y529491D01*
X875308Y529356D01*
X874989Y529228D01*
X874666Y529108D01*
X874342Y528997D01*
X874014Y528893D01*
X873684Y528797D01*
X873352Y528710D01*
X873017Y528630D01*
X872681Y528559D01*
X872343Y528496D01*
X872004Y528442D01*
X871664Y528395D01*
X871322Y528357D01*
X870980Y528328D01*
X870637Y528307D01*
X870294Y528294D01*
X869950Y528290D01*
X869606Y528294D01*
X869263Y528307D01*
X868920Y528328D01*
X868578Y528357D01*
X868236Y528395D01*
X867896Y528442D01*
X867557Y528496D01*
X867219Y528559D01*
X866883Y528630D01*
X866548Y528710D01*
X866216Y528797D01*
X865886Y528893D01*
X865558Y528997D01*
X865234Y529108D01*
X864911Y529228D01*
X864592Y529356D01*
X864277Y529491D01*
X863964Y529634D01*
X863655Y529785D01*
X863350Y529943D01*
X863049Y530109D01*
X862753Y530282D01*
X862460Y530462D01*
X862172Y530649D01*
X861889Y530844D01*
X861610Y531045D01*
X861337Y531253D01*
X861068Y531468D01*
X860806Y531689D01*
X860548Y531917D01*
X860296Y532151D01*
X860051Y532391D01*
X859811Y532636D01*
X859577Y532888D01*
X859349Y533146D01*
X859128Y533408D01*
X858913Y533677D01*
X858705Y533950D01*
X858504Y534229D01*
X858309Y534512D01*
X858122Y534800D01*
X857942Y535093D01*
X857769Y535389D01*
X857603Y535690D01*
X857445Y535995D01*
X857294Y536304D01*
X857151Y536617D01*
X857016Y536932D01*
X856888Y537251D01*
X856768Y537574D01*
X856657Y537898D01*
X856553Y538226D01*
X856457Y538556D01*
X856370Y538888D01*
X856290Y539223D01*
X856219Y539559D01*
X856156Y539897D01*
X856102Y540236D01*
X856055Y540576D01*
X856017Y540918D01*
X855988Y541260D01*
X855967Y541603D01*
X855954Y541946D01*
X855950Y542290D01*
X855950Y265430D02*
X855954Y265774D01*
X855967Y266117D01*
X855988Y266460D01*
X856017Y266802D01*
X856055Y267144D01*
X856102Y267484D01*
X856156Y267823D01*
X856219Y268161D01*
X856290Y268497D01*
X856370Y268832D01*
X856457Y269164D01*
X856553Y269494D01*
X856657Y269822D01*
X856768Y270146D01*
X856888Y270469D01*
X857016Y270788D01*
X857151Y271103D01*
X857294Y271416D01*
X857445Y271725D01*
X857603Y272030D01*
X857769Y272331D01*
X857942Y272627D01*
X858122Y272920D01*
X858309Y273208D01*
X858504Y273491D01*
X858705Y273770D01*
X858913Y274043D01*
X859128Y274312D01*
X859349Y274574D01*
X859577Y274832D01*
X859811Y275084D01*
X860051Y275329D01*
X860296Y275569D01*
X860548Y275803D01*
X860806Y276031D01*
X861068Y276252D01*
X861337Y276467D01*
X861610Y276675D01*
X861889Y276876D01*
X862172Y277071D01*
X862460Y277258D01*
X862753Y277438D01*
X863049Y277611D01*
X863350Y277777D01*
X863655Y277935D01*
X863964Y278086D01*
X864277Y278229D01*
X864592Y278364D01*
X864911Y278492D01*
X865234Y278612D01*
X865558Y278723D01*
X865886Y278827D01*
X866216Y278923D01*
X866548Y279010D01*
X866883Y279090D01*
X867219Y279161D01*
X867557Y279224D01*
X867896Y279278D01*
X868236Y279325D01*
X868578Y279363D01*
X868920Y279392D01*
X869263Y279413D01*
X869606Y279426D01*
X869950Y279430D01*
X870294Y279426D01*
X870637Y279413D01*
X870980Y279392D01*
X871322Y279363D01*
X871664Y279325D01*
X872004Y279278D01*
X872343Y279224D01*
X872681Y279161D01*
X873017Y279090D01*
X873352Y279010D01*
X873684Y278923D01*
X874014Y278827D01*
X874342Y278723D01*
X874666Y278612D01*
X874989Y278492D01*
X875308Y278364D01*
X875623Y278229D01*
X875936Y278086D01*
X876245Y277935D01*
X876550Y277777D01*
X876851Y277611D01*
X877147Y277438D01*
X877440Y277258D01*
X877728Y277071D01*
X878011Y276876D01*
X878290Y276675D01*
X878563Y276467D01*
X878832Y276252D01*
X879094Y276031D01*
X879352Y275803D01*
X879604Y275569D01*
X879849Y275329D01*
X880089Y275084D01*
X880323Y274832D01*
X880551Y274574D01*
X880772Y274312D01*
X880987Y274043D01*
X881195Y273770D01*
X881396Y273491D01*
X881591Y273208D01*
X881778Y272920D01*
X881958Y272627D01*
X882131Y272331D01*
X882297Y272030D01*
X882455Y271725D01*
X882606Y271416D01*
X882749Y271103D01*
X882884Y270788D01*
X883012Y270469D01*
X883132Y270146D01*
X883243Y269822D01*
X883347Y269494D01*
X883443Y269164D01*
X883530Y268832D01*
X883610Y268497D01*
X883681Y268161D01*
X883744Y267823D01*
X883798Y267484D01*
X883845Y267144D01*
X883883Y266802D01*
X883912Y266460D01*
X883933Y266117D01*
X883946Y265774D01*
X883950Y265430D01*
X883946Y265086D01*
X883933Y264743D01*
X883912Y264400D01*
X883883Y264058D01*
X883845Y263716D01*
X883798Y263376D01*
X883744Y263037D01*
X883681Y262699D01*
X883610Y262363D01*
X883530Y262028D01*
X883443Y261696D01*
X883347Y261366D01*
X883243Y261038D01*
X883132Y260714D01*
X883012Y260391D01*
X882884Y260072D01*
X882749Y259757D01*
X882606Y259444D01*
X882455Y259135D01*
X882297Y258830D01*
X882131Y258529D01*
X881958Y258233D01*
X881778Y257940D01*
X881591Y257652D01*
X881396Y257369D01*
X881195Y257090D01*
X880987Y256817D01*
X880772Y256548D01*
X880551Y256286D01*
X880323Y256028D01*
X880089Y255776D01*
X879849Y255531D01*
X879604Y255291D01*
X879352Y255057D01*
X879094Y254829D01*
X878832Y254608D01*
X878563Y254393D01*
X878290Y254185D01*
X878011Y253984D01*
X877728Y253789D01*
X877440Y253602D01*
X877147Y253422D01*
X876851Y253249D01*
X876550Y253083D01*
X876245Y252925D01*
X875936Y252774D01*
X875623Y252631D01*
X875308Y252496D01*
X874989Y252368D01*
X874666Y252248D01*
X874342Y252137D01*
X874014Y252033D01*
X873684Y251937D01*
X873352Y251850D01*
X873017Y251770D01*
X872681Y251699D01*
X872343Y251636D01*
X872004Y251582D01*
X871664Y251535D01*
X871322Y251497D01*
X870980Y251468D01*
X870637Y251447D01*
X870294Y251434D01*
X869950Y251430D01*
X869606Y251434D01*
X869263Y251447D01*
X868920Y251468D01*
X868578Y251497D01*
X868236Y251535D01*
X867896Y251582D01*
X867557Y251636D01*
X867219Y251699D01*
X866883Y251770D01*
X866548Y251850D01*
X866216Y251937D01*
X865886Y252033D01*
X865558Y252137D01*
X865234Y252248D01*
X864911Y252368D01*
X864592Y252496D01*
X864277Y252631D01*
X863964Y252774D01*
X863655Y252925D01*
X863350Y253083D01*
X863049Y253249D01*
X862753Y253422D01*
X862460Y253602D01*
X862172Y253789D01*
X861889Y253984D01*
X861610Y254185D01*
X861337Y254393D01*
X861068Y254608D01*
X860806Y254829D01*
X860548Y255057D01*
X860296Y255291D01*
X860051Y255531D01*
X859811Y255776D01*
X859577Y256028D01*
X859349Y256286D01*
X859128Y256548D01*
X858913Y256817D01*
X858705Y257090D01*
X858504Y257369D01*
X858309Y257652D01*
X858122Y257940D01*
X857942Y258233D01*
X857769Y258529D01*
X857603Y258830D01*
X857445Y259135D01*
X857294Y259444D01*
X857151Y259757D01*
X857016Y260072D01*
X856888Y260391D01*
X856768Y260714D01*
X856657Y261038D01*
X856553Y261366D01*
X856457Y261696D01*
X856370Y262028D01*
X856290Y262363D01*
X856219Y262699D01*
X856156Y263037D01*
X856102Y263376D01*
X856055Y263716D01*
X856017Y264058D01*
X855988Y264400D01*
X855967Y264743D01*
X855954Y265086D01*
X855950Y265430D01*
D12*
X378360Y35560D02*
X378358Y35667D01*
X378352Y35774D01*
X378343Y35881D01*
X378329Y35987D01*
X378312Y36093D01*
X378291Y36198D01*
X378267Y36302D01*
X378238Y36405D01*
X378206Y36507D01*
X378171Y36608D01*
X378132Y36708D01*
X378089Y36806D01*
X378043Y36903D01*
X377993Y36998D01*
X377940Y37091D01*
X377884Y37182D01*
X377824Y37271D01*
X377762Y37358D01*
X377696Y37442D01*
X377627Y37525D01*
X377556Y37604D01*
X377481Y37681D01*
X377404Y37756D01*
X377325Y37827D01*
X377242Y37896D01*
X377158Y37962D01*
X377071Y38024D01*
X376982Y38084D01*
X376891Y38140D01*
X376798Y38193D01*
X376703Y38243D01*
X376606Y38289D01*
X376508Y38332D01*
X376408Y38371D01*
X376307Y38406D01*
X376205Y38438D01*
X376102Y38467D01*
X375998Y38491D01*
X375893Y38512D01*
X375787Y38529D01*
X375681Y38543D01*
X375574Y38552D01*
X375467Y38558D01*
X375360Y38560D01*
X375253Y38558D01*
X375146Y38552D01*
X375039Y38543D01*
X374933Y38529D01*
X374827Y38512D01*
X374722Y38491D01*
X374618Y38467D01*
X374515Y38438D01*
X374413Y38406D01*
X374312Y38371D01*
X374212Y38332D01*
X374114Y38289D01*
X374017Y38243D01*
X373922Y38193D01*
X373829Y38140D01*
X373738Y38084D01*
X373649Y38024D01*
X373562Y37962D01*
X373478Y37896D01*
X373395Y37827D01*
X373316Y37756D01*
X373239Y37681D01*
X373164Y37604D01*
X373093Y37525D01*
X373024Y37442D01*
X372958Y37358D01*
X372896Y37271D01*
X372836Y37182D01*
X372780Y37091D01*
X372727Y36998D01*
X372677Y36903D01*
X372631Y36806D01*
X372588Y36708D01*
X372549Y36608D01*
X372514Y36507D01*
X372482Y36405D01*
X372453Y36302D01*
X372429Y36198D01*
X372408Y36093D01*
X372391Y35987D01*
X372377Y35881D01*
X372368Y35774D01*
X372362Y35667D01*
X372360Y35560D01*
X372360Y28560D01*
X372362Y28453D01*
X372368Y28346D01*
X372377Y28239D01*
X372391Y28133D01*
X372408Y28027D01*
X372429Y27922D01*
X372453Y27818D01*
X372482Y27715D01*
X372514Y27613D01*
X372549Y27512D01*
X372588Y27412D01*
X372631Y27314D01*
X372677Y27217D01*
X372727Y27122D01*
X372780Y27029D01*
X372836Y26938D01*
X372896Y26849D01*
X372958Y26762D01*
X373024Y26678D01*
X373093Y26595D01*
X373164Y26516D01*
X373239Y26439D01*
X373316Y26364D01*
X373395Y26293D01*
X373478Y26224D01*
X373562Y26158D01*
X373649Y26096D01*
X373738Y26036D01*
X373829Y25980D01*
X373922Y25927D01*
X374017Y25877D01*
X374114Y25831D01*
X374212Y25788D01*
X374312Y25749D01*
X374413Y25714D01*
X374515Y25682D01*
X374618Y25653D01*
X374722Y25629D01*
X374827Y25608D01*
X374933Y25591D01*
X375039Y25577D01*
X375146Y25568D01*
X375253Y25562D01*
X375360Y25560D01*
X375467Y25562D01*
X375574Y25568D01*
X375681Y25577D01*
X375787Y25591D01*
X375893Y25608D01*
X375998Y25629D01*
X376102Y25653D01*
X376205Y25682D01*
X376307Y25714D01*
X376408Y25749D01*
X376508Y25788D01*
X376606Y25831D01*
X376703Y25877D01*
X376798Y25927D01*
X376891Y25980D01*
X376982Y26036D01*
X377071Y26096D01*
X377158Y26158D01*
X377242Y26224D01*
X377325Y26293D01*
X377404Y26364D01*
X377481Y26439D01*
X377556Y26516D01*
X377627Y26595D01*
X377696Y26678D01*
X377762Y26762D01*
X377824Y26849D01*
X377884Y26938D01*
X377940Y27029D01*
X377993Y27122D01*
X378043Y27217D01*
X378089Y27314D01*
X378132Y27412D01*
X378171Y27512D01*
X378206Y27613D01*
X378238Y27715D01*
X378267Y27818D01*
X378291Y27922D01*
X378312Y28027D01*
X378329Y28133D01*
X378343Y28239D01*
X378352Y28346D01*
X378358Y28453D01*
X378360Y28560D01*
X378360Y35560D01*
X308360Y35560D02*
X308358Y35667D01*
X308352Y35774D01*
X308343Y35881D01*
X308329Y35987D01*
X308312Y36093D01*
X308291Y36198D01*
X308267Y36302D01*
X308238Y36405D01*
X308206Y36507D01*
X308171Y36608D01*
X308132Y36708D01*
X308089Y36806D01*
X308043Y36903D01*
X307993Y36998D01*
X307940Y37091D01*
X307884Y37182D01*
X307824Y37271D01*
X307762Y37358D01*
X307696Y37442D01*
X307627Y37525D01*
X307556Y37604D01*
X307481Y37681D01*
X307404Y37756D01*
X307325Y37827D01*
X307242Y37896D01*
X307158Y37962D01*
X307071Y38024D01*
X306982Y38084D01*
X306891Y38140D01*
X306798Y38193D01*
X306703Y38243D01*
X306606Y38289D01*
X306508Y38332D01*
X306408Y38371D01*
X306307Y38406D01*
X306205Y38438D01*
X306102Y38467D01*
X305998Y38491D01*
X305893Y38512D01*
X305787Y38529D01*
X305681Y38543D01*
X305574Y38552D01*
X305467Y38558D01*
X305360Y38560D01*
X305253Y38558D01*
X305146Y38552D01*
X305039Y38543D01*
X304933Y38529D01*
X304827Y38512D01*
X304722Y38491D01*
X304618Y38467D01*
X304515Y38438D01*
X304413Y38406D01*
X304312Y38371D01*
X304212Y38332D01*
X304114Y38289D01*
X304017Y38243D01*
X303922Y38193D01*
X303829Y38140D01*
X303738Y38084D01*
X303649Y38024D01*
X303562Y37962D01*
X303478Y37896D01*
X303395Y37827D01*
X303316Y37756D01*
X303239Y37681D01*
X303164Y37604D01*
X303093Y37525D01*
X303024Y37442D01*
X302958Y37358D01*
X302896Y37271D01*
X302836Y37182D01*
X302780Y37091D01*
X302727Y36998D01*
X302677Y36903D01*
X302631Y36806D01*
X302588Y36708D01*
X302549Y36608D01*
X302514Y36507D01*
X302482Y36405D01*
X302453Y36302D01*
X302429Y36198D01*
X302408Y36093D01*
X302391Y35987D01*
X302377Y35881D01*
X302368Y35774D01*
X302362Y35667D01*
X302360Y35560D01*
X302360Y28560D01*
X302362Y28453D01*
X302368Y28346D01*
X302377Y28239D01*
X302391Y28133D01*
X302408Y28027D01*
X302429Y27922D01*
X302453Y27818D01*
X302482Y27715D01*
X302514Y27613D01*
X302549Y27512D01*
X302588Y27412D01*
X302631Y27314D01*
X302677Y27217D01*
X302727Y27122D01*
X302780Y27029D01*
X302836Y26938D01*
X302896Y26849D01*
X302958Y26762D01*
X303024Y26678D01*
X303093Y26595D01*
X303164Y26516D01*
X303239Y26439D01*
X303316Y26364D01*
X303395Y26293D01*
X303478Y26224D01*
X303562Y26158D01*
X303649Y26096D01*
X303738Y26036D01*
X303829Y25980D01*
X303922Y25927D01*
X304017Y25877D01*
X304114Y25831D01*
X304212Y25788D01*
X304312Y25749D01*
X304413Y25714D01*
X304515Y25682D01*
X304618Y25653D01*
X304722Y25629D01*
X304827Y25608D01*
X304933Y25591D01*
X305039Y25577D01*
X305146Y25568D01*
X305253Y25562D01*
X305360Y25560D01*
X305467Y25562D01*
X305574Y25568D01*
X305681Y25577D01*
X305787Y25591D01*
X305893Y25608D01*
X305998Y25629D01*
X306102Y25653D01*
X306205Y25682D01*
X306307Y25714D01*
X306408Y25749D01*
X306508Y25788D01*
X306606Y25831D01*
X306703Y25877D01*
X306798Y25927D01*
X306891Y25980D01*
X306982Y26036D01*
X307071Y26096D01*
X307158Y26158D01*
X307242Y26224D01*
X307325Y26293D01*
X307404Y26364D01*
X307481Y26439D01*
X307556Y26516D01*
X307627Y26595D01*
X307696Y26678D01*
X307762Y26762D01*
X307824Y26849D01*
X307884Y26938D01*
X307940Y27029D01*
X307993Y27122D01*
X308043Y27217D01*
X308089Y27314D01*
X308132Y27412D01*
X308171Y27512D01*
X308206Y27613D01*
X308238Y27715D01*
X308267Y27818D01*
X308291Y27922D01*
X308312Y28027D01*
X308329Y28133D01*
X308343Y28239D01*
X308352Y28346D01*
X308358Y28453D01*
X308360Y28560D01*
X308360Y35560D01*
M02*
