G04 EAGLE Gerber RS-274X export*
G75*
%MOMM*%
%FSLAX34Y34*%
%LPD*%
%INBottom solder mask*%
%IPPOS*%
%AMOC8*
5,1,8,0,0,1.08239X$1,22.5*%
G01*
%ADD10C,0.000000*%
%ADD11C,7.620000*%
%ADD12R,0.711200X1.625600*%
%ADD13R,3.917600X3.917600*%
%ADD14C,3.917600*%
%ADD15C,2.901600*%
%ADD16R,0.601600X1.101600*%
%ADD17R,2.501600X2.501600*%
%ADD18C,2.501600*%
%ADD19R,1.301600X0.901600*%
%ADD20R,1.301600X0.551600*%
%ADD21R,1.625600X0.711200*%
%ADD22R,0.731600X0.931600*%
%ADD23R,1.727200X0.711200*%
%ADD24R,2.082800X0.508000*%
%ADD25C,1.981200*%
%ADD26R,1.867600X0.371600*%
%ADD27R,0.371600X1.867600*%
%ADD28R,0.863600X1.625600*%
%ADD29R,0.901600X1.301600*%
%ADD30R,0.701600X0.651600*%
%ADD31R,0.901600X1.001600*%
%ADD32R,1.101600X0.601600*%
%ADD33C,1.551600*%
%ADD34R,0.501600X1.451600*%
%ADD35R,1.601600X2.001600*%
%ADD36R,1.301600X2.001600*%
%ADD37C,1.209600*%
%ADD38R,2.898166X0.847269*%
%ADD39R,2.891612X0.843959*%
%ADD40R,2.893938X0.842956*%
%ADD41R,2.891569X0.843247*%
%ADD42R,2.898628X0.842816*%
%ADD43R,2.891072X0.842675*%
%ADD44R,2.895628X0.841128*%
%ADD45R,2.891269X0.840959*%
%ADD46R,2.897716X0.838528*%
%ADD47R,2.891069X0.838650*%
%ADD48C,0.253006*%
%ADD49R,1.574800X0.508000*%
%ADD50R,1.701600X1.901600*%
%ADD51R,2.692400X1.752600*%
%ADD52R,1.301600X1.301600*%
%ADD53C,1.601600*%
%ADD54C,1.001600*%
%ADD55C,1.226600*%
%ADD56C,2.501900*%
%ADD57R,2.501900X2.501900*%
%ADD58C,1.376600*%


D10*
X819150Y0D02*
X819150Y88900D01*
X929640Y88900D01*
X930150Y88900D01*
X929640Y622300D02*
X850900Y698500D01*
X152400Y698500D01*
X152400Y284480D01*
X101600Y284480D01*
X101600Y254000D01*
X0Y254000D01*
X0Y76200D01*
X76200Y0D01*
X929640Y88900D02*
X929640Y622300D01*
X819150Y0D02*
X76200Y0D01*
D11*
X869950Y266700D03*
X869950Y539750D03*
D12*
X305308Y453898D03*
X305308Y399034D03*
X318008Y453898D03*
X330708Y453898D03*
X318008Y399034D03*
X330708Y399034D03*
X343408Y453898D03*
X343408Y399034D03*
D13*
X869950Y614680D03*
D14*
X869950Y469900D03*
X869950Y401320D03*
X869950Y335280D03*
X869950Y195580D03*
X869950Y121920D03*
D10*
X855950Y542290D02*
X855954Y542634D01*
X855967Y542977D01*
X855988Y543320D01*
X856017Y543662D01*
X856055Y544004D01*
X856102Y544344D01*
X856156Y544683D01*
X856219Y545021D01*
X856290Y545357D01*
X856370Y545692D01*
X856457Y546024D01*
X856553Y546354D01*
X856657Y546682D01*
X856768Y547006D01*
X856888Y547329D01*
X857016Y547648D01*
X857151Y547963D01*
X857294Y548276D01*
X857445Y548585D01*
X857603Y548890D01*
X857769Y549191D01*
X857942Y549487D01*
X858122Y549780D01*
X858309Y550068D01*
X858504Y550351D01*
X858705Y550630D01*
X858913Y550903D01*
X859128Y551172D01*
X859349Y551434D01*
X859577Y551692D01*
X859811Y551944D01*
X860051Y552189D01*
X860296Y552429D01*
X860548Y552663D01*
X860806Y552891D01*
X861068Y553112D01*
X861337Y553327D01*
X861610Y553535D01*
X861889Y553736D01*
X862172Y553931D01*
X862460Y554118D01*
X862753Y554298D01*
X863049Y554471D01*
X863350Y554637D01*
X863655Y554795D01*
X863964Y554946D01*
X864277Y555089D01*
X864592Y555224D01*
X864911Y555352D01*
X865234Y555472D01*
X865558Y555583D01*
X865886Y555687D01*
X866216Y555783D01*
X866548Y555870D01*
X866883Y555950D01*
X867219Y556021D01*
X867557Y556084D01*
X867896Y556138D01*
X868236Y556185D01*
X868578Y556223D01*
X868920Y556252D01*
X869263Y556273D01*
X869606Y556286D01*
X869950Y556290D01*
X870294Y556286D01*
X870637Y556273D01*
X870980Y556252D01*
X871322Y556223D01*
X871664Y556185D01*
X872004Y556138D01*
X872343Y556084D01*
X872681Y556021D01*
X873017Y555950D01*
X873352Y555870D01*
X873684Y555783D01*
X874014Y555687D01*
X874342Y555583D01*
X874666Y555472D01*
X874989Y555352D01*
X875308Y555224D01*
X875623Y555089D01*
X875936Y554946D01*
X876245Y554795D01*
X876550Y554637D01*
X876851Y554471D01*
X877147Y554298D01*
X877440Y554118D01*
X877728Y553931D01*
X878011Y553736D01*
X878290Y553535D01*
X878563Y553327D01*
X878832Y553112D01*
X879094Y552891D01*
X879352Y552663D01*
X879604Y552429D01*
X879849Y552189D01*
X880089Y551944D01*
X880323Y551692D01*
X880551Y551434D01*
X880772Y551172D01*
X880987Y550903D01*
X881195Y550630D01*
X881396Y550351D01*
X881591Y550068D01*
X881778Y549780D01*
X881958Y549487D01*
X882131Y549191D01*
X882297Y548890D01*
X882455Y548585D01*
X882606Y548276D01*
X882749Y547963D01*
X882884Y547648D01*
X883012Y547329D01*
X883132Y547006D01*
X883243Y546682D01*
X883347Y546354D01*
X883443Y546024D01*
X883530Y545692D01*
X883610Y545357D01*
X883681Y545021D01*
X883744Y544683D01*
X883798Y544344D01*
X883845Y544004D01*
X883883Y543662D01*
X883912Y543320D01*
X883933Y542977D01*
X883946Y542634D01*
X883950Y542290D01*
X883946Y541946D01*
X883933Y541603D01*
X883912Y541260D01*
X883883Y540918D01*
X883845Y540576D01*
X883798Y540236D01*
X883744Y539897D01*
X883681Y539559D01*
X883610Y539223D01*
X883530Y538888D01*
X883443Y538556D01*
X883347Y538226D01*
X883243Y537898D01*
X883132Y537574D01*
X883012Y537251D01*
X882884Y536932D01*
X882749Y536617D01*
X882606Y536304D01*
X882455Y535995D01*
X882297Y535690D01*
X882131Y535389D01*
X881958Y535093D01*
X881778Y534800D01*
X881591Y534512D01*
X881396Y534229D01*
X881195Y533950D01*
X880987Y533677D01*
X880772Y533408D01*
X880551Y533146D01*
X880323Y532888D01*
X880089Y532636D01*
X879849Y532391D01*
X879604Y532151D01*
X879352Y531917D01*
X879094Y531689D01*
X878832Y531468D01*
X878563Y531253D01*
X878290Y531045D01*
X878011Y530844D01*
X877728Y530649D01*
X877440Y530462D01*
X877147Y530282D01*
X876851Y530109D01*
X876550Y529943D01*
X876245Y529785D01*
X875936Y529634D01*
X875623Y529491D01*
X875308Y529356D01*
X874989Y529228D01*
X874666Y529108D01*
X874342Y528997D01*
X874014Y528893D01*
X873684Y528797D01*
X873352Y528710D01*
X873017Y528630D01*
X872681Y528559D01*
X872343Y528496D01*
X872004Y528442D01*
X871664Y528395D01*
X871322Y528357D01*
X870980Y528328D01*
X870637Y528307D01*
X870294Y528294D01*
X869950Y528290D01*
X869606Y528294D01*
X869263Y528307D01*
X868920Y528328D01*
X868578Y528357D01*
X868236Y528395D01*
X867896Y528442D01*
X867557Y528496D01*
X867219Y528559D01*
X866883Y528630D01*
X866548Y528710D01*
X866216Y528797D01*
X865886Y528893D01*
X865558Y528997D01*
X865234Y529108D01*
X864911Y529228D01*
X864592Y529356D01*
X864277Y529491D01*
X863964Y529634D01*
X863655Y529785D01*
X863350Y529943D01*
X863049Y530109D01*
X862753Y530282D01*
X862460Y530462D01*
X862172Y530649D01*
X861889Y530844D01*
X861610Y531045D01*
X861337Y531253D01*
X861068Y531468D01*
X860806Y531689D01*
X860548Y531917D01*
X860296Y532151D01*
X860051Y532391D01*
X859811Y532636D01*
X859577Y532888D01*
X859349Y533146D01*
X859128Y533408D01*
X858913Y533677D01*
X858705Y533950D01*
X858504Y534229D01*
X858309Y534512D01*
X858122Y534800D01*
X857942Y535093D01*
X857769Y535389D01*
X857603Y535690D01*
X857445Y535995D01*
X857294Y536304D01*
X857151Y536617D01*
X857016Y536932D01*
X856888Y537251D01*
X856768Y537574D01*
X856657Y537898D01*
X856553Y538226D01*
X856457Y538556D01*
X856370Y538888D01*
X856290Y539223D01*
X856219Y539559D01*
X856156Y539897D01*
X856102Y540236D01*
X856055Y540576D01*
X856017Y540918D01*
X855988Y541260D01*
X855967Y541603D01*
X855954Y541946D01*
X855950Y542290D01*
D15*
X869950Y542290D03*
D10*
X855950Y265430D02*
X855954Y265774D01*
X855967Y266117D01*
X855988Y266460D01*
X856017Y266802D01*
X856055Y267144D01*
X856102Y267484D01*
X856156Y267823D01*
X856219Y268161D01*
X856290Y268497D01*
X856370Y268832D01*
X856457Y269164D01*
X856553Y269494D01*
X856657Y269822D01*
X856768Y270146D01*
X856888Y270469D01*
X857016Y270788D01*
X857151Y271103D01*
X857294Y271416D01*
X857445Y271725D01*
X857603Y272030D01*
X857769Y272331D01*
X857942Y272627D01*
X858122Y272920D01*
X858309Y273208D01*
X858504Y273491D01*
X858705Y273770D01*
X858913Y274043D01*
X859128Y274312D01*
X859349Y274574D01*
X859577Y274832D01*
X859811Y275084D01*
X860051Y275329D01*
X860296Y275569D01*
X860548Y275803D01*
X860806Y276031D01*
X861068Y276252D01*
X861337Y276467D01*
X861610Y276675D01*
X861889Y276876D01*
X862172Y277071D01*
X862460Y277258D01*
X862753Y277438D01*
X863049Y277611D01*
X863350Y277777D01*
X863655Y277935D01*
X863964Y278086D01*
X864277Y278229D01*
X864592Y278364D01*
X864911Y278492D01*
X865234Y278612D01*
X865558Y278723D01*
X865886Y278827D01*
X866216Y278923D01*
X866548Y279010D01*
X866883Y279090D01*
X867219Y279161D01*
X867557Y279224D01*
X867896Y279278D01*
X868236Y279325D01*
X868578Y279363D01*
X868920Y279392D01*
X869263Y279413D01*
X869606Y279426D01*
X869950Y279430D01*
X870294Y279426D01*
X870637Y279413D01*
X870980Y279392D01*
X871322Y279363D01*
X871664Y279325D01*
X872004Y279278D01*
X872343Y279224D01*
X872681Y279161D01*
X873017Y279090D01*
X873352Y279010D01*
X873684Y278923D01*
X874014Y278827D01*
X874342Y278723D01*
X874666Y278612D01*
X874989Y278492D01*
X875308Y278364D01*
X875623Y278229D01*
X875936Y278086D01*
X876245Y277935D01*
X876550Y277777D01*
X876851Y277611D01*
X877147Y277438D01*
X877440Y277258D01*
X877728Y277071D01*
X878011Y276876D01*
X878290Y276675D01*
X878563Y276467D01*
X878832Y276252D01*
X879094Y276031D01*
X879352Y275803D01*
X879604Y275569D01*
X879849Y275329D01*
X880089Y275084D01*
X880323Y274832D01*
X880551Y274574D01*
X880772Y274312D01*
X880987Y274043D01*
X881195Y273770D01*
X881396Y273491D01*
X881591Y273208D01*
X881778Y272920D01*
X881958Y272627D01*
X882131Y272331D01*
X882297Y272030D01*
X882455Y271725D01*
X882606Y271416D01*
X882749Y271103D01*
X882884Y270788D01*
X883012Y270469D01*
X883132Y270146D01*
X883243Y269822D01*
X883347Y269494D01*
X883443Y269164D01*
X883530Y268832D01*
X883610Y268497D01*
X883681Y268161D01*
X883744Y267823D01*
X883798Y267484D01*
X883845Y267144D01*
X883883Y266802D01*
X883912Y266460D01*
X883933Y266117D01*
X883946Y265774D01*
X883950Y265430D01*
X883946Y265086D01*
X883933Y264743D01*
X883912Y264400D01*
X883883Y264058D01*
X883845Y263716D01*
X883798Y263376D01*
X883744Y263037D01*
X883681Y262699D01*
X883610Y262363D01*
X883530Y262028D01*
X883443Y261696D01*
X883347Y261366D01*
X883243Y261038D01*
X883132Y260714D01*
X883012Y260391D01*
X882884Y260072D01*
X882749Y259757D01*
X882606Y259444D01*
X882455Y259135D01*
X882297Y258830D01*
X882131Y258529D01*
X881958Y258233D01*
X881778Y257940D01*
X881591Y257652D01*
X881396Y257369D01*
X881195Y257090D01*
X880987Y256817D01*
X880772Y256548D01*
X880551Y256286D01*
X880323Y256028D01*
X880089Y255776D01*
X879849Y255531D01*
X879604Y255291D01*
X879352Y255057D01*
X879094Y254829D01*
X878832Y254608D01*
X878563Y254393D01*
X878290Y254185D01*
X878011Y253984D01*
X877728Y253789D01*
X877440Y253602D01*
X877147Y253422D01*
X876851Y253249D01*
X876550Y253083D01*
X876245Y252925D01*
X875936Y252774D01*
X875623Y252631D01*
X875308Y252496D01*
X874989Y252368D01*
X874666Y252248D01*
X874342Y252137D01*
X874014Y252033D01*
X873684Y251937D01*
X873352Y251850D01*
X873017Y251770D01*
X872681Y251699D01*
X872343Y251636D01*
X872004Y251582D01*
X871664Y251535D01*
X871322Y251497D01*
X870980Y251468D01*
X870637Y251447D01*
X870294Y251434D01*
X869950Y251430D01*
X869606Y251434D01*
X869263Y251447D01*
X868920Y251468D01*
X868578Y251497D01*
X868236Y251535D01*
X867896Y251582D01*
X867557Y251636D01*
X867219Y251699D01*
X866883Y251770D01*
X866548Y251850D01*
X866216Y251937D01*
X865886Y252033D01*
X865558Y252137D01*
X865234Y252248D01*
X864911Y252368D01*
X864592Y252496D01*
X864277Y252631D01*
X863964Y252774D01*
X863655Y252925D01*
X863350Y253083D01*
X863049Y253249D01*
X862753Y253422D01*
X862460Y253602D01*
X862172Y253789D01*
X861889Y253984D01*
X861610Y254185D01*
X861337Y254393D01*
X861068Y254608D01*
X860806Y254829D01*
X860548Y255057D01*
X860296Y255291D01*
X860051Y255531D01*
X859811Y255776D01*
X859577Y256028D01*
X859349Y256286D01*
X859128Y256548D01*
X858913Y256817D01*
X858705Y257090D01*
X858504Y257369D01*
X858309Y257652D01*
X858122Y257940D01*
X857942Y258233D01*
X857769Y258529D01*
X857603Y258830D01*
X857445Y259135D01*
X857294Y259444D01*
X857151Y259757D01*
X857016Y260072D01*
X856888Y260391D01*
X856768Y260714D01*
X856657Y261038D01*
X856553Y261366D01*
X856457Y261696D01*
X856370Y262028D01*
X856290Y262363D01*
X856219Y262699D01*
X856156Y263037D01*
X856102Y263376D01*
X856055Y263716D01*
X856017Y264058D01*
X855988Y264400D01*
X855967Y264743D01*
X855954Y265086D01*
X855950Y265430D01*
D15*
X869950Y265430D03*
D16*
X666394Y133666D03*
X675894Y133666D03*
X685394Y133666D03*
X685394Y109666D03*
X666394Y109666D03*
D17*
X260350Y364744D03*
D18*
X260350Y425196D03*
X260350Y485648D03*
X260350Y546100D03*
X260350Y606552D03*
X196850Y606552D03*
X196850Y546100D03*
X196850Y485648D03*
X196850Y425196D03*
X196850Y364744D03*
D14*
X239776Y656336D03*
X240284Y314960D03*
D19*
X918251Y316778D03*
X918251Y334778D03*
X918499Y394564D03*
X918499Y412564D03*
X918494Y465468D03*
X918494Y483468D03*
X918263Y114089D03*
X918263Y132089D03*
D20*
X80170Y162150D03*
X80170Y155650D03*
X80170Y149150D03*
X80170Y142650D03*
X36670Y142650D03*
X36670Y149150D03*
X36670Y155650D03*
X36670Y162150D03*
D12*
X156210Y211328D03*
X156210Y266192D03*
X143510Y211328D03*
X130810Y211328D03*
X143510Y266192D03*
X130810Y266192D03*
X118110Y211328D03*
X118110Y266192D03*
D21*
X87832Y232484D03*
X32968Y232484D03*
X87832Y219784D03*
X87832Y207084D03*
X32968Y219784D03*
X32968Y207084D03*
X87832Y194384D03*
X32968Y194384D03*
D22*
X125660Y172720D03*
X148660Y172720D03*
D23*
X697642Y520718D03*
X697642Y530218D03*
X697642Y539718D03*
X724566Y539718D03*
X724566Y520718D03*
X700606Y379617D03*
X700606Y389117D03*
X700606Y398617D03*
X727530Y398617D03*
X727530Y379617D03*
X703198Y247488D03*
X703198Y256988D03*
X703198Y266488D03*
X730122Y266488D03*
X730122Y247488D03*
X703143Y156180D03*
X703143Y165680D03*
X703143Y175180D03*
X730067Y175180D03*
X730067Y156180D03*
D24*
X511302Y616204D03*
X511302Y609854D03*
X511302Y603250D03*
X511302Y596900D03*
X511302Y590296D03*
X511302Y583692D03*
X511302Y577342D03*
X511302Y570738D03*
X511302Y564388D03*
X511302Y557784D03*
X511302Y551180D03*
X511302Y544830D03*
X511302Y538226D03*
X511302Y531876D03*
X453898Y531876D03*
X453898Y538226D03*
X453898Y544830D03*
X453898Y551180D03*
X453898Y557784D03*
X453898Y564388D03*
X453898Y570738D03*
X453898Y577342D03*
X453898Y583692D03*
X453898Y590296D03*
X453898Y596900D03*
X453898Y603250D03*
X453898Y609854D03*
X453898Y616204D03*
D17*
X890680Y160020D03*
X846680Y160020D03*
X891941Y368474D03*
X847941Y368474D03*
X891861Y435639D03*
X847861Y435639D03*
X834019Y630297D03*
X834019Y586297D03*
D25*
X678180Y647700D03*
X652780Y650240D03*
X627380Y647700D03*
X601980Y650240D03*
X576580Y647700D03*
X551180Y650240D03*
D26*
X477072Y369644D03*
X477072Y374644D03*
X477072Y379644D03*
X477072Y384644D03*
X477072Y389644D03*
X477072Y394644D03*
X477072Y399644D03*
X477072Y404644D03*
X477072Y409644D03*
X477072Y414644D03*
X477072Y419644D03*
X477072Y424644D03*
X477072Y429644D03*
X477072Y434644D03*
X477072Y439644D03*
X477072Y444644D03*
D27*
X497080Y464652D03*
X502080Y464652D03*
X507080Y464652D03*
X512080Y464652D03*
X517080Y464652D03*
X522080Y464652D03*
X527080Y464652D03*
X532080Y464652D03*
X537080Y464652D03*
X542080Y464652D03*
X547080Y464652D03*
X552080Y464652D03*
X557080Y464652D03*
X562080Y464652D03*
X567080Y464652D03*
X572080Y464652D03*
D26*
X592088Y444644D03*
X592088Y439644D03*
X592088Y434644D03*
X592088Y429644D03*
X592088Y424644D03*
X592088Y419644D03*
X592088Y414644D03*
X592088Y409644D03*
X592088Y404644D03*
X592088Y399644D03*
X592088Y394644D03*
X592088Y389644D03*
X592088Y384644D03*
X592088Y379644D03*
X592088Y374644D03*
X592088Y369644D03*
D27*
X572080Y349636D03*
X567080Y349636D03*
X562080Y349636D03*
X557080Y349636D03*
X552080Y349636D03*
X547080Y349636D03*
X542080Y349636D03*
X537080Y349636D03*
X532080Y349636D03*
X527080Y349636D03*
X522080Y349636D03*
X517080Y349636D03*
X512080Y349636D03*
X507080Y349636D03*
X502080Y349636D03*
X497080Y349636D03*
D28*
X471170Y17780D03*
X471170Y73660D03*
X433070Y17780D03*
X433070Y73660D03*
D19*
X425037Y398987D03*
X425037Y416987D03*
X443576Y398962D03*
X443576Y416962D03*
D29*
X519265Y502675D03*
X537265Y502675D03*
X611288Y475873D03*
X593288Y475873D03*
X524962Y304619D03*
X542962Y304619D03*
X519315Y485466D03*
X537315Y485466D03*
X611288Y457222D03*
X593288Y457222D03*
X525053Y321947D03*
X543053Y321947D03*
D19*
X435798Y366776D03*
X435798Y384776D03*
X416943Y366643D03*
X416943Y384643D03*
D29*
X395080Y86360D03*
X377080Y86360D03*
X377080Y106680D03*
X395080Y106680D03*
X395080Y147320D03*
X377080Y147320D03*
D19*
X284480Y593200D03*
X284480Y575200D03*
X304800Y593200D03*
X304800Y575200D03*
D30*
X339240Y574950D03*
X326240Y574950D03*
X332740Y593450D03*
D19*
X360680Y593200D03*
X360680Y575200D03*
D29*
X455820Y632460D03*
X473820Y632460D03*
X514460Y640080D03*
X496460Y640080D03*
D19*
X431800Y603360D03*
X431800Y585360D03*
X431800Y623460D03*
X431800Y641460D03*
X533400Y603140D03*
X533400Y621140D03*
X284480Y626220D03*
X284480Y608220D03*
X304800Y626220D03*
X304800Y608220D03*
X360680Y626220D03*
X360680Y608220D03*
D30*
X339240Y607970D03*
X326240Y607970D03*
X332740Y626470D03*
D19*
X284480Y661780D03*
X284480Y643780D03*
X304800Y661780D03*
X304800Y643780D03*
D30*
X339240Y643530D03*
X326240Y643530D03*
X332740Y662030D03*
D19*
X360680Y643780D03*
X360680Y661780D03*
X381000Y643780D03*
X381000Y661780D03*
X360680Y534560D03*
X360680Y552560D03*
X304800Y555100D03*
X304800Y537100D03*
X284480Y555100D03*
X284480Y537100D03*
X360680Y499000D03*
X360680Y517000D03*
X304800Y517000D03*
X304800Y499000D03*
X284480Y517000D03*
X284480Y499000D03*
D31*
X341906Y498845D03*
X322906Y498845D03*
X332406Y519845D03*
X341438Y539140D03*
X322438Y539140D03*
X331938Y560140D03*
D32*
X315057Y239988D03*
X315057Y252688D03*
X379857Y252688D03*
X379857Y239988D03*
D19*
X299720Y315437D03*
X299720Y333437D03*
X248920Y257920D03*
X248920Y239920D03*
X228600Y239920D03*
X228600Y257920D03*
D30*
X275740Y239670D03*
X262740Y239670D03*
X269240Y258170D03*
D19*
X289482Y240230D03*
X289482Y258230D03*
D29*
X390000Y368300D03*
X372000Y368300D03*
X402700Y289560D03*
X384700Y289560D03*
X390000Y350520D03*
X372000Y350520D03*
X402700Y271780D03*
X384700Y271780D03*
D19*
X459740Y290940D03*
X459740Y272940D03*
X459740Y224680D03*
X459740Y242680D03*
X627385Y477255D03*
X627385Y459255D03*
D29*
X461120Y91440D03*
X443120Y91440D03*
X713533Y418673D03*
X731533Y418673D03*
X716615Y286102D03*
X734615Y286102D03*
X703508Y197821D03*
X721508Y197821D03*
X711174Y558786D03*
X729174Y558786D03*
X670699Y558356D03*
X688699Y558356D03*
X672894Y418685D03*
X690894Y418685D03*
X674238Y286339D03*
X692238Y286339D03*
X668957Y197951D03*
X686957Y197951D03*
X712476Y223512D03*
X730476Y223512D03*
X713772Y123048D03*
X731772Y123048D03*
X712479Y360438D03*
X730479Y360438D03*
X710825Y498125D03*
X728825Y498125D03*
D19*
X900314Y114096D03*
X900314Y132096D03*
X901094Y316892D03*
X901094Y334892D03*
X901163Y394317D03*
X901163Y412317D03*
X901165Y465483D03*
X901165Y483483D03*
D29*
X378492Y418634D03*
X360492Y418634D03*
X378245Y398160D03*
X360245Y398160D03*
X300880Y99060D03*
X318880Y99060D03*
D19*
X622300Y54500D03*
X622300Y72500D03*
X604520Y54500D03*
X604520Y72500D03*
X586740Y54500D03*
X586740Y72500D03*
X568960Y54500D03*
X568960Y72500D03*
X551180Y54500D03*
X551180Y72500D03*
X533400Y54500D03*
X533400Y72500D03*
X515620Y54500D03*
X515620Y72500D03*
X497840Y54500D03*
X497840Y72500D03*
D29*
X646320Y154940D03*
X664320Y154940D03*
X300880Y78740D03*
X318880Y78740D03*
D19*
X604520Y36940D03*
X604520Y18940D03*
X586740Y36940D03*
X586740Y18940D03*
X568960Y36940D03*
X568960Y18940D03*
X551180Y36940D03*
X551180Y18940D03*
X533400Y36940D03*
X533400Y18940D03*
X515620Y36940D03*
X515620Y18940D03*
D29*
X235060Y149860D03*
X217060Y149860D03*
X631300Y154940D03*
X613300Y154940D03*
X250080Y149860D03*
X268080Y149860D03*
X250080Y185420D03*
X268080Y185420D03*
X250080Y167640D03*
X268080Y167640D03*
X235060Y185420D03*
X217060Y185420D03*
X235060Y167640D03*
X217060Y167640D03*
X664220Y93222D03*
X682220Y93222D03*
X610760Y561340D03*
X628760Y561340D03*
X763380Y650240D03*
X745380Y650240D03*
X466200Y487680D03*
X448200Y487680D03*
D19*
X596900Y288400D03*
X596900Y270400D03*
X381000Y534560D03*
X381000Y552560D03*
X91199Y33134D03*
X91199Y51134D03*
X68500Y33134D03*
X68500Y51134D03*
X68464Y86243D03*
X68464Y68243D03*
X91208Y86358D03*
X91208Y68358D03*
D29*
X96968Y177753D03*
X78968Y177753D03*
X51948Y126537D03*
X33948Y126537D03*
X87955Y126464D03*
X69955Y126464D03*
X146160Y149860D03*
X128160Y149860D03*
X395080Y127000D03*
X377080Y127000D03*
D33*
X365360Y59060D03*
X315360Y59060D03*
D34*
X353360Y59060D03*
X346860Y59060D03*
X340360Y59060D03*
X333860Y59060D03*
X327360Y59060D03*
D35*
X350360Y32060D03*
X330360Y32060D03*
D36*
X369360Y32060D03*
X311360Y32060D03*
D37*
X375360Y26520D02*
X375360Y37600D01*
X305360Y37600D02*
X305360Y26520D01*
D29*
X66036Y177801D03*
X48036Y177801D03*
D23*
X389382Y461620D03*
X389382Y452120D03*
X389382Y442620D03*
X362458Y442620D03*
X362458Y461620D03*
D38*
X787431Y68606D03*
D39*
X746758Y68590D03*
D40*
X787410Y55885D03*
D41*
X746758Y55886D03*
D42*
X787433Y43184D03*
D43*
X746755Y43183D03*
D44*
X787418Y30476D03*
D45*
X746756Y30475D03*
D46*
X787429Y17763D03*
D47*
X746755Y17763D03*
D19*
X647700Y115460D03*
X647700Y133460D03*
D29*
X336440Y474980D03*
X354440Y474980D03*
D48*
X469047Y173343D02*
X473633Y173343D01*
X473633Y171857D01*
X469047Y171857D01*
X469047Y173343D01*
X469047Y168343D02*
X473633Y168343D01*
X473633Y166857D01*
X469047Y166857D01*
X469047Y168343D01*
X469047Y163343D02*
X473633Y163343D01*
X473633Y161857D01*
X469047Y161857D01*
X469047Y163343D01*
X469047Y158343D02*
X473633Y158343D01*
X473633Y156857D01*
X469047Y156857D01*
X469047Y158343D01*
X465483Y158293D02*
X465483Y153707D01*
X463997Y153707D01*
X463997Y158293D01*
X465483Y158293D01*
X465483Y156110D02*
X463997Y156110D01*
X460483Y158293D02*
X460483Y153707D01*
X458997Y153707D01*
X458997Y158293D01*
X460483Y158293D01*
X460483Y156110D02*
X458997Y156110D01*
X455483Y158293D02*
X455483Y153707D01*
X453997Y153707D01*
X453997Y158293D01*
X455483Y158293D01*
X455483Y156110D02*
X453997Y156110D01*
X450433Y156857D02*
X445847Y156857D01*
X445847Y158343D01*
X450433Y158343D01*
X450433Y156857D01*
X450433Y161857D02*
X445847Y161857D01*
X445847Y163343D01*
X450433Y163343D01*
X450433Y161857D01*
X450433Y166857D02*
X445847Y166857D01*
X445847Y168343D01*
X450433Y168343D01*
X450433Y166857D01*
X450433Y171857D02*
X445847Y171857D01*
X445847Y173343D01*
X450433Y173343D01*
X450433Y171857D01*
X453997Y171907D02*
X453997Y176493D01*
X455483Y176493D01*
X455483Y171907D01*
X453997Y171907D01*
X453997Y174310D02*
X455483Y174310D01*
X458997Y176493D02*
X458997Y171907D01*
X458997Y176493D02*
X460483Y176493D01*
X460483Y171907D01*
X458997Y171907D01*
X458997Y174310D02*
X460483Y174310D01*
X463997Y176493D02*
X463997Y171907D01*
X463997Y176493D02*
X465483Y176493D01*
X465483Y171907D01*
X463997Y171907D01*
X463997Y174310D02*
X465483Y174310D01*
D19*
X429260Y186800D03*
X429260Y168800D03*
X475139Y141137D03*
X475139Y123137D03*
X447040Y141080D03*
X447040Y123080D03*
X426720Y141080D03*
X426720Y123080D03*
D12*
X748030Y281432D03*
X748030Y226568D03*
X760730Y281432D03*
X773430Y281432D03*
X760730Y226568D03*
X773430Y226568D03*
X786130Y281432D03*
X786130Y226568D03*
X750570Y418592D03*
X750570Y363728D03*
X763270Y418592D03*
X775970Y418592D03*
X763270Y363728D03*
X775970Y363728D03*
X788670Y418592D03*
X788670Y363728D03*
X748030Y568452D03*
X748030Y513588D03*
X760730Y568452D03*
X773430Y568452D03*
X760730Y513588D03*
X773430Y513588D03*
X786130Y568452D03*
X786130Y513588D03*
X748030Y159512D03*
X748030Y104648D03*
X760730Y159512D03*
X773430Y159512D03*
X760730Y104648D03*
X773430Y104648D03*
X786130Y159512D03*
X786130Y104648D03*
D49*
X703453Y308460D03*
X703453Y314960D03*
X703453Y321460D03*
X724027Y321460D03*
X724027Y314960D03*
X724027Y308460D03*
D50*
X793780Y317500D03*
X765780Y317500D03*
X793780Y459740D03*
X765780Y459740D03*
X786160Y609600D03*
X758160Y609600D03*
D19*
X693420Y445660D03*
X693420Y463660D03*
X690880Y587900D03*
X690880Y605900D03*
X680720Y308500D03*
X680720Y326500D03*
X670560Y587900D03*
X670560Y605900D03*
X673100Y445660D03*
X673100Y463660D03*
X660400Y308500D03*
X660400Y326500D03*
D51*
X235458Y454660D03*
X267462Y454660D03*
D32*
X315580Y316230D03*
X315580Y328930D03*
X380380Y328930D03*
X380380Y316230D03*
D49*
X713613Y448160D03*
X713613Y454660D03*
X713613Y461160D03*
X734187Y461160D03*
X734187Y454660D03*
X734187Y448160D03*
X711073Y592940D03*
X711073Y599440D03*
X711073Y605940D03*
X731647Y605940D03*
X731647Y599440D03*
X731647Y592940D03*
D28*
X654050Y71120D03*
X654050Y15240D03*
X692150Y71120D03*
X692150Y15240D03*
D29*
X549800Y543560D03*
X567800Y543560D03*
D19*
X622300Y36940D03*
X622300Y18940D03*
X497840Y36940D03*
X497840Y18940D03*
D52*
X106738Y33113D03*
D53*
X779780Y650240D03*
X596900Y304800D03*
X594360Y561340D03*
X481172Y487819D03*
D54*
X375091Y514655D03*
X391160Y506561D03*
X391160Y400558D03*
X387855Y575355D03*
X403401Y643793D03*
X414020Y353060D03*
D55*
X809554Y675153D03*
D52*
X107160Y83828D03*
D56*
X843280Y683260D03*
D53*
X207424Y209622D03*
D54*
X292100Y363220D03*
D52*
X106754Y58398D03*
D57*
X277647Y19271D03*
D52*
X135407Y120871D03*
D56*
X723900Y650240D03*
X596900Y248920D03*
D53*
X647700Y561340D03*
D56*
X429721Y487670D03*
D52*
X127787Y16731D03*
D58*
X744220Y203200D03*
X758017Y203052D03*
X771807Y203172D03*
X785655Y203271D03*
X746760Y347980D03*
X760713Y347980D03*
X774782Y347980D03*
X789940Y347980D03*
X746760Y495300D03*
X760868Y495300D03*
X774189Y495300D03*
X788246Y495300D03*
D54*
X388620Y609600D03*
X236220Y223520D03*
X403860Y307340D03*
X622300Y83820D03*
X604837Y84253D03*
X586740Y83820D03*
X568960Y83820D03*
X551180Y83820D03*
X533400Y83820D03*
X515620Y83820D03*
X497840Y83820D03*
M02*
