G04 EAGLE Gerber RS-274X export*
G75*
%MOMM*%
%FSLAX34Y34*%
%LPD*%
%INTop copper*%
%IPPOS*%
%AMOC8*
5,1,8,0,0,1.08239X$1,22.5*%
G01*
%ADD10C,0.000000*%
%ADD11C,7.620000*%
%ADD12R,3.816000X3.816000*%
%ADD13C,3.816000*%
%ADD14R,2.400000X2.400000*%
%ADD15C,2.400000*%
%ADD16C,1.879600*%
%ADD17R,9.652000X10.668000*%
%ADD18R,3.500000X1.600000*%
%ADD19R,0.800000X1.200000*%
%ADD20C,1.450000*%
%ADD21C,1.108000*%
%ADD22R,0.635000X1.270000*%
%ADD23C,0.406400*%
%ADD24R,1.270000X0.635000*%
%ADD25R,1.200000X1.200000*%
%ADD26R,0.900000X0.900000*%
%ADD27C,0.553200*%
%ADD28C,0.900000*%
%ADD29C,1.500000*%
%ADD30C,0.203200*%
%ADD31C,0.254000*%
%ADD32C,1.125000*%
%ADD33C,0.304800*%
%ADD34C,2.400300*%
%ADD35R,2.400300X2.400300*%
%ADD36C,0.508000*%
%ADD37C,1.275000*%
%ADD38C,1.270000*%
%ADD39C,1.778000*%
%ADD40C,0.177800*%

G36*
X792520Y83485D02*
X792520Y83485D01*
X792525Y83485D01*
X814115Y83963D01*
X814312Y83987D01*
X814505Y84010D01*
X814510Y84012D01*
X814515Y84012D01*
X814702Y84074D01*
X814888Y84135D01*
X814892Y84137D01*
X814897Y84139D01*
X815066Y84235D01*
X815239Y84333D01*
X815242Y84336D01*
X815247Y84338D01*
X815394Y84467D01*
X815544Y84596D01*
X815546Y84600D01*
X815550Y84603D01*
X815671Y84760D01*
X815790Y84914D01*
X815792Y84918D01*
X815795Y84922D01*
X815882Y85099D01*
X815970Y85275D01*
X815971Y85279D01*
X815973Y85284D01*
X816022Y85470D01*
X816074Y85663D01*
X816075Y85669D01*
X816076Y85673D01*
X816078Y85706D01*
X816101Y85994D01*
X816101Y90163D01*
X817887Y91949D01*
X924560Y91949D01*
X924578Y91951D01*
X924596Y91949D01*
X924778Y91970D01*
X924961Y91989D01*
X924978Y91994D01*
X924995Y91996D01*
X925170Y92053D01*
X925346Y92107D01*
X925361Y92115D01*
X925378Y92121D01*
X925538Y92211D01*
X925700Y92299D01*
X925713Y92310D01*
X925729Y92319D01*
X925868Y92439D01*
X926009Y92556D01*
X926020Y92570D01*
X926034Y92582D01*
X926146Y92727D01*
X926261Y92870D01*
X926269Y92886D01*
X926280Y92900D01*
X926362Y93065D01*
X926447Y93227D01*
X926452Y93244D01*
X926460Y93260D01*
X926507Y93439D01*
X926558Y93614D01*
X926560Y93632D01*
X926564Y93649D01*
X926591Y93980D01*
X926591Y620147D01*
X926587Y620190D01*
X926589Y620233D01*
X926567Y620390D01*
X926551Y620547D01*
X926539Y620589D01*
X926532Y620632D01*
X926480Y620781D01*
X926433Y620932D01*
X926413Y620971D01*
X926398Y621012D01*
X926317Y621147D01*
X926241Y621286D01*
X926214Y621320D01*
X926191Y621357D01*
X926014Y621559D01*
X925984Y621596D01*
X925978Y621600D01*
X925973Y621607D01*
X861774Y683734D01*
X861622Y683854D01*
X861471Y683976D01*
X861465Y683979D01*
X861458Y683984D01*
X861284Y684073D01*
X861114Y684161D01*
X861107Y684163D01*
X861100Y684167D01*
X860913Y684219D01*
X860727Y684273D01*
X860719Y684273D01*
X860712Y684275D01*
X860521Y684289D01*
X860326Y684305D01*
X860318Y684305D01*
X860310Y684305D01*
X860118Y684281D01*
X859926Y684259D01*
X859919Y684256D01*
X859911Y684255D01*
X859727Y684194D01*
X859543Y684134D01*
X859536Y684130D01*
X859529Y684127D01*
X859361Y684031D01*
X859193Y683936D01*
X859187Y683931D01*
X859180Y683927D01*
X859034Y683799D01*
X858888Y683673D01*
X858883Y683666D01*
X858877Y683661D01*
X858759Y683507D01*
X858641Y683355D01*
X858638Y683348D01*
X858633Y683341D01*
X858548Y683167D01*
X858462Y682994D01*
X858460Y682986D01*
X858456Y682979D01*
X858408Y682793D01*
X858357Y682605D01*
X858357Y682597D01*
X858355Y682590D01*
X858352Y682542D01*
X858330Y682274D01*
X858330Y680266D01*
X856039Y674735D01*
X851805Y670501D01*
X846556Y668327D01*
X846555Y668326D01*
X846274Y668210D01*
X840286Y668210D01*
X834755Y670501D01*
X830521Y674735D01*
X828230Y680266D01*
X828230Y686254D01*
X830521Y691785D01*
X830719Y691984D01*
X830725Y691991D01*
X830732Y691996D01*
X830853Y692147D01*
X830975Y692295D01*
X830979Y692303D01*
X830984Y692310D01*
X831073Y692480D01*
X831163Y692651D01*
X831166Y692660D01*
X831170Y692667D01*
X831223Y692852D01*
X831278Y693037D01*
X831279Y693046D01*
X831281Y693054D01*
X831297Y693247D01*
X831314Y693438D01*
X831313Y693447D01*
X831314Y693456D01*
X831292Y693645D01*
X831271Y693838D01*
X831268Y693847D01*
X831267Y693855D01*
X831207Y694039D01*
X831149Y694222D01*
X831145Y694230D01*
X831142Y694238D01*
X831047Y694407D01*
X830955Y694574D01*
X830949Y694581D01*
X830944Y694589D01*
X830819Y694734D01*
X830694Y694881D01*
X830687Y694887D01*
X830681Y694894D01*
X830530Y695011D01*
X830378Y695131D01*
X830370Y695135D01*
X830363Y695140D01*
X830191Y695226D01*
X830019Y695313D01*
X830011Y695316D01*
X830003Y695320D01*
X829815Y695370D01*
X829631Y695421D01*
X829623Y695422D01*
X829614Y695424D01*
X829283Y695451D01*
X157480Y695451D01*
X157462Y695449D01*
X157444Y695451D01*
X157262Y695430D01*
X157079Y695411D01*
X157062Y695406D01*
X157045Y695404D01*
X156870Y695347D01*
X156694Y695293D01*
X156679Y695285D01*
X156662Y695279D01*
X156502Y695189D01*
X156340Y695101D01*
X156327Y695090D01*
X156311Y695081D01*
X156172Y694961D01*
X156031Y694844D01*
X156020Y694830D01*
X156006Y694818D01*
X155894Y694673D01*
X155779Y694530D01*
X155771Y694514D01*
X155760Y694500D01*
X155678Y694335D01*
X155593Y694173D01*
X155588Y694156D01*
X155580Y694140D01*
X155533Y693961D01*
X155482Y693786D01*
X155480Y693768D01*
X155476Y693751D01*
X155449Y693420D01*
X155449Y287022D01*
X155449Y287021D01*
X155449Y287020D01*
X155449Y283217D01*
X153663Y281431D01*
X106680Y281431D01*
X106662Y281429D01*
X106644Y281431D01*
X106462Y281410D01*
X106279Y281391D01*
X106262Y281386D01*
X106245Y281384D01*
X106070Y281327D01*
X105894Y281273D01*
X105879Y281265D01*
X105862Y281259D01*
X105702Y281169D01*
X105540Y281081D01*
X105527Y281070D01*
X105511Y281061D01*
X105372Y280941D01*
X105231Y280824D01*
X105220Y280810D01*
X105206Y280798D01*
X105094Y280653D01*
X104979Y280510D01*
X104971Y280494D01*
X104960Y280480D01*
X104878Y280315D01*
X104793Y280153D01*
X104788Y280136D01*
X104780Y280120D01*
X104733Y279941D01*
X104682Y279766D01*
X104680Y279748D01*
X104676Y279731D01*
X104649Y279400D01*
X104649Y252737D01*
X102863Y250951D01*
X5080Y250951D01*
X5062Y250949D01*
X5044Y250951D01*
X4862Y250930D01*
X4679Y250911D01*
X4662Y250906D01*
X4645Y250904D01*
X4470Y250847D01*
X4294Y250793D01*
X4279Y250785D01*
X4262Y250779D01*
X4102Y250689D01*
X3940Y250601D01*
X3927Y250590D01*
X3911Y250581D01*
X3772Y250461D01*
X3631Y250344D01*
X3620Y250330D01*
X3606Y250318D01*
X3494Y250173D01*
X3379Y250030D01*
X3371Y250014D01*
X3360Y250000D01*
X3278Y249835D01*
X3193Y249673D01*
X3188Y249656D01*
X3180Y249640D01*
X3133Y249461D01*
X3082Y249286D01*
X3080Y249268D01*
X3076Y249251D01*
X3049Y248920D01*
X3049Y182880D01*
X3051Y182862D01*
X3049Y182844D01*
X3070Y182662D01*
X3089Y182479D01*
X3094Y182462D01*
X3096Y182445D01*
X3153Y182270D01*
X3207Y182094D01*
X3215Y182079D01*
X3221Y182062D01*
X3311Y181902D01*
X3399Y181740D01*
X3410Y181727D01*
X3419Y181711D01*
X3539Y181572D01*
X3656Y181431D01*
X3670Y181420D01*
X3682Y181407D01*
X3827Y181294D01*
X3970Y181179D01*
X3986Y181171D01*
X4000Y181160D01*
X4165Y181078D01*
X4327Y180993D01*
X4344Y180988D01*
X4360Y180980D01*
X4539Y180933D01*
X4714Y180882D01*
X4732Y180880D01*
X4749Y180876D01*
X5080Y180849D01*
X60960Y180849D01*
X60978Y180851D01*
X60996Y180849D01*
X61178Y180870D01*
X61361Y180889D01*
X61378Y180894D01*
X61395Y180896D01*
X61570Y180953D01*
X61746Y181007D01*
X61761Y181015D01*
X61778Y181021D01*
X61938Y181111D01*
X62100Y181199D01*
X62113Y181210D01*
X62129Y181219D01*
X62268Y181339D01*
X62409Y181456D01*
X62420Y181470D01*
X62434Y181482D01*
X62546Y181627D01*
X62661Y181770D01*
X62669Y181786D01*
X62680Y181800D01*
X62762Y181965D01*
X62847Y182127D01*
X62852Y182144D01*
X62860Y182161D01*
X62907Y182339D01*
X62958Y182514D01*
X62960Y182532D01*
X62964Y182549D01*
X62991Y182880D01*
X62991Y229109D01*
X182880Y229109D01*
X182898Y229111D01*
X182916Y229109D01*
X183098Y229130D01*
X183281Y229149D01*
X183298Y229154D01*
X183315Y229156D01*
X183490Y229213D01*
X183666Y229267D01*
X183681Y229275D01*
X183698Y229281D01*
X183858Y229371D01*
X184020Y229459D01*
X184033Y229470D01*
X184049Y229479D01*
X184188Y229599D01*
X184329Y229716D01*
X184340Y229730D01*
X184354Y229742D01*
X184466Y229887D01*
X184581Y230030D01*
X184589Y230046D01*
X184600Y230060D01*
X184682Y230225D01*
X184767Y230387D01*
X184772Y230404D01*
X184780Y230421D01*
X184827Y230599D01*
X184878Y230774D01*
X184880Y230792D01*
X184884Y230809D01*
X184911Y231140D01*
X184911Y354559D01*
X184909Y354586D01*
X184911Y354613D01*
X184889Y354786D01*
X184871Y354960D01*
X184863Y354986D01*
X184860Y355012D01*
X184805Y355178D01*
X184753Y355345D01*
X184740Y355368D01*
X184732Y355394D01*
X184645Y355545D01*
X184561Y355699D01*
X184544Y355719D01*
X184531Y355743D01*
X184316Y355996D01*
X184092Y356220D01*
X181801Y361751D01*
X181801Y367737D01*
X184092Y373268D01*
X184316Y373492D01*
X184333Y373513D01*
X184354Y373531D01*
X184461Y373669D01*
X184571Y373804D01*
X184584Y373828D01*
X184600Y373849D01*
X184678Y374005D01*
X184760Y374160D01*
X184768Y374185D01*
X184780Y374209D01*
X184825Y374378D01*
X184875Y374545D01*
X184877Y374572D01*
X184884Y374598D01*
X184911Y374929D01*
X184911Y415011D01*
X184909Y415038D01*
X184911Y415065D01*
X184889Y415238D01*
X184871Y415412D01*
X184863Y415438D01*
X184860Y415464D01*
X184805Y415630D01*
X184753Y415797D01*
X184740Y415820D01*
X184732Y415846D01*
X184645Y415997D01*
X184561Y416151D01*
X184544Y416171D01*
X184531Y416195D01*
X184316Y416448D01*
X184092Y416672D01*
X181801Y422203D01*
X181801Y428189D01*
X184092Y433720D01*
X184316Y433944D01*
X184333Y433965D01*
X184354Y433983D01*
X184461Y434121D01*
X184571Y434256D01*
X184584Y434280D01*
X184600Y434301D01*
X184678Y434457D01*
X184760Y434612D01*
X184768Y434637D01*
X184780Y434661D01*
X184825Y434830D01*
X184875Y434997D01*
X184877Y435024D01*
X184884Y435050D01*
X184911Y435381D01*
X184911Y475463D01*
X184909Y475490D01*
X184911Y475517D01*
X184889Y475690D01*
X184871Y475864D01*
X184863Y475890D01*
X184860Y475916D01*
X184805Y476082D01*
X184753Y476249D01*
X184740Y476272D01*
X184732Y476298D01*
X184645Y476449D01*
X184561Y476603D01*
X184544Y476623D01*
X184531Y476647D01*
X184316Y476900D01*
X184092Y477124D01*
X181801Y482655D01*
X181801Y488641D01*
X184092Y494172D01*
X184316Y494396D01*
X184320Y494401D01*
X184324Y494405D01*
X184337Y494420D01*
X184354Y494435D01*
X184461Y494573D01*
X184571Y494708D01*
X184584Y494732D01*
X184600Y494753D01*
X184678Y494909D01*
X184760Y495064D01*
X184768Y495089D01*
X184780Y495113D01*
X184825Y495282D01*
X184875Y495449D01*
X184877Y495476D01*
X184884Y495502D01*
X184911Y495833D01*
X184911Y535915D01*
X184909Y535942D01*
X184911Y535969D01*
X184889Y536142D01*
X184871Y536316D01*
X184863Y536342D01*
X184860Y536368D01*
X184805Y536534D01*
X184753Y536701D01*
X184740Y536724D01*
X184732Y536750D01*
X184645Y536901D01*
X184561Y537055D01*
X184544Y537075D01*
X184531Y537099D01*
X184316Y537352D01*
X184092Y537576D01*
X181801Y543107D01*
X181801Y549093D01*
X184092Y554624D01*
X184316Y554848D01*
X184333Y554869D01*
X184354Y554887D01*
X184461Y555025D01*
X184571Y555160D01*
X184584Y555184D01*
X184600Y555205D01*
X184678Y555361D01*
X184760Y555516D01*
X184768Y555541D01*
X184780Y555565D01*
X184825Y555734D01*
X184875Y555901D01*
X184877Y555928D01*
X184884Y555954D01*
X184911Y556285D01*
X184911Y596367D01*
X184909Y596394D01*
X184911Y596421D01*
X184889Y596594D01*
X184871Y596768D01*
X184863Y596794D01*
X184860Y596820D01*
X184805Y596986D01*
X184753Y597153D01*
X184740Y597176D01*
X184732Y597202D01*
X184645Y597353D01*
X184561Y597507D01*
X184544Y597527D01*
X184531Y597551D01*
X184316Y597804D01*
X184092Y598028D01*
X181801Y603559D01*
X181801Y609545D01*
X184092Y615076D01*
X184316Y615300D01*
X184333Y615321D01*
X184354Y615339D01*
X184461Y615477D01*
X184571Y615612D01*
X184584Y615636D01*
X184600Y615657D01*
X184678Y615813D01*
X184760Y615968D01*
X184768Y615993D01*
X184780Y616017D01*
X184825Y616186D01*
X184875Y616353D01*
X184877Y616380D01*
X184884Y616406D01*
X184911Y616737D01*
X184911Y671069D01*
X222373Y671069D01*
X222399Y671071D01*
X222426Y671069D01*
X222600Y671091D01*
X222773Y671109D01*
X222799Y671117D01*
X222825Y671120D01*
X222991Y671176D01*
X223158Y671227D01*
X223182Y671240D01*
X223207Y671248D01*
X223359Y671335D01*
X223512Y671419D01*
X223533Y671436D01*
X223556Y671449D01*
X223809Y671664D01*
X227241Y675096D01*
X235374Y678465D01*
X244178Y678465D01*
X252311Y675096D01*
X255743Y671664D01*
X255764Y671647D01*
X255781Y671627D01*
X255919Y671519D01*
X256055Y671409D01*
X256078Y671396D01*
X256099Y671380D01*
X256256Y671302D01*
X256410Y671220D01*
X256436Y671212D01*
X256460Y671200D01*
X256629Y671155D01*
X256796Y671105D01*
X256823Y671103D01*
X256849Y671096D01*
X257179Y671069D01*
X790449Y671069D01*
X790449Y583766D01*
X790452Y583735D01*
X790450Y583704D01*
X790472Y583534D01*
X790489Y583366D01*
X790498Y583336D01*
X790502Y583305D01*
X790603Y582989D01*
X790675Y582817D01*
X790675Y580503D01*
X790603Y580331D01*
X790594Y580301D01*
X790580Y580273D01*
X790536Y580109D01*
X790487Y579946D01*
X790484Y579915D01*
X790476Y579885D01*
X790449Y579554D01*
X790449Y508667D01*
X790451Y508645D01*
X790449Y508623D01*
X790471Y508445D01*
X790489Y508267D01*
X790495Y508245D01*
X790498Y508223D01*
X790554Y508052D01*
X790607Y507882D01*
X790617Y507862D01*
X790624Y507841D01*
X790713Y507685D01*
X790799Y507528D01*
X790813Y507511D01*
X790824Y507491D01*
X790942Y507356D01*
X791056Y507218D01*
X791074Y507204D01*
X791088Y507188D01*
X791231Y507078D01*
X791370Y506966D01*
X791390Y506956D01*
X791408Y506942D01*
X791703Y506791D01*
X795009Y505421D01*
X795136Y505294D01*
X795157Y505277D01*
X795174Y505256D01*
X795312Y505149D01*
X795448Y505039D01*
X795471Y505026D01*
X795493Y505010D01*
X795649Y504932D01*
X795803Y504850D01*
X795829Y504842D01*
X795853Y504830D01*
X796022Y504785D01*
X796189Y504735D01*
X796216Y504733D01*
X796242Y504726D01*
X796573Y504699D01*
X831180Y504699D01*
X834634Y503268D01*
X837564Y500338D01*
X851892Y486010D01*
X851906Y485998D01*
X851918Y485985D01*
X852062Y485871D01*
X852204Y485755D01*
X852219Y485746D01*
X852233Y485735D01*
X852398Y485652D01*
X852559Y485566D01*
X852576Y485561D01*
X852592Y485553D01*
X852770Y485503D01*
X852945Y485451D01*
X852963Y485450D01*
X852980Y485445D01*
X853163Y485431D01*
X853346Y485415D01*
X853364Y485417D01*
X853382Y485415D01*
X853564Y485438D01*
X853747Y485458D01*
X853764Y485464D01*
X853781Y485466D01*
X853955Y485524D01*
X854130Y485580D01*
X854146Y485588D01*
X854163Y485594D01*
X854322Y485686D01*
X854483Y485774D01*
X854496Y485786D01*
X854512Y485795D01*
X854765Y486010D01*
X857415Y488660D01*
X865295Y491924D01*
X865548Y492029D01*
X874352Y492029D01*
X882485Y488660D01*
X888710Y482435D01*
X892079Y474302D01*
X892079Y465498D01*
X888710Y457365D01*
X882485Y451140D01*
X877201Y448952D01*
X877201Y448951D01*
X874352Y447771D01*
X865548Y447771D01*
X857415Y451140D01*
X851190Y457365D01*
X849391Y461708D01*
X849376Y461736D01*
X849366Y461766D01*
X849281Y461913D01*
X849201Y462063D01*
X849181Y462087D01*
X849165Y462114D01*
X848951Y462367D01*
X826012Y485306D01*
X825991Y485323D01*
X825974Y485344D01*
X825836Y485451D01*
X825700Y485561D01*
X825677Y485574D01*
X825656Y485590D01*
X825499Y485668D01*
X825345Y485750D01*
X825319Y485758D01*
X825295Y485770D01*
X825126Y485815D01*
X824959Y485865D01*
X824932Y485867D01*
X824906Y485874D01*
X824576Y485901D01*
X796573Y485901D01*
X796546Y485899D01*
X796519Y485901D01*
X796345Y485879D01*
X796172Y485861D01*
X796146Y485854D01*
X796120Y485850D01*
X795954Y485795D01*
X795787Y485743D01*
X795763Y485730D01*
X795738Y485722D01*
X795586Y485635D01*
X795433Y485551D01*
X795413Y485534D01*
X795389Y485521D01*
X795136Y485306D01*
X795009Y485179D01*
X791703Y483809D01*
X791683Y483799D01*
X791662Y483792D01*
X791505Y483704D01*
X791348Y483619D01*
X791331Y483605D01*
X791311Y483594D01*
X791175Y483477D01*
X791037Y483363D01*
X791023Y483345D01*
X791007Y483331D01*
X790897Y483189D01*
X790784Y483050D01*
X790773Y483030D01*
X790760Y483013D01*
X790680Y482852D01*
X790597Y482694D01*
X790590Y482672D01*
X790580Y482652D01*
X790534Y482479D01*
X790484Y482307D01*
X790482Y482285D01*
X790476Y482263D01*
X790449Y481933D01*
X790449Y438884D01*
X790451Y438862D01*
X790449Y438839D01*
X790471Y438662D01*
X790489Y438483D01*
X790495Y438462D01*
X790498Y438440D01*
X790554Y438270D01*
X790607Y438098D01*
X790617Y438079D01*
X790624Y438058D01*
X790713Y437902D01*
X790799Y437744D01*
X790813Y437727D01*
X790824Y437708D01*
X790942Y437573D01*
X791056Y437435D01*
X791074Y437421D01*
X791088Y437404D01*
X791231Y437295D01*
X791370Y437183D01*
X791390Y437173D01*
X791408Y437159D01*
X791703Y437007D01*
X791939Y436909D01*
X793575Y435274D01*
X794460Y433136D01*
X794460Y430823D01*
X793575Y428686D01*
X791939Y427050D01*
X791703Y426952D01*
X791683Y426942D01*
X791662Y426935D01*
X791506Y426847D01*
X791348Y426762D01*
X791331Y426748D01*
X791311Y426737D01*
X791176Y426620D01*
X791037Y426506D01*
X791023Y426488D01*
X791007Y426474D01*
X790897Y426333D01*
X790784Y426193D01*
X790773Y426173D01*
X790760Y426156D01*
X790680Y425995D01*
X790597Y425837D01*
X790590Y425815D01*
X790580Y425795D01*
X790534Y425622D01*
X790484Y425450D01*
X790482Y425428D01*
X790476Y425406D01*
X790449Y425076D01*
X790449Y366684D01*
X790450Y366676D01*
X790449Y366667D01*
X790470Y366475D01*
X790489Y366284D01*
X790491Y366275D01*
X790492Y366266D01*
X790550Y366084D01*
X790607Y365899D01*
X790611Y365891D01*
X790614Y365883D01*
X790707Y365714D01*
X790799Y365545D01*
X790804Y365538D01*
X790809Y365530D01*
X790933Y365383D01*
X791056Y365236D01*
X791063Y365230D01*
X791069Y365223D01*
X791220Y365104D01*
X791370Y364983D01*
X791378Y364979D01*
X791385Y364974D01*
X791558Y364886D01*
X791727Y364798D01*
X791736Y364795D01*
X791744Y364791D01*
X791930Y364739D01*
X792114Y364686D01*
X792123Y364686D01*
X792132Y364683D01*
X792325Y364669D01*
X792516Y364654D01*
X792524Y364655D01*
X792533Y364654D01*
X792726Y364678D01*
X792915Y364700D01*
X792924Y364703D01*
X792933Y364704D01*
X793116Y364766D01*
X793298Y364825D01*
X793306Y364830D01*
X793314Y364833D01*
X793481Y364929D01*
X793649Y365023D01*
X793656Y365029D01*
X793663Y365033D01*
X793916Y365248D01*
X797726Y369058D01*
X797743Y369079D01*
X797764Y369096D01*
X797870Y369234D01*
X797981Y369370D01*
X797994Y369393D01*
X798010Y369414D01*
X798088Y369570D01*
X798170Y369725D01*
X798178Y369751D01*
X798190Y369775D01*
X798235Y369944D01*
X798285Y370111D01*
X798287Y370138D01*
X798294Y370164D01*
X798321Y370494D01*
X798321Y398110D01*
X799752Y401564D01*
X807476Y409288D01*
X810930Y410719D01*
X848534Y410719D01*
X848556Y410721D01*
X848578Y410719D01*
X848756Y410741D01*
X848934Y410759D01*
X848956Y410765D01*
X848978Y410768D01*
X849148Y410824D01*
X849319Y410877D01*
X849339Y410887D01*
X849360Y410894D01*
X849516Y410983D01*
X849673Y411069D01*
X849691Y411083D01*
X849710Y411094D01*
X849845Y411212D01*
X849983Y411326D01*
X849997Y411344D01*
X850013Y411358D01*
X850123Y411500D01*
X850235Y411640D01*
X850245Y411660D01*
X850259Y411678D01*
X850410Y411973D01*
X851190Y413855D01*
X857415Y420080D01*
X859226Y420830D01*
X865548Y423449D01*
X874352Y423449D01*
X882485Y420080D01*
X888710Y413855D01*
X892079Y405722D01*
X892079Y396918D01*
X888710Y388785D01*
X882485Y382560D01*
X874352Y379191D01*
X865548Y379191D01*
X857415Y382560D01*
X851190Y388785D01*
X850410Y390667D01*
X850400Y390687D01*
X850393Y390708D01*
X850305Y390865D01*
X850220Y391022D01*
X850206Y391039D01*
X850195Y391059D01*
X850078Y391195D01*
X849964Y391333D01*
X849947Y391347D01*
X849932Y391364D01*
X849791Y391473D01*
X849651Y391586D01*
X849631Y391597D01*
X849614Y391610D01*
X849453Y391690D01*
X849295Y391773D01*
X849273Y391780D01*
X849253Y391790D01*
X849080Y391836D01*
X848908Y391886D01*
X848886Y391888D01*
X848865Y391894D01*
X848534Y391921D01*
X819150Y391921D01*
X819132Y391919D01*
X819114Y391921D01*
X818932Y391900D01*
X818749Y391881D01*
X818732Y391876D01*
X818715Y391874D01*
X818540Y391817D01*
X818364Y391763D01*
X818349Y391755D01*
X818332Y391749D01*
X818172Y391659D01*
X818010Y391571D01*
X817997Y391560D01*
X817981Y391551D01*
X817842Y391431D01*
X817701Y391314D01*
X817690Y391300D01*
X817676Y391288D01*
X817564Y391143D01*
X817449Y391000D01*
X817441Y390984D01*
X817430Y390970D01*
X817348Y390805D01*
X817263Y390643D01*
X817258Y390626D01*
X817250Y390610D01*
X817203Y390431D01*
X817152Y390256D01*
X817150Y390238D01*
X817146Y390221D01*
X817119Y389890D01*
X817119Y363890D01*
X815688Y360436D01*
X802474Y347222D01*
X802457Y347201D01*
X802436Y347184D01*
X802329Y347046D01*
X802219Y346910D01*
X802206Y346887D01*
X802190Y346866D01*
X802112Y346709D01*
X802030Y346555D01*
X802022Y346529D01*
X802010Y346505D01*
X801965Y346336D01*
X801915Y346169D01*
X801913Y346142D01*
X801906Y346116D01*
X801879Y345786D01*
X801879Y345605D01*
X800061Y341217D01*
X796703Y337859D01*
X792262Y336020D01*
X792079Y336001D01*
X792062Y335996D01*
X792045Y335994D01*
X791870Y335937D01*
X791694Y335883D01*
X791679Y335875D01*
X791662Y335869D01*
X791502Y335779D01*
X791340Y335691D01*
X791327Y335680D01*
X791311Y335671D01*
X791172Y335551D01*
X791031Y335434D01*
X791020Y335420D01*
X791007Y335408D01*
X790894Y335263D01*
X790779Y335120D01*
X790771Y335104D01*
X790760Y335090D01*
X790678Y334925D01*
X790593Y334763D01*
X790588Y334746D01*
X790580Y334730D01*
X790533Y334551D01*
X790482Y334376D01*
X790480Y334358D01*
X790476Y334341D01*
X790449Y334010D01*
X790449Y300408D01*
X790451Y300382D01*
X790449Y300355D01*
X790471Y300181D01*
X790489Y300008D01*
X790497Y299982D01*
X790500Y299956D01*
X790556Y299790D01*
X790607Y299623D01*
X790620Y299599D01*
X790628Y299574D01*
X790715Y299422D01*
X790799Y299269D01*
X790816Y299248D01*
X790829Y299225D01*
X791044Y298972D01*
X791269Y298747D01*
X791490Y298214D01*
X791496Y298202D01*
X791500Y298189D01*
X791591Y298025D01*
X791680Y297859D01*
X791689Y297848D01*
X791695Y297837D01*
X791816Y297694D01*
X791936Y297548D01*
X791947Y297540D01*
X791956Y297530D01*
X792103Y297413D01*
X792249Y297295D01*
X792261Y297288D01*
X792271Y297280D01*
X792440Y297195D01*
X792606Y297108D01*
X792618Y297104D01*
X792630Y297098D01*
X792812Y297047D01*
X792992Y296994D01*
X793005Y296993D01*
X793018Y296990D01*
X793207Y296976D01*
X793393Y296960D01*
X793406Y296961D01*
X793420Y296960D01*
X793607Y296984D01*
X793793Y297005D01*
X793806Y297009D01*
X793819Y297011D01*
X793997Y297070D01*
X794177Y297128D01*
X794188Y297135D01*
X794201Y297139D01*
X794364Y297233D01*
X794528Y297325D01*
X794538Y297333D01*
X794550Y297340D01*
X794803Y297555D01*
X840496Y343248D01*
X843950Y344679D01*
X848534Y344679D01*
X848556Y344681D01*
X848578Y344679D01*
X848756Y344701D01*
X848934Y344719D01*
X848956Y344725D01*
X848978Y344728D01*
X849148Y344784D01*
X849319Y344837D01*
X849339Y344847D01*
X849360Y344854D01*
X849516Y344943D01*
X849673Y345029D01*
X849691Y345043D01*
X849710Y345054D01*
X849845Y345172D01*
X849983Y345286D01*
X849997Y345304D01*
X850013Y345318D01*
X850123Y345460D01*
X850235Y345600D01*
X850245Y345620D01*
X850259Y345638D01*
X850410Y345933D01*
X851190Y347815D01*
X857415Y354040D01*
X865548Y357409D01*
X874352Y357409D01*
X882485Y354040D01*
X888710Y347815D01*
X892079Y339682D01*
X892079Y330878D01*
X888710Y322745D01*
X882485Y316520D01*
X874352Y313151D01*
X865548Y313151D01*
X857415Y316520D01*
X851190Y322745D01*
X851002Y323199D01*
X850996Y323210D01*
X850992Y323223D01*
X850901Y323388D01*
X850812Y323553D01*
X850804Y323564D01*
X850797Y323575D01*
X850676Y323719D01*
X850556Y323864D01*
X850545Y323872D01*
X850537Y323882D01*
X850389Y323999D01*
X850243Y324117D01*
X850231Y324124D01*
X850221Y324132D01*
X850053Y324217D01*
X849887Y324305D01*
X849874Y324308D01*
X849862Y324314D01*
X849681Y324365D01*
X849500Y324418D01*
X849487Y324419D01*
X849474Y324422D01*
X849286Y324436D01*
X849099Y324452D01*
X849086Y324451D01*
X849072Y324452D01*
X848885Y324428D01*
X848699Y324407D01*
X848686Y324403D01*
X848673Y324401D01*
X848495Y324341D01*
X848316Y324284D01*
X848304Y324277D01*
X848291Y324273D01*
X848128Y324179D01*
X847964Y324088D01*
X847954Y324079D01*
X847942Y324072D01*
X847689Y323858D01*
X812634Y288802D01*
X812617Y288781D01*
X812596Y288764D01*
X812489Y288626D01*
X812379Y288490D01*
X812366Y288467D01*
X812350Y288446D01*
X812272Y288289D01*
X812190Y288135D01*
X812182Y288109D01*
X812170Y288085D01*
X812125Y287916D01*
X812075Y287749D01*
X812073Y287722D01*
X812066Y287696D01*
X812039Y287366D01*
X812039Y214030D01*
X810608Y210576D01*
X807678Y207647D01*
X807678Y207646D01*
X798264Y198232D01*
X795334Y195303D01*
X794713Y195045D01*
X794404Y194917D01*
X794377Y194903D01*
X794347Y194893D01*
X794199Y194807D01*
X794049Y194727D01*
X794025Y194707D01*
X793998Y194692D01*
X793745Y194477D01*
X792319Y193050D01*
X791703Y192795D01*
X791683Y192785D01*
X791662Y192778D01*
X791506Y192690D01*
X791348Y192605D01*
X791331Y192591D01*
X791311Y192580D01*
X791176Y192463D01*
X791037Y192349D01*
X791023Y192331D01*
X791007Y192317D01*
X790897Y192176D01*
X790784Y192036D01*
X790773Y192016D01*
X790760Y191999D01*
X790680Y191838D01*
X790597Y191680D01*
X790590Y191658D01*
X790580Y191638D01*
X790534Y191465D01*
X790484Y191293D01*
X790482Y191271D01*
X790476Y191249D01*
X790449Y190919D01*
X790449Y85516D01*
X790453Y85476D01*
X790450Y85435D01*
X790473Y85275D01*
X790489Y85115D01*
X790501Y85077D01*
X790506Y85036D01*
X790560Y84884D01*
X790607Y84730D01*
X790626Y84695D01*
X790639Y84657D01*
X790722Y84518D01*
X790799Y84376D01*
X790824Y84345D01*
X790845Y84310D01*
X790953Y84191D01*
X791056Y84067D01*
X791088Y84042D01*
X791115Y84012D01*
X791245Y83916D01*
X791370Y83815D01*
X791406Y83796D01*
X791438Y83772D01*
X791585Y83703D01*
X791727Y83629D01*
X791766Y83618D01*
X791803Y83601D01*
X791959Y83562D01*
X792114Y83518D01*
X792155Y83514D01*
X792194Y83505D01*
X792482Y83488D01*
X792516Y83485D01*
X792520Y83485D01*
G37*
G36*
X470720Y3064D02*
X470720Y3064D01*
X470839Y3071D01*
X470877Y3084D01*
X470917Y3089D01*
X471028Y3132D01*
X471141Y3169D01*
X471175Y3191D01*
X471213Y3206D01*
X471309Y3275D01*
X471410Y3339D01*
X471438Y3369D01*
X471470Y3392D01*
X471546Y3484D01*
X471628Y3571D01*
X471647Y3606D01*
X471673Y3637D01*
X471724Y3745D01*
X471781Y3849D01*
X471791Y3889D01*
X471809Y3925D01*
X471831Y4042D01*
X471861Y4157D01*
X471865Y4217D01*
X471868Y4237D01*
X471867Y4258D01*
X471871Y4318D01*
X471871Y183594D01*
X471867Y183623D01*
X471870Y183653D01*
X471847Y183781D01*
X471831Y183909D01*
X471820Y183937D01*
X471815Y183966D01*
X471762Y184084D01*
X471714Y184205D01*
X471697Y184229D01*
X471685Y184256D01*
X471604Y184357D01*
X471527Y184462D01*
X471505Y184481D01*
X471486Y184504D01*
X471382Y184582D01*
X471282Y184665D01*
X471256Y184678D01*
X471232Y184696D01*
X471087Y184766D01*
X469146Y185570D01*
X468907Y185810D01*
X468829Y185870D01*
X468757Y185938D01*
X468704Y185967D01*
X468656Y186004D01*
X468565Y186044D01*
X468478Y186092D01*
X468420Y186107D01*
X468364Y186131D01*
X468266Y186146D01*
X468170Y186171D01*
X468070Y186177D01*
X468050Y186181D01*
X468038Y186179D01*
X468010Y186181D01*
X456550Y186181D01*
X456452Y186169D01*
X456353Y186166D01*
X456295Y186149D01*
X456235Y186141D01*
X456143Y186105D01*
X456048Y186077D01*
X455995Y186047D01*
X455939Y186024D01*
X455859Y185966D01*
X455774Y185916D01*
X455698Y185850D01*
X455682Y185838D01*
X455674Y185828D01*
X455653Y185810D01*
X455414Y185570D01*
X453277Y184685D01*
X450963Y184685D01*
X448826Y185570D01*
X447190Y187206D01*
X446305Y189343D01*
X446305Y191657D01*
X447190Y193794D01*
X448826Y195430D01*
X450602Y196165D01*
X450627Y196180D01*
X450655Y196189D01*
X450765Y196258D01*
X450878Y196322D01*
X450899Y196343D01*
X450924Y196359D01*
X451013Y196453D01*
X451106Y196544D01*
X451122Y196569D01*
X451142Y196590D01*
X451205Y196704D01*
X451273Y196815D01*
X451281Y196843D01*
X451296Y196869D01*
X451328Y196995D01*
X451366Y197119D01*
X451368Y197148D01*
X451375Y197177D01*
X451385Y197338D01*
X451385Y199277D01*
X452270Y201414D01*
X453906Y203049D01*
X454222Y203180D01*
X454265Y203205D01*
X454312Y203222D01*
X454403Y203284D01*
X454498Y203338D01*
X454534Y203372D01*
X454575Y203400D01*
X454648Y203483D01*
X454727Y203559D01*
X454753Y203602D01*
X454786Y203639D01*
X454836Y203736D01*
X454893Y203830D01*
X454908Y203878D01*
X454930Y203922D01*
X454954Y204029D01*
X454987Y204134D01*
X454989Y204184D01*
X455000Y204232D01*
X454997Y204342D01*
X455002Y204452D01*
X454992Y204501D01*
X454990Y204550D01*
X454960Y204656D01*
X454938Y204763D01*
X454916Y204808D01*
X454902Y204856D01*
X454846Y204950D01*
X454798Y205049D01*
X454766Y205087D01*
X454740Y205130D01*
X454634Y205251D01*
X453340Y206544D01*
X452191Y209318D01*
X452191Y212322D01*
X453340Y215096D01*
X455464Y217220D01*
X458238Y218369D01*
X461242Y218369D01*
X464030Y217214D01*
X464055Y217186D01*
X464147Y217126D01*
X464234Y217058D01*
X464279Y217038D01*
X464321Y217011D01*
X464425Y216976D01*
X464525Y216932D01*
X464575Y216924D01*
X464622Y216908D01*
X464731Y216899D01*
X464840Y216882D01*
X464889Y216887D01*
X464939Y216883D01*
X465047Y216902D01*
X465156Y216912D01*
X465203Y216929D01*
X465252Y216937D01*
X465352Y216982D01*
X465455Y217019D01*
X465497Y217047D01*
X465542Y217068D01*
X465628Y217136D01*
X465719Y217198D01*
X465752Y217235D01*
X465790Y217266D01*
X465856Y217354D01*
X465929Y217436D01*
X465952Y217481D01*
X465982Y217520D01*
X466036Y217632D01*
X468164Y219760D01*
X471087Y220970D01*
X471113Y220985D01*
X471141Y220994D01*
X471251Y221064D01*
X471364Y221128D01*
X471385Y221149D01*
X471410Y221164D01*
X471499Y221259D01*
X471592Y221349D01*
X471608Y221374D01*
X471628Y221396D01*
X471690Y221510D01*
X471758Y221620D01*
X471767Y221649D01*
X471781Y221674D01*
X471814Y221800D01*
X471852Y221924D01*
X471853Y221954D01*
X471861Y221982D01*
X471871Y222143D01*
X471871Y321310D01*
X471856Y321428D01*
X471849Y321547D01*
X471836Y321585D01*
X471831Y321626D01*
X471787Y321736D01*
X471751Y321849D01*
X471729Y321884D01*
X471714Y321921D01*
X471644Y322017D01*
X471580Y322118D01*
X471551Y322146D01*
X471527Y322179D01*
X471436Y322255D01*
X471349Y322336D01*
X471313Y322356D01*
X471282Y322381D01*
X471175Y322432D01*
X471070Y322490D01*
X471031Y322500D01*
X470995Y322517D01*
X470878Y322539D01*
X470762Y322569D01*
X470702Y322573D01*
X470682Y322577D01*
X470662Y322575D01*
X470602Y322579D01*
X467619Y322579D01*
X465752Y323353D01*
X464323Y324782D01*
X463549Y326649D01*
X463549Y328671D01*
X464323Y330538D01*
X465752Y331967D01*
X467619Y332741D01*
X470602Y332741D01*
X470720Y332756D01*
X470839Y332763D01*
X470877Y332776D01*
X470917Y332781D01*
X471028Y332824D01*
X471141Y332861D01*
X471175Y332883D01*
X471213Y332898D01*
X471309Y332967D01*
X471410Y333031D01*
X471438Y333061D01*
X471470Y333084D01*
X471546Y333176D01*
X471628Y333263D01*
X471647Y333298D01*
X471673Y333329D01*
X471724Y333437D01*
X471781Y333541D01*
X471791Y333581D01*
X471809Y333617D01*
X471831Y333734D01*
X471861Y333849D01*
X471865Y333909D01*
X471868Y333929D01*
X471867Y333950D01*
X471871Y334010D01*
X471871Y340896D01*
X471856Y341014D01*
X471849Y341133D01*
X471836Y341171D01*
X471831Y341212D01*
X471787Y341322D01*
X471751Y341435D01*
X471729Y341470D01*
X471714Y341507D01*
X471644Y341603D01*
X471580Y341704D01*
X471551Y341732D01*
X471527Y341765D01*
X471436Y341841D01*
X471349Y341922D01*
X471313Y341942D01*
X471282Y341967D01*
X471175Y342018D01*
X471070Y342076D01*
X471031Y342086D01*
X470995Y342103D01*
X470878Y342125D01*
X470762Y342155D01*
X470702Y342159D01*
X470682Y342163D01*
X470662Y342161D01*
X470602Y342165D01*
X468743Y342165D01*
X466606Y343050D01*
X466113Y343544D01*
X466035Y343604D01*
X465963Y343672D01*
X465910Y343701D01*
X465862Y343738D01*
X465771Y343778D01*
X465684Y343826D01*
X465626Y343841D01*
X465570Y343865D01*
X465472Y343880D01*
X465376Y343905D01*
X465276Y343911D01*
X465256Y343915D01*
X465244Y343913D01*
X465216Y343915D01*
X444104Y343915D01*
X444006Y343903D01*
X443907Y343900D01*
X443849Y343883D01*
X443789Y343875D01*
X443697Y343839D01*
X443602Y343811D01*
X443549Y343781D01*
X443493Y343758D01*
X443413Y343700D01*
X443328Y343650D01*
X443252Y343584D01*
X443236Y343572D01*
X443228Y343562D01*
X443207Y343544D01*
X442714Y343050D01*
X440577Y342165D01*
X438263Y342165D01*
X436126Y343050D01*
X434490Y344686D01*
X433605Y346823D01*
X433605Y347980D01*
X433590Y348098D01*
X433583Y348217D01*
X433570Y348255D01*
X433565Y348296D01*
X433522Y348406D01*
X433485Y348519D01*
X433463Y348554D01*
X433448Y348591D01*
X433379Y348687D01*
X433315Y348788D01*
X433285Y348816D01*
X433262Y348849D01*
X433170Y348925D01*
X433083Y349006D01*
X433048Y349026D01*
X433017Y349051D01*
X432909Y349102D01*
X432805Y349160D01*
X432765Y349170D01*
X432729Y349187D01*
X432612Y349209D01*
X432497Y349239D01*
X432437Y349243D01*
X432417Y349247D01*
X432396Y349245D01*
X432336Y349249D01*
X421410Y349249D01*
X421312Y349237D01*
X421213Y349234D01*
X421155Y349217D01*
X421095Y349209D01*
X421003Y349173D01*
X420908Y349145D01*
X420856Y349115D01*
X420799Y349092D01*
X420719Y349034D01*
X420634Y348984D01*
X420559Y348918D01*
X420542Y348906D01*
X420534Y348896D01*
X420513Y348878D01*
X418296Y346660D01*
X415522Y345511D01*
X412518Y345511D01*
X412220Y345635D01*
X412172Y345648D01*
X412127Y345669D01*
X412019Y345690D01*
X411913Y345719D01*
X411863Y345720D01*
X411814Y345729D01*
X411705Y345722D01*
X411595Y345724D01*
X411547Y345712D01*
X411497Y345709D01*
X411393Y345676D01*
X411286Y345650D01*
X411242Y345627D01*
X411195Y345611D01*
X411102Y345553D01*
X411005Y345501D01*
X410968Y345468D01*
X410926Y345441D01*
X410851Y345361D01*
X410769Y345287D01*
X410742Y345246D01*
X410708Y345210D01*
X410655Y345113D01*
X410595Y345022D01*
X410578Y344974D01*
X410554Y344931D01*
X410527Y344825D01*
X410491Y344721D01*
X410487Y344671D01*
X410475Y344623D01*
X410465Y344462D01*
X410465Y342569D01*
X410477Y342471D01*
X410480Y342372D01*
X410497Y342314D01*
X410505Y342254D01*
X410541Y342162D01*
X410569Y342067D01*
X410599Y342015D01*
X410622Y341958D01*
X410680Y341878D01*
X410730Y341793D01*
X410796Y341717D01*
X410808Y341701D01*
X410818Y341693D01*
X410836Y341672D01*
X423165Y329344D01*
X423165Y312024D01*
X423177Y311926D01*
X423180Y311827D01*
X423197Y311769D01*
X423205Y311709D01*
X423241Y311617D01*
X423269Y311522D01*
X423299Y311469D01*
X423322Y311413D01*
X423380Y311333D01*
X423430Y311248D01*
X423496Y311172D01*
X423508Y311156D01*
X423518Y311148D01*
X423536Y311127D01*
X424030Y310634D01*
X424915Y308497D01*
X424915Y306183D01*
X424030Y304046D01*
X422394Y302410D01*
X420257Y301525D01*
X417943Y301525D01*
X415806Y302410D01*
X414170Y304046D01*
X413591Y305445D01*
X413522Y305566D01*
X413457Y305689D01*
X413444Y305704D01*
X413434Y305721D01*
X413337Y305821D01*
X413243Y305924D01*
X413226Y305935D01*
X413212Y305950D01*
X413094Y306022D01*
X412978Y306099D01*
X412958Y306105D01*
X412941Y306116D01*
X412809Y306157D01*
X412677Y306202D01*
X412656Y306204D01*
X412637Y306210D01*
X412499Y306216D01*
X412360Y306227D01*
X412340Y306224D01*
X412320Y306225D01*
X412184Y306197D01*
X412046Y306173D01*
X412028Y306165D01*
X412008Y306161D01*
X411883Y306099D01*
X411756Y306042D01*
X411741Y306030D01*
X411722Y306021D01*
X411616Y305930D01*
X411508Y305844D01*
X411496Y305828D01*
X411480Y305814D01*
X411400Y305701D01*
X411317Y305590D01*
X411304Y305564D01*
X411297Y305554D01*
X411290Y305535D01*
X411246Y305445D01*
X410260Y303064D01*
X408136Y300940D01*
X405362Y299791D01*
X402358Y299791D01*
X399584Y300940D01*
X397460Y303064D01*
X396311Y305838D01*
X396311Y308842D01*
X396905Y310274D01*
X396907Y310283D01*
X396912Y310291D01*
X396949Y310436D01*
X396989Y310581D01*
X396989Y310590D01*
X396991Y310599D01*
X397001Y310760D01*
X397001Y347980D01*
X396986Y348098D01*
X396979Y348217D01*
X396966Y348255D01*
X396961Y348296D01*
X396918Y348406D01*
X396881Y348519D01*
X396859Y348554D01*
X396844Y348591D01*
X396775Y348687D01*
X396711Y348788D01*
X396681Y348816D01*
X396658Y348849D01*
X396566Y348925D01*
X396479Y349006D01*
X396444Y349026D01*
X396413Y349051D01*
X396305Y349102D01*
X396201Y349160D01*
X396161Y349170D01*
X396125Y349187D01*
X396008Y349209D01*
X395893Y349239D01*
X395833Y349243D01*
X395813Y349247D01*
X395792Y349245D01*
X395732Y349249D01*
X292100Y349249D01*
X291982Y349234D01*
X291863Y349227D01*
X291825Y349214D01*
X291784Y349209D01*
X291674Y349166D01*
X291561Y349129D01*
X291526Y349107D01*
X291489Y349092D01*
X291393Y349023D01*
X291292Y348959D01*
X291264Y348929D01*
X291231Y348906D01*
X291156Y348814D01*
X291074Y348727D01*
X291054Y348692D01*
X291029Y348661D01*
X290978Y348553D01*
X290920Y348449D01*
X290910Y348409D01*
X290893Y348373D01*
X290871Y348256D01*
X290841Y348141D01*
X290837Y348081D01*
X290833Y348061D01*
X290835Y348040D01*
X290831Y347980D01*
X290831Y278129D01*
X226060Y278129D01*
X225942Y278114D01*
X225823Y278107D01*
X225785Y278094D01*
X225744Y278089D01*
X225634Y278046D01*
X225521Y278009D01*
X225486Y277987D01*
X225449Y277972D01*
X225353Y277903D01*
X225252Y277839D01*
X225224Y277809D01*
X225191Y277786D01*
X225116Y277694D01*
X225034Y277607D01*
X225014Y277572D01*
X224989Y277541D01*
X224938Y277433D01*
X224880Y277329D01*
X224870Y277289D01*
X224853Y277253D01*
X224831Y277136D01*
X224801Y277021D01*
X224797Y276961D01*
X224793Y276941D01*
X224795Y276920D01*
X224791Y276860D01*
X224791Y193343D01*
X121901Y191807D01*
X121793Y191792D01*
X121683Y191785D01*
X121636Y191769D01*
X121586Y191762D01*
X121485Y191721D01*
X121381Y191687D01*
X121338Y191660D01*
X121292Y191641D01*
X121205Y191575D01*
X121112Y191517D01*
X121078Y191480D01*
X121038Y191450D01*
X120969Y191365D01*
X120894Y191285D01*
X120870Y191241D01*
X120839Y191202D01*
X120793Y191102D01*
X120740Y191007D01*
X120728Y190958D01*
X120707Y190913D01*
X120688Y190805D01*
X120661Y190699D01*
X120656Y190621D01*
X120652Y190600D01*
X120654Y190582D01*
X120651Y190538D01*
X120651Y69849D01*
X41909Y69849D01*
X41909Y121920D01*
X41894Y122038D01*
X41887Y122157D01*
X41874Y122195D01*
X41869Y122236D01*
X41826Y122346D01*
X41789Y122459D01*
X41767Y122494D01*
X41752Y122531D01*
X41683Y122627D01*
X41619Y122728D01*
X41589Y122756D01*
X41566Y122789D01*
X41474Y122865D01*
X41387Y122946D01*
X41352Y122966D01*
X41321Y122991D01*
X41213Y123042D01*
X41109Y123100D01*
X41069Y123110D01*
X41033Y123127D01*
X40916Y123149D01*
X40801Y123179D01*
X40741Y123183D01*
X40721Y123187D01*
X40700Y123185D01*
X40640Y123189D01*
X27686Y123189D01*
X27568Y123174D01*
X27449Y123167D01*
X27411Y123154D01*
X27370Y123149D01*
X27260Y123106D01*
X27147Y123069D01*
X27112Y123047D01*
X27075Y123032D01*
X26979Y122963D01*
X26878Y122899D01*
X26850Y122869D01*
X26817Y122846D01*
X26741Y122754D01*
X26660Y122667D01*
X26640Y122632D01*
X26615Y122601D01*
X26564Y122493D01*
X26506Y122389D01*
X26496Y122349D01*
X26479Y122313D01*
X26457Y122196D01*
X26427Y122081D01*
X26423Y122021D01*
X26419Y122001D01*
X26421Y121980D01*
X26417Y121920D01*
X26417Y116637D01*
X24333Y114553D01*
X21387Y114553D01*
X19303Y116637D01*
X19303Y121920D01*
X19288Y122038D01*
X19281Y122157D01*
X19268Y122195D01*
X19263Y122236D01*
X19220Y122346D01*
X19183Y122459D01*
X19161Y122494D01*
X19146Y122531D01*
X19077Y122627D01*
X19013Y122728D01*
X18983Y122756D01*
X18960Y122789D01*
X18868Y122865D01*
X18781Y122946D01*
X18746Y122966D01*
X18715Y122991D01*
X18607Y123042D01*
X18503Y123100D01*
X18463Y123110D01*
X18427Y123127D01*
X18310Y123149D01*
X18195Y123179D01*
X18135Y123183D01*
X18115Y123187D01*
X18094Y123185D01*
X18034Y123189D01*
X2794Y123189D01*
X2676Y123174D01*
X2557Y123167D01*
X2519Y123154D01*
X2478Y123149D01*
X2368Y123106D01*
X2255Y123069D01*
X2220Y123047D01*
X2183Y123032D01*
X2087Y122963D01*
X1986Y122899D01*
X1958Y122869D01*
X1925Y122846D01*
X1849Y122754D01*
X1768Y122667D01*
X1748Y122632D01*
X1723Y122601D01*
X1672Y122493D01*
X1614Y122389D01*
X1604Y122349D01*
X1587Y122313D01*
X1565Y122196D01*
X1535Y122081D01*
X1531Y122021D01*
X1527Y122001D01*
X1529Y121980D01*
X1525Y121920D01*
X1525Y77357D01*
X1537Y77259D01*
X1540Y77160D01*
X1557Y77102D01*
X1565Y77042D01*
X1601Y76950D01*
X1629Y76855D01*
X1659Y76802D01*
X1682Y76746D01*
X1740Y76666D01*
X1790Y76581D01*
X1856Y76505D01*
X1868Y76489D01*
X1878Y76481D01*
X1896Y76460D01*
X30927Y47429D01*
X31005Y47369D01*
X31077Y47301D01*
X31130Y47272D01*
X31178Y47234D01*
X31269Y47195D01*
X31356Y47147D01*
X31414Y47132D01*
X31470Y47108D01*
X31568Y47093D01*
X31664Y47068D01*
X31764Y47061D01*
X31784Y47058D01*
X31796Y47059D01*
X31824Y47058D01*
X120651Y47058D01*
X120651Y4318D01*
X120666Y4200D01*
X120673Y4081D01*
X120686Y4043D01*
X120691Y4002D01*
X120734Y3892D01*
X120771Y3779D01*
X120793Y3744D01*
X120808Y3707D01*
X120878Y3611D01*
X120941Y3510D01*
X120971Y3482D01*
X120994Y3449D01*
X121086Y3373D01*
X121173Y3292D01*
X121208Y3272D01*
X121239Y3247D01*
X121347Y3196D01*
X121451Y3138D01*
X121491Y3128D01*
X121527Y3111D01*
X121644Y3089D01*
X121759Y3059D01*
X121820Y3055D01*
X121840Y3051D01*
X121860Y3053D01*
X121920Y3049D01*
X470602Y3049D01*
X470720Y3064D01*
G37*
G36*
X17785Y125713D02*
X17785Y125713D01*
X17809Y125715D01*
X17832Y125713D01*
X17982Y125736D01*
X18131Y125754D01*
X18153Y125762D01*
X18177Y125765D01*
X18318Y125821D01*
X18459Y125872D01*
X18479Y125885D01*
X18501Y125894D01*
X18625Y125980D01*
X18751Y126062D01*
X18768Y126079D01*
X18787Y126093D01*
X18888Y126205D01*
X18993Y126314D01*
X19005Y126334D01*
X19020Y126352D01*
X19094Y126484D01*
X19170Y126614D01*
X19177Y126636D01*
X19189Y126657D01*
X19230Y126802D01*
X19275Y126946D01*
X19277Y126969D01*
X19284Y126992D01*
X19303Y127236D01*
X19303Y132283D01*
X21387Y134367D01*
X24333Y134367D01*
X26417Y132283D01*
X26417Y127271D01*
X26420Y127242D01*
X26418Y127214D01*
X26440Y127070D01*
X26457Y126925D01*
X26466Y126898D01*
X26471Y126869D01*
X26525Y126734D01*
X26574Y126597D01*
X26590Y126572D01*
X26601Y126546D01*
X26684Y126426D01*
X26763Y126304D01*
X26784Y126284D01*
X26800Y126260D01*
X26909Y126163D01*
X27014Y126062D01*
X27039Y126047D01*
X27060Y126028D01*
X27188Y125958D01*
X27313Y125883D01*
X27340Y125874D01*
X27366Y125860D01*
X27506Y125821D01*
X27645Y125777D01*
X27674Y125774D01*
X27701Y125767D01*
X27945Y125748D01*
X40188Y125790D01*
X40203Y125792D01*
X40219Y125791D01*
X40377Y125813D01*
X40534Y125831D01*
X40549Y125837D01*
X40564Y125839D01*
X40713Y125897D01*
X40861Y125950D01*
X40875Y125959D01*
X40890Y125964D01*
X41021Y126054D01*
X41154Y126140D01*
X41165Y126152D01*
X41178Y126160D01*
X41285Y126277D01*
X41395Y126392D01*
X41403Y126405D01*
X41414Y126417D01*
X41492Y126555D01*
X41573Y126691D01*
X41578Y126706D01*
X41585Y126720D01*
X41630Y126872D01*
X41678Y127024D01*
X41679Y127040D01*
X41683Y127055D01*
X41706Y127298D01*
X41771Y133760D01*
X68442Y133760D01*
X68580Y133749D01*
X111760Y133749D01*
X111778Y133750D01*
X111796Y133749D01*
X111978Y133770D01*
X112161Y133789D01*
X112178Y133794D01*
X112195Y133796D01*
X112370Y133853D01*
X112546Y133907D01*
X112561Y133915D01*
X112578Y133921D01*
X112738Y134011D01*
X112900Y134098D01*
X112913Y134110D01*
X112929Y134119D01*
X113068Y134239D01*
X113209Y134356D01*
X113220Y134370D01*
X113234Y134382D01*
X113346Y134527D01*
X113461Y134670D01*
X113469Y134686D01*
X113480Y134700D01*
X113562Y134865D01*
X113647Y135027D01*
X113652Y135044D01*
X113660Y135060D01*
X113707Y135239D01*
X113758Y135414D01*
X113760Y135432D01*
X113764Y135449D01*
X113791Y135780D01*
X113791Y198629D01*
X218440Y198629D01*
X218458Y198631D01*
X218476Y198629D01*
X218658Y198650D01*
X218841Y198669D01*
X218858Y198674D01*
X218875Y198676D01*
X219050Y198733D01*
X219226Y198787D01*
X219241Y198795D01*
X219258Y198801D01*
X219418Y198891D01*
X219580Y198979D01*
X219593Y198990D01*
X219609Y198999D01*
X219748Y199119D01*
X219889Y199236D01*
X219900Y199250D01*
X219914Y199262D01*
X220026Y199407D01*
X220141Y199550D01*
X220149Y199566D01*
X220160Y199580D01*
X220242Y199745D01*
X220327Y199907D01*
X220332Y199924D01*
X220340Y199941D01*
X220387Y200119D01*
X220438Y200294D01*
X220440Y200312D01*
X220444Y200329D01*
X220471Y200660D01*
X220471Y282449D01*
X281940Y282449D01*
X281958Y282451D01*
X281976Y282449D01*
X282158Y282470D01*
X282341Y282489D01*
X282358Y282494D01*
X282375Y282496D01*
X282550Y282553D01*
X282726Y282607D01*
X282741Y282615D01*
X282758Y282621D01*
X282918Y282711D01*
X283080Y282799D01*
X283093Y282810D01*
X283109Y282819D01*
X283248Y282939D01*
X283389Y283056D01*
X283400Y283070D01*
X283414Y283082D01*
X283526Y283227D01*
X283641Y283370D01*
X283649Y283386D01*
X283660Y283400D01*
X283742Y283565D01*
X283827Y283727D01*
X283832Y283744D01*
X283840Y283761D01*
X283887Y283939D01*
X283938Y284114D01*
X283940Y284132D01*
X283944Y284149D01*
X283971Y284480D01*
X283971Y386080D01*
X283969Y386098D01*
X283971Y386116D01*
X283950Y386298D01*
X283931Y386481D01*
X283926Y386498D01*
X283924Y386515D01*
X283867Y386690D01*
X283813Y386866D01*
X283805Y386881D01*
X283799Y386898D01*
X283709Y387058D01*
X283621Y387220D01*
X283610Y387233D01*
X283601Y387249D01*
X283481Y387388D01*
X283364Y387529D01*
X283350Y387540D01*
X283338Y387554D01*
X283193Y387666D01*
X283050Y387781D01*
X283034Y387789D01*
X283020Y387800D01*
X282855Y387882D01*
X282693Y387967D01*
X282676Y387972D01*
X282660Y387980D01*
X282481Y388027D01*
X282306Y388078D01*
X282288Y388080D01*
X282271Y388084D01*
X281940Y388111D01*
X223520Y388111D01*
X223502Y388109D01*
X223484Y388111D01*
X223302Y388090D01*
X223119Y388071D01*
X223102Y388066D01*
X223085Y388064D01*
X222910Y388007D01*
X222734Y387953D01*
X222719Y387945D01*
X222702Y387939D01*
X222542Y387849D01*
X222380Y387761D01*
X222367Y387750D01*
X222351Y387741D01*
X222212Y387621D01*
X222071Y387504D01*
X222060Y387490D01*
X222047Y387478D01*
X221934Y387333D01*
X221819Y387190D01*
X221811Y387174D01*
X221800Y387160D01*
X221718Y386995D01*
X221633Y386833D01*
X221628Y386816D01*
X221620Y386800D01*
X221573Y386621D01*
X221522Y386446D01*
X221520Y386428D01*
X221516Y386411D01*
X221489Y386080D01*
X221489Y361521D01*
X204899Y344931D01*
X190500Y344931D01*
X190482Y344929D01*
X190464Y344931D01*
X190282Y344910D01*
X190099Y344891D01*
X190082Y344886D01*
X190065Y344884D01*
X189890Y344827D01*
X189714Y344773D01*
X189699Y344765D01*
X189682Y344759D01*
X189522Y344669D01*
X189360Y344581D01*
X189347Y344570D01*
X189331Y344561D01*
X189192Y344441D01*
X189051Y344324D01*
X189040Y344310D01*
X189027Y344298D01*
X188914Y344153D01*
X188799Y344010D01*
X188791Y343994D01*
X188780Y343980D01*
X188698Y343815D01*
X188613Y343653D01*
X188608Y343636D01*
X188600Y343620D01*
X188553Y343441D01*
X188502Y343266D01*
X188500Y343248D01*
X188496Y343231D01*
X188469Y342900D01*
X188469Y225551D01*
X68580Y225551D01*
X68560Y225549D01*
X68540Y225551D01*
X68360Y225529D01*
X68179Y225511D01*
X68160Y225505D01*
X68140Y225503D01*
X67968Y225446D01*
X67794Y225393D01*
X67777Y225384D01*
X67758Y225377D01*
X67600Y225288D01*
X67440Y225201D01*
X67425Y225189D01*
X67408Y225179D01*
X67270Y225059D01*
X67131Y224944D01*
X67119Y224928D01*
X67103Y224915D01*
X66992Y224771D01*
X66879Y224630D01*
X66870Y224612D01*
X66857Y224596D01*
X66777Y224433D01*
X66693Y224273D01*
X66688Y224253D01*
X66679Y224235D01*
X66632Y224061D01*
X66582Y223886D01*
X66580Y223866D01*
X66575Y223846D01*
X66549Y223516D01*
X66683Y161543D01*
X3048Y161543D01*
X3022Y161540D01*
X2996Y161542D01*
X2849Y161520D01*
X2702Y161503D01*
X2677Y161495D01*
X2651Y161491D01*
X2513Y161436D01*
X2374Y161386D01*
X2352Y161372D01*
X2327Y161362D01*
X2206Y161277D01*
X2081Y161197D01*
X2063Y161178D01*
X2041Y161163D01*
X1942Y161053D01*
X1839Y160946D01*
X1825Y160924D01*
X1808Y160904D01*
X1736Y160774D01*
X1660Y160647D01*
X1652Y160622D01*
X1639Y160599D01*
X1599Y160456D01*
X1554Y160315D01*
X1552Y160289D01*
X1544Y160264D01*
X1525Y160020D01*
X1525Y127185D01*
X1528Y127156D01*
X1526Y127127D01*
X1548Y126983D01*
X1565Y126838D01*
X1574Y126811D01*
X1579Y126783D01*
X1633Y126648D01*
X1682Y126510D01*
X1698Y126486D01*
X1709Y126459D01*
X1792Y126340D01*
X1871Y126217D01*
X1892Y126197D01*
X1908Y126174D01*
X2017Y126077D01*
X2122Y125975D01*
X2147Y125960D01*
X2168Y125941D01*
X2296Y125871D01*
X2421Y125796D01*
X2448Y125788D01*
X2474Y125774D01*
X2614Y125735D01*
X2753Y125690D01*
X2782Y125688D01*
X2809Y125680D01*
X3053Y125661D01*
X17785Y125713D01*
G37*
%LPC*%
G36*
X864533Y498601D02*
X864533Y498601D01*
X854067Y501405D01*
X844684Y506823D01*
X837023Y514484D01*
X831605Y523867D01*
X828801Y534333D01*
X828801Y545167D01*
X831605Y555633D01*
X837023Y565016D01*
X844684Y572677D01*
X854067Y578095D01*
X864533Y580899D01*
X875367Y580899D01*
X885833Y578095D01*
X895216Y572677D01*
X902877Y565016D01*
X908295Y555633D01*
X911099Y545167D01*
X911099Y534333D01*
X908295Y523867D01*
X902877Y514484D01*
X895216Y506823D01*
X885833Y501405D01*
X875367Y498601D01*
X864533Y498601D01*
G37*
%LPD*%
%LPC*%
G36*
X864533Y225551D02*
X864533Y225551D01*
X854067Y228355D01*
X844684Y233773D01*
X837023Y241434D01*
X831605Y250817D01*
X828801Y261283D01*
X828801Y272117D01*
X831605Y282583D01*
X837023Y291966D01*
X844684Y299627D01*
X854067Y305045D01*
X864533Y307849D01*
X875367Y307849D01*
X885833Y305045D01*
X895216Y299627D01*
X902877Y291966D01*
X908295Y282583D01*
X911099Y272117D01*
X911099Y261283D01*
X908295Y250817D01*
X902877Y241434D01*
X895216Y233773D01*
X885833Y228355D01*
X875367Y225551D01*
X864533Y225551D01*
G37*
%LPD*%
G36*
X114418Y73120D02*
X114418Y73120D01*
X114537Y73128D01*
X114575Y73140D01*
X114616Y73145D01*
X114726Y73189D01*
X114839Y73226D01*
X114874Y73247D01*
X114911Y73262D01*
X115007Y73332D01*
X115108Y73396D01*
X115136Y73425D01*
X115169Y73449D01*
X115245Y73541D01*
X115326Y73627D01*
X115346Y73663D01*
X115371Y73694D01*
X115422Y73802D01*
X115480Y73906D01*
X115490Y73945D01*
X115507Y73982D01*
X115529Y74098D01*
X115559Y74214D01*
X115563Y74274D01*
X115567Y74294D01*
X115565Y74314D01*
X115569Y74374D01*
X115569Y114300D01*
X115554Y114418D01*
X115547Y114537D01*
X115534Y114575D01*
X115529Y114616D01*
X115486Y114726D01*
X115449Y114839D01*
X115427Y114874D01*
X115412Y114911D01*
X115343Y115007D01*
X115279Y115108D01*
X115249Y115136D01*
X115226Y115169D01*
X115134Y115245D01*
X115047Y115326D01*
X115012Y115346D01*
X114981Y115371D01*
X114873Y115422D01*
X114769Y115480D01*
X114729Y115490D01*
X114693Y115507D01*
X114576Y115529D01*
X114461Y115559D01*
X114401Y115563D01*
X114381Y115567D01*
X114360Y115565D01*
X114300Y115569D01*
X48260Y115569D01*
X48142Y115554D01*
X48023Y115547D01*
X47985Y115534D01*
X47944Y115529D01*
X47834Y115486D01*
X47721Y115449D01*
X47686Y115427D01*
X47649Y115412D01*
X47553Y115343D01*
X47452Y115279D01*
X47424Y115249D01*
X47391Y115226D01*
X47316Y115134D01*
X47234Y115047D01*
X47214Y115012D01*
X47189Y114981D01*
X47138Y114873D01*
X47080Y114769D01*
X47070Y114729D01*
X47053Y114693D01*
X47031Y114576D01*
X47001Y114461D01*
X46997Y114401D01*
X46993Y114381D01*
X46995Y114360D01*
X46991Y114300D01*
X46991Y74374D01*
X47006Y74256D01*
X47013Y74138D01*
X47026Y74099D01*
X47031Y74059D01*
X47074Y73948D01*
X47111Y73835D01*
X47133Y73801D01*
X47148Y73763D01*
X47218Y73667D01*
X47281Y73566D01*
X47311Y73539D01*
X47334Y73506D01*
X47426Y73430D01*
X47513Y73348D01*
X47548Y73329D01*
X47579Y73303D01*
X47687Y73252D01*
X47791Y73195D01*
X47831Y73185D01*
X47867Y73168D01*
X47984Y73145D01*
X48099Y73115D01*
X48160Y73112D01*
X48180Y73108D01*
X48200Y73109D01*
X48260Y73105D01*
X114300Y73105D01*
X114418Y73120D01*
G37*
G36*
X114418Y1540D02*
X114418Y1540D01*
X114537Y1547D01*
X114575Y1560D01*
X114616Y1565D01*
X114726Y1608D01*
X114839Y1645D01*
X114874Y1667D01*
X114911Y1682D01*
X115007Y1751D01*
X115108Y1815D01*
X115136Y1845D01*
X115169Y1868D01*
X115245Y1960D01*
X115326Y2047D01*
X115346Y2082D01*
X115371Y2113D01*
X115422Y2221D01*
X115480Y2325D01*
X115490Y2365D01*
X115507Y2401D01*
X115529Y2518D01*
X115559Y2633D01*
X115563Y2693D01*
X115567Y2713D01*
X115565Y2734D01*
X115569Y2794D01*
X115569Y40640D01*
X115554Y40758D01*
X115547Y40877D01*
X115534Y40915D01*
X115529Y40956D01*
X115486Y41066D01*
X115449Y41179D01*
X115427Y41214D01*
X115412Y41251D01*
X115343Y41347D01*
X115279Y41448D01*
X115249Y41476D01*
X115226Y41509D01*
X115134Y41585D01*
X115047Y41666D01*
X115012Y41686D01*
X114981Y41711D01*
X114873Y41762D01*
X114769Y41820D01*
X114729Y41830D01*
X114693Y41847D01*
X114576Y41869D01*
X114461Y41899D01*
X114401Y41903D01*
X114381Y41907D01*
X114360Y41905D01*
X114300Y41909D01*
X39511Y41909D01*
X39374Y41892D01*
X39235Y41879D01*
X39216Y41872D01*
X39196Y41869D01*
X39067Y41818D01*
X38936Y41771D01*
X38919Y41760D01*
X38900Y41752D01*
X38788Y41671D01*
X38673Y41593D01*
X38659Y41577D01*
X38643Y41566D01*
X38554Y41458D01*
X38462Y41354D01*
X38453Y41336D01*
X38440Y41321D01*
X38381Y41195D01*
X38317Y41071D01*
X38313Y41051D01*
X38304Y41033D01*
X38278Y40897D01*
X38248Y40761D01*
X38248Y40740D01*
X38245Y40721D01*
X38253Y40582D01*
X38257Y40443D01*
X38263Y40423D01*
X38264Y40403D01*
X38307Y40271D01*
X38346Y40137D01*
X38356Y40120D01*
X38362Y40101D01*
X38437Y39983D01*
X38507Y39863D01*
X38526Y39842D01*
X38533Y39832D01*
X38547Y39818D01*
X38614Y39743D01*
X76460Y1896D01*
X76538Y1836D01*
X76610Y1768D01*
X76663Y1739D01*
X76711Y1702D01*
X76802Y1662D01*
X76889Y1614D01*
X76947Y1599D01*
X77003Y1575D01*
X77101Y1560D01*
X77197Y1535D01*
X77297Y1529D01*
X77317Y1525D01*
X77329Y1527D01*
X77357Y1525D01*
X114300Y1525D01*
X114418Y1540D01*
G37*
%LPC*%
G36*
X865548Y99791D02*
X865548Y99791D01*
X857415Y103160D01*
X851190Y109385D01*
X847821Y117518D01*
X847821Y126322D01*
X851190Y134455D01*
X857415Y140680D01*
X865548Y144049D01*
X874352Y144049D01*
X882485Y140680D01*
X888710Y134455D01*
X892079Y126322D01*
X892079Y117518D01*
X888710Y109385D01*
X882485Y103160D01*
X874352Y99791D01*
X865548Y99791D01*
G37*
%LPD*%
%LPC*%
G36*
X236185Y294355D02*
X236185Y294355D01*
X228612Y297492D01*
X222816Y303288D01*
X219679Y310861D01*
X219679Y319059D01*
X222816Y326632D01*
X228612Y332428D01*
X229919Y332969D01*
X234823Y335000D01*
X234823Y335001D01*
X236185Y335565D01*
X244383Y335565D01*
X251956Y332428D01*
X257752Y326632D01*
X260889Y319059D01*
X260889Y310861D01*
X257752Y303288D01*
X251956Y297492D01*
X244383Y294355D01*
X236185Y294355D01*
G37*
%LPD*%
%LPC*%
G36*
X874013Y618743D02*
X874013Y618743D01*
X874013Y636301D01*
X889365Y636301D01*
X890011Y636128D01*
X890590Y635793D01*
X891063Y635320D01*
X891398Y634741D01*
X891571Y634095D01*
X891571Y618743D01*
X874013Y618743D01*
G37*
%LPD*%
%LPC*%
G36*
X848329Y618743D02*
X848329Y618743D01*
X848329Y634095D01*
X848502Y634741D01*
X848837Y635320D01*
X849310Y635793D01*
X849889Y636128D01*
X850535Y636301D01*
X865887Y636301D01*
X865887Y618743D01*
X848329Y618743D01*
G37*
%LPD*%
%LPC*%
G36*
X874013Y593059D02*
X874013Y593059D01*
X874013Y610617D01*
X891571Y610617D01*
X891571Y595265D01*
X891398Y594619D01*
X891063Y594040D01*
X890590Y593567D01*
X890011Y593232D01*
X889365Y593059D01*
X874013Y593059D01*
G37*
%LPD*%
%LPC*%
G36*
X850535Y593059D02*
X850535Y593059D01*
X849889Y593232D01*
X849310Y593567D01*
X848837Y594040D01*
X848502Y594619D01*
X848329Y595265D01*
X848329Y610617D01*
X865887Y610617D01*
X865887Y593059D01*
X850535Y593059D01*
G37*
%LPD*%
%LPC*%
G36*
X874013Y199643D02*
X874013Y199643D01*
X874013Y216829D01*
X875945Y216388D01*
X878237Y215586D01*
X880425Y214533D01*
X882481Y213241D01*
X884380Y211727D01*
X886097Y210010D01*
X887611Y208111D01*
X888903Y206055D01*
X889956Y203867D01*
X890758Y201575D01*
X891199Y199643D01*
X874013Y199643D01*
G37*
%LPD*%
%LPC*%
G36*
X848701Y199643D02*
X848701Y199643D01*
X849142Y201575D01*
X849944Y203867D01*
X850997Y206055D01*
X852289Y208111D01*
X853803Y210010D01*
X855520Y211727D01*
X857419Y213241D01*
X859475Y214533D01*
X861663Y215586D01*
X863955Y216388D01*
X865887Y216829D01*
X865887Y199643D01*
X848701Y199643D01*
G37*
%LPD*%
%LPC*%
G36*
X874013Y191517D02*
X874013Y191517D01*
X891199Y191517D01*
X890758Y189585D01*
X889956Y187293D01*
X888903Y185105D01*
X887611Y183049D01*
X886097Y181150D01*
X884380Y179433D01*
X882481Y177919D01*
X880425Y176627D01*
X878237Y175574D01*
X875945Y174772D01*
X874013Y174331D01*
X874013Y191517D01*
G37*
%LPD*%
%LPC*%
G36*
X863955Y174772D02*
X863955Y174772D01*
X861663Y175574D01*
X859475Y176627D01*
X857419Y177919D01*
X855520Y179433D01*
X853803Y181150D01*
X852289Y183049D01*
X850997Y185105D01*
X849944Y187293D01*
X849142Y189585D01*
X848701Y191517D01*
X865887Y191517D01*
X865887Y174331D01*
X863955Y174772D01*
G37*
%LPD*%
%LPC*%
G36*
X234718Y215971D02*
X234718Y215971D01*
X231944Y217120D01*
X229820Y219244D01*
X228671Y222018D01*
X228671Y225022D01*
X229820Y227796D01*
X231944Y229920D01*
X234718Y231069D01*
X237722Y231069D01*
X240496Y229920D01*
X242620Y227796D01*
X243769Y225022D01*
X243769Y222018D01*
X242620Y219244D01*
X240496Y217120D01*
X237722Y215971D01*
X234718Y215971D01*
G37*
%LPD*%
%LPC*%
G36*
X430298Y83891D02*
X430298Y83891D01*
X427524Y85040D01*
X425400Y87164D01*
X424251Y89938D01*
X424251Y92942D01*
X425400Y95716D01*
X427524Y97840D01*
X430298Y98989D01*
X433302Y98989D01*
X436076Y97840D01*
X438200Y95716D01*
X439349Y92942D01*
X439349Y89938D01*
X438200Y87164D01*
X436076Y85040D01*
X433302Y83891D01*
X430298Y83891D01*
G37*
%LPD*%
%LPC*%
G36*
X264349Y368743D02*
X264349Y368743D01*
X264349Y379285D01*
X272685Y379285D01*
X273331Y379112D01*
X273910Y378777D01*
X274383Y378304D01*
X274718Y377725D01*
X274891Y377079D01*
X274891Y368743D01*
X264349Y368743D01*
G37*
%LPD*%
%LPC*%
G36*
X245809Y368743D02*
X245809Y368743D01*
X245809Y377079D01*
X245982Y377725D01*
X246317Y378304D01*
X246790Y378777D01*
X247369Y379112D01*
X248015Y379285D01*
X256351Y379285D01*
X256351Y368743D01*
X245809Y368743D01*
G37*
%LPD*%
%LPC*%
G36*
X264349Y350203D02*
X264349Y350203D01*
X264349Y360745D01*
X274891Y360745D01*
X274891Y352409D01*
X274718Y351763D01*
X274383Y351184D01*
X273910Y350711D01*
X273331Y350376D01*
X272685Y350203D01*
X264349Y350203D01*
G37*
%LPD*%
%LPC*%
G36*
X248015Y350203D02*
X248015Y350203D01*
X247369Y350376D01*
X246790Y350711D01*
X246317Y351184D01*
X245982Y351763D01*
X245809Y352409D01*
X245809Y360745D01*
X256351Y360745D01*
X256351Y350203D01*
X248015Y350203D01*
G37*
%LPD*%
%LPC*%
G36*
X202043Y177065D02*
X202043Y177065D01*
X199906Y177950D01*
X198270Y179586D01*
X197385Y181723D01*
X197385Y184037D01*
X198270Y186174D01*
X199906Y187810D01*
X202043Y188695D01*
X204357Y188695D01*
X206494Y187810D01*
X208130Y186174D01*
X209015Y184037D01*
X209015Y181723D01*
X208130Y179586D01*
X206494Y177950D01*
X204357Y177065D01*
X202043Y177065D01*
G37*
%LPD*%
%LPC*%
G36*
X187805Y162000D02*
X187805Y162000D01*
X185668Y162885D01*
X184033Y164521D01*
X183147Y166658D01*
X183147Y168971D01*
X184033Y171109D01*
X185668Y172744D01*
X187805Y173629D01*
X190119Y173629D01*
X192256Y172744D01*
X193892Y171109D01*
X194777Y168971D01*
X194777Y166658D01*
X193892Y164521D01*
X192256Y162885D01*
X190119Y162000D01*
X187805Y162000D01*
G37*
%LPD*%
%LPC*%
G36*
X202043Y146585D02*
X202043Y146585D01*
X199906Y147470D01*
X198270Y149106D01*
X197385Y151243D01*
X197385Y153557D01*
X198270Y155694D01*
X199906Y157330D01*
X202043Y158215D01*
X204357Y158215D01*
X206494Y157330D01*
X208130Y155694D01*
X209015Y153557D01*
X209015Y151243D01*
X208130Y149106D01*
X206494Y147470D01*
X204357Y146585D01*
X202043Y146585D01*
G37*
%LPD*%
%LPC*%
G36*
X414261Y135002D02*
X414261Y135002D01*
X412124Y135887D01*
X410488Y137523D01*
X409603Y139660D01*
X409603Y141973D01*
X410488Y144110D01*
X412124Y145746D01*
X414261Y146631D01*
X416574Y146631D01*
X418712Y145746D01*
X420347Y144110D01*
X421233Y141973D01*
X421233Y139660D01*
X420347Y137523D01*
X418712Y135887D01*
X416574Y135002D01*
X414261Y135002D01*
G37*
%LPD*%
%LPC*%
G36*
X454901Y104522D02*
X454901Y104522D01*
X452764Y105407D01*
X451128Y107043D01*
X450243Y109180D01*
X450243Y111493D01*
X451128Y113630D01*
X452764Y115266D01*
X454901Y116151D01*
X457214Y116151D01*
X459352Y115266D01*
X460987Y113630D01*
X461873Y111493D01*
X461873Y109180D01*
X460987Y107043D01*
X459352Y105407D01*
X457214Y104522D01*
X454901Y104522D01*
G37*
%LPD*%
%LPC*%
G36*
X370741Y283769D02*
X370741Y283769D01*
X368604Y284654D01*
X366968Y286290D01*
X366083Y288427D01*
X366083Y290740D01*
X366968Y292877D01*
X368604Y294513D01*
X370741Y295398D01*
X373054Y295398D01*
X375191Y294513D01*
X376827Y292877D01*
X377712Y290740D01*
X377712Y288427D01*
X376827Y286290D01*
X375191Y284654D01*
X373054Y283769D01*
X370741Y283769D01*
G37*
%LPD*%
%LPC*%
G36*
X331583Y75465D02*
X331583Y75465D01*
X329446Y76350D01*
X327810Y77986D01*
X326925Y80123D01*
X326925Y82437D01*
X327810Y84574D01*
X329446Y86210D01*
X331583Y87095D01*
X333897Y87095D01*
X336034Y86210D01*
X337670Y84574D01*
X338555Y82437D01*
X338555Y80123D01*
X337670Y77986D01*
X336034Y76350D01*
X333897Y75465D01*
X331583Y75465D01*
G37*
%LPD*%
%LPC*%
G36*
X458308Y253268D02*
X458308Y253268D01*
X456171Y254154D01*
X454535Y255789D01*
X453650Y257926D01*
X453650Y260240D01*
X454535Y262377D01*
X456171Y264013D01*
X458308Y264898D01*
X460621Y264898D01*
X462758Y264013D01*
X464394Y262377D01*
X465279Y260240D01*
X465279Y257926D01*
X464394Y255789D01*
X462758Y254154D01*
X460621Y253268D01*
X458308Y253268D01*
G37*
%LPD*%
%LPC*%
G36*
X869949Y614679D02*
X869949Y614679D01*
X869949Y614681D01*
X869951Y614681D01*
X869951Y614679D01*
X869949Y614679D01*
G37*
%LPD*%
%LPC*%
G36*
X869949Y195579D02*
X869949Y195579D01*
X869949Y195581D01*
X869951Y195581D01*
X869951Y195579D01*
X869949Y195579D01*
G37*
%LPD*%
D10*
X819150Y0D02*
X819150Y88900D01*
X929640Y88900D01*
X930150Y88900D01*
X929640Y622300D02*
X850900Y698500D01*
X152400Y698500D01*
X152400Y284480D01*
X101600Y284480D01*
X101600Y254000D01*
X0Y254000D01*
X0Y76200D01*
X76200Y0D01*
X929640Y88900D02*
X929640Y622300D01*
X819150Y0D02*
X76200Y0D01*
D11*
X869950Y266700D03*
X869950Y539750D03*
D12*
X869950Y614680D03*
D13*
X869950Y469900D03*
X869950Y401320D03*
X869950Y335280D03*
X869950Y195580D03*
X869950Y121920D03*
D10*
X855950Y542290D02*
X855954Y542634D01*
X855967Y542977D01*
X855988Y543320D01*
X856017Y543662D01*
X856055Y544004D01*
X856102Y544344D01*
X856156Y544683D01*
X856219Y545021D01*
X856290Y545357D01*
X856370Y545692D01*
X856457Y546024D01*
X856553Y546354D01*
X856657Y546682D01*
X856768Y547006D01*
X856888Y547329D01*
X857016Y547648D01*
X857151Y547963D01*
X857294Y548276D01*
X857445Y548585D01*
X857603Y548890D01*
X857769Y549191D01*
X857942Y549487D01*
X858122Y549780D01*
X858309Y550068D01*
X858504Y550351D01*
X858705Y550630D01*
X858913Y550903D01*
X859128Y551172D01*
X859349Y551434D01*
X859577Y551692D01*
X859811Y551944D01*
X860051Y552189D01*
X860296Y552429D01*
X860548Y552663D01*
X860806Y552891D01*
X861068Y553112D01*
X861337Y553327D01*
X861610Y553535D01*
X861889Y553736D01*
X862172Y553931D01*
X862460Y554118D01*
X862753Y554298D01*
X863049Y554471D01*
X863350Y554637D01*
X863655Y554795D01*
X863964Y554946D01*
X864277Y555089D01*
X864592Y555224D01*
X864911Y555352D01*
X865234Y555472D01*
X865558Y555583D01*
X865886Y555687D01*
X866216Y555783D01*
X866548Y555870D01*
X866883Y555950D01*
X867219Y556021D01*
X867557Y556084D01*
X867896Y556138D01*
X868236Y556185D01*
X868578Y556223D01*
X868920Y556252D01*
X869263Y556273D01*
X869606Y556286D01*
X869950Y556290D01*
X870294Y556286D01*
X870637Y556273D01*
X870980Y556252D01*
X871322Y556223D01*
X871664Y556185D01*
X872004Y556138D01*
X872343Y556084D01*
X872681Y556021D01*
X873017Y555950D01*
X873352Y555870D01*
X873684Y555783D01*
X874014Y555687D01*
X874342Y555583D01*
X874666Y555472D01*
X874989Y555352D01*
X875308Y555224D01*
X875623Y555089D01*
X875936Y554946D01*
X876245Y554795D01*
X876550Y554637D01*
X876851Y554471D01*
X877147Y554298D01*
X877440Y554118D01*
X877728Y553931D01*
X878011Y553736D01*
X878290Y553535D01*
X878563Y553327D01*
X878832Y553112D01*
X879094Y552891D01*
X879352Y552663D01*
X879604Y552429D01*
X879849Y552189D01*
X880089Y551944D01*
X880323Y551692D01*
X880551Y551434D01*
X880772Y551172D01*
X880987Y550903D01*
X881195Y550630D01*
X881396Y550351D01*
X881591Y550068D01*
X881778Y549780D01*
X881958Y549487D01*
X882131Y549191D01*
X882297Y548890D01*
X882455Y548585D01*
X882606Y548276D01*
X882749Y547963D01*
X882884Y547648D01*
X883012Y547329D01*
X883132Y547006D01*
X883243Y546682D01*
X883347Y546354D01*
X883443Y546024D01*
X883530Y545692D01*
X883610Y545357D01*
X883681Y545021D01*
X883744Y544683D01*
X883798Y544344D01*
X883845Y544004D01*
X883883Y543662D01*
X883912Y543320D01*
X883933Y542977D01*
X883946Y542634D01*
X883950Y542290D01*
X883946Y541946D01*
X883933Y541603D01*
X883912Y541260D01*
X883883Y540918D01*
X883845Y540576D01*
X883798Y540236D01*
X883744Y539897D01*
X883681Y539559D01*
X883610Y539223D01*
X883530Y538888D01*
X883443Y538556D01*
X883347Y538226D01*
X883243Y537898D01*
X883132Y537574D01*
X883012Y537251D01*
X882884Y536932D01*
X882749Y536617D01*
X882606Y536304D01*
X882455Y535995D01*
X882297Y535690D01*
X882131Y535389D01*
X881958Y535093D01*
X881778Y534800D01*
X881591Y534512D01*
X881396Y534229D01*
X881195Y533950D01*
X880987Y533677D01*
X880772Y533408D01*
X880551Y533146D01*
X880323Y532888D01*
X880089Y532636D01*
X879849Y532391D01*
X879604Y532151D01*
X879352Y531917D01*
X879094Y531689D01*
X878832Y531468D01*
X878563Y531253D01*
X878290Y531045D01*
X878011Y530844D01*
X877728Y530649D01*
X877440Y530462D01*
X877147Y530282D01*
X876851Y530109D01*
X876550Y529943D01*
X876245Y529785D01*
X875936Y529634D01*
X875623Y529491D01*
X875308Y529356D01*
X874989Y529228D01*
X874666Y529108D01*
X874342Y528997D01*
X874014Y528893D01*
X873684Y528797D01*
X873352Y528710D01*
X873017Y528630D01*
X872681Y528559D01*
X872343Y528496D01*
X872004Y528442D01*
X871664Y528395D01*
X871322Y528357D01*
X870980Y528328D01*
X870637Y528307D01*
X870294Y528294D01*
X869950Y528290D01*
X869606Y528294D01*
X869263Y528307D01*
X868920Y528328D01*
X868578Y528357D01*
X868236Y528395D01*
X867896Y528442D01*
X867557Y528496D01*
X867219Y528559D01*
X866883Y528630D01*
X866548Y528710D01*
X866216Y528797D01*
X865886Y528893D01*
X865558Y528997D01*
X865234Y529108D01*
X864911Y529228D01*
X864592Y529356D01*
X864277Y529491D01*
X863964Y529634D01*
X863655Y529785D01*
X863350Y529943D01*
X863049Y530109D01*
X862753Y530282D01*
X862460Y530462D01*
X862172Y530649D01*
X861889Y530844D01*
X861610Y531045D01*
X861337Y531253D01*
X861068Y531468D01*
X860806Y531689D01*
X860548Y531917D01*
X860296Y532151D01*
X860051Y532391D01*
X859811Y532636D01*
X859577Y532888D01*
X859349Y533146D01*
X859128Y533408D01*
X858913Y533677D01*
X858705Y533950D01*
X858504Y534229D01*
X858309Y534512D01*
X858122Y534800D01*
X857942Y535093D01*
X857769Y535389D01*
X857603Y535690D01*
X857445Y535995D01*
X857294Y536304D01*
X857151Y536617D01*
X857016Y536932D01*
X856888Y537251D01*
X856768Y537574D01*
X856657Y537898D01*
X856553Y538226D01*
X856457Y538556D01*
X856370Y538888D01*
X856290Y539223D01*
X856219Y539559D01*
X856156Y539897D01*
X856102Y540236D01*
X856055Y540576D01*
X856017Y540918D01*
X855988Y541260D01*
X855967Y541603D01*
X855954Y541946D01*
X855950Y542290D01*
X855950Y265430D02*
X855954Y265774D01*
X855967Y266117D01*
X855988Y266460D01*
X856017Y266802D01*
X856055Y267144D01*
X856102Y267484D01*
X856156Y267823D01*
X856219Y268161D01*
X856290Y268497D01*
X856370Y268832D01*
X856457Y269164D01*
X856553Y269494D01*
X856657Y269822D01*
X856768Y270146D01*
X856888Y270469D01*
X857016Y270788D01*
X857151Y271103D01*
X857294Y271416D01*
X857445Y271725D01*
X857603Y272030D01*
X857769Y272331D01*
X857942Y272627D01*
X858122Y272920D01*
X858309Y273208D01*
X858504Y273491D01*
X858705Y273770D01*
X858913Y274043D01*
X859128Y274312D01*
X859349Y274574D01*
X859577Y274832D01*
X859811Y275084D01*
X860051Y275329D01*
X860296Y275569D01*
X860548Y275803D01*
X860806Y276031D01*
X861068Y276252D01*
X861337Y276467D01*
X861610Y276675D01*
X861889Y276876D01*
X862172Y277071D01*
X862460Y277258D01*
X862753Y277438D01*
X863049Y277611D01*
X863350Y277777D01*
X863655Y277935D01*
X863964Y278086D01*
X864277Y278229D01*
X864592Y278364D01*
X864911Y278492D01*
X865234Y278612D01*
X865558Y278723D01*
X865886Y278827D01*
X866216Y278923D01*
X866548Y279010D01*
X866883Y279090D01*
X867219Y279161D01*
X867557Y279224D01*
X867896Y279278D01*
X868236Y279325D01*
X868578Y279363D01*
X868920Y279392D01*
X869263Y279413D01*
X869606Y279426D01*
X869950Y279430D01*
X870294Y279426D01*
X870637Y279413D01*
X870980Y279392D01*
X871322Y279363D01*
X871664Y279325D01*
X872004Y279278D01*
X872343Y279224D01*
X872681Y279161D01*
X873017Y279090D01*
X873352Y279010D01*
X873684Y278923D01*
X874014Y278827D01*
X874342Y278723D01*
X874666Y278612D01*
X874989Y278492D01*
X875308Y278364D01*
X875623Y278229D01*
X875936Y278086D01*
X876245Y277935D01*
X876550Y277777D01*
X876851Y277611D01*
X877147Y277438D01*
X877440Y277258D01*
X877728Y277071D01*
X878011Y276876D01*
X878290Y276675D01*
X878563Y276467D01*
X878832Y276252D01*
X879094Y276031D01*
X879352Y275803D01*
X879604Y275569D01*
X879849Y275329D01*
X880089Y275084D01*
X880323Y274832D01*
X880551Y274574D01*
X880772Y274312D01*
X880987Y274043D01*
X881195Y273770D01*
X881396Y273491D01*
X881591Y273208D01*
X881778Y272920D01*
X881958Y272627D01*
X882131Y272331D01*
X882297Y272030D01*
X882455Y271725D01*
X882606Y271416D01*
X882749Y271103D01*
X882884Y270788D01*
X883012Y270469D01*
X883132Y270146D01*
X883243Y269822D01*
X883347Y269494D01*
X883443Y269164D01*
X883530Y268832D01*
X883610Y268497D01*
X883681Y268161D01*
X883744Y267823D01*
X883798Y267484D01*
X883845Y267144D01*
X883883Y266802D01*
X883912Y266460D01*
X883933Y266117D01*
X883946Y265774D01*
X883950Y265430D01*
X883946Y265086D01*
X883933Y264743D01*
X883912Y264400D01*
X883883Y264058D01*
X883845Y263716D01*
X883798Y263376D01*
X883744Y263037D01*
X883681Y262699D01*
X883610Y262363D01*
X883530Y262028D01*
X883443Y261696D01*
X883347Y261366D01*
X883243Y261038D01*
X883132Y260714D01*
X883012Y260391D01*
X882884Y260072D01*
X882749Y259757D01*
X882606Y259444D01*
X882455Y259135D01*
X882297Y258830D01*
X882131Y258529D01*
X881958Y258233D01*
X881778Y257940D01*
X881591Y257652D01*
X881396Y257369D01*
X881195Y257090D01*
X880987Y256817D01*
X880772Y256548D01*
X880551Y256286D01*
X880323Y256028D01*
X880089Y255776D01*
X879849Y255531D01*
X879604Y255291D01*
X879352Y255057D01*
X879094Y254829D01*
X878832Y254608D01*
X878563Y254393D01*
X878290Y254185D01*
X878011Y253984D01*
X877728Y253789D01*
X877440Y253602D01*
X877147Y253422D01*
X876851Y253249D01*
X876550Y253083D01*
X876245Y252925D01*
X875936Y252774D01*
X875623Y252631D01*
X875308Y252496D01*
X874989Y252368D01*
X874666Y252248D01*
X874342Y252137D01*
X874014Y252033D01*
X873684Y251937D01*
X873352Y251850D01*
X873017Y251770D01*
X872681Y251699D01*
X872343Y251636D01*
X872004Y251582D01*
X871664Y251535D01*
X871322Y251497D01*
X870980Y251468D01*
X870637Y251447D01*
X870294Y251434D01*
X869950Y251430D01*
X869606Y251434D01*
X869263Y251447D01*
X868920Y251468D01*
X868578Y251497D01*
X868236Y251535D01*
X867896Y251582D01*
X867557Y251636D01*
X867219Y251699D01*
X866883Y251770D01*
X866548Y251850D01*
X866216Y251937D01*
X865886Y252033D01*
X865558Y252137D01*
X865234Y252248D01*
X864911Y252368D01*
X864592Y252496D01*
X864277Y252631D01*
X863964Y252774D01*
X863655Y252925D01*
X863350Y253083D01*
X863049Y253249D01*
X862753Y253422D01*
X862460Y253602D01*
X862172Y253789D01*
X861889Y253984D01*
X861610Y254185D01*
X861337Y254393D01*
X861068Y254608D01*
X860806Y254829D01*
X860548Y255057D01*
X860296Y255291D01*
X860051Y255531D01*
X859811Y255776D01*
X859577Y256028D01*
X859349Y256286D01*
X859128Y256548D01*
X858913Y256817D01*
X858705Y257090D01*
X858504Y257369D01*
X858309Y257652D01*
X858122Y257940D01*
X857942Y258233D01*
X857769Y258529D01*
X857603Y258830D01*
X857445Y259135D01*
X857294Y259444D01*
X857151Y259757D01*
X857016Y260072D01*
X856888Y260391D01*
X856768Y260714D01*
X856657Y261038D01*
X856553Y261366D01*
X856457Y261696D01*
X856370Y262028D01*
X856290Y262363D01*
X856219Y262699D01*
X856156Y263037D01*
X856102Y263376D01*
X856055Y263716D01*
X856017Y264058D01*
X855988Y264400D01*
X855967Y264743D01*
X855954Y265086D01*
X855950Y265430D01*
D14*
X260350Y364744D03*
D15*
X260350Y425196D03*
X260350Y485648D03*
X260350Y546100D03*
X260350Y606552D03*
X196850Y606552D03*
X196850Y546100D03*
X196850Y485648D03*
X196850Y425196D03*
X196850Y364744D03*
D13*
X239776Y656336D03*
X240284Y314960D03*
D16*
X678180Y647700D03*
X652780Y650240D03*
X627380Y647700D03*
X601980Y650240D03*
X576580Y647700D03*
X551180Y650240D03*
D17*
X193360Y58420D03*
D18*
X79810Y58420D03*
X79810Y33020D03*
X79810Y83820D03*
D19*
X514343Y431446D03*
X532343Y431446D03*
X532275Y464982D03*
X514275Y464982D03*
X532308Y395663D03*
X514308Y395663D03*
X514233Y378441D03*
X532233Y378441D03*
D20*
X365360Y59060D03*
X315360Y59060D03*
D21*
X375360Y37600D02*
X375360Y26520D01*
X305360Y26520D02*
X305360Y37600D01*
D19*
X514240Y414020D03*
X532240Y414020D03*
D22*
X481330Y327660D03*
X468630Y327660D03*
D23*
X481330Y327660D01*
D24*
X22860Y130810D03*
X22860Y118110D03*
D23*
X22860Y130810D01*
D25*
X106738Y33113D03*
D26*
X109425Y9097D03*
X94640Y7978D03*
D27*
X271780Y591820D03*
X507104Y365335D03*
X508673Y502606D03*
X611144Y495570D03*
X408048Y399423D03*
X525505Y289563D03*
X271780Y627380D03*
X271780Y662940D03*
X371897Y289583D03*
D28*
X431800Y91440D03*
D27*
X393700Y533400D03*
D29*
X779780Y650240D03*
X596900Y304800D03*
X594360Y561340D03*
X481172Y487819D03*
D27*
X203200Y152400D03*
D26*
X109220Y20320D03*
D27*
X805180Y76200D03*
X361813Y368367D03*
X420074Y602020D03*
X421168Y576347D03*
D30*
X514233Y378441D02*
X511299Y375507D01*
X511299Y374610D01*
X507104Y370415D01*
X507104Y365335D01*
D27*
X415418Y140817D03*
X452120Y190500D03*
D31*
X472440Y190500D01*
D27*
X472440Y190500D03*
X456058Y110337D03*
X649098Y100177D03*
X659570Y463678D03*
X459465Y259083D03*
X646362Y326531D03*
X656021Y603437D03*
D26*
X82393Y7864D03*
X54056Y34896D03*
D27*
X567394Y558840D03*
D28*
X767080Y88900D03*
X375091Y514655D03*
D27*
X452120Y515620D03*
D31*
X376056Y515620D01*
X375091Y514655D01*
D27*
X555543Y506561D03*
D31*
X460841Y506561D02*
X391160Y506561D01*
X460841Y506561D02*
X469900Y515620D01*
X554104Y515620D02*
X555543Y514181D01*
X554104Y515620D02*
X469900Y515620D01*
X555543Y514181D02*
X555543Y506561D01*
D28*
X391160Y506561D03*
X391160Y400558D03*
X387855Y575355D03*
X403401Y643793D03*
X414020Y353060D03*
D30*
X419100Y358140D01*
D27*
X469900Y358140D03*
D30*
X419100Y358140D01*
D27*
X260367Y574866D03*
X922047Y384265D03*
X922412Y305959D03*
D26*
X12700Y195580D03*
X12700Y208280D03*
X12700Y220980D03*
X12700Y233680D03*
X53340Y233680D03*
X53340Y220980D03*
X53340Y208280D03*
X53340Y195580D03*
X63641Y105624D03*
X76200Y105624D03*
X88900Y105483D03*
X101671Y105342D03*
D32*
X809554Y675153D03*
D27*
X188962Y167815D03*
D25*
X107160Y83828D03*
D27*
X922510Y455317D03*
X386080Y429260D03*
D23*
X381000Y424180D01*
X292161Y444500D02*
X170180Y444500D01*
D27*
X916237Y102861D03*
D28*
X910460Y429490D03*
X895181Y453026D03*
D27*
X703580Y419100D03*
X701040Y558800D03*
D23*
X782320Y589280D02*
X800100Y589280D01*
X782320Y589280D02*
X751840Y558800D01*
X701040Y558800D01*
D27*
X706120Y287020D03*
D33*
X739140Y439420D02*
X815340Y439420D01*
X739140Y439420D02*
X718820Y419100D01*
X703580Y419100D01*
X833120Y198120D02*
X820420Y185420D01*
D28*
X910460Y442190D03*
X910460Y363450D03*
X910460Y376150D03*
X895220Y348210D03*
D33*
X869950Y195580D02*
X797560Y195580D01*
X784860Y182880D01*
X706120Y182880D01*
X703580Y185420D01*
D27*
X703580Y185420D03*
D33*
X706120Y287020D02*
X723900Y287020D01*
X741680Y304800D01*
X789940Y304800D01*
D31*
X848590Y363450D02*
X910460Y363450D01*
X848590Y363450D02*
X789940Y304800D01*
D23*
X312481Y424180D02*
X292161Y444500D01*
X312481Y424180D02*
X381000Y424180D01*
D28*
X55986Y149970D03*
D34*
X843280Y683260D03*
D29*
X207424Y209622D03*
D27*
X739140Y314960D03*
D31*
X779780Y314960D02*
X782320Y317500D01*
X779780Y314960D02*
X739140Y314960D01*
D27*
X782320Y317500D03*
X748819Y454179D03*
X782320Y459740D03*
X744220Y599440D03*
X777240Y609600D03*
D33*
X776759Y454179D02*
X748819Y454179D01*
X776759Y454179D02*
X782320Y459740D01*
X767080Y599440D02*
X744220Y599440D01*
X767080Y599440D02*
X777240Y609600D01*
D28*
X292100Y363220D03*
X53340Y53340D03*
X22860Y66040D03*
X30480Y58420D03*
D25*
X106754Y58398D03*
D35*
X277647Y19271D03*
D25*
X135407Y120871D03*
D27*
X419390Y645966D03*
X533987Y630520D03*
X420801Y585358D03*
X693265Y92991D03*
X441960Y45720D03*
X365760Y142240D03*
X549440Y498766D03*
X593257Y496796D03*
X407887Y416721D03*
X542306Y289528D03*
X344922Y635838D03*
X346995Y614486D03*
X346995Y584006D03*
X321613Y530652D03*
X322784Y488840D03*
X371938Y273033D03*
X279400Y149860D03*
X355600Y386080D03*
X381000Y563880D03*
D34*
X723900Y650240D03*
X596900Y248920D03*
D29*
X647700Y561340D03*
D34*
X429721Y487670D03*
D28*
X40640Y53340D03*
D25*
X127787Y16731D03*
D27*
X805254Y49347D03*
X787400Y7620D03*
X643090Y31825D03*
D36*
X468630Y327660D02*
X439420Y327660D01*
D27*
X469900Y109220D03*
X429411Y155940D03*
X415277Y123061D03*
X660356Y445996D03*
X599440Y157480D03*
X647286Y308360D03*
X656757Y588236D03*
X360680Y353060D03*
X506690Y6900D03*
X542095Y6087D03*
X577655Y6087D03*
X613215Y6087D03*
D37*
X744220Y203200D03*
D38*
X802640Y215900D02*
X802640Y292100D01*
X845820Y335280D02*
X869950Y335280D01*
X845820Y335280D02*
X802640Y292100D01*
D37*
X758017Y203052D03*
X771807Y203172D03*
X785655Y203271D03*
D39*
X757868Y203200D02*
X744220Y203200D01*
D38*
X757868Y203200D02*
X758017Y203052D01*
D39*
X771687Y203052D01*
D38*
X771807Y203172D01*
D39*
X785556Y203172D01*
D38*
X785655Y203271D01*
X790011Y203271D01*
X802640Y215900D01*
D37*
X746760Y347980D03*
D38*
X756920Y347980D01*
D39*
X760713Y347980D02*
X746760Y347980D01*
X760713Y347980D02*
X774782Y347980D01*
X789940Y347980D01*
D37*
X760713Y347980D03*
X774782Y347980D03*
X789940Y347980D03*
D38*
X807720Y365760D01*
X807720Y396240D01*
X812800Y401320D01*
X869950Y401320D01*
X869950Y469900D02*
X854710Y469900D01*
X829310Y495300D01*
X788246Y495300D01*
D39*
X774189Y495300D01*
X760868Y495300D01*
X746760Y495300D01*
D37*
X746760Y495300D03*
X760868Y495300D03*
X774189Y495300D03*
X788246Y495300D03*
D27*
X579178Y488353D03*
D31*
X507327Y488353D01*
X507080Y488600D01*
D27*
X507080Y488600D03*
X558800Y447040D03*
D31*
X566420Y439420D02*
X721360Y439420D01*
X566420Y439420D02*
X558800Y447040D01*
D27*
X721360Y439420D03*
X556260Y426720D03*
D31*
X556260Y388620D01*
X645301Y299579D02*
X645301Y298739D01*
X645301Y299579D02*
X556260Y388620D01*
D27*
X645301Y298739D03*
X203200Y182880D03*
D28*
X472440Y213360D03*
D30*
X472440Y210820D01*
X459740Y198120D01*
X457200Y198120D01*
D27*
X457200Y198120D03*
D28*
X459740Y210820D03*
D27*
X284480Y563880D03*
D31*
X284480Y642620D01*
X302260Y660400D02*
X480060Y660400D01*
X302260Y660400D02*
X284480Y642620D01*
X480060Y660400D02*
X482600Y657860D01*
X482600Y581660D02*
X487680Y576580D01*
D27*
X487680Y576580D03*
D31*
X482600Y581660D02*
X482600Y657860D01*
D27*
X291958Y526624D03*
D31*
X292100Y640080D02*
X307340Y655320D01*
X477520Y655320D01*
X477520Y574825D02*
X488488Y563856D01*
D27*
X488488Y563856D03*
D31*
X477520Y574825D02*
X477520Y655320D01*
D30*
X291958Y639938D02*
X291958Y526624D01*
X291958Y639938D02*
X292100Y640080D01*
D27*
X601662Y545173D03*
D31*
X525760Y545173D01*
D27*
X525760Y545173D03*
D31*
X215090Y624792D02*
X196850Y606552D01*
X215090Y624792D02*
X258374Y624792D01*
X299062Y665480D01*
X485140Y665480D01*
X487680Y662940D01*
X487680Y604520D01*
X495300Y596900D01*
D27*
X495300Y596900D03*
D28*
X388620Y609600D03*
X236220Y223520D03*
D27*
X403860Y431800D03*
D28*
X403860Y307340D03*
D31*
X401320Y309880D02*
X401320Y429260D01*
X401320Y309880D02*
X403860Y307340D01*
X401320Y429260D02*
X403860Y431800D01*
D27*
X556260Y561340D03*
D31*
X556260Y632460D02*
X551180Y637540D01*
X551180Y650240D01*
X556260Y632460D02*
X556260Y561340D01*
D27*
X509435Y446657D03*
X518096Y446868D03*
D36*
X514308Y395663D02*
X510815Y392170D01*
X506470Y392170D01*
X495300Y381000D01*
X495300Y337820D01*
D31*
X514308Y395663D02*
X514240Y395730D01*
X514240Y414020D01*
X514240Y431343D01*
X514343Y431446D01*
D23*
X505460Y401320D02*
X507165Y399615D01*
X514308Y397534D02*
X514308Y395663D01*
X514308Y397534D02*
X512228Y399615D01*
X507165Y399615D01*
D31*
X514343Y439066D02*
X518096Y442818D01*
X514343Y439066D02*
X514343Y431446D01*
X518096Y442818D02*
X518096Y446868D01*
D33*
X514275Y456577D02*
X514275Y464982D01*
X514275Y456577D02*
X509435Y451737D01*
X509435Y446657D01*
D36*
X485140Y327660D02*
X481330Y327660D01*
X485140Y327660D02*
X495300Y337820D01*
D23*
X505460Y401320D02*
X505460Y442682D01*
X509435Y446657D01*
D27*
X419100Y307340D03*
D30*
X419100Y327660D01*
X406400Y340360D01*
X406400Y355600D01*
X414020Y363220D01*
X414020Y449580D01*
X429260Y464820D01*
D27*
X429260Y464820D03*
X480060Y91440D03*
D31*
X480060Y307340D01*
D27*
X480060Y307340D03*
X480060Y340360D03*
D31*
X480060Y454660D01*
D27*
X480060Y454660D03*
X439420Y347980D03*
D30*
X469900Y347980D01*
D27*
X469900Y347980D03*
X469900Y543560D03*
D31*
X472440Y543560D02*
X490220Y525780D01*
X472440Y543560D02*
X469900Y543560D01*
X490220Y525780D02*
X607060Y525780D01*
D27*
X607060Y525780D03*
X495300Y137160D03*
D31*
X624840Y137160D01*
X627380Y134620D01*
D27*
X627380Y134620D03*
D30*
X721021Y68241D02*
X721360Y68580D01*
D27*
X721360Y68580D03*
X665480Y68580D03*
D30*
X720682Y68580D01*
X721021Y68241D01*
D27*
X642620Y88900D03*
D30*
X642620Y63500D01*
D27*
X721360Y55880D03*
D30*
X650240Y55880D02*
X642620Y63500D01*
X650240Y55880D02*
X721360Y55880D01*
D27*
X635000Y106680D03*
D30*
X635000Y50800D01*
X642620Y43180D01*
X721360Y43180D01*
D27*
X721360Y43180D03*
X627987Y382962D03*
D31*
X627987Y361287D01*
X627380Y360680D01*
D27*
X627380Y360680D03*
X477520Y528320D03*
D31*
X485140Y520700D02*
X576580Y520700D01*
D27*
X579120Y472440D03*
D31*
X485140Y520700D02*
X477520Y528320D01*
X586083Y511197D02*
X586083Y479403D01*
X579120Y472440D01*
X586083Y511197D02*
X576580Y520700D01*
D27*
X526917Y446657D03*
X535690Y446269D03*
D40*
X532308Y395663D02*
X532233Y378441D01*
D31*
X532308Y395663D02*
X532308Y413952D01*
X532240Y414020D01*
X532240Y431343D01*
X532343Y431446D01*
X532343Y439066D01*
X526917Y444492D01*
X526917Y446657D01*
D23*
X532308Y395663D02*
X537903Y395663D01*
X541020Y398780D01*
D33*
X532275Y454764D02*
X532275Y464982D01*
X535690Y451349D02*
X535690Y446269D01*
X535690Y451349D02*
X532275Y454764D01*
D23*
X541020Y440939D02*
X541020Y398780D01*
X541020Y440939D02*
X535690Y446269D01*
D27*
X779780Y261620D03*
D33*
X786391Y268231D02*
X786391Y295402D01*
X786391Y268231D02*
X779780Y261620D01*
X786391Y295402D02*
X786340Y295453D01*
D27*
X786340Y295453D03*
X782320Y541020D03*
D31*
X784860Y543560D02*
X784860Y581660D01*
X784860Y543560D02*
X782320Y541020D01*
D27*
X784860Y581660D03*
X783566Y391579D03*
D33*
X783566Y426900D02*
X788646Y431980D01*
X783566Y426900D02*
X783566Y391579D01*
D27*
X788646Y431980D03*
D28*
X622300Y83820D03*
D27*
X558800Y365760D03*
D30*
X553720Y360680D01*
X553720Y279400D01*
X548640Y274320D01*
D27*
X548640Y274320D03*
D28*
X604837Y84253D03*
X586740Y83820D03*
D27*
X528320Y365760D03*
D30*
X533400Y360680D01*
X533400Y284480D02*
X530860Y281940D01*
D27*
X530860Y281940D03*
D30*
X533400Y284480D02*
X533400Y360680D01*
D28*
X568960Y83820D03*
D27*
X517812Y365747D03*
D30*
X518160Y365400D01*
X518160Y279106D01*
X523240Y274026D01*
D27*
X523240Y274026D03*
D28*
X551180Y83820D03*
X533400Y83820D03*
X515620Y83820D03*
X497840Y83820D03*
D27*
X576580Y322580D03*
X332740Y81280D03*
X619760Y447040D03*
X617990Y433039D03*
X611817Y425470D03*
X637540Y406400D03*
X640080Y386080D03*
X640080Y373380D03*
X640080Y363220D03*
X429607Y570457D03*
X436880Y563880D03*
X436880Y551180D03*
X436880Y538480D03*
X531860Y557524D03*
X531165Y577448D03*
X531397Y590422D03*
M02*
