M48
;GenerationSoftware,Autodesk,EAGLE,9.2.1*%
;CreationDate,2018-11-03T22:16:42Z*%
FMAT,2
ICI,OFF
METRIC,TZ,000.000
T10C0.350
T9C0.600
T8C0.750
T7C0.800
T6C0.850
T5C1.000
T4C1.016
T3C1.600
T2C1.600
T1C2.800
%
G90
M71
T1
X86995Y19558
X86995Y12192
X86995Y54229
X86995Y26543
X86995Y61468
X86995Y46990
X86995Y40132
X86995Y33528
X24028Y31496
X23978Y65634
T2
X27765Y1927
X84328Y68326
X72390Y65024
X59690Y24892
X42972Y48767
T3
X19685Y54610
X19685Y36474
X26035Y42520
X26035Y36474
X19685Y48565
X19685Y42520
X26035Y60655
X26035Y54610
X26035Y48565
X19685Y60655
T4
X55118Y65024
X57658Y64770
X60198Y65024
X62738Y64770
X67818Y64770
X65278Y65024
T5
X48117Y48782
X59436Y56134
X59690Y30480
X77978Y65024
X20742Y20962
X64770Y56134
T6
X77419Y49530
X74676Y34798
X75802Y20305
X76087Y49530
X74422Y20320
X74676Y49530
X78994Y34798
X77478Y34798
X78565Y20327
X36536Y5906
X77181Y20317
X78825Y49530
X76071Y34798
X31536Y5906
T7
X10716Y8383
X13541Y12087
X12779Y1673
X10674Y3311
X10675Y5840
T8
X80955Y67515
T9
X1270Y22098
X1270Y20828
X1270Y19558
X41402Y35306
X40340Y64379
X38785Y57536
X39116Y50656
X37509Y51465
X76708Y8890
X47244Y21336
X45974Y21082
X38862Y60960
X23622Y22352
X40386Y30734
X30536Y3206
X62230Y8382
X60484Y8425
X58674Y8382
X56896Y8382
X55118Y8382
X53340Y8382
X51562Y8382
X49784Y8382
X5406Y3490
X8239Y786
X5599Y14997
X89522Y34821
X91046Y37615
X91046Y36345
X91046Y44219
X3048Y5842
X89518Y45303
X91046Y42949
X2286Y6604
X5334Y5334
X10922Y2032
X29210Y36322
X43180Y9144
X39116Y40056
X4064Y5334
X1270Y23368
X10167Y10534
X8890Y10548
X7620Y10562
X6364Y10562
X5334Y19558
X5334Y20828
X5334Y22098
X9464Y798
X10943Y910
X5334Y23368
X37536Y3206
T10
X34492Y63584
X34700Y61449
X34700Y58401
X32161Y53065
X32278Y48884
X37194Y27303
X27940Y14986
X35560Y38608
X38100Y56388
X80525Y4935
X78740Y762
X64309Y3182
X46990Y10922
X42941Y15594
X41528Y12306
X66036Y44600
X59944Y15748
X64729Y30836
X65676Y58824
X36068Y35306
X50669Y690
X54210Y609
X57766Y609
X61322Y609
X27178Y59182
X50710Y36533
X50867Y50261
X61114Y49557
X40805Y39942
X52550Y28956
X27178Y62738
X27178Y66294
X37190Y28958
X39370Y53340
X20320Y15240
X80518Y7620
X57918Y48835
X50708Y48860
X55880Y44704
X72136Y43942
X55626Y42672
X64530Y29874
X20320Y18288
X36181Y36837
X45720Y19812
X42007Y60202
X28448Y56388
X48768Y57658
X29196Y52662
X48849Y56386
X60166Y54517
X52576Y54517
X49530Y59690
X42117Y57635
X41542Y14082
X40386Y43180
X45212Y19050
X55626Y56134
X50944Y44666
X51810Y44687
X41910Y30734
X42926Y46482
X48006Y9144
X48006Y30734
X48006Y34036
X48006Y45466
X43942Y34798
X46990Y34798
X46990Y54356
X60706Y52578
X49530Y13716
X62738Y13462
X72136Y6858
X66548Y6858
X64262Y8890
X72136Y5588
X63500Y10668
X72136Y4318
X62799Y38296
X62738Y36068
X47752Y52832
X57912Y47244
X52692Y44666
X53569Y44627
X77978Y26162
X47244Y19050
X78232Y54102
X78486Y58166
X78357Y39158
X78865Y43198
X45606Y11034
X55880Y36576
X54864Y27432
X64910Y10018
X65957Y46368
X52832Y36576
X53086Y28194
X45946Y25908
X51781Y36575
X52324Y27403
X64636Y32653
X65602Y60344
X56739Y55884
X45212Y51562
X57658Y32258
X33274Y8128
X61976Y44704
X61799Y43304
X61182Y42547
X63754Y40640
X64008Y38608
X64008Y37338
X64008Y36322
X42961Y57046
X43688Y56388
X43688Y55118
X43688Y53848
X78634Y29545
X53117Y57745
X53140Y59042
X55554Y50656
X46990Y35814
X26037Y57487
X92205Y38427
X92241Y30596
X18896Y16781
X92251Y45532
X38608Y42926
X91624Y10286
X70358Y41910
X70104Y55880
X70612Y28702
X70358Y18542
X73914Y31496
X78232Y31750
X74882Y45418
X78232Y45974
X74422Y59944
X77724Y60960
X41939Y64597
X53399Y63052
X42080Y58536
X69327Y9299
X44196Y4572
X36576Y14224
X54944Y49877
X59326Y49680
X40789Y41672
X54231Y28953
X53186Y55752
M30